<svg id="Layer_1" enable-background="new 0 0 512 512" height="512" viewBox="0 0 512 512" width="512" xmlns="http://www.w3.org/2000/svg"><g><path d="m313.768 334.532c-16.131 11.812-36.018 18.796-57.544 18.796-53.877 0-97.552-43.676-97.552-97.552 0-48.776 35.797-89.189 82.552-96.405v-159.371c-134.442 7.779-241.224 119.397-241.224 255.775 0 141.415 114.81 256.225 256.225 256.225 65.306 0 124.932-24.5 170.221-64.791z"/><path d="m352.628 270.775c-2.43 15.744-8.628 30.241-17.639 42.551l112.669 112.669c37.184-41.795 60.904-95.805 64.342-155.22z"/><path d="m271.225 159.371c41.865 6.461 74.944 39.539 81.405 81.405h159.37c-7.491-129.478-111.298-233.285-240.775-240.776z"/></g></svg>