<svg xmlns="http://www.w3.org/2000/svg" viewBox="0 0 512 512" xmlns:v="https://vecta.io/nano"><path d="M500.633 211.454l-58.715-14.443c-3.354-10.576-7.617-20.874-12.759-30.762l30.615-51.021c3.545-5.903 2.607-13.462-2.256-18.325l-42.422-42.422c-4.878-4.907-12.451-5.786-18.325-2.256L345.75 82.84a193.49 193.49 0 0 0-30.762-12.759l-14.443-58.715C298.876 4.688 292.885 0 286 0h-60c-6.885 0-12.876 4.688-14.546 11.367l-14.443 58.715c-10.576 3.354-20.874 7.617-30.762 12.759l-51.021-30.615c-5.903-3.516-13.462-2.607-18.325 2.256L54.481 96.903c-4.863 4.863-5.801 12.422-2.256 18.325l30.615 51.021a193.49 193.49 0 0 0-12.759 30.762l-58.715 14.443C4.688 213.124 0 219.115 0 226v60c0 6.885 4.688 12.876 11.367 14.546l58.715 14.443c3.354 10.576 7.617 20.874 12.759 30.762l-30.615 51.021c-3.545 5.903-2.607 13.462 2.256 18.325l42.422 42.422c4.834 4.878 12.407 5.771 18.325 2.256l51.021-30.615a193.49 193.49 0 0 0 30.762 12.759l14.443 58.715C213.124 507.313 219.115 512 226 512h60c6.885 0 12.876-4.688 14.546-11.367l14.443-58.715c10.576-3.354 20.874-7.617 30.762-12.759l51.021 30.615c5.889 3.53 13.462 2.593 18.325-2.256l42.422-42.422c4.863-4.863 5.801-12.422 2.256-18.325L429.16 345.75a193.49 193.49 0 0 0 12.759-30.762l58.715-14.443C507.313 298.876 512 292.885 512 286v-60c0-6.885-4.687-12.876-11.367-14.546zM256 391c-74.443 0-135-60.557-135-135s60.557-135 135-135 135 60.557 135 135-60.557 135-135 135zm0-210c-41.353 0-75 33.647-75 75s33.647 75 75 75 75-33.647 75-75-33.647-75-75-75z"/></svg>