<svg xmlns="http://www.w3.org/2000/svg" height="512pt" version="1.1" viewBox="-23 0 512 512.00072" width="512pt">
<g id="surface1">
<path d="M 348.945312 221.640625 L 348.945312 124.746094 C 348.945312 121.972656 347.664062 119.410156 345.851562 117.382812 L 237.21875 3.308594 C 235.191406 1.175781 232.308594 0 229.429688 0 L 57.195312 0 C 25.398438 0 0 25.929688 0 57.730469 L 0 383.414062 C 0 415.214844 25.398438 440.71875 57.195312 440.71875 L 193.148438 440.71875 C 218.863281 483.402344 265.605469 512 318.851562 512 C 399.738281 512 465.792969 446.265625 465.792969 365.273438 C 465.902344 294.523438 415.105469 235.40625 348.945312 221.640625 Z M 240.101562 37.457031 L 312.984375 114.179688 L 265.710938 114.179688 C 251.625 114.179688 240.101562 102.550781 240.101562 88.464844 Z M 57.195312 419.375 C 37.242188 419.375 21.34375 403.367188 21.34375 383.414062 L 21.34375 57.730469 C 21.34375 37.667969 37.242188 21.34375 57.195312 21.34375 L 218.757812 21.34375 L 218.757812 88.464844 C 218.757812 114.394531 239.78125 135.523438 265.710938 135.523438 L 327.601562 135.523438 L 327.601562 218.863281 C 324.402344 218.757812 321.839844 218.4375 319.066406 218.4375 C 281.824219 218.4375 247.570312 232.738281 221.746094 255.148438 L 86.222656 255.148438 C 80.351562 255.148438 75.550781 259.949219 75.550781 265.816406 C 75.550781 271.6875 80.351562 276.488281 86.222656 276.488281 L 201.898438 276.488281 C 194.320312 287.160156 188.023438 297.832031 183.117188 309.570312 L 86.222656 309.570312 C 80.351562 309.570312 75.550781 314.371094 75.550781 320.242188 C 75.550781 326.109375 80.351562 330.914062 86.222656 330.914062 L 176.179688 330.914062 C 173.511719 341.585938 172.125 353.429688 172.125 365.273438 C 172.125 384.480469 175.859375 403.476562 182.582031 419.484375 L 57.195312 419.484375 Z M 318.960938 490.765625 C 249.8125 490.765625 193.574219 434.527344 193.574219 365.378906 C 193.574219 296.230469 249.703125 239.992188 318.960938 239.992188 C 388.214844 239.992188 444.34375 296.230469 444.34375 365.378906 C 444.34375 434.527344 388.109375 490.765625 318.960938 490.765625 Z M 318.960938 490.765625 " style=" stroke:none;fill-rule:nonzero;fill:rgb(0%,0%,0%);fill-opacity:1;" />
<path d="M 86.222656 223.027344 L 194.320312 223.027344 C 200.191406 223.027344 204.992188 218.222656 204.992188 212.355469 C 204.992188 206.484375 200.191406 201.683594 194.320312 201.683594 L 86.222656 201.683594 C 80.351562 201.683594 75.550781 206.484375 75.550781 212.355469 C 75.550781 218.222656 80.351562 223.027344 86.222656 223.027344 Z M 86.222656 223.027344 " style=" stroke:none;fill-rule:nonzero;fill:rgb(0%,0%,0%);fill-opacity:1;" />
<path d="M 357.160156 327.390625 C 353 323.226562 346.277344 323.226562 342.117188 327.390625 L 318.851562 350.652344 L 295.589844 327.390625 C 291.425781 323.226562 284.703125 323.226562 280.542969 327.390625 C 276.382812 331.550781 276.382812 338.273438 280.542969 342.4375 L 303.804688 365.699219 L 280.542969 388.960938 C 276.382812 393.125 276.382812 399.847656 280.542969 404.007812 C 282.675781 406.144531 285.34375 407.105469 288.121094 407.105469 C 290.894531 407.105469 293.5625 406.035156 295.695312 404.007812 L 318.960938 380.746094 L 342.222656 404.007812 C 344.355469 406.144531 347.023438 407.105469 349.800781 407.105469 C 352.574219 407.105469 355.242188 406.035156 357.375 404.007812 C 361.539062 399.847656 361.539062 393.125 357.375 388.960938 L 334.113281 365.699219 L 357.375 342.4375 C 361.324219 338.273438 361.324219 331.550781 357.160156 327.390625 Z M 357.160156 327.390625 " style=" stroke:none;fill-rule:nonzero;fill:rgb(0%,0%,0%);fill-opacity:1;" />
<path d="M 318.746094 256.960938 C 258.773438 256.960938 210.007812 305.726562 210.007812 365.699219 C 210.007812 425.671875 258.773438 474.4375 318.746094 474.4375 C 378.71875 474.4375 427.484375 425.671875 427.484375 365.699219 C 427.484375 305.726562 378.71875 256.960938 318.746094 256.960938 Z M 318.746094 453.09375 C 270.511719 453.09375 231.351562 413.933594 231.351562 365.699219 C 231.351562 317.464844 270.511719 278.304688 318.746094 278.304688 C 366.980469 278.304688 406.140625 317.464844 406.140625 365.699219 C 406.140625 413.933594 366.980469 453.09375 318.746094 453.09375 Z M 318.746094 453.09375 " style=" stroke:none;fill-rule:nonzero;fill:rgb(0%,0%,0%);fill-opacity:1;" />
</g>
</svg>