<svg xmlns="http://www.w3.org/2000/svg" height="511pt" version="1.1" viewBox="1 -39 511.99998 511" width="511pt">
<g id="surface1">
<path d="M 457.1875 80.90625 L 262.398438 80.90625 L 213.589844 20.769531 C 203.167969 8.085938 187.878906 0.5 171.460938 0.5 L 54.699219 0.5 C 24.6875 0.5 0 25.414062 0 55.425781 L 0 378.296875 C 0 408.195312 24.6875 433.113281 54.699219 433.113281 L 457.300781 433.113281 C 487.3125 433.113281 512 408.195312 512 378.183594 L 512 135.152344 C 511.886719 105.140625 487.199219 80.90625 457.1875 80.90625 Z M 22.648438 378.183594 L 22.648438 55.425781 C 22.648438 37.871094 37.144531 23.148438 54.699219 23.148438 L 171.460938 23.148438 C 180.972656 23.148438 190.03125 27.679688 196.035156 35.152344 L 233.066406 80.90625 L 112.570312 80.90625 C 82.671875 80.90625 57.757812 105.140625 57.757812 135.152344 L 57.757812 410.460938 L 54.699219 410.460938 C 37.144531 410.460938 22.648438 395.738281 22.648438 378.183594 Z M 489.238281 378.183594 C 489.238281 395.625 474.742188 410.460938 457.1875 410.460938 L 80.40625 410.460938 L 80.40625 135.152344 C 80.40625 117.710938 95.128906 103.554688 112.570312 103.554688 L 457.1875 103.554688 C 474.628906 103.554688 489.238281 117.710938 489.238281 135.152344 Z M 489.238281 378.183594 " style=" stroke:none;fill-rule:nonzero;fill:rgb(0%,0%,0%);fill-opacity:1;" />
<path d="M 333.746094 163.464844 C 329.328125 159.046875 322.195312 159.046875 317.777344 163.464844 L 216.417969 264.597656 C 215.171875 265.84375 214.152344 267.429688 213.589844 269.242188 L 193.316406 333.453125 C 192.070312 337.53125 193.089844 341.832031 196.148438 344.890625 C 198.300781 347.042969 201.242188 348.175781 204.1875 348.175781 C 205.320312 348.175781 206.453125 347.949219 207.585938 347.609375 L 271.910156 327.335938 C 273.609375 326.769531 275.195312 325.867188 276.554688 324.507812 L 377.574219 223.148438 C 381.988281 218.730469 381.988281 211.597656 377.574219 207.179688 Z M 229.554688 293.703125 L 247.222656 311.367188 L 221.402344 319.523438 Z M 268.398438 300.496094 L 240.429688 272.523438 L 325.703125 187.472656 L 353.449219 215.21875 Z M 268.398438 300.496094 " style=" stroke:none;fill-rule:nonzero;fill:rgb(0%,0%,0%);fill-opacity:1;" />
</g>
</svg>