<svg xmlns="http://www.w3.org/2000/svg" height="511pt" version="1.1" viewBox="1 -39 511.99998 511" width="511pt">
<g id="surface1">
<path d="M 457.1875 80.90625 L 262.398438 80.90625 L 213.589844 20.769531 C 203.167969 8.085938 187.878906 0.5 171.460938 0.5 L 54.699219 0.5 C 24.6875 0.5 0 25.414062 0 55.425781 L 0 378.296875 C 0 408.195312 24.6875 433.113281 54.699219 433.113281 L 457.300781 433.113281 C 487.3125 433.113281 512 408.195312 512 378.183594 L 512 135.152344 C 511.886719 105.140625 487.199219 80.90625 457.1875 80.90625 Z M 22.648438 378.183594 L 22.648438 55.425781 C 22.648438 37.871094 37.144531 23.148438 54.699219 23.148438 L 171.460938 23.148438 C 180.972656 23.148438 190.03125 27.679688 196.035156 35.152344 L 233.066406 80.90625 L 112.570312 80.90625 C 82.671875 80.90625 57.757812 105.140625 57.757812 135.152344 L 57.757812 410.460938 L 54.699219 410.460938 C 37.144531 410.460938 22.648438 395.738281 22.648438 378.183594 Z M 489.238281 378.183594 C 489.238281 395.625 474.742188 410.460938 457.1875 410.460938 L 80.40625 410.460938 L 80.40625 135.152344 C 80.40625 117.710938 95.128906 103.554688 112.570312 103.554688 L 457.1875 103.554688 C 474.628906 103.554688 489.238281 117.710938 489.238281 135.152344 Z M 489.238281 378.183594 " style=" stroke:none;fill-rule:nonzero;fill:rgb(0%,0%,0%);fill-opacity:1;" />
<path d="M 343.03125 206.273438 L 257.414062 284.640625 L 215.511719 239.117188 C 211.324219 234.472656 204.074219 234.246094 199.546875 238.4375 C 194.902344 242.625 194.675781 249.875 198.867188 254.40625 L 248.46875 308.199219 C 250.734375 310.574219 253.792969 311.820312 256.847656 311.820312 C 259.566406 311.820312 262.285156 310.804688 264.550781 308.878906 L 358.433594 222.808594 C 363.078125 218.617188 363.417969 211.371094 359.113281 206.839844 C 354.808594 202.308594 347.5625 201.96875 343.03125 206.273438 Z M 343.03125 206.273438 " style=" stroke:none;fill-rule:nonzero;fill:rgb(0%,0%,0%);fill-opacity:1;" />
</g>
</svg>