<svg xmlns="http://www.w3.org/2000/svg" height="511pt" version="1.1" viewBox="1 -39 511.99998 511" width="511pt">
<g id="surface1">
<path d="M 457.1875 80.90625 L 262.398438 80.90625 L 213.589844 20.769531 C 203.167969 8.085938 187.878906 0.5 171.460938 0.5 L 54.699219 0.5 C 24.6875 0.5 0 25.414062 0 55.425781 L 0 378.296875 C 0 408.195312 24.6875 433.113281 54.699219 433.113281 L 457.300781 433.113281 C 487.3125 433.113281 512 408.195312 512 378.183594 L 512 135.152344 C 511.886719 105.140625 487.199219 80.90625 457.1875 80.90625 Z M 22.648438 378.183594 L 22.648438 55.425781 C 22.648438 37.871094 37.144531 23.148438 54.699219 23.148438 L 171.460938 23.148438 C 180.972656 23.148438 190.03125 27.679688 196.035156 35.152344 L 233.066406 80.90625 L 112.570312 80.90625 C 82.671875 80.90625 57.757812 105.140625 57.757812 135.152344 L 57.757812 410.460938 L 54.699219 410.460938 C 37.144531 410.460938 22.648438 395.738281 22.648438 378.183594 Z M 489.238281 378.183594 C 489.238281 395.625 474.742188 410.460938 457.1875 410.460938 L 80.40625 410.460938 L 80.40625 135.152344 C 80.40625 117.710938 95.128906 103.554688 112.570312 103.554688 L 457.1875 103.554688 C 474.628906 103.554688 489.238281 117.710938 489.238281 135.152344 Z M 489.238281 378.183594 " style=" stroke:none;fill-rule:nonzero;fill:rgb(0%,0%,0%);fill-opacity:1;" />
<path d="M 329.894531 295.96875 C 340.085938 282.492188 346.203125 265.617188 346.203125 247.496094 C 346.203125 202.988281 309.964844 166.863281 265.34375 166.863281 C 220.722656 166.863281 184.484375 202.988281 184.484375 247.496094 C 184.484375 292.003906 220.722656 328.128906 265.34375 328.128906 C 283.578125 328.128906 300.335938 322.128906 313.816406 311.933594 L 347.109375 345.117188 C 349.375 347.269531 352.207031 348.402344 355.152344 348.402344 C 358.09375 348.402344 360.925781 347.269531 363.191406 345.117188 C 367.609375 340.699219 367.609375 333.566406 363.191406 329.148438 Z M 207.132812 247.382812 C 207.132812 215.445312 233.292969 189.398438 265.34375 189.398438 C 297.394531 189.398438 323.554688 215.445312 323.554688 247.382812 C 323.554688 263.238281 317.210938 277.507812 306.792969 288.039062 C 306.679688 288.152344 306.453125 288.265625 306.339844 288.492188 C 306.226562 288.605469 306.113281 288.71875 306 288.832031 C 295.46875 299.023438 281.085938 305.367188 265.34375 305.367188 C 233.292969 305.480469 207.132812 279.433594 207.132812 247.382812 Z M 207.132812 247.382812 " style=" stroke:none;fill-rule:nonzero;fill:rgb(0%,0%,0%);fill-opacity:1;" />
</g>
</svg>