<svg xmlns="http://www.w3.org/2000/svg" height="511pt" version="1.1" viewBox="1 -39 511.99998 511" width="511pt">
<g id="surface1">
<path d="M 457.1875 80.90625 L 262.398438 80.90625 L 213.589844 20.769531 C 203.167969 8.085938 187.878906 0.5 171.460938 0.5 L 54.699219 0.5 C 24.6875 0.5 0 25.414062 0 55.425781 L 0 378.296875 C 0 408.195312 24.6875 433.113281 54.699219 433.113281 L 457.300781 433.113281 C 487.3125 433.113281 512 408.195312 512 378.183594 L 512 135.152344 C 511.886719 105.140625 487.199219 80.90625 457.1875 80.90625 Z M 22.648438 378.183594 L 22.648438 55.425781 C 22.648438 37.871094 37.144531 23.148438 54.699219 23.148438 L 171.460938 23.148438 C 180.972656 23.148438 190.03125 27.679688 196.035156 35.152344 L 233.066406 80.90625 L 112.570312 80.90625 C 82.671875 80.90625 57.757812 105.140625 57.757812 135.152344 L 57.757812 410.460938 L 54.699219 410.460938 C 37.144531 410.460938 22.648438 395.738281 22.648438 378.183594 Z M 489.238281 378.183594 C 489.238281 395.625 474.742188 410.460938 457.1875 410.460938 L 80.40625 410.460938 L 80.40625 135.152344 C 80.40625 117.710938 95.128906 103.554688 112.570312 103.554688 L 457.1875 103.554688 C 474.628906 103.554688 489.238281 117.710938 489.238281 135.152344 Z M 489.238281 378.183594 " style=" stroke:none;fill-rule:nonzero;fill:rgb(0%,0%,0%);fill-opacity:1;" />
<path d="M 369.984375 187.359375 L 326.15625 187.359375 L 326.15625 180.113281 C 326.15625 167.65625 316.304688 157.917969 303.847656 157.917969 L 258.546875 157.917969 C 246.089844 157.917969 235.558594 167.542969 235.558594 180.113281 L 235.558594 187.359375 L 192.296875 187.359375 C 186.066406 187.359375 180.972656 192.457031 180.972656 198.6875 C 180.972656 204.914062 186.066406 210.011719 192.296875 210.011719 L 205.433594 210.011719 L 217.550781 347.15625 C 218.117188 353.042969 222.988281 357.234375 228.875 357.234375 L 333.40625 357.234375 C 339.292969 357.234375 344.164062 352.933594 344.730469 347.15625 L 356.847656 210.011719 L 369.984375 210.011719 C 376.214844 210.011719 381.308594 204.914062 381.308594 198.6875 C 381.308594 192.457031 376.214844 187.359375 369.984375 187.359375 Z M 258.207031 180.566406 L 303.507812 180.566406 L 303.507812 187.359375 L 258.207031 187.359375 Z M 322.988281 334.585938 L 239.183594 334.585938 L 228.085938 210.011719 L 334.085938 210.011719 Z M 322.988281 334.585938 " style=" stroke:none;fill-rule:nonzero;fill:rgb(0%,0%,0%);fill-opacity:1;" />
</g>
</svg>