<svg height="512" viewBox="0 0 64 64" width="512" xmlns="http://www.w3.org/2000/svg"><g id="settings"><path d="m33.5 39.31v-31.31a1.5 1.5 0 0 0 -3 0v31.31a6.49 6.49 0 0 0 0 12.64v4.05a1.5 1.5 0 0 0 3 0v-4.05a6.49 6.49 0 0 0 0-12.64zm-1.5 9.82a3.5 3.5 0 1 1 3.5-3.5 3.5 3.5 0 0 1 -3.5 3.5z"/><path d="m16 13.31v-5.31a1.5 1.5 0 0 0 -3 0v5.31a6.49 6.49 0 0 0 0 12.64v30.05a1.5 1.5 0 0 0 3 0v-30.05a6.49 6.49 0 0 0 0-12.64zm-1.5 9.82a3.5 3.5 0 1 1 3.5-3.5 3.5 3.5 0 0 1 -3.46 3.5z"/><path d="m56 29.63a6.51 6.51 0 0 0 -5-6.32v-15.31a1.5 1.5 0 0 0 -3 0v15.31a6.49 6.49 0 0 0 0 12.64v20.05a1.5 1.5 0 0 0 3 0v-20.05a6.51 6.51 0 0 0 5-6.32zm-6.5 3.5a3.5 3.5 0 1 1 3.5-3.5 3.5 3.5 0 0 1 -3.54 3.5z"/></g></svg>