<svg id="Icons" height="512" viewBox="0 0 60 60" width="512" xmlns="http://www.w3.org/2000/svg"><path d="m15.368 32.47a.5.5 0 0 1 -.375-.831l1.238-1.4-3.749 2.161a.5.5 0 0 1 -.655-.725l1.478-2.046-3.905 2.258a.5.5 0 0 1 -.592-.8l.482-.451h-.006a.493.493 0 0 1 -.6-.077.5.5 0 0 1 -.086-.6l.427-.769a.493.493 0 0 1 -.371-.246.5.5 0 0 1 .183-.682l1.161-.67a.5.5 0 0 1 .687.675l-.332.6 2.2-1.271a.5.5 0 0 1 .651.134.5.5 0 0 1 -.059.664l-.483.451 2.165-1.245a.5.5 0 0 1 .655.725l-1.477 2.046 4.382-2.529a.5.5 0 0 1 .625.764l-1.239 1.394.947-.546a.5.5 0 0 1 .681.685l-.388.666a.5.5 0 0 1 .337.241.5.5 0 0 1 -.183.682l-1.16.67a.5.5 0 0 1 -.682-.684l.264-.453-1.971 1.139a.49.49 0 0 1 -.25.07z" fill="#9ebbce"/><path d="m42.541 32.47a.5.5 0 0 1 -.321-.883l.323-.272-1.106.638a.5.5 0 0 1 -.609-.78l.9-.926-.444.256a.5.5 0 0 1 -.679-.689l.373-.626a.5.5 0 0 1 -.141-.92l1.161-.67a.5.5 0 0 1 .68.688l-.235.394 1.871-1.08a.5.5 0 0 1 .61.78l-.895.925 2.954-1.705a.5.5 0 0 1 .572.815l-.325.273 1.886-1.088a.5.5 0 0 1 .571.815l-.326.274 1.176-.678a.5.5 0 0 1 .656.723l-1.179 1.649.706-.407a.5.5 0 0 1 .5.865l-2.709 1.559a.5.5 0 0 1 -.657-.723l1.18-1.648-4.108 2.371a.5.5 0 0 1 -.572-.815l.329-.276-1.892 1.091a.493.493 0 0 1 -.25.07z" fill="#9ebbce"/><path d="m27.761 24.47a.5.5 0 0 1 -.356-.852l2.581-2.6-4.2 2.425a.5.5 0 0 1 -.587-.8l2.065-1.882-.122.07a.5.5 0 0 1 -.733-.563l.406-1.493a.5.5 0 0 1 -.034-.884l.5-.291a.5.5 0 0 1 .733.563l-.326 1.2 3.078-1.777a.5.5 0 0 1 .586.8l-2.064 1.882 3.429-1.98a.5.5 0 0 1 .605.784l-2.583 2.606 2.222-1.281a.5.5 0 0 1 .616.773l-.661.712.534-.309a.5.5 0 0 1 .743.352l.207 1.257.3-.182a.5.5 0 1 1 .5.865l-.927.535a.5.5 0 0 1 -.743-.351l-.207-1.258-2.784 1.609a.5.5 0 0 1 -.616-.773l.662-.712-2.574 1.485a.49.49 0 0 1 -.25.07z" fill="#9ebbce"/><path d="m34.78 19.47a.5.5 0 0 1 -.322-.882l1.571-1.328-3.711 2.14a.5.5 0 0 1 -.587-.8l2.014-1.836-4.57 2.636a.5.5 0 0 1 -.6-.79l2.217-2.163-5.117 2.953a.5.5 0 0 1 -.583-.8l1.92-1.715-4.367 2.515a.5.5 0 0 1 -.583-.8l1.917-1.712-4.237 2.442a.5.5 0 0 1 -.581-.808l1.767-1.556-2.413 1.392a.5.5 0 0 1 -.575-.813l.385-.327-.046.026a.5.5 0 0 1 -.691-.668l.727-1.363a.5.5 0 0 1 -.236-.934l1.184-.682a.5.5 0 0 1 .691.669l-.661 1.239 3.307-1.905a.5.5 0 0 1 .574.813l-.387.328 1.981-1.141a.5.5 0 0 1 .581.807l-1.766 1.556 4.1-2.364a.5.5 0 0 1 .583.8l-1.918 1.713 4.365-2.519a.5.5 0 0 1 .583.8l-1.921 1.716 4.371-2.522a.5.5 0 0 1 .6.79l-2.216 2.162 5.118-2.954a.5.5 0 0 1 .587.8l-2.014 1.837 4.573-2.64a.5.5 0 0 1 .572.814l-1.571 1.328 2.205-1.271a.5.5 0 0 1 .581.808l-.861.757.4-.228a.5.5 0 0 1 .609.78l-.389.4a.5.5 0 0 1 .216.931l-2.6 1.5a.5.5 0 0 1 -.61-.78l.173-.179-1.661.959a.5.5 0 0 1 -.58-.807l.861-.758-2.709 1.564a.493.493 0 0 1 -.25.07z" fill="#b0ccdd"/><path d="m9.927 59.47a.5.5 0 0 1 -.327-.878l2.917-2.521-1.8 1.037a.5.5 0 0 1 -.6-.787l.995-.988a.49.49 0 0 1 -.448-.089.5.5 0 0 1 -.167-.538l.291-.95a.49.49 0 0 1 -.19-.188.5.5 0 0 1 .182-.682l.5-.291a.5.5 0 0 1 .729.579l-.188.61 2.085-1.2a.5.5 0 0 1 .6.787l-.954.947 3.026-1.747a.5.5 0 0 1 .577.811l-2.909 2.518 2.529-1.46a.5.5 0 0 1 .635.752l-1.618 1.949 1.508-.871a.5.5 0 0 1 .618.094.5.5 0 0 1 .042.624l-.3.426.272-.156a.5.5 0 0 1 .63.109l.826.971a.5.5 0 0 1 .395.911l-.265.153a.5.5 0 0 1 -.631-.109l-.817-.961-1.854 1.068a.5.5 0 0 1 -.66-.718l.3-.426-1.986 1.144a.5.5 0 0 1 -.635-.752l1.619-1.948-4.677 2.7a.493.493 0 0 1 -.25.07z" fill="#9ebbce"/><path d="m7 54.47a.5.5 0 0 1 -.306-.9l.547-.424-2.166 1.254a.5.5 0 0 1 -.577-.81l1.736-1.5-3.226 1.862a.5.5 0 0 1 -.609-.781l1.855-1.907-1.974 1.136a.5.5 0 0 1 -.7-.657l.772-1.534a.5.5 0 0 1 -.277-.933l1.188-.676a.5.5 0 0 1 .7.658l-.733 1.442 3.646-2.1a.5.5 0 0 1 .608.781l-1.854 1.903 4.658-2.684a.5.5 0 0 1 .577.81l-1.737 1.5 4.012-2.315a.5.5 0 0 1 .555.828l-.549.426 2.172-1.254a.5.5 0 0 1 .567.82l-1.263 1.03 3.209-1.851a.5.5 0 0 1 .583.8l-1.924 1.72 4.379-2.527a.5.5 0 0 1 .56.825l-.864.682 2.614-1.508a.5.5 0 0 1 .592.8l-2.131 2.014 3.743-2.161a.5.5 0 0 1 .6.793l-1.515 1.459 1.256-.724a.5.5 0 0 1 .659.719l-.723 1.031a.471.471 0 0 1 .459.249.5.5 0 0 1 -.182.682l-1.659.957a.5.5 0 0 1 -.659-.719l.648-.923-2.854 1.637a.5.5 0 0 1 -.6-.793l1.518-1.461-3.902 2.254a.5.5 0 0 1 -.593-.8l2.131-2-4.86 2.8a.5.5 0 0 1 -.559-.825l.862-.681-2.61 1.506a.5.5 0 0 1 -.583-.8l1.926-1.722-4.379 2.522a.5.5 0 0 1 -.567-.82l1.263-1.03-3.207 1.85a.493.493 0 0 1 -.253.07z" fill="#b0ccdd"/><path d="m2.491 50.5a.5.5 0 0 1 -.27-.921l4.023-2.585-3.964 2.287a.5.5 0 0 1 -.53-.846l7.367-4.988-6.837 3.947a.5.5 0 0 1 -.535-.844l5.876-4.078-5.341 3.083a.5.5 0 0 1 -.534-.844l3.037-2.1-2.5 1.446a.5.5 0 0 1 -.536-.843l1.353-.945-.817.47a.5.5 0 0 1 -.579-.808l3.327-2.91-2.751 1.586a.5.5 0 0 1 -.6-.791l1.379-1.338-.781.45a.5.5 0 0 1 -.642-.742l.561-.711a.5.5 0 0 1 -.132-.918l1.661-.957a.5.5 0 0 1 .642.742l-.328.416 2.01-1.158a.5.5 0 0 1 .6.791l-1.38 1.337 3.689-2.128a.5.5 0 0 1 .579.808l-3.327 2.907 6.44-3.717a.5.5 0 0 1 .536.842l-1.353.946 3.1-1.788a.5.5 0 0 1 .534.843l-3.038 2.1 5.1-2.944a.5.5 0 0 1 .535.843l-5.877 4.08 8.526-4.92a.5.5 0 0 1 .53.846l-7.364 4.985 10.074-5.817a.5.5 0 0 1 .521.854l-4.02 2.583 4.783-2.762a.5.5 0 0 1 .525.851l-5.742 3.773 5.7-3.29a.5.5 0 0 1 .535.844l-7.347 5.1 6.818-3.935a.5.5 0 0 1 .533.845l-3.841 2.633 3.31-1.91a.5.5 0 0 1 .56.825l-5.123 4.03 4.568-2.638a.5.5 0 0 1 .561.824l-2.412 1.914 1.856-1.071a.5.5 0 0 1 .558.827l-.343.267a.489.489 0 0 1 .443.206.5.5 0 0 1 -.072.666l-.325.292a.509.509 0 0 1 .31.109.5.5 0 0 1 .165.539l-.348 1.11a.508.508 0 0 1 .306.234.5.5 0 0 1 -.184.683l-.664.383a.5.5 0 0 1 -.728-.582l.283-.909-2.59 1.494a.5.5 0 0 1 -.583-.8l.074-.067-1.516.875a.5.5 0 0 1 -.557-.827l.064-.05-1.523.879a.5.5 0 0 1 -.561-.824l2.409-1.912-4.746 2.74a.5.5 0 0 1 -.559-.825l5.124-4.029-8.418 4.859a.5.5 0 0 1 -.533-.845l3.847-2.638-6.04 3.486a.5.5 0 0 1 -.532-.845l7.341-5.1-10.3 5.946a.5.5 0 0 1 -.524-.851l5.744-3.775-8.02 4.63a.494.494 0 0 1 -.25.07z" fill="#4184a9"/><path d="m42.907 59.47a.5.5 0 0 1 -.344-.864l2.993-2.836-3.072 1.772a.5.5 0 0 1 -.584-.8l1.106-.99a.5.5 0 0 1 -.568-.626l.374-1.353a.491.491 0 0 1 -.214-.2.5.5 0 0 1 .182-.682l.5-.291a.5.5 0 0 1 .556.037.5.5 0 0 1 .177.528l-.29 1.051 2.83-1.633a.5.5 0 0 1 .584.8l-.993.889 2.572-1.484a.5.5 0 0 1 .593.8l-2.992 2.838 2.537-1.465a.5.5 0 0 1 .612.778l-1 1.047.844-.486a.5.5 0 0 1 .733.559l-.283 1.083.522-.3a.5.5 0 0 1 .621.1l.557.616a.506.506 0 0 1 .548.238.5.5 0 0 1 -.185.682l-.229.132a.5.5 0 0 1 -.62-.1l-.542-.6-1.208.7a.5.5 0 0 1 -.734-.559l.283-1.083-2.846 1.632a.5.5 0 0 1 -.612-.778l1-1.046-3.158 1.824a.49.49 0 0 1 -.25.07z" fill="#9ebbce"/><path d="m40.739 54.47a.5.5 0 0 1 -.312-.891l1.028-.822-2.855 1.643a.5.5 0 0 1 -.577-.811l1.7-1.465-3.863 2.235a.5.5 0 0 1 -.584-.8l1.9-1.7-2.647 1.527a.5.5 0 0 1 -.583-.806l.771-.688-.436.251a.5.5 0 0 1 -.6-.076.5.5 0 0 1 -.087-.6l.694-1.248a.5.5 0 0 1 -.206-.932l1.184-.682a.5.5 0 0 1 .687.676l-.607 1.093 3.066-1.77a.5.5 0 0 1 .583.805l-.77.689 2.59-1.5a.5.5 0 0 1 .584.8l-1.9 1.7 4.35-2.51a.5.5 0 0 1 .576.811l-1.7 1.466 3.948-2.278a.5.5 0 0 1 .562.823l-1.029.823 2.855-1.647a.5.5 0 0 1 .6.79l-2.216 2.163 5.12-2.955a.5.5 0 0 1 .594.794l-2.164 2.065 4.956-2.86a.5.5 0 0 1 .559.826l-.779.611 1.552-.9a.5.5 0 0 1 .578.809l-1.168 1.019 1.033-.6a.5.5 0 0 1 .649.734l-.913 1.214.147-.084a.5.5 0 0 1 .5.865l-2.277 1.323a.5.5 0 0 1 -.649-.733l.913-1.214-3.373 1.947a.5.5 0 0 1 -.578-.809l1.167-1.019-3.166 1.828a.5.5 0 0 1 -.559-.826l.78-.613-2.493 1.439a.5.5 0 0 1 -.595-.794l2.163-2.065-4.952 2.859a.5.5 0 0 1 -.6-.79l2.216-2.164-5.117 2.954a.493.493 0 0 1 -.25.07z" fill="#b0ccdd"/><path d="m35.178 50.5a.5.5 0 0 1 -.273-.92l5.2-3.368-5.825 3.358a.5.5 0 0 1 -.519-.853l2.359-1.517-1.84 1.062a.5.5 0 0 1 -.527-.849l4.7-3.133-4.173 2.42a.5.5 0 0 1 -.545-.837l6.435-4.687-5.89 3.4a.5.5 0 0 1 -.552-.831l4.372-3.324-3.815 2.2a.5.5 0 0 1 -.582-.806l3.265-2.906-2.688 1.551a.5.5 0 0 1 -.587-.8l.965-.878-.378.218a.5.5 0 0 1 -.646-.737l.6-.779a.492.492 0 0 1 -.346-.242.5.5 0 0 1 .182-.682l1.659-.957a.494.494 0 0 1 .626.1.5.5 0 0 1 .02.634l-.411.535 2.205-1.272a.5.5 0 0 1 .587.8l-.966.879 2.91-1.679a.5.5 0 0 1 .582.8l-3.261 2.91 6.428-3.71a.5.5 0 0 1 .553.831l-4.37 3.32 7.191-4.151a.5.5 0 0 1 .545.837l-6.433 4.687 9.565-5.524a.5.5 0 0 1 .527.848l-4.7 3.13 6.896-3.978a.5.5 0 0 1 .519.853l-2.362 1.513 3.947-2.278a.5.5 0 0 1 .523.852l-5.187 3.36 5.776-3.335a.5.5 0 0 1 .532.846l-7.978 5.439 7.729-4.462a.5.5 0 0 1 .536.842l-6.489 4.535 5.958-3.44a.5.5 0 0 1 .542.838l-4.778 3.445 4.24-2.448a.5.5 0 0 1 .55.833l-3.139 2.349 2.593-1.5a.5.5 0 0 1 .594.8l-2.929 2.772 2.345-1.354a.5.5 0 0 1 .66.718l-1.147 1.642.488-.281a.5.5 0 1 1 .5.865l-2.429 1.4a.5.5 0 0 1 -.66-.718l1.143-1.64-4.095 2.364a.5.5 0 0 1 -.594-.8l2.935-2.773-6.192 3.574a.5.5 0 0 1 -.549-.833l3.138-2.348-5.516 3.185a.5.5 0 0 1 -.542-.838l4.779-3.446-7.428 4.288a.5.5 0 0 1 -.536-.843l6.492-4.536-9.324 5.383a.5.5 0 0 1 -.531-.846l7.973-5.433-10.882 6.288a.494.494 0 0 1 -.25.068z" fill="#4184a9"/><path d="m20.075 15.5a.5.5 0 0 1 -.278-.915l8.324-5.588-9.841 5.679a.5.5 0 0 1 -.52-.853l3.379-2.178-2.859 1.649a.5.5 0 0 1 -.519-.854l.408-.261a.508.508 0 0 1 -.56-.21.5.5 0 0 1 .131-.678l6.424-4.573-5.884 3.4a.5.5 0 0 1 -.552-.83l5.138-3.92-4.586 2.644a.5.5 0 0 1 -.555-.828l2.575-1.991-2.02 1.167a.5.5 0 0 1 -.614-.775l2.28-2.428-1.666.962a.5.5 0 0 1 -.653-.728l.661-.9a.5.5 0 0 1 -.221-.931l1.659-.96a.5.5 0 0 1 .653.728l-.54.737 2.542-1.465a.5.5 0 0 1 .619.773l-2.285 2.427 5.548-3.2a.5.5 0 0 1 .555.828l-2.58 1.992 4.886-2.82a.5.5 0 0 1 .553.83l-5.137 3.916 8.225-4.746a.5.5 0 0 1 .54.84l-6.425 4.572 9.378-5.412a.5.5 0 0 1 .519.853l-.152.1 1.648-.953a.5.5 0 0 1 .521.852l-3.368 2.17 5.014-2.894a.5.5 0 0 1 .529.847l-8.327 5.59 8.985-5.187a.5.5 0 0 1 .538.84l-8.9 6.288 8.457-4.881a.5.5 0 0 1 .53.846l-3.765 2.554 3.241-1.87a.5.5 0 0 1 .532.845l-2.16 1.485 1.636-.945a.5.5 0 0 1 .568.819l-4.31 3.533 3.748-2.163a.5.5 0 0 1 .554.83l-.676.516.125-.071a.5.5 0 0 1 .585.8l-.855.773.274-.159a.5.5 0 0 1 .721.6l-.476 1.323h.006a.5.5 0 0 1 .25.934l-.909.524a.5.5 0 0 1 -.721-.6l.443-1.233-3.186 1.839a.5.5 0 0 1 -.585-.8l.855-.771-2.735 1.578a.5.5 0 0 1 -.554-.83l.674-.515-2.332 1.347a.5.5 0 0 1 -.567-.819l4.308-3.533-7.546 4.357a.5.5 0 0 1 -.533-.845l2.165-1.484-4.04 2.332a.5.5 0 0 1 -.53-.847l3.778-2.561-5.909 3.411a.5.5 0 0 1 -.538-.841l8.9-6.286-12.363 7.132a.494.494 0 0 1 -.25.07z" fill="#4184a9"/><g fill="#262626"><path d="m6.394 41.3c.3-.492 1.533-1.018 1.047-1.651-.788-.448-1.3.651-1.835 1.059-.596.536.359 1.031.788.592z"/><path d="m11.767 39.485-6 6c-.393.393-.013 1.51.466 1.03l6-6c.393-.393.013-1.51-.466-1.03z"/><path d="m37.681 41.375c.812.346 1.274-.711 1.827-1.125.209-.21.03-.516-.189-.625-.812-.346-1.274.711-1.827 1.125-.209.21-.03.516.189.625z"/><path d="m37.5 45.732c-.485.485.6.935 1 .536l6-6c.485-.485-.6-.935-1-.536z"/><path d="m22.273 6.373c.383-.538 1.489-1.021 1.148-1.788-.661-.5-1.2.718-1.694 1.041-.527.438-.027 1.315.546.747z"/><path d="m22.271 11.5 6-6c.4-.4-.055-1.481-.542-.994l-6 6c-.397.394.055 1.478.542.994z"/><path d="m19.654 29.409c-.286-3.064-4.188-1.731-6.26-1.942-1.878-.031-4.61-.621-4.988 1.973h-7.324c-.565 0-.862 1.12-.164 1.12h7.433c.187 2.657 3.148 2.051 5.061 2.121v2.845c-3.777.251-11.42-2.043-12.006 3.268a98.713 98.713 0 0 0 0 11.449c-.739 5.341 5.2 4.553 8.961 4.368a4.522 4.522 0 0 1 -2.482 3.934h-1.8c-.678 0-.959.91-.17.91h13.808c.717.032 1.463-.022 2.192 0 .678 0 .959-.91.17-.91h-1.812l-.013-.007a4.753 4.753 0 0 1 -2.649-4.086c4.568-.281 9.783 1.7 8.983-5.092.348-11.2 2.362-15.782-12.006-13.916v-2.8c1.926-.19 4.5.517 4.972-2.049h20.791c.443 2.473 3.209 1.93 5.1 2v2.845c-3.717-.061-11.451-1.83-11.951 3.242-.377 3.772.017 7.759 0 11.548-.845 5.49 5.07 4.7 8.966 4.488a4.286 4.286 0 0 1 -2.348 3.682h-2.077c-.6 0-.677 1.2-.082 1.2h16c.6 0 .677-1.2.082-1.2h-1.927a4.578 4.578 0 0 1 -2.557-3.847c4.233-.249 9.6 1.584 8.95-4.778-.081-11.582 3.061-16.262-11.954-14.363v-2.853c1.85-.243 5.109.68 5.1-2.071.727-.165 10.155.616 7.414-.976h-7.437c-.2-3.146-4.361-1.7-6.45-1.974-1.774-.018-4.666-.683-4.883 1.871h-9.823v-4.82h7.568c.644 0 .489-1.178-.084-1.178h-1.824a4.559 4.559 0 0 1 -2.572-3.831c3.792-.263 9.487 1.539 8.912-4.28a.4.4 0 0 0 0-.481c.135-12.991 2.526-16.078-12.83-14.399-14.844-1.72-12.163 2.134-12.122 14.287a.4.4 0 0 0 0 .476c-.854 5.47 4.866 4.814 8.807 4.573a4.723 4.723 0 0 1 -2.238 3.655h-2.133c-.644 0-.489 1.178.084 1.178h7.484v4.82zm-1.43 29.136h-8.541a6.164 6.164 0 0 0 1.866-4.006c1.693-.118 3.237-.083 4.9-.087a6.112 6.112 0 0 0 1.775 4.093zm5.645-4.993c-2.035.008-4.163.121-6.317.232-.105-.393-.754-.287-1.016.048-1.654.081-3.312.14-4.952.141-.028-.595-1.107-.534-1.165-.009-2.778-.167-8.089.208-7.856-3.509h23.013c-.209 1.545-.699 2.76-1.707 3.097zm-1.278-17.1c3.394.67 2.815 2.862 2.815 5.84a72.524 72.524 0 0 1 .262 7.253h-23.115c.113-12.433-3.363-14.015 11.094-13.136a.767.767 0 0 0 .6-.029c2.78-.146 5.808-.429 8.344.072zm27.476 21.948h-8.312a6.585 6.585 0 0 0 1.683-3.748c1.768-.133 3.36-.094 5.09-.1a6.347 6.347 0 0 0 1.539 3.848zm5.968-4.955c-2.181 0-4.39.07-6.606.132-.119-.175-.37-.136-.584.015-1.792.048-3.586.083-5.372.074-.086-.3-.436-.231-.7 0-2.758-.162-8.187.512-8.2-3.142h23.098c-.197 1.463-.663 2.621-1.636 2.922zm-1.726-16.891c3.708.512 3.187 3.06 3.187 6.27 0 1.17.412 4.139.275 6.654h-23.263c.2-9.192-3.546-14.671 9.057-12.923 3.463-.001 7.313-.474 10.744-.001zm-35.099-34.287c1.652-1.576 6.211-.687 8.355-.687 3.469 0 7.3-.461 10.744 0 3.729.5 3.216 2.977 3.216 6.209 0 1.2.423 4.223.268 6.752h-23.311c.307-3.187-1.412-9.727.728-12.274zm2.748 16.153c-2.53-.213-3.229-1.28-3.417-2.961h23.159c-.271 4.743-5.207 2.475-8.3 3.091-.118-.125-.318-.1-.506.012-1.874.05-3.75.085-5.616.073a.781.781 0 0 0 -.7 0c-1.55-.025-3.093-.087-4.62-.215zm5.591 1.255c1.729-.131 3.287-.09 4.98-.1a6.34 6.34 0 0 0 1.546 3.831h-8.213a6.1 6.1 0 0 0 1.687-3.731zm-9.479 11.792h-5.064c-1.361.029-3.3.58-3.563-1.378a.56.56 0 0 0 -.039-.5c-.059-1.316 1.356-1.137 2.307-1.056 1.959.1 4.015-.18 5.936 0 1.006.167 1.222 2.523.423 2.934zm23.75-2.667c.47-.574 1.362-.34 2.106-.34 1.934.125 4.038-.224 5.936 0 .86.379.833 2.728-.118 3.077h-3.39c-1.281-.141-2.894.288-4.155 0-.776-.287-.905-2.094-.379-2.737z"/></g></svg>