<?xml version="1.0" encoding="iso-8859-1"?>
<!-- Generator: Adobe Illustrator 19.0.0, SVG Export Plug-In . SVG Version: 6.00 Build 0)  -->
<svg version="1.1" id="Capa_1" xmlns="http://www.w3.org/2000/svg" xmlns:xlink="http://www.w3.org/1999/xlink" x="0px" y="0px"
	 viewBox="0 0 438.501 438.501" style="enable-background:new 0 0 438.501 438.501;" xml:space="preserve">
<g>
	<g>
		<path d="M218.255,55.901c-5.523,0-10,4.477-10,10v30.472c0,5.523,4.477,10,10,10c5.523,0,10-4.477,10-10V65.901
			C228.255,60.378,223.778,55.901,218.255,55.901z"/>
	</g>
</g>
<g>
	<g>
		<path d="M282.255,55.901c-5.523,0-10,4.477-10,10v30.472c0,5.523,4.477,10,10,10c5.523,0,10-4.477,10-10V65.901
			C292.255,60.378,287.778,55.901,282.255,55.901z"/>
	</g>
</g>
<g>
	<g>
		<path d="M72.873,48.707c-17.911,0.001-32.43,14.52-32.429,32.431s14.52,32.43,32.431,32.429
			c17.91-0.001,32.429-14.52,32.429-32.43C105.283,63.234,90.775,48.727,72.873,48.707z M72.873,93.567
			c-6.865-0.001-12.43-5.566-12.429-12.431c0.001-6.865,5.566-12.43,12.431-12.429c6.865,0.001,12.429,5.565,12.429,12.43
			C85.212,87.964,79.7,93.476,72.873,93.567z"/>
	</g>
</g>
<g>
	<g>
		<path d="M218.255,220.953c-5.523,0-10,4.477-10,10v30.471c0,5.523,4.477,10,10,10c5.523,0,10-4.477,10-10v-30.471
			C228.255,225.43,223.778,220.953,218.255,220.953z"/>
	</g>
</g>
<g>
	<g>
		<path d="M72.873,213.759c-17.911,0.001-32.43,14.52-32.429,32.431c0.001,17.911,14.52,32.43,32.431,32.429
			c17.91-0.001,32.429-14.52,32.429-32.43C105.283,228.286,90.775,213.779,72.873,213.759z M72.873,258.619
			c-6.865-0.001-12.43-5.566-12.429-12.431c0.001-6.865,5.566-12.43,12.431-12.429c6.865,0.001,12.429,5.565,12.429,12.43
			C85.212,253.016,79.7,258.528,72.873,258.619z"/>
	</g>
</g>
<g>
	<g>
		<path d="M337.839,206.424L337.839,206.424c-8.288-17.36-25.878-28.352-45.114-28.192h-110.47v-29h110.47
			c27.279,0.076,49.455-21.977,49.531-49.257c0-0.145,0-0.29-0.001-0.435V62.732c0.148-27.19-21.774-49.352-48.964-49.5
			c-0.189-0.001-0.377-0.001-0.566,0H51.931C24.673,13.055,2.432,35.008,2.256,62.266c-0.001,0.155-0.001,0.31-0.001,0.465v36.806
			c-0.097,27.348,21.994,49.597,49.341,49.694c0.112,0,0.223,0,0.335,0h110.324v29H51.931
			c-27.282-0.153-49.523,21.841-49.675,49.123c-0.001,0.144-0.001,0.287,0,0.431v36.806c-0.092,27.323,21.982,49.548,49.305,49.64
			c0.124,0,0.247,0,0.371,0h110.324v28.65c-15.068,3.661-26.89,15.331-30.745,30.35H56.681
			c-5.605-15.148-22.428-22.884-37.576-17.28C3.957,361.556-3.78,378.38,1.825,393.528c4.243,11.468,15.174,19.086,27.402,19.097
			c12.6,0,23.361-7.393,27.454-19.393h74.829c5.52,22.543,28.27,36.343,50.813,30.823c15.216-3.726,27.097-15.607,30.823-30.823
			h51.176c18.434,16,42.155,24.939,68.006,24.939c58.544,0,106.173-47.4,106.173-105.945
			C438.501,255.532,393.832,209.3,337.839,206.424z M38.444,383.7c-0.005,5.088-4.129,9.212-9.217,9.218
			c-5.091,0.001-9.219-4.126-9.219-9.217s4.126-9.218,9.217-9.219s9.218,4.126,9.219,9.217
			C38.444,383.699,38.444,383.699,38.444,383.7z M52.255,130.232c-16.569,0-30-13.431-30-30v-37c0-16.569,13.431-30,30-30h241
			c16.569,0,30,13.431,30,30v37c0,16.569-13.431,30-30,30H52.255z M51.931,294.232c-16.266,0.124-29.552-12.963-29.676-29.229
			c-0.001-0.137-0.001-0.274,0-0.411v-36.806c-0.097-16.226,12.978-29.458,29.204-29.555c0.157-0.001,0.315-0.001,0.472,0.001
			h240.794c8.362-0.168,16.403,3.217,22.126,9.316c-44.515,7.405-79.751,42.684-87.223,86.684H51.931z M172.791,405.732
			c-0.154,0.002-0.309,0.002-0.463,0l-0.001-0.002c-12.167,0-22.03-9.863-22.03-22.03c0-12.167,9.863-22.03,22.03-22.03
			s22.03,9.863,22.03,22.03C194.486,395.739,184.83,405.603,172.791,405.732z M213.146,373.232
			c-3.714-15-15.891-26.636-30.891-30.35v-28.65h43.929c0.483,22,7.678,43,19.619,59H213.146z M332.328,398.405h-0.001
			c-47.592-0.001-86.173-38.582-86.172-86.174c0.001-47.592,38.582-86.173,86.174-86.172c47.592,0.001,86.172,38.581,86.172,86.173
			C418.447,359.801,379.897,398.351,332.328,398.405z"/>
	</g>
</g>
<g>
	<g>
		<path d="M376.999,279.719c-3.905-3.93-10.257-3.95-14.186-0.044h0.002l-41.024,41.024l-19.9-20.1
			c-3.886-3.924-10.218-3.955-14.142-0.069c-3.924,3.886-3.955,10.218-0.069,14.142l26.975,27.418
			c1.852,1.941,4.396,3.071,7.078,3.142h0.024c2.674-0.066,5.214-1.183,7.071-3.107l48.127-48.219
			C380.885,290,380.905,283.649,376.999,279.719z"/>
	</g>
</g>
<g>
</g>
<g>
</g>
<g>
</g>
<g>
</g>
<g>
</g>
<g>
</g>
<g>
</g>
<g>
</g>
<g>
</g>
<g>
</g>
<g>
</g>
<g>
</g>
<g>
</g>
<g>
</g>
<g>
</g>
</svg>
