<?xml version="1.0" encoding="iso-8859-1"?>
<!-- Generator: Adobe Illustrator 19.0.0, SVG Export Plug-In . SVG Version: 6.00 Build 0)  -->
<svg version="1.1" id="Capa_1" xmlns="http://www.w3.org/2000/svg" xmlns:xlink="http://www.w3.org/1999/xlink" x="0px" y="0px"
	 viewBox="0 0 438.502 438.502" style="enable-background:new 0 0 438.502 438.502;" xml:space="preserve">
<g>
	<g>
		<path d="M218.328,55.9c-5.523,0-10,4.477-10,10v30.472c0,5.523,4.477,10,10,10c5.523,0,10-4.477,10-10V65.9
			C228.328,60.377,223.851,55.9,218.328,55.9z"/>
	</g>
</g>
<g>
	<g>
		<path d="M282.328,55.9c-5.523,0-10,4.477-10,10v30.472c0,5.523,4.477,10,10,10c5.523,0,10-4.477,10-10V65.9
			C292.328,60.377,287.851,55.9,282.328,55.9z"/>
	</g>
</g>
<g>
	<g>
		<path d="M72.874,48.706c-17.911,0-32.43,14.519-32.43,32.43c0,17.911,14.519,32.43,32.43,32.43c17.911,0,32.43-14.519,32.43-32.43
			C105.283,63.234,90.776,48.727,72.874,48.706z M72.874,93.566c-6.865,0-12.43-5.565-12.43-12.43c0-6.865,5.565-12.43,12.43-12.43
			c6.865,0,12.43,5.565,12.43,12.43C85.212,87.963,79.7,93.474,72.874,93.566z"/>
	</g>
</g>
<g>
	<g>
		<path d="M218.328,220.952c-5.523,0-10,4.477-10,10v30.471c0,5.523,4.477,10,10,10c5.523,0,10-4.477,10-10v-30.471
			C228.328,225.429,223.851,220.952,218.328,220.952z"/>
	</g>
</g>
<g>
	<g>
		<path d="M72.874,213.758c-17.911,0-32.43,14.519-32.43,32.43s14.519,32.43,32.43,32.43c17.911,0,32.43-14.519,32.43-32.43
			C105.283,228.286,90.776,213.779,72.874,213.758z M72.874,258.618c-6.865,0-12.43-5.565-12.43-12.43
			c0-6.865,5.565-12.43,12.43-12.43c6.865,0,12.43,5.565,12.43,12.43C85.212,253.015,79.7,258.526,72.874,258.618z"/>
	</g>
</g>
<g>
	<g>
		<path d="M337.84,206.423L337.84,206.423c-8.288-17.359-25.877-28.35-45.112-28.192h-110.4v-29h110.4
			c27.314,0.08,49.521-21.998,49.6-49.311c0-0.127,0-0.254,0-0.381V62.731c0.111-27.227-21.871-49.39-49.099-49.5
			c-0.167-0.001-0.334-0.001-0.501,0h-240.8C24.701,13.065,2.494,35.003,2.328,62.23c-0.001,0.167-0.001,0.334,0,0.501v36.806
			c-0.132,27.313,21.904,49.562,49.217,49.694c0.128,0.001,0.255,0.001,0.383,0h110.4v29h-110.4
			c-27.249-0.144-49.455,21.828-49.6,49.077c-0.001,0.159-0.001,0.318,0,0.477v36.806c-0.126,27.289,21.894,49.514,49.183,49.64
			c0.139,0.001,0.278,0.001,0.417,0h110.4v28.65c-15.113,3.607-26.98,15.294-30.817,30.35h-74.83
			c-5.605-15.148-22.428-22.884-37.576-17.28c-15.148,5.605-22.884,22.428-17.28,37.576c4.243,11.469,15.174,19.086,27.403,19.097
			c12.6,0,23.36-7.393,27.453-19.393h74.83c5.518,22.543,28.265,36.344,50.808,30.826c15.219-3.725,27.101-15.607,30.826-30.826
			h51.177c18.434,16,42.153,24.939,68.006,24.939c58.545,0,106.174-47.4,106.174-105.945
			C438.502,255.531,393.833,209.3,337.84,206.423z M29.228,392.917c-5.091,0-9.218-4.127-9.218-9.218
			c0-5.091,4.127-9.218,9.218-9.218s9.218,4.127,9.218,9.218C38.441,388.788,34.317,392.912,29.228,392.917z M52.328,130.231
			c-16.569,0-30-13.431-30-30v-37c0-16.569,13.431-30,30-30h241c16.569,0,30,13.431,30,30v37c0,16.569-13.431,30-30,30H52.328z
			 M51.928,294.231c-16.232,0.115-29.485-12.95-29.6-29.182c-0.001-0.153-0.001-0.305,0-0.458v-36.806
			c-0.131-16.192,12.89-29.424,29.082-29.554c0.173-0.001,0.346-0.001,0.518,0h240.8c8.362-0.169,16.404,3.217,22.127,9.316
			c-44.519,7.404-79.756,42.684-87.227,86.684H51.928z M194.357,383.701c0.128,12.039-9.528,21.902-21.568,22.03
			c-0.154,0.002-0.308,0.002-0.461,0c-12.167,0.001-22.03-9.862-22.031-22.029c-0.001-12.167,9.862-22.03,22.029-22.031
			C184.493,361.67,194.356,371.533,194.357,383.701C194.357,383.7,194.357,383.701,194.357,383.701z M213.145,373.231
			c-3.837-15.056-15.704-26.743-30.817-30.35v-28.65h43.856c0.482,22,7.677,43,19.619,59H213.145z M332.328,398.404v0.002
			c-47.592-0.001-86.173-38.582-86.172-86.174s38.582-86.173,86.174-86.172c47.591,0.001,86.171,38.58,86.172,86.171
			C418.448,359.801,379.898,398.351,332.328,398.404z"/>
	</g>
</g>
<g>
	<g>
		<path d="M332.328,276.399c-19.789,0-35.832,16.043-35.832,35.832c0,19.789,16.043,35.832,35.832,35.832
			c19.789,0,35.832-16.043,35.832-35.832C368.138,292.451,352.108,276.421,332.328,276.399z M332.328,328.063
			c-8.744,0-15.832-7.088-15.832-15.832s7.088-15.832,15.832-15.832s15.832,7.088,15.832,15.832
			C348.149,320.97,341.067,328.053,332.328,328.063z"/>
	</g>
</g>
<g>
	<g>
		<path d="M397.003,315.513c0.147-3.176,0.066-6.359-0.242-9.523l8.718-8.363l-13-29.717l-12.1,0.89
			c-2.131-2.379-4.447-4.586-6.926-6.6l0.356-12.076l-30.316-11.7l-7.881,9.134c-3.176-0.147-6.358-0.066-9.522,0.242l-8.364-8.718
			l-29.716,13l0.89,12.1c-2.379,2.131-4.586,4.447-6.6,6.926l-12.075-0.355l-11.7,30.314l9.135,7.881
			c-0.147,3.176-0.066,6.359,0.242,9.523l-8.718,8.363l13,29.717l12.1-0.89c2.131,2.379,4.447,4.586,6.926,6.6l-0.356,12.076
			l30.316,11.7l7.881-9.134c3.176,0.146,6.358,0.065,9.522-0.242l8.364,8.718l29.716-13l-0.89-12.1
			c2.379-2.131,4.586-4.447,6.6-6.926l12.075,0.355l11.7-30.314L397.003,315.513z M380.879,333.301l-8.69-0.256l-3.074,4.612
			c-2.612,3.914-5.882,7.347-9.666,10.145l-4.419,3.278l0.637,8.652l-3.962,1.733l-5.965-6.218l-5.3,0.976
			c-4.737,0.865-9.581,0.988-14.356,0.366l-5.333-0.684l-5.523,6.406l-3.965-1.531l0.255-8.69l-4.612-3.074
			c-3.915-2.613-7.347-5.883-10.146-9.667l-3.279-4.417l-8.65,0.636l-1.733-3.962l6.218-5.965l-0.976-5.3
			c-0.865-4.738-0.988-9.581-0.366-14.357l0.683-5.332l-6.4-5.526l1.531-3.966l8.69,0.256l3.074-4.612
			c2.612-3.914,5.882-7.347,9.666-10.145l4.419-3.278L309,264.729l3.962-1.733l5.965,6.218l5.3-0.976
			c4.738-0.864,9.581-0.987,14.356-0.366l5.333,0.684l5.526-6.406l3.965,1.531l-0.255,8.69l4.612,3.074
			c3.915,2.613,7.347,5.883,10.146,9.667l3.279,4.417l8.65-0.636l1.733,3.962l-6.218,5.965l0.976,5.3
			c0.865,4.738,0.988,9.581,0.366,14.357l-0.683,5.332l6.4,5.526L380.879,333.301z"/>
	</g>
</g>
<g>
</g>
<g>
</g>
<g>
</g>
<g>
</g>
<g>
</g>
<g>
</g>
<g>
</g>
<g>
</g>
<g>
</g>
<g>
</g>
<g>
</g>
<g>
</g>
<g>
</g>
<g>
</g>
<g>
</g>
</svg>
