<?xml version="1.0" encoding="UTF-8"?>
<svg xmlns="http://www.w3.org/2000/svg" width="512" height="512" viewBox="0 0 128 128"><g><path d="M33.977,99.2H19a1.75,1.75,0,0,0-1.75,1.75V109A1.751,1.751,0,0,0,19,110.75H33.977a1.751,1.751,0,0,0,1.75-1.75v-8.046A1.75,1.75,0,0,0,33.977,99.2Zm-1.75,8.046H20.75V102.7H32.227Z"/><path d="M58.984,99.2H44.008a1.75,1.75,0,0,0-1.75,1.75V109a1.751,1.751,0,0,0,1.75,1.75H58.984a1.75,1.75,0,0,0,1.75-1.75v-8.046A1.749,1.749,0,0,0,58.984,99.2Zm-1.75,8.046H45.758V102.7H57.234Z"/><path d="M83.992,99.2H69.016a1.749,1.749,0,0,0-1.75,1.75V109a1.75,1.75,0,0,0,1.75,1.75H83.992a1.75,1.75,0,0,0,1.75-1.75v-8.046A1.749,1.749,0,0,0,83.992,99.2Zm-1.75,8.046H70.766V102.7H82.242Z"/><path d="M109,99.2H94.023a1.75,1.75,0,0,0-1.75,1.75V109a1.751,1.751,0,0,0,1.75,1.75H109a1.75,1.75,0,0,0,1.75-1.75v-8.046A1.749,1.749,0,0,0,109,99.2Zm-1.75,8.046H95.773V102.7H107.25Z"/><path d="M33.977,82.813H19a1.751,1.751,0,0,0-1.75,1.75v8.046A1.75,1.75,0,0,0,19,94.359H33.977a1.75,1.75,0,0,0,1.75-1.75V84.563A1.751,1.751,0,0,0,33.977,82.813Zm-1.75,8.046H20.75V86.313H32.227Z"/><path d="M58.984,82.813H44.008a1.751,1.751,0,0,0-1.75,1.75v8.046a1.75,1.75,0,0,0,1.75,1.75H58.984a1.749,1.749,0,0,0,1.75-1.75V84.563A1.75,1.75,0,0,0,58.984,82.813Zm-1.75,8.046H45.758V86.313H57.234Z"/><path d="M83.992,82.813H69.016a1.75,1.75,0,0,0-1.75,1.75v8.046a1.749,1.749,0,0,0,1.75,1.75H83.992a1.749,1.749,0,0,0,1.75-1.75V84.563A1.75,1.75,0,0,0,83.992,82.813Zm-1.75,8.046H70.766V86.313H82.242Z"/><path d="M109,82.813H94.023a1.751,1.751,0,0,0-1.75,1.75v8.046a1.75,1.75,0,0,0,1.75,1.75H109a1.749,1.749,0,0,0,1.75-1.75V84.563A1.75,1.75,0,0,0,109,82.813Zm-1.75,8.046H95.773V86.313H107.25Z"/><path d="M58.984,66.422H44.008a1.751,1.751,0,0,0-1.75,1.75v8.047a1.751,1.751,0,0,0,1.75,1.75H58.984a1.75,1.75,0,0,0,1.75-1.75V68.172A1.75,1.75,0,0,0,58.984,66.422Zm-1.75,8.047H45.758V69.922H57.234Z"/><path d="M83.992,66.422H69.016a1.75,1.75,0,0,0-1.75,1.75v8.047a1.75,1.75,0,0,0,1.75,1.75H83.992a1.75,1.75,0,0,0,1.75-1.75V68.172A1.75,1.75,0,0,0,83.992,66.422Zm-1.75,8.047H70.766V69.922H82.242Z"/><path d="M109,66.422H94.023a1.751,1.751,0,0,0-1.75,1.75v8.047a1.751,1.751,0,0,0,1.75,1.75H109a1.75,1.75,0,0,0,1.75-1.75V68.172A1.75,1.75,0,0,0,109,66.422Zm-1.75,8.047H95.773V69.922H107.25Z"/><path d="M58.984,50.031H44.008a1.751,1.751,0,0,0-1.75,1.75v8.047a1.751,1.751,0,0,0,1.75,1.75H58.984a1.75,1.75,0,0,0,1.75-1.75V51.781A1.75,1.75,0,0,0,58.984,50.031Zm-1.75,8.047H45.758V53.531H57.234Z"/><path d="M109,50.031H94.023a1.751,1.751,0,0,0-1.75,1.75v8.047a1.751,1.751,0,0,0,1.75,1.75H109a1.75,1.75,0,0,0,1.75-1.75V51.781A1.75,1.75,0,0,0,109,50.031Zm-1.75,8.047H95.773V53.531H107.25Z"/><path d="M109,33.641H94.023a1.75,1.75,0,0,0-1.75,1.75v8.046a1.751,1.751,0,0,0,1.75,1.75H109a1.75,1.75,0,0,0,1.75-1.75V35.391A1.749,1.749,0,0,0,109,33.641Zm-1.75,8.046H95.773V37.141H107.25Z"/></g></svg>
