<svg height="510pt" viewBox="0 0 510 510.86441" width="510pt" xmlns="http://www.w3.org/2000/svg"><g fill-rule="evenodd"><path d="m503.953125 255.191406c0 136.671875-110.792969 247.464844-247.464844 247.464844s-247.46875-110.792969-247.46875-247.464844 110.796875-247.46875 247.46875-247.46875 247.464844 110.796875 247.464844 247.46875zm0 0" fill="#8fc05e"/><g fill="#232323"><path d="m12.519531 297.773438c4.667969-.644532 7.929688-4.949219 7.285157-9.617188-1.5-10.925781-2.253907-21.9375-2.25-32.964844.109374-122.015625 92.203124-224.316406 213.539062-237.203125s232.859375 67.789063 258.597656 187.0625c25.734375 119.269531-42.601562 238.753907-158.453125 277.046875-115.851562 38.296875-241.9375-16.925781-292.351562-128.039062-2.015625-4.179688-6.996094-5.980469-11.21875-4.0625-4.222657 1.921875-6.136719 6.863281-4.3125 11.128906 55.414062 121.886719 195.558593 180.285156 321.128906 133.8125s193.929687-182.035156 156.640625-310.632812c-37.289062-128.597657-167.5625-206.5625-298.515625-178.652344-130.953125 27.90625-218.117187 152.214844-199.734375 284.839844.3125 2.246093 1.503906 4.273437 3.3125 5.640624 1.808594 1.367188 4.085938 1.957032 6.332031 1.640626zm0 0"/><path d="m256.488281 93.058594c-4.714843 0-8.535156 3.820312-8.535156 8.53125v145.066406h-145.066406c-4.710938 0-8.53125 3.820312-8.53125 8.535156 0 4.710938 3.820312 8.53125 8.53125 8.53125h145.066406v145.066406c0 4.714844 3.820313 8.535157 8.535156 8.535157 4.710938 0 8.53125-3.820313 8.53125-8.535157v-145.066406h34.132813c4.714844 0 8.535156-3.820312 8.535156-8.53125 0-4.714844-3.820312-8.535156-8.535156-8.535156h-34.132813v-145.066406c0-4.710938-3.820312-8.53125-8.53125-8.53125zm0 0"/><path d="m410.085938 263.722656c4.714843 0 8.535156-3.820312 8.535156-8.53125 0-4.714844-3.820313-8.535156-8.535156-8.535156h-59.730469c-4.714844 0-8.535157 3.820312-8.535157 8.535156 0 4.710938 3.820313 8.53125 8.535157 8.53125zm0 0"/></g></g></svg>