<svg xmlns="http://www.w3.org/2000/svg" viewBox="0 0 442.88 442.88" xmlns:v="https://vecta.io/nano"><path d="M22.016 146.432v268.8c0 9.216 7.68 16.384 16.384 16.384h365.568c9.216 0 16.384-7.68 16.384-16.384v-268.8H22.016zm282.112 102.912c0 9.216-7.68 16.384-16.384 16.384h-133.12c-9.216 0-16.384-7.68-16.384-16.384v-33.28c0-9.216 7.68-16.384 16.384-16.384h133.12c9.216 0 16.384 7.68 16.384 16.384v33.28zm121.856-238.08h-409.6C7.168 11.264 0 18.944 0 27.648v96.768h442.88V28.16c-.512-9.216-7.68-16.896-16.896-16.896z"/></svg>