<svg height="512pt" viewBox="0 -5 512.03692 512" width="512pt" xmlns="http://www.w3.org/2000/svg"><path d="m430.878906 392.667969c-1.929687 0-3.621094-1.296875-4.121094-3.160157-.5-1.867187.316407-3.835937 1.988282-4.800781l72.535156-41.863281c1.894531-1.097656 4.316406-.582031 5.597656 1.195312 1.28125 1.777344 1.007813 4.238282-.632812 5.691407l-15.5625 13.78125 10.597656-6.113281c1.652344-.945313 3.734375-.679688 5.097656.652343 1.363282 1.332031 1.679688 3.40625.773438 5.082031l-7.503906 13.742188c2.054687-1.035156 4.554687-.257812 5.660156 1.753906 1.105468 2.015625.417968 4.542969-1.554688 5.71875l-13.003906 7.511719c-1.65625.945313-3.734375.679687-5.101562-.652344-1.363282-1.332031-1.675782-3.40625-.769532-5.082031l7.5-13.742188-33.960937 19.628907c-1.898438 1.097656-4.316407.578125-5.597657-1.199219s-1.007812-4.234375.628907-5.6875l15.515625-13.789062-35.953125 20.753906c-.644531.378906-1.382813.578125-2.132813.578125zm0 0" fill="#73b0f4"/><path d="m414.207031 500.246094c-1.535156.003906-2.953125-.820313-3.714843-2.15625-.757813-1.332032-.742188-2.972656.042968-4.292969l3.988282-6.664063-6.351563 3.667969c-1.730469.996094-3.921875.65625-5.273437-.816406-1.347657-1.476563-1.496094-3.6875-.347657-5.328125l9.453125-13.480469-14.265625 8.234375c-1.816406 1.046875-4.125.621094-5.445312-1.007812-1.324219-1.628906-1.265625-3.976563.136719-5.539063l13.074218-14.589843-17.800781 10.238281c-1.851563 1.015625-4.167969.527343-5.449219-1.148438-1.277344-1.679687-1.140625-4.042969.328125-5.558593l18.335938-18.421876-23.6875 13.652344c-1.882813 1.144532-4.332031.667969-5.644531-1.105468-1.3125-1.769532-1.058594-4.25.585937-5.722657l24.882813-23.40625-31.140626 17.972657c-1.933593 1.085937-4.378906.511718-5.621093-1.324219-1.246094-1.839844-.875-4.324219.851562-5.714844l16.445313-12.980469-19.625 11.339844c-1.988282 1.152344-4.53125.527344-5.753906-1.417969-1.222657-1.945312-.6875-4.507812 1.210937-5.800781l54.171875-36.984375-58.976562 34.058594c-1.996094 1.117187-4.519532.457031-5.71875-1.496094-1.195313-1.953125-.636719-4.5 1.265624-5.773437l12.417969-8.015626-14.390625 8.304688c-1.992187 1.132812-4.523437.488281-5.734375-1.460938-1.207031-1.945312-.660156-4.5 1.238281-5.785156l51.628907-34.355468-55.765625 32.195312c-1.996094 1.101562-4.5.4375-5.695313-1.5-1.191406-1.941406-.648437-4.476562 1.230469-5.761719l40.03125-26.101562-43.273438 25.003906c-1.996093 1.183594-4.574218.554687-5.800781-1.417969-1.226562-1.972656-.652343-4.5625 1.296875-5.828125l72.457032-48.476562-80.324219 46.335937c-1.996094 1.132813-4.527344.488282-5.738281-1.460937-1.207032-1.945313-.660157-4.503907 1.238281-5.785157l75.375-49.878906-98.941407 57.125c-1.996093 1.097656-4.503906.433594-5.695312-1.503906-1.191406-1.941406-.652344-4.476562 1.230469-5.757812l86.015625-55.988282-109.558594 63.25c-2.003906 1.101563-4.523438.425782-5.707031-1.53125-1.183594-1.960937-.613281-4.503906 1.296875-5.765625l60.542968-38.136719-78.703124 45.433594c-2 1.082032-4.5.40625-5.679688-1.539062-1.183594-1.945313-.628906-4.476563 1.257812-5.75l99.347657-63.078125-121.875 70.367187c-2.003907 1.085938-4.511719.402344-5.6875-1.554687-1.175781-1.953125-.605469-4.488281 1.292969-5.75l85.460937-53.285157-104.960937 60.589844c-2.011719 1.089844-4.523438.398438-5.695313-1.566406s-.585937-4.503906 1.328125-5.757812l50.089844-30.753907-65.980469 38.078125c-2.007813 1.125-4.550781.453125-5.738281-1.519531s-.597656-4.535156 1.335937-5.785156l146.101563-91.683594-171.523438 98.988281c-2.019531 1.152344-4.59375.46875-5.78125-1.53125-1.1875-2.003906-.550781-4.585937 1.429688-5.808594l42.472656-25.789062-57.363281 33.128906c-2.011719 1.074219-4.515625.375-5.679688-1.585937-1.164062-1.960938-.578125-4.492188 1.328125-5.746094l74.0625-45.0625-83.304687 48.125c-2.007813 1.074219-4.5.382813-5.667969-1.570313-1.171875-1.953124-.601562-4.480468 1.292969-5.742187l164.445312-101.714844-164.71875 95.101563c-2.023437 1.152344-4.597656.472656-5.785156-1.53125-1.183594-2-.550781-4.585938 1.433594-5.808594l117.023437-71.515625-112.671875 65.050781c-2.019531 1.09375-4.542969.398438-5.710937-1.578125-1.167969-1.972656-.566406-4.523437 1.367187-5.761719l62.386719-37.792968-58.027344 33.507812c-2.007812 1.074219-4.5.382813-5.671875-1.570312-1.167969-1.953125-.597656-4.480469 1.292969-5.742188l173.65625-107.570312-169.292969 97.730468c-2.007812 1.089844-4.511719.40625-5.6875-1.550781-1.179687-1.953125-.609375-4.488281 1.292969-5.753906l189.480469-118.558594-185.09375 106.851563c-2.023438 1.152344-4.597657.472656-5.785157-1.53125-1.1875-2-.550781-4.585938 1.429688-5.804688l76.734375-46.851562-72.378906 41.816406c-2.011719 1.105469-4.539063.425781-5.71875-1.542969-1.179688-1.96875-.59375-4.519531 1.332031-5.769531l136.113281-85.054688-131.726562 76c-2.015625 1.160157-4.59375.496094-5.789063-1.5-1.199218-1.992187-.578125-4.578124 1.394532-5.8125l119.710937-75.09375-115.316406 66.558594c-2.015625 1.074219-4.515625.378906-5.683594-1.585937-1.164063-1.960938-.578125-4.492188 1.328125-5.742188l9.464844-5.789062-5.121094 2.945312c-2.007812 1.175781-4.589844.527344-5.800781-1.460937-1.210938-1.988282-.601563-4.582032 1.363281-5.828125l116.5-74.828125-112.050781 64.667968c-1.996094 1.097657-4.503907.4375-5.695313-1.503906s-.652344-4.476562 1.230469-5.757812l108.238281-70.828125-103.773437 59.929687c-2.007813 1.085938-4.515625.402344-5.691407-1.550781-1.175781-1.957031-.605468-4.492187 1.296876-5.753906l21.390624-13.441407-16.996093 9.824219c-1.304688.789063-2.933594.820313-4.269531.082031-1.332032-.734374-2.175782-2.125-2.203126-3.652343-.03125-1.523438.753907-2.945313 2.058594-3.734375l19.953125-12.613282-15.539062 8.996094c-2 1.066406-4.484375.390625-5.660157-1.546875-1.175781-1.933593-.636718-4.453125 1.230469-5.734375l24.992188-16.042968-20.5625 11.878906c-2 1.160156-4.554688.519531-5.769531-1.445313-1.214844-1.964843-.648438-4.535156 1.277343-5.808593l41.003907-27.1875-36.511719 21.070312c-1.96875 1.128906-4.472657.523438-5.707031-1.378906-1.230469-1.902344-.761719-4.4375 1.070312-5.773438l56.578125-40.863281-51.941406 29.984375c-1.953125 1.09375-4.414063.496094-5.648438-1.367188-1.234375-1.867187-.816406-4.367187.953125-5.730468l39.320313-29.585938-34.625 19.984375c-1.921875 1.09375-4.363281.539063-5.621094-1.28125-1.257813-1.816406-.917969-4.292969.78125-5.707031l26.855469-22.023438-22.015625 12.703126c-1.832031 1.0625-4.167969.617187-5.480469-1.039063-1.316406-1.65625-1.21875-4.03125.230469-5.574219l16.664062-17.816406-11.414062 6.585938c-1.734375 1-3.925781.660156-5.277344-.816407-1.347656-1.472656-1.492187-3.6875-.347656-5.324219l4.785156-6.828124c-1.328125-.15625-2.503906-.933594-3.164063-2.097657-1.171874-2.039062-.480468-4.640625 1.554688-5.820312l12.867188-7.441407c1.730468-.988281 3.914062-.648437 5.261718.820313s1.496094 3.675781.359375 5.3125l-3.609375 5.121094 19.558594-11.253907c1.832031-1.058593 4.164062-.617187 5.480469 1.039063 1.3125 1.65625 1.21875 4.019531-.222657 5.566406l-16.675781 17.808594 42.328125-24.414063c1.921875-1.113281 4.378906-.566406 5.644532 1.261719 1.265624 1.824219.917968 4.316407-.796876 5.726563l-26.863281 22.023437 50.269531-29.011719c1.949219-1.117187 4.433594-.53125 5.675782 1.34375 1.242187 1.878907.816406 4.394532-.976563 5.753907l-39.25 29.5625 63.46875-36.660157c1.964844-1.128906 4.472657-.523437 5.703125 1.378907 1.234375 1.902343.765625 4.4375-1.070312 5.769531l-56.589844 40.886719 83.199219-48.035157c1.988281-1.097656 4.492187-.445312 5.6875 1.488282 1.199219 1.929687.667969 4.464844-1.199219 5.753906l-41.027344 27.222656 59.730469-34.464844c1.996094-1.070312 4.480469-.390624 5.660156 1.542969 1.175781 1.933594.636719 4.453125-1.230469 5.734375l-25.011718 16.042969 40.378906-23.320313c2.007812-1.101562 4.523438-.429687 5.707031 1.53125 1.183594 1.957032.613281 4.5-1.292969 5.765626l-19.960937 12.628906 34.507813-19.925782c2.011718-1.125 4.550781-.453124 5.742187 1.519532 1.1875 1.972656.597656 4.53125-1.335937 5.785156l-21.429688 13.4375 35.953125-20.742188c1.988281-1.085937 4.480469-.421874 5.671875 1.507813 1.1875 1.929687.660156 4.453125-1.203125 5.746094l-108.234375 70.824219 135.21875-78.078126c2-1.101562 4.511719-.433593 5.699219 1.515626 1.1875 1.949218.632812 4.488281-1.261719 5.761718l-116.464844 74.796875 142.199219-82.074219c2.019531-1.117187 4.554687-.429687 5.734375 1.550782 1.175781 1.980468.570312 4.539062-1.371094 5.777344l-9.617187 5.890624 22.886719-13.21875c2.007812-1.125 4.550781-.453124 5.738281 1.519532s.597656 4.53125-1.335938 5.785156l-119.722656 75.136719 142.820313-82.441407c2.007812-1.085937 4.511718-.402343 5.691406 1.550782 1.175781 1.957031.605468 4.488281-1.296875 5.753906l-136.121094 85.023438 159.992187-92.328126c2.011719-1.078124 4.511719-.378906 5.679688 1.582032 1.164062 1.964844.578125 4.496094-1.328125 5.746094l-76.871094 46.933593 94.03125-54.261719c2.007813-1.125 4.550781-.453124 5.738281 1.519532 1.191407 1.972656.597657 4.53125-1.335937 5.785156l-189.3125 118.433594 199.988281-115.449219c2.007813-1.070313 4.5-.378906 5.671875 1.574219 1.167969 1.953125.597657 4.476562-1.292969 5.738281l-173.765624 107.617187 170.410156-98.382812c2.015625-1.097656 4.539062-.398438 5.710937 1.574219 1.167969 1.976562.566407 4.523437-1.367187 5.765625l-62.132813 37.640625 57.789063-33.367188c2.023437-1.152343 4.59375-.46875 5.78125 1.53125 1.1875 2.003907.550781 4.585938-1.429688 5.808594l-117.027344 71.519531 112.640626-65.050781c2.003906-1.042969 4.476562-.34375 5.632812 1.59375 1.160156 1.941406.605469 4.449219-1.261719 5.71875l-164.507812 101.761719 160.171875-92.46875c2.007812-1.046875 4.484375-.339844 5.640625 1.609375 1.152343 1.949219.585937 4.460937-1.296875 5.71875l-74.242188 45.230469 69.925782-40.363282c2.015624-1.097656 4.539062-.402344 5.707031 1.574219 1.171875 1.976563.566406 4.523437-1.367188 5.761719l-42.527343 25.78125 38.167968-22.015625c2.015625-1.164063 4.589844-.496094 5.789063 1.496093 1.199219 1.996094.578125 4.582032-1.394531 5.816407l-146.046876 91.671875 141.652344-81.773438c2.007813-1.058594 4.496094-.359375 5.65625 1.589844 1.160156 1.953125.59375 4.46875-1.296875 5.730469l-50.019531 30.722656 45.660156-26.359375c2.011719-1.109375 4.539063-.425781 5.71875 1.542969 1.179688 1.964843.589844 4.515625-1.332031 5.769531l-85.425781 53.253906 81.066406-46.796875c2.003906-1.101562 4.523438-.425781 5.707031 1.53125 1.183594 1.960938.613281 4.503907-1.296875 5.765625l-99.414062 63.148438 95.003906-54.835938c2-1.070312 4.488281-.386718 5.664062 1.558594 1.171876 1.941406.617188 4.464844-1.261718 5.738281l-60.363282 38.023438 55.960938-32.308594c1.996094-1.117187 4.523438-.457031 5.71875 1.496094s.636719 4.503906-1.265625 5.777343l-86.144531 56.011719 81.664062-47.140625c1.992188-1.097656 4.492188-.441406 5.691406 1.488282 1.195313 1.933593.667969 4.464843-1.203124 5.757812l-75.347657 49.859375 70.824219-40.90625c2-1.1875 4.578125-.558594 5.804688 1.414063 1.226562 1.972656.648437 4.5625-1.296876 5.828124l-72.40625 48.460938 67.933594-39.25c1.996094-1.101562 4.5-.4375 5.695313 1.5 1.191406 1.941406.648437 4.476562-1.230469 5.761719l-40.023438 26.09375 35.558594-20.53125c1.992188-1.132813 4.527344-.488281 5.734375 1.457031 1.210938 1.949219.664063 4.503906-1.238281 5.789062l-51.609375 34.386719 47.121094-27.195312c2.003906-1.140625 4.550781-.484375 5.753906 1.484375 1.199219 1.96875.621094 4.535156-1.304687 5.792968l-12.511719 8.074219 8.0625-4.652343c1.988281-1.152344 4.53125-.523438 5.753906 1.421874 1.222656 1.945313.6875 4.507813-1.210937 5.800782l-77.125 52.648437c1.238281.699219 2.046874 1.96875 2.15625 3.386719.109374 1.417969-.496094 2.796875-1.609376 3.679688l-16.4375 12.960937 11.675782-6.730469c1.882812-1.128906 4.3125-.640625 5.617187 1.121094 1.308594 1.765625 1.0625 4.234375-.566406 5.703125l-24.867187 23.441406 19.804687-11.449219c1.847656-1.003906 4.152344-.515624 5.429687 1.15625 1.277344 1.671876 1.144532 4.023438-.308593 5.539063l-18.335938 18.441406 13.183594-7.609375c1.816406-1.050781 4.125-.621094 5.445313 1.007813 1.320312 1.628906 1.261718 3.976562-.140626 5.535156l-13.105468 14.601563 7.808594-4.496094c1.730468-.996094 3.925781-.65625 5.273437.816406 1.351563 1.472656 1.496094 3.6875.347656 5.328125l-9.417969 13.4375 3.832032-2.210937c1.683594-.972657 3.808594-.683594 5.175781.703124 1.363281 1.386719 1.617187 3.519532.617187 5.1875l-4.265624 7.167969c1.726562-.230469 3.429687.597657 4.316406 2.097657 1.171875 2.035156.480468 4.640624-1.554688 5.820312l-12.390625 7.160156c-.652343.386719-1.398437.589844-2.15625.585938zm0 0" fill="#73b0f4"/><path d="m108.804688 85.222656c-1.929688 0-3.621094-1.300781-4.121094-3.164062-.496094-1.867188.316406-3.832032 1.988281-4.800782l132.164063-76.269531c1.964843-1.101562 4.449218-.484375 5.671874 1.40625 1.222657 1.890625.765626 4.40625-1.046874 5.746094l-37.246094 26.800781 58.878906-33.953125c1.949219-1.109375 4.425781-.519531 5.664062 1.347657 1.242188 1.867187.824219 4.378906-.953124 5.742187l-46.191407 34.988281 72.875-42.078125c1.972657-1.167969 4.515625-.570312 5.761719 1.355469 1.234375 1.917969.746094 4.464844-1.109375 5.785156l-35.175781 25.097656 55.910156-32.238281c1.96875-1.082031 4.441406-.449219 5.652344 1.445313 1.207031 1.890625.742187 4.398437-1.070313 5.730468l-29.652343 20.78125 48.46875-27.957031c1.972656-1.09375 4.457031-.460937 5.667968 1.441407 1.210938 1.902343.730469 4.417968-1.09375 5.742187l-26.453125 18.433594 44.375-25.601563c1.953125-1.125 4.449219-.539062 5.691407 1.347656 1.242187 1.882813.804687 4.40625-1 5.761719l-44.375 33.195313 69.734374-40.320313c1.972657-1.125 4.476563-.507812 5.703126 1.398438 1.230468 1.910156.746093 4.445312-1.09375 5.769531l-33.742188 23.980469 44.007812-25.398438c1.984376-1.097656 4.484376-.453125 5.6875 1.472657 1.203126 1.925781.6875 4.453124-1.171874 5.757812l-2.621094 1.757812 1.253906-.71875c1.929688-1.109374 4.386719-.550781 5.648438 1.285157 1.257812 1.835937.894531 4.328125-.835938 5.730469l-34.523438 27.871093 29.867188-17.230469c1.867188-1.050781 4.222656-.554687 5.507812 1.164063 1.28125 1.714844 1.09375 4.117187-.441406 5.613281l-20.878906 19.839844 15.871094-9.167969c1.6875-.976562 3.820312-.683593 5.183594.707031 1.363281 1.394532 1.613281 3.53125.601562 5.199219l-7.808594 12.9375 2.097656-1.203125c1.324219-.839844 3-.890625 4.371094-.125 1.367188.761719 2.207032 2.214844 2.1875 3.78125-.023437 1.570313-.902344 2.996094-2.289062 3.722656l-16.46875 9.480469c-1.6875.964844-3.808594.667969-5.164063-.71875-1.359375-1.382812-1.609375-3.511719-.613281-5.175781l7.816406-12.945312-32.648437 18.839843c-1.871094 1.070313-4.246094.574219-5.53125-1.152343-1.289063-1.722657-1.09375-4.136719.460937-5.628907l20.863282-19.808593-46.078126 26.617187c-1.925781 1.105469-4.378906.546875-5.636718-1.28125-1.261719-1.832031-.90625-4.320313.8125-5.726563l34.5625-27.902343-60.5 34.882812c-1.988282 1.101563-4.484375.453125-5.6875-1.46875-1.203125-1.925781-.6875-4.457031 1.171875-5.757812l2.621093-1.765625-15.59375 8.992187c-1.96875 1.125-4.476562.511719-5.703124-1.398437-1.226563-1.90625-.742188-4.441406 1.097656-5.769532l33.75-23.992187-53.984375 31.160156c-1.953125 1.128907-4.449219.539063-5.691407-1.34375-1.246093-1.882812-.804687-4.410156 1-5.761719l44.414063-33.171874-69.828125 40.277343c-1.96875 1.070313-4.429688.429688-5.632812-1.460937-1.203126-1.890625-.734376-4.390625 1.066406-5.722656l26.457031-18.433594-44.375 25.601562c-1.96875 1.082032-4.441406.449219-5.648437-1.441406-1.210938-1.894531-.746094-4.402344 1.066406-5.734375l29.644531-20.804687-48.453125 27.996093c-1.972656 1.160157-4.507812.554688-5.746094-1.367187-1.238281-1.925782-.738281-4.480469 1.128906-5.800782l35.132813-25.09375-55.894531 32.261719c-1.945313 1.089844-4.402344.492188-5.632813-1.367187-1.234375-1.859375-.828125-4.351563.933594-5.722656l46.191406-34.988282-72.875 42.070313c-1.964843 1.101562-4.449219.488281-5.671875-1.402344s-.765625-4.40625 1.046875-5.746094l37.238281-26.832031-58.878906 33.980469c-.644531.390625-1.382812.601562-2.136718.617187zm0 0" fill="#4a88da"/><path d="m40.277344 315.621094c-1.8125-.003906-3.421875-1.148438-4.019532-2.855469-.601562-1.707031-.054687-3.605469 1.355469-4.738281l10.121094-8.125-25.027344 14.4375c-1.960937 1.105468-4.445312.5-5.671875-1.382813-1.230468-1.886719-.785156-4.402343 1.019532-5.75l9.523437-6.964843-14.164063 8.175781c-1.929687 1.105469-4.378906.546875-5.636718-1.28125-1.261719-1.828125-.90625-4.320313.8125-5.722657l40.152344-32.429687-37.652344 21.734375c-1.957032 1.140625-4.460938.550781-5.707032-1.339844-1.246093-1.890625-.796874-4.425781 1.023438-5.773437l25.90625-19.261719-21.222656 12.269531c-1.921875 1.085938-4.359375.523438-5.609375-1.300781-1.25-1.820312-.90625-4.296875.796875-5.703125l42.34375-34.132813-37.546875 21.65625c-1.949219 1.109376-4.421875.519532-5.664063-1.347656-1.242187-1.867187-.824218-4.375.953125-5.742187l30.96875-23.511719-26.25 15.097656c-1.980469 1.152344-4.519531.53125-5.75-1.402344-1.226562-1.9375-.703125-4.5 1.183594-5.800781l3.089844-2.140625c-1.632813.230469-3.257813-.480468-4.195313-1.835937-1.253906-1.859375-.851562-4.375.917969-5.75l36.574219-28.527344-31.820313 18.363281c-1.957031 1.121094-4.453125.523438-5.6875-1.363281-1.238281-1.890625-.789062-4.414063 1.019531-5.761719l23.125-16.980468-18.457031 10.605468c-1.984375 1.277344-4.632812.703125-5.910156-1.285156-1.277344-1.984375-.699219-4.632812 1.285156-5.910156l15.171875-10.886719-10.546875 6.085937c-1.9375 1.140626-4.429687.578126-5.691406-1.285156-1.265625-1.863281-.863281-4.386718.914063-5.765625l38.902343-30.71875-34.132812 19.703125c-1.9375 1.117188-4.410157.546875-5.664063-1.304687-1.253906-1.855469-.863281-4.359375.894532-5.746094l38.554687-30.410156-33.777344 19.488281c-1.96875 1.144531-4.488281.539062-5.722656-1.375s-.753906-4.457031 1.097656-5.785156l22.066407-15.851563-17.441407 10.09375c-1.984375 1.085938-4.472656.429688-5.667969-1.492187-1.195312-1.921875-.679687-4.445313 1.171876-5.746094l88.371093-59.039062-83.875 48.417968c-2.003906 1.140625-4.550781.480469-5.75-1.484375-1.203125-1.96875-.625-4.535156 1.304688-5.796875l32.425781-20.941406-27.988281 16.15625c-1.988281 1.152344-4.53125.523438-5.753907-1.421875-1.222656-1.941406-.6875-4.507813 1.214844-5.796875l56.320313-38.476562-51.753907 29.863281c-1.976562 1.289062-4.621093.730469-5.90625-1.246094-1.285156-1.972656-.730468-4.617187 1.246094-5.902344l52.8125-38.402343-48.171875 27.792968c-1.945312 1.082032-4.390625.484375-5.621093-1.367187-1.234376-1.851563-.835938-4.339844.910156-5.714844l36.40625-27.75-31.695313 18.296875c-1.949219 1.132812-4.445312.554688-5.695312-1.324219-1.25-1.878906-.824219-4.40625.976562-5.769531l15.359375-11.765625-10.65625 6.144531c-1.835937 1.046875-4.164062.59375-5.472656-1.070312-1.304688-1.664063-1.195312-4.035156.257812-5.570313l16.648438-17.371093-11.417969 6.585937c-1.722656.988281-3.898437.660156-5.25-.796875-1.351562-1.457031-1.519531-3.652344-.40625-5.296875l5.121094-7.457031c-1.875-.121094-3.453125-1.449219-3.882813-3.277344-.433593-1.828125.382813-3.722656 2.003907-4.667969l12.835937-7.40625c1.722656-.988281 3.898438-.660156 5.25.796875 1.351563 1.457032 1.519532 3.652344.40625 5.296875l-4.15625 6.09375 21.121094-12.1875c1.835938-1.0624998 4.175781-.613281 5.488281 1.054688s1.199219 4.046875-.265625 5.585937l-16.648437 17.355469 41.617187-23.996094c1.945313-1.125 4.433594-.546875 5.679688 1.324219 1.25 1.871094.832031 4.390625-.953125 5.757812l-15.359375 11.769532 32.648437-18.851563c1.945313-1.0781248 4.390625-.484375 5.621094 1.367188 1.234375 1.851562.835937 4.339843-.910156 5.714843l-36.386719 27.726563 60.328125-34.808594c1.964844-1.117187 4.457031-.511719 5.6875 1.382813 1.230469 1.894531.773437 4.417968-1.042969 5.757812l-52.824218 38.402344 78.953124-45.542969c1.984376-1.132812 4.507813-.503906 5.726563 1.429688 1.21875 1.929687.699219 4.480469-1.179687 5.78125l-56.320313 38.484375 79.171875-45.695313c2-1.117187 4.523438-.457031 5.71875 1.496094 1.199219 1.953125.640625 4.5-1.261719 5.773437l-32.4375 20.890626 48.886719-28.160157c1.988281-1.0859372 4.476562-.429687 5.671875 1.492188 1.191406 1.921875.679687 4.441406-1.171875 5.742187l-106.703125 71.273438c1.523437.503906 2.636719 1.820312 2.878906 3.40625.238281 1.585937-.429687 3.175781-1.734375 4.109375l-22.074218 15.820312 10.726562-6.183593c1.933594-1.089844 4.378906-.511719 5.621094 1.324218 1.246094 1.835938.875 4.320313-.851563 5.714844l-38.527343 30.421875 33.773437-19.5c1.933594-1.109375 4.398437-.539063 5.652344 1.304687 1.25 1.847657.871093 4.347657-.875 5.734376l-38.917969 30.753906 34.132812-19.71875c1.96875-1.140625 4.488282-.535156 5.722657 1.375 1.234375 1.914062.753906 4.457031-1.097657 5.785156l-15.148437 10.886719 10.574219-6.082031c1.957031-1.097657 4.429687-.492188 5.65625 1.386718 1.226562 1.875.792968 4.382813-.996094 5.738282l-23.136719 17.066406 18.484375-10.667969c1.941406-1.125 4.421875-.554687 5.675782 1.304687 1.253906 1.859376.855468 4.375-.914063 5.753907l-36.582031 28.484375 31.804687-18.375c1.984375-1.207032 4.570313-.601563 5.820313 1.359375 1.246094 1.960937.691406 4.5625-1.246094 5.84375l-3.089844 2.132812c1.644532-.242187 3.285156.480469 4.214844 1.859375 1.25 1.875.828125 4.398438-.964844 5.761719l-30.957031 23.519531 26.289063-15.148437c1.925781-1.105469 4.378906-.546875 5.636718 1.28125 1.261719 1.832031.90625 4.320312-.816406 5.726562l-42.316406 34.132813 37.546875-21.667969c1.957031-1.136719 4.464843-.550781 5.710937 1.34375 1.246094 1.890625.796875 4.425781-1.023437 5.773437l-25.941407 19.285157 21.273438-12.269531c1.925781-1.105469 4.375-.546876 5.636719 1.28125 1.257812 1.828124.902343 4.320312-.816407 5.722656l-40.105468 32.425781 35.308594-20.394531c1.960937-1.105469 4.441406-.496094 5.671874 1.386718 1.230469 1.886719.78125 4.402344-1.019531 5.75l-9.59375 7.011719 4.960938-2.855469c1.929687-1.117187 4.394531-.558593 5.65625 1.28125 1.257812 1.84375.886719 4.34375-.855469 5.738282l-10.144531 8.144531 5.359375-3.097656c1.699218-.96875 3.835937-.65625 5.191406.753906 1.351562 1.410156 1.570312 3.5625.535156 5.21875l-10.410156 16.210937 4.699219-2.710937c1.320312-.777344 2.957031-.78125 4.285156-.019531 1.328125.761718 2.144531 2.175781 2.140625 3.707031s-.828125 2.945313-2.15625 3.699219l-19.925781 11.488281c-1.699219.964844-3.839844.65625-5.191407-.757813-1.351562-1.410156-1.574218-3.558593-.535156-5.214843l10.417969-16.214844-38.554687 22.1875c-.640626.386719-1.375.597656-2.121094.605469zm0 0" fill="#4a88da"/><path d="m7.207031 309.84375c14.449219 14.957031 59.394531 6.628906 80.648438 5.5625v5.042969c0 23.816406-10.023438 62.601562 18.015625 70.828125 10.199218 1.277344 20.519531 1.277344 30.71875 0h80.972656c26.003906 0 52.003906.136718 78.003906 0 17.640625-.085938 13.910156-2.015625 25.328125 11.988281 17.917969 22.015625 38.785157 42.265625 58.027344 63.191406 10.742187 11.714844 22.339844 31.574219 38.613281 34.984375 4.089844.921875 8.355469-.453125 11.144532-3.582031 8.96875-13.953125 4.351562-34.988281 4.351562-51.074219v-55.039062c21.605469 1.65625 58.496094 6.921875 71.621094-7.40625 12.6875-13.851563 5.179687-50.910156 5.179687-67.132813v-223.207031c-9.609375-23.125-39.664062-15.640625-60.964843-15.640625h-24.371094v-59.640625c.207031-.496094.207031-1.054688 0-1.550781-7.644532-18.363281-19.847656-16.460938-37.023438-16.460938h-319.039062c-30.796875 0-62.871094-7.96875-65.925782 30.335938-5.640624 70.714843 0 144.121093 0 215.039062 0 14.113281-7.136718 51.5 4.699219 63.761719zm490.25-212.566406v181.179687c0 27.726563 5.34375 61.6875 0 89.070313-5.648437 28.9375-42.667969 18.03125-68.035156 18.03125-2.320313 0-8.765625 1.316406-8.765625 4.5 0 26.453125 9.507812 75.867187-.851562 102.757812-10.4375-6.390625-19.023438-19.628906-26.609376-27.914062l-49.6875-54.152344c-17.390624-18.953125-18.621093-25.179688-42.726562-25.191406-43.695312 0-87.394531 0-131.097656 0-24.96875 0-63.191406 10.300781-69.4375-19.914063-2.945313-17.054687-3.867188-34.398437-2.738282-51.671875 1.535157-.691406 2.757813-1.707031 2.757813-3.085937v-141.585938c0-.1875 0-.394531 0-.582031v-50.03125c0-21.554688-.1875-31.445312 16.128906-33.953125 2.78125 0 5.972657.164063 9.726563.164063h289.878906c2.457031-.074219 4.859375-.757813 6.988281-1.988282 26.65625-2.273437 66.183594-5.558594 74.46875 14.367188zm-475.691406-89.179688c7.679687-4.789062 33.035156 0 41.933594 0h297.644531c16.367188 0 42.75-6.828125 50.761719 12.355469v34.515625c0 7.757812-2.558594 20.082031.691406 23.390625h-30.71875c-4.675781-.46875-8.746094-.851563-11.402344-.851563h-182.023437c-20.710938 0-76.261719-11.042968-94.265625 5.902344-2.234375 2.136719-3.925781 4.765625-4.941407 7.679688-8.535156 18.511718-1.757812 55.628906-1.605468 71.589844v130.351562 1 14.277344c-7.433594.578125-15.726563-.402344-22.84375-.402344-22.042969 0-44.371094 5.863281-50.117188-19.550781-4.667968-20.71875 0-48.117188 0-69.160157v-176.394531c.019532-10.195312-3.574218-28.210937 6.886719-34.703125zm0 0" fill="#262626"/></svg>