<svg height="504pt" viewBox="0 -1 504.8828 504" width="504pt" xmlns="http://www.w3.org/2000/svg"><path d="m442.71875 500.617188c-1.519531 0-2.921875-.808594-3.683594-2.121094-.761718-1.3125-.769531-2.933594-.019531-4.253906l5.324219-9.386719-12.195313 7.058593c-1.753906 1.003907-3.96875.640626-5.3125-.867187-1.339843-1.511719-1.4375-3.757813-.234375-5.378906l13.363282-17.921875-23.894532 13.816406c-1.878906 1.046875-4.242187.53125-5.515625-1.203125-1.273437-1.734375-1.054687-4.144531.507813-5.621094l12.972656-11.863281-19.550781 11.289062c-1.933594 1.117188-4.398438.558594-5.660157-1.285156-1.257812-1.839844-.886718-4.34375.855469-5.738281l10.289063-8.269531-15.453125 8.910156c-1.957031 1.132812-4.457031.539062-5.699219-1.347656-1.246094-1.890625-.796875-4.429688 1.023438-5.777344l3.15625-2.328125-6.96875 4.027344c-1.929688 1.105469-4.378907.546875-5.636719-1.285157-1.261719-1.828124-.90625-4.316406.8125-5.722656l40.578125-32.972656-90.367188 52.164062c-1.980468 1.101563-4.476562.464844-5.6875-1.453124-1.207031-1.917969-.703125-4.445313 1.144532-5.757813l56.320312-38.398437-81.507812 47.050781c-1.984376 1.089843-4.46875.441406-5.667969-1.472657-1.199219-1.917968-.699219-4.4375 1.144531-5.746093l92.160156-62.367188-116.769531 67.410157c-1.996094 1.101562-4.503906.4375-5.695313-1.5-1.191406-1.941407-.648437-4.476563 1.230469-5.761719l94.722657-61.832031-111.789063 64.53125c-2.011719 1.105468-4.535156.425781-5.71875-1.542969-1.179687-1.96875-.589844-4.519531 1.332031-5.769531l26.402344-16.421876-34.816406 20.097657c-1.996094 1.117187-4.523438.457031-5.71875-1.496094-1.195313-1.953125-.636719-4.5 1.265625-5.773437l120.320312-77.851563-135.226562 78.148437c-2.007813 1.105469-4.523438.429688-5.707031-1.53125-1.183594-1.957031-.613282-4.5 1.292968-5.761718l89.507813-56.320313-98.449219 56.789063c-2.011719 1.089844-4.527344.398437-5.699219-1.566406-1.171875-1.964844-.585937-4.503907 1.328125-5.757813l31.660156-19.472656-37.25 21.496093c-2.003906 1.121094-4.535156.453126-5.726562-1.507812s-.617188-4.515625 1.300781-5.78125l127.539063-80.972656-136.867188 79.003906c-1.996094 1.070312-4.480468.390625-5.660156-1.542969-1.175781-1.9375-.636719-4.453125 1.230469-5.738281l149.148437-95.476562-159.0625 91.835937c-2.015625 1.160156-4.589844.492187-5.789062-1.5-1.199219-1.992187-.578125-4.582031 1.394531-5.816406l100.375-62.546875-105.195313 60.75c-2.027343 1.203125-4.648437.535156-5.851562-1.492188-1.203125-2.023437-.539062-4.644531 1.488281-5.847656l27.539063-16.820312-30.074219 17.355468c-2.019531 1.214844-4.640625.554688-5.851563-1.464844-1.210937-2.023437-.554687-4.644531 1.46875-5.855468l98.480469-61.234375-101.863281 58.75c-2.003906 1.105469-4.519531.429687-5.707031-1.527344-1.183594-1.960937-.609375-4.503906 1.296875-5.765625l133.289062-84.011719-137.683594 79.523438c-2.015624 1.160156-4.589843.492187-5.789062-1.5-1.199219-1.992188-.578125-4.582031 1.394531-5.816407l111.625-69.757812-113.628906 65.605469c-2.027344 1.203125-4.644531.542969-5.851563-1.480469-1.207031-2.027344-.542968-4.644531 1.480469-5.851562l58.546875-36.027344-59.023437 34.074218c-2.007813 1.058594-4.492188.359376-5.65625-1.59375-1.160157-1.949218-.59375-4.46875 1.296875-5.726562l43.007812-26.394531-42.582031 24.574219c-2.011719 1.148437-4.566406.488281-5.765625-1.492188s-.601562-4.554688 1.34375-5.804688l141.867188-90.453124-142.488282 82.253906c-1.996094 1.054687-4.464844.378906-5.640625-1.546875s-.648437-4.433594 1.203125-5.722657l145.238282-93.578124-144.703126 83.542968c-2.015624 1.113282-4.550781.425782-5.730468-1.554687-1.175782-1.980469-.570313-4.535157 1.371094-5.777344l31.34375-19.292969-28.28125 16.316406c-2.023438 1.207032-4.644532.546876-5.851563-1.476562-1.210937-2.023438-.550781-4.644531 1.476563-5.855469l29.011718-17.917969-25.242187 14.601563c-2.019531 1.214844-4.640625.5625-5.855469-1.457031-1.21875-2.019532-.566406-4.640625 1.453125-5.859375l61.753906-38.644531-56.582031 32.664062c-2.011719 1.125-4.550781.453125-5.742188-1.519531-1.1875-1.972657-.597656-4.53125 1.339844-5.785157l50.488282-31.640624-44.917969 25.925781c-2.015625 1.160156-4.589844.492187-5.789063-1.5-1.195312-1.996094-.578125-4.582031 1.394532-5.816407l29.550781-18.480468-22.519531 13.003906c-2.007813 1.175781-4.589844.527344-5.800782-1.460938-1.210937-1.992187-.605468-4.582031 1.363282-5.828124l54.914062-35.113282-46.082031 26.617188c-2.003907 1.117187-4.535157.453125-5.726563-1.511719-1.191406-1.960937-.617187-4.515625 1.296875-5.777344l28.417969-18.167969-17.28125 9.976563c-1.980469 1.132813-4.507812.503906-5.726562-1.429687-1.21875-1.929688-.699219-4.480469 1.179687-5.78125l62.984375-43.296876-43.519531 25.171876c-1.941407 1.101562-4.402344.523437-5.644531-1.328126-1.246094-1.847656-.859376-4.347656.890624-5.730468l38.585938-29.96875c-1.894531-.070313-3.515625-1.390625-3.976562-3.230469-.457032-1.84375.355468-3.769531 2-4.722656l47.914062-27.671875c1.941406-1.132813 4.433594-.5625 5.6875 1.304687 1.253906 1.867188.847656 4.386719-.933594 5.761719l-34.816406 27.03125 83.488281-48.195312c1.984375-1.132813 4.507813-.503907 5.726563 1.425781 1.21875 1.933593.699218 4.484375-1.175782 5.785156l-63.003906 43.304687 90.453125-52.207031c2.003907-1.117187 4.535157-.453125 5.730469 1.511719 1.191406 1.960938.617188 4.515625-1.300781 5.777344l-28.441407 18.140625 41.8125-24.15625c2.007813-1.175781 4.589844-.527344 5.800782 1.460937 1.210937 1.988282.605468 4.582032-1.363282 5.824219l-54.871093 35.089844 68.867187-39.753907c2.007813-1.128906 4.550782-.457031 5.738282 1.519532 1.191406 1.972656.597656 4.53125-1.335938 5.785156l-29.601562 18.515625 39.355468-22.722656c2.019532-1.21875 4.640625-.566407 5.859375 1.453125 1.214844 2.019531.5625 4.640625-1.457031 5.859375l-50.414062 31.570312 60.132812-34.71875c2.015625-1.164062 4.589844-.496093 5.789062 1.496094 1.199219 1.996094.578126 4.582031-1.394531 5.816406l-61.78125 38.671875 70.871094-40.960937c2.023437-1.207031 4.640625-.542969 5.847656 1.480469 1.207031 2.023437.542969 4.644531-1.480469 5.851562l-29.011718 17.917969 35.574218-20.53125c2.011719-1.089844 4.527344-.398438 5.699219 1.566406s.585938 4.503906-1.328125 5.757813l-31.300781 19.257812 36.769531-21.222656c1.996094-1.082032 4.492188-.414063 5.675782 1.523437 1.183593 1.9375.644531 4.464844-1.230469 5.746094l-145.238281 93.578125 157.398437-90.863281c2-1.082031 4.5-.40625 5.679687 1.539062 1.183594 1.945313.628907 4.476563-1.257812 5.75l-141.894531 90.511719 151.28125-87.339844c2.023437-1.207031 4.640625-.542968 5.847656 1.480469 1.207031 2.027344.542969 4.644531-1.480469 5.851563l-42.957031 26.359374 46.523437-26.863281c2.023438-1.207031 4.644532-.542969 5.851563 1.480469s.542969 4.644531-1.480469 5.851562l-58.503906 36 61.644531-35.59375c2.015625-1.160156 4.589844-.492187 5.785157 1.5 1.199218 1.992188.582031 4.582032-1.390626 5.816407l-111.703124 69.808593 116.695312-67.371093c2.003906-1.101563 4.519531-.425781 5.707031 1.53125 1.183594 1.957031.609375 4.503906-1.296875 5.765625l-133.265625 83.992187 137.292969-79.257812c2.023438-1.210938 4.644531-.550781 5.855469 1.46875 1.210937 2.023437.554687 4.644531-1.46875 5.855469l-98.492188 61.207031 101.207031-58.425781c2.015626-1.113282 4.550782-.425782 5.730469 1.550781 1.175781 1.980469.570313 4.539062-1.371093 5.777343l-27.445313 16.769532 27.1875-15.691406c2.011719-1.109376 4.539063-.425782 5.71875 1.542968s.59375 4.515625-1.332031 5.769532l-100.46875 62.652343 101.492187-58.589843c2.003907-1.121094 4.535157-.453126 5.730469 1.507812 1.191406 1.960938.617188 4.515625-1.300781 5.777344l-149.121094 95.445312 150.257813-86.738281c2.007812-1.148437 4.566406-.488281 5.765624 1.492187 1.199219 1.980469.601563 4.554688-1.347656 5.800782l-127.539062 81.007812 127.242187-73.464844c2.023438-1.203124 4.640625-.542968 5.847657 1.480469 1.207031 2.027344.546874 4.644531-1.480469 5.851563l-31.707031 19.507812 28.601562-16.511718c2.011719-1.128907 4.550781-.453126 5.742188 1.519531 1.1875 1.972656.597656 4.53125-1.339844 5.785156l-89.511719 56.320313 86.355469-49.851563c2-1.117187 4.523437-.457031 5.71875 1.492187 1.195312 1.953126.640625 4.503907-1.265625 5.777344l-120.316407 77.839844 115.0625-66.40625c2.019532-1.210938 4.640626-.554688 5.851563 1.46875 1.210937 2.019531.554687 4.640625-1.464844 5.851562l-26.257812 16.308594 20.675781-11.945312c2.003906-1.164063 4.570312-.519532 5.78125 1.453125 1.210938 1.976562.625 4.558593-1.320312 5.816406l-94.804688 61.875 85.179688-49.179687c1.992187-1.179688 4.5625-.554688 5.789062 1.40625 1.230469 1.960937.671875 4.546874-1.257812 5.824218l-92.160157 62.34375 77.492188-44.730468c1.984375-1.117188 4.496093-.480469 5.707031 1.449218 1.207031 1.929688.691406 4.46875-1.175781 5.769532l-56.320313 38.398437 37.214844-21.484375c1.925781-1.105469 4.378906-.546875 5.636719 1.28125 1.257812 1.828125.902343 4.316406-.816407 5.722656l-40.574218 32.980469 25.503906-14.796875c1.960938-1.152344 4.480469-.5625 5.730469 1.339844 1.246093 1.898437.785156 4.445312-1.054688 5.785156l-3.847656 2.835938c1.964844-.644532 4.105469.214843 5.082031 2.035156.980469 1.820312.511719 4.078125-1.105468 5.363281l-10.308594 8.285156 5.503906-3.175781c1.878906-1.046875 4.246094-.53125 5.519531 1.203125 1.269531 1.734375 1.054688 4.144531-.507812 5.625l-12.972657 11.851563 7.960938-4.597657c1.753906-1.007812 3.972656-.644531 5.3125.867188 1.34375 1.511719 1.441406 3.753906.234375 5.378906l-13.363281 17.917969 7.824218-4.523438c1.667969-.957031 3.769532-.679687 5.132813.675782 1.363281 1.355468 1.652344 3.457031.707031 5.128906l-5.359375 9.4375c2.078125-.878906 4.480469.007812 5.484375 2.03125 1.003906 2.019531.261719 4.472656-1.695312 5.597656l-13.082032 7.550781c-.644531.390625-1.382812.59375-2.132812.597657zm0 0" fill="#61ddbc"/><path d="m389.214844 146.363281c-.636719.003907-1.261719-.132812-1.835938-.40625-1.269531-.605469-2.160156-1.796875-2.382812-3.183593l-1.210938-7.59375-8.15625 4.707031c-1.566406.90625-3.53125.726562-4.90625-.449219-1.375-1.171875-1.859375-3.085938-1.210937-4.773438l4.015625-10.535156-17.390625 10.042969c-1.828125 1.058594-4.15625.621094-5.472657-1.03125-1.320312-1.652344-1.230468-4.019531.210938-5.566406l3.949219-4.265625-13.277344 7.679687c-1.824219 1.058594-4.144531.628907-5.46875-1.011719-1.320313-1.644531-1.246094-4.003906.175781-5.558593l12.605469-13.839844-31.070313 17.917969c-1.914062 1.09375-4.34375.550781-5.609374-1.253906-1.265626-1.800782-.949219-4.273438.730468-5.699219l11.59375-9.804688-28.449218 16.425781c-1.925782 1.105469-4.378907.546876-5.636719-1.28125-1.257813-1.832031-.902344-4.320312.816406-5.726562l20.769531-16.902344-47.351562 27.304688c-1.972656 1.160156-4.507813.554687-5.746094-1.367188-1.238281-1.925781-.742188-4.480468 1.128906-5.800781l14.773438-10.503906-51.671875 29.867187c-1.320313.839844-3 .890625-4.367188.125-1.367187-.765625-2.207031-2.214844-2.1875-3.785156.023438-1.566406.898438-2.996094 2.289063-3.722656l127.761718-73.804688c1.972657-1.15625 4.507813-.550781 5.746094 1.371094 1.238282 1.921875.738282 4.480469-1.128906 5.796875l-14.765625 10.546875 17.496094-10.09375c1.921875-1.078125 4.351562-.515625 5.601562 1.300781 1.25 1.816407.914063 4.285157-.78125 5.695313l-20.753906 16.898437 23.585937-13.652343c1.910157-1.089844 4.335938-.546876 5.601563 1.25 1.265625 1.796874.957031 4.261718-.710937 5.695312l-11.632813 9.828125 13.457031-7.765625c1.824219-1.058594 4.148438-.628906 5.46875 1.015625 1.324219 1.640625 1.246094 4.003906-.175781 5.558594l-12.613281 13.839843 13.988281-8.066406c1.824219-1.046875 4.140625-.605468 5.453125 1.039063 1.316406 1.644531 1.234375 4-.191406 5.550781l-3.949219 4.265625 3.34375-1.917969c1.566406-.902344 3.527344-.722656 4.898437.449219 1.375 1.167969 1.863282 3.078125 1.222657 4.761719l-3.996094 10.558594 3.132813-1.800782c1.21875-.703125 2.703124-.761718 3.972656-.15625 1.269531.605469 2.15625 1.796875 2.375 3.183594l1.484375 9.320312c.886719.351563 1.625.996094 2.09375 1.824219 1.171875 2.039063.476562 4.640625-1.554688 5.820313l-1.917969 1.109375c-.660156.382812-1.410156.582031-2.167968.570312zm0 0" fill="#35ba9b"/><path d="m103.773438 334.386719c-.957032 0-1.886719-.320313-2.636719-.910157-1.371094-1.074218-1.953125-2.875-1.46875-4.550781l.523437-1.765625-3.140625 1.808594c-1.597656.925781-3.609375.714844-4.984375-.515625s-1.800781-3.203125-1.058594-4.894531l5.863282-13.34375-15.589844 8.984375c-1.84375 1.050781-4.179688.589843-5.480469-1.085938-1.304687-1.671875-1.179687-4.050781.289063-5.578125l6.246094-6.410156-10.398438 5.972656c-1.882812 1.050782-4.246094.535156-5.519531-1.199218-1.273438-1.734376-1.054688-4.148438.507812-5.625l9.164063-8.347657-13.488282 7.792969c-1.910156 1.097656-4.335937.566406-5.609374-1.230469-1.273438-1.792969-.972657-4.261719.691406-5.699219l16.804687-14.402343-20.882812 12.0625c-1.921875 1.101562-4.367188.542969-5.625-1.28125-1.261719-1.820313-.914063-4.304688.796875-5.714844l26.007812-21.152344-31 17.917969c-1.972656 1.109375-4.464844.484375-5.683594-1.417969-1.21875-1.90625-.742187-4.433593 1.089844-5.757812l7.9375-5.597657-8.753906 5.050782c-1.953125 1.105468-4.425781.507812-5.660156-1.367188-1.234375-1.871094-.808594-4.378906.972656-5.742187l55.671875-41.554688-60.585937 34.984375c-2.015626 1.136719-4.570313.460938-5.753907-1.527344-1.1875-1.984374-.578125-4.554687 1.375-5.792968l64.921875-40.003906-65.320312 37.699218c-2.011719 1.078125-4.515625.378906-5.679688-1.582031-1.164062-1.964844-.582031-4.496094 1.328125-5.746094l6.347657-3.875-5.75 3.320313c-2.007813 1.101562-4.523438.425781-5.707032-1.53125-1.1875-1.957032-.613281-4.503906 1.292969-5.765625l125.328125-79.042969-126.292969 72.914062c-2.003906 1.140626-4.550781.484376-5.75-1.480468-1.203125-1.96875-.625-4.535156 1.304688-5.796875l149.972656-96.425781-150.289063 86.722656c-2.007812 1.148437-4.566406.488281-5.765624-1.492188-1.199219-1.980468-.601563-4.554687 1.347656-5.804687l126.351562-80.613281-124.320312 71.773437c-2.011719 1.128906-4.550782.453125-5.742188-1.519531-1.1875-1.972656-.597656-4.53125 1.335938-5.785156l83.40625-52.375-80.222656 46.335937c-2.019532 1.222656-4.652344.574219-5.875-1.449219-1.222657-2.019531-.5742192-4.652344 1.449218-5.875l94.640625-60.183594-89.445312 51.632813c-1.996094 1.085937-4.492188.414063-5.675781-1.523437-1.183594-1.9375-.644532-4.460938 1.230468-5.746094l97.015625-62.582032-90.71875 52.367188c-1.992187 1.136719-4.527343.492188-5.734375-1.457031-1.210937-1.949219-.664062-4.503907 1.238282-5.785157l104.515624-69.71875-93.6875 54.09375c-2.003906 1.101563-4.523437.425782-5.707031-1.53125-1.183593-1.957031-.613281-4.503906 1.292969-5.765624l19.109375-12.125-8.203125 4.726562c-1.984375 1.085938-4.472656.429688-5.667969-1.492188-1.195312-1.921874-.679687-4.441406 1.171875-5.742187l46.933594-31.277344-30.824219 17.808594c-1.929687 1.097656-4.375.53125-5.628906-1.304687-1.25-1.832032-.886719-4.316407.835937-5.71875l43.886719-35.199219c-2.066406.882812-4.460937.015625-5.480469-1.984375-1.019531-2-.3125-4.449219 1.613282-5.601563l47.914062-27.671875c1.933594-1.117187 4.398438-.558594 5.660156 1.285156 1.257813 1.839844.886719 4.339844-.855468 5.738282l-43.773438 35.105468 98.097656-56.636718c1.992188-1.132813 4.527344-.488282 5.734376 1.457031 1.210937 1.949219.664062 4.503906-1.238282 5.789063l-46.933594 31.300781 68.90625-39.828125c2-1.054688 4.472657-.367188 5.644532 1.5625 1.171875 1.933594.628906 4.445312-1.230469 5.726562l-19.089844 12.117188 31.574219-18.226563c1.984375-1.085937 4.472656-.429687 5.667969 1.492188 1.195312 1.921875.679687 4.441406-1.171875 5.742187l-104.558594 69.761719 126.140625-72.832031c1.996094-1.082032 4.488281-.414063 5.675781 1.523437 1.183594 1.9375.644532 4.464844-1.230468 5.746094l-96.992188 62.582031 112.085938-64.707031c2.011718-1.148437 4.570312-.484375 5.765624 1.496094 1.199219 1.976562.605469 4.550781-1.34375 5.800781l-94.636718 60.183594 106.582031-61.523438c2.007813-1.085937 4.511719-.402344 5.6875 1.550782 1.179687 1.957031.609375 4.492187-1.292969 5.753906l-83.359375 52.359375 92.328125-53.308594c2.003906-1.117187 4.535156-.453125 5.730469 1.511719 1.191406 1.960937.617187 4.515625-1.300781 5.777344l-126.34375 80.5625 137.703125-79.453126c2.007812-1.175781 4.589843-.527343 5.800781 1.460938s.601562 4.582031-1.363281 5.828125l-150.007813 96.425781 160.722656-92.742187c2.019532-1.21875 4.640626-.570313 5.859376 1.449219 1.21875 2.015624.570312 4.636718-1.445313 5.855468l-125.269531 79.019532 132.734375-76.628907c2.011719-1.074219 4.515625-.378906 5.679687 1.585938 1.167969 1.960937.582032 4.492187-1.328125 5.742187l-6.046875 3.671875 8.097656-4.675781c2.023438-1.207031 4.640626-.542969 5.847657 1.480469 1.207031 2.023437.542969 4.640625-1.480469 5.847656l-194.242188 119.679687c1.03125 1.871094.523438 4.214844-1.1875 5.488282l-55.679687 41.546875 26.957031-15.5625c1.972656-1.109375 4.464844-.484375 5.683594 1.421875 1.21875 1.902344.738281 4.429687-1.09375 5.753906l-10.289062 7.269531c1.910156-.328125 3.804687.675781 4.609374 2.441407.800782 1.769531.308594 3.855468-1.199218 5.078124l-26.007813 21.144532 14.414063-8.3125c1.902344-1.078125 4.320312-.539063 5.585937 1.246094 1.265625 1.789062.972657 4.246093-.679687 5.683593l-16.804688 14.386719 7.851563-4.539062c1.878906-1.046876 4.246093-.53125 5.515625 1.203124 1.273437 1.734376 1.058594 4.144532-.507813 5.625l-9.144531 8.378907 2.925781-1.707031c1.84375-1.0625 4.191407-.605469 5.5 1.078124 1.308594 1.679688 1.175781 4.070313-.3125 5.59375l-6.261719 6.425782.117188-.066406c1.597656-.921876 3.609375-.714844 4.984375.515624 1.371094 1.230469 1.800781 3.203126 1.058594 4.894532l-5.855469 13.347656 1.050781-.609375c1.507813-.867187 3.390625-.734375 4.761719.339844s1.949219 2.871093 1.46875 4.542969l-1.101562 3.824218c.964843.332032 1.773437 1.003906 2.277343 1.894532 1.175781 2.035156.480469 4.636718-1.550781 5.816406l-5.054688 2.921875c-.648437.382812-1.386718.589843-2.140624.59375zm0 0" fill="#35ba9b"/><path d="m398.394531 143.644531c.039063-.320312.039063-.640625 0-.957031.035157-.261719.035157-.523438 0-.785156v-.058594c-35.992187-133.199219-203.042969-178.613281-314.683593-109.023438-123.996094 77.3125-103.378907 241.382813 20.863281 304.351563 19.492187 78.34375 98.785156 133.066406 181.128906 138.152344 19.671875 1.183593 39.414063-.15625 58.746094-3.984375 22.757812-4.472656 28.601562-13.441406 47.539062-1.289063 12.851563 8.210938 42.519531 38.078125 60.535157 31.25 18.703124-7.125 9.691406-46.746093 9.691406-61.757812 0-26.453125.699218-32.5 15.164062-54.746094 16.984375-26.277344 26.492188-56.683594 27.503906-87.953125-2.832031-75.675781-47.632812-127.039062-106.488281-153.199219zm-315.671875-98.519531c102.289063-71.441406 259.148438-30.558594 299.929688 88.976562-41.476563-13.964843-86.011719-16.164062-128.65625-6.347656-74.898438 14.214844-140.453125 63.632813-152.40625 149.792969-2.125 15.125-2.042969 30.476563.238281 45.578125-104.429687-60.757812-125.882813-203.433594-19.105469-278zm395.503906 317.882812c-6.667968 14.636719-24.433593 28.820313-27.820312 42.914063-.859375 6.085937-1.03125 12.25-.511719 18.375v50.003906c0 2.355469 1.808594 14.25 0 16.460938-.503906.582031-.921875 1.230469-1.246093 1.929687-1.414063-.535156-2.890626-.878906-4.394532-1.035156-20.855468-2.855469-37.207031-32.902344-58.171875-36.777344-1.554687-.289062-3.097656.582032-4.566406.453125-15.582031-1.316406-44.960937 12.449219-62.4375 14.078125-36.785156 2.792969-73.640625-4.472656-106.617187-21.015625-84.308594-41.730469-118.558594-137.011719-85.605469-214.828125 40.191406-86.910156 160.359375-125.226562 256.445312-87.789062 60.152344 26.453125 106.460938 80.734375 109.226563 154.332031-.601563 21.703125-5.460938 43.074219-14.300782 62.898437zm0 0" fill="#262626"/></svg>