<svg height="507pt" viewBox="0 -88 507.28702 507" width="507pt" xmlns="http://www.w3.org/2000/svg"><path d="m193.914062 332.3125c-1.902343 0-3.578124-1.257812-4.101562-3.089844-.523438-1.828125.226562-3.785156 1.839844-4.792968l74.707031-46.652344-93.488281 53.9375c-2.003906 1.070312-4.492188.386718-5.664063-1.558594-1.175781-1.941406-.621093-4.464844 1.261719-5.734375l113.609375-71.679687-136.753906 78.972656c-2.015625 1.117187-4.554688.429687-5.730469-1.550782-1.179688-1.980468-.570312-4.539062 1.371094-5.777343l18.371094-11.214844-32.121094 18.542969c-2 1.085937-4.5.410156-5.679688-1.535156-1.179687-1.949219-.625-4.476563 1.261719-5.75l151.210937-95.964844-175.328124 101.203125c-2.003907 1.121093-4.535157.453125-5.726563-1.507813-1.191406-1.960937-.617187-4.515625 1.300781-5.777344l163.191406-103.683593-180.925781 104.484375c-2.011719 1.105468-4.535156.425781-5.714843-1.542969-1.183594-1.96875-.59375-4.519531 1.328124-5.769531l117.855469-73.300782-127.003906 73.324219c-2.011719 1.164063-4.589844.496094-5.785156-1.496093-1.199219-1.996094-.578125-4.582032 1.390625-5.816407l147.773437-92.519531-156.664062 90.445312c-2.011719 1.089844-4.523438.402344-5.695313-1.5625-1.175781-1.964843-.589844-4.503906 1.328125-5.757812l93.070313-57.171875-98.03125 56.566406c-2.019532 1.214844-4.640625.5625-5.855469-1.457031s-.566406-4.640625 1.453125-5.855469l164.515625-103.367187-170.308594 98.3125c-2.011719 1.09375-4.523437.402344-5.699219-1.5625-1.171874-1.964844-.585937-4.503906 1.328126-5.757813l99.910156-61.523437-101.898438 58.878906c-2.007812 1.089844-4.523437.398438-5.695312-1.566406s-.585938-4.503906 1.328125-5.753906l110.078125-68.019532-111.621094 64.417969c-2.015625 1.160156-4.589844.496094-5.789062-1.5-1.199219-1.992187-.578126-4.578125 1.394531-5.8125l124.585937-77.5625-124.503906 71.902344c-2.019531 1.210937-4.640625.554687-5.851562-1.46875-1.210938-2.019531-.554688-4.640625 1.46875-5.851563l96.347656-59.792968-95.070313 54.851562c-2.03125 1.203125-4.65625.53125-5.863281-1.5-1.203125-2.035156-.53125-4.660156 1.503906-5.863281l23.800782-14.507813-20.480469 11.800782c-2 1.101562-4.511719.433593-5.699219-1.515626-1.1875-1.949218-.632812-4.488281 1.261719-5.761718l140.03125-89.464844-135.550781 78.25c-2.015626 1.136719-4.570313.460938-5.757813-1.527344-1.1875-1.984375-.574219-4.554687 1.378906-5.792968l41.8125-25.804688-36.214843 20.90625c-2 1.101562-4.511719.433594-5.699219-1.515625s-.632813-4.488281 1.261719-5.761719l127.660156-82.183594-115.808594 66.824219c-2.011719 1.089844-4.523438.398438-5.695312-1.566406-1.171876-1.964844-.585938-4.503906 1.328124-5.757813l10.886719-6.707031c-1.960937.558594-4.042969-.347656-4.96875-2.164062-.925781-1.816407-.4375-4.035157 1.164063-5.292969l22.136718-17.425781c-.691406-.371094-1.261718-.929688-1.648437-1.613281-1.175781-2.035157-.484375-4.636719 1.546875-5.820313l36.042969-20.820313c1.941406-1.140624 4.429687-.578124 5.695312 1.285157 1.261719 1.863281.859375 4.382812-.917969 5.765625l-10.871093 8.53125 199.167969-114.96875c2.015624-1.136719 4.570312-.457032 5.757812 1.527344 1.1875 1.984374.574219 4.554687-1.378906 5.792968l-6.972656 4.265625 12.023437-6.9375c1.992187-1.054687 4.464844-.375 5.640625 1.550781 1.175781 1.925782.648438 4.429688-1.203125 5.722657l-127.648437 82.269531 138.375-79.882812c2.015624-1.132813 4.570312-.457032 5.757812 1.527343 1.1875 1.988281.574219 4.558594-1.378906 5.796875l-41.882813 25.828125 46.191407-26.664062c2.003906-1.121094 4.535156-.457031 5.726562 1.507812 1.195312 1.960938.621094 4.515625-1.296875 5.777344l-140.066406 89.480469 146.925781-84.8125c2.015625-1.113282 4.554688-.425782 5.730469 1.554687 1.179687 1.976563.570312 4.535157-1.371094 5.777344l-23.78125 14.503906 36.214844-20.898437c2.007812-1.070313 4.503906-.378906 5.671875 1.574218 1.167968 1.953126.601562 4.476563-1.292969 5.742188l-96.308594 59.730469 114.125-65.875c2.015625-1.164063 4.589844-.496094 5.789063 1.496093 1.199218 1.996094.578125 4.582032-1.394532 5.816407l-124.464843 77.558593 137.0625-79.121093c2.011719-1.089844 4.523437-.398438 5.695312 1.566406s.585938 4.503906-1.328125 5.753906l-110.171875 68.082031 117.65625-67.925781c2.011719-1.089843 4.523438-.402343 5.699219 1.5625 1.171875 1.964844.585938 4.503907-1.332031 5.757813l-99.949219 61.515625 104.78125-60.484375c1.304688-.785156 2.933594-.816406 4.265625-.078125 1.335937.738281 2.175781 2.132812 2.203125 3.65625.027344 1.527343-.757812 2.949219-2.066406 3.738281l-164.445313 103.320312 169.558594-97.894531c2.015625-1.113281 4.550781-.429687 5.730469 1.550781 1.175781 1.980469.570312 4.539063-1.371094 5.777344l-93.109375 57.226563 94.109375-54.324219c2.003906-1.085938 4.511719-.402344 5.6875 1.550781 1.175781 1.957031.605469 4.492188-1.292969 5.753907l-147.757812 92.519531 147.363281-85.085938c1.308594-.785156 2.933594-.808593 4.265625-.070312 1.332031.742187 2.171875 2.136719 2.195313 3.660156.023437 1.527344-.765626 2.949219-2.074219 3.730469l-117.941407 73.351562 128.574219-74.238281c1.300781-.792969 2.929688-.828125 4.265625-.09375 1.335938.734375 2.179688 2.125 2.214844 3.648437.035156 1.523438-.75 2.949219-2.050781 3.742188l-163.210938 103.636719 176.8125-102.058594c2.027344-1.214844 4.652344-.554687 5.867188 1.472656 1.210937 2.027344.554687 4.652344-1.472657 5.867188l-151.160156 95.929687 160.9375-92.910156c2.011719-1.074219 4.515625-.378906 5.679688 1.585938 1.167968 1.960937.582031 4.492187-1.328125 5.742187l-18.355469 11.207031 21.292969-12.316406c2.015625-1.214844 4.640625-.570312 5.859375 1.449219 1.214844 2.015625.570312 4.640625-1.449219 5.855469l-113.636719 71.664062 118.039063-68.148438c2.007812-1.085937 4.515625-.402343 5.691406 1.554688 1.175781 1.953125.605469 4.488281-1.292969 5.75l-74.804687 46.714844 77.039062-44.476563c2.015625-1.21875 4.640625-.570312 5.859375 1.445313 1.214844 2.015625.570313 4.640625-1.449218 5.859375l-84.691407 53.503906 86.1875-49.75c2.003907-1.121094 4.535157-.453125 5.726563 1.507813 1.191406 1.960937.617187 4.515624-1.300782 5.777343l-86.109374 55.066407 86.347656-49.851563c2-1.054687 4.476562-.371094 5.644531 1.5625 1.171875 1.933594.628906 4.445313-1.230469 5.726563l-56.601562 35.976562 55.59375-32.085938c1.996094-1.117187 4.511718-.460937 5.714844 1.480469 1.199218 1.945313.65625 4.488281-1.234376 5.773438l-78.625 51.625 75.75-43.722657c1.984376-1.117187 4.496094-.480468 5.703126 1.449219 1.210937 1.929688.695312 4.46875-1.171876 5.769531l-78.226562 53.273438 73.386719-42.351562c1.988281-1.085938 4.472656-.429688 5.667969 1.492187 1.195312 1.921875.683593 4.441406-1.171876 5.746094l-38.074218 25.324219 31.515625-18.183594c1.976562-1.136719 4.5-.515625 5.722656 1.410156s.71875 4.472656-1.152344 5.785156l-40.402343 28.15625 30.214843-17.457031c1.980469-1.136719 4.5-.515625 5.722657 1.410156 1.226562 1.925781.71875 4.472657-1.148438 5.78125l-13.960938 9.730469.300782-.164062c1.933594-1.074219 4.367187-.488282 5.605468 1.347656 1.238282 1.832031.867188 4.3125-.855468 5.703125l-21.332032 16.691406c1.265626.796875 2.019532 2.199219 1.988282 3.691406-.027344 1.496094-.839844 2.863281-2.132813 3.613281l-35.628906 20.519532c-1.9375 1.125-4.417969.554687-5.671875-1.304688s-.855469-4.371094.910156-5.75l8.457032-6.605468-34.03125 19.625c-1.976563 1.136718-4.5.515624-5.722657-1.410157-1.222656-1.925781-.71875-4.472656 1.152344-5.78125l13.933594-9.703125-30.3125 17.492188c-1.972657 1.09375-4.453125.460937-5.664063-1.441406-1.210937-1.902344-.734375-4.417969 1.089844-5.742188l40.425781-28.160156-61.269531 35.34375c-1.988281 1.117187-4.503906.46875-5.710938-1.464844-1.203124-1.9375-.675781-4.476562 1.203126-5.769531l38.007812-25.285157-56.320312 32.519532c-1.976563 1.078125-4.449219.429687-5.648438-1.476563s-.707031-4.417969 1.117188-5.734375l78.292968-53.316406-104.882812 60.527344c-1.988282 1.085937-4.480469.421875-5.671875-1.507813-1.1875-1.929687-.660157-4.453125 1.203125-5.742187l78.597656-51.628906-101.972656 58.878906c-2 1.085937-4.5.410156-5.679688-1.535156-1.179687-1.949219-.625-4.476563 1.261719-5.75l56.574219-35.933594-74.871094 43.21875c-2 1.101562-4.511719.433594-5.699219-1.515625s-.632812-4.488281 1.261719-5.761719l86.136719-55.015625-107.992188 62.292969c-2.003906 1.105468-4.523437.429687-5.707031-1.53125-1.183594-1.957032-.609375-4.5 1.296875-5.761719l84.761719-53.546875-105.414063 60.839844c-.636719.378906-1.363281.585937-2.105469.597656zm0 0" fill="#4fc0e8"/><path d="m111.140625 106.4375c-1.863281 0-3.511719-1.210938-4.070313-2.988281-.558593-1.777344.101563-3.710938 1.628907-4.777344l55.238281-38.496094-45.886719 26.453125c-1.941406 1.09375-4.398437.507813-5.640625-1.347656-1.238281-1.851562-.839844-4.347656.914063-5.726562l49.492187-38.074219-29.421875 16.980469c-1.953125 1.128906-4.449219.539062-5.691406-1.34375-1.246094-1.882813-.808594-4.410157 1-5.761719l19.242187-14.433594c-.410156-.324219-.75-.726563-1.007812-1.183594-1.179688-2.042969-.480469-4.652343 1.5625-5.828125l38.339844-22.136718c1.953125-1.128907 4.449218-.539063 5.691406 1.34375 1.246094 1.882812.804688 4.410156-1 5.765624l-.945312.707032 23.894531-13.796875c1.941406-1.117188 4.421875-.539063 5.667969 1.324219 1.246093 1.863281.839843 4.375-.933594 5.75l-49.492188 38.074218 76.925782-44.371094c1.980468-1.136718 4.5-.515624 5.726562 1.410157 1.222656 1.925781.714844 4.472656-1.152344 5.78125l-55.234375 38.476562 70.046875-40.445312c1.324219-.777344 2.957032-.785157 4.285156-.019531 1.328126.761718 2.144532 2.175781 2.140626 3.707031-.003907 1.53125-.828126 2.945312-2.15625 3.699219l-157.015626 90.640624c-.648437.394532-1.390624.609376-2.148437.617188zm0 0" fill="#4fc0e8"/><g fill="#262626"><path d="m462.003906 125.703125c-9.164062-6.894531-23.652344-10.050781-32.101562-17.066406-20.097656-16.621094-22.410156-43.238281-47.992188-56.8125-20.4375-10.871094-42.605468-4.046875-61.910156-13.425781-23.207031-11.28125-36.4375-29.933594-64.246094-35.640626-23.472656-4.789062-47.8125-2.972656-70.3125 5.238282-23.992187 8.605468-44.828125 24.246094-59.792968 44.875-15.660157 21.882812-14.3125 44.050781-39.253907 53.957031-48.90625 19.421875-86.691406 55.757813-86.394531 112.195313.335938 64.71875 52.960938 110.132812 114.835938 113.273437h223.828124c72.472657 0 153.488282-10.15625 167.253907-98.707031 6.492187-41.320313-10.410157-82.84375-43.914063-107.886719zm-22.5 186.070313c-32.949218 17.492187-74.164062 12.535156-110.378906 12.535156h-209.734375c-129.601563-6.535156-144.355469-197.972656-10.316406-213.65625 2.5625-.289063 6.367187-1.707032 6.921875-4.582032 18.671875-97.597656 134.46875-129.9375 200.300781-53.640624 1.890625 1.496093 4.417969 1.90625 6.683594 1.082031 43.519531-9.847657 77.199219 18.007812 85.9375 57.394531.238281 1.109375 1.519531 1.820312 2.5 2.101562 89.550781 25.515626 117 151.550782 28.085937 198.765626zm0 0"/><path d="m140.46875 98.695312c-1.390625 4.039063 10.941406 2.484376 12.355469-1.59375 10.089843-32.027343 39.242187-54.242187 72.800781-55.46875 4.503906-.117187 13.132812-7.089843 4.84375-6.824218-40.507812.070312-76.570312 25.671875-90 63.886718zm0 0"/><path d="m121.046875 291.355469c-86.460937-4.667969-104.105469-136.535157-10.113281-147.917969 5.378906-.648438 10.769531-6.417969 2.09375-5.367188-39.152344 4.734376-73.636719 30.804688-78.398438 72.082032-5.535156 48.007812 32.992188 84.367187 78.550782 86.832031 3.082031.164063 14.226562-5.289063 7.867187-5.628906zm0 0"/></g></svg>