<svg height="512pt" viewBox="-4 0 512 512.01739" width="512pt" xmlns="http://www.w3.org/2000/svg"><path d="m53.117188 276.304688 149.695312 112.46875c8.910156 6.515624 14.167969 16.902343 14.144531 27.941406v86.605468c-.003906 3.160157 1.703125 6.070313 4.464844 7.605469 2.761719 1.53125 6.136719 1.445313 8.8125-.226562l47.988281-30.027344c5.058594-3.203125 8.132813-8.765625 8.160156-14.75v-49.207031c-.023437-11.039063 5.234376-21.425782 14.144532-27.941406l149.695312-112.46875zm0 0" fill="#5e9cea"/><path d="m503.332031 190.914062v69.425782c0 14.378906-112.675781 26.03125-251.664062 26.03125-138.984375 0-251.6601565-11.652344-251.6601565-26.03125v-69.425782zm0 0" fill="#4a88da"/><path d="m503.332031 190.914062c0 10.242188-56.496093 19.007813-138.847656 23.257813-5.640625.261719-11.457031.609375-17.355469.78125-29.417968 1.300781-61.613281 1.996094-95.460937 1.996094-40.523438 0-78.882813-1.042969-112.8125-2.777344-82.351563-4.25-138.8476565-13.015625-138.8476565-23.257813 0-10.238281 56.4960935-19.003906 138.8476565-23.253906h225.628906c82.351563 4.25 138.847656 13.015625 138.847656 23.253906zm0 0" fill="#5e9cea"/><path d="m364.484375 26.035156v188.136719c-5.640625.261719-11.457031.609375-17.355469.78125-29.417968 1.300781-61.613281 1.996094-95.460937 1.996094-40.523438 0-78.882813-1.042969-112.8125-2.777344v-188.136719c-.023438-3.71875 1.167969-7.34375 3.386719-10.328125 3.285156-4.414062 8.464843-7.019531 13.96875-7.027343h190.917968c9.570313.027343 17.324219 7.78125 17.355469 17.355468zm0 0" fill="#cad0d7"/><path d="m138.855469 78.101562h225.628906v69.425782h-225.628906zm0 0" fill="#a9b0bb"/><path d="m182.246094 52.066406h-8.679688c-4.792968 0-8.675781-3.882812-8.675781-8.675781s3.882813-8.679687 8.675781-8.679687h8.679688c4.792968 0 8.679687 3.886718 8.679687 8.679687s-3.886719 8.675781-8.679687 8.675781zm0 0" fill="#89c053"/><path d="m225.636719 52.066406h-8.679688c-4.792969 0-8.675781-3.882812-8.675781-8.675781s3.882812-8.679687 8.675781-8.679687h8.679688c4.792969 0 8.675781 3.886718 8.675781 8.679687s-3.882812 8.675781-8.675781 8.675781zm0 0" fill="#4fc0e8"/><path d="m182.246094 121.492188h-8.679688c-4.792968 0-8.675781-3.886719-8.675781-8.679688s3.882813-8.675781 8.675781-8.675781h8.679688c4.792968 0 8.679687 3.882812 8.679687 8.675781s-3.886719 8.679688-8.679687 8.679688zm0 0" fill="#b4df80"/><path d="m225.636719 121.492188h-8.679688c-4.792969 0-8.675781-3.886719-8.675781-8.679688s3.882812-8.675781 8.675781-8.675781h8.679688c4.792969 0 8.675781 3.882812 8.675781 8.675781s-3.882812 8.679688-8.675781 8.679688zm0 0" fill="#66d4f1"/><path d="m182.246094 190.914062h-8.679688c-4.792968 0-8.675781-3.882812-8.675781-8.675781s3.882813-8.679687 8.675781-8.679687h8.679688c4.792968 0 8.679687 3.886718 8.679687 8.679687s-3.886719 8.675781-8.679687 8.675781zm0 0" fill="#89c053"/><path d="m225.636719 190.914062h-8.679688c-4.792969 0-8.675781-3.882812-8.675781-8.675781s3.882812-8.679687 8.675781-8.679687h8.679688c4.792969 0 8.675781 3.886718 8.675781 8.679687s-3.882812 8.675781-8.675781 8.675781zm0 0" fill="#4fc0e8"/><path d="m329.769531 52.066406h-26.03125c-4.792969 0-8.679687-3.882812-8.679687-8.675781s3.886718-8.679687 8.679687-8.679687h26.03125c4.792969 0 8.679688 3.886718 8.679688 8.679687s-3.886719 8.675781-8.679688 8.675781zm0 0" fill="#a9b0bb"/><path d="m329.769531 121.492188h-26.03125c-4.792969 0-8.679687-3.886719-8.679687-8.679688s3.886718-8.675781 8.679687-8.675781h26.03125c4.792969 0 8.679688 3.882812 8.679688 8.675781s-3.886719 8.679688-8.679688 8.679688zm0 0" fill="#636c77"/><g fill="#a9b0bb"><path d="m329.769531 190.914062h-26.03125c-4.792969 0-8.679687-3.882812-8.679687-8.675781s3.886718-8.679687 8.679687-8.679687h26.03125c4.792969 0 8.679688 3.886718 8.679688 8.679687s-3.886719 8.675781-8.679688 8.675781zm0 0"/><path d="m364.484375 26.035156v52.066406h-17.355469v-52.066406c-.03125-9.574218-7.785156-17.328125-17.359375-17.355468h17.359375c9.570313.027343 17.324219 7.78125 17.355469 17.355468zm0 0"/><path d="m364.484375 147.527344v66.644531c-5.640625.261719-11.457031.609375-17.355469.78125v-67.425781zm0 0"/></g><path d="m347.128906 78.101562h17.355469v69.425782h-17.355469zm0 0" fill="#979faa"/><path d="m89.332031 89.324219-11.222656 11.21875v-91.863281c0-4.792969-3.882813-8.679688-8.675781-8.679688-4.792969 0-8.679688 3.886719-8.679688 8.679688v91.863281l-11.21875-11.21875c-3.40625-3.289063-8.820312-3.242188-12.167968.105469-3.34375 3.347656-3.394532 8.757812-.105469 12.164062l26.035156 26.03125c1.628906 1.632812 3.839844 2.550781 6.144531 2.550781 2.304688 0 4.515625-.917969 6.144532-2.550781l26.03125-26.03125c3.289062-3.40625 3.242187-8.816406-.105469-12.164062-3.347657-3.347657-8.757813-3.394532-12.164063-.105469zm0 0" fill="#5e9cea"/><path d="m466.078125 89.324219c-3.390625-3.390625-8.882813-3.390625-12.273437 0l-11.21875 11.21875v-91.863281c0-4.792969-3.886719-8.679688-8.679688-8.679688s-8.675781 3.886719-8.675781 8.679688v91.863281l-11.222657-11.21875c-3.40625-3.289063-8.816406-3.242188-12.164062.105469-3.347656 3.347656-3.394531 8.757812-.105469 12.164062l26.035157 26.03125c1.625 1.632812 3.835937 2.550781 6.140624 2.550781 2.308594 0 4.515626-.917969 6.144532-2.550781l26.035156-26.03125c3.382812-3.394531 3.375-8.886719-.015625-12.269531zm0 0" fill="#5e9cea"/></svg>