<svg id="Icons" height="512" viewBox="0 0 60 60" width="512" xmlns="http://www.w3.org/2000/svg"><path d="m23.085 59.47a.5.5 0 0 1 -.266-.924l2.156-1.352-3.826 2.206a.5.5 0 0 1 -.518-.854l8.345-5.312-10.682 6.166a.5.5 0 0 1 -.518-.855l10.018-6.334-11.886 6.864a.5.5 0 0 1 -.515-.856l11.126-6.99-11.771 6.794a.5.5 0 0 1 -.513-.857l7.407-4.584-7.342 4.237a.5.5 0 0 1 -.511-.859l1.755-1.072-1.445.834a.5.5 0 0 1 -.517-.856l15.356-9.7-15.167 8.755a.5.5 0 0 1 -.51-.859l.28-.171a.5.5 0 0 1 -.48-.875l15.216-9.569-15.021 8.672a.5.5 0 0 1 -.517-.855l14.3-9.017-14.1 8.14a.5.5 0 0 1 -.512-.858l5.886-3.641-5.6 3.235a.5.5 0 0 1 -.513-.858l2.3-1.416-2 1.151a.5.5 0 0 1 -.519-.854l9.963-6.354-9.734 5.619a.5.5 0 0 1 -.52-.853l8.31-5.325-8.068 4.658a.5.5 0 0 1 -.523-.853l7.618-4.94-7.377 4.258a.5.5 0 0 1 -.521-.852l4.5-2.905-4.225 2.438a.5.5 0 0 1 -.519-.853l1.562-1-1.247.716a.5.5 0 0 1 -.52-.852l.638-.412-.318.185a.5.5 0 0 1 -.528-.847l3.133-2.1-2.844 1.643a.5.5 0 0 1 -.53-.848l1.53-1.03-1.216.7a.5.5 0 0 1 -.536-.843l1.633-1.137-1.321.762a.5.5 0 0 1 -.558-.826l2.969-2.335-2.7 1.562a.5.5 0 0 1 -.576-.812l1.844-1.595-1.549.894a.5.5 0 0 1 -.661-.717l1.188-1.719-.881.508a.5.5 0 0 1 -.736-.548l.178-.753a.483.483 0 0 1 -.242-.212.5.5 0 0 1 .182-.682l.5-.289a.5.5 0 0 1 .737.548l-.117.492 1.807-1.037a.5.5 0 0 1 .661.717l-1.188 1.718 4.221-2.442a.5.5 0 0 1 .576.811l-1.842 1.596 4.164-2.4a.5.5 0 0 1 .558.826l-2.968 2.324 5.477-3.162a.5.5 0 0 1 .536.843l-1.642 1.143 3.441-1.987a.5.5 0 0 1 .529.848l-1.525 1.028 3.253-1.878a.5.5 0 0 1 .528.848l-3.132 2.1 5.113-2.951a.5.5 0 0 1 .52.853l-.632.408 2.186-1.262a.5.5 0 0 1 .52.854l-1.568 1 3.224-1.86a.5.5 0 0 1 .521.853l-4.506 2.912 6.517-3.762a.5.5 0 0 1 .523.853l-7.616 4.938 10.034-5.793a.5.5 0 0 1 .52.854l-8.309 5.323 10.7-6.179a.5.5 0 0 1 .519.855l-9.959 6.353 12.488-7.21a.5.5 0 0 1 .513.859l-2.314 1.425 3.961-2.286a.5.5 0 0 1 .512.858l-5.867 3.63 7.776-4.49a.5.5 0 0 1 .517.856l-14.3 9.02 15.78-9.109a.5.5 0 0 1 .516.855l-15.23 9.575 14.358-8.289a.5.5 0 0 1 .51.859l-.646.394a.5.5 0 0 1 .414.9l-15.362 9.707 14.438-8.336a.5.5 0 0 1 .51.859l-1.75 1.07.991-.572a.5.5 0 0 1 .512.858l-7.4 4.583 6.592-3.806a.5.5 0 0 1 .515.857l-11.132 6.992 10.259-5.922a.5.5 0 0 1 .518.855l-10.024 6.337 9.158-5.286a.5.5 0 0 1 .518.855l-8.339 5.308 7.482-4.319a.5.5 0 0 1 .515.856l-2.164 1.358 1.391-.8a.5.5 0 0 1 .528.848l-9.19 6.163 8.249-4.762a.5.5 0 0 1 .529.848l-6.083 4.094 5.2-3a.5.5 0 0 1 .542.837l-6.2 4.465 5.238-3.023a.5.5 0 0 1 .56.825l-4.687 3.7 3.689-2.13a.5.5 0 0 1 .593.8l-2.817 2.648 1.782-1.028a.5.5 0 0 1 .61.78l-.823.855a.5.5 0 0 1 .216.932l-2.564 1.465a.5.5 0 0 1 -.61-.779l.611-.635-2.449 1.414a.5.5 0 0 1 -.593-.8l2.813-2.64-5.964 3.44a.5.5 0 0 1 -.56-.825l4.689-3.7-7.832 4.525a.5.5 0 0 1 -.542-.838l6.2-4.463-9.185 5.3a.5.5 0 0 1 -.529-.847l6.081-4.092-8.56 4.94a.5.5 0 0 1 -.528-.847l9.193-6.166-12.148 7.013a.5.5 0 0 1 -.25.07z" fill="#9ebbce"/><path d="m17.037 25.5a.5.5 0 0 1 -.274-.918l12.3-8.07-12.783 7.378a.5.5 0 0 1 -.517-.856l6.49-4.1-5.973 3.447a.5.5 0 0 1 -.518-.855l5.644-3.594-5.126 2.959a.5.5 0 0 1 -.523-.851l7.1-4.649-6.581 3.8a.5.5 0 0 1 -.538-.84l9.043-6.375-8.5 4.91a.5.5 0 0 1 -.543-.838l6.544-4.734-6 3.463a.5.5 0 0 1 -.55-.833l4.441-3.332-3.893 2.244a.5.5 0 0 1 -.541-.838l.623-.447-.082.047a.5.5 0 0 1 -.568-.818l1.621-1.337-1.053.607a.5.5 0 0 1 -.641-.743l1.231-1.555-.59.34a.5.5 0 0 1 -.728-.578l.236-.775a.5.5 0 0 1 -.19-.188.5.5 0 0 1 .182-.682l.5-.289a.5.5 0 0 1 .729.578l-.133.435 1.763-1.013a.5.5 0 0 1 .641.743l-1.231 1.557 3.987-2.3a.5.5 0 0 1 .568.818l-1.623 1.332 3.741-2.159a.5.5 0 0 1 .541.839l-.622.445 2.23-1.287a.5.5 0 0 1 .55.833l-4.443 3.334 7.222-4.17a.5.5 0 0 1 .543.838l-6.539 4.731 9.655-5.574a.5.5 0 0 1 .538.841l-9.044 6.379 12.507-7.224a.5.5 0 0 1 .524.851l-7.1 4.648 9.531-5.5a.5.5 0 0 1 .518.855l-5.65 3.6 7.717-4.46a.5.5 0 0 1 .518.856l-6.48 4.094 6.284-3.628a.5.5 0 0 1 .524.85l-12.306 8.075 11.786-6.8a.5.5 0 0 1 .53.846l-11.393 7.71 10.866-6.273a.5.5 0 0 1 .536.843l-9.27 6.441 8.737-5.044a.5.5 0 0 1 .536.843l-6.039 4.2 5.506-3.183a.5.5 0 0 1 .544.837l-4.879 3.545 4.338-2.5a.5.5 0 0 1 .567.82l-4.126 3.38 3.563-2.058a.5.5 0 0 1 .6.79l-2.4 2.343 1.8-1.04a.5.5 0 0 1 .666.71l-.831 1.245.168-.1a.5.5 0 1 1 .5.865l-2.024 1.169a.5.5 0 0 1 -.666-.71l.832-1.246-3.387 1.958a.5.5 0 0 1 -.6-.79l2.4-2.343-5.433 3.137a.5.5 0 0 1 -.566-.819l4.127-3.38-7.281 4.2a.5.5 0 0 1 -.544-.837l4.875-3.542-7.597 4.386a.5.5 0 0 1 -.535-.843l6.042-4.2-8.739 5.045a.5.5 0 0 1 -.535-.843l9.268-6.44-12.623 7.289a.5.5 0 0 1 -.53-.847l11.4-7.716-14.842 8.567a.494.494 0 0 1 -.25.068z" fill="#35718a"/><path d="m29.232 11.463a.5.5 0 0 1 -.3-.9l4.468-3.358-6.954 4.014a.5.5 0 0 1 -.55-.832l5.2-3.907-7.496 4.32a.5.5 0 0 1 -.529-.848l.562-.376-1.542.89a.5.5 0 0 1 -.551-.832l5.218-3.934-6.965 4.025a.5.5 0 0 1 -.53-.847l.654-.443-1.3.747a.5.5 0 0 1 -.554-.829l3.937-3.012-4.86 2.805a.5.5 0 0 1 -.553-.83l2.161-1.647-2.362 1.363a.5.5 0 0 1 -.606-.784l1.489-1.5-.335.192a.5.5 0 1 1 -.5-.865l3.566-2.06a.5.5 0 0 1 .605.784l-1.487 1.501 5.9-3.407a.5.5 0 0 1 .553.83l-2.157 1.647 4.739-2.736a.5.5 0 0 1 .554.829l-3.931 3.011 6.647-3.837a.5.5 0 0 1 .53.846l-.66.448 2.022-1.167a.5.5 0 0 1 .551.832l-5.215 3.932 7.557-4.362a.5.5 0 0 1 .528.848l-.568.381 1.563-.9a.5.5 0 0 1 .551.832l-5.194 3.902 6.953-4.013a.5.5 0 0 1 .551.832l-4.465 3.357 5.728-3.305a.5.5 0 0 1 .553.83l-3.421 2.6 4.139-2.388a.5.5 0 0 1 .556.828l-1.856 1.436 1.874-1.08a.5.5 0 0 1 .586.8l-.963.874a.5.5 0 0 1 .242.933l-3.565 2.057a.5.5 0 0 1 -.586-.8l.712-.644-4.217 2.435a.5.5 0 0 1 -.555-.829l1.859-1.438-4.539 2.62a.5.5 0 0 1 -.553-.83l3.418-2.6-6.056 3.5a.5.5 0 0 1 -.251.059z" fill="#4184a9"/><path d="m43.848 16.3a.5.5 0 0 1 -.248-.935l.125-.071a.5.5 0 0 1 .5.869l-.125.071a.506.506 0 0 1 -.252.066z" fill="#4184a9"/><path d="m16.183 25.5a.5.5 0 0 1 -.3-.9l.83-.626-.432.249a.5.5 0 0 1 -.606-.784l2.292-2.326-1.686.973a.5.5 0 0 1 -.646-.736l1.247-1.629-.6.346a.5.5 0 0 1 -.648-.735l.335-.44a.5.5 0 0 1 -.408-.663l.288-.819a.473.473 0 0 1 -.078-.039.5.5 0 0 1 -.238-.454l.059-1.041a.452.452 0 0 1 .188-.57l.071-.041a.5.5 0 0 1 .751.46l-.021.359a.5.5 0 0 1 .564.657l-.192.545.504-.286a.5.5 0 0 1 .648.735l-.175.232.624-.36a.5.5 0 0 1 .646.736l-1.247 1.629 2.71-1.565a.5.5 0 0 1 .607.784l-2.292 2.326 4.3-2.484a.5.5 0 0 1 .551.832l-.829.62 2.044-1.179a.5.5 0 0 1 .586.8l-2.33 2.12 4.634-2.675a.5.5 0 0 1 .57.816l-1.543 1.286 3.585-2.068a.5.5 0 0 1 .614.775l-2.349 2.5 6.324-3.651a.5.5 0 0 1 .552.831l-.673.51 3.616-2.087a.5.5 0 0 1 .559.826l-2.243 1.763 6.785-3.916a.5.5 0 0 1 .67.162.5.5 0 0 1 -.129.678l-1.948 1.389 1.411-.814a.5.5 0 0 1 .557.827l-1.977 1.539 1.424-.822a.5.5 0 0 1 .578.81l-1.187 1.031.614-.355a.5.5 0 0 1 .615.774l-.5.534a.5.5 0 0 1 .617.629l-.226.728a.5.5 0 0 1 .185.185.5.5 0 0 1 -.183.682l-.5.289a.5.5 0 0 1 -.728-.581l.119-.381-1.671.964a.5.5 0 0 1 -.615-.774l.464-.5-2.2 1.272a.5.5 0 0 1 -.578-.81l1.187-1.03-3.193 1.843a.5.5 0 0 1 -.556-.827l1.978-1.54-4.105 2.37a.5.5 0 0 1 -.54-.84l1.951-1.393-3.872 2.235a.5.5 0 0 1 -.559-.825l2.244-1.765-4.493 2.593a.5.5 0 0 1 -.552-.831l.667-.505-2.32 1.339a.5.5 0 0 1 -.614-.776l2.35-2.5-5.684 3.281a.5.5 0 0 1 -.57-.817l1.538-1.282-3.649 2.107a.5.5 0 0 1 -.586-.8l2.332-2.115-5.06 2.922a.494.494 0 0 1 -.254.064z" fill="#4184a9"/><path d="m44.848 29.47a.5.5 0 0 1 -.307-.895l.605-.471-2.246 1.296a.5.5 0 0 1 -.6-.786l2.254-2.253-5.272 3.039a.5.5 0 0 1 -.568-.818l1.346-1.109-3.339 1.927a.5.5 0 0 1 -.617-.772l2.327-2.507-5.681 3.279a.5.5 0 0 1 -.567-.819l1.3-1.071-3.27 1.89a.5.5 0 0 1 -.611-.778l2.308-2.415-5.532 3.193a.5.5 0 0 1 -.605-.785l2.264-2.278-5.307 3.063a.5.5 0 0 1 -.659-.144.5.5 0 0 1 .086-.67l1.59-1.347-3.747 2.161a.5.5 0 0 1 -.59-.8l2.071-1.923-4.712 2.723a.5.5 0 0 1 -.61-.78l2.3-2.368-5.459 3.148a.5.5 0 0 1 -.563-.822l1.074-.862-2.92 1.684a.5.5 0 0 1 -.615-.774l2.324-2.477-4.507 2.6a.5.5 0 0 1 -.615-.773l1.716-1.84-1.613.93a.5.5 0 0 1 -.65-.731l.634-.851a.491.491 0 0 1 -.381-.247.5.5 0 0 1 .182-.682l1.656-.955a.5.5 0 0 1 .65.731l-.49.657 2.41-1.39a.5.5 0 0 1 .615.773l-1.716 1.84 4.528-2.611a.5.5 0 0 1 .615.774l-2.323 2.479 5.636-3.253a.5.5 0 0 1 .564.822l-1.074.862 2.92-1.684a.5.5 0 0 1 .609.78l-2.3 2.368 5.458-3.148a.5.5 0 0 1 .59.8l-2.072 1.92 4.717-2.72a.5.5 0 0 1 .573.814l-1.59 1.347 3.745-2.161a.5.5 0 0 1 .605.785l-2.264 2.278 5.307-3.063a.5.5 0 0 1 .611.778l-2.309 2.415 5.533-3.193a.5.5 0 0 1 .567.819l-1.305 1.07 3.274-1.889a.5.5 0 0 1 .616.772l-2.322 2.506 5.682-3.28a.5.5 0 0 1 .569.818l-1.351 1.109 3.339-1.925a.5.5 0 0 1 .6.786l-2.253 2.252 5.239-3.025a.5.5 0 0 1 .556.827l-.606.472 1.268-.731a.5.5 0 0 1 .584.8l-1.277 1.149 1.257-.725a.5.5 0 0 1 .608.084.5.5 0 0 1 .068.612l-.894 1.45a.5.5 0 0 1 .445.893l-1.655.956a.5.5 0 0 1 -.675-.7l.89-1.445-3.713 2.145a.5.5 0 0 1 -.584-.8l1.279-1.146-3.376 1.946a.493.493 0 0 1 -.252.07z" fill="#b0ccdd"/><g fill="#262626"><path d="m44.381 5.584c-.689-7.148-28.363-6.955-28.818.132-.463 5.78-.007 11.869-.162 17.749-2.114.006-4.242-.013-6.348.007-3.169.213-3.6 5.491-.519 6.014q1.8 9.8 3.593 19.593c.8 4.365.337 10.253 5.881 10.462 7.673.29 15.494.19 23.17 0 5.131-.127 5.31-3.219 6.111-7.59q2.063-11.251 4.126-22.506c2.82-.7 3-5.763-.232-5.98h-6.7c-.037-2.865.054-5.868 0-8.655-.094-3.054.185-6.218-.102-9.226zm-21.664-3.252c4.818-.891 18.673-2.071 20.8 3.741-1.5 6.419-24.926 6.182-25.992.167-.501-2.801 2.722-3.346 5.192-3.908zm7.168 9.262c3.267.006 10.913-.156 13.632-3.526v6.606c-1.056 6.8-25.6 7.073-26.918.382v-6.556c2.87 2.9 10.774 3.089 13.286 3.094zm16.507 39.834c-.614 3.348-.355 6.394-4.4 7.031-3.9.615-8.383 0-12.327 0-3.731 0-8.045.624-11.736 0-3.948-.667-3.755-4.264-4.329-7.391q-1.972-10.768-3.947-21.533h40.752q-2.005 10.947-4.013 21.893zm4.7-22.963h-41.909c-2.066-.139-2.386-3.737-.278-3.93h41.912c2.066.139 2.383 3.737.283 3.93zm-7.578-5h-26.914v-6.223c4.389 4.31 22.523 4.549 26.918-.008z"/><path d="m18.474 34.209 3 19c.108.684 1.14.142 1.052-.418l-3-19c-.108-.684-1.14-.142-1.052.418z"/><path d="m40.43 33.814-3 19c-.094.593 1.049.948 1.14.372l3-19c.094-.594-1.049-.949-1.14-.372z"/><path d="m29.551 34.026c.34 1.035-.894 23.368.9 18.948-.342-1.036.892-23.368-.9-18.948z"/></g></svg>