<svg height="499pt" viewBox="0 -61 499.81652 499" width="499pt" xmlns="http://www.w3.org/2000/svg"><path d="m25 377.164062c-1.875 0-3.519531-1.246093-4.03125-3.046874-.515625-1.804688.230469-3.730469 1.824219-4.714844l5.035156-3.089844-11.355469 6.546875c-1.980468 1.203125-4.5625.570313-5.765625-1.410156s-.574219-4.5625 1.410157-5.765625l123.484374-78.269532-123.652343 71.386719c-1.984375 1.09375-4.480469.417969-5.636719-1.527343-1.160156-1.949219-.5625-4.464844 1.347656-5.683594l19.773438-12.121094-15.484375 8.941406c-1.988281 1.132813-4.519531.460938-5.6875-1.507812s-.542969-4.511719 1.40625-5.710938l6.285156-3.855468-2.003906 1.160156c-1.980469 1.074218-4.453125.394531-5.605469-1.539063-1.152344-1.933593-.578125-4.429687 1.308594-5.664062l36.980468-22.863281-32.683593 18.894531c-1.976563 1.042969-4.421875.351562-5.5625-1.566407-1.144531-1.917968-.582031-4.394531 1.273437-5.636718l10.148438-6.226563-5.875 3.359375c-1.972656 1.121094-4.476563.472656-5.660156-1.460937-1.179688-1.9375-.613282-4.460938 1.285156-5.699219l111.105468-71.738281-106.722656 61.554687c-1.972656 1.039063-4.410156.359375-5.558594-1.550781-1.144531-1.910156-.601562-4.382813 1.242188-5.632813l39.207031-24.507812-34.890625 20.144531c-1.988281 1.195313-4.574218.554688-5.773437-1.433593-1.195313-1.988282-.554688-4.570313 1.433593-5.769532l57.199219-36.199218-52.878906 30.515624c-1.96875 1.101563-4.460937.449219-5.632813-1.480468-1.171874-1.933594-.609374-4.445313 1.277344-5.6875l62.609375-39.976563-58.253906 33.625c-1.984375 1.199219-4.5625.558594-5.761719-1.421875-1.195312-1.984375-.558594-4.566406 1.421875-5.765625l34.414063-21.730469-30.054688 17.359376c-1.953125 1.082031-4.410156.445312-5.59375-1.449219-1.183594-1.890625-.675781-4.378907 1.152344-5.660157l95.734375-64.585937-91.292969 52.699219c-1.960937 1.066406-4.410156.414062-5.578125-1.480469-1.171875-1.898437-.652343-4.382813 1.179688-5.652344l62.109375-40.84375-57.71875 33.324219c-1.957032 1.097656-4.429688.460938-5.617188-1.445312-1.183594-1.902344-.664062-4.402344 1.183594-5.671876l64.628906-43.226562-60.1875 34.738281c-1.96875 1.101563-4.449218.449219-5.625-1.46875-1.179687-1.921875-.628906-4.429687 1.242188-5.679687l25.726562-16.703125-21.34375 12.320312c-1.953125 1.097657-4.421875.46875-5.613281-1.425781-1.191406-1.898438-.683594-4.394531 1.15625-5.675781l55.210937-37.644531-50.753906 29.292968c-1.933594 1.109375-4.398437.515625-5.613281-1.355468-1.210937-1.875-.75-4.367188 1.054687-5.675782l66.015626-47.84375-61.457032 35.496094c-1.941406 1.035156-4.351562.402344-5.527344-1.457031-1.175781-1.859375-.714843-4.3125 1.050782-5.621094l32.585937-22.382813-28.109375 16.207032c-1.929687 1.101562-4.382812.515625-5.597656-1.34375-1.21875-1.855469-.777344-4.339844 1.003906-5.664063l46.089844-33.960937-41.496094 23.953125c-1.910156 1.058593-4.3125.472656-5.523437-1.34375-1.210938-1.8125-.828125-4.253907.878906-5.613281l41.027344-31.433594-36.382813 20.984375c-1.929687 1.105469-4.382812.515625-5.597656-1.34375-1.21875-1.855469-.777344-4.339844 1.003906-5.664063l20.875-15.34375-16.28125 9.390625c-1.871094 1.074219-4.25.554688-5.503906-1.203125-1.253906-1.753906-.972656-4.171875.652344-5.59375l32.734375-28.445312-27.882813 16.054687c-1.90625 1.097657-4.339844.539063-5.570312-1.28125-1.234375-1.824219-.851563-4.289062.878906-5.648437l10.304688-8.144532-5.621094 3.242188c-1.828125 1.039062-4.144532.566406-5.417969-1.109375-1.273437-1.671875-1.109375-4.03125.378906-5.515625l18.179688-17.910156-13.140625 7.554687c-1.753906 1.007813-3.980469.621094-5.289063-.921875-1.3125-1.539062-1.335937-3.796875-.058593-5.367187l12.632812-15.46875-7.285156 4.199219c-1.710938.984374-3.875.648437-5.203125-.808594-1.328125-1.457032-1.460938-3.644532-.320313-5.253906l4.640625-6.527344c-1.71875-.308594-3.066406-1.644532-3.390625-3.355469-.320312-1.714844.449219-3.449219 1.9375-4.359375l12.667969-7.3125c1.707031-.984375 3.871094-.648438 5.199219.808594 1.328125 1.457031 1.460937 3.644531.320312 5.253906l-3.355468 4.742188 10.449218-6.027344c1.75-1.039063 3.992188-.652344 5.296875.90625 1.316407 1.542968 1.34375 3.808594.058594 5.378906l-12.683594 15.480469 21.824219-12.589844c1.828125-1.042969 4.144531-.570313 5.417969 1.105469 1.273437 1.675781 1.109375 4.03125-.382813 5.515625l-18.121094 17.835937 27.144532-15.671875c1.902344-1.089843 4.328125-.53125 5.558594 1.285157 1.234374 1.816406.859374 4.273437-.859376 5.640624l-10.296874 8.132813 15.410156-8.886719c1.867187-1.054687 4.230468-.53125 5.476562 1.214844s.976563 4.148438-.625 5.574219l-32.691406 28.453125 43.746094-25.253906c1.925781-1.082032 4.355468-.484376 5.5625 1.363281 1.207031 1.847656.78125 4.3125-.980469 5.644531l-20.875 15.382812 27.070313-15.617187c1.910156-1.058594 4.308593-.472656 5.519531 1.34375 1.210937 1.8125.828125 4.253906-.878907 5.613281l-41.027343 31.441406 50.804687-29.375c1.925782-1.105468 4.378906-.515624 5.597656 1.339844 1.214844 1.859375.777344 4.339844-1.003906 5.667969l-46.082031 34 55.605469-32.0625c1.953125-1.113281 4.433594-.496094 5.632812 1.40625 1.199219 1.898437.6875 4.40625-1.15625 5.6875l-32.542968 22.285156 39.0625-22.546875c1.929687-1.074218 4.359374-.46875 5.5625 1.382813 1.199218 1.851562.761718 4.320312-1.003907 5.644531l-66.015625 47.839844 77.53125-44.761719c1.945313-1.054687 4.378906-.417969 5.558594 1.457031 1.175781 1.875.695312 4.339844-1.101562 5.636719l-55.253907 37.6875 63.613281-36.722656c1.960938-1.082031 4.425782-.429688 5.601563 1.476562 1.171875 1.910157.640625 4.402344-1.210937 5.664063l-25.660157 16.6875 30.828125-17.769532c1.964844-1.164062 4.503906-.546874 5.707032 1.394532 1.207031 1.9375.640624 4.488281-1.273438 5.734375l-64.628906 43.257812 73.191406-42.242187c1.964844-1.117188 4.460938-.480469 5.648438 1.445312 1.183593 1.925782.632812 4.445313-1.25 5.695313l-62.0625 40.792969 69.816406-40.289063c1.953125-1.082031 4.410156-.445313 5.59375 1.449219 1.183594 1.890625.675781 4.378906-1.152344 5.660156l-95.6875 64.578125 107.035156-61.792969c1.28125-.773437 2.882813-.804687 4.195313-.082031 1.3125.726563 2.140625 2.09375 2.167969 3.59375.03125 1.5-.742188 2.898437-2.023438 3.675781l-34.464844 21.820313 39.726563-22.929688c1.976562-1.15625 4.515625-.519531 5.707031 1.4375s.59375 4.507813-1.34375 5.730469l-62.640625 40.003906 69.5-40.121094c1.976563-1.128906 4.492187-.476562 5.671875 1.46875 1.179688 1.945313.589844 4.480469-1.324219 5.707032l-57.074219 36.132812 63.425782-36.609375c1.972656-1.039062 4.410156-.359375 5.558594 1.550781 1.144531 1.910157.601562 4.382813-1.242188 5.632813l-39.265625 24.550781 44.535156-25.71875c1.28125-.78125 2.878907-.824218 4.195313-.105468 1.320312.714843 2.152344 2.082031 2.191406 3.578124.039062 1.5-.726562 2.90625-2.003906 3.6875l-111.128906 71.628907 121-69.882813c1.976562-1.074218 4.449218-.394531 5.601562 1.539063 1.15625 1.933593.578125 4.429687-1.304688 5.664062l-10.003906 6.152344 14.058594-8.109375c1.980469-1.117188 4.492188-.449219 5.660156 1.503906 1.167969 1.953125.566406 4.480469-1.355468 5.699219l-37.117188 22.929687 42.113281-24.339843c1.980469-1.097657 4.476563-.421875 5.636719 1.527343 1.15625 1.945313.558594 4.460938-1.347656 5.679688l-6.3125 3.863281 10.238281-5.875c1.992187-1.1875 4.566406-.535156 5.753906 1.457031 1.1875 1.988282.535157 4.566407-1.457031 5.75l-19.824219 12.15625 22.761719-13.144531c1.972656-1.085937 4.449219-.421875 5.613281 1.503907 1.167969 1.925781.605469 4.429687-1.273437 5.671874l-123.558594 78.351563 84.394531-48.722656c1.992188-1.1875 4.570313-.539063 5.757813 1.453125 1.191406 1.988281.539062 4.566406-1.449219 5.757812l-192.167969 118.546875c-.054687 1.445313-.847656 2.761719-2.101562 3.484375l-55.394532 32.003906c-.648437.378907-1.382812.570313-2.132812.5625zm0 0" fill="#4fc0e8"/><path d="m202.722656 375.722656c-1.863281.003906-3.507812-1.222656-4.035156-3.015625-.527344-1.789062.191406-3.710937 1.761719-4.714843l142.257812-91.324219-146.109375 84.355469c-1.984375 1.097656-4.480468.421874-5.640625-1.527344-1.15625-1.945313-.558593-4.460938 1.351563-5.683594l25.304687-15.527344-21.027343 12.136719c-1.972657 1.042969-4.417969.355469-5.5625-1.5625-1.140626-1.921875-.582032-4.398437 1.273437-5.636719l31.511719-19.40625-27.238282 15.71875c-1.960937 1.039063-4.390624.375-5.546874-1.519531s-.636719-4.359375 1.183593-5.628906l125.707031-81.03125-121.367187 70.09375c-1.972656 1.070312-4.441406.394531-5.597656-1.527344s-.59375-4.414063 1.273437-5.65625l69.800782-43.875-65.46875 37.769531c-1.976563 1.132813-4.492188.480469-5.671876-1.46875-1.179687-1.945312-.59375-4.476562 1.324219-5.707031l83.691407-53.28125-79.378907 45.820313c-1.976562 1.160156-4.515625.519531-5.707031-1.4375-1.191406-1.957032-.59375-4.507813 1.34375-5.730469l78.898438-50.4375-74.535157 43.027343c-1.976562 1.089844-4.460937.417969-5.621093-1.519531-1.164063-1.933593-.585938-4.441406 1.308593-5.675781l88.214844-54.773438c-.214844-.21875-.40625-.460937-.570313-.722656-1.195312-1.9375-.628906-4.472656 1.273438-5.714844l29.136719-19.136718c-.871094-.316406-1.613281-.90625-2.117188-1.679688-1.203125-1.90625-.6875-4.421875 1.167969-5.699218l6.117188-4.195313-5.875 3.355469c-1.929688 1.089844-4.371094.492187-5.578126-1.363282-1.210937-1.855468-.769531-4.328124 1.003907-5.652343l23.058593-16.878907-28.800781 16.617188c-1.933593 1.109375-4.398437.515625-5.609375-1.359375-1.214844-1.871094-.75-4.363281 1.054688-5.675781l18.875-13.636719-24.625 14.21875c-1.902344 1.105469-4.335938.554687-5.578125-1.265625-1.238281-1.816406-.863281-4.285156.859375-5.652344l37.550781-30.039062-47.773437 27.554687c-1.917969 1.089844-4.351563.511719-5.570313-1.324219-1.222656-1.835937-.8125-4.304687.9375-5.648437l29.8125-22.597656-37.660156 21.75c-1.90625 1.128906-4.359375.585937-5.609375-1.242188-1.246094-1.828125-.863282-4.3125.882812-5.675781l37.636719-30.105469-47.886719 27.636719c-1.910156 1.140625-4.382812.589844-5.628906-1.257812-1.242188-1.847657-.828125-4.347657.945312-5.691407l34.507813-26.933593-43.648437 25.179687c-1.917969 1.117187-4.371094.546875-5.601563-1.300781s-.808594-4.335938.960937-5.675782l30.417969-23.105468-38.441406 22.191406c-1.925781 1.089844-4.367187.492188-5.578125-1.363281-1.207031-1.851563-.769531-4.328125 1.003906-5.652344l22.023438-16.097656-28.285156 16.324219c-1.917969 1.101562-4.363282.519531-5.585938-1.324219s-.800781-4.320313.960938-5.660157l29.007812-21.847656-36.664062 21.152344c-1.933594 1.0625-4.367188.441406-5.554688-1.421875-1.191406-1.863281-.730469-4.328125 1.050781-5.636719l9.039063-6.347656-4.859375 2.804688c-1.941407 1.105468-4.402344.5-5.609375-1.375-1.207032-1.878907-.734375-4.371094 1.074218-5.675782l6.714844-4.800781-2.214844 1.277344c-1.878906 1.085937-4.28125.558593-5.53125-1.21875-1.253906-1.777344-.941406-4.21875.722657-5.625l28.511719-24.1875-23.675782 13.679687c-1.847656 1.003906-4.152344.488282-5.394531-1.210937-1.238281-1.695313-1.035156-4.046875.484375-5.503907l21.03125-19.019531-16.121094 9.300781c-1.882812 1.0625-4.265625.519532-5.503906-1.253906-1.238281-1.769531-.925781-4.191406.71875-5.59375l4.3125-3.601562c-1.882812.789062-4.058594.113281-5.160156-1.609375-1.097656-1.71875-.800782-3.980469.703125-5.359375l4.199219-3.859375c-1.636719.578125-3.457032.089843-4.585938-1.226563s-1.332031-3.1875-.511719-4.714844l7.503907-14c-1.980469.839844-4.28125.042969-5.316407-1.84375-1.035156-1.886718-.476562-4.253906 1.296875-5.476562l12.664063-7.3125c1.625-.9296875 3.667969-.671875 5.011719.628906 1.34375 1.300782 1.664062 3.335938.78125 4.988282l-7.546876 14 19.785157-11.375c1.847656-1.027344 4.175781-.519532 5.425781 1.183593 1.253906 1.707031 1.039062 4.078125-.5 5.53125l-3.96875 3.636719 8.089844-4.675781c1.886718-1.105469 4.308594-.574219 5.558594 1.21875 1.253906 1.792969.921874 4.246093-.765626 5.640625l-4.144531 3.457031 8.222657-4.742187c1.847656-1.003907 4.152343-.488282 5.394531 1.210937 1.238281 1.695313 1.035156 4.046875-.484375 5.503906l-21.03125 18.96875 29.753906-17.183593c1.882812-1.09375 4.289062-.566407 5.542969 1.214843 1.25 1.78125.933593 4.226563-.734375 5.628907l-28.535156 24.164062 38.070312-21.984375c1.9375-1.105469 4.402344-.5 5.609375 1.378906 1.207031 1.875.734375 4.367188-1.078125 5.671875l-6.714844 4.800782 10.988282-6.335938c1.941406-1.101562 4.410156-.488281 5.609374 1.394531 1.203126 1.882813.71875 4.375-1.101562 5.671875l-8.996094 6.320313 13.429688-7.761719c1.917968-1.101562 4.363281-.523438 5.582031 1.324219 1.222656 1.84375.804687 4.320312-.960937 5.65625l-29.007813 21.933593 36.648437-21.183593c1.925782-1.089844 4.367188-.492188 5.578126 1.363281 1.207031 1.851562.769531 4.328125-1.003907 5.652344l-22.015625 16.089844 28.261719-16.308594c1.917969-1.117188 4.371094-.546875 5.601563 1.304687 1.230468 1.847657.808593 4.332031-.960938 5.671875l-30.453125 23.148438 38.441406-22.191406c1.910157-1.105469 4.347657-.546876 5.582031 1.28125 1.234376 1.832031.84375 4.300781-.898437 5.660156l-34.511719 26.925781 43.644532-25.179687c1.902343-1.109376 4.335937-.554688 5.578124 1.261718 1.238282 1.816406.863282 4.285156-.859374 5.652344l-37.621094 30.109375 47.84375-27.632813c1.917968-1.089843 4.351562-.511718 5.570312 1.324219 1.222656 1.839844.8125 4.308594-.9375 5.652344l-29.832031 22.601563 37.671875-21.746094c1.898438-1.101563 4.324219-.550782 5.5625 1.261718 1.242188 1.8125.875 4.273438-.835938 5.644532l-37.511718 30.039062 47.742187-27.570312c1.933594-1.109375 4.398438-.515625 5.609375 1.355468 1.214844 1.875.75 4.367188-1.050781 5.675782l-18.902344 13.65625 24.632813-14.214844c1.929687-1.089844 4.371094-.492188 5.578125 1.359375 1.210937 1.855469.769531 4.332031-1.003907 5.65625l-23.023437 16.871094 29.429687-16.996094c1.945313-1.101563 4.414063-.480469 5.609376 1.410156 1.195312 1.886719.699218 4.382813-1.128907 5.671875l-6.234375 4.304688 10.355469-5.972656c1.960937-1.066407 4.410156-.414063 5.578125 1.480468 1.171875 1.898438.652344 4.382813-1.179688 5.652344l-7.199218 4.734375 11.3125-6.53125c1.984375-1.117187 4.492187-.449219 5.660156 1.503906s.566406 4.480469-1.355469 5.699219l-4.648437 2.894531 8.542968-4.933593c1.96875-1.082032 4.4375-.425782 5.605469 1.492187 1.171875 1.914063.621094 4.414063-1.238281 5.664063l-78.773438 50.363281 86.503907-49.933594c1.964843-1.066406 4.425781-.402344 5.585937 1.511719 1.160156 1.914062.617188 4.402344-1.238281 5.65625l-83.742187 53.339844 91.554687-52.878907c1.976563-1.105469 4.476563-.445312 5.644531 1.496094 1.171875 1.941406.589844 4.457031-1.3125 5.691406l-69.765625 43.84375 76.429688-44.121093c1.96875-1.125 4.476562-.476563 5.65625 1.457031 1.183593 1.9375.613281 4.460937-1.285157 5.699219l-125.699218 81.03125 136.367187-78.730469c1.992188-1.1875 4.570313-.535157 5.753907 1.457031 1.1875 1.992188.535156 4.566406-1.453126 5.753906l-31.527343 19.40625 36.269531-20.933594c1.972656-1.042968 4.417969-.351562 5.5625 1.566407 1.140625 1.917969.582031 4.394531-1.273438 5.636719l-25.382812 15.578124 27.488281-15.875c1.28125-.78125 2.878907-.820312 4.195313-.101562s2.152344 2.085938 2.1875 3.585938-.730469 2.902343-2.011719 3.683593l-142.234375 91.304688 15.285156-8.820313c1.992188-1.042968 4.453125-.328125 5.578125 1.617188 1.125 1.949218.515625 4.4375-1.382812 5.640625l-169.597657 97.9375c-.636718.363281-1.359374.554687-2.097656.554687zm0 0" fill="#3aadd9"/><path d="m3.523438 304.929688c0 15.679687-8.472657 59.550781 9.054687 69.261718 19.238281 10.660156 55.917969-22.417968 68.933594-30.601562l105.835937-66.484375c-5.953125 17.628906-.1875 54.257812.839844 71.789062 1.792969 31.308594 19.496094 29.4375 42.234375 17.039063 90.757813-49.453125 176.597656-110.945313 264.148437-165.945313.347657-.199219.652344-.460937.898438-.773437.167969-.105469.324219-.226563.472656-.359375 20.496094-24.820313-46.164062-52.039063-62.625-62.390625l-153.449218-96.382813c-17.894532-11.246093-52.425782-44.558593-76.4375-36.308593-10.777344 3.703124-12.589844 8.511718-15.269532 19.078124-4.449218 24.761719-4.796875 50.089844-1.023437 74.960938l-37.367188-23.5c-33.953125-21.328125-72.261719-55.722656-110.082031-69.164062-18.902344-6.703126-31.917969-.695313-36.164062 18.332031-7.925782 35.488281 0 81.726562 0 117.929687zm196.808593-259.273438c0-14.585938-5.039062-37.125 15.300781-34.714844 10.316407 1.226563 27.699219 17.390625 36.226563 22.761719l144.542969 90.800781 64.226562 40.355469c12.640625 7.941406 38.273438 17.394531 23.695313 35.78125l-208.863281 131.214844c-16.90625 10.628906-63.5625 55.683593-75.128907 24.234375-5.960937-16.226563 0-44.914063 0-62.214844 0-19.882812-3.234375-21.160156 10.128907-31.289062l67.089843-42.144532c10.324219-5.875 26.269531-12.421875 33.222657-21.03125l.046874-.078125c.082032-.074219.15625-.15625.21875-.242187.070313-.066406.1875-.117188.253907-.195313 2.660156-3.03125 3.882812-7.0625 3.355469-11.0625-.753907-9.617187-10.667969-19.144531-23.199219-27.695312-21.90625-15.839844-52.734375-29.925781-62.699219-36.1875l-28.242188-17.742188c-6.714843-11.597656-.175781-47.742187-.175781-60.550781zm-169.699219-34.898438c9.667969.839844 26.21875 16.476563 34.414063 21.628907l60.011719 37.703125 70.5625 44.335937c4.558594 3.253907 9.304687 6.238281 14.210937 8.9375l54.558594 34.289063c2.339844 1.46875 5.40625 3.121094 8.753906 4.925781 4.675781 3.046875 9.359375 6.09375 13.925781 9.28125 1.929688 1.34375 5.195313 3.058594 8.390626 5.039063 7.320312 6.546874 10.988281 14.207031 4.601562 22.996093-.351562.34375-.699219.695313-1.082031 1.03125l-96.871094 60.878907c-2.046875 1.210937-3.953125 2.367187-5.671875 3.566406l-44.585938 28-56.597656 35.566406c-16.359375 10.28125-35.933594 27.765625-54.28125 34.101562-11.75 4.0625-15.359375 19.304688-25.296875-5.824218-2.71875-6.890625 0-20.144532 0-27.441406v-257.039063c0-16.652344-9.433593-64.023437 14.957031-61.976563zm0 0" fill="#262626"/></svg>