<svg height="508pt" viewBox="0 -2 508.9269 508" width="508pt" xmlns="http://www.w3.org/2000/svg"><path d="m65.625 393.296875c-1.875.003906-3.53125-1.214844-4.085938-3.003906-.554687-1.789063.121094-3.730469 1.667969-4.789063l3.105469-2.113281-16.175781 9.300781c-1.964844 1.117188-4.457031.507813-5.6875-1.382812-1.230469-1.894532-.773438-4.417969 1.042969-5.761719l52.90625-38.507813-77.917969 45.046876c-1.976563 1.101562-4.46875.472656-5.683594-1.441407-1.210937-1.910156-.722656-4.433593 1.121094-5.753906l70.03125-48.640625-76.375 44.085938c-2.003907 1.253906-4.652344.644531-5.90625-1.363282-1.257813-2.007812-.648438-4.652344 1.359375-5.910156l63.546875-42.578125-59.355469 34.269531c-1.992188 1.097656-4.492188.441406-5.691406-1.488281-1.195313-1.933594-.667969-4.464844 1.203125-5.757813l61.832031-41.070312-57.34375 33.082031c-1.964844 1.003907-4.363281.34375-5.542969-1.515625-1.179687-1.859375-.75-4.3125.992188-5.660156l87.367187-59.902344-82.773437 47.785156c-1.996094 1.132813-4.527344.488282-5.734375-1.457031-1.210938-1.949219-.664063-4.503906 1.234375-5.789062l66.773437-44.636719-62.292968 35.976562c-1.996094 1.136719-4.535157.484376-5.742188-1.472656-1.203125-1.957031-.640625-4.515625 1.273438-5.789062l46.554687-30.550782-42.109375 24.320313c-1.988281 1.15625-4.53125.527344-5.753906-1.417969-1.222656-1.945312-.6875-4.507812 1.214844-5.800781l71.183593-48.691406-66.644531 38.46875c-1.988281 1.152343-4.53125.527343-5.753906-1.417969s-.6875-4.507812 1.214844-5.800781l60.808593-41.589844-56.269531 32.484375c-1.972656 1.160156-4.507812.554688-5.746094-1.367188-1.238281-1.925781-.742187-4.484374 1.128906-5.800781l65.375-46.683593-60.765624 35.085937c-1.96875 1.164063-4.503907.566406-5.75-1.351563-1.242188-1.914062-.757813-4.472656 1.105468-5.796874l51.039063-37.15625-46.277344 26.71875c-1.933594 1.148437-4.429687.597656-5.699219-1.261719-1.269531-1.859375-.878906-4.382813.894532-5.769531l40.757812-32.554688-32.078125 18.515625c-1.871094 1.148437-4.308594.6875-5.632813-1.066406-1.320312-1.75-1.101562-4.21875.511719-5.707031l21.28125-20.429688c-2.054687.441406-4.128906-.683594-4.878906-2.648438-.75-1.964843.042969-4.183593 1.867187-5.226562l28.554688-16.480469c1.871094-1.144531 4.308594-.683593 5.628906 1.070313 1.324219 1.75 1.101563 4.21875-.511718 5.707031l-20.648438 19.8125 50.644531-29.207031c1.933594-1.117188 4.398438-.558594 5.65625 1.285156 1.261719 1.839844.890625 4.339844-.851562 5.738281l-40.773438 32.542969 67.125-38.714844c1.96875-1.160156 4.5-.566406 5.746094 1.351563s.757813 4.476562-1.105469 5.800781l-51.011718 37.101562 67.363281-38.894531c1.972656-1.15625 4.507812-.554687 5.746093 1.371094 1.238282 1.921875.738282 4.480469-1.128906 5.796875l-65.359375 46.679688 76.578125-44.214844c1.980469-1.101563 4.476563-.460938 5.683594 1.457031 1.210938 1.917969.707031 4.445313-1.144531 5.753906l-60.816407 41.601563 66.5625-38.398438c1.980469-1.101562 4.476563-.464844 5.683594 1.453125 1.207032 1.917969.703125 4.445313-1.144531 5.757813l-71.175781 48.699218 74.742187-43.15625c2.003907-1.199218 4.597657-.566406 5.824219 1.421876 1.222656 1.988281.625 4.589843-1.34375 5.84375l-46.59375 30.523437 46.679688-26.957031c1.996093-1.1875 4.574218-.558594 5.800781 1.414062 1.226562 1.972656.648437 4.5625-1.296875 5.828125l-66.808594 44.597657 64.417969-37.199219c1.984375-1.132813 4.507812-.503907 5.726562 1.429687 1.21875 1.929688.699219 4.480469-1.175781 5.78125l-87.390625 59.957032 79.417969-45.851563c2-1.15625 4.554687-.515625 5.769531 1.445313 1.214844 1.964843.648437 4.539062-1.28125 5.808593l-61.796875 41.070313 52.507812-30.316406c1.992188-1.15625 4.539063-.523438 5.757813 1.433593 1.21875 1.953125.667969 4.519531-1.246094 5.800781l-63.554687 42.554688 54.074218-31.214844c1.980469-1.132812 4.5-.511718 5.726563 1.414063 1.222656 1.921875.714844 4.472656-1.152344 5.78125l-70.03125 48.640625 59.730469-34.5c1.964844-1.117188 4.457031-.511719 5.6875 1.382812 1.230469 1.894532.773438 4.417969-1.042969 5.757813l-52.917969 38.578125 42.667969-24.652344c1.988281-1.152344 4.53125-.523438 5.753907 1.421875 1.222656 1.941406.6875 4.507813-1.214844 5.796875l-6.253906 4.269531c1.640624-.238281 3.273437.484375 4.199218 1.859375 1.238282 1.875.808594 4.390625-.980468 5.75l-15.15625 11.53125 6.527343-3.765625c1.871094-1.144531 4.308594-.683593 5.632813 1.066407 1.320312 1.753906 1.101562 4.222656-.511719 5.710937l-14.398437 13.796875 4.523437-2.609375c1.621094-.929687 3.65625-.699219 5.023437.570313 1.371094 1.269531 1.753907 3.28125.949219 4.964843l-5.871093 12.160157c1.105468.882812 1.703124 2.25 1.59375 3.65625-.105469 1.40625-.898438 2.671874-2.121094 3.375l-5.042969 2.902343c-1.617187.925781-3.648437.691407-5.015625-.574219-1.367188-1.265624-1.753906-3.269531-.957031-4.953124l3.746093-7.851563-23.175781 13.363281c-1.875 1.144532-4.308593.683594-5.632812-1.066406-1.324219-1.753906-1.101563-4.222656.511719-5.710938l14.402343-13.804687-35.617187 20.582031c-1.949219 1.109375-4.421875.519532-5.664063-1.347656-1.242187-1.867188-.824219-4.378906.953125-5.746094l15.214844-11.492187-32.210938 18.585937c-.648437.386719-1.382812.59375-2.132812.605469zm0 0" fill="#d56fac"/><path d="m385.707031 393.441406c-1.871093 0-3.523437-1.21875-4.078125-3.007812-.550781-1.789063.125-3.726563 1.671875-4.78125l22.777344-15.558594-38.640625 22.308594c-1.972656 1.136718-4.492188.523437-5.722656-1.394532-1.230469-1.917968-.734375-4.464843 1.125-5.785156l60.585937-42.828125-60.058593 34.671875c-1.972657 1.121094-4.480469.496094-5.703126-1.417968-1.21875-1.914063-.726562-4.449219 1.121094-5.765626l59.921875-41.925781-59.324219 34.242188c-1.992187 1.070312-4.472656.402343-5.65625-1.527344-1.179687-1.925781-.652343-4.441406 1.203126-5.734375l9.316406-6.058594-7.304688 4.207032c-1.972656 1.121093-4.480468.5-5.703125-1.414063-1.21875-1.914063-.726562-4.453125 1.121094-5.769531l66.824219-46.804688-66.429688 38.347656c-1.992187 1.097657-4.492187.445313-5.691406-1.488281-1.195312-1.933593-.667969-4.464843 1.203125-5.757812l37.953125-25.222657-36.511719 21.078126c-1.976562 1.101562-4.472656.472656-5.683593-1.4375-1.214844-1.914063-.722657-4.4375 1.117187-5.757813l69.496094-48.375-69.121094 39.910156c-1.988281 1.132813-4.515625.496094-5.730469-1.441406-1.210937-1.941406-.679687-4.492187 1.207032-5.785156l53.359374-36.0625-52.34375 30.207031c-1.976562 1.117188-4.488281.488281-5.703124-1.433594-1.214844-1.921875-.710938-4.457031 1.148437-5.765625l64.316406-44.546875-63.753906 36.8125c-1.992187 1.21875-4.589844.609375-5.832031-1.367187-1.246094-1.972657-.671875-4.578125 1.285156-5.851563l53.359375-36.503906-52.449219 30.300781c-1.964844 1.128907-4.46875.523438-5.703125-1.378906s-.761719-4.4375 1.070313-5.773437l66.261718-47.785157-66.125 38.128907c-1.964843 1.144531-4.484374.546874-5.726562-1.359376-1.238281-1.90625-.765625-4.453124 1.078125-5.785156l55.097656-40.175781-54.671875 31.574219c-1.976562 1.105468-4.472656.472656-5.683594-1.4375-1.214843-1.910156-.722656-4.4375 1.117188-5.753906l21.65625-15.027344-16.773438 9.65625c-1.941406 1.125-4.421874.554687-5.675781-1.304688-1.253906-1.859375-.855469-4.371094.914063-5.75l30.429687-23.894531-20.710937 11.945313c-1.894532 1.113281-4.324219.605468-5.613282-1.175782-1.289062-1.777344-1.015624-4.246094.628907-5.699218l17.390625-15.566407c-1.726563-.371093-3.046875-1.765625-3.320313-3.507812-.273437-1.746094.554688-3.476563 2.082031-4.359375l28.554688-16.476563c1.875-1.007812 4.207031-.476562 5.464844 1.242188 1.253906 1.71875 1.046875 4.101562-.480469 5.582031l-13.390625 11.992188 37.257812-21.503907c1.9375-1.097656 4.386719-.519531 5.632813 1.324219s.867187 4.335938-.871094 5.722656l-30.414062 23.894532 53.539062-30.839844c1.976563-1.105469 4.46875-.472656 5.683594 1.4375 1.210937 1.910156.722656 4.4375-1.117187 5.753906l-21.660157 14.996094 35.089844-20.261719c1.964844-1.113281 4.457031-.507813 5.6875 1.386719 1.230469 1.890625.773437 4.417968-1.046875 5.757812l-55.089844 40.183594 69.667969-40.226562c1.964844-1.128907 4.46875-.523438 5.703125 1.378906 1.230469 1.902344.761719 4.4375-1.070312 5.773437l-66.269532 47.785157 76.183594-43.988282c1.988281-1.152344 4.53125-.527344 5.753906 1.417969s.6875 4.507813-1.214844 5.800781l-53.324218 36.488282 57.105468-32.964844c1.980469-1.117188 4.488282-.488282 5.703126 1.433594 1.214843 1.921874.710937 4.457031-1.144532 5.769531l-64.367187 44.578125 66.558593-38.402344c1.988282-1.132812 4.515626-.496094 5.730469 1.445312 1.214844 1.941407.679688 4.492188-1.207031 5.785157l-53.308594 36.027343 52.378906-30.183593c1.980469-1.152344 4.519532-.53125 5.75 1.402343 1.226563 1.9375.703126 4.5-1.1875 5.800782l-69.511718 48.382812 66.5-38.398437c2-1.160157 4.554687-.519531 5.769531 1.445312 1.214844 1.964844.648437 4.535157-1.28125 5.808594l-37.9375 25.171875 33.441406-19.3125c1.980469-1.175781 4.539063-.566406 5.777344 1.378906 1.238281 1.941406.710937 4.519532-1.195313 5.816406l-66.824218 46.8125 62.292968-35.949218c2-1.117188 4.523438-.457032 5.71875 1.496094 1.199219 1.953124.640626 4.5-1.261718 5.773437l-9.304688 6.050781 4.847656-2.789062c1.980469-1.179688 4.539063-.570313 5.777344 1.375 1.238282 1.941406.710938 4.519531-1.195312 5.816406l-59.917969 41.917969 55.335937-31.941407c1.976563-1.136718 4.496094-.523437 5.722657 1.394532 1.230469 1.917968.738281 4.464844-1.121094 5.78125l-60.585937 42.835937 55.96875-32.304687c1.988281-1.152344 4.53125-.527344 5.753906 1.417968 1.222656 1.945313.6875 4.507813-1.214844 5.800782l-22.785156 15.554687 18.246094-10.519531c1.925781-1.070312 4.351562-.5 5.59375 1.320312 1.246093 1.820313.898437 4.285157-.796876 5.691407l-39.691406 31.847656 34.894532-20.136719c1.960937-1.109375 4.441406-.5 5.671874 1.382813 1.226563 1.886719.78125 4.402343-1.023437 5.75l-3.410156 2.492187c1.667969-.339844 3.382812.328125 4.382812 1.707032 1.273438 1.816406.941407 4.304687-.765625 5.726562l-7.144531 5.972656 2.28125-1.308594c1.664063-.957031 3.765625-.683593 5.132813.667969 1.363281 1.355469 1.65625 3.453125.710937 5.128907l-7.160156 12.628906c2.066406-1.011719 4.5625-.203125 5.644531 1.824218 1.078125 2.03125.359375 4.550782-1.632812 5.703126l-13.292969 7.679687c-1.667969.960937-3.769531.691406-5.136719-.660156-1.367188-1.351563-1.660156-3.449219-.71875-5.125l7.152344-12.628907-31.96875 18.457032c-1.917969 1.121094-4.378906.582031-5.652344-1.238282-1.273438-1.824218-.933594-4.320312.78125-5.734374l7.140625-5.972657-22.425781 12.933594c-1.957032 1.085937-4.417969.46875-5.636719-1.40625-1.222656-1.875-.785156-4.375.996094-5.726563l1.859375-1.363281-14.769532 8.53125c-1.929687 1.089844-4.371093.523438-5.621093-1.300781-1.25-1.828125-.898438-4.308594.816406-5.710938l39.695313-31.855468-67.410157 38.917968c-.664062.394532-1.417969.597657-2.1875.589844zm0 0" fill="#f5b945"/><path d="m184.773438 504.230469c-1.878907 0-3.542969-1.226563-4.085938-3.027344-.546875-1.800781.148438-3.746094 1.714844-4.789063l71.355468-47.652343-93.867187 54.171875c-1.988281 1.097656-4.492187.441406-5.6875-1.488282-1.199219-1.933593-.671875-4.464843 1.199219-5.757812l90.597656-59.953125-98.652344 56.96875c-1.996094 1.097656-4.5.433594-5.695312-1.503906-1.191406-1.941407-.648438-4.476563 1.230468-5.757813l86.488282-56.320312-83.628906 48.269531c-2 1.070313-4.492188.386719-5.664063-1.554687-1.171875-1.945313-.617187-4.464844 1.261719-5.738282l38.785156-24.5-34.375 19.847656c-2.015625 1.21875-4.640625.570313-5.855469-1.445312-1.21875-2.019531-.574219-4.640625 1.445313-5.859375l45.644531-28.902344-41.234375 23.800781c-2.003906 1.121094-4.535156.453126-5.726562-1.507812-1.191407-1.964844-.617188-4.515625 1.300781-5.78125l67.105469-43.03125-62.679688 36.179688c-1.996094 1.082031-4.488281.414062-5.675781-1.523438-1.183594-1.9375-.644531-4.464844 1.230469-5.746094l79.496093-51.464844-75.050781 43.324219c-1.992188 1.132813-4.523438.488281-5.734375-1.460937-1.207031-1.945313-.660156-4.5 1.238281-5.785156l107.570313-71.882813-103.074219 59.511719c-2.003906 1.101562-4.523438.425781-5.707031-1.53125-1.183594-1.960938-.613281-4.503906 1.296875-5.765625l37.050781-23.511719-32.640625 18.878906c-2 1.097656-4.511719.429688-5.699219-1.519531s-.632812-4.488281 1.261719-5.761719l58.488281-37.691406-54.050781 31.214844c-1.980469 1.085937-4.464844.4375-5.664062-1.476563-1.203126-1.914062-.699219-4.433593 1.140624-5.742187l96.113282-65.09375-91.589844 52.90625c-2 1.203125-4.597656.570312-5.824219-1.417969-1.222656-1.988281-.625-4.589844 1.34375-5.84375l63.234375-41.65625-58.753906 33.867187c-1.984375 1.097657-4.484375.453126-5.683594-1.472656-1.203125-1.925781-.6875-4.453125 1.171875-5.753906l67.832031-45.75-63.320312 36.550781c-1.984375 1.082031-4.472656.429688-5.667969-1.492187-1.195312-1.921875-.679687-4.445313 1.171875-5.746094l42.480469-28.269531-37.984375 21.929687c-1.980469 1.132813-4.507812.503906-5.726562-1.425781-1.21875-1.933594-.699219-4.484375 1.179687-5.785156l42.214844-28.953125-36.644531 21.15625c-1.992188 1.132812-4.523438.488281-5.734376-1.460938-1.207031-1.949218-.660156-4.503906 1.238282-5.785156l4.957031-3.304688c-1.96875.613282-4.09375-.273437-5.046875-2.105468-.953125-1.832032-.457031-4.078125 1.175781-5.34375l34.984375-27.203125-21.015625 12.132812c-1.929687 1.128907-4.398437.578125-5.664062-1.261719-1.269531-1.835937-.90625-4.339843.832031-5.742187l17.066406-13.839844c-1.25-.804687-1.992187-2.207031-1.957031-3.695312s.847656-2.851563 2.136719-3.59375l30.722656-17.707031c1.925781-1.105469 4.375-.546876 5.636719 1.285156 1.257812 1.828125.902343 4.316406-.816407 5.722656l-5.660156 4.597656 28.160156-16.210937c1.941407-1.101563 4.402344-.523438 5.648438 1.324219 1.246094 1.851562.855469 4.347656-.894531 5.730468l-34.984375 27.238282 59.296875-34.292969c1.992187-1.136719 4.523437-.492188 5.734375 1.457031 1.210937 1.949219.664062 4.503906-1.238282 5.785156l-3.523437 2.347656 16.589844-9.589843c1.984375-1.179688 4.546875-.5625 5.78125 1.390625 1.234375 1.949218.691406 4.53125-1.226563 5.816406l-42.1875 28.929688 59-34.066407c1.996094-1.183593 4.574219-.554687 5.800782 1.417969 1.226562 1.972656.652343 4.5625-1.296876 5.828125l-42.488281 28.226563 52.90625-30.546876c2-1.25 4.632813-.640624 5.882813 1.355469 1.246094 2 .640625 4.632813-1.359375 5.878907l-67.839844 45.757812 77.882813-44.972656c2-1.15625 4.554687-.515625 5.769531 1.445312 1.214843 1.964844.648437 4.539063-1.277344 5.808594l-63.242187 41.730469 69.582031-40.175781c1.988281-1.132813 4.515625-.496094 5.726562 1.441406 1.214844 1.941406.683594 4.492187-1.207031 5.785156l-96.101562 65.042969 102.785156-59.324219c2.011718-1.230469 4.640625-.59375 5.867187 1.417969 1.226563 2.015625.589844 4.640625-1.421875 5.867187l-58.488281 37.675782 60.441406-34.894532c2.003907-1.082031 4.503907-.40625 5.683594 1.539063 1.179687 1.945312.625 4.476562-1.261719 5.75l-37.144531 23.527343 36.417969-21.027343c1.992187-1.132813 4.527344-.488281 5.734375 1.457031 1.210937 1.949219.664062 4.503906-1.234375 5.789062l-107.605469 71.882813 107.210937-61.898437c2-1.117188 4.523438-.457032 5.71875 1.496093 1.195313 1.949219.636719 4.5-1.265624 5.773438l-79.460938 51.445312 76.304688-44.046875c1.996093-1.070312 4.480468-.390625 5.660156 1.542969 1.175781 1.933594.636718 4.453125-1.230469 5.734375l-67.074219 43.035156 62.679688-36.183594c2.003906-1.101562 4.523437-.425781 5.707031 1.53125 1.183594 1.960938.613281 4.503907-1.296875 5.765626l-45.644531 28.910156 41.234375-23.796875c2-1.070313 4.492187-.386719 5.664062 1.558593 1.171875 1.941407.617188 4.464844-1.261718 5.738282l-38.84375 24.523437 34.449218-19.882812c2-1.117188 4.523438-.457031 5.71875 1.496093 1.195313 1.953126.636719 4.5-1.265625 5.773438l-86.527343 56.320312 82.074218-47.375c1.988282-1.101562 4.492188-.445312 5.6875 1.488282 1.199219 1.929687.671875 4.460937-1.199218 5.753906l-90.53125 59.949219 86.042968-49.675781c1.984375-1.082032 4.472656-.429688 5.667969 1.496093 1.195313 1.921875.679687 4.441407-1.171875 5.742188l-71.378906 47.667969 66.882812-38.605469c1.972656-1.109375 4.464844-.484375 5.683594 1.421875 1.21875 1.902344.738281 4.429687-1.09375 5.753906l-71.199219 50.347656 66.609375-38.453125c1.972656-1.15625 4.507813-.550781 5.746094 1.371094s.742188 4.480469-1.128906 5.796875l-47.386719 33.871094 42.769531-24.695313c1.972656-1.109375 4.464844-.484375 5.683594 1.417969 1.21875 1.90625.738281 4.429688-1.09375 5.757812l-20.554688 14.507813 15.964844-9.21875c1.917969-1.117187 4.371094-.578125 5.644532 1.238281 1.273437 1.816406.941406 4.304688-.761719 5.726563l-29.765625 24.976562 24.882812-14.363281c1.820313-1.035156 4.121094-.597656 5.433594 1.035156 1.3125 1.628906 1.25 3.972656-.152344 5.527344l-16.613281 18.195312 11.332031-6.539062c1.777344-1.015625 4.03125-.621094 5.359375.9375 1.332031 1.554688 1.367188 3.839844.085938 5.4375l-4.464844 5.523438c1.578125.546874 2.6875 1.964843 2.84375 3.625.160156 1.660156-.664063 3.261718-2.109375 4.097656l-13.773438 7.953125c-1.777343 1.023437-4.039062.636719-5.371093-.925781-1.335938-1.558594-1.371094-3.851563-.082031-5.449219l1.878906-2.320313-15.265625 8.839844c-1.820313 1.035156-4.121094.597656-5.433594-1.035156-1.3125-1.628906-1.25-3.972656.152344-5.527344l16.570312-18.183594-42.863281 24.746094c-1.914062 1.09375-4.34375.550781-5.609375-1.253906-1.265625-1.804688-.949219-4.273438.726563-5.703125l29.765624-25.050781-55.464843 32.007812c-1.96875 1.070312-4.429688.441406-5.636719-1.445312-1.207031-1.886719-.753906-4.386719 1.042969-5.722657l20.566406-14.507812-37.546875 21.683593c-1.972656 1.15625-4.507812.554688-5.746094-1.371093-1.238281-1.921875-.738281-4.480469 1.128906-5.796875l47.414063-33.878906-71.136719 41.039062c-1.964844 1.070312-4.425781.441406-5.632812-1.445312-1.210938-1.886719-.753906-4.386719 1.042968-5.722657l71.183594-50.347656-99.589844 57.515625c-.640624.382812-1.367187.589844-2.109374.605469zm0 0" fill="#4fc0e8"/><path d="m261.046875 161.984375c-1.820313 0-3.4375-1.152344-4.03125-2.871094-.597656-1.71875-.035156-3.625 1.390625-4.75l9.601562-7.535156-23.953124 13.832031c-1.929688 1.132813-4.40625.582032-5.675782-1.261718-1.269531-1.84375-.894531-4.355469.855469-5.753907l38.007813-30.769531-53.453126 30.882812c-1.96875 1.160157-4.503906.566407-5.746093-1.351562-1.246094-1.917969-.757813-4.476562 1.101562-5.800781l32.914063-23.890625-39.578125 22.859375c-1.972657 1.136719-4.492188.523437-5.722657-1.394531-1.230468-1.917969-.734374-4.464844 1.125-5.78125l31.316407-22.1875-35.292969 20.378906c-1.984375 1.207031-4.574219.601562-5.820312-1.359375-1.246094-1.960938-.691407-4.5625 1.246093-5.84375l28.6875-20.003907-30.898437 17.851563c-1.972656 1.121094-4.480469.5-5.703125-1.414063-1.21875-1.914062-.726563-4.453124 1.121093-5.769531l31.574219-22.1875-31.675781 18.347657c-1.945312 1.140624-4.445312.570312-5.703125-1.304688s-.835937-4.402344.957031-5.769531l50.773438-39.144531-49.492188 28.570312c-1.9375 1.132812-4.417968.570312-5.679687-1.285156-1.261719-1.851563-.871094-4.367188.890625-5.753906l41.660156-33.023438-35.359375 20.378906c-1.96875 1.125-4.472656.519532-5.707031-1.382812-1.230469-1.902344-.761719-4.4375 1.070312-5.769532l7.816406-5.65625c-1.523437.125-3.007812-.550781-3.914062-1.785156-1.273438-1.796875-.96875-4.265625.699219-5.699218l15.207031-13.046876c-1.46875-.652343-2.449219-2.070312-2.535156-3.671874-.085938-1.605469.734375-3.121094 2.125-3.925782l28.507812-16.449218c1.910156-1.101563 4.335938-.566407 5.609375 1.226562 1.273438 1.796875.972657 4.265625-.691406 5.699219l-8.023437 6.898437 27.058593-15.660156c1.960938-1.089844 4.433594-.476562 5.65625 1.40625 1.21875 1.882812.773438 4.390625-1.019531 5.734375l-4.890625 3.550781 14.421875-8.320312c1.933594-1.109375 4.398438-.539063 5.648438 1.308594 1.253906 1.84375.875 4.34375-.871094 5.730468l-41.632813 33.015625 54.5625-31.503906c1.941407-1.117187 4.421875-.535156 5.667969 1.328125s.839844 4.375-.933594 5.746094l-50.765625 39.144531 59.503907-34.355469c1.980468-1.179687 4.539062-.570312 5.777343 1.375 1.238281 1.945313.707031 4.519532-1.195312 5.816406l-31.574219 22.1875 34.347656-19.832031c1.980469-1.136719 4.5-.511719 5.722656 1.410157 1.226563 1.925781.71875 4.472656-1.148437 5.785156l-28.699219 20 28.808594-16.640625c1.980469-1.203125 4.5625-.605469 5.8125 1.347656 1.25 1.949219.710938 4.542969-1.210938 5.839844l-31.316406 22.1875 30.121094-17.402344c1.96875-1.160156 4.503906-.566406 5.746094 1.351563 1.246094 1.917968.757812 4.476562-1.105469 5.800781l-32.910156 23.894531 29.769531-17.203125c1.933594-1.132813 4.410156-.582031 5.675781 1.261719 1.269531 1.84375.898438 4.355468-.851562 5.75l-38.027344 30.78125 29.152344-16.828125c1.941406-1.125 4.417969-.554688 5.675781 1.304687 1.253906 1.859375.855469 4.375-.914062 5.753906l-11.871094 9.300782c1.992187-.164063 3.832031 1.074218 4.425781 2.984375.59375 1.90625-.21875 3.972656-1.949219 4.96875l-48.136718 27.800781c-.652344.367188-1.386719.558594-2.132813.546875zm0 0" fill="#66d4f1"/><path d="m88.289062 119.128906c-1.792968-.003906-3.390624-1.121094-4.003906-2.804687-.613281-1.679688-.113281-3.566407 1.253906-4.722657l26.308594-22.1875-40.0625 23.128907c-1.96875 1.125-4.472656.519531-5.707031-1.382813-1.230469-1.902344-.761719-4.4375 1.074219-5.769531l12.882812-9.300781-17.203125 9.957031c-1.980469 1.117187-4.488281.488281-5.703125-1.433594s-.710937-4.457031 1.148438-5.769531l1.089844-.757812-2.773438 1.605468c-1.957031 1.15625-4.476562.578125-5.730469-1.320312-1.253906-1.894532-.800781-4.441406 1.03125-5.789063l31.179688-23.425781-33.742188 19.484375c-1.960937 1.105469-4.441406.5-5.671875-1.386719-1.226562-1.886718-.78125-4.402344 1.023438-5.75l24.933594-18.34375-24.535157 14.164063c-1.960937 1.117187-4.453125.511719-5.6875-1.382813-1.230469-1.894531-.769531-4.417968 1.046875-5.757812l16.570313-12-13.488281 7.730468c-1.960938 1.152344-4.480469.5625-5.730469-1.335937-1.246094-1.902344-.785157-4.449219 1.050781-5.789063l12.265625-9.0625-6.273437 3.617188c-1.835938 1.0625-4.171876.617188-5.484376-1.050781-1.316406-1.664063-1.207031-4.039063.253907-5.578125l19.882812-21.007813-.375.210938c-1.320312.777343-2.957031.78125-4.285156.019531s-2.144531-2.175781-2.140625-3.707031.828125-2.945313 2.15625-3.699219l25.710938-14.851562c1.835937-1.058594 4.175781-.613282 5.488281 1.054687 1.3125 1.664063 1.203125 4.039063-.253907 5.578125l-19.875 21.015625 45.710938-26.402344c1.960938-1.148437 4.480469-.5625 5.730469 1.339844 1.246093 1.902344.785156 4.445313-1.054688 5.789063l-12.191406 9.070312 19.054687-11.007812c1.96875-1.164063 4.5-.566407 5.746094 1.351562 1.246094 1.914062.757813 4.472656-1.105468 5.796875l-16.5625 12.03125 21.027343-12.140625c1.960938-1.132812 4.464844-.535156 5.707031 1.359375 1.238282 1.898437.777344 4.433594-1.050781 5.773437l-24.964843 18.332032 27.9375-16.128906c1.957031-1.160157 4.476562-.578126 5.730468 1.316406 1.253906 1.898437.800782 4.441406-1.03125 5.789062l-31.1875 23.433594 32.425782-18.710938c1.980468-1.121093 4.488281-.488281 5.703124 1.433594 1.214844 1.917969.710938 4.457032-1.144531 5.765625l-1.632812 1.128907c2.007812-.785157 4.285156.046874 5.308593 1.941406 1.023438 1.894531.476563 4.257812-1.277343 5.507812l-12.886719 9.300782 9.488281-5.480469c1.914063-1.089844 4.34375-.546875 5.609375 1.253906 1.265625 1.804687.949219 4.273437-.726562 5.703125l-26.277344 22.152344 17.339844-10.011719c1.878906-1.003906 4.210937-.476563 5.464844 1.246094 1.257812 1.71875 1.050781 4.101562-.480469 5.582031l-12.800781 11.453125c1.496093.625 2.511718 2.042969 2.613281 3.660156.105469 1.617188-.714844 3.15625-2.117188 3.96875l-25.695312 14.839844c-1.894531 1.109375-4.324219.601563-5.613281-1.179687-1.289063-1.777344-1.015626-4.246094.632812-5.699219l6.699219-5.972657-23.605469 13.652344c-.652344.378906-1.394531.570313-2.148438.5625zm0 0" fill="#f199ce"/><path d="m422.828125 118.769531c-1.714844 0-3.261719-1.023437-3.929687-2.601562-.667969-1.578125-.324219-3.402344.867187-4.632813l22.074219-22.777344-46.746094 27.007813c-1.933594 1.125-4.40625.566406-5.667969-1.285156-1.261719-1.847657-.878906-4.355469.875-5.746094l29.011719-23.117187-38.398438 22.1875c-1.96875 1.128906-4.472656.523437-5.707031-1.378907-1.230469-1.902343-.761719-4.4375 1.070313-5.769531l18.367187-13.3125-22.050781 12.652344c-1.941406 1.109375-4.410156.53125-5.65625-1.324219-1.25-1.859375-.851562-4.363281.910156-5.738281l37.292969-28.957032-40.578125 23.425782c-1.933594 1.125-4.40625.5625-5.667969-1.285156-1.261719-1.847657-.878906-4.355469.871094-5.746094l38.460937-30.609375-38.117187 22.074219c-1.921875 1.128906-4.390625.589843-5.664063-1.238282-1.273437-1.828125-.925781-4.328125.800782-5.742187l32.917968-27.304688-27.601562 15.890625c-1.835938 1.046875-4.160156.597656-5.46875-1.0625-1.308594-1.65625-1.207031-4.019531.234375-5.5625l19.976563-21.160156-.460938.261719c-1.320312.777343-2.953125.78125-4.28125.019531s-2.144531-2.175781-2.140625-3.707031.824219-2.945313 2.15625-3.699219l25.710937-14.851562c1.835938-1.058594 4.171876-.613282 5.484376 1.054687 1.316406 1.664063 1.207031 4.039063-.253907 5.578125l-19.96875 21.152344 45.894531-26.503906c1.917969-1.105469 4.367188-.558594 5.632813 1.261718 1.269531 1.816406.929687 4.304688-.777344 5.71875l-32.9375 27.332032 44.199219-25.515626c1.933594-1.101562 4.390625-.53125 5.640625 1.308594 1.253906 1.835938.882813 4.332032-.851563 5.722656l-38.449218 30.621094 44.925781-25.941406c1.945313-1.132812 4.433594-.5625 5.6875 1.304688 1.257813 1.867187.847656 4.386718-.933594 5.757812l-37.273437 28.945312 39.421875-22.757812c1.96875-1.128906 4.472656-.519531 5.707031 1.382812 1.230469 1.902344.761719 4.433594-1.070312 5.769532l-18.367188 13.304687 16.214844-9.386719c1.933594-1.125 4.410156-.566406 5.667968 1.28125 1.261719 1.851563.878907 4.359376-.871093 5.75l-29.015625 23.125 23.964844-13.832031c1.839843-1.066406 4.1875-.609375 5.496093 1.070313 1.308594 1.679687 1.179688 4.0625-.300781 5.59375l-22.007812 22.773437 4.207031-2.441406c2.042969-1.175781 4.652343-.476563 5.832031 1.566406s.476562 4.65625-1.566406 5.832031l-30.660156 17.707032c-.648438.371094-1.386719.5625-2.132813.554687zm0 0" fill="#ffd67b"/><g fill="#262626"><path d="m252.230469 163.648438c.144531-.011719.289062-.03125.433593-.0625.382813.074218.773438.113281 1.160157.121093 40.015625-2.148437 74.683593-31.511719 75.027343-73.480469-.453124-40.191406-33.101562-72.566406-73.292968-72.6875-38.179688-.121093-70.488282 28.164063-75.417969 66.023438-4.890625 43.691406 30.171875 77.824219 72.089844 80.085938zm.800781-136.097657c79.359375.484375 83.304688 121.453125 2.339844 126.429688-29.589844-.828125-54.894532-21.515625-61.585938-50.347657-4.105468-18.21875.164063-37.316406 11.636719-52.046874 11.472656-14.734376 28.941406-23.554688 47.609375-24.035157zm0 0"/><path d="m67.304688 393.347656h69.367187c-.539063 26.625-1.09375 53.351563.511719 79.691406 1.238281 20.40625 5.308594 28.527344 26.777344 30.472657 35.695312 3.234375 73.214843 0 109.046874 0 23.296876 0 52.183594 4.804687 75.09375-.273438 22.1875-4.929687 23.304688-18.457031 23.3125-38.289062 0-24.398438 0-48.796875 0-73.195313h67.703126c14.652343 0 34.988281 3.871094 49.324218-.632812 17.972656-5.667969 18.328125-12.261719 19.507813-29.167969 2.199219-31.316406 0-63.554687 0-94.957031 0-23.535156 3.414062-50.917969-7.679688-72.535156-15.832031-30.675782-45.101562-37.675782-76.476562-38.09375-47.703125-.636719-101.546875 10.832031-106.863281 66.210937-26.453126-9.984375-56.765626-7.304687-85.75-7.304687-13.476563.808593-26.726563 3.851562-39.203126 9.003906-3.207031-61.441406-62.625-72.984375-113.921874-69.503906-59.1875 4.050781-77.457032 47.265624-77.457032 99.992187v94.949219c0 11.804687-3.539062 30.722656 6.597656 39.347656 12.59375 10.753906 45.945313 4.285156 60.109376 4.285156zm422.664062-190.59375c13.097656 31.277344 5.613281 76.171875 5.613281 109.039063 1.027344 18.625 1.027344 37.289062 0 55.910156-2.019531 17.863281-3.410156 16.941406-19.753906 19.097656-33.585937 4.449219-70.324219.207031-104.421875 0v-39.25c0-37.726562 3.804688-77.082031-25.410156-106.300781-5.128906-5.125-10.925782-9.53125-17.238282-13.097656.28125-77.433594 132.691407-93.519532 161.210938-25.398438zm-133.972656 80.164063c7.449218 26.957031 3.054687 59.945312 3.054687 87.382812 0 33.023438 5.121094 70.152344 0 102.738281-5.121093 32.429688-28.449219 23.894532-57.105469 23.894532h-117.300781c-28.066406 0-35.105469-10.964844-35.105469-37.394532 0-18.394531-1.894531-42.546874-2.941406-68.394531 2.925782-2.257812 4.1875-5.417969-.222656-5.800781-2.5625-73.558594 3.371094-158.257812 79.863281-163.40625 52.121094-.023438 112.605469-1.125 129.757813 60.980469zm-342.035156-66.867188c14.6875-79.914062 165.675781-70.246093 165.828124 14.507813-14.445312 8.492187-26.066406 21.050781-33.414062 36.113281-13.046875 26.664063-9.191406 59.058594-9.191406 87.890625 0 10.171875-.164063 20.394531-.359375 30.644531h-91.519531c-16.339844 0-26.640626 2.800781-32.246094-15.796875-4.265625-14.265625 0-36.640625 0-51.472656 0-32.628906-5.035156-69.570312.902344-101.886719zm0 0"/><path d="m91.503906 119.324219c.804688.246093 1.648438.332031 2.484375.25 30.71875-1.65625 60.183594-20.730469 63.753907-53.609375 1.53125-16.507813-3.996094-32.894532-15.21875-45.097656-11.21875-12.207032-27.082032-19.09375-43.664063-18.953126-30.542969-.550781-57.136719 20.753907-63.265625 50.679688-5.964844 36.226562 21.847656 63.675781 55.910156 66.730469zm2.484375-110.683594c62.292969-1.035156 70.511719 100.691406 4.878907 104.207031-61.523438-3.308594-71.199219-103.105468-4.878907-104.207031zm0 0"/><path d="m410.097656 120.988281c.144532 0 .289063-.050781.433594-.050781.386719.074219.777344.113281 1.167969.121094 33.042969-1.785156 61.910156-25.992188 62.21875-60.699219-.378907-33.152344-27.335938-59.84375-60.492188-59.894531-31.671875-.183594-58.535156 23.214844-62.695312 54.613281-1.457031 16.753906 4.105469 33.359375 15.359375 45.855469s27.191406 19.757812 44.007812 20.054687zm.800782-110.589843c63.019531.28125 66.621093 96.808593 2.320312 100.886718-23.613281-.71875-43.769531-17.277344-49.066406-40.300781-3.296875-14.4375.035156-29.59375 9.082031-41.320313 9.046875-11.726562 22.863281-18.792968 37.664063-19.265624zm0 0"/></g></svg>