<svg height="508pt" viewBox="0 -3 508.25503 508" width="508pt" xmlns="http://www.w3.org/2000/svg"><path d="m254.648438 426.265625c-1.886719 0-3.546876-1.238281-4.085938-3.046875-.539062-1.804688.171875-3.75 1.746094-4.785156l109.96875-71.953125-133.074219 76.800781c-2 1.066406-4.484375.390625-5.660156-1.542969-1.175781-1.9375-.636719-4.453125 1.230469-5.738281l117.488281-75.339844-134.488281 77.652344c-2.007813 1.074219-4.5.382812-5.671876-1.570312-1.167968-1.953126-.597656-4.480469 1.296876-5.742188l54.613281-33.867188-64.292969 37.121094c-2.023438 1.207032-4.644531.546875-5.851562-1.476562-1.210938-2.027344-.550782-4.648438 1.476562-5.855469l49.421875-30.480469-56.933594 32.871094c-2.007812 1.105469-4.535156.425781-5.714843-1.542969-1.183594-1.96875-.59375-4.519531 1.328124-5.769531l84.949219-52.960938-94.375 54.488282c-2.011719 1.105468-4.539062.425781-5.71875-1.542969-1.179687-1.96875-.59375-4.519531 1.332031-5.773437l96.425782-60.253907-104.730469 60.476563c-2.015625 1.21875-4.640625.570312-5.859375-1.445313-1.214844-2.015625-.570312-4.640625 1.449219-5.859375l124.210937-78.367187-134.230468 77.488281c-2.003907 1.121094-4.535157.453125-5.726563-1.507812-1.195313-1.960938-.621094-4.515626 1.296875-5.777344l155.152344-99.414063-166.246094 95.972657c-2.023438 1.207031-4.640625.542968-5.847656-1.480469-1.207032-2.023438-.542969-4.640625 1.480468-5.847657l41.027344-25.140624-45.515625 26.273437c-2 1.085937-4.5.410156-5.679687-1.539063-1.183594-1.945312-.628906-4.472656 1.257812-5.746093l144.257813-91.5625-152.867188 88.257812c-2.007812 1.128907-4.550781.453125-5.738281-1.519531-1.191406-1.972656-.597656-4.53125 1.335938-5.785156l122.554687-76.917969-129.5 74.769531c-2.023437 1.152344-4.597656.472656-5.785156-1.53125s-.550781-4.585937 1.433593-5.808594l4.964844-3.019531-7.269531 4.1875c-2.011719 1.046875-4.488281.339844-5.640625-1.609375-1.15625-1.949218-.585938-4.457031 1.296875-5.71875l6.355469-3.867187-8.695313 5c-2.007812 1.128906-4.550781.457031-5.738281-1.519531-1.191406-1.972657-.597656-4.53125 1.335938-5.78125l117.992187-73.933594-123.667969 71.390625c-2.011718 1.074219-4.515625.375-5.679687-1.585938-1.164063-1.960937-.578125-4.496093 1.328125-5.746093l16.085937-9.8125-18.175781 10.53125c-1.3125.789062-2.945312.816406-4.28125.078124-1.339844-.742187-2.183594-2.140624-2.210938-3.671874-.027343-1.527344.761719-2.957032 2.070313-3.746094l123.546875-77.738282-129.050781 74.511719c-2.003907 1.121094-4.535157.453125-5.726563-1.507812-1.191406-1.960938-.617187-4.515625 1.300782-5.78125l151.261718-96.910157-158.210937 91.304688c-1.96875.890625-4.296875.167969-5.410157-1.6875-1.117187-1.855469-.667968-4.25 1.042969-5.574219l56.804688-34.984375-59.210938 34.132813c-2.015625 1.222656-4.640625.582031-5.863281-1.433594s-.582031-4.640625 1.433594-5.863281l128.214844-81.484375-133.300782 76.945312c-2.003906 1.140625-4.550781.480469-5.75-1.484375-1.203125-1.96875-.625-4.535156 1.304688-5.796875l141.277344-91.125-147.019532 84.878907c-2.007812 1.074218-4.503906.382812-5.671875-1.570313s-.601562-4.480469 1.292969-5.742187l42.855469-26.503907-43.519531 25.097657c-2 1.117187-4.523438.457031-5.71875-1.496094-1.199219-1.953125-.640626-4.5 1.261718-5.777344l124.535156-80.671875-101.542968 58.648437c-2 1.160157-4.554688.519532-5.769532-1.445312-1.214843-1.964844-.648437-4.535156 1.277344-5.808594l97.28125-64.398437-61.269531 35.371093c-1.957031 1.121094-4.453125.523438-5.6875-1.367187-1.238281-1.886719-.789063-4.414063 1.019531-5.761719l63.371094-46.726562c-1.5625-.003906-3.007812-.808594-3.832031-2.132813-1.171875-2.039062-.476563-4.640625 1.558593-5.820312l60.390626-34.867188c1.960937-1.121093 4.453124-.523437 5.691406 1.363281 1.238281 1.890626.789062 4.414063-1.023438 5.761719l-59.730468 44.03125 115.589843-66.824219c1.992188-1.097656 4.492188-.445312 5.691407 1.488282 1.195312 1.933594.667968 4.464844-1.203126 5.757812l-97.277343 64.425782 123.988281-71.578126c2-1.117187 4.523438-.457031 5.71875 1.496094s.636719 4.5-1.265625 5.773438l-124.464844 80.71875 145.277344-83.875c2.003906-1.042969 4.476563-.34375 5.636719 1.597656 1.15625 1.9375.601562 4.445312-1.265625 5.714844l-42.71875 26.402344 52.222656-30.121094c1.996094-1.082032 4.492187-.414063 5.675781 1.523437 1.1875 1.9375.644532 4.464844-1.226562 5.746094l-141.3125 91.160156 157.175781-90.726562c2.007813-1.144531 4.566406-.484375 5.765625 1.496093 1.199219 1.976563.601562 4.550782-1.347656 5.800782l-128.339844 81.535156 140.679688-81.210938c2.015624-1.132812 4.570312-.457031 5.757812 1.527344 1.1875 1.988282.574219 4.558594-1.378906 5.796875l-56.59375 34.890625 62.855468-36.28125c2.003907-1.121094 4.535157-.457031 5.730469 1.507813 1.191407 1.960937.617188 4.515625-1.300781 5.777343l-151.296875 96.921876 163.378906-94.320313c1.304688-.785156 2.933594-.820313 4.265625-.082031 1.335938.734375 2.175782 2.128906 2.207032 3.652344.03125 1.523437-.753907 2.949218-2.058594 3.734374l-123.503906 77.707032 131.917968-76.160156c2.023438-1.207032 4.644532-.539063 5.847656 1.488281 1.203126 2.027343.539063 4.644531-1.488281 5.847656l-16.09375 9.816406 19.796875-11.4375c1.304688-.785156 2.933594-.816406 4.265625-.078125 1.335938.738282 2.175781 2.132813 2.203125 3.65625.027344 1.527344-.757812 2.949219-2.066406 3.738282l-118 73.941406 124.878906-72.101563c2.007813-1.042969 4.484375-.335937 5.640625 1.613281 1.152344 1.945313.585938 4.457032-1.296875 5.71875l-6.484375 3.960938 9.386719-5.410156c2.011719-1.078125 4.511719-.378906 5.679688 1.582031 1.164062 1.964844.578124 4.496094-1.328126 5.746094l-4.90625 3.003906 7.441407-4.265625c2.015625-1.21875 4.640625-.566406 5.855469 1.453125 1.214843 2.019531.566406 4.644531-1.453126 5.859375l-122.53125 76.84375 128.757813-74.335938c2.011719-1.148437 4.570313-.484374 5.769531 1.492188 1.199219 1.980469.601563 4.554688-1.347656 5.804688l-144.332031 91.597656 151.585937-87.511719c2.027344-1.207031 4.648438-.539063 5.851563 1.484375 1.207031 2.027344.542969 4.648438-1.484375 5.855469l-41.027344 25.128906 43.683594-25.214844c2-1.097656 4.511718-.429687 5.699218 1.519531 1.1875 1.949219.632813 4.484376-1.261718 5.761719l-155.085938 99.378907 162.515625-93.824219c2.007813-1.105469 4.523438-.429688 5.707031 1.53125 1.1875 1.957031.613282 4.5-1.292968 5.761719l-124.304688 78.441406 129.5625-74.804688c2.007813-1.105468 4.535156-.425781 5.714844 1.542969s.59375 4.519531-1.332031 5.769531l-96.339844 60.179688 99.949219-57.703125c2.007812-1.085938 4.515625-.402344 5.691406 1.550781 1.175781 1.957031.605469 4.488281-1.296875 5.753906l-85.03125 53.015625 88.15625-50.902343c2.015625-1.132813 4.570313-.457032 5.757813 1.53125 1.1875 1.984374.574218 4.554687-1.378907 5.792968l-49.308593 30.472656 51.203124-29.558593c2.003907-1.074219 4.5-.382813 5.667969 1.570312 1.171875 1.953125.601563 4.476563-1.292969 5.742188l-54.730468 33.925781 56.582031-32.664062c2-1.101563 4.511719-.429688 5.699219 1.519531 1.1875 1.945312.632812 4.484375-1.261719 5.757812l-117.46875 75.308594 106.921875-61.722656c2-1.136719 4.539062-.484375 5.742188 1.472656 1.207031 1.957031.644531 4.515625-1.269532 5.789063l-110.003906 71.960937 77.484375-44.730469c1.976563-1.117187 4.488281-.488281 5.703125 1.433594s.710938 4.457031-1.148438 5.769531l-79.503906 54.851563 32.171875-18.570313c1.320313-.839843 3-.886719 4.367188-.125 1.367187.765625 2.207031 2.21875 2.1875 3.785157-.023438 1.566406-.902344 2.996093-2.289063 3.722656l-124.007812 71.601562c-1.980469 1.121094-4.488282.488282-5.703125-1.433594-1.214844-1.917968-.710938-4.457031 1.148437-5.765624l79.46875-54.84375-118.066406 68.1875c-.648438.371093-1.386719.5625-2.132812.554687zm0 0" fill="#e4e8eb"/><path d="m260.3125 365.980469c-1.867188-.003907-3.515625-1.21875-4.070312-3.003907-.554688-1.785156.117187-3.722656 1.65625-4.78125l2.894531-1.976562-15.148438 8.734375c-1.984375 1.101563-4.484375.453125-5.683593-1.46875-1.203126-1.925781-.6875-4.457031 1.171874-5.757813l12.492188-8.40625-23.152344 13.375c-1.980468 1.152344-4.519531.53125-5.75-1.40625-1.226562-1.9375-.703125-4.496093 1.183594-5.796874l49.1875-34.03125-62.027344 35.839843c-1.976562 1.121094-4.484375.496094-5.703125-1.417969-1.222656-1.914062-.730469-4.449218 1.121094-5.765624l74.972656-52.703126-87.578125 50.5c-2 1.101563-4.511718.429688-5.699218-1.519531-1.1875-1.945312-.632813-4.484375 1.261718-5.757812l12.730469-8.152344-16.210937 9.335937c-1.976563 1.089844-4.460938.449219-5.667969-1.457031-1.203125-1.910156-.714844-4.425781 1.117187-5.746093l85.222656-58.671876-93.617187 54.03125c-2 1.117188-4.523437.457032-5.71875-1.496093-1.199219-1.953125-.640625-4.5 1.265625-5.773438l48.554688-31.574219-51.59375 29.789063c-2 1.117187-4.523438.457031-5.71875-1.496094-1.199219-1.949219-.640626-4.5 1.261718-5.773437l44.128906-28.570313-45.765624 26.453125c-2.011719 1.230469-4.636719.597656-5.867188-1.410156-1.230469-2.011719-.597656-4.636719 1.414062-5.867188l40.730469-26.28125-41.535156 23.917969c-1.996094 1.082031-4.488281.414063-5.675781-1.523437-1.183594-1.9375-.640625-4.464844 1.230468-5.746094l46.773438-30.371094-46.480469 26.820313c-1.996093 1.132812-4.527343.488281-5.738281-1.460938-1.207031-1.945312-.660156-4.5 1.238281-5.785156l68.148438-45.492187-67.832031 39.160156c-1.988282 1.097656-4.492188.445312-5.6875-1.488282-1.199219-1.929687-.671876-4.464843 1.199218-5.753906l55.464844-36.695312-52.324219 30.207031c-2.003906 1.199219-4.597656.566406-5.824219-1.417969-1.226562-1.988281-.625-4.589844 1.34375-5.84375l38.953126-25.597656-34.882813 20.136719c-1.996094 1.136719-4.535156.484375-5.742187-1.472657-1.203126-1.957031-.644532-4.515624 1.269531-5.789062l25.601562-16.808594-19.875 11.46875c-1.988281 1.070313-4.464843.40625-5.652343-1.515625-1.1875-1.917969-.671876-4.429687 1.171874-5.730469l17.066407-11.253906-9.683594 5.585938c-1.972656 1.109375-4.464844.484375-5.683594-1.417969-1.21875-1.90625-.738281-4.429687 1.09375-5.757813l37.238281-26.308593-25.550781 14.738281c-1.890625 1.0625-4.277343.535156-5.546875-1.226562-1.269531-1.761719-1.015625-4.191407.589844-5.652344l31.328125-27.722656c-2.085937.703124-4.363281-.292969-5.261719-2.304688-.898437-2.007812-.121094-4.371094 1.796875-5.453125l35.488281-20.574219c1.894532-1.082031 4.300782-.554687 5.578126 1.214844 1.273437 1.769531 1.007812 4.21875-.621094 5.671875l-31.007813 27.453125 69.570313-40.183594c1.96875-1.074218 4.429687-.441406 5.636718 1.445313 1.207032 1.882812.753907 4.382812-1.042968 5.722656l-37.242188 26.308594 52.695313-30.414063c1.996093-1.160156 4.554687-.519531 5.769531 1.445313 1.214844 1.964843.644531 4.535156-1.28125 5.808593l-17 11.210938 25.183594-14.503906c1.992187-1.085938 4.480468-.421875 5.671875 1.507812 1.1875 1.929688.660156 4.453125-1.199219 5.742188l-25.601562 16.8125 32.375-18.679688c1.992187-1.082031 4.480468-.421875 5.671874 1.507813 1.1875 1.929687.664063 4.453125-1.199218 5.746093l-39.050782 25.703126 45.96875-26.53125c1.992188-1.097657 4.492188-.445313 5.691407 1.488281 1.195312 1.933593.667969 4.464843-1.203125 5.757812l-55.355469 36.691407 61.253906-35.351563c1.988281-1.085937 4.472657-.429687 5.667969 1.492187 1.195312 1.921876.679688 4.441407-1.171875 5.742188l-68.1875 45.472656 73.785156-42.597656c2.003907-1.164062 4.570313-.515625 5.78125 1.457031 1.214844 1.972657.628907 4.554688-1.316406 5.8125l-46.667969 30.3125 49.59375-28.628906c1.996094-1.085937 4.492188-.414063 5.675782 1.523437 1.183593 1.9375.644531 4.464844-1.230469 5.746094l-40.789063 26.324219 41.867188-24.183594c2-1.140625 4.546875-.480469 5.75 1.484375 1.203125 1.96875.625 4.535156-1.304688 5.796875l-44.007812 28.484375 44.902344-25.917968c1.992187-1.066407 4.472656-.398438 5.65625 1.53125 1.179687 1.925781.65625 4.441406-1.203126 5.730468l-48.570312 31.574219 47.863281-27.628906c1.988281-1.179688 4.546875-.5625 5.78125 1.390625 1.234375 1.949218.691407 4.53125-1.222656 5.816406l-85.15625 58.726562 84.582031-48.835937c2.007813-1.175781 4.589844-.523437 5.800782 1.464844 1.210937 1.988281.605468 4.578125-1.363282 5.824219l-12.800781 8.207031 9.386719-5.425781c1.976562-1.121094 4.484375-.496094 5.703125 1.417968 1.222656 1.914063.730469 4.449219-1.121094 5.769532l-74.996094 52.675781 69.5625-40.109375c1.980469-1.117188 4.488281-.484375 5.703125 1.433594 1.214844 1.921874.710938 4.460937-1.148437 5.769531l-49.191407 34.03125 40.957032-23.621094c1.988281-1.097656 4.484375-.453125 5.6875 1.472656s.6875 4.453125-1.171875 5.753907l-12.5 8.414062 3.191406-1.839844c1.980469-1.101562 4.476563-.464844 5.683594 1.453125s.703125 4.445313-1.144531 5.757813l-10.242188 6.996094c1.800781.085937 3.347656 1.292968 3.875 3.015624.527344 1.71875-.085938 3.585938-1.527344 4.664063l-17.628906 13.261719c1.328125.757812 2.148438 2.171875 2.148438 3.703125s-.820313 2.941406-2.148438 3.703125l-42.667969 24.636718c-1.949219 1.117188-4.433593.527344-5.675781-1.347656s-.816406-4.394531.976562-5.753906l3.847657-2.910156-25.8125 14.917968c-.648438.382813-1.382813.589844-2.136719.597657zm0 0" fill="#5e9cea"/><path d="m251.105469 306.355469c-1.789063.003906-3.390625-1.117188-4.007813-2.796875-.617187-1.683594-.117187-3.574219 1.253906-4.726563l16.894532-14.3125-29.347656 16.9375c-1.953126 1.148438-4.460938.566407-5.710938-1.320312-1.253906-1.886719-.8125-4.421875 1.003906-5.777344l15.042969-11.359375-21.214844 12.246094c-1.929687 1.117187-4.398437.558594-5.65625-1.285156-1.261719-1.839844-.886719-4.34375.851563-5.738282l33.023437-26.453125-38.738281 22.359375c-1.949219 1.097656-4.414062.511719-5.652344-1.347656-1.242187-1.863281-.832031-4.363281.933594-5.738281l27.714844-21.144531-29.011719 16.726562c-1.914063 1.078125-4.335937.527344-5.59375-1.273438-1.261719-1.800781-.945313-4.265624.726563-5.691406l34.894531-29.113281-33.1875 19.164063c-1.902344 1.09375-4.328125.5625-5.601563-1.226563-1.273437-1.789063-.980468-4.253906.679688-5.695313l23.976562-20.71875-15.222656 8.78125c-1.902344 1.109376-4.335938.585938-5.617188-1.203124-1.28125-1.792969-.988281-4.265626.675782-5.707032l11.574218-10.097656c-.515624-.347656-.941406-.8125-1.246093-1.355469-1.175781-2.039062-.476563-4.640625 1.558593-5.820312l23.742188-13.703125c1.902344-1.109375 4.335938-.585938 5.617188 1.207031 1.28125 1.789063.988281 4.261719-.675782 5.703125l-1.886718 1.640625 16.210937-9.386719c1.90625-1.09375 4.332031-.5625 5.605469 1.226563 1.273437 1.789062.976562 4.253906-.679688 5.695312l-23.96875 20.71875 37.152344-21.453125c1.914062-1.082031 4.335938-.53125 5.59375 1.273438 1.257812 1.800781.941406 4.261718-.730469 5.6875l-34.902343 29.125 43.394531-25.054688c1.945312-1.125 4.433593-.542968 5.683593 1.328125 1.246094 1.871094.828126 4.386719-.957031 5.753907l-27.75 21.191406 29.933594-17.273438c1.933594-1.117187 4.398437-.558594 5.660156 1.285156 1.257813 1.839844.886719 4.34375-.855469 5.738282l-32.988281 26.453125 32.511719-18.773438c1.949219-1.128906 4.445312-.546875 5.691406 1.332031 1.25 1.878907.820313 4.40625-.980468 5.769532l-15.0625 11.363281 10.574218-6.101563c1.910156-1.085937 4.335938-.546874 5.601563 1.253907 1.265625 1.796875.957031 4.261719-.714844 5.695312l-16.878906 14.308594 6.828125-3.925781c2.027344-1.058594 4.527344-.332032 5.671875 1.644531 1.144531 1.980469.523437 4.511719-1.40625 5.738281l-47.863281 27.65625c-.65625.382813-1.40625.582032-2.167969.570313zm0 0" fill="#636c77"/><path d="m496.371094 2.152344-116.1875 116.1875c-23.628906-15.566406-49.652344-27.148438-77.03125-34.285156-87.613282-21.863282-170.199219 24.839843-232.011719 83.644531-16.199219 15.457031-31.425781 31.898437-45.59375 49.226562-5.683594 6.9375-21.71875 21.660157-23.476563 30.890625-4.539062 23.777344 40.625 61.707032 54.886719 76.347656 19.289063 20.050782 40.511719 38.148438 63.359375 54.027344l-118.878906 118.894532c-5.511719 5.511718 6.308594 8.175781 10.445312 4.027343l117.144532-117.136719c53.53125 34.292969 115.246094 51.917969 180.3125 31.898438 47.027344-14.507812 88.414062-43.582031 124.105468-76.800781 21.703126-20.207031 71.929688-60.585938 72.730469-93.117188.191407-.21875.21875-.535156.070313-.785156-31.859375-46.8125-71.570313-87.761719-117.386719-121.035156 39.316406-39.324219 78.636719-78.640625 117.957031-117.957031 5.511719-5.511719-6.304687-8.175782-10.445312-4.027344zm-410.128906 335.019531c-15.71875-14.695313-30.539063-30.324219-44.371094-46.808594-6.171875-7.320312-25.796875-25.597656-27.53125-35.566406-4.367188-25.105469 48.878906-69.179687 64.386718-84.222656 51.199219-49.730469 118.730469-95.121094 193.703126-85.402344 36.222656 5.457031 70.6875 19.222656 100.695312 40.226563l-41.589844 41.589843c-67.074218-55.03125-195.109375-25.382812-194.5625 85.789063-.925781 29.183594 10 57.503906 30.285156 78.503906l-39.96875 39.972656c-14.363281-10.515625-28.070312-21.898437-41.046874-34.082031zm203.09375-113.496094c17.851562 27.308594 9.140624 73.457031-32.734376 75.726563-11.257812-.496094-21.941406-5.121094-30.011718-12.988282zm-69.339844 54.871094c-18.972656-27.921875-11.199219-73.941406 31.726562-74.71875 11.546875-.421875 22.769532 3.894531 31.058594 11.945313-20.941406 20.917968-41.867188 41.84375-62.785156 62.773437zm29.242187 27.433594c.800781.25 1.648438.332031 2.484375.25 28.59375-1.546875 56.164063-19.210938 59.5-49.835938 1.613282-15.011719-3.335937-29.988281-13.574218-41.078125l33.714843-33.65625c16.703125 19.964844 26.351563 44.886719 27.449219 70.894532-3.15625 59.878906-49.765625 112.09375-113.757812 105.472656-23.085938-2.457032-44.683594-12.574219-61.34375-28.742188l34.671874-34.660156c9.074219 6.476562 19.722657 10.398438 30.828126 11.355469zm40.898438-97.570313c-9.644531-7.367187-21.4375-11.371094-33.578125-11.390625-28.460938-.550781-53.28125 19.253907-59.058594 47.128907-2.867188 15.832031 2.027344 32.078124 13.167969 43.691406l-33.980469 33.980468c-17.167969-19.8125-26.648438-45.132812-26.71875-71.347656.0625-64 58.316406-117.292968 123.351562-103.132812 19.164063 4.035156 36.824219 13.328125 51.003907 26.835937zm203.777343 40.054688c0 28.484375-45.730468 66.125-64.382812 84.226562-51.199219 49.679688-118.964844 95.09375-193.707031 85.402344-36.078125-5.609375-70.332031-19.625-99.996094-40.910156l39.058594-39.066406c64.855469 52.726562 190.917969 21.53125 196.402343-87.109376 0-.238281-.109374-.382812-.144531-.585937.046875-.144531.082031-.292969.101563-.445313-.644532-28.527343-12.128906-55.738281-32.109375-76.109374l42.554687-42.554688c43.558594 32.65625 81.46875 72.230469 112.222656 117.152344zm0 0" fill="#262626"/></svg>