<svg height="505pt" viewBox="0 0 505.719 505" width="505pt" xmlns="http://www.w3.org/2000/svg"><path d="m321.722656 505.238281c-1.828125-.019531-3.445312-1.199219-4.011718-2.9375-.570313-1.738281.03125-3.644531 1.492187-4.742187l46.363281-33.886719-58.265625 33.628906c-2 1.160157-4.554687.519531-5.769531-1.445312-1.214844-1.960938-.648438-4.535157 1.28125-5.804688l10.289062-6.828125-6.058593 3.488282c-1.96875 1.144531-4.488281.539062-5.722657-1.375-1.234374-1.910157-.753906-4.457032 1.097657-5.78125l58.257812-41.910157-53.632812 30.996094c-1.972657 1.136719-4.492188.523437-5.722657-1.394531-1.230468-1.917969-.734374-4.464844 1.125-5.785156l52.90625-37.546876-48.308593 27.886719c-1.980469 1.15625-4.519531.535157-5.75-1.402343-1.226563-1.9375-.703125-4.496094 1.1875-5.796876l42.28125-29.246093-37.71875 21.761719c-1.96875 1.125-4.476563.507812-5.703125-1.398438-1.226563-1.910156-.746094-4.445312 1.097656-5.769531l54.476562-38.808594-49.878906 28.789063c-1.964844 1.128906-4.472656.523437-5.703125-1.378907-1.234375-1.902343-.761719-4.4375 1.070313-5.769531l60.527344-43.828125-55.894532 32.265625c-1.964844 1.144531-4.484375.546875-5.726562-1.359375-1.238282-1.90625-.765625-4.453125 1.078125-5.785156l62.957031-45.925781-58.308594 33.6875c-1.988281 1.132812-4.515625.496093-5.730468-1.441407-1.210938-1.941406-.679688-4.492187 1.207031-5.785156l27.394531-18.507813-22.871094 13.199219c-1.984375 1.117188-4.496094.480469-5.703125-1.449219-1.210937-1.929687-.695312-4.464843 1.171875-5.769531l32.570313-22.1875-28.039063 16.214844c-1.980468 1.117187-4.488281.488281-5.703125-1.433594-1.214843-1.921875-.710937-4.457031 1.148438-5.769531l40.183593-27.742188-35.84375 20.703126c-1.964843 1.097656-4.449218.472656-5.664062-1.421876-1.21875-1.898437-.75-4.414062 1.066406-5.746093l53.632813-38.117188-64.855469 37.402344c-1.96875 1.066406-4.429688.425781-5.632812-1.464844-1.203126-1.890625-.734376-4.390625 1.070312-5.722656l57.589844-40.039063-81.757813 47.207032c-1.992187 1.070312-4.472656.398437-5.65625-1.527344-1.179687-1.925781-.652343-4.441406 1.203125-5.734375l25.984375-16.894531-41.816406 24.15625c-1.988281 1.117187-4.5.46875-5.707031-1.464844-1.203125-1.9375-.675782-4.476562 1.203125-5.769531l63.199219-42.257813-85.828126 49.492188c-1.324218.839844-3 .890625-4.371093.125-1.367188-.761719-2.207031-2.214844-2.1875-3.78125.023437-1.570313.902343-2.996094 2.289062-3.722656l197.582031-114.050782c1.996094-1.183594 4.574219-.554687 5.800782 1.417969 1.226562 1.96875.652344 4.5625-1.296875 5.828125l-63.230469 42.308594 70.03125-40.441406c2.003906-1.164063 4.570312-.515626 5.78125 1.457031 1.214844 1.976562.628906 4.554687-1.316406 5.816406l-25.949219 16.859375 29.96875-17.296875c1.976563-1.101563 4.46875-.472656 5.683594 1.4375 1.210937 1.914063.722656 4.4375-1.117188 5.757813l-57.644531 40.0625 55.390625-31.964844c1.96875-1.097656 4.449219-.472656 5.667969 1.421875 1.214844 1.898437.75 4.414062-1.070313 5.746093l-53.640625 38.09375 49.042969-28.316406c1.980469-1.117187 4.488281-.484375 5.703125 1.433594 1.214844 1.921875.710938 4.460938-1.148438 5.769531l-40.191406 27.742188 35.636719-20.582031c1.984375-1.117188 4.496094-.476563 5.703125 1.449218 1.210938 1.929688.695312 4.46875-1.171875 5.769532l-32.546875 22.1875 28.023438-16.214844c1.988281-1.132813 4.515624-.496094 5.730468 1.445312 1.214844 1.9375.679688 4.492188-1.207031 5.785156l-27.460937 18.542969 22.9375-13.230469c1.960937-1.105468 4.441406-.496093 5.671874 1.386719 1.230469 1.886719.78125 4.402344-1.019531 5.75l-62.960937 45.925781 58.308594-33.65625c1.964843-1.128906 4.472656-.523437 5.703124 1.382813 1.234376 1.902344.765626 4.433594-1.070312 5.769531l-60.492188 43.800782 55.859376-32.257813c1.972656-1.121094 4.476562-.507813 5.703124 1.402344 1.226563 1.90625.746094 4.441406-1.09375 5.765625l-54.519531 38.820312 49.910157-28.757812c1.984374-1.152344 4.523437-.535156 5.75 1.402344 1.226562 1.9375.703124 4.5-1.183594 5.800781l-42.292969 29.25 37.71875-21.757813c1.972656-1.140625 4.492187-.523437 5.722656 1.394532 1.230469 1.917968.734375 4.464843-1.125 5.78125l-52.90625 37.488281 48.28125-27.871094c1.972657-1.140625 4.488281-.535156 5.726563 1.375 1.234375 1.914063.75 4.457031-1.101563 5.785156l-58.222656 41.90625 53.632813-30.957031c1.988281-1.070312 4.464843-.410156 5.652343 1.511719 1.1875 1.917969.671875 4.429687-1.171875 5.730469l-10.238281 6.828124 5.773437-3.335937c1.96875-1.148437 4.484376-.550781 5.726563 1.355469s.769531 4.453125-1.074219 5.785156l-46.394531 33.816406 41.726563-24.078125c1.949218-1.109375 4.425781-.523437 5.664062 1.347657 1.242188 1.867187.824219 4.375-.953125 5.742187l-30.308594 23.039063 25.597657-14.769532c1.882812-1.09375 4.285156-.59375 5.578124 1.15625 1.289063 1.75 1.058594 4.195313-.542968 5.667969l-24.558594 22.769531 19.523438-11.273437c1.820312-1.046875 4.128906-.617188 5.449218 1.015625 1.316406 1.628906 1.253906 3.980468-.148437 5.539062l-9.191407 10.179688 3.890626-2.246094c2.039062-1.15625 4.632812-.453125 5.804687 1.578125s.484375 4.628906-1.539063 5.8125l-27.304687 15.753906c-1.816406 1.035157-4.117187.601563-5.429687-1.023437-1.316407-1.625-1.261719-3.960938.128906-5.523438l9.191406-10.179687-28.988281 16.683593c-1.882813 1.09375-4.285157.59375-5.574219-1.15625-1.292969-1.753906-1.058594-4.195312.539062-5.671874l24.570313-22.773438-51.269531 29.601562c-1.949219 1.109376-4.425782.519532-5.664063-1.347656-1.242187-1.867187-.824219-4.378906.953125-5.742187l30.300782-23.042969-52.15625 30.132812c-.636719.386719-1.367188.59375-2.113282.605469zm0 0" fill="#cad0d7"/><path d="m83.984375 505.238281c-1.875.003907-3.53125-1.214843-4.085937-3.003906-.554688-1.789063.121093-3.730469 1.667968-4.785156l25.175782-17.195313-29.808594 17.203125c-1.996094 1.183594-4.574219.554688-5.800782-1.417969-1.226562-1.96875-.652343-4.5625 1.296876-5.828124l20.101562-13.449219-15.894531 9.175781c-1.988281 1.132812-4.515625.496094-5.730469-1.445312-1.214844-1.941407-.679688-4.492188 1.207031-5.785157l29.542969-20.019531-25.019531 14.441406c-1.988281 1.152344-4.53125.523438-5.753907-1.421875-1.222656-1.945312-.6875-4.507812 1.214844-5.800781l34.132813-23.300781-29.621094 17.066406c-1.980469 1.117187-4.488281.484375-5.703125-1.4375-1.214844-1.917969-.710938-4.457031 1.148438-5.765625l40.378906-27.878906-35.839844 20.683594c-1.976562 1.140624-4.496094.527343-5.722656-1.394532-1.230469-1.917968-.738282-4.460937 1.121094-5.78125l52.960937-37.546875-48.335937 27.9375c-1.980469 1.15625-4.519532.535157-5.75-1.402343-1.226563-1.9375-.703126-4.5 1.1875-5.796876l44.242187-30.722656-39.6875 22.921875c-2.023437 1.152344-4.59375.472657-5.78125-1.53125-1.1875-2-.550781-4.585937 1.429687-5.808593l35.730469-21.835938-31.378906 18.117188c-2.023437 1.207031-4.644531.542968-5.847656-1.480469-1.207031-2.023438-.546875-4.644531 1.480469-5.851563l65.757812-40.523437-61.398438 35.445312c-2.023437 1.152344-4.59375.472657-5.78125-1.527343-1.1875-2.003907-.550781-4.589844 1.429688-5.808594l26.625-16.300782-22.273438 12.859376c-2.007812 1.058593-4.492187.359374-5.65625-1.589844-1.160156-1.949219-.589843-4.46875 1.296876-5.730469l40.820312-25.113281-36.46875 21.050781c-2.007812 1.074219-4.503906.382813-5.671875-1.570313-1.167969-1.953124-.601563-4.480468 1.292969-5.742187l68.976562-42.855469-64.605468 37.292969c-2.003907 1.070313-4.492188.382813-5.664063-1.558594-1.175781-1.945312-.621094-4.464843 1.257813-5.738281l98.679687-62.292969-94.273437 54.449219c-2.011719 1.179688-4.59375.527344-5.804688-1.460938-1.210938-1.988281-.601562-4.582031 1.367188-5.824218l119.082031-76.535156-114.65625 66.183593c-2 1.070313-4.488281.386719-5.664063-1.558593-1.171875-1.945313-.617187-4.464844 1.261719-5.738282l75.8125-47.785156-71.417969 41.179688c-2.003906 1.140624-4.550781.484374-5.75-1.484376-1.203125-1.964843-.625-4.53125 1.304688-5.792968l106.300781-68.804688-101.855469 58.792969c-2.007812 1.074219-4.5.382813-5.671875-1.570313-1.167969-1.953124-.597656-4.476562 1.296875-5.742187l9.804688-6.058594-5.429688 3.132813c-2.007812 1.125-4.550781.453125-5.738281-1.519532-1.191406-1.972656-.597656-4.535156 1.335937-5.785156l35.71875-22.425781-31.316406 18.066406c-1.996094 1.183594-4.574218.554688-5.800781-1.414062-1.226563-1.972657-.652344-4.566407 1.296875-5.832031l105.71875-70.355469-101.222656 58.433593c-1.304688.789063-2.933594.816407-4.265625.078126-1.335938-.738282-2.175781-2.128907-2.203125-3.65625-.027344-1.523438.757812-2.945313 2.066406-3.734376l5.800781-3.625-1.40625.851563c-1.996093 1.097656-4.5.4375-5.695312-1.503906-1.191407-1.9375-.648438-4.472657 1.230469-5.757813l65.664062-42.75-5.417969 3.128906c-2.003906 1.242188-4.636719.621094-5.875-1.386718-1.238281-2.003906-.617187-4.632813 1.386719-5.875l48.164062-31.707032c-.484374-.316406-.898437-.722656-1.214843-1.203124-1.246094-1.882813-.8125-4.414063.992187-5.769532l57.503906-43.382812c-.378906-1.804688.445313-3.652344 2.039063-4.574219l17.394531-10.042969c1.949219-1.121094 4.433594-.53125 5.675782 1.34375 1.242187 1.875.816406 4.394532-.976563 5.753906l-21.035156 15.863282 27.417969-15.828125c2.003906-1.199219 4.597656-.566407 5.824218 1.417969 1.226563 1.988281.628906 4.589843-1.34375 5.84375l-14.753906 9.691406 18.21875-10.519532c2-1.117187 4.523438-.457031 5.71875 1.496094s.636719 4.5-1.265625 5.773438l-65.621094 42.71875 71.773438-41.4375c2.015625-1.164063 4.589843-.496094 5.789062 1.496094 1.199219 1.996093.578125 4.582031-1.394531 5.816406l-5.691406 3.558594 8.613281-4.976563c1.992187-1.132813 4.523437-.488281 5.734375 1.460937 1.207031 1.945313.660156 4.503907-1.238281 5.785157l-105.738281 70.375 115.097656-66.449219c2.019531-1.214844 4.644531-.566406 5.859375 1.453125 1.214843 2.019531.5625 4.644531-1.457031 5.859375l-35.703126 22.398438 39.707032-22.925782c2.011718-1.109375 4.535156-.425781 5.71875 1.542969 1.179687 1.96875.589844 4.515625-1.332032 5.769531l-9.675781 5.972656 12.714844-7.339843c2-1.140625 4.546875-.480469 5.75 1.484375 1.203125 1.96875.625 4.535156-1.304687 5.796875l-106.394532 68.914062 114.464844-66.082031c2.007812-1.101562 4.523438-.425781 5.707031 1.53125 1.183594 1.957031.613281 4.5-1.292969 5.765625l-75.667968 47.742187 81.308594-46.933593c2.011718-1.226563 4.636718-.589844 5.867187 1.421875 1.226563 2.011718.589844 4.640625-1.421875 5.867187l-119.066406 76.519531 127.367187-73.542968c2.019531-1.21875 4.640625-.570313 5.859375 1.449218 1.21875 2.015626.570313 4.636719-1.445312 5.855469l-98.75 62.292969 105.292968-60.78125c2.015626-1.136719 4.570313-.457031 5.757813 1.527344s.574219 4.554687-1.378906 5.792968l-68.871094 42.785157 73.792969-42.605469c1.3125-.78125 2.9375-.804688 4.269531-.058594 1.328125.742188 2.160156 2.140625 2.183594 3.664063.019531 1.523437-.773438 2.945312-2.082031 3.726562l-40.796876 25.085938 44.652344-25.769531c2.015625-1.117188 4.554688-.429688 5.734375 1.550781 1.175781 1.980469.570313 4.539062-1.371093 5.777343l-26.804688 16.410157 30.242188-17.457031c2.015624-1.136719 4.570312-.460938 5.757812 1.527343 1.183594 1.984375.574219 4.554688-1.378906 5.792969l-65.621094 40.449219 70.21875-40.542969c2.015625-1.113281 4.554688-.425781 5.730469 1.550781 1.179687 1.980469.574219 4.539063-1.371094 5.777344l-197.46875 120.679687c.828125 1.871094.210937 4.066407-1.46875 5.230469l-44.175781 30.660157 38.683594-22.339844c1.972656-1.136719 4.492187-.523438 5.722656 1.394531 1.230468 1.917969.734375 4.464844-1.125 5.78125l-52.992188 37.589844 48.394532-27.9375c1.976562-1.117188 4.484374-.488281 5.703124 1.433593 1.214844 1.921876.710938 4.457032-1.148437 5.769532l-40.378906 27.867187 35.839843-20.675781c1.980469-1.101562 4.476563-.460938 5.683594 1.457031 1.207032 1.917969.707032 4.445313-1.144531 5.753907l-34.132813 23.289062 29.566407-17.066406c1.988281-1.132813 4.515625-.496094 5.730469 1.441406 1.214843 1.941406.683593 4.492188-1.207032 5.785156l-29.609375 20.0625 25.085938-14.507812c1.992187-1.113282 4.503906-.46875 5.710937 1.46875 1.203125 1.933594.675782 4.476562-1.203125 5.769531l-20.027343 13.457031 15.539062-8.96875c1.984375-1.152344 4.53125-.527344 5.753906 1.417969s.683594 4.507813-1.214844 5.800781l-25.199218 17.203125 20.640625-11.945312c1.945312-1.109375 4.410156-.53125 5.660156 1.324219 1.246094 1.859374.847656 4.363281-.914063 5.738281l-38.398437 29.78125 33.671875-19.34375c1.894531-1.066407 4.292969-.535157 5.558594 1.234375 1.269531 1.769531 1 4.207031-.617188 5.660156l-25.132812 21.972656 20.191406-11.65625c1.792969-1.039062 4.078125-.640625 5.410156.949219 1.332032 1.589844 1.328125 3.910156-.007812 5.496094l-12.546875 14.871093 7.144531-4.113281c1.699219-.980469 3.851562-.679687 5.210938.738281 1.363281 1.414063 1.582031 3.578126.53125 5.234376l-2.84375 4.492187c1.542968.582031 2.609374 1.996094 2.742187 3.640625.136719 1.640625-.683594 3.210938-2.109375 4.039062l-9.582031 5.519532c-1.699219.984375-3.851563.679687-5.214844-.734375-1.359375-1.417969-1.578125-3.578125-.527344-5.238281l1.046875-1.648438-13.214844 7.621094c-1.796874 1.042968-4.078124.640625-5.414062-.949219-1.332031-1.589844-1.328125-3.90625.011719-5.492187l12.535156-14.867188-36.925781 21.335938c-1.894532 1.066406-4.292969.535156-5.558594-1.234376-1.269531-1.769531-1-4.210937.617188-5.664062l25.132812-21.972656-50.015625 28.792968c-1.941406 1.132813-4.429687.5625-5.6875-1.304687-1.253906-1.867187-.84375-4.386719.9375-5.761719l38.398437-29.78125-63.828124 36.847656c-.644532.386719-1.382813.59375-2.132813.605469zm0 0" fill="#cad0d7"/><path d="m463.605469 262.941406c-1.777344-.003906-3.363281-1.109375-3.984375-2.773437-.621094-1.667969-.144532-3.542969 1.195312-4.707031l5.316406-4.722657-8.59375 4.960938c-1.882812 1.109375-4.300781.617187-5.597656-1.140625-1.300781-1.757813-1.0625-4.214844.554688-5.6875l11.511718-10.699219-16.460937 9.523437c-1.8125 1.046876-4.121094.625-5.441406-1-1.324219-1.621093-1.277344-3.964843.113281-5.53125l17.640625-19.839843-26.242187 15.15625c-1.875 1.035156-4.230469.511719-5.496094-1.214844-1.269532-1.730469-1.054688-4.132813.496094-5.613281l10.105468-9.179688-14.507812 8.398438c-1.839844 1.0625-4.183594.605468-5.492188-1.070313-1.3125-1.671875-1.1875-4.058593.289063-5.585937l15.757812-16.308594-22.75 13.132812c-1.816406 1.046876-4.125.621094-5.445312-1.007812-1.320313-1.628906-1.261719-3.976562.140625-5.539062l17.40625-19.464844-25.855469 14.925781c-1.828125 1.0625-4.152344.625-5.472656-1.023437-1.320313-1.648438-1.234375-4.011719.199219-5.5625l16.972656-18.441407-24.890625 14.371094c-1.816407 1.046875-4.125.617187-5.445313-1.007813-1.324218-1.628906-1.265625-3.976562.136719-5.539062l17.5-19.539062-25.949219 14.984374c-1.921875 1.097657-4.367187.539063-5.625-1.28125-1.261718-1.824218-.914062-4.308593.796875-5.71875l.460938-.375-2.792969 1.605469c-1.863281 1.089844-4.246094.613281-5.550781-1.105469-1.304688-1.71875-1.121094-4.144531.433593-5.644531l13.582032-13.191406-19.328125 11.1875c-1.902344 1.109375-4.34375.585937-5.625-1.210937-1.28125-1.796876-.980469-4.273438.695312-5.710938l7.023438-6.101562-10.625 6.136718c-1.847657 1.003906-4.152344.511719-5.425781-1.160156-1.277344-1.667969-1.148438-4.019531.304687-5.539062l14.917969-15.019532-21.386719 12.347656c-1.851563 1.03125-4.179687.542969-5.464844-1.140624-1.285156-1.6875-1.136719-4.0625.347657-5.574219l14.625-14.59375-20.925782 12.074219c-1.808594 1.039062-4.101562.617187-5.421875-.996094-1.320312-1.613282-1.28125-3.945313.089844-5.511719l17.800781-20.242187-26.597656 15.359374c-1.855469 1.082032-4.222656.617188-5.53125-1.082031-1.3125-1.699219-1.152344-4.109375.367188-5.625l14.804687-14.847656-21.203125 12.238281c-1.847656 1.003906-4.152344.511719-5.429688-1.160156-1.273437-1.671875-1.144531-4.019531.308594-5.539062l14.960938-15.078126-21.453125 12.371094c-1.84375 1.050782-4.175781.589844-5.480469-1.078125-1.300781-1.671875-1.183594-4.046875.28125-5.578125l15.769531-16.332031-22.78125 13.148437c-1.816406 1.050782-4.125.625-5.445312-1-1.320313-1.625-1.269531-3.972656.128906-5.535156l17.585937-19.710937-27.640624 15.90625c-2.023438 1.058593-4.527344.332031-5.671876-1.644531-1.144531-1.980469-.523437-4.511719 1.40625-5.738282l50.472657-29.140625c1.8125-1.035156 4.109375-.609375 5.429687 1.007813 1.316406 1.621094 1.269532 3.957031-.113281 5.519531l-17.578125 19.710937 26.105469-15.070312c1.84375-1.074219 4.199219-.625 5.515625 1.058594 1.3125 1.683594 1.179687 4.078125-.3125 5.609375l-15.757813 16.304687 22.78125-13.15625c1.851563-1.070312 4.207031-.601562 5.511719 1.089844s1.15625 4.089844-.347656 5.609375l-14.949219 15.066406 21.425781-12.371093c1.847656-1.003907 4.148438-.511719 5.425782 1.15625 1.277343 1.671874 1.148437 4.023437-.304688 5.542968l-14.796875 14.855469 21.203125-12.238281c1.808594-1.035156 4.101562-.613282 5.421875 1 1.324219 1.613281 1.285156 3.945312-.085937 5.511718l-17.800782 20.25 26.605469-15.359374c1.851563-1.015626 4.164063-.527344 5.445313 1.148437 1.28125 1.679687 1.144531 4.042969-.324219 5.558594l-14.628907 14.601562 20.925782-12.074219c1.847656-1.003906 4.148437-.515624 5.425781 1.15625 1.277344 1.671876 1.148437 4.023438-.304687 5.539063l-14.917969 15.019531 21.382812-12.339844c1.902344-1.089843 4.324219-.558593 5.597657 1.226563 1.273437 1.78125.988281 4.242187-.664063 5.6875l-7.003906 6.082031 10.605469-6.125c1.863281-1.089844 4.246093-.617187 5.550781 1.105469 1.304687 1.71875 1.121093 4.144531-.429688 5.644531l-13.585937 13.191406 19.351562-11.160156c1.925782-1.082031 4.351563-.515625 5.605469 1.296875 1.25 1.816407.910156 4.289063-.78125 5.699219l-.460937.375 2.789062-1.613281c1.816406-1.058594 4.136719-.636719 5.460938.996093 1.328124 1.632813 1.265624 3.988282-.144532 5.550782l-17.5 19.542968 26.042969-14.976562c1.824219-1.0625 4.152344-.625 5.472656 1.023438 1.320313 1.648437 1.234375 4.011718-.199219 5.5625l-16.964843 18.414062 24.890625-14.367188c1.816406-1.050781 4.125-.621093 5.445312 1.007813 1.320313 1.628906 1.265625 3.976563-.136718 5.535156l-17.449219 19.4375 25.855469-14.921875c1.839843-1.050781 4.171874-.589844 5.476562 1.078125 1.304688 1.671875 1.183594 4.046875-.28125 5.578125l-15.75 16.3125 22.738281-13.089844c1.878907-1.03125 4.234375-.511718 5.5 1.21875 1.265625 1.730469 1.054688 4.128907-.5 5.609376l-10.101562 9.140624 14.550781-8.398437c1.8125-1.046875 4.117188-.625 5.441406.996094 1.324219 1.625 1.273438 3.96875-.117187 5.53125l-17.640625 19.859375 26.265625-15.183594c1.882812-1.109375 4.300781-.617188 5.597656 1.140625 1.300781 1.757813 1.0625 4.214844-.554687 5.6875l-11.527344 10.710937 12.542968-7.230468c1.894532-1.058594 4.28125-.53125 5.550782 1.226562 1.269531 1.761719 1.011718 4.191406-.589844 5.652344l-13.382812 11.828125c.640624.371094 1.171874.90625 1.535156 1.550781 1.175781 2.039063.480468 4.640625-1.550782 5.820313l-24.269531 14.046875c-.648437.378906-1.382812.578125-2.132812.570312zm0 0" fill="#457393"/><path d="m32.917969 265.554688c-1.835938 0-3.464844-1.175782-4.046875-2.917969-.582032-1.742188.019531-3.660157 1.488281-4.761719l24.644531-18.203125-28.160156 16.273437c-1.996094 1.1875-4.574219.558594-5.800781-1.414062-1.226563-1.972656-.652344-4.5625 1.292969-5.832031l48.460937-32.425781-51.429687 29.671874c-2.003907 1.121094-4.535157.453126-5.726563-1.507812-1.191406-1.964844-.617187-4.519531 1.300781-5.78125l72.828125-46.710938-75.980469 43.886719c-1.996093 1.117188-4.519531.457031-5.71875-1.496093-1.195312-1.953126-.636718-4.5 1.265626-5.773438l135.433593-87.390625-110.039062 63.523437c-2.007813 1.148438-4.566407.484376-5.765625-1.496093-1.199219-1.976563-.601563-4.550781 1.347656-5.800781l76.117188-48.273438-9.890626 5.707031c-1.984374 1.074219-4.457031.417969-5.652343-1.492187-1.191407-1.914063-.691407-4.425782 1.144531-5.734375l73.507812-49.210938c-1.585937.15625-3.132812-.5625-4.035156-1.878906-1.25-1.863281-.839844-4.378906.9375-5.75l72.859375-55.613281c-.457031-1.84375.359375-3.765625 2.003907-4.71875l17.339843-10.007813c1.945313-1.125 4.433594-.546875 5.683594 1.324219 1.246094 1.871094.828125 4.390625-.957031 5.757812l-38.996094 29.773438 47.898438-27.65625c1.988281-1.117188 4.5-.46875 5.707031 1.464844 1.203125 1.9375.675781 4.476562-1.203125 5.769531l-69.058594 46.226563 76.285156-44.039063c2.03125-1.234375 4.671875-.589844 5.90625 1.441406 1.230469 2.027344.585938 4.671875-1.441406 5.902344l-76.210938 48.335937 81.988282-47.394531c1.996094-1.117187 4.523437-.457031 5.71875 1.496094 1.195312 1.949219.636718 4.5-1.265625 5.773437l-135.398438 87.363282 84.480469-48.75c1.996094-1.070313 4.480469-.390625 5.660156 1.542968 1.175782 1.9375.636719 4.453126-1.230468 5.734376l-72.851563 46.730468 5.121094-2.960937c1.996093-1.1875 4.574219-.558594 5.800781 1.414062 1.226562 1.972657.652344 4.5625-1.292969 5.832031l-63.636719 42.511719c1.039063.257813 1.9375.894531 2.519532 1.792969 1.246094 1.894531.792968 4.429688-1.03125 5.777344l-58.804688 43.476562c.839844 1.980469.070313 4.28125-1.792968 5.359375l-25.191407 14.546875c-.644531.382813-1.382812.582032-2.132812.582032zm0 0" fill="#457393"/><path d="m413.546875 153.996094c-.824219-.003906-1.632813-.242188-2.328125-.691406-1.34375-.875-2.082031-2.429688-1.910156-4.027344l.851562-8.53125-5.972656 3.464844c-1.640625.945312-3.710938.691406-5.078125-.617188-1.371094-1.3125-1.710937-3.367188-.835937-5.050781l6.476562-12.421875-13.421875 7.746094c-1.789063 1.03125-4.0625.632812-5.394531-.949219-1.332032-1.578125-1.335938-3.886719-.015625-5.476563l10.820312-12.988281-17.203125 9.925781c-1.90625 1.09375-4.328125.5625-5.601562-1.226562-1.273438-1.789063-.980469-4.253906.675781-5.695313l4.269531-3.667969-7.273437 4.1875c-1.898438 1.105469-4.328125.585938-5.609375-1.199218-1.28125-1.789063-.996094-4.257813.660156-5.703125l13.347656-11.773438-18.378906 10.613281c-1.898438 1.097657-4.316406.582032-5.597656-1.195312s-1.011719-4.238281.628906-5.691406l24.578125-21.863282-31.523437 18.21875c-1.910157 1.089844-4.335938.546876-5.601563-1.25-1.265625-1.796874-.957031-4.261718.710937-5.695312l31.429688-26.597656-26.546875 15.316406c-1.917969 1.085938-4.34375.53125-5.601563-1.273438-1.257812-1.808593-.9375-4.277343.746094-5.699218l29.277344-24.378906-24.421875 14.132812c-1.914063 1.105469-4.351563.566406-5.625-1.238281-1.273437-1.808594-.957031-4.289063.734375-5.71875l26.300781-22.296875-21.410156 12.355468c-1.796875 1.03125-4.070313.625-5.398437-.960937-1.328126-1.585937-1.324219-3.894531.003906-5.480469l15.359375-18.097656-9.933594 5.734375c-1.667969.953125-3.769531.675781-5.128906-.683594-1.363281-1.355469-1.648438-3.457031-.699219-5.128906l3.535156-6.152344c-1.183594-.25-2.203125-.992187-2.808594-2.039062-.566406-.980469-.722656-2.148438-.429687-3.242188s1.007813-2.027343 1.992187-2.59375l9.589844-5.523437c1.671875-.964844 3.785156-.691406 5.152344.671875s1.648438 3.476562.6875 5.148437l-2.441406 4.265625 17.441406-10.085937c1.796875-1.027344 4.070312-.621094 5.398438.96875 1.324218 1.589844 1.320312 3.902344-.015626 5.484375l-15.359374 18.097656 41.207031-23.796875c1.914062-1.113281 4.363281-.578125 5.636719 1.234375 1.273437 1.808594.949218 4.292969-.746094 5.71875l-26.300782 22.296875 26.753907-15.4375c1.917969-1.082031 4.34375-.53125 5.601562 1.277344 1.257813 1.804687.933594 4.273437-.746093 5.695312l-29.261719 24.328125 24.40625-14.085937c1.914062-1.113282 4.359375-.578125 5.632812 1.234375 1.273438 1.808593.949219 4.292969-.742187 5.71875l-31.414063 26.582031 26.523438-15.308594c1.894531-1.097656 4.316406-.582031 5.597656 1.195313 1.28125 1.777343 1.007813 4.238281-.632813 5.691406l-24.582031 21.859375 19.617188-11.339844c1.902343-1.105468 4.328125-.582031 5.609375 1.203125 1.28125 1.789063.996094 4.253907-.660156 5.699219l-13.390626 11.742188 8.441407-4.871094c1.902343-1.09375 4.328125-.5625 5.601562 1.226562 1.273438 1.789063.980469 4.253906-.679687 5.695313l-4.394532 3.804687c1.816407-.738281 3.902344-.148437 5.058594 1.4375 1.152344 1.582032 1.082032 3.75-.175781 5.253906l-10.820313 13.011719 5.410157-3.125c1.644531-.949219 3.71875-.695312 5.085937.617188 1.371094 1.316406 1.707032 3.378906.828125 5.058593l-6.476562 12.417969.5625-.324219c1.386719-.800781 3.109375-.757812 4.453125.117188 1.34375.871094 2.085937 2.425781 1.921875 4.019531l-1.308594 12.332031c.300781.277344.554687.597657.753906.957032 1.179688 2.035156.488281 4.640625-1.546875 5.828125l-1.78125 1.03125c-.652344.378906-1.390625.578125-2.144531.578125zm0 0" fill="#365972"/><path d="m483 198.574219-61.242188-49.40625v-134.554688c.191407-.464843.191407-.984375 0-1.449219-7.304687-17.65625-47.128906-12.628906-62.761718-10.410156-23.390625 3.320313-17.863282 24.011719-17.863282 42.71875 0 10.929688-2.207031 25.121094-1.335937 37.542969l-25.371094-20.410156c-26.660156-21.539063-49.324219-56.320313-81.503906-31.574219-47.878906 36.875-94.1875 75.949219-141.214844 113.929688l-65.09375 52.53125c-6.570312 5.300781-24.996093 15.214843-26.511719 25.351562-1.597656 10.632812 16.3125 35.125 24.453126 39.636719 16.820312 9.335937 27.949218-3.789063 40.808593-14.796875-3.507812 22.691406 2.714844 56.808594 2.714844 75.828125v127.207031c0 13.890625-6.324219 43.332031 6.738281 52.054688 5.804688 3.898437 16.472656 1.707031 22.835938 1.707031h65.988281c16.582031 0 37.273437 4.828125 44.785156-13.058594 2.652344-6.3125 0-19.371094 0-26.015625v-63.925781c0-16.75-3.652343-38.527344 0-54.9375 3.410157-15.4375 3.234375-12.722657 22.007813-12.722657 15.230468 0 42.546875-5.503906 56.703125 0 13.925781 5.410157 11.332031 11.785157 11.332031 26.308594 0 40.019532-1.597656 80.375 0 120.320313.851562 22.390625 5.570312 22.945312 26.675781 23.996093 22.832031 1.125 46.027344 0 68.886719 0 8.859375 0 22.300781 2.816407 30.832031-.453124 19.679688-7.535157 13.960938-25.914063 13.960938-44.375v-210.933594c9.320312 8.925781 19.667969 17.65625 29.414062 17.921875 16.699219.390625 26.804688-21.617188 35.449219-33.613281.652344-.550782 1.128906-1.277344 1.382812-2.09375 0-.167969 0-.296876.066407-.460938.148437-.425781.214843-.878906.1875-1.328125 2.925781-15.132813-11.023438-21.4375-22.324219-30.535156zm-129.492188-122.273438v-37.65625c0-5.300781-2.703124-19.105469 0-24.097656 3.890626-7.203125 10.53125-4.726563 20.105469-4.726563 9.933594 0 31.027344-4.832031 35.789063 6.652344v122.71875l-51.601563-41.597656c-3.730469-4.378906-4.292969-9.011719-4.292969-21.292969zm72.96875 414.882813c-6.828124 14.445312-53.820312 6.765625-71.773437 6.765625-32.113281 0-43.871094 4.753906-43.871094-29.421875v-111.71875c0-17.917969 1.980469-25.597656-16.390625-29.523438-19.953125-4.214844-64-6.035156-83.566406.28125-16.511719 5.324219-14.789062 14.234375-14.796875 29.796875v111.359375c0 5.308594 3.285156 22.65625-.351563 27.121094-4.839843 5.972656-29.960937 2.105469-38.585937 2.105469-18.636719 0-68.21875 9.3125-76.707031-9.214844-7.679688-16.800781 0-55.550781 0-73.695313v-118.082031c0-14.839843-5.589844-44.527343-1.058594-60.648437l98.988281-79.835938c8.214844-6.628906 16.535157-14.25 25.035157-21.8125l24.832031-20.027344c1.417969-1.144531 2.722656-2.226562 3.949219-3.257812 3.148437-2.160156 6.324218-4.199219 9.542968-5.976562 8.957032-5.03125 12.433594-6.289063 16.476563-4.265626 1.152343.683594 2.378906 1.484376 3.761719 2.46875 2.5625 2.011719 5.617187 4.800782 10.242187 8.53125l150.851563 121.675782c1.09375.855468 2.246093 1.894531 3.414062 2.972656v173.71875c.007812 19.773438 8.53125 62.558594.007812 80.683594zm21.246094-252.5-28.414062-22.921875-128.589844-103.714844c-17.613281-14.207031-28.917969-31.171875-50.628906-18.167969-1.074219.648438-2.113282 1.402344-3.191406 2.066406-1.210938.75-2.414063 1.492188-3.625 2.339844-38.222657 24.546875-73.128907 60.082032-108.175782 88.351563l-48.835937 39.390625c-8.535157 6.828125-29.117188 30.609375-37.445313 30.207031-13.527344-.65625-26-29.789063-21.691406-38.320313 6.269531-12.453124 33.59375-27.105468 44.03125-35.515624l134.972656-108.863282c14.503906-11.730468 31.152344-30.265625 47.921875-38.652344 14.394531-7.210937 14.558594-2.3125 29.167969 9.46875l73.949219 59.667969c13.105469 16.210938 35.191406 29.863281 53.308593 42.996094l29.773438 24.015625c10.101562 8.148438 66.558594 42.9375 62.941406 57.964844-19.296875 25.96875-18.851562 31.15625-45.46875 9.6875zm0 0" fill="#262626"/></svg>