<svg height="502pt" viewBox="-40 0 502 502.80235" width="502pt" xmlns="http://www.w3.org/2000/svg"><path d="m211.410156 502.800781c-1.835937 0-3.464844-1.171875-4.046875-2.914062-.582031-1.742188.019531-3.664063 1.488281-4.765625l6.476563-4.777344-17.398437 10.070312c-1.941407 1.101563-4.402344.523438-5.648438-1.328124-1.246094-1.847657-.855469-4.347657.894531-5.730469l41.019531-31.878907-55.332031 31.9375c-1.96875 1.144532-4.488281.539063-5.722656-1.375-1.234375-1.910156-.75-4.457031 1.097656-5.78125l36.292969-26.054687-43.324219 25.019531c-1.953125 1.089844-4.414062.484375-5.640625-1.386718-1.226562-1.871094-.800781-4.371094.972656-5.730469l31.574219-23.398438-36.292969 20.941407c-1.941406 1.125-4.417968.554687-5.675781-1.304688-1.253906-1.859375-.851562-4.371094.914063-5.75l26.308594-20.480469-29.328126 16.929688c-1.894531 1.0625-4.285156.535156-5.554687-1.230469s-1.007813-4.199219.605469-5.65625l21.964844-19.355469-23.664063 13.65625c-1.914063 1.109375-4.359375.574219-5.632813-1.238281-1.273437-1.808594-.949218-4.292969.746094-5.71875l5.066406-4.265625-3.199218 1.84375c-1.792969 1.03125-4.070313.625-5.398438-.960937-1.324218-1.585938-1.324218-3.898438.003906-5.480469l5.871094-6.957031-3.054687 1.757812c-1.453125.839844-3.261719.75-4.621094-.230469-1.363281-.980469-2.023437-2.664062-1.691406-4.308593l1.382812-6.777344c-1.53125-.605469-2.574219-2.03125-2.6875-3.671875s.726563-3.195313 2.15625-4.007813l4.035157-2.328125c1.453124-.839843 3.261718-.746093 4.625.230469 1.359374.980469 2.023437 2.664062 1.691406 4.308594l-.949219 4.632812 15.96875-9.214844c1.792969-1.03125 4.066406-.625 5.394531.960938s1.328125 3.898438-.003906 5.480469l-5.871094 6.964843 23.304688-13.449218c1.910156-1.089844 4.335937-.546875 5.601562 1.25 1.265625 1.800781.957032 4.265625-.710937 5.695312l-5.050781 4.269532 19.507812-11.257813c1.894531-1.082031 4.304688-.558594 5.582031 1.21875 1.273438 1.773437 1 4.226563-.632812 5.675781l-21.957031 19.335938 45.542968-26.289063c1.941406-1.125 4.417969-.554687 5.675782 1.304688 1.253906 1.859375.855468 4.375-.914063 5.753906l-26.335937 20.519531 47.847656-27.621094c1.957031-1.113281 4.4375-.515624 5.675781 1.367188 1.234375 1.878906.796875 4.394531-1 5.75l-31.566406 23.398438 52.910156-30.566407c1.96875-1.140625 4.488281-.535156 5.722656 1.375 1.234375 1.914063.75 4.457031-1.097656 5.785157l-36.285156 26.058593 34.738281-20.050781c1.941406-1.109375 4.410156-.53125 5.65625 1.324219 1.25 1.859375.851562 4.363281-.910156 5.738281l-40.960938 31.847656 30.839844-17.800781c1.960938-1.132813 4.46875-.535156 5.707031 1.363281 1.238281 1.894532.777344 4.429688-1.046875 5.769532l-10.625 7.800781c1.929688 0 3.621094 1.296875 4.121094 3.164062.5 1.863281-.316406 3.832031-1.988281 4.796875l-61.011719 35.226563c-.65625.378906-1.398438.574219-2.152344.570312zm0 0" fill="#cad0d7"/><path d="m128.175781 417.5625c-1.90625.003906-3.582031-1.261719-4.105469-3.09375-.523437-1.835938.230469-3.792969 1.855469-4.800781l19.222657-11.945313-33.40625 19.234375c-2 1.101563-4.511719.429688-5.699219-1.519531-1.1875-1.945312-.632813-4.484375 1.261719-5.757812l103.679687-66.628907-128 73.90625c-1.996094 1.082031-4.492187.414063-5.675781-1.523437s-.644532-4.464844 1.230468-5.746094l139.867188-90.367188-168.359375 97.21875c-2.027344 1.207032-4.644531.546876-5.855469-1.476562-1.207031-2.023438-.546875-4.644531 1.476563-5.855469l67.15625-41.417969-77.882813 44.96875c-2.011718 1.089844-4.523437.402344-5.699218-1.5625-1.171876-1.964843-.585938-4.507812 1.332031-5.757812l76.730469-47.265625-83.199219 48.015625c-2.015625 1.164062-4.589844.496094-5.789063-1.5-1.199218-1.992188-.578125-4.578125 1.394532-5.8125l132.71875-82.867188-137.609376 79.445313c-2.015624 1.113281-4.554687.425781-5.730468-1.554687-1.179688-1.976563-.574219-4.535157 1.371094-5.777344l59.28125-36.230469-59.546876 34.347656c-1.988281.878907-4.320312.125-5.414062-1.757812-1.09375-1.878907-.601562-4.28125 1.148438-5.574219l7.226562-4.367188-4.207031 2.421876c-2.015625 1.113281-4.554688.429687-5.730469-1.550782-1.179688-1.980468-.570312-4.539062 1.371094-5.777344l63.9375-39.074218-58.777344 33.910156c-1.859375 1.074219-4.230469.59375-5.527344-1.117188-1.300781-1.710937-1.125-4.121093.410156-5.625l11.535157-11.28125c-1.621094-.503906-2.785157-1.921874-2.972657-3.605468-.183593-1.6875.648438-3.324219 2.121094-4.167969l21.894532-12.644531c1.863281-1.074219 4.230468-.597656 5.53125 1.113281 1.296874 1.710937 1.121093 4.121094-.410157 5.625l-7.636719 7.476563 327.023438-188.835938c2.023438-1.203125 4.644531-.535156 5.847656 1.492188 1.203125 2.023437.539063 4.644531-1.488281 5.847656l-63.847656 39.007812 59.734375-34.484375c2.023437-1.125 4.574218-.433593 5.75 1.558594 1.175781 1.996094.546875 4.5625-1.414063 5.789063l-7.179687 4.351562 2.859375-1.648438c2.011719-1.074218 4.515625-.375 5.679687 1.585938 1.167969 1.960938.582032 4.492188-1.328125 5.746094l-59.484375 36.359375 55.152344-31.84375c2.019531-1.214844 4.640625-.554688 5.851562 1.464843 1.210938 2.023438.554688 4.644532-1.46875 5.855469l-132.613281 82.816407 128.253907-74.042969c2.011718-1.09375 4.527343-.402344 5.699218 1.5625 1.171875 1.964843.585938 4.503906-1.328125 5.757812l-76.800781 47.292969 72.414062-41.816406c2.023438-1.207032 4.644532-.546875 5.851563 1.476562 1.210937 2.023438.550781 4.644532-1.476563 5.855469l-67.207031 41.453125 62.847657-36.28125c2.011718-1.230469 4.636718-.597656 5.867187 1.410156 1.230469 2.011719.597656 4.636719-1.410156 5.867188l-139.949219 90.386718 135.5-78.234374c2.015625-1.226563 4.640625-.59375 5.867188 1.421874 1.230468 2.011719.59375 4.636719-1.417969 5.863282l-103.621094 66.597656 99.242187-57.285156c2.015626-1.164063 4.589844-.496094 5.789063 1.496094 1.195313 1.996093.578125 4.582031-1.394531 5.816406l-19.234375 11.996094 14.898437-8.601563c2.015625-1.222656 4.640625-.578125 5.863282 1.433594 1.222656 2.015625.582031 4.640625-1.433594 5.863281l-48.015625 30.550781 43.5625-25.148437c1.984375-1.101563 4.480469-.453125 5.683593 1.472656 1.203126 1.925781.6875 4.453125-1.171874 5.753906l-81.175782 54.683594 76.6875-44.28125c2.003906-1.140625 4.550782-.484375 5.753906 1.484375 1.199219 1.96875.621094 4.535156-1.308593 5.796875l-17.363281 11.1875 12.933593-7.46875c1.980469-1.136719 4.503907-.511719 5.726563 1.410156 1.222656 1.925782.71875 4.472656-1.152344 5.785156l-54.613281 38.117188 59.941406-34.601562c1.984375-1.132813 4.515625-.496094 5.726563 1.441406 1.214843 1.941406.683593 4.492187-1.207032 5.785156l-25.027344 16.921875 35.242188-20.34375c1.992188-1.097656 4.492188-.445313 5.691406 1.488281 1.195313 1.933594.667969 4.464844-1.203125 5.757813l-8.609375 5.722656 13.414063-7.730469c1.972656-1.066406 4.433593-.429687 5.636719 1.464844 1.199218 1.890625.734374 4.390625-1.070313 5.722656l-24.933594 17.363282 28.628907-16.527344c1.925781-1.089844 4.367187-.527344 5.621093 1.300781 1.25 1.828125.894531 4.308594-.816406 5.710937l-40.210937 32.265626 42.496093-24.53125c1.878907-1.007813 4.207031-.476563 5.464844 1.242187 1.253906 1.71875 1.050781 4.101563-.480469 5.582031l-27.964844 25.070313 23.527344-13.574219c1.84375-1.050781 4.175782-.589844 5.480469 1.085938 1.304687 1.671874 1.179687 4.050781-.292969 5.578124l-12.652344 13.023438c1.824219.207031 3.316407 1.5625 3.691407 3.359375.378906 1.800781-.4375 3.640625-2.027344 4.566406l-21.898437 12.644531c-1.84375 1.066407-4.1875.609376-5.496094-1.070312s-1.183594-4.0625.300781-5.59375l10.539063-10.835938-32.488282 18.730469c-1.875 1.007813-4.207031.476563-5.464844-1.242187-1.253906-1.722656-1.050781-4.105469.480469-5.585938l27.972657-25.0625-55.304688 31.890625c-1.925781 1.070313-4.351562.5-5.59375-1.320312-1.246094-1.820313-.898438-4.289063.796875-5.695313l40.203125-32.253906-68.027344 39.269531c-1.972656 1.066407-4.433594.429688-5.636718-1.464843-1.199219-1.890626-.734376-4.390626 1.070312-5.71875l24.933594-17.351563-42.511719 24.535156c-1.984375 1.058594-4.449219.394531-5.636719-1.515625-1.183594-1.910156-.683594-4.414062 1.148438-5.71875l8.53125-5.710937-22.390625 12.945312c-1.984375 1.117188-4.496094.476563-5.703125-1.449219-1.210938-1.929687-.695313-4.46875 1.171875-5.769531l25.089843-16.964843-41.933593 24.183593c-1.972657 1.09375-4.457031.460938-5.667969-1.441406s-.730469-4.417969 1.09375-5.742187l54.613281-38.101563-78.457031 45.285156c-1.996094 1.082031-4.488281.414063-5.675781-1.523437-1.183594-1.9375-.644531-4.464844 1.230469-5.746094l17.238281-11.09375-31.863281 18.363281c-1.984376 1.097657-4.484376.453125-5.6875-1.472656-1.203126-1.925781-.6875-4.453125 1.171874-5.753906l81.210938-54.699219-107.269531 61.925781c-2.003907 1.085938-4.5.40625-5.683594-1.539062-1.179687-1.945313-.625-4.476563 1.261719-5.75l47.964844-30.53125-65.527344 37.820312c-.644532.386719-1.378906.59375-2.132813.605469zm0 0" fill="#fab153"/><path d="m57.382812 325.386719c-1.90625-.003907-3.582031-1.273438-4.097656-3.109375-.519531-1.835938.246094-3.792969 1.871094-4.792969l39.253906-24.105469-34.894531 20.121094c-1.996094 1.066406-4.480469.390625-5.65625-1.546875-1.179687-1.933594-.636719-4.449219 1.230469-5.734375l147.351562-94.546875-142.925781 82.515625c-2.015625 1.21875-4.636719.570312-5.855469-1.445312-1.21875-2.019532-.570312-4.640626 1.445313-5.859376l115.992187-73.292968-111.582031 64.417968c-2 1.085938-4.5.410157-5.679687-1.539062-1.179688-1.945312-.625-4.472656 1.261718-5.746094l128.425782-81.972656-124.007813 71.585938c-2.007813 1.148437-4.566406.484374-5.765625-1.492188-1.199219-1.980469-.601562-4.554688 1.347656-5.804688l114.132813-72.53125-109.714844 63.332032c-2.003906 1.089844-4.511719.40625-5.6875-1.550782-1.175781-1.953124-.605469-4.488281 1.292969-5.753906l83.859375-52.707031-79.464844 45.875c-2.011719 1.160156-4.589844.492187-5.785156-1.5-1.199219-1.996094-.578125-4.582031 1.390625-5.816406l75.972656-47.777344-71.578125 41.363281c-2.011719 1.160156-4.589844.496094-5.785156-1.5-1.199219-1.992187-.578125-4.582031 1.390625-5.8125l64.855468-40.730468-60.460937 34.925781c-2.015625 1.136719-4.566406.457031-5.753906-1.527344s-.578125-4.554687 1.378906-5.792969l30.277344-18.824218-25.902344 14.964843c-2.011719 1.164063-4.589844.496094-5.785156-1.496093-1.199219-1.996094-.578125-4.582032 1.390625-5.816407l40.707031-25.472656-36.3125 20.960937c-2 1.164063-4.566406.515626-5.777344-1.457031-1.214843-1.976562-.628906-4.554687 1.316407-5.816406l99.839843-65.140625-95.378906 55.074219c-2.007813 1.105469-4.535156.425781-5.714844-1.542969-1.179687-1.96875-.59375-4.519531 1.332031-5.773438l8.402344-5.246093-3.171875 1.835937c-2.019531 1.214844-4.640625.570313-5.859375-1.449218-1.21875-2.015626-.570312-4.636719 1.445313-5.855469l26.277343-16.582031-20.832031 12.015624c-2.015625 1.21875-4.640625.574219-5.863281-1.441406-1.21875-2.019531-.574219-4.644531 1.441406-5.863281l21.027344-13.3125-14.371094 8.292969c-1.996094 1.160156-4.550781.519531-5.765625-1.445313-1.214843-1.960937-.648437-4.535156 1.277344-5.804687l60.015625-39.699219-50.679688 29.261719c-1.980468 1.175781-4.539062.566406-5.777343-1.375-1.238281-1.945313-.707031-4.519532 1.195312-5.820313l65.816407-46.078125-50.082032 28.910156c-1.996094 1.253907-4.628906.652344-5.882812-1.34375-1.253906-1.996093-.652344-4.628906 1.34375-5.882812l16.308594-11.09375c-1.976563.496094-4.027344-.472656-4.898438-2.316406-.867188-1.84375-.316406-4.042969 1.324219-5.253906l23.890625-17.628907c-.464844-.351562-.855469-.792969-1.140625-1.296875-1.179688-2.039062-.484375-4.648437 1.550781-5.828125l43.007812-24.808593c1.960938-1.121094 4.453126-.523438 5.691407 1.367187 1.234375 1.886719.789062 4.414063-1.023438 5.761719l-5.359375 3.949218 32.394532-18.714843c1.992187-1.179688 4.558593-.554688 5.789062 1.40625 1.230469 1.960937.671875 4.542969-1.257812 5.824219l-14.421876 9.792968 32.699219-18.875c1.980469-1.175781 4.539063-.566406 5.777344 1.378906 1.238281 1.941407.707031 4.515626-1.195313 5.816407l-65.792968 46.113281 88.058594-50.816406c1.992187-1.113282 4.511718-.460938 5.710937 1.480468 1.199219 1.945313.65625 4.488282-1.234375 5.773438l-60.003906 39.679688 73-42.15625c2.011718-1.144532 4.570312-.484376 5.769531 1.496093 1.199219 1.976563.601563 4.550781-1.347656 5.800781l-21.070313 13.339844 28.683594-16.554687c2.007812-1.128907 4.550781-.453125 5.738281 1.519531s.597657 4.53125-1.335937 5.785156l-26.316406 16.605469 32.613281-18.835937c2.023437-1.210938 4.644531-.554688 5.859375 1.464843 1.210937 2.023438.558594 4.644531-1.464844 5.859375l-8.285156 5.195313 13.535156-7.816407c1.296875-.796874 2.921875-.84375 4.265625-.117187 1.339844.722656 2.191406 2.109375 2.234375 3.632813.042969 1.527343-.730469 2.957031-2.03125 3.753906l-99.839844 65.160156 108.878906-62.90625c2.019532-1.214844 4.640626-.5625 5.855469 1.457031 1.21875 2.019531.566407 4.640625-1.453125 5.855469l-40.714844 25.457031 45.230469-26.105469c2.007813-1.058593 4.492188-.359374 5.652344 1.59375 1.164063 1.949219.59375 4.46875-1.292969 5.730469l-30.25 18.773438 32.953125-19.03125c2.011719-1.125 4.550781-.453125 5.742188 1.519531 1.1875 1.972656.597656 4.535156-1.335938 5.785156l-64.914062 40.746094 68.828125-39.738281c2.019531-1.21875 4.644531-.566407 5.859375 1.453125 1.214843 2.019531.5625 4.644531-1.457031 5.859375l-75.945313 47.726562 78.804687-45.5c2.015626-1.160156 4.589844-.496093 5.789063 1.5 1.199219 1.992188.578125 4.578125-1.394531 5.8125l-83.847656 52.703125 86.546874-49.929687c2.007813-1.148438 4.566407-.484375 5.765626 1.496093 1.199218 1.976563.601562 4.550782-1.347657 5.800782l-114.140625 72.53125 116.511719-67.257813c2.011719-1.148437 4.570313-.484375 5.769531 1.492188 1.199219 1.980469.601563 4.554687-1.347656 5.804687l-128.390625 81.917969 130.558594-75.375c2.015625-1.21875 4.640625-.574219 5.863281 1.441406 1.21875 2.019531.574219 4.644531-1.441406 5.863281l-116.054688 73.3125 115.617188-66.757812c2.003906-1.121094 4.535156-.453125 5.726562 1.507812 1.195313 1.960938.621094 4.515626-1.296875 5.78125l-147.378906 94.605469 146.910156-84.84375c2.015625-1.117187 4.550781-.429687 5.730469 1.550781 1.179688 1.980469.570312 4.539063-1.371094 5.777344l-39.117187 24.066406 35.710937-20.617187c2.042969-1.179687 4.65625-.476563 5.835938 1.566406 1.175781 2.042969.476562 4.652344-1.566406 5.832031l-305.539063 176.382813c-.644531.378906-1.382813.582031-2.132813.589844zm0 0" fill="#fab153"/><path d="m35.429688 414.890625c27.945312 7.023437 61.820312 3.78125 92.472656 2.132813 2.917968 46.355468 36.242187 88.425781 85.972656 85.292968 46.21875-2.910156 76.171875-42.308594 79.566406-86.066406h42.667969c36.871094 0 77.816406 1.707031 85.46875-44.84375 0-.085938-.066406-.128906-.066406-.214844 0-.085937.152343-.273437.136719-.425781-.363282-17.082031-10.148438-32.5625-25.421876-40.21875-8.484374-2.023437-17.085937-3.53125-25.753906-4.511719-7.679687-9.847656 0-56.210937 0-68.402344 0-60.894531 10.035156-131.757812-24.746094-185.378906-86.460937-133.394531-290.808593-62.695312-294.777343 88.984375-1.441407 54.800781-.085938 109.789063 0 164.625-17.832031-.148437-34.554688 8.628907-44.558594 23.390625-7.125 12.28125-7.941406 27.230469-2.195313 40.214844 5.742188 12.980469 17.355469 22.433594 31.234376 25.421875zm242.445312 24.746094c-2.808594 10.070312-7.433594 19.539062-13.652344 27.941406-48.144531 63.886719-117.101562 8.769531-123.65625-50.347656h122.878906c2.5625 0 18.261719-2.03125 20.542969 0-2.667969 7.28125-4.714843 14.773437-6.113281 22.398437zm-223.367188-108.722657c2.167969 0 8.796876-1.328124 8.796876-4.359374v-148.480469c0-98.3125 68.269531-196.8125 181.394531-166.492188 142.652343 38.203125 113.492187 206.121094 113.492187 318.292969 0 1.238281 2.980469 1.050781 3.558594 1.050781 12.078125-.898437 23.996094 3.183594 32.980469 11.300781 8.988281 8.117188 14.261719 19.558594 14.59375 31.664063-8.011719 46.675781-56.167969 36.957031-88.992188 36.957031h-27.503906c-.832031-.679687-1.878906-1.039062-2.953125-1.015625h-152.585938c-2-.164062-4.007812.183594-5.835937 1.015625h-46.8125c-9.585937.605469-19.199219.605469-28.785156 0-45.78125-6.007812-68.847657-79.933594-1.347657-79.933594zm0 0" fill="#262626"/></svg>