<svg height="503pt" viewBox="-47 0 503 503.58588" width="503pt" xmlns="http://www.w3.org/2000/svg"><path d="m222.441406 501.769531c-1.902344 0-3.574218-1.257812-4.101562-3.082031-.53125-1.828125.214844-3.78125 1.824218-4.796875l.671876-.425781-13.386719 7.722656c-1.984375 1.074219-4.460938.417969-5.652344-1.496094-1.191406-1.914062-.691406-4.421875 1.144531-5.730468l89.429688-59.949219-116.351563 67.160156c-2 1.097656-4.511719.429687-5.699219-1.519531-1.1875-1.949219-.632812-4.488282 1.261719-5.761719l66.738281-42.664063-86.5 49.945313c-1.992187 1.082031-4.484374.417969-5.671874-1.511719-1.191407-1.929687-.664063-4.449218 1.199218-5.742187l122.761719-80.308594-149.914063 86.589844c-2.007812 1.085937-4.511718.402343-5.6875-1.554688-1.179687-1.953125-.609374-4.488281 1.292969-5.75l77.8125-48.640625-92.074219 53.152344c-2.003906 1.089844-4.511718.402344-5.6875-1.550781-1.175781-1.953125-.605468-4.488281 1.292969-5.753907l102.527344-64.28125-114.949219 66.339844c-2.027344 1.207032-4.648437.546875-5.855468-1.476562-1.207032-2.023438-.546876-4.644532 1.476562-5.855469l64.078125-39.472656-70.9375 40.957031c-2.015625 1.078125-4.515625.378906-5.679687-1.582031-1.167969-1.964844-.582032-4.496094 1.324218-5.746094l14.277344-8.695313-19.113281 11.03125c-2.015625 1.117188-4.554688.429688-5.730469-1.550781-1.179688-1.980469-.574219-4.539062 1.371094-5.777343l41.761718-25.488282-45.59375 26.316406c-2.023437 1.210938-4.644531.554688-5.855468-1.46875-1.210938-2.019531-.554688-4.640624 1.46875-5.851562l114.933594-71.289062-121.019532 69.90625c-2.007812 1.058593-4.492187.359374-5.652344-1.59375-1.164062-1.949219-.59375-4.46875 1.292969-5.730469l96.042969-59.082031-99.210938 57.28125c-2.011718 1.164062-4.589843.496093-5.785156-1.496094-1.199218-1.996094-.578125-4.582032 1.390625-5.816406l151.152344-94.34375-155.554687 89.796874c-2.011719 1.0625-4.503907.355469-5.664063-1.605468-1.15625-1.960938-.570313-4.484375 1.328125-5.734375l12.484375-7.570313-12.363281 7.144532c-2.015625 1.160156-4.589844.496093-5.789063-1.5-1.199219-1.992188-.578125-4.578126 1.394531-5.8125l159.351563-99.976563-161.425781 93.191406c-2.023438 1.207031-4.640625.542969-5.847656-1.480469-1.207032-2.023437-.542969-4.644531 1.480468-5.847656l100.351563-62.011718-99.644531 57.523437c-2.023438 1.203125-4.644532.542969-5.847657-1.484375-1.207031-2.023438-.546875-4.640625 1.480469-5.847656l64.996094-39.988282-62.863282 36.34375c-2.011718 1.148438-4.570312.488282-5.765624-1.492187-1.199219-1.980469-.605469-4.554687 1.34375-5.804687l125.210937-79.433594-122.421875 70.621094c-2.019531 1.214843-4.640625.5625-5.855469-1.457032-1.21875-2.019531-.566406-4.640625 1.453125-5.855468l72.859375-45.59375-68.703125 39.660156c-2.007812 1.074218-4.5.382812-5.671875-1.570313-1.167969-1.953125-.597656-4.480469 1.292969-5.742187l29.78125-18.480469-25.402344 14.648437c-2.011718 1.234376-4.640625.601563-5.875-1.410156-1.230468-2.011718-.601562-4.644531 1.414063-5.875l99.171875-64.855468-94.710938 54.613281c-2.007812 1.148437-4.566406.488281-5.765625-1.492188s-.601562-4.554687 1.347657-5.800781l38.722656-24.613281-34.304688 19.808593c-1.988281 1.113282-4.503906.46875-5.707031-1.46875-1.207031-1.933593-.675781-4.476562 1.203125-5.769531l72.140625-48.425781-67.636719 39.046875c-2.003906 1.140625-4.550781.484375-5.75-1.480469-1.203125-1.96875-.625-4.535156 1.304688-5.796875l17.699218-11.460937-13.253906 7.679687c-1.972656 1.109375-4.464844.484375-5.683594-1.417969-1.21875-1.90625-.738281-4.433593 1.09375-5.757812l52.804688-37.308594-48.222656 27.800782c-1.949219 1.089843-4.402344.492187-5.636719-1.367188-1.230469-1.855469-.824219-4.351562.933594-5.722656l43.570312-32.964844-38.867187 22.433594c-1.964844 1.128906-4.472656.523437-5.703125-1.378906-1.234375-1.902344-.765625-4.4375 1.070312-5.769532l10.785157-7.757812-6.117188 3.53125c-1.941406 1.125-4.421875.554687-5.675781-1.304688-1.253907-1.859375-.855469-4.371094.914062-5.75l10.769531-8.464844-5.90625 3.414063c-1.800781 1.046875-4.101562.640625-5.433593-.960937-1.332031-1.605469-1.308594-3.941407.058593-5.515626l11.945313-13.960937c-1.773437.304687-3.546875-.523437-4.453125-2.074219-1.179688-2.042968-.480469-4.652344 1.558594-5.828125l19.703125-11.375c1.800781-1.039062 4.089843-.632812 5.417969.964844 1.328124 1.601563 1.3125 3.921875-.039063 5.503906l-11.46875 13.394531 36.101563-20.828124c1.9375-1.09375 4.390624-.515626 5.636718 1.324218 1.246094 1.84375.863282 4.335938-.875 5.722656l-10.777344 8.476563 26.90625-15.523437c1.96875-1.128907 4.472657-.523438 5.707032 1.378906 1.230468 1.902344.761718 4.4375-1.074219 5.773437l-10.777344 7.78125 25.855469-14.933593c1.953125-1.117188 4.4375-.53125 5.679688 1.347656 1.242187 1.875.816406 4.390625-.976563 5.75l-43.570313 32.957031 69.382813-40.054687c1.972656-1.109376 4.464844-.484376 5.683594 1.421874 1.21875 1.902344.742187 4.429688-1.089844 5.753907l-52.761719 37.28125 77.003906-44.457031c1.996094-1.082032 4.492188-.414063 5.675782 1.523437s.644531 4.464844-1.230469 5.746094l-17.730469 11.503906 32.5-18.773437c1.992188-1.117188 4.503906-.46875 5.710938 1.464843 1.203125 1.9375.675781 4.476563-1.203125 5.769531l-72.117188 48.410157 96.386719-55.644531c2.007812-1.148438 4.566406-.484376 5.765625 1.492187 1.199219 1.980469.601563 4.554687-1.347656 5.804687l-38.808594 24.695313 55.414063-31.992187c1.996093-1.097657 4.503906-.4375 5.695312 1.503906 1.191406 1.9375.652344 4.472656-1.230469 5.757812l-99.167969 64.886719 124.972657-72.148437c2.023437-1.210938 4.640625-.554688 5.855469 1.46875 1.210937 2.019531.550781 4.640624-1.46875 5.851562l-29.800782 18.5 44.714844-25.820312c1.308594-.785157 2.933594-.816407 4.269531-.078126 1.332031.738282 2.171875 2.132813 2.199219 3.65625.03125 1.523438-.757812 2.949219-2.0625 3.734376l-72.78125 45.542968 91.578125-52.855468c2.003906-1.101563 4.523437-.425782 5.707031 1.53125 1.183594 1.957031.613282 4.5-1.292968 5.765624l-125.238282 79.4375 150.273438-86.734374c2.023437-1.207032 4.644531-.542969 5.847656 1.480468 1.207031 2.023438.546875 4.644532-1.480469 5.847656l-65.023437 40.007813 81.988281-47.335937c2.015625-1.136719 4.570313-.457032 5.757813 1.527343s.574218 4.554688-1.378907 5.792969l-100.328125 61.980469 115.859375-66.894531c1.304688-.785157 2.933594-.816407 4.265625-.078126 1.335938.738282 2.175782 2.132813 2.203125 3.65625.027344 1.523438-.761719 2.949219-2.066406 3.734376l-159.359375 99.992187 168.695312-97.40625c2.027344-1.199219 4.644532-.527344 5.84375 1.503906 1.199219 2.027344.527344 4.644531-1.5 5.84375l-12.742187 7.679688 13.03125-7.527344c2.023437-1.210937 4.644531-.558594 5.859375 1.464844 1.210938 2.019531.558594 4.644531-1.464844 5.859375l-151.039062 94.257812 150.074218-86.597656c2.015626-1.113281 4.554688-.425781 5.734376 1.554688 1.175781 1.980468.570312 4.535156-1.371094 5.777343l-96.222656 59.1875 91.859374-53.035156c2.015626-1.136719 4.570313-.457031 5.757813 1.527344s.574219 4.554687-1.378906 5.792969l-114.851563 71.1875 110.472656-63.78125c2.023438-1.152344 4.597657-.46875 5.785157 1.53125 1.1875 2.003906.550781 4.585937-1.433594 5.808593l-41.8125 25.558594 37.460937-21.660156c2.011719-1.042969 4.488282-.335938 5.640626 1.613281 1.15625 1.945312.585937 4.457031-1.296876 5.71875l-14.0625 8.53125 9.71875-5.605469c2.011719-1.089843 4.527344-.398437 5.699219 1.566407 1.171875 1.964843.585938 4.503906-1.328125 5.757812l-64.195312 39.59375 59.824218-34.535156c2.015626-1.164063 4.589844-.496094 5.789063 1.5 1.199219 1.992187.578125 4.578125-1.394531 5.8125l-102.5625 64.300781 98.167968-56.707031c2.011719-1.105469 4.539063-.425782 5.71875 1.542968 1.179688 1.96875.59375 4.519532-1.332031 5.769532l-77.652343 48.582031 73.265624-42.238281c1.996094-1.101563 4.503907-.4375 5.695313 1.5 1.191406 1.941406.648437 4.476562-1.230469 5.761718l-122.785156 80.28125 118.320312-68.269531c2-1.066406 4.484376-.390625 5.660157 1.546875 1.175781 1.933594.636719 4.453125-1.230469 5.734375l-66.796875 42.667969 62.367187-36.003906c1.988282-1.113282 4.503907-.46875 5.710938 1.464844 1.203125 1.9375.675781 4.476562-1.203125 5.769531l-89.429687 59.949219 84.242187-48.640626c2.015625-1.21875 4.636719-.570312 5.855469 1.445313 1.21875 2.019531.570312 4.640625-1.445313 5.859375l-4.328125 2.730469c2.019532-.480469 4.085938.5625 4.90625 2.464843.820313 1.90625.148438 4.125-1.585937 5.257813l-22.339844 14.507813 15.257813-8.808594c1.976562-1.152344 4.515624-.542969 5.746093 1.386718 1.234375 1.929688.722657 4.488282-1.15625 5.800782l-48.9375 34.5 37.101563-21.429688c1.957031-1.125 4.449218-.539062 5.695312 1.347656 1.242188 1.882813.804688 4.40625-1 5.761719l-32.300781 24.234375 12.035156-6.9375c1.320313-.839844 2.996094-.886718 4.367188-.125 1.367187.765625 2.207031 2.214844 2.1875 3.785156-.023438 1.566407-.902344 2.996094-2.289063 3.722657l-73.472656 42.425781c-1.953125 1.128906-4.449219.539062-5.691406-1.34375-1.246094-1.882812-.808594-4.410156.996094-5.765625l32.335937-24.257813-57.574219 33.195313c-1.972656 1.105469-4.464844.484375-5.683594-1.421875s-.742187-4.429688 1.089844-5.757812l48.929688-34.472657-72.15625 41.652344c-1.992188 1.066406-4.472656.398437-5.65625-1.53125-1.179688-1.925781-.652344-4.441406 1.203125-5.730469l22.339843-14.507812-37.777343 21.769531c-.644531.382813-1.382813.589844-2.132813.597656zm0 0" fill="#cad0d7"/><path d="m209.195312 373.050781c-1.714843 0-3.261718-1.027343-3.929687-2.609375-.667969-1.578125-.320313-3.40625.875-4.636718l7.382813-7.59375-20.316407 11.726562c-1.878906 1.03125-4.234375.511719-5.5-1.21875s-1.054687-4.128906.496094-5.609375l16.214844-14.71875-22.734375 13.105469c-1.914063 1.097656-4.351563.554687-5.617188-1.253906-1.265625-1.808594-.941406-4.285157.746094-5.707032l13.652344-11.4375-14.921875 8.621094c-1.886719 1.125-4.316407.640625-5.621094-1.125-1.308594-1.761719-1.0625-4.230469.566406-5.703125l18.433594-17.226563-15.515625 8.992188c-1.8125 1.035156-4.113281.605469-5.429688-1.019531-1.3125-1.625-1.257812-3.964844.132813-5.523438l10.597656-11.734375c-1.890625-.085937-3.5-1.410156-3.949219-3.25-.449218-1.839844.367188-3.753906 2.003907-4.703125l19.710937-11.382812c1.816406-1.039063 4.117188-.605469 5.429688 1.019531 1.316406 1.625 1.261718 3.964844-.128906 5.523438l-9.15625 10.128906 24.34375-14.046875c1.882812-1.109375 4.300781-.617188 5.597656 1.140625 1.300781 1.757812 1.0625 4.214844-.554688 5.6875l-18.414062 17.210937 25.4375-14.683593c1.917968-1.105469 4.359375-.558594 5.625 1.257812 1.269531 1.8125.9375 4.292969-.761719 5.710938l-13.703125 11.4375 14.507812-8.347657c1.878907-1.03125 4.230469-.511719 5.496094 1.21875 1.269532 1.730469 1.054688 4.128907-.496094 5.609375l-16.214843 14.710938 12.453125-7.183594c1.84375-1.078125 4.203125-.625 5.515625 1.0625 1.3125 1.683594 1.175781 4.082031-.320313 5.609375l-8.917968 9.164063c1.921874.027343 3.585937 1.332031 4.070312 3.191406s-.332031 3.8125-1.996094 4.769531l-22.921875 13.226563c-.652343.390624-1.402343.59375-2.167969.589843zm0 0" fill="#365972"/><g fill="#262626"><path d="m8.835938 418.695312c37.542968 109.363282 180.664062 81.792969 270.078124 81.792969 51.710938-2.457031 100.078126-29.3125 119.84375-79.25 15.359376-38.800781 8.414063-88.40625 8.414063-129.089843 0-35.058594 8.832031-81.828126-37.703125-87.253907-29.703125-3.464843-61.890625 0-91.75 0h-143.625c-.058594-43.480469-3.90625-88.695312.402344-131.925781 8.398437-84.097656 126.898437-84.925781 140.015625-3.039062 3.675781 22.972656.851562 47.914062.851562 71.082031 0 2.792969 12.355469.792969 12.355469-3.308594 0-38.820313 7.253906-84.539063-23.039062-114.492187-28.804688-27.039063-72.363282-30.875-105.453126-9.292969-56.421874 35.992187-38.46875 132.417969-37.546874 190.949219h-3.5c-26.257813 0-59.433594-5.511719-85.28125 1.921874-36.277344 10.425782-30.601563 47.109376-30.601563 76.945313-.015625 42.347656-7.492187 94.171875 6.539063 134.960937zm5.800781-171.195312c2.015625-40.960938 33.28125-37.144531 62.40625-37.144531h46.078125c1.261718.238281 2.554687.238281 3.8125 0h188.238281c24.882813 0 66.78125-7.765625 77.902344 22.269531 10.988281 29.699219 1.707031 76.023438 1.707031 106.976562 0 73.871094-15.753906 150.910157-110.679688 155.425782-66.3125 0-166.511718 17.917968-222.71875-23.792969-63.214843-47.015625-50.175781-153.890625-46.746093-223.734375zm0 0"/><path d="m198.523438 371.890625v32.675781c0 5.578125 12.40625 3.171875 12.40625-1.359375v-32.058593c18.507812-2.585938 32.703124-17.738282 34.074218-36.378907 0-.125-.085937-.195312-.105468-.304687-.015626-.113282.148437-.292969.136718-.453125-2.644531-49.246094-80.332031-44.425781-80.605468 2.933593-.382813 9.234376 3.054687 18.214844 9.507812 24.828126 6.453125 6.613281 15.347656 10.273437 24.585938 10.117187zm13.652343-65.253906c12.300781 5.144531 20.351563 17.121093 20.480469 30.453125-.957031 13.742187-9.796875 27.914062-23.425781 29.390625-1.851563-.734375-3.90625-.800781-5.800781-.179688-1.53125-.214843-3.039063-.566406-4.507813-1.039062-13.171875-4.558594-21.996094-16.980469-21.964844-30.917969-.042969-18.183594 15.992188-35.113281 35.226563-27.734375zm0 0"/></g></svg>