<svg id="icons" height="512" viewBox="0 0 60 60" width="512" xmlns="http://www.w3.org/2000/svg"><g fill="#3778c6"><path d="m8.978 38.467a.5.5 0 0 1 -.446-.727l.817-1.6-2.01 1.16a.5.5 0 0 1 -.652-.732l.928-1.247-1.429.826a.5.5 0 0 1 -.657-.724l.971-1.365-1.525.88a.5.5 0 0 1 -.57-.817l3.329-2.781-4.027 2.325a.5.5 0 0 1 -.593-.8l2.4-2.267-3.09 1.784a.5.5 0 0 1 -.558-.826l1.9-1.484-2.216 1.285a.5.5 0 0 1 -.539-.841l.866-.613-.556.321a.5.5 0 0 1 -.556-.824l3.5-2.713-.085.049a.5.5 0 0 1 -.572-.816l3.031-2.544a.5.5 0 0 1 .2-.661l1.921-1.115a.5.5 0 0 1 .571.816l-.714.6 1.488-.86a.5.5 0 0 1 .557.828l-3.497 2.716 3.54-2.044a.5.5 0 0 1 .539.841l-1.512 1.066a.5.5 0 0 1 .294.894l-1.9 1.483.6-.345a.5.5 0 0 1 .592.8l-2.4 2.267 5.317-3.071a.5.5 0 0 1 .571.817l-4.327 3.613a.5.5 0 0 1 .184.739l-.976 1.362 1.523-.878a.5.5 0 0 1 .651.732l-.927 1.247 1.376-.794a.494.494 0 0 1 .593.07.5.5 0 0 1 .1.589l-.816 1.6.213-.123a.5.5 0 1 1 .5.866l-1.672.969a.506.506 0 0 1 -.25.067z"/><path d="m34.073 50.645a.5.5 0 0 1 -.25-.933l1.934-1.112a.5.5 0 0 1 .5.865l-1.934 1.116a.5.5 0 0 1 -.25.064z"/><path d="m29.338 59.341a.5.5 0 0 1 -.306-.9l1.12-.865-1.6.926a.5.5 0 0 1 -.55-.833l2.888-2.158-3.379 1.95a.5.5 0 0 1 -.558-.827l4.137-3.228-4.844 2.794a.5.5 0 0 1 -.595-.8l2.949-2.8-3.778 2.18a.5.5 0 0 1 -.66-.717l1-1.444-1.588.916a.5.5 0 0 1 -.641-.743l.828-1.045-1.17.675a.5.5 0 0 1 -.686-.678l.77-1.367-.068.038a.5.5 0 0 1 -.5-.865l1.649-.952a.5.5 0 0 1 .685.677l-.769 1.369 1.859-1.074a.5.5 0 0 1 .642.743l-.828 1.046 1.255-.724a.5.5 0 0 1 .66.718l-1 1.443 5.46-3.151a.5.5 0 0 1 .594.794l-2.944 2.807 7.437-4.293a.5.5 0 0 1 .557.827l-4.135 3.227 4.471-2.579a.5.5 0 0 1 .55.833l-2.893 2.159.746-.43a.5.5 0 0 1 .555.828l-3.2 2.475a.49.49 0 0 1 .093.117.5.5 0 0 1 -.183.683l-3.777 2.18a.493.493 0 0 1 -.253.068z"/><path d="m33.021 41a.5.5 0 0 1 -.25-.933l4.7-2.711a.5.5 0 0 1 .5.866l-4.695 2.711a.51.51 0 0 1 -.255.067z"/><path d="m52 28.29a.5.5 0 0 1 -.4-.8l.916-1.22-1.406.811a.5.5 0 0 1 -.629-.759l.658-.766-.983.568a.5.5 0 0 1 -.63-.758l.669-.784-.8.462a.5.5 0 0 1 -.655-.725l.6-.838a.5.5 0 0 1 -.234-.933l1.645-.95a.5.5 0 0 1 .655.726l-.5.689 1.3-.752a.5.5 0 0 1 .63.758l-.669.783 1-.578a.5.5 0 0 1 .629.758l-.658.766.985-.568a.5.5 0 0 1 .649.733l-.916 1.221 1.408-.813a.5.5 0 0 1 .5.866l-3.527 2.037a.5.5 0 0 1 -.237.066z"/><path d="m50.852 38.442a.5.5 0 0 1 -.324-.881l2.145-1.816-3.031 1.75a.5.5 0 0 1 -.567-.82l4.625-3.775-3.928 2.268a.5.5 0 0 1 -.545-.835l2.568-1.89a.491.491 0 0 1 -.24-.169.5.5 0 0 1 .037-.656l2.3-2.348-5.436 3.14a.5.5 0 0 1 -.548-.834l.787-.584-2.464 1.422a.5.5 0 0 1 -.585-.8l.9-.814-2.81 1.622a.5.5 0 0 1 -.659-.145.5.5 0 0 1 .086-.67l.427-.361-2.044 1.18a.5.5 0 1 1 -.5-.865l6.854-3.961a.5.5 0 0 1 .574.815l-.427.361 2.038-1.176a.5.5 0 0 1 .586.8l-.9.814 5.958-3.44a.5.5 0 0 1 .548.835l-.787.584 1.052-.607a.5.5 0 0 1 .607.783l-2.3 2.347 3.055-1.764a.5.5 0 0 1 .546.836l-1.361 1 1.5-.865a.5.5 0 0 1 .565.821l-4.624 3.77 2.47-1.421a.5.5 0 0 1 .573.814l-4 3.389a.3.3 0 0 1 .037.056.5.5 0 0 1 -.182.682l-2.328 1.341a.491.491 0 0 1 -.248.067z"/><path d="m28.028 51.8a.5.5 0 0 1 -.357-.85l1.395-1.427-.791.456a.5.5 0 0 1 -.625-.763l1.922-2.178-1.3.751a.5.5 0 0 1 -.6-.787l1.226-1.219-.626.362a.5.5 0 0 1 -.6-.789l1.21-1.2-.61.352a.5.5 0 0 1 -.55-.833l4.778-3.587-4.236 2.445a.5.5 0 0 1 -.54-.84l3.812-2.712-3.682 2.119a.5.5 0 0 1 -.527-.848l5.973-3.977-7.344 4.24a.5.5 0 0 1 -.532-.846l6.788-4.641-7.949 4.589a.5.5 0 0 1 -.541-.839l8.228-5.884-9.343 5.393a.5.5 0 0 1 -.525-.849l4-2.645-4.331 2.5a.5.5 0 0 1 -.525-.851l3.776-2.483-4.017 2.319a.5.5 0 0 1 -.534-.843l7.932-5.491-8.229 4.756a.5.5 0 0 1 -.533-.844l7.126-4.892-7.114 4.107a.5.5 0 0 1 -.525-.85l2.567-1.683-3.235 1.862a.5.5 0 0 1 -.539-.839l7.931-5.635-11.214 6.474a.5.5 0 0 1 -.58-.808l.708-.622-2.477 1.43a.5.5 0 0 1 -.644-.74l1.505-1.927-4.62 2.667a.5.5 0 1 1 -.5-.865l6.847-3.954a.5.5 0 0 1 .644.741l-1.501 1.929 4.633-2.675a.5.5 0 0 1 .58.809l-.708.621 16.036-9.258a.5.5 0 0 1 .539.841l-7.932 5.635 9.24-5.335a.5.5 0 0 1 .524.851l-2.554 1.676 3-1.732a.5.5 0 0 1 .533.845l-7.13 4.891 7.7-4.446a.5.5 0 0 1 .534.844l-7.933 5.492 8.352-4.822a.5.5 0 0 1 .524.851l-3.771 2.48 3.805-2.2a.5.5 0 0 1 .525.85l-4.01 2.649 3.867-2.232a.5.5 0 0 1 .542.84l-8.23 5.884 10.421-6.01a.5.5 0 0 1 .532.846l-6.786 4.639 9.5-5.485a.5.5 0 0 1 .527.849l-6.5 4.332a.507.507 0 0 1 .48.227.5.5 0 0 1 -.131.678l-3.822 2.714 2.3-1.329a.5.5 0 0 1 .55.833l-7.4 5.553.027.033a.5.5 0 0 1 -.045.659l-1.212 1.2.613-.349a.5.5 0 0 1 .6.787l-1.22 1.213.621-.358a.5.5 0 0 1 .625.763l-1.922 2.178 1.3-.748a.5.5 0 0 1 .607.782l-1.4 1.428.789-.455a.5.5 0 0 1 .5.865l-3.942 2.275a.49.49 0 0 1 -.25.07z"/><path d="m19.537 27.386a.5.5 0 0 1 -.281-.913l1.194-.812-.039.023a.5.5 0 0 1 -.58-.809l2.891-2.535a.5.5 0 0 1 -.238-.933l3.847-2.221a.5.5 0 0 1 .58.809l-2.606 2.286 7.435-4.293a.5.5 0 0 1 .531.847l-1.193.811 1.222-.706a.5.5 0 0 1 .5.866l-13.013 7.513a.494.494 0 0 1 -.25.067z"/><path d="m35.22 11.3a.5.5 0 0 1 -.4-.8l.83-1.124-1.418.819a.5.5 0 0 1 -.6-.785l.14-.14-.293.168a.5.5 0 0 1 -.642-.744l.828-1.042-1.265.723a.5.5 0 0 1 -.5-.866l3.529-2.036a.5.5 0 0 1 .641.744l-.828 1.042 1.258-.722a.5.5 0 0 1 .606.785l-.139.14.263-.152a.5.5 0 0 1 .652.73l-.83 1.124.628-.363a.5.5 0 0 1 .5.866l-2.71 1.563a.5.5 0 0 1 -.25.07z"/><path d="m28.03 19.392a.5.5 0 0 1 -.346-.86l1.015-.98-.419.242a.5.5 0 0 1 -.6-.794l.982-.944-.386.223a.5.5 0 0 1 -.586-.8l.526-.479a.5.5 0 0 1 -.52-.836l.453-.407a.506.506 0 0 1 -.518-.185.5.5 0 0 1 .053-.661l1-.961-.4.231a.5.5 0 0 1 -.584-.806l3.533-3.165-2.949 1.7a.5.5 0 0 1 -.564-.822l1.238-1-.674.389a.5.5 0 0 1 -.5-.866l6.209-3.584a.5.5 0 0 1 .565.822l-1.239 1 1.581-.91a.5.5 0 0 1 .584.806l-3.617 3.24a.5.5 0 0 1 .454.848l-1 .962.4-.233a.5.5 0 0 1 .584.805l-.453.406a.5.5 0 0 1 .457.855l-.52.474a.5.5 0 0 1 .533.824l-.983.945.389-.225a.5.5 0 0 1 .6.792l-1.016.98.422-.243a.5.5 0 1 1 .5.866l-3.954 2.284a.5.5 0 0 1 -.25.067z"/><path d="m23.766 11.428a.5.5 0 0 1 -.3-.9l2.808-2.089-3.614 2.085a.5.5 0 0 1 -.538-.841l1.129-.795-.972.561a.5.5 0 0 1 -.565-.821l4.379-3.568-.581.336a.5.5 0 0 1 -.569-.819l2.676-2.214a.5.5 0 0 1 .2-.645l1.942-1.118a.5.5 0 0 1 .568.818l-.166.137.825-.476a.5.5 0 0 1 .566.821l-4.378 3.568 5.23-3.02a.5.5 0 0 1 .538.842l-1.125.791 1.408-.812a.5.5 0 0 1 .548.834l-6.956 5.175a.5.5 0 0 1 -.223.594l-2.58 1.489a.5.5 0 0 1 -.25.067z"/></g><path d="m30.844 36.334a.5.5 0 0 1 -.345-.862l1.907-1.816-4.14 2.39a.5.5 0 0 1 -.578-.811l3.819-3.309-5.138 2.966a.5.5 0 0 1 -.55-.833l2.533-1.9-2.961 1.709a.5.5 0 0 1 -.565-.821l4.223-3.41-4.479 2.589a.5.5 0 0 1 -.547-.835l1.882-1.391-1.551.9a.5.5 0 0 1 -.562-.823l2.557-2.051-1.849 1.068a.5.5 0 0 1 -.606-.784l1.906-1.943h-.008a.5.5 0 0 1 -.25-.933l2.782-1.607a.5.5 0 0 1 .607.784l-1.746 1.775 4.334-2.5a.5.5 0 0 1 .563.824l-2.559 2.052 3.607-2.082a.5.5 0 0 1 .547.835l-1.877 1.385 2.3-1.326a.5.5 0 0 1 .564.822l-4.227 3.404 4.679-2.7a.5.5 0 0 1 .55.834l-2.527 1.892 2.4-1.386a.5.5 0 0 1 .577.811l-3.816 3.313 3.242-1.871a.5.5 0 0 1 .6.795l-1.908 1.817.3-.173a.5.5 0 1 1 .5.865l-3.931 2.27a.489.489 0 0 1 -.259.067z" fill="#2d629b"/><path d="m29.505 36.338a.927.927 0 0 0 .2.019 1.51 1.51 0 0 0 .244-.019 7.122 7.122 0 0 0 6.252-4 6.2 6.2 0 0 0 -1.747-7.26 7.066 7.066 0 0 0 -7.685-.543 6.416 6.416 0 0 0 -3.423 6.57 6.342 6.342 0 0 0 6.159 5.233zm-3.024-10.65a4.883 4.883 0 0 1 6.046-.492 5.909 5.909 0 0 1 2.7 5.738 5.272 5.272 0 0 1 -4.927 4.709 5.746 5.746 0 0 1 -5.173-3.688 5.839 5.839 0 0 1 1.354-6.267z" fill="#262626"/><path d="m1.888 32.656 3.474 3.474c.723.723 1.533 1.831 2.554 2.142 2.018.614 4.871-1.43 3.454-3.6a13 13 0 0 0 -2.164-2.286h9.3a11.3 11.3 0 0 0 6.875 8.185 14.365 14.365 0 0 0 1.9.449c.142.229 0 1.04 0 1.287v8.153c-.387-.4-.778-.788-1.191-1.148-1.482-1.292-4.389-.651-4.773 1.447-.248 1.359.867 2.188 1.712 3.033l3.64 3.64c.784.784 1.539 1.8 2.717 1.934 1.427.166 2.4-.651 3.321-1.577l3.482-3.489a11.469 11.469 0 0 0 2.3-2.475c1.216-2.439-1.866-3.8-3.763-2.839a7.566 7.566 0 0 0 -2 1.675v-9.661a11.9 11.9 0 0 0 8.7-8.611h9.684l-1.155 1.159a6.335 6.335 0 0 0 -1.5 1.753 2.229 2.229 0 0 0 1.461 2.974 3.306 3.306 0 0 0 3.072-.764c2.1-1.871 4.009-4.01 6-6 .021-.021.022-.036.039-.055a.68.68 0 0 0 .056-.042c1.61-1.9-.264-3.366-1.551-4.652-1.415-1.415-2.8-2.865-4.248-4.249-1.508-1.443-4.744-1.017-5 1.419-.145 1.387 1.352 2.676 2.493 3.685h-9.277a11.3 11.3 0 0 0 -6.875-8.185 14.365 14.365 0 0 0 -1.9-.449c-.142-.229 0-1.04 0-1.287v-8.156c.387.4.778.788 1.191 1.148 1.482 1.292 4.389.651 4.773-1.447.248-1.359-.867-2.188-1.712-3.033l-3.64-3.64c-.785-.784-1.537-1.796-2.718-1.934-1.427-.166-2.4.651-3.321 1.577l-3.487 3.489a11.469 11.469 0 0 0 -2.3 2.475c-1.216 2.439 1.866 3.8 3.763 2.839a7.566 7.566 0 0 0 2-1.675v9.661a11.9 11.9 0 0 0 -8.7 8.611h-9.674c.7-.691 1.413-1.376 2.08-2.1a2.3 2.3 0 0 0 -2.041-3.885 4.806 4.806 0 0 0 -2.892 1.831l-3.475 3.479a9.378 9.378 0 0 0 -2.111 2.333c-.65 1.485.496 2.456 1.427 3.387zm1-4.684q2.442-2.443 4.886-4.886c.4-.4.708-.841 1.48-.569 1.293.455 1.155 2.16.407 2.973-.766.833-1.6 1.61-2.4 2.412-.288.289-.069.484.287.484h11.344c.269 0 .941-.134 1.011-.484a10.435 10.435 0 0 1 7.991-8.348c.285-.057.831-.188.831-.567v-11.349c0-.443-1.15-.054-1.3.095l-2.117 2.109c-.51.508-.957.964-1.8.469a1.775 1.775 0 0 1 -.3-2.664 56.391 56.391 0 0 1 4.4-4.4 11.055 11.055 0 0 1 1.551-1.547c1.06-.678 1.836.43 2.482 1.076 1.593 1.593 3.231 3.154 4.785 4.786a2.643 2.643 0 0 1 .786 1.13c.263.994-.479 2.314-1.665 1.636a2.458 2.458 0 0 1 -.508-.415c-.818-.749-1.578-1.572-2.364-2.355-.317-.315-1.4-.01-1.4.47v11.347c0 .109.209.166.276.179a10.909 10.909 0 0 1 8.544 8.64c.034.17.308.192.436.192h11.349c.2 0 1.327-.3.963-.662-.85-.852-1.793-1.665-2.572-2.582-.443-.521-.906-1.681-.246-2.274a1.343 1.343 0 0 1 1.768.058c.368.325.7.7 1.048 1.049l3.491 3.49c1.068 1.068 2.768 2.319 1.412 3.935l-5.133 5.133a4.453 4.453 0 0 1 -.751.752c-1.8 1-2.56-1.487-1.636-2.656a31.824 31.824 0 0 1 2.52-2.53c.288-.289.069-.484-.287-.484h-11.349c-.269 0-.941.134-1.011.484a10.436 10.436 0 0 1 -7.991 8.348c-.285.057-.831.187-.831.567v11.348c0 .443 1.15.054 1.3-.095l2.117-2.109c.51-.508.957-.964 1.8-.469a1.775 1.775 0 0 1 .3 2.664 56.379 56.379 0 0 1 -4.4 4.4 11.009 11.009 0 0 1 -1.551 1.547c-1.06.678-1.836-.43-2.482-1.076-1.593-1.594-3.231-3.154-4.785-4.786a2.643 2.643 0 0 1 -.786-1.13c-.263-.994.479-2.314 1.665-1.636a2.458 2.458 0 0 1 .508.415c.819.749 1.578 1.572 2.364 2.355.317.315 1.4.01 1.4-.47v-11.347c0-.109-.209-.166-.276-.179a10.909 10.909 0 0 1 -8.544-8.64c-.034-.17-.308-.192-.436-.192h-11.349c-.2 0-1.327.3-.963.662l2.109 2.117a3.075 3.075 0 0 1 .948 1.3 1.253 1.253 0 0 1 -2.007 1.386c-1.6-1.4-3.037-3.038-4.539-4.539-.461-.462-.976-.9-1.4-1.4-1.056-1.24-.284-2.267.617-3.168z" fill="#262626"/></svg>