<?xml version="1.0"?>
<svg xmlns="http://www.w3.org/2000/svg" id="icons" viewBox="0 0 60 60" width="512" height="512"><path d="M50.922,58.533a.5.5,0,0,1-.332-.874l.264-.235-1.307.755A.5.5,0,0,1,49,57.343l1.507-1.108-2.8,1.619a.5.5,0,0,1-.551-.832L51.029,54.1l-5.711,3.3a.5.5,0,0,1-.549-.833l5.645-4.221L45.08,55.418a.5.5,0,0,1-.538-.841l3.378-2.383-.967.558a.5.5,0,0,1-.539-.841l1.918-1.358a.507.507,0,0,1-.457-.227A.5.5,0,0,1,48,49.649l5.6-4.082a.5.5,0,0,1,.239-.538l2.428-1.4a.5.5,0,0,1,.545.837l-.636.463.53-.306a.5.5,0,0,1,.539.841L55.765,46.51l1.2-.691a.5.5,0,0,1,.538.841l-3.381,2.386,3.1-1.789a.5.5,0,0,1,.55.833l-5.643,4.219,5.435-3.138a.5.5,0,0,1,.55.832l-3.878,2.928,3.625-2.093a.5.5,0,0,1,.546.836l-3.3,2.422a.5.5,0,0,1,.088.81l-2.721,2.416a.5.5,0,0,1-.241.531l-1.062.613A.489.489,0,0,1,50.922,58.533Z" fill="#eabea3"/><path d="M6.273,19.4a.5.5,0,0,1-.3-.9l1.756-1.3L5.614,18.425a.5.5,0,0,1-.54-.84l3.355-2.394L4.6,17.4a.5.5,0,0,1-.528-.848l1.557-1.038-1.85,1.067a.5.5,0,0,1-.545-.837l7.045-5.137-7.9,4.561a.5.5,0,0,1-.529-.848l3.093-2.083L1.655,14.136a.5.5,0,0,1-.54-.84L7.2,8.957,1.322,12.349A.5.5,0,0,1,.794,11.5l1.727-1.159-.846.488a.5.5,0,0,1-.536-.843L4.477,7.655a.5.5,0,0,1-.508-.2.5.5,0,0,1,.083-.669L8.688,2.821a.431.431,0,0,1-.063-.087.5.5,0,0,1,.183-.682L11.252.641a.5.5,0,0,1,.575.812l-3,2.567,4.941-2.853a.5.5,0,0,1,.536.843l-3.1,2.163,3.664-2.115a.5.5,0,0,1,.528.847L13.68,4.06l2.028-1.171a.5.5,0,0,1,.54.84L10.161,8.071l6.809-3.93a.5.5,0,0,1,.529.847L14.4,7.073,17.9,5.058a.5.5,0,0,1,.544.837L11.4,11.026l7.13-4.116a.5.5,0,0,1,.528.849L17.091,9.071a.5.5,0,0,1,.373.9l-3.35,2.39.811-.467a.5.5,0,0,1,.547.834l-4.3,3.174a.549.549,0,0,1,.091.116.5.5,0,0,1-.183.682l-4.56,2.633A.491.491,0,0,1,6.273,19.4Z" fill="#f26376"/><path d="M43.616,56.706a.5.5,0,0,1-.339-.868l1.277-1.176-1.714.989a.5.5,0,0,1-.546-.835l1.639-1.206-1.988,1.148a.5.5,0,0,1-.53-.847l1.285-.87-1.567.9A.5.5,0,0,1,40.6,53.1l3.13-2.11-3.525,2.035a.5.5,0,0,1-.533-.844L44.29,49l-5.139,2.967a.5.5,0,0,1-.533-.845l4.444-3.053-4.951,2.859a.5.5,0,0,1-.544-.837L44.448,45.1l-7.716,4.454a.5.5,0,0,1-.531-.846l3.785-2.573-4.231,2.442a.5.5,0,0,1-.545-.837l7.066-5.158L34.34,47.16a.5.5,0,0,1-.527-.849l1.606-1.064-1.9,1.1A.5.5,0,0,1,33,45.492l.364-.239-.591.341a.5.5,0,0,1-.541-.839L38.719,40.1l-7.255,4.187a.5.5,0,0,1-.542-.838l6.662-4.8-7.458,4.306a.5.5,0,0,1-.541-.839l6.364-4.55-7.109,4.1a.5.5,0,0,1-.53-.847l3.6-2.439-4.03,2.326a.5.5,0,0,1-.531-.847l3.75-2.547L26.9,39.733a.5.5,0,0,1-.523-.851l.168-.11-.385.222a.5.5,0,0,1-.541-.839L31.988,33.6l-7.11,4.105a.5.5,0,0,1-.527-.849l2.308-1.54-2.644,1.527a.5.5,0,0,1-.544-.837l6.912-5.021L22.63,35.465a.5.5,0,0,1-.541-.839L28.5,30.04l-7.16,4.133a.5.5,0,0,1-.54-.84l6.308-4.5L20.06,32.9a.5.5,0,0,1-.524-.85l.346-.227-.571.329a.5.5,0,0,1-.545-.836l7.1-5.19-7.979,4.606a.5.5,0,0,1-.53-.847l3.068-2.065-3.456,2a.5.5,0,0,1-.535-.844l5-3.469-5.567,3.214a.5.5,0,0,1-.532-.846l4.048-2.762L14.87,27.714a.5.5,0,0,1-.545-.836l7.126-5.211-8.007,4.622a.5.5,0,0,1-.535-.843l5.17-3.6-5.754,3.321a.5.5,0,0,1-.54-.84l6.127-4.352-6.836,3.946a.5.5,0,0,1-.525-.85l1.149-.758-1.415.817a.5.5,0,0,1-.539-.841l6.065-4.3L9.047,21.9a.5.5,0,0,1-.524-.85l.255-.167-.476.274a.5.5,0,0,1-.525-.85l.955-.628-1.211.7a.5.5,0,0,1-.532-.846L11.06,16.75,8.425,18.271a.5.5,0,0,1-.549-.833l5.959-4.45-.3.174a.5.5,0,0,1-.593-.8l5.206-4.9a.5.5,0,0,1,.241-.525l.866-.5a.5.5,0,0,1,.593.8l-3.088,2.907,3.929-2.269a.5.5,0,0,1,.549.833l-5.962,4.451,6.783-3.915a.5.5,0,0,1,.532.846l-4.072,2.779,4.542-2.622a.5.5,0,0,1,.524.851l-.943.621,1.2-.693a.5.5,0,0,1,.523.851l-.272.179.493-.285a.5.5,0,0,1,.539.841l-6.061,4.3,6.759-3.9a.5.5,0,0,1,.526.849l-1.15.758,1.415-.816a.5.5,0,0,1,.54.84l-6.126,4.351,6.833-3.944a.5.5,0,0,1,.536.843l-5.17,3.6,5.754-3.321a.5.5,0,0,1,.544.836L22.4,22.213l8-4.621a.5.5,0,0,1,.533.846L26.88,21.2,31.4,18.593a.5.5,0,0,1,.535.844l-5,3.466L32.5,19.691a.5.5,0,0,1,.529.848l-3.07,2.066,3.458-2a.5.5,0,0,1,.545.836l-7.1,5.19,7.977-4.606a.5.5,0,0,1,.523.851l-.338.222.563-.325a.5.5,0,0,1,.54.84l-6.314,4.508,7.05-4.07a.5.5,0,0,1,.541.839L31,29.479l7.156-4.132a.5.5,0,0,1,.544.837l-6.914,5.021,7.754-4.476a.5.5,0,0,1,.527.849l-2.3,1.537L40.4,27.592a.5.5,0,0,1,.541.84L34.58,32.98l7.107-4.1a.5.5,0,0,1,.524.852l-.181.117.4-.229a.5.5,0,0,1,.531.847l-3.75,2.547,4.192-2.42a.5.5,0,0,1,.531.847l-3.591,2.434,4.02-2.321a.5.5,0,0,1,.541.839l-6.368,4.553,7.113-4.106a.5.5,0,0,1,.542.838l-6.663,4.8,7.458-4.3a.5.5,0,0,1,.541.839l-6.489,4.655,7.255-4.188a.5.5,0,0,1,.523.851l-.357.234.583-.336a.5.5,0,0,1,.526.85l-1.61,1.066,1.9-1.1a.5.5,0,0,1,.545.837l-7.066,5.158,7.936-4.581a.5.5,0,0,1,.532.846l-3.782,2.57,4.227-2.44a.5.5,0,0,1,.544.837l-6.881,5,7.714-4.454a.5.5,0,0,1,.533.845l-4.444,3.053,4.951-2.859a.5.5,0,0,1,.533.845l-4.616,3.18,5.14-2.967a.5.5,0,0,1,.529.848l-3.136,2.112,1.163-.671a.5.5,0,0,1,.531.847l-3.141,2.126a.5.5,0,0,1,.146.88l-3.371,2.479a.479.479,0,0,1,.166.145.5.5,0,0,1-.063.664l-3.556,3.276a.5.5,0,0,1-.244.511l-.881.509A.489.489,0,0,1,43.616,56.706Z" fill="#3778c6"/><path d="M46.765,52.223a.5.5,0,0,1-.342-.866l1.962-1.835-2.539,1.466a.5.5,0,0,1-.582-.806l1.606-1.429L44.8,49.946a.5.5,0,0,1-.593-.8L46.2,47.277l-2.581,1.49a.5.5,0,0,1-.559-.827l.061-.046-.238.136a.5.5,0,0,1-.569-.818l.86-.71-1.155.666a.5.5,0,0,1-.566-.82l.645-.526-.9.522a.5.5,0,0,1-.582-.806L42.23,44.1l-2.08,1.2a.5.5,0,0,1-.576-.812l1.3-1.119-1.686.973a.5.5,0,0,1-.589-.8l1.907-1.769L38.044,43.2a.5.5,0,0,1-.61-.779l2.427-2.52L36.617,41.77a.5.5,0,0,1-.59-.8l1.917-1.782L35.466,40.62A.5.5,0,0,1,34.9,39.8l.548-.444-.792.458a.5.5,0,0,1-.581-.807l1.572-1.393-2.024,1.168A.5.5,0,0,1,33.012,38l2.468-2.6-3.316,1.914a.5.5,0,0,1-.56-.824l.251-.2-.454.262a.5.5,0,0,1-.586-.8l1.757-1.593L30.31,35.47a.5.5,0,0,1-.605-.785l2.323-2.342-3.073,1.774a.5.5,0,0,1-.588-.8l1.843-1.692L27.833,33a.5.5,0,0,1-.587-.8l1.786-1.626-2.3,1.329a.5.5,0,0,1-.579-.809l1.479-1.3-1.905,1.1a.5.5,0,0,1-.569-.819l.832-.686-1.122.647a.5.5,0,0,1-.6-.787L26.53,27l-2.981,1.721a.5.5,0,0,1-.6-.79l2.2-2.15-2.878,1.661a.5.5,0,0,1-.612-.778L24.1,24.107,20.827,26a.5.5,0,0,1-.6-.789l2.221-2.185-2.914,1.682a.5.5,0,0,1-.61-.778l2.44-2.545L18.1,23.27a.5.5,0,0,1-.574-.814l1.161-.985-1.514.874a.5.5,0,0,1-.594-.8L18.6,19.632l-2.63,1.517a.5.5,0,0,1-.583-.8L17.01,18.9l-2.084,1.2a.5.5,0,0,1-.583-.806L16,17.814l-2.133,1.232a.5.5,0,0,1-.6-.786l2.288-2.285-3.017,1.741a.5.5,0,0,1-.558-.826l.07-.055-.25.144a.5.5,0,0,1-.594-.8l2.036-1.928-1.878,1.083a.5.5,0,0,1-.589-.8l3.538-3.252a.5.5,0,0,1,.245-.505l.866-.5a.5.5,0,0,1,.589.8l-1.228,1.128,1.629-.939a.5.5,0,0,1,.594.8l-2.033,1.926,2.638-1.523a.5.5,0,0,1,.559.826l-.072.057.253-.146a.5.5,0,0,1,.6.786l-2.288,2.284,3.016-1.74a.5.5,0,0,1,.583.806l-1.658,1.483,2.133-1.231a.5.5,0,0,1,.583.8L19.7,17.842l2.084-1.2a.5.5,0,0,1,.594.8l-2.028,1.918,2.631-1.519a.5.5,0,0,1,.574.813l-1.161.987,1.513-.874a.5.5,0,0,1,.611.778l-2.441,2.545L25.348,20.2a.5.5,0,0,1,.6.789l-2.222,2.186,2.916-1.683a.5.5,0,0,1,.611.779l-2.445,2.551,3.275-1.89a.5.5,0,0,1,.6.79l-2.2,2.149,2.877-1.661a.5.5,0,0,1,.6.787L27.7,27.243l2.982-1.721a.5.5,0,0,1,.568.819l-.835.689,1.125-.649a.5.5,0,0,1,.579.808l-1.476,1.294,1.9-1.1a.5.5,0,0,1,.587.8l-1.786,1.625,2.3-1.328a.5.5,0,0,1,.588.8l-1.842,1.693,2.377-1.373a.5.5,0,0,1,.6.786l-2.325,2.343,3.076-1.775a.5.5,0,0,1,.586.8l-1.756,1.591,2.261-1.3a.5.5,0,0,1,.56.824l-.247.2.45-.258a.5.5,0,0,1,.612.777l-2.469,2.6,3.317-1.915a.5.5,0,0,1,.582.806L38.447,36.47,40.472,35.3a.5.5,0,0,1,.564.821l-.546.441.789-.455a.5.5,0,0,1,.59.8l-1.917,1.781,2.479-1.43a.5.5,0,0,1,.61.779l-2.428,2.52,3.244-1.873a.5.5,0,0,1,.59.8L42.54,41.252,45,39.83a.5.5,0,0,1,.576.812l-1.3,1.119,1.686-.973a.5.5,0,0,1,.582.806l-1.616,1.44,2.08-1.2a.5.5,0,0,1,.565.82l-.646.527.906-.523a.5.5,0,0,1,.568.819l-.857.709L48.7,43.52a.5.5,0,0,1,.559.826l-.063.049.242-.139a.5.5,0,0,1,.592.8l-1.991,1.872,2.579-1.489a.5.5,0,0,1,.582.806l-1.606,1.429,2.067-1.193a.5.5,0,0,1,.592.8l-1.964,1.837.221-.127a.5.5,0,0,1,.5.866l-3.993,2.3A.49.49,0,0,1,46.765,52.223Z" fill="#2d629b"/><path d="M56.693,59.415a.5.5,0,0,1-.372-.166.5.5,0,0,1-.031-.629l.82-1.123-2.695,1.556a.5.5,0,0,1-.6-.784l1.828-1.852-3.806,2.2a.5.5,0,0,1-.579-.809l2.841-2.482-1.607.927a.5.5,0,0,1-.565-.821l1.728-1.4a.5.5,0,0,1,.012-.858l3.663-2.115a.5.5,0,0,1,.566.821l-.436.354.576-.333a.5.5,0,0,1,.579.809l-2.842,2.484L58.351,53.7a.5.5,0,0,1,.605.784l-1.828,1.851,1.533-.885a.5.5,0,0,1,.653.728l-.864,1.183a.506.506,0,0,1,.517.244.5.5,0,0,1-.183.682l-1.841,1.064A.489.489,0,0,1,56.693,59.415Z" fill="#2d629b"/><path d="M59.067,52.3q-.485-2.743-.97-5.486a6.79,6.79,0,0,0-1.419-3.794c-2.441-2.654-5.122-5.123-7.671-7.672L18.934,5.275C17.85,4.191,16.771,3.1,15.681,2.022A4.861,4.861,0,0,0,8.5,2.148C6.255,4.387,4,6.614,1.773,8.878a4.455,4.455,0,0,0,.047,6.6c8.737,8.835,17.573,17.573,26.358,26.359l12.641,12.64A18.857,18.857,0,0,0,43.4,56.95a9.622,9.622,0,0,0,3.741,1.044l5.564.984,3.039.537a3.378,3.378,0,0,0,3.939-3.728C59.523,54.621,59.272,53.459,59.067,52.3Zm-4.928-9.842A15.889,15.889,0,0,1,55.587,44l-2.825,2.826q-6.019-6.019-12.04-12.04-10-10-19.994-19.994l-4.4-4.4,2.005-2.006.865-.864L43.015,31.333Zm-6.362,9.347L35.711,39.739,15.717,19.745l-4.372-4.372,4.044-4.043L27.366,23.307,47.36,43.3l4.461,4.461ZM2.871,14.552a3.469,3.469,0,0,1-.129-4.945c.717-.777,1.5-1.5,2.25-2.25L8.648,3.7c1.081-1.081,2.1-2.4,3.842-2.09,1.336.236,2.3,1.5,3.213,2.41l2.753,2.754L9.6,15.63,8.3,14.323l-1-1a1.872,1.872,0,0,1-.661-1.3c-.011-.748.485-1.17.97-1.653a.419.419,0,0,0-.187-.7,1.016,1.016,0,0,0-1.025.275,3.674,3.674,0,0,0-1.16,1.681,2.369,2.369,0,0,0,.608,2.205c.705.725,1.431,1.431,2.146,2.146l.632.632q-.49.489-.98.98l-.865.864L5.431,17.112C4.579,16.26,3.7,15.429,2.871,14.552ZM33.739,45.42,7.519,19.2l2.854-2.855,12,12,20,20,4.433,4.433-2.094,2.095q-.378.376-.755.755c-.155-.146-.307-.3-.457-.447ZM44.673,56.148l3.2-3.2c.286-.109.511-.294.487-.486l4.87-4.871.012-.012,2.252-2.252.573-.572a3.916,3.916,0,0,1,.32.95c.358,1.8.672,3.615.98,5.428a9.791,9.791,0,0,0-6.548,6.312l-2.988-.528A10.639,10.639,0,0,1,44.673,56.148Zm11.559,2.258-4.1-.724A8.339,8.339,0,0,1,57.494,51.9c.161.951.321,1.9.489,2.853C58.242,56.218,58.628,58.664,56.232,58.406Z" fill="#262626"/></svg>
