<svg height="502pt" viewBox="-58 0 502 502.31167" width="502pt" xmlns="http://www.w3.org/2000/svg"><path d="m185.300781 496.683594c-1.808593-.003906-3.421875-1.140625-4.023437-2.847656-.601563-1.703126-.066406-3.605469 1.34375-4.742188l12.660156-10.1875-16.28125 9.386719c-1.972656 1.121093-4.480469.5-5.703125-1.417969-1.21875-1.914062-.726563-4.449219 1.121094-5.765625l3.796875-2.664063-5.972656 3.414063c-1.964844 1.144531-4.484376.550781-5.726563-1.355469-1.238281-1.910156-.765625-4.453125 1.078125-5.785156l50.925781-37.113281-57.464843 33.175781c-1.980469 1.136719-4.507813.507812-5.726563-1.425781-1.21875-1.933594-.699219-4.480469 1.179687-5.78125l59.117188-40.671875-64.851562 37.453125c-2.003907 1.140625-4.550782.484375-5.753907-1.484375-1.199219-1.96875-.621093-4.53125 1.308594-5.792969l20.667969-13.289063-23.042969 13.3125c-1.996094 1.160157-4.550781.519532-5.765625-1.445312s-.648438-4.535156 1.277344-5.808594l79.632812-52.835937-85.273437 49.226562c-1.996094 1.136719-4.535157.484375-5.738281-1.472656-1.207032-1.957031-.644532-4.515625 1.269531-5.789063l84.914062-55.347656-89.992187 51.945313c-1.992188 1.082031-4.480469.417969-5.671875-1.511719-1.1875-1.929688-.664063-4.453125 1.199219-5.742188l116.90625-76.945312-123.527344 71.355469c-2.003906 1.164062-4.570313.519531-5.78125-1.457031-1.210938-1.972657-.625-4.554688 1.320312-5.8125l125.351563-81.597657-131.609375 75.945313c-2.019532 1.214844-4.640625.554687-5.851563-1.464844-1.210937-2.023438-.554687-4.644531 1.464844-5.855469l45.9375-28.5-47.925781 27.664063c-2.019532 1.214844-4.640625.566406-5.855469-1.453125-1.21875-2.019531-.566406-4.644531 1.453125-5.859375l79.898438-49.988282-82.773438 47.785157c-2.003906 1.121093-4.535156.453125-5.726562-1.507813-1.195313-1.960937-.621094-4.515625 1.296874-5.777344l136.339844-87.296874-141.554687 81.714843c-2.003907 1.121094-4.535157.453125-5.726563-1.507812-1.191406-1.960938-.617187-4.515625 1.300782-5.78125l147.164062-94.316407-152.164062 87.890626c-2.015626 1.226562-4.640626.582031-5.863282-1.433594-1.222656-2.011719-.582031-4.636719 1.433594-5.859375l144.359375-92.015625-148.890625 85.957031c-2.011719 1.148437-4.566406.484375-5.765625-1.496094-1.199219-1.976562-.601563-4.550781 1.34375-5.800781l142.21875-90.230469-145.75 84.144531c-2.011719 1.128907-4.550781.453126-5.742187-1.519531-1.1875-1.972656-.597657-4.53125 1.339843-5.785156l130.394531-82.105469-133.375 77.003906c-2.019531 1.214844-4.640624.566407-5.855468-1.453124-1.21875-2.019532-.566406-4.644532 1.453125-5.859376l122.820312-77.023437-124.707031 71.996094c-2.015625 1.117187-4.550781.429687-5.730469-1.550781-1.179687-1.980469-.570312-4.539063 1.371094-5.777344l35.226563-21.546875-35.109376 20.265625c-2.007812 1.058594-4.492187.359375-5.652343-1.589844-1.164063-1.953125-.59375-4.46875 1.292969-5.730469l41.199218-25.226562-41.171875 23.765625c-2 1.085937-4.5.40625-5.683593-1.539063-1.179688-1.945312-.625-4.476562 1.261718-5.746093l146.476563-92.957032-147.96875 85.429688c-2.023438 1.207031-4.644531.542968-5.851563-1.480469-1.203125-2.023437-.542968-4.644531 1.480469-5.851563l51.757813-31.785156-51.03125 29.457032c-2.011719 1.160156-4.582032.503906-5.785157-1.484376-1.207031-1.988281-.601562-4.578124 1.363281-5.820312l133.898438-84.703125-134.289062 77.550781c-2.011719 1.078125-4.515626.378906-5.679688-1.582031-1.164062-1.964844-.582031-4.496094 1.328125-5.746094l29.167969-17.859375-27.128906 15.65625c-1.3125.78125-2.9375.800782-4.269532.054688-1.328125-.746094-2.160156-2.144532-2.179687-3.671875-.019531-1.523438.777343-2.941407 2.089843-3.722657l10.402344-6.320312-8.167968 4.71875c-2.023438 1.210938-4.644532.558594-5.859376-1.464844-1.210937-2.019531-.558593-4.644531 1.464844-5.859375l83.371094-51.941406-81.339844 46.933594c-2.023437 1.207031-4.644531.542969-5.851562-1.480469-1.203125-2.023438-.542969-4.644531 1.480468-5.847656l27.992188-17.195313-24.570312 14.191407c-2.019532 1.214843-4.640626.5625-5.855469-1.457032-1.21875-2.019531-.566407-4.640625 1.453125-5.859375l79.207031-49.550781-75.945313 43.835938c-2.007812 1.058593-4.496093.359374-5.65625-1.59375-1.160156-1.949219-.59375-4.46875 1.292969-5.726563l19.183594-11.820313-14.683594 8.472657c-2.011719 1.148437-4.570312.484375-5.765625-1.492188-1.199218-1.980469-.605468-4.554687 1.34375-5.804687l83.398438-52.777344-77.824219 44.980469c-2.011719 1.125-4.550781.453125-5.742187-1.519531-1.1875-1.972657-.597657-4.535157 1.335937-5.785157l51.203125-32.164062-45.417969 26.214843c-2.011719 1.226563-4.636719.59375-5.863281-1.421874-1.230469-2.011719-.59375-4.636719 1.417969-5.863282l79.746093-51.328125-71.160156 41.078125c-2 1.101563-4.511718.429688-5.699218-1.519531-1.1875-1.945313-.632813-4.484375 1.261718-5.757813l59.410156-38.28125-49.792968 28.746094c-1.992188 1.179688-4.558594.558594-5.789063-1.402344-1.230469-1.960937-.671875-4.546874 1.257813-5.824218l76.738281-52.054688-61.832031 35.707032c-1.976563 1.175781-4.53125.574218-5.773438-1.363282-1.242187-1.933594-.726562-4.507812 1.167969-5.816406l54.808594-39.03125-30.71875 17.757812c-1.972657 1.144532-4.488281.539063-5.726563-1.375-1.234375-1.910156-.75-4.457031 1.101563-5.785156l25.308593-18.207031c-.417968-.335937-.773437-.742187-1.042968-1.203125-1.175782-2.042969-.476563-4.652344 1.5625-5.828125l47.054687-27.171875c1.96875-1.140625 4.488281-.535156 5.722657 1.375 1.234374 1.914062.753906 4.457031-1.097657 5.785156l-3.414062 2.421875 34.5-19.925781c1.976562-1.175781 4.53125-.574219 5.773437 1.363281 1.242188 1.933594.726563 4.507813-1.164062 5.816407l-54.785156 39.019531 86.339843-49.882813c1.992188-1.179687 4.5625-.5585935 5.789063 1.402344 1.230468 1.960938.671875 4.546875-1.257813 5.824219l-76.730469 52.054687 99.105469-57.207031c2-1.101563 4.511719-.433594 5.699219 1.515625s.632812 4.488281-1.261719 5.761719l-59.460937 38.316406 72.6875-41.960937c2.003906-1.140626 4.550781-.484376 5.75 1.484374 1.203125 1.96875.625 4.535157-1.304688 5.796876l-79.667968 51.292968 93.125-53.761718c2.007812-1.085938 4.511718-.402344 5.6875 1.554687 1.175781 1.953125.605468 4.488281-1.292969 5.75l-51.25 32.171875 59.28125-34.226562c2.003906-1.105469 4.523437-.429688 5.707031 1.53125 1.183594 1.957031.613281 4.5-1.296875 5.761718l-83.429687 52.804688 93.105468-53.757813c1.3125-.78125 2.9375-.804687 4.269532-.058593 1.328124.742187 2.160156 2.140624 2.183593 3.664062.019531 1.523438-.773437 2.945312-2.082031 3.722656l-19.242188 11.855469 23.714844-13.65625c2.019532-1.214844 4.640625-.5625 5.855469 1.457031 1.21875 2.019532.566406 4.640625-1.453125 5.859375l-79.128906 49.492188 86.140625-49.765625c2.027343-1.207032 4.644531-.546875 5.851562 1.480468 1.207031 2.023438.542969 4.640626-1.480469 5.847657l-28.023437 17.230469 31.632813-18.28125c2.011718-1.105469 4.535156-.425782 5.71875 1.542968 1.179687 1.96875.589843 4.519532-1.332032 5.773438l-83.34375 51.933594 88.480469-51.082032c2.027344-1.203125 4.644531-.539062 5.847656 1.488282 1.207031 2.027343.539063 4.648437-1.488281 5.851562l-10.65625 6.511719 13.335938-7.683594c2.027343-1.203125 4.644531-.535156 5.851562 1.492187 1.203125 2.023438.535156 4.644532-1.492188 5.847657l-29.011718 17.765625 30.898437-17.832032c2.007813-1.105468 4.523438-.429687 5.707031 1.53125 1.183594 1.957032.613282 4.5-1.292968 5.761719l-133.914063 84.667969 139.367188-80.46875c2.023437-1.207031 4.644531-.539062 5.851562 1.484375 1.207031 2.027344.542969 4.648437-1.484375 5.855469l-51.839844 31.835937 53.332032-30.777343c2.011718-1.148438 4.570312-.484376 5.769531 1.492187 1.195313 1.980469.601563 4.554687-1.347656 5.804687l-146.535157 92.960938 150.425782-86.84375c2.015625-1.113281 4.554687-.425781 5.730468 1.550781 1.179688 1.980469.574219 4.539063-1.371093 5.777344l-40.957031 25.082031 41.28125-23.835937c1.3125-.777344 2.9375-.796875 4.269531-.050781 1.328125.746093 2.160156 2.144531 2.179687 3.667968.019532 1.523438-.777344 2.945313-2.085937 3.722656l-35.234375 21.546876 34.628906-20.003907c2.019531-1.214843 4.640625-.5625 5.855469 1.457031 1.21875 2.019532.566406 4.640626-1.453125 5.859376l-122.8125 77.019531 123.84375-71.5c2.019531-1.21875 4.644531-.570313 5.863281 1.449219 1.21875 2.019531.570313 4.644531-1.449219 5.863281l-130.46875 82.152343 129.964844-75.042968c2.015625-1.222656 4.640625-.574219 5.859375 1.441406 1.222656 2.015625.578125 4.640625-1.441406 5.863281l-142.234375 90.238281 141.65625-81.808593c2.011718-1.222657 4.636718-.582031 5.859375 1.433593 1.226562 2.015626.582031 4.640626-1.433594 5.863282l-144.230469 91.886718 141.375-81.621093c2.003906-1.121094 4.535156-.453125 5.726563 1.507812 1.191406 1.960938.617187 4.515625-1.300781 5.78125l-147.214844 94.386719 143.359375-82.773438c2.007812-1.179687 4.589843-.527343 5.800781 1.460938s.605469 4.582031-1.363281 5.824219l-136.355469 87.3125 130.039062-75.089844c2.019532-1.21875 4.644532-.566406 5.859376 1.453125 1.214843 2.019531.566406 4.640625-1.453126 5.859375l-79.898437 50.046875 71.945313-41.539062c1.304687-.785157 2.933593-.8125 4.265624-.070313 1.332032.742187 2.167969 2.136719 2.191407 3.660156.027343 1.523438-.765625 2.945313-2.074219 3.730469l-45.941406 28.511719 37.949218-21.933594c1.996094-1.117187 4.519532-.457031 5.71875 1.496094 1.195313 1.953125.636719 4.5-1.265624 5.773437l-125.3125 81.570313 111.640624-64.460938c2-1.132812 4.539063-.484375 5.742188 1.472657 1.207031 1.957031.644531 4.519531-1.269531 5.792968l-116.964844 76.96875 100.101563-57.789062c2.007812-1.234375 4.636718-.605469 5.871093 1.402344 1.234375 2.007812.609375 4.632812-1.398437 5.871093l-84.871094 55.320313 67.410156-38.902344c2-1.160156 4.554688-.519531 5.769532 1.445312 1.214843 1.960938.648437 4.535157-1.277344 5.804688l-79.636719 52.839844 58.941406-34.023438c2.007813-1.175781 4.589844-.523437 5.800781 1.464844 1.210938 1.988281.605469 4.578125-1.363281 5.824219l-20.667969 13.277343 3.832032-2.210937c1.984375-1.175781 4.546875-.558594 5.78125 1.390625 1.234375 1.953125.691406 4.53125-1.226563 5.820312l-59.144531 40.6875 33.488281-19.328124c1.964844-1.144532 4.484375-.550782 5.722657 1.359374 1.242187 1.90625.769531 4.449219-1.074219 5.785157l-50.933594 37.117187 19.34375-11.160156c1.976563-1.121094 4.480469-.5 5.703125 1.417969 1.222656 1.914062.726562 4.449219-1.121094 5.765625l-18.773437 13.210937c.78125.3125 1.449219.847657 1.921875 1.542969 1.257812 1.84375.882812 4.339844-.855469 5.734375l-25.199219 20.277344c.511719.351562.9375.816406 1.246094 1.355469 1.179688 2.042968.480469 4.652343-1.5625 5.828124l-30.71875 17.757813c-.667969.390625-1.429688.589844-2.199219.574219zm0 0" fill="#f76c82"/><path d="m190.980469 315.082031c-1.875.007813-3.535157-1.214843-4.089844-3.007812s.132813-3.738281 1.683594-4.789063l15.496093-10.515625-27.800781 16.042969c-1.980469 1.101562-4.476562.464844-5.683593-1.453125-1.207032-1.917969-.703126-4.445313 1.144531-5.757813l40.617187-27.699218-53.3125 30.746094c-1.992187 1.15625-4.542968.523437-5.761718-1.433594-1.21875-1.953125-.667969-4.519532 1.246093-5.800782l48.886719-32.777343-59.527344 34.363281c-1.992187 1.15625-4.542968.519531-5.761718-1.433594s-.667969-4.519531 1.246093-5.800781l66.015625-44.375-75.949218 43.828125c-1.984376 1.117188-4.492188.476562-5.703126-1.449219-1.210937-1.929687-.695312-4.46875 1.171876-5.769531l87.527343-59.683594-96.851562 55.894532c-2.007813 1.234374-4.636719.609374-5.871094-1.398438s-.609375-4.636719 1.398437-5.871094l63.214844-41.328125-68.121094 39.320313c-2.003906 1.164062-4.570312.519531-5.78125-1.457032-1.210937-1.972656-.628906-4.554687 1.316407-5.8125l66.449219-43.382812-70.296876 40.585938c-2.007812 1.144531-4.566406.484374-5.765624-1.496094-1.199219-1.976563-.601563-4.550782 1.347656-5.800782l26.820312-17.007812-27.699218 16.035156c-2.003907 1.164063-4.570313.515625-5.78125-1.457031-1.214844-1.976563-.628907-4.554687 1.316406-5.816406l67.96875-44.371094-69.683594 40.234375c-2.007812 1.148438-4.566406.484375-5.765625-1.492188-1.199219-1.980468-.601563-4.554687 1.34375-5.804687l21.222656-13.421875-20.351562 11.742188c-2.003907 1.199218-4.597657.566406-5.824219-1.421876-1.222656-1.984374-.625-4.589843 1.34375-5.839843l70.828125-46.585938-70.441406 40.679688c-1.992188 1.179687-4.5625.558593-5.792969-1.402344-1.226562-1.960937-.667969-4.546875 1.261719-5.824219l89.417969-60.953125-87.386719 50.457031c-2.003907 1.164063-4.570313.519532-5.78125-1.457031-1.214844-1.972656-.628907-4.554687 1.316406-5.8125l43.296875-28.238281-39.542969 22.828125c-2.003906 1.140625-4.550781.480469-5.75-1.484375-1.203125-1.96875-.625-4.535156 1.304688-5.796875l20.328125-13.105469-14.6875 8.472656c-1.984375 1.101563-4.484375.453126-5.6875-1.472656-1.199219-1.925781-.6875-4.453125 1.171875-5.753906l46.695312-31.515625-39.148437 22.613281c-1.964844 1.132813-4.46875.535156-5.707032-1.359375-1.238281-1.898437-.78125-4.433593 1.046876-5.773437l57.460937-42.257813-43.082031 24.875c-1.90625 1.09375-4.328125.5625-5.601563-1.226562-1.273437-1.789063-.980469-4.253907.675781-5.695313l32.1875-27.910156c-2.070312.515625-4.203124-.574219-4.996093-2.554688-.792969-1.980468 0-4.246093 1.855469-5.296874l36.804687-21.246094c1.90625-1.097656 4.332031-.566406 5.605469 1.222656 1.273437 1.792969.976562 4.253906-.679688 5.695312l-31.503906 27.308594 71.15625-41.089844c1.960938-1.105468 4.445312-.5 5.671875 1.386719 1.230469 1.886719.78125 4.402344-1.019531 5.746094l-57.445313 42.277344 78.609375-45.390625c1.992188-1.152344 4.539063-.519532 5.757813 1.433594 1.21875 1.953124.667969 4.523437-1.246094 5.804687l-46.753906 31.519531 58.34375-33.679687c2.003906-1.140625 4.550781-.484375 5.75 1.484375 1.203125 1.964844.625 4.53125-1.304688 5.792968l-20.277343 13.066407 25.839843-14.910157c2.007813-1.234374 4.636719-.605468 5.871094 1.402344 1.234375 2.007813.609375 4.636719-1.398437 5.871094l-43.339844 28.261719 50.199218-29.015625c1.984376-1.113282 4.496094-.476563 5.707032 1.453125 1.210937 1.925781.691406 4.464843-1.175782 5.769531l-89.410156 60.976562 98.542969-56.890624c2-1.199219 4.597656-.566407 5.820313 1.421874 1.226562 1.984376.628906 4.589844-1.339844 5.839844l-70.828125 46.566406 75.5625-43.621093c2.007812-1.148438 4.566406-.488281 5.765625 1.492187 1.199218 1.980469.601562 4.554688-1.34375 5.800782l-21.265625 13.449218 23.039062-13.277344c2.003907-1.164062 4.570313-.519531 5.78125 1.457032 1.210938 1.972656.625 4.554687-1.320312 5.8125l-67.972657 44.375 70.132813-40.492188c2.011719-1.148437 4.566406-.484375 5.765625 1.496094 1.199219 1.976562.601562 4.550781-1.34375 5.800781l-26.761719 16.972657 27.042969-15.617188c2.003906-1.164062 4.570312-.515625 5.78125 1.457031 1.210938 1.976563.625 4.554688-1.320312 5.816407l-66.515626 43.390624 66.464844-38.398437c2.003906-1.167969 4.570313-.519531 5.78125 1.453125 1.214844 1.976562.628906 4.558594-1.316406 5.816406l-63.148438 41.308594 62.566407-36.128906c1.992187-1.179688 4.5625-.558594 5.789062 1.402344 1.230469 1.960937.671875 4.546874-1.257812 5.824218l-87.542969 59.707032 84.820312-48.980469c2-1.25 4.636719-.640625 5.886719 1.363281 1.246094 2 .636719 4.632812-1.363281 5.882812l-66.046875 44.433594 61.132813-35.304687c1.988281-1.113281 4.503906-.46875 5.707031 1.46875 1.207031 1.933593.675781 4.476562-1.203125 5.769531l-48.878906 32.816406 42.472656-24.515625c1.984375-1.152343 4.53125-.523437 5.753906 1.417969 1.222656 1.945312.683594 4.511719-1.214844 5.800781l-40.609375 27.699219 30.71875-17.746094c1.992188-1.183594 4.558594-.558594 5.789063 1.402344 1.230468 1.960938.671875 4.546875-1.257813 5.824219l-15.496093 10.519531 3.140624-1.816406c1.972657-1.15625 4.507813-.554688 5.746094 1.371094 1.238282 1.921874.738282 4.480468-1.128906 5.796874l-15.625 11.152344c1.882812.101563 3.476562 1.421875 3.921875 3.253906.445313 1.832032-.367187 3.742188-1.996094 4.691407l-68.179687 39.355469c-1.96875 1.113281-4.460938.496093-5.683594-1.402344-1.226562-1.898438-.757812-4.421875 1.066406-5.757813l9.90625-7.074219-28.160156 16.28125c-.65625.398438-1.40625.605469-2.175781.605469zm0 0" fill="#d94452"/><path d="m192.800781 255.425781c-1.804687.003907-3.414062-1.128906-4.023437-2.828125-.605469-1.699218-.078125-3.597656 1.316406-4.738281l16.582031-13.550781-30.335937 17.519531c-1.96875 1.140625-4.488282.535156-5.726563-1.378906-1.234375-1.910157-.75-4.457031 1.101563-5.78125l8.574218-6.179688-15.019531 8.671875c-1.933593 1.105469-4.398437.539063-5.648437-1.308594-1.253906-1.84375-.875-4.34375.871094-5.734374l40.917968-32.484376-49.851562 28.78125c-1.957032 1.140626-4.464844.550782-5.710938-1.339843-1.246094-1.894531-.792968-4.429688 1.027344-5.777344l36.144531-26.957031-39.953125 23.042968c-1.964844 1.128907-4.46875.519532-5.703125-1.382812s-.761719-4.4375 1.070313-5.769531l28.953125-20.992188-29.105469 16.8125c-1.9375 1.113281-4.410156.542969-5.664062-1.308593-1.253907-1.851563-.863282-4.355469.894531-5.742188l40.683593-32-38.953124 22.496094c-1.914063 1.097656-4.351563.550781-5.617188-1.257813-1.265625-1.808593-.941406-4.285156.746094-5.707031l34.074218-28.605469-26.300781 15.183594c-1.886719 1.164063-4.351562.695313-5.671875-1.085937-1.320312-1.78125-1.058594-4.273438.601563-5.742188l16.980469-16.210938c-1.925782-.011718-3.605469-1.3125-4.097657-3.175781-.492187-1.863281.324219-3.824219 1.992188-4.789062l27-15.589844c1.882812-1.1875 4.367187-.722656 5.695312 1.066406 1.332031 1.785157 1.0625 4.296875-.621093 5.761719l-15.1875 14.507812 37.546874-21.667968c1.914063-1.097656 4.351563-.554688 5.617188 1.253906s.941406 4.285156-.746094 5.710938l-34.074218 28.609374 48.460937-27.980468c1.9375-1.09375 4.390625-.515625 5.636719 1.328125s.863281 4.332031-.875 5.722656l-40.683594 31.988281 48.636719-28.089844c1.96875-1.128906 4.472656-.523437 5.707031 1.378907 1.230469 1.902343.761719 4.4375-1.070312 5.773437l-28.945313 20.980469 31.757813-18.292969c1.960937-1.140625 4.464843-.550781 5.710937 1.339844 1.246094 1.894531.796875 4.429688-1.023437 5.777344l-36.257813 26.980468 36.90625-21.332031c1.933594-1.109375 4.398437-.539062 5.652344 1.304688 1.25 1.847656.871093 4.34375-.875 5.734375l-40.832031 32.503906 38.527343-22.246094c1.972657-1.140625 4.488281-.535156 5.726563 1.375 1.234375 1.914063.75 4.457032-1.101563 5.785156l-8.589843 6.1875 2.351562-1.367187c1.925781-1.121094 4.390625-.570313 5.65625 1.261719 1.265625 1.832031.910156 4.328125-.816406 5.734375l-16.570313 13.550781 5.265625-3.035156c2.039063-1.160156 4.628906-.457032 5.800782 1.574218 1.175781 2.03125.488281 4.628907-1.535157 5.8125l-50.867187 29.382813c-.652344.363281-1.386719.550781-2.132813.535156zm0 0" fill="#f76c82"/><g fill="#262626"><path d="m186.570312 501.433594c2.097657 1.085937 4.570313 1.167968 6.734376.222656 1.441406-.1875 2.808593-.75 3.964843-1.628906 106.609375-101.632813 269.210938-291.304688 141.144531-435.378906-63.191406-71.074219-174.003906-83.789063-253.78125-33.332032-90.695312 57.320313-103.46875 170.214844-61.550781 262.066406 36.230469 79.394532 97.671875 151.238282 163.488281 208.050782zm-164.070312-379.417969c29.335938-77.332031 108.230469-124.121094 190.15625-112.773437 71.035156 9.359374 130.332031 58.785156 152.335938 126.972656 19.269531 60.324218 2.136718 117.957031-27.203126 171.574218-38.808593 68.324219-87.546874 130.507813-144.621093 184.515626-60.929688-53.488282-117.378907-119.851563-153.082031-192.460938-27.355469-55.644531-39.492188-117.957031-17.585938-177.828125zm0 0"/><path d="m190.195312 315.792969c.171876 0 .34375-.058594.523438-.070313.355469.0625.714844.097656 1.074219.113282 67.710937-3.21875 126.0625-53.8125 126.292969-124.535157-.707032-68.304687-56.144532-123.371093-124.449219-123.625-64.738281.082031-119.136719 48.660157-126.515625 112.972657-7.074219 74.046874 51.71875 131.757812 123.074218 135.144531zm.796876-238.394531c145.917968-.386719 149.578124 221.558593 2.371093 229.101562-54.511719-3.019531-101.667969-38.621094-112.179687-93.746094-6.332032-33.007812 2.234375-67.128906 23.410156-93.230468 21.171875-26.101563 52.792969-41.519532 86.398438-42.125zm0 0"/><path d="m188.261719 253.847656c.253906-.015625.507812-.046875.757812-.09375h.5625c30.601563-1.644531 60.585938-18.832031 67.269531-50.867187 3.582032-18.164063-1.230468-36.972657-13.097656-51.183594-11.867187-14.214844-29.515625-22.304687-48.027344-22.023437-30.5.246093-61.054687 19.363281-67.824218 50.398437-8.71875 39.824219 22.121094 71.707031 60.359375 73.769531zm-4.824219-115.914062c15.375-3.625 31.542969.699218 43.058594 11.511718 9.0625 8.277344 15.34375 19.152344 17.988281 31.136719 3.769531 15.632813.601563 32.132813-8.691406 45.257813-9.292969 13.121094-23.804688 21.59375-39.800781 23.230468-63.265626-3.789062-81.222657-101.785156-12.554688-111.136718zm0 0"/></g></svg>