<svg height="502pt" viewBox="-49 0 502 502.3388" width="502pt" xmlns="http://www.w3.org/2000/svg"><path d="m28.503906 502.339844c-1.894531-.003906-3.5625-1.261719-4.089844-3.082032-.527343-1.820312.210938-3.769531 1.8125-4.785156l53.324219-33.828125-63.285156 36.53125c-2.003906 1.085938-4.511719.402344-5.6875-1.550781-1.175781-1.957031-.605469-4.488281 1.292969-5.753906l179.203125-112.007813-181.121094 104.53125c-2.015625 1.164063-4.589844.496094-5.789063-1.496093-1.199218-1.996094-.578124-4.582032 1.394532-5.816407l186.453125-116.90625-182.058594 105.121094c-2.007813 1.089844-4.511719.40625-5.6875-1.550781-1.175781-1.953125-.605469-4.488282 1.292969-5.75l166.246094-104.007813-161.851563 93.449219c-2.015625 1.117188-4.554687.429688-5.730469-1.550781-1.179687-1.980469-.574218-4.539063 1.371094-5.777344l91.082031-55.9375-86.722656 50.074219c-2.015625 1.136718-4.570313.457031-5.757813-1.527344s-.574218-4.554688 1.378907-5.792969l124.757812-77.550781-120.378906 69.492188c-2.011719 1.078124-4.515625.378906-5.679687-1.582032-1.164063-1.964844-.582032-4.496094 1.328124-5.746094l50.074219-30.625-45.722656 26.382813c-2.011719 1.109375-4.539063.425781-5.71875-1.542969s-.589844-4.515625 1.332031-5.769531l108.5625-67.601563-104.175781 60.144532c-2.007813 1.085937-4.511719.402344-5.6875-1.554688-1.175781-1.953125-.605469-4.488281 1.292969-5.75l117.101562-73.507812-112.707031 65.066406c-2.011719 1.09375-4.527344.402344-5.699219-1.5625s-.585937-4.503906 1.328125-5.757812l59.898438-37.007813-55.535157 32.058594c-2.019531 1.21875-4.640624.570312-5.859374-1.445313-1.21875-2.019531-.570313-4.640625 1.445312-5.859375l114.347656-72.429687-109.933594 63.460937c-2 1.101563-4.511718.429688-5.699218-1.515625-1.1875-1.949218-.632813-4.488281 1.261718-5.761718l128.128907-82.605469-123.691407 71.410156c-2 1.097656-4.511718.429687-5.699218-1.519531-1.1875-1.949219-.632813-4.488282 1.261718-5.761719l110.933594-71.339844-106.496094 61.441407c-2.011718 1.148437-4.566406.484374-5.765624-1.492188-1.199219-1.980469-.605469-4.554688 1.34375-5.804688l80.800781-51.394531-76.378907 44.132813c-2.011718 1.148437-4.566406.488281-5.765624-1.492188-1.199219-1.980468-.605469-4.554687 1.34375-5.804687l71.007812-45.226563-66.5625 38.445313c-2 1.097656-4.511719.429687-5.699219-1.519531-1.1875-1.949219-.632812-4.488282 1.261719-5.761719l76.691406-49.363281-72.277344 41.71875c-1.992187 1.082031-4.484374.421874-5.671874-1.507813-1.191407-1.929687-.664063-4.453125 1.199218-5.746094l85.71875-56.199219-81.246094 46.933594c-2 1.136719-4.539062.484375-5.742187-1.472656-1.207031-1.957031-.644531-4.515625 1.269531-5.789062l72.839844-47.746094-68.367188 39.433594c-1.992187 1.132812-4.527343.488281-5.734374-1.457032-1.210938-1.949218-.664063-4.503906 1.234374-5.789062l73.839844-49.152344-69.339844 40.039062c-1.996093 1.117188-4.511718.464844-5.714843-1.480468-1.199219-1.945313-.65625-4.488282 1.234375-5.773438l56.183594-37.152344-51.703126 29.867188c-2 1.15625-4.554687.515625-5.769531-1.445312-1.214843-1.964844-.648437-4.539063 1.28125-5.808594l47.726563-31.660156-43.238282 24.945312c-2.003906 1.164062-4.570312.515625-5.78125-1.457031-1.214843-1.976563-.628906-4.554688 1.316407-5.8125l21.113281-13.765625-16.648438 9.582031c-1.96875 1.140625-4.488281.535156-5.726562-1.375-1.234375-1.914063-.75-4.457031 1.101562-5.785156l67.847657-48.828125-63.222657 36.53125c-1.984374 1.117187-4.496093.480468-5.707031-1.449219-1.210937-1.929687-.691406-4.46875 1.175781-5.769531l30.769532-20.929688-26.238282 15.179688c-1.972656 1.082031-4.441406.449218-5.652343-1.445313-1.207031-1.894531-.742188-4.398437 1.070312-5.730469l34.625-24.296874-30.042969 17.347656c-1.289062.824218-2.917968.894531-4.273437.191406-1.355469-.707031-2.230469-2.078125-2.300781-3.605469-.066406-1.527343.6875-2.972656 1.972656-3.792969l28.109375-19.875-23.507813 13.566407c-1.976562 1.140625-4.496093.523437-5.726562-1.394531-1.226562-1.917969-.734375-4.464844 1.125-5.78125l18.714844-13.253907-14.113282 8.140625c-1.960937 1.125-4.453124.527344-5.691406-1.363281-1.238281-1.886719-.789062-4.414063 1.023438-5.761719l21.539062-15.871094-16.871094 9.769532c-1.929687 1.113281-4.390624.554687-5.648437-1.28125-1.257813-1.835938-.894531-4.332032.835937-5.730469l27.304688-22.058594-22.492188 12.988281c-1.90625 1.132813-4.363281.613282-5.652343-1.191406-1.289063-1.804687-.980469-4.296875.710937-5.730468l22.828125-19.796876-17.921875 10.324219c-1.898437 1.082031-4.308594.558594-5.582031-1.21875-1.273437-1.773437-1-4.222656.632813-5.675781l13.082031-11.476562-8.097657 4.667968c-1.816406 1.046875-4.121093.621094-5.445312-1.003906-1.320312-1.625-1.269531-3.96875.128906-5.535156l13.644532-15.300782-8.328126 4.804688c-1.78125 1.015625-4.03125.625-5.359374-.933594-1.332032-1.558594-1.367188-3.839844-.085938-5.4375l5.1875-6.425781c-1.140625-.265625-2.117188-.996094-2.695312-2.015625-1.179688-2.039062-.484376-4.648438 1.550781-5.828125l14.738281-8.535156c1.800781-1.109375 4.140625-.738281 5.507812.878906 1.363282 1.617187 1.335938 3.988281-.0625 5.574219l-3.140624 3.882812 11.484374-6.621094c1.816407-1.050781 4.121094-.625 5.445313 1 1.320313 1.628907 1.269531 3.972657-.128906 5.535157l-13.652344 15.257812 22.1875-12.800781c1.894531-1.0625 4.285156-.535156 5.554687 1.230469 1.265626 1.765625 1.007813 4.199219-.605468 5.65625l-13.03125 11.476562 19.335937-11.132812c1.90625-1.113281 4.347657-.589844 5.628907 1.207031 1.277343 1.796875.976562 4.273438-.695313 5.710938l-22.851563 19.796874 31.246094-18.011718c1.925782-1.085938 4.363282-.519532 5.613282 1.300781s.90625 4.296875-.796876 5.703125l-27.316406 22.007812 35.625-20.539062c1.960938-1.121094 4.453125-.523438 5.691406 1.363281 1.238282 1.890625.789063 4.414063-1.023437 5.761719l-21.539063 15.871094 27.699219-15.980469c1.976563-1.140625 4.496094-.527344 5.726563 1.394531 1.226562 1.917969.734375 4.460938-1.125 5.78125l-18.695313 13.242188 24.113281-13.925782c1.972657-1.136718 4.496094-.523437 5.722657 1.394532 1.230469 1.917968.734375 4.464844-1.121094 5.78125l-28.109375 19.882812 34.507812-19.925781c1.976563-1.152344 4.515626-.542969 5.746094 1.386719 1.234375 1.929687.722656 4.492187-1.15625 5.800781l-34.667968 24.285156 41.582031-24.023437c1.984375-1.113282 4.492187-.476563 5.703125 1.453125 1.210937 1.925781.695312 4.464843-1.171875 5.769531l-30.722657 20.90625 36.8125-21.25c1.972657-1.140625 4.492188-.535156 5.726563 1.375 1.234375 1.914062.75 4.460938-1.101563 5.785156l-67.828124 48.8125 79.101562-45.65625c1.996094-1.097656 4.5-.4375 5.695312 1.503906 1.191407 1.941407.648438 4.476563-1.230468 5.757813l-21.214844 13.84375 26.070312-15.054687c1.992188-1.132813 4.523438-.488282 5.734376 1.460937 1.207031 1.945313.660156 4.5-1.238282 5.785156l-47.703125 31.640625 54.613281-31.511718c2-1.160157 4.554688-.519532 5.769532 1.445312 1.214844 1.960938.648437 4.535156-1.277344 5.804688l-56.167969 37.140624 63.554688-36.695312c1.996093-1.132812 4.527343-.488281 5.734375 1.457031 1.210937 1.949219.664062 4.503907-1.234375 5.789063l-73.832031 49.140625 82.679687-47.734375c2.003906-1.199219 4.597656-.566406 5.824219 1.421875 1.226562 1.984375.625 4.589843-1.34375 5.839843l-72.824219 47.734376 81.066406-46.777344c2-1.136719 4.539063-.484375 5.742188 1.472656 1.207031 1.957031.644531 4.515625-1.269531 5.789062l-85.8125 56.199219 94.796874-54.722656c2.007813-1.179687 4.589844-.527344 5.800782 1.460937 1.210937 1.988282.605468 4.582032-1.363282 5.824219l-76.707031 49.382813 84.480469-48.765625c2.015625-1.222657 4.640625-.582031 5.863281 1.433593 1.222657 2.011719.582031 4.636719-1.433593 5.859376l-70.964844 45.175781 78.003906-45.039063c2.015625-1.222656 4.640625-.578125 5.863281 1.433594 1.222657 2.015625.582031 4.640625-1.433593 5.863281l-80.964844 51.492188 88.457031-51.054688c2-1.101562 4.511719-.433593 5.699219 1.515625 1.1875 1.949219.632812 4.488282-1.261719 5.761719l-110.898437 71.304687 120.429687-69.519531c2.003906-1.140625 4.550781-.484375 5.753906 1.484375 1.199219 1.964844.621094 4.53125-1.308593 5.792969l-128.117188 82.585937 138.742188-80.09375c2.003906-1.101562 4.523437-.425781 5.707031 1.53125 1.183593 1.957032.613281 4.5-1.296875 5.765626l-114.34375 72.445312 123.21875-71.140625c2.023437-1.210937 4.644531-.546875 5.855468 1.476563 1.207032 2.023437.546876 4.644531-1.476562 5.851562l-59.886719 37.003906 65.535157-37.839844c1.308593-.785156 2.933593-.816406 4.269531-.078124 1.332031.738281 2.171875 2.132812 2.199219 3.65625.027343 1.527343-.757813 2.949218-2.066407 3.734374l-117.066406 73.472657 125.507813-72.457031c2.015624-1.160157 4.589843-.492188 5.789062 1.5 1.195312 1.996093.578125 4.582031-1.394531 5.816406l-108.5 67.558594 116.152343-67.066407c2.019532-1.113281 4.554688-.425781 5.734376 1.554688 1.175781 1.980469.570312 4.535156-1.371094 5.777343l-50.144532 30.675782 55.195313-31.855469c2.007813-1.070313 4.503906-.378906 5.671875 1.574219s.597656 4.476562-1.292969 5.738281l-124.714843 77.511719 132.90625-76.726563c2.011718-1.089843 4.523437-.398437 5.695312 1.566407 1.175781 1.964843.585938 4.503906-1.328125 5.757812l-91.082031 55.925781 97.457031-56.277343c2.011719-1.125 4.550781-.453126 5.738281 1.519531 1.191406 1.972656.597656 4.535156-1.335937 5.785156l-166.246094 104.011719 176.164063-101.699219c2.007812-1.125 4.550781-.453125 5.738281 1.519531 1.191406 1.972656.597656 4.535156-1.335938 5.785156l-186.4375 116.90625 188.902344-109.070312c2.011719-1.109375 4.539063-.425781 5.71875 1.539062 1.179687 1.96875.59375 4.519532-1.332031 5.773438l-179.199219 112 30.207031-17.433594c2-1.085937 4.5-.410156 5.679688 1.539063 1.183594 1.945312.628906 4.472656-1.257813 5.746093l-180.242187 114.347657c.058594 1.582031-.761719 3.066406-2.132813 3.855469l-44.230469 25.515624c-.636718.371094-1.359374.574219-2.097656.582032zm0 0" fill="#46ceac"/><path d="m42.867188 3.8125c-.519532-.308594-1.105469-.496094-1.707032-.546875-36.15625-12.550781-39.800781 19.5-39.800781 46.558594v381.910156c0 22.332031-9.957031 74.539063 27.734375 70.339844 28.644531-3.183594 63.503906-37.546875 86.238281-52.265625l178.953125-115.996094c31.691406-20.539062 73.886719-39.25 101.195313-65.578125 29.679687-28.601563-19.738281-48.683594-40.347657-62.035156zm303.53125 287.097656-279.953126 181.410156c-7.417968 4.800782-20.660156 17.816407-29.46875 19.085938-26.453124 3.832031-21.707031-13.132812-23.226562-27.457031-4.632812-43.660157 0-90.457031 0-134.332031v-204.347657c0-8.484375-10.980469-126.636719 19.328125-115.203125l229.238281 148.53125c36.8125 23.851563 81.621094 45.226563 114.578125 74.242188 32.015625 28.210937-8.046875 43.527344-30.496093 58.070312zm0 0" fill="#262626"/></svg>