<svg height="502pt" viewBox="0 -1 502.83552 502" width="502pt" xmlns="http://www.w3.org/2000/svg"><path d="m125.128906 496.640625c-1.882812 0-3.535156-1.25-4.046875-3.0625-.507812-1.808594.25-3.742187 1.859375-4.71875l84.023438-51.359375-101.449219 58.542969c-1.972656 1.039062-4.410156.359375-5.554687-1.550781-1.148438-1.910157-.601563-4.382813 1.238281-5.632813l185.984375-116.117187-213.613282 123.300781c-1.984374 1.078125-4.46875.394531-5.617187-1.550781-1.152344-1.941407-.554687-4.449219 1.34375-5.667969l93.167969-56.53125-110.40625 63.75c-1.984375 1.117187-4.496094.449219-5.664063-1.503907-1.167969-1.953124-.566406-4.480468 1.355469-5.699218l204.085938-126-223.179688 128.855468c-1.992188 1.183594-4.570312.527344-5.753906-1.464843-1.183594-1.992188-.527344-4.570313 1.464844-5.753907l168.984374-103.011718-175.523437 101.324218c-1.980469 1.117188-4.492187.449219-5.660156-1.503906s-.566407-4.480468 1.355469-5.695312l231.574218-142.78125-233.289062 134.695312c-1.976563 1.058594-4.4375.371094-5.585938-1.558594-1.144531-1.929687-.570312-4.417968 1.308594-5.648437l166.332031-101.203125-162.832031 94.007812c-1.980469 1.074219-4.453125.394532-5.605469-1.539062-1.152343-1.933594-.578125-4.429688 1.308594-5.660156l220.5625-135.976563-216.25 124.84375c-1.292969.761719-2.890625.773438-4.195313.035157-1.304687-.738282-2.117187-2.117188-2.128906-3.617188-.011718-1.5.777344-2.890625 2.070313-3.652344l19.796875-11.867187-15.542969 8.964843c-2 1.175782-4.570313.511719-5.75-1.488281-1.175781-1.996093-.511719-4.570312 1.484375-5.746093l23.117188-13.875-18.851563 10.910156c-1.984375 1.117187-4.496094.449218-5.660156-1.503906-1.167969-1.953126-.566407-4.480469 1.355469-5.699219l188.464843-117.164063-184.160156 106.320313c-1.988281 1.109375-4.5.429687-5.65625-1.53125-1.15625-1.960938-.539063-4.488281 1.390625-5.695313l3.746094-2.25c-2.007813.789063-4.285156-.074218-5.269532-1.996094-.980468-1.917968-.347656-4.273437 1.464844-5.4375l170.101563-106.941406-165.777344 95.71875c-1.984375 1.078125-4.464844.394532-5.617187-1.550781-1.148438-1.941406-.554688-4.449219 1.34375-5.667969l32.273437-19.648437-28 16.164062c-1.972656 1.027344-4.402344.339844-5.542969-1.570312-1.136718-1.90625-.59375-4.371094 1.246094-5.621094l84.320312-52.199219-80.023437 46.195313c-1.976563 1.042969-4.421875.355469-5.5625-1.5625s-.582031-4.398438 1.273437-5.636719l31.425782-19.304688-27.136719 15.675782c-1.96875 1.042968-4.410156.359375-5.554687-1.550782-1.148438-1.910156-.601563-4.382812 1.242187-5.632812l68.144531-42.511719-63.789062 36.847657c-1.976563 1.105468-4.476563.445312-5.648438-1.496094-1.167968-1.941406-.585937-4.457032 1.316406-5.691406l68.480469-43.113282-64.199219 37.039063c-1.960937 1.097656-4.4375.453125-5.621093-1.457031-1.179688-1.914063-.644531-4.414063 1.214843-5.679688l104.503907-68.933594-100.097657 57.789063c-1.941406.90625-4.25.210937-5.363281-1.617188s-.671875-4.203125 1.023438-5.507812l31.996093-20.304688-27.65625 15.945313c-1.960937 1.117187-4.453124.484375-5.640624-1.433594-1.191407-1.914062-.652344-4.429688 1.214843-5.691406l66.59375-44.375-62.167969 35.863281c-1.941406 1.121094-4.421874.515625-5.628906-1.371094-1.210937-1.886719-.722656-4.390625 1.105469-5.6875l69.328125-49.140625-64.804688 37.390625c-1.945312 1.058594-4.378906.421875-5.558593-1.453125-1.175781-1.875-.695313-4.34375 1.101562-5.640625l28.351563-19.304687-23.894532 13.757812c-1.953124 1.160156-4.476562.550782-5.6875-1.367187-1.214843-1.921875-.679687-4.457031 1.203126-5.726563l14.632812-10.070312-10.148438 5.875c-1.917968 1.089844-4.351562.511718-5.574218-1.324219-1.21875-1.839844-.808594-4.304687.941406-5.648437l24.113281-18.375-19.496093 11.246093c-1.847657 1.015625-4.164063.503907-5.410157-1.195312-1.246093-1.703125-1.035156-4.0625.488281-5.519531l19.808594-17.9375-13.980468 8.066406c-1.824219 1.078125-4.164063.632812-5.457032-1.042969-1.296875-1.675781-1.140625-4.050781.359375-5.542969l8.578125-8.707031c-1.515625-.5625-2.574218-1.953125-2.714844-3.570313-.140624-1.613281.664063-3.164062 2.0625-3.980468l19.371094-11.199219c1.820313-1.0625 4.144532-.609375 5.433594 1.054687 1.289062 1.667969 1.144531 4.03125-.339844 5.527344l-4.597656 4.65625 21.160156-12.195312c1.847656-1.015625 4.160156-.503906 5.40625 1.199218 1.246094 1.699219 1.039063 4.0625-.488281 5.515626l-19.792969 17.9375 42.75-24.652344c1.914063-1.105469 4.359375-.539063 5.589844 1.300781 1.230469 1.847656.8125 4.335937-.957031 5.675781l-24.140625 18.332032 43.890625-25.308594c1.945312-1.097656 4.414062-.476563 5.609375 1.410156 1.195312 1.890625.699218 4.386719-1.128906 5.675781l-14.613282 10.070313 29.722656-17.15625c1.945313-1.054688 4.378907-.417969 5.554688 1.457031 1.179688 1.875.699219 4.339844-1.097656 5.636719l-28.328125 19.304687 45.769531-26.398437c1.933594-1.078125 4.375-.464844 5.574219 1.402344 1.195312 1.863281.734375 4.339843-1.050781 5.648437l-69.304688 49.152344 97.363281-56.234375c1.953125-1.066406 4.402344-.425782 5.574219 1.464844 1.175781 1.890624.671875 4.371093-1.152344 5.652343l-66.566406 44.359375 89.179688-51.445312c1.964843-1.039063 4.398437-.363282 5.550781 1.539062 1.152343 1.902344.621093 4.371094-1.210938 5.628906l-32.003906 20.304688 47.597656-27.472656c1.957031-1.050782 4.394531-.398438 5.558594 1.488281 1.167969 1.890625.664063 4.359375-1.152344 5.636719l-104.488281 68.902344 131.734375-76.027344c1.972656-1.082032 4.449219-.417969 5.613281 1.507812 1.164063 1.925782.601563 4.425782-1.273437 5.667969l-68.515625 43.144531 87.164062-50.363281c1.972656-1.039063 4.410156-.355469 5.558594 1.554687 1.144531 1.910157.601562 4.382813-1.242188 5.632813l-67.988281 42.4375 85.933594-49.582031c1.976563-1.070313 4.449219-.394532 5.605469 1.539062 1.152344 1.933594.574218 4.429688-1.308594 5.664063l-31.433594 19.304687 45.886719-26.507812c1.976563-1.054688 4.429687-.375 5.578125 1.546875s.589844 4.40625-1.273438 5.648437l-84.175781 52.070313 102.703125-59.265625c1.976563-1.058594 4.441406-.371094 5.585938 1.558594 1.144531 1.929687.570312 4.421874-1.308594 5.652343l-32.546875 19.816407 46.824219-27.027344c1.972656-1.050782 4.417968-.378906 5.574218 1.535156 1.152344 1.910156.609376 4.390625-1.242187 5.640625l-170.09375 106.890625 197.632813-114.066406c1.988281-1.109375 4.5-.425782 5.65625 1.535156 1.160156 1.960938.539062 4.488281-1.390626 5.691406l-1.753906 1.050782 14.351563-8.277344c1.972656-1.054688 4.429687-.375 5.578125 1.546875 1.148437 1.921875.589844 4.40625-1.273438 5.648437l-188.515625 117.136719 215.402344-124.332031c1.988281-1.109375 4.496094-.425782 5.65625 1.535156 1.15625 1.960938.539063 4.488281-1.394531 5.691406l-23.132813 13.890625 35.722657-20.621093c2-1.175782 4.570312-.507813 5.746093 1.488281 1.175781 2 .507813 4.570312-1.488281 5.746093l-20.144531 12.054688 27.546875-15.898438c1.980468-1.117187 4.492187-.449218 5.660156 1.503907s.566406 4.480469-1.355469 5.699219l-220.402343 135.878906 228.898437-132.152344c1.988281-1.132812 4.519531-.464844 5.6875 1.503906s.539063 4.511719-1.410156 5.714844l-166.382813 101.207031 166.90625-96.339843c1.976563-1.074219 4.449219-.394532 5.601563 1.539062 1.15625 1.933594.578125 4.429688-1.304688 5.660156l-231.585937 142.78125 228.304687-131.777344c1.976563-1.054687 4.441407-.371093 5.585938 1.558594 1.144531 1.933594.570312 4.421875-1.304688 5.652344l-169.027343 103.023438 164.738281-95.109376c1.988281-1.183593 4.566406-.53125 5.75 1.457032 1.1875 1.992187.535156 4.566406-1.453125 5.753906l-204.046875 125.996094 199.765625-115.320313c1.996094-1.179687 4.570312-.515625 5.75 1.480469 1.179687 1.992188.515625 4.566406-1.476563 5.746094l-93.085937 56.457031 88.796875-51.261719c1.96875-1.039062 4.40625-.355468 5.554687 1.554688 1.144532 1.910156.601563 4.382812-1.242187 5.632812l-185.980469 116.140625 181.667969-104.917969c1.976562-1.058593 4.4375-.371093 5.585937 1.558594 1.144532 1.929688.570313 4.417969-1.308594 5.648438l-84.125 51.460937 79.847657-46.097656c1.96875-1.082031 4.445312-.417969 5.613281 1.507813 1.164062 1.925781.601562 4.425781-1.277344 5.671874l-168.09375 106.710938 163.757813-94.535156c1.976562-1.058594 4.4375-.371094 5.585937 1.558594 1.144532 1.929687.570313 4.421874-1.308594 5.652343l-19.90625 12.136719 15.628907-9.015625c1.980469-1.140625 4.511719-.484375 5.691406 1.476563 1.179687 1.960937.570313 4.503906-1.371094 5.71875l-98.496093 61.742187 94.175781-54.347656c1.96875-1.039063 4.40625-.359375 5.554687 1.550781 1.144532 1.910156.601563 4.382812-1.242187 5.632812l-61.648438 38.441407 57.335938-33.09375c1.972656-1.054688 4.425781-.375 5.574219 1.546875 1.152343 1.917968.589843 4.402344-1.269532 5.644531l-28.875 17.929687 24.578125-14.191406c1.976563-1.132812 4.492188-.480468 5.671875 1.46875 1.179688 1.945313.589844 4.476563-1.324218 5.707032l-67.332032 42.90625 62.949219-36.359376c1.976563-1.128906 4.492187-.480468 5.671875 1.46875 1.179688 1.945313.59375 4.476563-1.324219 5.707032l-46.222656 29.476562 41.910156-24.179687c1.949219-1.042969 4.375-.390625 5.539063 1.488281 1.167968 1.878906.675781 4.34375-1.125 5.628906l-69.429688 46.164063 65.015625-37.527344c1.9375-1.074219 4.378907-.453125 5.570313 1.417969s.722656 4.34375-1.074219 5.648437l-68.085937 47.414063 63.589843-36.703125c1.945313-1.058594 4.378907-.421875 5.554688 1.453125 1.179687 1.875.699219 4.34375-1.097657 5.640625l-32.332031 21.988281 27.898438-16.089844c1.917969-1.074218 4.34375-.488281 5.554687 1.347656 1.214844 1.832032.804688 4.292969-.9375 5.636719l-42.589844 32.097657 37.929688-21.898438c1.894531-1.089844 4.308594-.539062 5.546875 1.257812 1.238281 1.800782.886719 4.25-.804687 5.632813l-28.007813 22.746094 23.265625-13.429688c1.816406-1.035156 4.113281-.578125 5.394531 1.070313 1.28125 1.652344 1.152344 3.992187-.296875 5.492187l-17.628906 18.027344 9.863281-5.6875c1.300781-.828125 2.949219-.875 4.296875-.125s2.171875 2.179687 2.152344 3.722656c-.023438 1.539063-.886719 2.945313-2.253906 3.660157l-36.273438 20.984374c-1.816406 1.035157-4.113281.578126-5.394531-1.074218-1.28125-1.648438-1.152344-3.988282.296875-5.488282l17.628906-18.023437-42.574218 24.527344c-1.890626 1.0625-4.277344.507812-5.507813-1.277344s-.898437-4.214844.765625-5.605469l28-22.738281-51.347656 29.621094c-1.917969 1.078125-4.34375.488281-5.554688-1.34375-1.214844-1.835938-.804687-4.296875.9375-5.640625l42.539063-32.085938-67.695313 39.070313c-1.945312 1.058593-4.378906.421875-5.554687-1.453125-1.179688-1.875-.699219-4.34375 1.097656-5.640625l32.339844-21.980469-50.359375 29.074219c-1.941406 1.074219-4.382813.453125-5.574219-1.417969s-.71875-4.347656 1.074219-5.648438l68.054687-47.398437-94.367187 54.464844c-1.953125 1.066406-4.402344.421875-5.574219-1.46875-1.175781-1.890625-.671875-4.371094 1.148437-5.648438l69.464844-46.164062-92.328125 53.296875c-1.96875 1.101562-4.460937.449218-5.632812-1.484375-1.171875-1.929688-.609375-4.441407 1.277343-5.683594l46.222657-29.460937-63.460938 36.613281c-1.972656 1.101562-4.460937.445312-5.636719-1.484375-1.171874-1.929688-.605468-4.441406 1.28125-5.683594l67.253907-42.855469-86.679688 50.023438c-1.976562 1.089843-4.460937.417969-5.621093-1.515625-1.164063-1.9375-.582032-4.445313 1.308593-5.675782l28.914063-17.957031-43.550782 25.183594c-1.976562 1.066406-4.441406.394531-5.597656-1.527344s-.59375-4.417969 1.273438-5.660156l61.5-38.339844-78.898438 45.535157c-1.976562 1.105468-4.476562.445312-5.648437-1.496094-1.167969-1.941406-.585938-4.457032 1.316406-5.691406l98.511719-61.773438-119.402344 68.917969c-1.984375 1.097656-4.480469.421875-5.636719-1.527344-1.160156-1.949219-.5625-4.464844 1.347657-5.683594l19.898437-12.09375-33.511719 19.304688c-1.96875 1.039062-4.402344.363281-5.550781-1.539063-1.152344-1.898437-.621094-4.367187 1.210937-5.628906l168.128907-106.714844-197.3125 113.882813c-.636719.378906-1.359375.585937-2.101563.597656zm0 0" fill="#eb5463"/><path d="m66.695312 161.144531c-1.851562 0-3.484374-1.214843-4.019531-2.988281-.535156-1.773438.15625-3.6875 1.703125-4.707031l1.148438-.765625-12.511719 7.226562c-1.9375 1.109375-4.398437.515625-5.613281-1.355468-1.210938-1.871094-.75-4.367188 1.054687-5.675782l36.484375-26.347656-31.894531 18.464844c-1.941406 1.121094-4.417969.515625-5.628906-1.371094-1.210938-1.886719-.722657-4.390625 1.105469-5.6875l9.945312-7.027344-5.429688 3.132813c-1.886718 1.070312-4.28125.523437-5.519531-1.257813-1.234375-1.78125-.910156-4.214844.753907-5.609375l20.378906-16.871093-15.613282 9.015624c-1.757812 1.003907-3.980468.613282-5.289062-.933593s-1.324219-3.804688-.039062-5.371094l12.589843-15.207031c-2.019531.65625-4.210937-.296875-5.105469-2.21875-.898437-1.925782-.214843-4.214844 1.585938-5.335938l19.316406-11.246094c1.757813-1.019531 3.988282-.628906 5.300782.917969 1.3125 1.550781 1.328124 3.816407.035156 5.382813l-12.4375 15.050781 38.675781-22.308594c1.882813-1.050781 4.257813-.5 5.488281 1.269531 1.230469 1.769532.917969 4.1875-.71875 5.585938l-20.371094 16.871094 41.101563-23.726563c1.9375-1.078125 4.375-.464843 5.574219 1.398438 1.195312 1.867187.738281 4.339843-1.050782 5.652343l-9.921874 7.015626 24.34375-14.066407c1.933593-1.109375 4.394531-.515625 5.609374 1.355469 1.210938 1.871094.75 4.367188-1.054687 5.675781l-36.503906 26.347657 57.875-33.378907c1.957031-1.082031 4.417969-.4375 5.59375 1.460938 1.179687 1.902343.660156 4.390625-1.179688 5.664062l-1.148437.765625 13.671875-7.890625c1.957031-1.117187 4.441406-.488281 5.636719 1.417969 1.191406 1.910156.667968 4.417969-1.1875 5.691406l-11.515626 7.761719 25.765626-14.871094c1.953124-1.054687 4.386718-.410156 5.558593 1.46875 1.171875 1.882813.679688 4.351563-1.125 5.640625l-9.234375 6.226563 23.082032-13.335938c1.929687-1.117187 4.394531-.527343 5.613281 1.339844 1.21875 1.863281.765625 4.355469-1.027344 5.675781l-40.675781 29.8125 63.789062-36.828125c1.925782-1.121093 4.390625-.542969 5.617188 1.320313 1.222656 1.859375.78125 4.351562-1.007813 5.679687l-43.34375 32.289063 68.113281-39.289063c1.925782-1.089843 4.367188-.492187 5.578126 1.363281 1.207031 1.851563.769531 4.328126-1.003907 5.652344l-40.039062 29.277344 62.859375-36.292969c1.949218-1.085937 4.402344-.457031 5.589844 1.429688s.695312 4.375-1.125 5.660156l-17.988282 12.28125 33.574219-19.371094c1.929687-1.105469 4.382813-.515625 5.597656 1.339844 1.21875 1.859375.777344 4.34375-1.003906 5.667969l-41.835937 30.878906 65.628906-37.886719c1.933594-1.140625 4.421875-.539062 5.617187 1.359375 1.210938 1.878906.738281 4.375-1.074219 5.679688l-34.933593 24.980468 55.472656-32.019531c1.941406-1.121093 4.417969-.515625 5.628906 1.371094 1.207031 1.886719.722657 4.390625-1.105469 5.6875l-32.207031 22.796875 51.730469-29.855469c1.9375-1.066406 4.367188-.445312 5.554688 1.417969 1.191406 1.863281.730468 4.328125-1.046876 5.640625l-29.589843 20.78125 42.554687-24.585937c1.925782-1.09375 4.367188-.503907 5.582032 1.34375 1.214843 1.851562.785156 4.328124-.980469 5.65625l-37.921875 28.070312 45.207031-26.085938c1.933594-1.085937 4.371094-.480468 5.574219 1.378907s.753906 4.335937-1.023438 5.652343l-19.640625 14.152344 20.570313-11.878906c1.878906-1.070312 4.265625-.535156 5.511718 1.230469 1.242188 1.769531.941407 4.195312-.703124 5.605469l-27.371094 23.15625 24.945312-14.394532c1.851563-1.09375 4.230469-.609375 5.507813 1.121094 1.277343 1.730469 1.042969 4.144531-.546875 5.59375l-13.898438 13.050781 9.023438-5.203125c1.777344-1.03125 4.039062-.625 5.347656.960938 1.304688 1.589844 1.269531 3.886718-.085938 5.433594l-4.105468 4.691406c1.8125-.433594 3.699218.367187 4.644531 1.972656 1.15625 2.007812.46875 4.574219-1.539063 5.734375l-20.488281 11.757813c-1.773437 1.019531-4.027343.613281-5.328125-.96875-1.304687-1.582032-1.273437-3.871094.066406-5.417969l3.785157-4.332031-18.597657 10.726562c-1.855468 1.109375-4.246093.632812-5.53125-1.101562-1.28125-1.738282-1.039062-4.164063.5625-5.613282l13.890626-13.023437-34.171876 19.789062c-1.878906 1.054688-4.246093.515625-5.484374-1.246093-1.238282-1.761719-.945313-4.175782.683593-5.585938l27.398438-23.148438-51.972657 30.007813c-1.933593 1.082031-4.375.476563-5.578124-1.382813-1.203126-1.859374-.753907-4.335937 1.027343-5.652343l19.683594-14.183594-36.773437 21.226563c-1.921876 1.09375-4.363282.503906-5.582032-1.34375-1.214844-1.851563-.785156-4.324219.984375-5.65625l37.886719-28.070313-60.777344 35.085937c-1.941406 1.101563-4.40625.488282-5.609375-1.394531-1.199219-1.882812-.714843-4.375 1.101563-5.671875l29.5625-20.742187-48.269532 27.867187c-1.941406 1.121094-4.421874.515625-5.628906-1.371094-1.210937-1.886718-.722656-4.390624 1.105469-5.6875l32.1875-22.796874-51.738281 29.871093c-1.933594 1.09375-4.386719.492188-5.589844-1.378906-1.207031-1.867187-.746094-4.351563 1.050781-5.660156l34.941407-25.039063-55.515626 32.046875c-1.925781 1.101563-4.378906.515625-5.59375-1.34375-1.21875-1.855469-.777343-4.339843 1.003907-5.664062l41.816406-30.878907-65.652344 37.902344c-1.957031 1.136719-4.457031.519532-5.660156-1.394531s-.675781-4.4375 1.195313-5.707031l18.027343-12.304688-33.574219 19.414063c-1.925781 1.089843-4.367187.492187-5.578124-1.363281-1.207032-1.851563-.769532-4.328126 1.003906-5.652344l39.960937-29.25-62.867187 36.292968c-1.925782 1.121094-4.390625.539063-5.613282-1.320312-1.226562-1.863281-.785156-4.355469 1.007813-5.679688l43.417969-32.308593-68.128906 39.332031c-1.929688 1.117188-4.394532.527344-5.613282-1.339844-1.21875-1.863281-.765625-4.359375 1.03125-5.675781l40.679688-29.839844-63.90625 36.871094c-1.957032 1.097656-4.429688.464844-5.613282-1.441406-1.1875-1.902344-.664062-4.402344 1.179688-5.675781l9.308594-6.25-23.171875 13.378906c-1.273438.792968-2.871094.847656-4.195313.144531-1.324218-.703125-2.171875-2.058594-2.222656-3.558594-.054688-1.496093.695312-2.910156 1.96875-3.703125l11.464844-7.722656-25.734375 14.855469c-.636719.375-1.359375.570312-2.097657.570312zm0 0" fill="#d94452"/><path d="m101.023438 85.605469c-1.832032 0-3.457032-1.1875-4.007813-2.9375-.550781-1.746094.097656-3.652344 1.601563-4.703125l28.535156-19.933594-32.171875 18.515625c-1.917969 1.101563-4.363281.519531-5.585938-1.324219-1.21875-1.84375-.800781-4.320312.960938-5.660156l33.925781-25.574219-29.300781 16.914063c-1.882813 1.097656-4.296875.570312-5.550781-1.21875-1.25-1.785156-.925782-4.234375.75-5.628906l24.359374-20.492188-19.566406 11.300781c-1.746094 1-3.957031.621094-5.269531-.90625-1.3125-1.527343-1.355469-3.773437-.101563-5.347656l13.429688-16.789063-.101562.058594c-1.300782.828125-2.949219.875-4.296876.125-1.347656-.75-2.171874-2.179687-2.152343-3.722656.023437-1.539062.886719-2.945312 2.253906-3.660156l19.328125-11.15625c1.746094-1.011719 3.96875-.636719 5.285156.894531s1.355469 3.78125.09375 5.359375l-13.425781 16.785156 41.597656-23.996094c1.882813-1.09375 4.289063-.566406 5.539063 1.214844 1.253906 1.78125.933594 4.226563-.730469 5.625l-24.339844 20.457032 47.304688-27.296876c1.917969-1.097656 4.363281-.519531 5.585937 1.324219 1.21875 1.84375.800782 4.320313-.960937 5.660157l-33.902344 25.542968 56.363281-32.527344c1.945313-1.136718 4.4375-.535156 5.652344 1.363282 1.210938 1.898437.710938 4.417968-1.136719 5.703125l-28.546875 19.960937 46.84375-27.027344c1.945313-1.070312 4.386719-.441406 5.574219 1.4375 1.183594 1.875.703125 4.351563-1.101563 5.648438l-22.039062 15.148438 38.558594-22.234376c1.9375-1.105468 4.402344-.5 5.609375 1.375 1.207031 1.878907.734375 4.371094-1.078125 5.675782l-33.632813 23.921875 53.660157-30.972657c1.953124-1.082031 4.410156-.445312 5.59375 1.449219 1.179687 1.894531.675781 4.378907-1.152344 5.660157l-9.957032 6.714843 23.914063-13.824219c1.917969-1.097656 4.363281-.519531 5.585937 1.324219 1.222657 1.84375.800782 4.320313-.960937 5.660157l-44.988281 33.890624 70.839844-40.875c1.9375-1.121093 4.414062-.527343 5.628906 1.355469 1.214844 1.878907.742187 4.382813-1.078125 5.6875l-36.09375 25.953125 57.117187-32.996094c1.925782-1.09375 4.367188-.503906 5.582032 1.34375 1.214843 1.851563.785156 4.324219-.980469 5.65625l-42.882813 31.894532 66.792969-38.609375c1.941406-1.105469 4.402344-.5 5.609375 1.378906 1.207031 1.875.734375 4.367187-1.074219 5.671875l-34.046875 24.300781 45.410156-26.214843c1.914063-1.097657 4.347657-.527344 5.578126 1.304687 1.226562 1.835937.824218 4.304687-.917969 5.65625l-40.367188 31.054687 46.398438-26.777343c1.9375-1.109375 4.398437-.511719 5.613281 1.359375 1.210938 1.871094.75 4.363281-1.054688 5.675781l-13.890624 10.023437 13.027343-7.511718c1.910157-1.078125 4.328125-.5 5.546875 1.324218 1.21875 1.824219.828125 4.277344-.898437 5.632813l-12.640625 9.683594 9.167968-5.285157c1.867188-1.085937 4.257813-.574218 5.519532 1.183594 1.257812 1.757813.976562 4.183594-.652344 5.605469l-10.769531 9.453125 5.976562-3.453125c1.589844-.898437 3.574219-.671875 4.917969.566406 1.339844 1.238281 1.730469 3.203125.957031 4.855469l-5.925781 12.535156.136719-.078125c1.296875-.761719 2.90625-.769531 4.210937-.019531 1.304688.75 2.109375 2.144531 2.105469 3.648438-.003906 1.507812-.8125 2.894531-2.121094 3.640624l-11.75 6.78125c-1.589843.902344-3.578125.671876-4.917969-.566406-1.34375-1.238281-1.730468-3.199218-.957031-4.855468l5.875-12.53125-31.15625 17.980468c-1.867187 1.0625-4.238281.546875-5.492187-1.199218-1.253906-1.746094-.984375-4.15625.621094-5.585938l10.746093-9.425781-28.136719 16.234375c-1.910156 1.054687-4.308593.472656-5.519531-1.34375-1.210937-1.816406-.828125-4.257813.878907-5.613282l12.648437-9.695312-28.804687 16.667969c-1.933594 1.109375-4.398438.515625-5.613282-1.355469-1.210937-1.871094-.75-4.367188 1.054688-5.675781l13.933594-10.074219-29.613282 17.089844c-1.914062 1.097656-4.347656.527344-5.574218-1.304688-1.230469-1.832031-.828126-4.304687.917968-5.652344l40.371094-31.058593-65.929688 38.058593c-1.9375 1.105469-4.402343.5-5.609374-1.375-1.207032-1.878906-.734376-4.371093 1.074218-5.675781l34.003906-24.265625-54.324218 31.347656c-1.921875 1.070313-4.34375.476563-5.550782-1.363281-1.207031-1.839843-.785156-4.300781.960938-5.636719l42.875-31.894531-67.359375 38.886719c-1.9375 1.125-4.414063.527344-5.628906-1.351562-1.214844-1.882813-.738281-4.386719 1.082031-5.691407l36.140625-25.96875-57.203125 33.03125c-1.917969 1.097657-4.363281.519531-5.582031-1.324219-1.222657-1.847656-.804688-4.324218.960937-5.660156l44.988282-33.902344-70.859376 40.910157c-1.957031 1.136719-4.464843.511719-5.664062-1.410157-1.199219-1.921874-.65625-4.445312 1.222656-5.707031l10.074219-6.714843-24.097656 13.882812c-1.9375 1.105469-4.402344.5-5.609375-1.375-1.207032-1.878906-.734375-4.371094 1.078125-5.675781l33.632812-23.9375-53.71875 31.003906c-1.953125 1.117187-4.433593.496094-5.632812-1.402344-1.199219-1.902343-.6875-4.410156 1.160156-5.691406l22.054687-15.171875-38.609374 22.28125c-.617188.363281-1.316407.558594-2.03125.574219zm0 0" fill="#eb5463"/><path d="m199.292969 429.15625c-1.835938-.003906-3.460938-1.203125-4.003907-2.960938-.539062-1.761718.128907-3.664062 1.648438-4.703124l47.671875-32.421876-48.90625 28.242188c-1.964844 1.117188-4.464844.476562-5.648437-1.449219-1.183594-1.921875-.632813-4.441406 1.25-5.695312l14.597656-9.566407-10.199219 5.875c-1.933594 1.070313-4.363281.457032-5.558594-1.402343-1.195312-1.855469-.746093-4.324219 1.027344-5.640625l53.0625-37.769532-48.539063 28c-1.925781 1.113282-4.386718.53125-5.609374-1.324218-1.222657-1.859375-.785157-4.347656 1-5.675782l52.089843-38.753906-47.480469 27.40625c-1.953124 1.113282-4.433593.496094-5.632812-1.40625-1.199219-1.898437-.6875-4.40625 1.15625-5.6875l13.347656-9.179687-8.871094 5.117187c-1.898437 1.078125-4.308593.523438-5.539062-1.28125-1.230469-1.804687-.875-4.25.820312-5.625l41.574219-33.222656-36.855469 21.320312c-1.914062 1.074219-4.332031.5-5.546874-1.324218-1.21875-1.824219-.828126-4.277344.894531-5.632813l23.207031-17.871093-18.5625 10.710937c-1.867188 1.078125-4.246094.570313-5.507812-1.179687-1.261719-1.746094-.992188-4.164063.621093-5.59375l27.378907-24.265626-22.492188 12.976563c-1.820312 1-4.097656.519531-5.359375-1.132813-1.257813-1.648437-1.121094-3.972656.320313-5.464843l20.566406-20.5625-15.527344 8.972656c-1.855469 1.144531-4.28125.679687-5.578125-1.070313-1.300781-1.75-1.042969-4.203124.589844-5.644531l7.445312-7.085937-2.457031 1.417968c-1.820312 1.035157-4.125.574219-5.402344-1.082031s-1.140625-4 .324219-5.496093l3.40625-3.460938c-1.449219.148438-2.875-.46875-3.757813-1.625-.886718-1.160156-1.105468-2.695312-.582031-4.054688l4.726563-12.238281c-1.949219.128907-3.726563-1.101562-4.292969-2.96875-.570313-1.867187.226563-3.878906 1.917969-4.855469l8.222656-4.75c1.539062-.890624 3.472656-.710937 4.824219.441407 1.355469 1.15625 1.832031 3.035156 1.195312 4.695312l-4.480469 11.601563 13.964844-8.058594c1.820313-1.035156 4.121094-.574219 5.398438 1.082031 1.28125 1.65625 1.144531 4-.320313 5.496094l-2.449219 2.519531 6.160157-3.550781c1.855469-1.167969 4.296875-.710937 5.605469 1.046875 1.304687 1.757812 1.039062 4.226562-.613282 5.667969l-7.417968 7.050781 12.648437-7.300781c1.820313-1 4.097656-.519531 5.355469 1.128906 1.261718 1.652344 1.125 3.976563-.320313 5.46875l-20.613281 20.5625 30.636719-17.675781c1.863281-1.0625 4.222656-.546875 5.476562 1.191406 1.253907 1.734375 1 4.136719-.59375 5.574219l-27.351562 24.265625 37.457031-21.625c1.914062-1.074219 4.332031-.496094 5.550781 1.328125s.824219 4.277343-.898437 5.632812l-23.191406 17.859375 30.214843-17.464844c1.902344-1.101562 4.328125-.550781 5.566407 1.261719 1.238281 1.8125.871093 4.273438-.839844 5.644531l-41.574219 33.214844 52.484375-30.300781c1.953125-1.160156 4.476562-.550781 5.6875 1.367187 1.214844 1.921876.679688 4.457032-1.203125 5.722657l-13.429687 9.234375 18.179687-10.492188c1.925781-1.121094 4.390625-.539062 5.617187 1.320313 1.222657 1.859375.78125 4.355469-1.007812 5.679687l-52.117188 38.777344 62.742188-36.207031c1.9375-1.105469 4.402344-.503907 5.609375 1.375 1.207031 1.875.734375 4.371093-1.078125 5.675781l-52.902344 37.652344 62.371094-36.007813c1.957031-1.066406 4.40625-.414062 5.578125 1.484375 1.171875 1.894532.652344 4.378906-1.179687 5.648438l-14.578126 9.550781 18.949219-10.910156c1.953125-1.097657 4.421875-.46875 5.613281 1.425781 1.191407 1.898438.683594 4.394531-1.15625 5.675781l-87.960937 59.800781c.125.167969.242187.339844.34375.523438 1.152344 2.003906.472656 4.5625-1.527344 5.722656l-53.28125 30.761719c-.640625.363281-1.363281.550781-2.101562.546875zm0 0" fill="#f4f6f8"/><g fill="#262626"><path d="m501.601562 189.765625c0-.125-.09375-.183594-.109374-.300781-.015626-.117188.132812-.371094.101562-.570313-3.902344-24.222656-21.1875-33.046875-41.96875-35.832031v-39.710938c-4.195312-26.203124-21.652344-33.253906-41.964844-34.824218v-40.714844c-6.035156-37.453125-36.539062-35.167969-66.210937-35.167969h-146.042969c-27.230469 0-62.1875-6.0625-88.90625 1.820313-34.78125 10.246094-30.457031 45.089844-29.996094 74.425781-42.714844 4.691406-42.09375 39.378906-41.96875 74.574219l-.710937.058594c-56.109375 6.859374-41.214844 74.046874-41.214844 114.957031 0 61.835937-5.875 126.800781 0 188.363281 4.410156 46.226562 46.375 39.316406 80.949219 39.316406 123.433594 0 250.214844 8.8125 373.324218 0 57.621094-4.121094 44.71875-65.621094 44.71875-107.4375zm-370.695312-180.683594c25.507812-4.433593 55.664062 0 81.507812 0h112.261719c28.898438 0 74.265625-8.707031 80.828125 31.984375v37.066406l-4.683594.050782h-224.480468c-26.421875-.730469-53.257813-1.820313-79.335938-.152344 2.265625-2.800781 1.007813-29.25 1.679688-33.664062 3.097656-19.332032 10.828125-31.566407 32.222656-35.285157zm-74.164062 125.253907c0-22.839844 1.316406-42.636719 28.292968-50.191407.605469-.167969 1.285156-.246093 1.90625-.386719.980469.597657 2.117188.890626 3.265625.839844h318.949219c.878906-.015625 1.757812-.109375 2.617188-.285156 17.425781 2.082031 32.003906 9.390625 35.699218 32.269531v35.496094c-17.449218-.660156-35.917968 1.371094-50.359375 1.371094h-224.578125c-37.769531 0-78.410156-4.046875-116.574218-1.085938.109374-3.546875.78125-11.757812.78125-18.027343zm420.015624 340.203124c-15.714843 18.148438-18.761718 14.671876-41.253906 14.671876h-274.542968c-35.25 0-80.980469 8.109374-115.449219 0-50.554688-11.894532-30.730469-112.195313-30.730469-148.394532v-88.753906c0-18.632812-4.121094-42.648438 0-60.9375 4.40625-19.5625 18.96875-28.074219 36.78125-31.441406h59.851562c5.726563.421875 11.054688.738281 15.648438.738281h216.1875c4.414062 0 9.996094-.308594 16.359375-.738281h87.292969c22.046875 3.9375 39.363281 13.078125 42.496094 32.457031v225.785156c.03125 25.464844 4.121093 37.214844-12.640626 56.613281zm0 0"/><path d="m340.355469 321.460938c-39.164063-31.058594-87.167969-54.761719-129.5625-81.417969-.519531-.265625-1.097657-.386719-1.679688-.359375h-.074219c-34.855468-1.921875-21.738281 47-21.738281 70.554687v85.972657c0 9.753906-3.71875 26.40625 6.765625 30.9375 8.628906 3.726562 20.421875-5.765626 26.859375-9.761719 23.03125-14.265625 45.867188-28.8125 68.824219-43.214844 14.964844-9.402344 43.957031-20.371094 54.761719-34.414063 7.660156-9.964843 4.445312-11.5-4.15625-18.296874zm-15.007813 24.296874c-19.515625 15.949219-44.484375 27.941407-65.828125 41.347657-8.242187 5.179687-46.886719 37.527343-56.113281 35.25-7.117188-1.761719-3.976562-27.796875-3.976562-37.476563 0-10.785156-.488282-130.734375 1.433593-139.734375l115.546875 72.578125c4.011719 2.519532 15.609375 7.09375 17.707032 11.132813 6.371093 12.21875-1.332032 10.792969-8.769532 16.878906zm0 0"/><path d="m101.578125 186.113281h-28.964844c-10.074219 0-20.714843-1.097656-28.925781 6.113281-8.460938 7.425782-7.554688 17.324219-7.554688 27.503907v30.023437c0 6.296875 12.324219 4.449219 12.324219-.957031v-22.183594c0-7.386719-1.972656-18.777343 1.570313-25.617187 4.574218-8.835938 18.824218-6.101563 27.160156-6.101563h23.308594c6.882812.035157 9.339844-8.78125 1.082031-8.78125zm0 0"/><path d="m436.132812 188.195312h-28.957031c-2.417969 0-13.683593 4.652344-7.972656 4.652344h24.464844c9.972656 0 23.835937-2.570312 29.90625 7.621094 4.136719 6.949219 2.292969 18.339844 2.292969 25.96875v24.464844c0 1.589844 12.152343 0 12.152343-3.253906v-27.859376c0-9.398437 1.769531-20.539062-6.304687-27.328124-6.847656-5.773438-17.265625-4.265626-25.582032-4.265626zm0 0"/></g></svg>