<svg height="507pt" viewBox="0 -3 507.12363 507" width="507pt" xmlns="http://www.w3.org/2000/svg"><g fill="#457393"><path d="m361.648438 475.921875c-1.734376.003906-3.296876-1.042969-3.957032-2.648437-.65625-1.605469-.277344-3.449219.960938-4.664063l5.503906-5.417969-9.460938 5.46875c-1.898437 1.101563-4.324218.582032-5.605468-1.199218s-1-4.246094.648437-5.695313l4.863281-4.265625-8.457031 4.890625c-1.921875 1.152344-4.410156.617187-5.691406-1.21875-1.285156-1.839844-.925781-4.355469.820313-5.761719l5.894531-4.890625-9.625 5.546875c-1.9375 1.09375-4.390625.515625-5.632813-1.328125-1.246094-1.84375-.867187-4.332031.871094-5.722656l3.480469-2.71875-6.730469 3.882813c-1.953125 1.101562-4.425781.503906-5.660156-1.367188-1.234375-1.875-.808594-4.382812.972656-5.742188l16.605469-12.398437-40.222657 23.226563c-1.324218.773437-2.957031.78125-4.285156.019531s-2.144531-2.179688-2.140625-3.710938c.003907-1.53125.828125-2.941406 2.15625-3.699219l103.175781-59.570312c1.953126-1.101562 4.429688-.503906 5.664063 1.367188 1.230469 1.871093.804687 4.382812-.976563 5.742187l-18.5 13.796875c1.636719-.242188 3.269532.46875 4.207032 1.835938 1.246094 1.855468.847656 4.363281-.914063 5.742187l-3.480469 2.722656c1.917969-1.101562 4.359376-.558593 5.625 1.257813 1.265626 1.8125.933594 4.292968-.761718 5.714844l-5.898438 4.90625 2.40625-1.382813c1.894532-1.066406 4.289063-.535156 5.554688 1.230469 1.269531 1.761718 1.007812 4.199218-.605469 5.65625l-4.863281 4.265625 1.28125-.734375c1.859375-1.058594 4.210937-.578125 5.507812 1.125 1.292969 1.703125 1.128906 4.101562-.386718 5.609375l-5.515626 5.417969 1.84375-1.058594c1.324219-.839844 3-.886719 4.371094-.125 1.367188.765625 2.207032 2.214844 2.183594 3.785156-.019531 1.566406-.898438 2.996094-2.285156 3.722656l-30.816406 17.789063c-.640626.386719-1.375.59375-2.125.597656zm0 0"/><path d="m455.746094 392.210938c-1.566406 0-3.007813-.863282-3.753906-2.246094-.742188-1.378906-.667969-3.058594.195312-4.367188l9.875-14.96875-31.191406 18c-1.914063 1.078125-4.335938.527344-5.59375-1.273437-1.257813-1.804688-.941406-4.265625.730468-5.691407l2.902344-2.421874-13.304687 7.679687c-2.027344 1.058594-4.527344.332031-5.671875-1.648437-1.144532-1.976563-.523438-4.507813 1.40625-5.734376l56.480468-32.613281c1.917969-1.125 4.378907-.585937 5.652344 1.238281 1.273438 1.820313.933594 4.316407-.777344 5.730469l-2.894531 2.410157 3.617188-2.082032c1.714843-.984375 3.878906-.664062 5.230469.773438 1.355468 1.4375 1.546874 3.617187.460937 5.265625l-14.242187 21.597656c.148437.183594.28125.378906.402343.582031 1.179688 2.039063.480469 4.648438-1.5625 5.828125l-5.828125 3.414063c-.648437.363281-1.386718.546875-2.132812.527344zm0 0"/><path d="m246.289062 502.488281c-1.753906-.003906-3.324218-1.074219-3.964843-2.703125s-.222657-3.484375 1.054687-4.679687l14.785156-13.859375-21.671874 12.511718c-1.996094 1.097657-4.503907.4375-5.695313-1.503906s-.648437-4.472656 1.230469-5.757812l98.132812-64.109375-99.769531 57.597656c-1.996094 1.097656-4.503906.4375-5.695313-1.503906-1.191406-1.9375-.648437-4.472657 1.230469-5.757813l96.605469-63.144531-98.148438 56.644531c-1.996093 1.113282-4.511718.460938-5.714843-1.484375-1.199219-1.941406-.65625-4.488281 1.234375-5.769531l108.75-71.878906-116.4375 67.167968c-2.003906 1.164063-4.570313.515626-5.78125-1.457031-1.214844-1.972656-.628906-4.554687 1.316406-5.8125l112.308594-73.269531-129.757813 74.90625c-1.324219.839844-3 .890625-4.367187.125-1.371094-.765625-2.210938-2.214844-2.1875-3.785156.019531-1.566406.898437-2.996094 2.289062-3.722656l265.386719-153.199219c2-1.164063 4.566406-.515625 5.777344 1.457031 1.214843 1.976562.628906 4.554688-1.316407 5.816406l-112.332031 73.257813 102.324219-59.066407c1.984375-1.070312 4.464844-.410156 5.648438 1.511719 1.1875 1.917969.675781 4.429688-1.171876 5.730469l-108.695312 71.910156 109.652344-63.308594c2.003906-1.164062 4.570312-.515624 5.78125 1.457032 1.210937 1.976562.628906 4.554687-1.316406 5.8125l-96.605469 63.148437 101.296875-58.488281c2.007812-1.234375 4.636718-.605469 5.871094 1.398438 1.234374 2.007812.609374 4.636718-1.398438 5.871093l-172.867188 112.914063c.644532 1.628906.226563 3.488281-1.050781 4.683594l-14.78125 13.84375 1.46875-.855469c1.710938-.984375 3.875-.667969 5.230469.769531 1.355469 1.433594 1.550781 3.613281.46875 5.265625l-6.824219 10.367187c.179688.203126.335938.425782.46875.664063 1.171875 2.039063.472657 4.644531-1.5625 5.820313l-5.972656 3.457031c-1.710937.984375-3.875.667969-5.230469-.765625-1.359375-1.4375-1.550781-3.613282-.46875-5.265625l2.558594-3.945313-17.9375 10.402344c-.652344.386719-1.394531.585938-2.148438.582031zm0 0"/><path d="m472.601562 283.503906c-1.933593 0-3.625-1.296875-4.121093-3.160156-.5-1.867188.3125-3.835938 1.984375-4.800781l27.683594-15.984375c1.324218-.839844 3-.886719 4.367187-.125 1.371094.765625 2.210937 2.21875 2.1875 3.785156-.019531 1.566406-.898437 2.996094-2.289063 3.722656l-27.679687 15.984375c-.648437.375-1.386719.578125-2.132813.578125zm0 0"/><path d="m325.929688 339.765625c-1.875-.003906-3.53125-1.230469-4.074219-3.027344-.546875-1.792969.144531-3.734375 1.699219-4.78125l55.375-37.128906-27.015626 15.589844c-1.980468 1.117187-4.488281.488281-5.703124-1.433594-1.21875-1.921875-.710938-4.457031 1.144531-5.765625l36.453125-25.191406-23.226563 13.40625c-1.980469 1.277344-4.621093.703125-5.898437-1.277344s-.707032-4.625 1.273437-5.898438l24.234375-17.070312-15.101562 8.722656c-1.949219 1.101563-4.414063.511719-5.652344-1.347656-1.242188-1.859375-.832031-4.363281.933594-5.734375l36.734375-28.117187-30.320313 17.527343c-1.980468 1.175781-4.539062.566407-5.777344-1.375-1.238281-1.945312-.707031-4.519531 1.195313-5.820312l3.414063-2.378907c-1.816407.550782-3.777344-.140624-4.847657-1.707031-1.253906-1.867187-.847656-4.386719.929688-5.761719l31.925781-24.746093-28.765625 16.617187c-1.984375 1.152344-4.523437.53125-5.75-1.40625-1.230469-1.9375-.707031-4.496094 1.183594-5.796875l13.175781-9.140625-11.476562 6.621094c-1.988282 1.15625-4.53125.527344-5.753907-1.417969-1.222656-1.945312-.6875-4.507812 1.210938-5.800781l21.410156-14.609375-20.101563 11.605469c-1.96875 1.113281-4.460937.496094-5.6875-1.402344-1.222656-1.898438-.753906-4.421875 1.070313-5.757812l41.335937-29.644532-42.933593 24.75c-1.984375 1.152344-4.527344.523438-5.753907-1.421875-1.222656-1.945312-.683593-4.507812 1.214844-5.800781l19.046875-12.953125-19.449219 11.214844c-1.933593 1.09375-4.386718.515625-5.632812-1.328125s-.863281-4.332032.875-5.722656l46.640625-36.574219-52.828125 30.5c-1.972656 1.125-4.476562.507812-5.703125-1.398438-1.226563-1.910156-.746094-4.445312 1.09375-5.769531l6.980469-4.957031-9.386719 5.417969c-1.957031 1.097656-4.429687.488281-5.65625-1.386719-1.226563-1.878907-.792969-4.386719.996094-5.738281l13.65625-10.019532-17.589844 10.09375c-1.941406 1.109375-4.410156.53125-5.65625-1.324218-1.246094-1.859376-.847656-4.363282.914063-5.738282l25.222656-19.550781-32.878906 18.976563c-1.953126 1.128906-4.449219.539062-5.691407-1.34375-1.246093-1.882813-.808593-4.410157 1-5.761719l21.332031-15.957031-29.253906 16.878906c-1.964844 1.125-4.46875.519531-5.703125-1.382813-1.234375-1.902343-.761719-4.4375 1.070313-5.769531l24.449218-17.648438-34.988281 20.207032c-1.957031 1.121094-4.453125.523437-5.6875-1.363282-1.238281-1.886718-.789062-4.414062 1.019531-5.761718l48.582032-35.839844-69.035156 39.875c-1.984376 1.117188-4.496094.480469-5.707032-1.449219-1.207031-1.929687-.691406-4.464843 1.175782-5.769531l41.214843-28.039062-71.578125 41.316406c-1.320312.84375-3 .890625-4.367187.125-1.367188-.761719-2.207031-2.214844-2.1875-3.78125.023437-1.566406.902343-2.996094 2.289062-3.722656l171.613281-99.089844c1.988282-1.152344 4.53125-.527344 5.753907 1.417968 1.222656 1.945313.6875 4.511719-1.214844 5.800782l-41.25 28.066406 35.039063-20.222656c1.960937-1.125 4.453124-.523438 5.691406 1.363281 1.234375 1.886719.789062 4.414063-1.023438 5.761719l-48.570312 35.839844 41.8125-24.140626c1.964844-1.128906 4.472656-.523437 5.703125 1.378907 1.234375 1.902343.761719 4.4375-1.070313 5.769531l-24.507812 17.683594 18.332031-10.582032c1.953125-1.128906 4.449219-.539062 5.691406 1.34375 1.242188 1.882813.804688 4.410157-1 5.765626l-21.332031 15.949218 25.265625-14.585937c1.945313-1.132813 4.433594-.558594 5.6875 1.304687 1.257813 1.867188.847656 4.386719-.933594 5.761719l-25.226562 19.542969 29.980469-17.296875c1.957031-1.097657 4.429687-.492188 5.65625 1.386719 1.226562 1.875.792968 4.382812-1 5.738281l-13.652344 10.015625 21.179687-12.21875c1.972657-1.125 4.476563-.507813 5.703125 1.398437 1.226563 1.910157.746094 4.445313-1.09375 5.769531l-7.015625 4.992188 26.539063-15.359375c1.9375-1.117187 4.410156-.546875 5.664062 1.304687 1.253906 1.851563.863282 4.359376-.894531 5.742188l-46.632813 36.558594 65.140626-37.605469c1.992187-1.21875 4.589843-.609375 5.835937 1.367187 1.242187 1.972657.671875 4.578126-1.285156 5.851563l-18.953125 12.925781 19.824218-11.382812c1.960938-1.078125 4.421876-.453125 5.636719 1.425781 1.214844 1.882813.769531 4.378906-1.023437 5.726563l-41.308594 29.644531 43.273438-24.988281c1.988281-1.152344 4.53125-.523438 5.753906 1.421874 1.222656 1.945313.6875 4.507813-1.214844 5.800782l-21.476562 14.660156 2.5-1.445312c1.984374-1.207032 4.570312-.601563 5.816406 1.359374 1.246094 1.960938.695312 4.5625-1.242188 5.84375l-17.296875 11.949219c1.878907-.148437 3.632813.957031 4.3125 2.714844.679688 1.761719.121094 3.757813-1.371093 4.910156l-31.941407 24.859375 30.808594-17.84375c1.976563-1.132812 4.5-.511718 5.722656 1.410156 1.222657 1.925782.71875 4.472657-1.148437 5.785157l-2.46875 1.707031.324218-.1875c1.949219-1.125 4.433594-.546875 5.683594 1.324219 1.25 1.871093.832032 4.390625-.957031 5.757812l-36.742187 28.117188 39.96875-23.039063c1.976562-1.15625 4.515624-.542968 5.75 1.386719 1.230468 1.929687.722656 4.488281-1.160157 5.796875l-24.199219 17.066406 32.597657-18.773437c1.984375-1.152344 4.523437-.535157 5.75 1.402343 1.226562 1.9375.703125 4.5-1.183594 5.800782l-36.457031 25.191406 45.960937-26.539062c1.992188-1.117188 4.503907-.46875 5.710938 1.464843 1.203125 1.9375.675781 4.476563-1.203125 5.769531l-55.355469 37.128907 63.8125-36.847657c2.039063-1.160156 4.628906-.453124 5.800781 1.578126 1.175782 2.03125.488282 4.625-1.535156 5.8125l-173.875 100.328124c-.648438.375-1.382812.574219-2.132812.570313zm0 0"/><path d="m141.601562 475.574219c-1.914062.003906-3.597656-1.269531-4.117187-3.109375-.515625-1.84375.253906-3.804688 1.886719-4.800782l56.621094-34.492187-62.890626 36.308594c-2.023437 1.152343-4.59375.472656-5.78125-1.53125-1.1875-2-.550781-4.585938 1.429688-5.808594l55.175781-33.585937-60.679687 35.027343c-1.996094 1.117188-4.511719.464844-5.714844-1.480469-1.199219-1.941406-.65625-4.488281 1.234375-5.769531l24.679687-16.214843-23.859374 13.789062c-1.957032 1.113281-4.441407.515625-5.675782-1.367188-1.234375-1.878906-.800781-4.394531.996094-5.75l60.101562-44.550781-53.085937 30.652344c-1.984375 1.113281-4.496094.476563-5.703125-1.453125-1.210938-1.925781-.695312-4.464844 1.171875-5.765625l8.03125-5.453125-2.226563 1.277344c-1.9375 1.148437-4.433593.597656-5.703124-1.261719-1.269532-1.855469-.875-4.382813.898437-5.769531l39.320313-31.394532-39.253907 22.648438c-1.957031 1.097656-4.429687.492188-5.65625-1.386719-1.226562-1.878906-.792969-4.386719.996094-5.738281l15.175781-11.160156-18.367187 10.605468c-1.972657 1.136719-4.492188.523438-5.722657-1.394531-1.230468-1.917969-.734374-4.464843 1.125-5.78125l2.839844-2.023437-4.785156 2.773437c-1.910156 1.109375-4.351562.574219-5.625-1.234375-1.273438-1.804687-.957031-4.28125.726562-5.710937l34.925782-29.652344-63.65625 36.742187c-1.953125 1.136719-4.449219.554688-5.699219-1.324218s-.820313-4.40625.980469-5.765625l41.007812-31.148438-59.125 34.136719c-1.988281 1.175781-4.550781.558594-5.78125-1.394531-1.234375-1.949219-.691406-4.527344 1.222656-5.816407l23.996094-16.523437-25.179687 14.507813c-1.96875 1.128906-4.472657.523437-5.707031-1.378907-1.230469-1.902343-.761719-4.4375 1.070312-5.773437l43.222656-31.203125-45.398437 26.195312c-1.960938 1.117188-4.453125.511719-5.683594-1.382812-1.234375-1.894531-.773437-4.417969 1.042969-5.757813l47.445312-34.46875-24.4375 14.105469c-1.949218 1.125-4.4375.546875-5.683594-1.324219-1.25-1.871094-.832031-4.390625.953126-5.757812l39.996093-30.601563-27.253906 15.730469c-1.929687 1.074219-4.363281.5-5.605469-1.324219-1.246094-1.824219-.890625-4.296875.816406-5.699219l38.820313-30.960937-38.402344 22.1875c-1.976562 1.105469-4.46875.472656-5.683593-1.4375-1.210938-1.914063-.722657-4.4375 1.121093-5.757813l4.929688-3.410156-3.148438 1.816406c-1.941406 1.125-4.421875.554688-5.675781-1.304687s-.855469-4.375.914062-5.753906l48.640626-37.835938-63.546876 36.695313c-1.96875 1.070312-4.429687.441406-5.636718-1.445313-1.207032-1.886719-.75-4.386719 1.046875-5.722656l51.941406-36.695313-64 36.925782c-2.011719 1.226562-4.636719.597656-5.867187-1.414063-1.230469-2.011719-.597657-4.636719 1.410156-5.867187l23.109375-14.90625-27.1875 15.699218c-2.023438 1.226563-4.65625.578126-5.882813-1.445312-1.226562-2.023438-.578125-4.660156 1.445313-5.882812l153.917969-95.914063-150.128907 86.671875c-1.777343 1.015625-4.027343.625-5.359375-.933594-1.332031-1.558594-1.367187-3.84375-.085937-5.441406l4.21875-5.222656c-1.753907.25-3.484375-.585938-4.378907-2.117188-1.179687-2.039062-.480468-4.648437 1.5625-5.828125l17.917969-10.351562c1.78125-1.023438 4.039063-.636719 5.375.925781 1.335938 1.558594 1.367188 3.851562.078125 5.449219l-3.738281 4.625 349.585937-201.792969c1.308594-.785156 2.9375-.816406 4.269532-.074219 1.332031.738281 2.171875 2.136719 2.199218 3.660157.023438 1.527343-.765624 2.949218-2.074218 3.734374l-192.375 119.882813c.910156.328125 1.675781.957031 2.175781 1.785156 1.203125 1.972657.617187 4.546875-1.324219 5.800781l-26.894531 17.339844c1.988281-.421875 4 .617188 4.804687 2.480469.808594 1.867187.183594 4.042969-1.484374 5.199219l-51.945313 36.695312 35.945313-20.753906c1.9375-1.125 4.417968-.554688 5.671874 1.304688 1.257813 1.859374.855469 4.375-.910156 5.753906l-48.589844 37.820312 38.136719-22.015625c1.980469-1.15625 4.519531-.535156 5.746094 1.402344 1.230469 1.9375.707031 4.496094-1.183594 5.796875l-5.1875 3.59375c1.964844-.859375 4.265625-.128906 5.371094 1.710938 1.105469 1.835937.671875 4.210937-1.011719 5.542968l-38.84375 30.976563 34.878906-20.132813c1.949219-1.132812 4.445313-.554687 5.695313 1.324219s.820313 4.40625-.976563 5.769531l-39.953124 30.574219 38.101562-22c1.960938-1.117187 4.453125-.507813 5.683594 1.382813 1.234375 1.894531.773437 4.417968-1.042969 5.761718l-47.472656 34.472656 47.34375-27.304687c1.96875-1.128906 4.472656-.523437 5.707031 1.378906 1.230469 1.902344.761719 4.4375-1.074219 5.769531l-43.238281 31.214844 45.167969-26.066406c1.984375-1.15625 4.523437-.535156 5.75 1.402344 1.226562 1.9375.703125 4.496094-1.183594 5.796875l-24.03125 16.523437 25.082031-14.507812c1.945313-1.109375 4.421875-.519532 5.664063 1.347656 1.238281 1.867188.824219 4.375-.957031 5.742188l-40.957032 31.140624 46-26.558593c1.910156-1.066407 4.3125-.519531 5.574219 1.265625 1.257813 1.785156.964844 4.234375-.683594 5.671875l-34.917969 29.6875 43.1875-24.933594c1.972657-1.136719 4.492188-.523437 5.722657 1.394531 1.230469 1.917969.734375 4.464844-1.125 5.78125l-2.824219 1.996094 5.976562-3.410156c1.953126-1.074219 4.40625-.460938 5.625 1.40625 1.21875 1.867187.792969 4.359375-.976562 5.71875l-15.164062 11.195312 21.480468-12.398437c1.929688-1.097657 4.378906-.53125 5.628906 1.304687 1.25 1.832032.890626 4.316406-.835937 5.71875l-39.320313 31.410156 53.863282-31.15625c1.976562-1.074218 4.449218-.425781 5.648437 1.480469s.707031 4.414063-1.117187 5.730469l-7.988282 5.4375 16.90625-9.765625c1.953126-1.109375 4.4375-.511719 5.671876 1.367187 1.238281 1.882813.800781 4.398438-.996094 5.75l-60.101563 44.554688 90.019531-51.996094c1.996094-1.132812 4.535157-.484375 5.742188 1.472656 1.203125 1.957032.640625 4.519532-1.273438 5.792969l-24.675781 16.203125 248.320313-143.359375c2.007812-1.046875 4.484375-.339843 5.640625 1.609375 1.152343 1.949219.582031 4.460938-1.296875 5.71875l-55.417969 33.742188 51.421875-29.679688c2.011719-1.074218 4.515625-.375 5.679688 1.585938 1.167968 1.960937.582031 4.492187-1.328126 5.746094l-323.761718 197.476562c-.339844.9375-1.003906 1.71875-1.867188 2.210938l-33.332031 19.242187c-.648437.378906-1.382813.582031-2.132813.589844zm0 0"/><path d="m347.570312 43.25c-1.925781-.007812-3.609374-1.304688-4.105468-3.164062-.5-1.859376.308594-3.820313 1.972656-4.789063l15.316406-8.839844c2.027344-1.0625 4.527344-.335937 5.671875 1.644531 1.144531 1.980469.523438 4.507813-1.40625 5.734376l-15.316406 8.839843c-.648437.375-1.386719.574219-2.132813.574219zm0 0"/><path d="m53.152344 217.097656c-1.898438.003906-3.570313-1.242187-4.105469-3.0625-.535156-1.816406.195313-3.773437 1.792969-4.796875l98.78125-63.554687-89.402344 51.617187c-1.992188 1.132813-4.527344.488281-5.734375-1.457031-1.210937-1.949219-.664063-4.503906 1.238281-5.789062l111.863282-74.074219-110.160157 63.597656c-2 1.082031-4.5.40625-5.679687-1.539063-1.179688-1.945312-.625-4.476562 1.261718-5.75l50.960938-32.296874-53.292969 30.769531c-1.984375 1.070312-4.464843.410156-5.648437-1.511719-1.1875-1.917969-.675782-4.433594 1.171875-5.730469l98.34375-64.308593-103.097657 59.503906c-1.855468 1.042968-4.195312.558594-5.488281-1.136719-1.289062-1.691406-1.132812-4.078125.367188-5.589844l14.140625-13.992187-17.136719 9.878906c-1.726563.996094-3.910156.664062-5.261719-.800781-1.351562-1.460938-1.511718-3.664063-.386718-5.308594l14.4375-20.972656c-.097657-.132813-.1875-.269531-.273438-.410157-1.175781-2.042968-.476562-4.652343 1.5625-5.828124l5.828125-3.371094c1.726563-.996094 3.910156-.664063 5.265625.800781 1.351562 1.460937 1.511719 3.664063.382812 5.308594l-9.46875 13.796875 29.464844-17.066406c1.855469-1.042969 4.195313-.558594 5.484375 1.136718 1.289063 1.691406 1.132813 4.078125-.363281 5.589844l-14.175781 14.019531 207.429687-119.730469c1.992188-1.101562 4.5-.4375 5.691406 1.503907 1.191407 1.9375.652344 4.472656-1.230468 5.757812l-98.234375 64.246094 99.839843-57.660156c2-1.082031 4.5-.40625 5.679688 1.539062 1.179688 1.945313.625 4.476563-1.261719 5.75l-50.96875 32.304688 51.03125-29.457031c1.996094-1.15625 4.550781-.515626 5.765625 1.449218 1.214844 1.960938.648438 4.535156-1.277344 5.804688l-111.898437 74.105468 122.582031-70.769531c2.003906-1.140625 4.550782-.480469 5.75 1.484375 1.203125 1.96875.625 4.535156-1.304687 5.796875l-98.707031 63.496094 113.878906-65.75c2.039062-1.160156 4.632812-.453125 5.804687 1.574219 1.171875 2.03125.484375 4.628906-1.539062 5.816406l-267.570313 154.488281c-.648437.375-1.382812.578125-2.132812.578125zm0 0"/><path d="m217.648438 51.339844c-1.785157 0-3.382813-1.113282-4-2.789063-.621094-1.675781-.128907-3.558593 1.226562-4.722656l14.355469-12.277344-1.90625 1.101563c-1.683594.96875-3.8125.675781-5.171875-.710938-1.363282-1.386718-1.613282-3.519531-.613282-5.1875l9.226563-15.214844c-.28125-.28125-.523437-.597656-.726563-.9375-1.171874-2.039062-.472656-4.644531 1.5625-5.820312l5.972657-3.457031c1.6875-.976563 3.820312-.683594 5.183593.707031 1.367188 1.390625 1.613282 3.53125.601563 5.199219l-5.894531 9.71875 27.59375-15.921875c1.910156-1.105469 4.347656-.570313 5.621094 1.230468 1.269531 1.800782.964843 4.273438-.710938 5.707032l-14.328125 12.234375 15.835937-9.144531c2.027344-1.0625 4.527344-.335938 5.671876 1.644531 1.144531 1.976562.523437 4.507812-1.402344 5.734375l-55.964844 32.324218c-.644531.382813-1.382812.582032-2.132812.582032zm0 0"/><path d="m102.765625 118.589844c-1.804687 0-3.414063-1.140625-4.019531-2.839844-.601563-1.703125-.070313-3.597656 1.332031-4.738281l32.367187-26.308594-10.652343 6.152344c-1.902344 1.113281-4.34375.589843-5.625-1.207031-1.28125-1.796876-.980469-4.273438.695312-5.710938l12.910157-11.179688-9.625 5.5625c-1.871094 1.082032-4.257813.59375-5.550782-1.136718-1.296875-1.730469-1.09375-4.15625.472656-5.648438l11.808594-11.269531-8.457031 4.878906c-1.835937 1.050781-4.167969.59375-5.472656-1.074219-1.304688-1.667968-1.191407-4.039062.269531-5.570312l8.242188-8.535156-4.675782 2.695312c-1.324218.84375-3 .890625-4.367187.125-1.371094-.761718-2.210938-2.214844-2.1875-3.78125.019531-1.566406.898437-2.996094 2.289062-3.722656l30.8125-17.792969c1.839844-1.050781 4.167969-.59375 5.476563 1.074219 1.304687 1.667969 1.1875 4.039062-.269532 5.574219l-8.234374 8.53125 13.285156-7.679688c1.886718-1.1875 4.367187-.722656 5.699218 1.0625 1.328126 1.789063 1.058594 4.300781-.621093 5.765625l-11.777344 11.238282 17.476563-10.113282c1.90625-1.09375 4.328124-.5625 5.601562 1.226563 1.273438 1.789062.980469 4.253906-.679688 5.695312l-12.902343 11.160157 18.246093-10.53125c1.921876-1.078126 4.351563-.515626 5.601563 1.300781 1.253906 1.816406.914063 4.285156-.78125 5.699219l-32.382813 26.324218 61.933594-35.753906c1.324219-.839844 3-.890625 4.371094-.125 1.367188.761719 2.207031 2.214844 2.183594 3.78125-.019532 1.570312-.898438 2.996094-2.285156 3.722656l-108.375 62.566406c-.648438.382813-1.382813.582032-2.132813.582032zm0 0"/></g><path d="m30.617188 219.667969-26.453126 11.324219c-1.367187.585937-3.527343 2.003906-3.628906 3.71875-.726562 11.882812-.714844 23.796874.042969 35.679687.207031.699219.691406 1.285156 1.339844 1.621094 20.871093 8.949219 41.695312 11.441406 47.71875 34.132812 5.972656 22.460938-10.804688 35.171875-24.3125 53.238281-.386719.617188-.515625 1.363282-.347657 2.074219 5.285157 10.664063 11.234376 20.992188 17.808594 30.917969.945313 1.433594 3.523438 1.585938 5 1.40625l24.5-2.925781c18.566406-2.210938 18.285156-4.445313 30.828125 7.859375 16.742188 16.417968 8.535157 35.839844 5.8125 58.375-.128906 1.085937.414063 2.140625 1.375 2.664062 9.632813 6.390625 19.65625 12.175782 30.011719 17.320313 2.898438 1.246093 6.238281.882812 8.804688-.953125l19.738281-14.789063c15.078125-11.273437 12.527343-11.777343 27.945312-8.464843 21.941407 4.710937 24.75 27.136718 33.28125 46.933593.71875 1.488281 2.253907 2.410157 3.910157 2.34375 12.058593.753907 24.152343.753907 36.214843 0 2.617188-.09375 5.035157-1.410156 6.535157-3.558593 8.105468-18.917969 11.09375-40.675782 30.898437-45.804688 19.808594-5.128906 33.007813 11.945312 49.496094 24.269531 2.371093 1.097657 5.117187 1.03125 7.429687-.1875 10.828125-5.375 21.304688-11.414062 31.378906-18.09375 1.460938-.769531 2.332032-2.332031 2.21875-3.984375-2.5625-21.589844-11.214843-41.90625 5.214844-57.25 10.382813-9.703125 7.480469-9.179687 24.429688-7.160156l28.5625 3.414062c3.140625.308594 6.214844-1.050781 8.105468-3.582031 6.390626-9.632812 12.175782-19.652343 17.320313-30.003906.574219-.929687.519531-2.113281-.136719-2.988281-13.609375-18.199219-30.375-30.71875-24.128906-53.367188 4.171875-15.136718 3.328125-13.992187 18.992188-20.710937l25.355468-10.851563c1.191406-.328125 2.296875-.910156 3.242188-1.707031l.167968-.15625c.347657-.316406.636719-.691406.855469-1.109375.070313-.132812.125-.269531.160157-.417969.128906-.234375.222656-.488281.285156-.75.726562-11.882812.710937-23.796875-.042969-35.675781-.210937-.703125-.691406-1.285156-1.339844-1.621094-20.875-8.953125-41.695312-11.445312-47.71875-34.136718-5.972656-22.457032 10.800781-35.171876 24.308594-53.238282.390625-.617187.515625-1.363281.351563-2.074218-5.289063-10.675782-11.242188-21.011719-17.816407-30.949219-.949219-1.433594-3.527343-1.585938-5-1.410157l-24.5 2.929688c-18.570312 2.210938-18.289062 4.445312-30.832031-7.859375-16.742188-16.417969-8.53125-35.839844-5.8125-58.386719.128906-1.082031-.417969-2.132812-1.371094-2.652344-9.636718-6.390624-19.660156-12.175781-30.011718-17.324218-2.902344-1.246094-6.242188-.882813-8.808594.957031l-19.738282 14.789063c-15.078124 11.273437-12.523437 11.773437-27.945312 8.464843-21.9375-4.710937-24.746094-27.136719-33.28125-46.933593-.695312-1.492188-2.203125-2.429688-3.847656-2.398438-12.058594-.75-24.15625-.75-36.214844 0-2.617188.09375-5.035156 1.414062-6.535156 3.558594-8.109375 18.917968-11.09375 40.679687-30.902344 45.808594-19.804688 5.125-33.015625-11.914063-49.527344-24.246094-2.367187-1.101563-5.121094-1.035156-7.429687.1875-10.828125 5.382812-21.304688 11.433594-31.378907 18.117187-1.460937.773438-2.332031 2.335938-2.21875 3.984375 2.5625 21.589844 11.214844 41.910156-5.214843 57.25-10.382813 9.703125-7.480469 9.183594-24.429688 7.160156l-28.5625-3.414062c-3.140625-.304688-6.214843 1.054688-8.105469 3.585938-6.390624 9.628906-12.175781 19.652343-17.320312 30.003906-.574219.925781-.519531 2.113281.136719 2.984375 13.652343 18.203125 30.375 30.722656 24.128906 53.367187-4.171875 15.121094-3.328125 13.980469-18.992187 20.695313zm25.820312-53.113281c-3.105469-4.179688-16.640625-17.527344-17.160156-22.9375-.246094-2.199219 8.933594-26.5625 8.625-26.402344 11.660156-6.246094 34.878906 9.113281 48.113281 5.632812 12.753906-5.734375 23.492187-15.167968 30.820313-27.074218 4.910156-11.445313-6.558594-29.511719-4.367188-41.636719 5.121094-28.421875 24.386719-16.945313 40.855469-4.625 20.679687 15.472656 44.042969 16.804687 61.765625-4.847657 12.058594-14.734374 7.808594-51.25 37.546875-36.691406 12.945312 6.332032 10.46875 33.742188 21.460937 43.65625 12.28125 7.519532 26.597656 11.015625 40.960938 10.007813 13.976562-3.285157 28.449218-28.292969 39.613281-27.363281 41.871094 3.503906-6.828125 72.761718 41.941406 88.480468 13.820313 4.453125 37.085938-11.894531 49.59375-5.554687 1.769531 4.683593 3.851563 9.246093 6.230469 13.652343 6.433594 12.664063 5.332031 10.335938 0 21.972657-4.078125 8.875-17.117188 16.667969-19.441406 26.054687-2.644532 10.589844.136718 31.667969 8.757812 39.730469 7.96875 7.457031 23.210938 7.167969 32.023438 13.722656 13.023437 9.675781 11.699218 17.535157 10.539062 34.644531-12.644531 4.691407-32.859375 9.386719-41.085937 17.757813-8.132813 10.75-12.664063 23.796875-12.945313 37.273437 1.9375 13.566407 25.929688 23.738282 27.621094 37.195313 3.414062 26.890625-16.554688 25.457031-35.550781 23.195313-25.753907-3.074219-46.378907 4.351562-51.660157 32.914062-3.292968 17.816406 19.011719 50.457031-14.394531 52.90625-12.296875.851562-25.601562-23.894531-38.921875-27.171875-13.988281-.378906-27.851562 2.765625-40.3125 9.140625-10.050781 7.757812-9.386718 26.09375-16.945312 35.839844-6.296875 8.132812-7.679688 15.511718-22.953125 8.710937-8.894531-3.957031-9.695313-9.804687-14.433594-20.863281-8.832031-20.597656-5.972656-19.132812-23.175781-27.058594-9.609375-6.082031-21.609375-7.015625-32.042969-2.484375-8.0625 2.84375-15.632813 12.800781-22.945313 17.160157-14.4375 8.535156-6.824218 8.59375-19.875.957031-24.625-14.445313-1.578124-29.117188-7.902343-51.660157-4.386719-13.046874-13.527344-23.964843-25.597657-30.585937-12.722656-4.453125-29.59375 7.390625-42.539062 4.507813-9.644531-1.164063-16.964844-9.242188-17.175781-18.953126-1.972657-12.605468 4.042969-16.886718 12.730469-28.5 11.585937-15.480468 18.082031-25.019531 5.230468-45.226562-8.535156-13.347656-22.664062-11.539062-36.070312-21.496094-9.054688-6.726562-19.363282-17.332031-11.683594-31.191406 3.191406-5.75 12.128906-8.308594 20.34375-11.835938 8.414062-3.597656 20.480469-6.195312 26.300781-13.429687 13.21875-16.425781 8.40625-33.640625-1.894531-47.523437zm0 0" fill="#262626"/><path d="m370.78125 251.027344c-3.210938-63.472656-51.132812-115.730469-116.761719-115.386719-64.199219.488281-116.355469 51.96875-117.683593 116.15625.117187 151.25 226.976562 147.027344 234.445312-.769531zm-118.488281-105.171875c60.078125-.921875 103.015625 48.636719 105.910156 105.941406-3.03125 59.988281-50.28125 111.621094-113.921875 105.195313-53.941406-6.257813-94.804688-51.664063-95.367188-105.964844-.027343-57.402344 45.988282-104.214844 103.378907-105.171875zm0 0" fill="#262626"/></svg>