<svg id="Layer_1" enable-background="new 0 0 512 512" height="512" viewBox="0 0 512 512" width="512" xmlns="http://www.w3.org/2000/svg"><g><path d="m30 256c0-124.617 101.383-226 226-226 49.661 0 97.278 16.125 136.388 45.789l-26.988 4.274c-8.182 1.296-13.765 8.979-12.469 17.162 1.17 7.388 7.547 12.656 14.797 12.656.78 0 1.57-.061 2.365-.187l58.666-9.292c8.182-1.296 13.765-8.979 12.469-17.162l-9.292-58.666c-1.296-8.183-8.978-13.76-17.162-12.469-8.182 1.296-13.765 8.979-12.469 17.162l2.969 18.747c-43.289-31.141-95.212-48.014-149.274-48.014-68.38 0-132.667 26.628-181.02 74.98-48.351 48.353-74.98 112.64-74.98 181.02 0 43.41 11.067 86.302 32.006 124.039 2.74 4.938 7.855 7.725 13.13 7.725 2.462 0 4.958-.607 7.264-1.887 7.244-4.02 9.858-13.15 5.838-20.394-18.473-33.295-28.238-71.153-28.238-109.483z"/><path d="m479.416 130.927c-4.053-7.225-13.197-9.798-20.42-5.743-7.226 4.053-9.797 13.195-5.744 20.42 18.807 33.527 28.748 71.702 28.748 110.396 0 124.617-101.383 226-226 226-49.658 0-97.278-16.125-136.388-45.789l26.987-4.274c8.182-1.296 13.765-8.979 12.469-17.162-1.296-8.182-8.977-13.764-17.162-12.469l-58.666 9.292c-8.182 1.296-13.765 8.979-12.469 17.162l9.292 58.666c1.17 7.388 7.547 12.655 14.797 12.655.78 0 1.57-.061 2.365-.187 8.182-1.296 13.765-8.979 12.469-17.162l-2.969-18.747c43.29 31.142 95.216 48.015 149.275 48.015 68.38 0 132.667-26.628 181.02-74.98 48.351-48.353 74.98-112.64 74.98-181.02 0-43.823-11.267-87.073-32.584-125.073z"/><path d="m405.11 297.36c8.284 0 15-6.716 15-15v-52.72c0-8.284-6.716-15-15-15h-23.154c-2.076-6.329-4.632-12.489-7.654-18.448l16.385-16.385c5.858-5.858 5.858-15.355 0-21.213l-37.28-37.28c-5.857-5.858-15.355-5.858-21.213 0l-16.385 16.385c-5.959-3.022-12.119-5.578-18.448-7.654v-23.155c0-8.284-6.716-15-15-15h-52.72c-8.284 0-15 6.716-15 15v23.154c-6.329 2.076-12.489 4.632-18.448 7.654l-16.385-16.385c-5.857-5.858-15.355-5.858-21.213 0l-37.28 37.28c-5.858 5.858-5.858 15.355 0 21.213l16.385 16.385c-3.022 5.959-5.578 12.119-7.654 18.448h-23.156c-8.284 0-15 6.716-15 15v52.72c0 8.284 6.716 15 15 15h23.154c2.076 6.329 4.632 12.489 7.654 18.448l-16.385 16.385c-5.858 5.858-5.858 15.355 0 21.213l37.28 37.28c5.857 5.858 15.355 5.858 21.213 0l16.388-16.388c5.948 3.013 12.108 5.565 18.445 7.644v23.167c0 8.284 6.716 15 15 15h52.72c8.284 0 15-6.716 15-15v-23.167c6.337-2.078 12.497-4.631 18.445-7.644l16.388 16.388c5.857 5.858 15.355 5.858 21.213 0l37.28-37.28c5.858-5.858 5.858-15.355 0-21.213l-16.385-16.385c3.022-5.959 5.578-12.119 7.654-18.448h23.156zm-149.11.64c-23.2 0-42-18.8-42-42s18.8-42 42-42 42 18.8 42 42-18.8 42-42 42z"/></g></svg>