<svg height="500pt" viewBox="-30 0 500 500.33402" width="500pt" xmlns="http://www.w3.org/2000/svg"><g fill="#66d4f1"><path d="m368.628906 142.863281c-1.800781 0-3.410156-1.128906-4.019531-2.824219-.605469-1.695312-.085937-3.589843 1.304687-4.734374l22.367188-18.449219-39.996094 23.089843c-1.957031 1.140626-4.464844.550782-5.710937-1.339843-1.246094-1.894531-.792969-4.429688 1.027343-5.777344l27.578126-20.480469-37.367188 21.566406c-1.949219 1.109376-4.425781.519532-5.664062-1.347656-1.242188-1.867187-.824219-4.378906.953124-5.746094l44.296876-33.527343-53.027344 30.601562c-1.964844 1.101563-4.445313.484375-5.667969-1.40625s-.765625-4.40625 1.042969-5.746093l39.253906-28.328126-43.519531 25.121094c-1.976563 1.105469-4.472657.472656-5.683594-1.4375-1.214844-1.914062-.722656-4.4375 1.117187-5.757812l27.761719-19.308594-29.152343 16.820312c-1.984376 1.132813-4.507813.503907-5.726563-1.429687s-.699219-4.480469 1.179687-5.78125l19.839844-13.585937-18.84375 10.878906c-1.957031 1.121094-4.453125.523437-5.6875-1.363282-1.238281-1.890624-.789062-4.414062 1.019532-5.761718l40.988281-30.207032-38.964844 22.476563c-1.960937 1.132813-4.46875.535156-5.707031-1.363281-1.238282-1.894532-.777344-4.429688 1.046875-5.769532l29.21875-21.464843-23.585938 13.65625c-1.957031 1.136719-4.464843.550781-5.707031-1.34375-1.246094-1.890625-.796875-4.425781 1.023438-5.773438l16.742187-12.46875-7.816406 4.507813c-1.878907 1.019531-4.21875.492187-5.480469-1.230469-1.261719-1.726563-1.054688-4.117187.488281-5.597656l17.511719-15.8125c-1.773438-.304688-3.164062-1.6875-3.480469-3.457031-.316406-1.769532.511719-3.546876 2.070313-4.445313l28.527344-16.527344c1.878906-1.019531 4.21875-.496093 5.480468 1.230469 1.261719 1.722656 1.054688 4.117188-.488281 5.59375l-14.011719 12.683594 36.214844-20.917969c1.957031-1.136719 4.464844-.546875 5.710938 1.34375 1.246093 1.890625.792968 4.425781-1.027344 5.773437l-16.765625 12.484376 27.410156-15.8125c1.960937-1.132813 4.464844-.535157 5.703125 1.363281 1.242188 1.894531.78125 4.429687-1.046875 5.773437l-29.175781 21.433594 37.863281-21.855469c1.960937-1.121093 4.453125-.523437 5.691406 1.367188 1.234375 1.886719.789063 4.414062-1.023437 5.761719l-40.960938 30.179687 48.011719-27.707031c1.980469-1.132813 4.503906-.503906 5.722656 1.429687 1.21875 1.929688.703125 4.480469-1.175781 5.78125l-19.941406 13.652344 21.808594-12.585937c1.976562-1.105469 4.472656-.472657 5.683593 1.4375 1.214844 1.914062.722657 4.4375-1.117187 5.757812l-27.691406 19.285156 28.722656-16.582031c1.964844-1.101563 4.449218-.484375 5.671875 1.40625 1.222656 1.890625.765625 4.40625-1.046875 5.746094l-39.25 28.328125 39.378906-22.730469c1.949219-1.085937 4.402344-.492187 5.636719 1.367187 1.230469 1.859376.824219 4.351563-.933594 5.722657l-44.296875 33.535156 41.609375-24.019531c1.957031-1.140625 4.464844-.550782 5.707031 1.339844 1.246094 1.894531.796875 4.429687-1.023437 5.777343l-27.546875 20.480469 20.773437-11.992188c1.921875-1.113281 4.375-.5625 5.640625 1.261719 1.269532 1.828125.921875 4.316407-.796875 5.730469l-22.382812 18.457031 8.371093-4.832031c2.027344-1.058594 4.527344-.332031 5.671876 1.644531 1.144531 1.980469.527343 4.511719-1.402344 5.738281l-52.761719 30.464844c-.65625.386719-1.40625.585938-2.167969.578125zm0 0"/><path d="m353.652344 500.335938c-1.8125 0-3.429688-1.144532-4.03125-2.859376-.597656-1.710937-.050782-3.613281 1.367187-4.746093l34.765625-27.828125-49.585937 28.605468c-1.972657 1.15625-4.507813.554688-5.746094-1.371093-1.238281-1.921875-.742187-4.480469 1.128906-5.796875l25.871094-18.476563-32.101563 18.484375c-1.980468 1.132813-4.507812.503906-5.726562-1.425781-1.21875-1.933594-.699219-4.484375 1.179688-5.785156l16.214843-11.09375-19.628906 11.339843c-1.960937 1.117188-4.457031.511719-5.6875-1.382812-1.230469-1.890625-.773437-4.417969 1.046875-5.757812l42.863281-31.128907-46.882812 27.066407c-1.988281 1.117187-4.503907.46875-5.710938-1.464844-1.203125-1.9375-.671875-4.476563 1.203125-5.769532l4.140625-2.773437-3.320312 1.886719c-1.988281 1.148437-4.53125.519531-5.75-1.425782-1.222657-1.949218-.683594-4.515624 1.21875-5.804687l13.203125-8.949219-12.402344 7.148438c-1.960938 1.09375-4.429688.476562-5.652344-1.40625-1.222656-1.882813-.777344-4.390625 1.019532-5.734375l35.183593-25.421875-32.425781 18.707031c-1.945312 1.132813-4.433594.558594-5.6875-1.304687-1.257812-1.867188-.847656-4.390626.933594-5.761719l38.714844-30.011719-32.964844 19.019531c-1.953125 1.113281-4.4375.515625-5.671875-1.367187-1.238281-1.878906-.800781-4.394532.996093-5.75l11.777344-8.71875-2.203125 1.261718c-1.910156 1.089844-4.335937.546876-5.601562-1.25-1.265625-1.800781-.957031-4.265624.714843-5.695312l16.542969-14.039062c-1.269531-.792969-2.027343-2.195313-2.003906-3.691407.027344-1.5.835937-2.871093 2.132813-3.621093l27.042968-15.605469c1.910156-1.089844 4.335938-.550781 5.601563 1.25 1.265625 1.796875.957031 4.261719-.710938 5.695312l-6.90625 5.851563 25.832031-14.90625c1.957032-1.113282 4.4375-.515625 5.675782 1.367187 1.234375 1.878907.796875 4.394531-1 5.75l-11.722656 8.6875 22.457031-12.964843c1.941406-1.105469 4.410156-.527344 5.65625 1.328124 1.25 1.855469.851562 4.359376-.910157 5.738282l-38.714843 30.03125 50.472656-29.132813c1.96875-1.128906 4.472656-.523437 5.703125 1.378907 1.234375 1.902343.765625 4.4375-1.070312 5.769531l-35.171876 25.414062 41.539063-23.980469c1.996094-1.253906 4.628906-.652343 5.882813 1.34375 1.253906 1.996094.652343 4.632813-1.34375 5.882813l-13.148438 8.929687 14.589844-8.433593c1.996094-1.132813 4.527344-.488281 5.734375 1.460937 1.210937 1.945313.664062 4.5-1.234375 5.785156l-4.105469 2.738282 4.710937-2.714844c1.960938-1.113281 4.457032-.507812 5.6875 1.386719 1.230469 1.890625.769532 4.417969-1.046874 5.757812l-42.90625 31.164063 43.769531-25.269532c1.980469-1.132812 4.507812-.503906 5.726562 1.429688s.699219 4.480469-1.179687 5.78125l-16.144532 11.09375 13.507813-7.796875c1.972656-1.160156 4.507813-.554687 5.746094 1.367187 1.238281 1.921876.742187 4.480469-1.128907 5.800782l-25.839843 18.464844 22.007812-12.714844c1.9375-1.148438 4.429688-.597656 5.699219 1.261718 1.273438 1.859376.878906 4.382813-.894531 5.769532l-34.78125 27.835937 25.710937-14.839843c1.882813-1.128907 4.3125-.640626 5.621094 1.125 1.304688 1.761718 1.058594 4.230468-.570312 5.703124l-19.3125 18.039063c1.535156.023437 2.949218.828125 3.757812 2.132813 1.175781 2.039062.476562 4.648437-1.5625 5.828124l-28.46875 16.402344c-1.882812 1.125-4.3125.640625-5.621094-1.125-1.304687-1.765625-1.058594-4.230468.570313-5.703125l17.578125-16.417969-42.121094 24.3125c-.628906.390626-1.355469.613282-2.097656.640626zm0 0"/><path d="m80.023438 321.765625c-1.785157 0-3.378907-1.109375-4-2.78125-.621094-1.675781-.136719-3.554687 1.21875-4.71875l26.210937-22.519531-46.761719 27.007812c-1.9375 1.132813-4.417968.570313-5.679687-1.285156s-.871094-4.371094.894531-5.753906l42.539062-33.828125-55.589843 32.09375c-1.945313 1.125-4.433594.546875-5.679688-1.324219-1.25-1.871094-.832031-4.390625.953125-5.757812l49.589844-37.929688-57.925781 33.433594c-1.957031 1.109375-4.4375.511718-5.675781-1.367188-1.234376-1.878906-.796876-4.398437 1-5.75l48.921874-36.371094-53.171874 30.722657c-1.984376 1.113281-4.496094.476562-5.707032-1.453125-1.207031-1.925782-.691406-4.464844 1.175782-5.765625l15.460937-10.53125-14.8125 8.53125c-1.949219 1.125-4.433594.546875-5.683594-1.324219s-.832031-4.390625.957031-5.757812l50.746094-39.039063-49.613281 28.644531c-1.976563 1.136719-4.5.515625-5.722656-1.410156-1.222657-1.925781-.71875-4.472656 1.148437-5.78125l14.636719-10.242188-9.796875 5.660157c-1.96875 1.140625-4.488281.535156-5.722656-1.375-1.238282-1.914063-.753906-4.460938 1.097656-5.785157l13.578125-9.78125-6.675781 3.859376c-1.855469 1.058593-4.210938.578124-5.507813-1.125-1.292969-1.703126-1.128906-4.101563.390625-5.609376l22.492188-22.089843c-2.078125.878906-4.480469-.011719-5.484375-2.03125-1.003907-2.023438-.261719-4.476563 1.695312-5.597657l28.527344-16.445312c1.859375-1.074219 4.230469-.59375 5.527344 1.117188 1.300781 1.710937 1.125 4.121093-.40625 5.625l-22.402344 21.980468 51.199219-29.535156c1.972656-1.140625 4.492187-.535156 5.726562 1.378906 1.234375 1.910156.75 4.457032-1.101562 5.78125l-13.558594 9.753906 21.566406-12.449218c1.976563-1.136719 4.5-.515625 5.722656 1.410156 1.222657 1.925781.71875 4.472656-1.152343 5.785156l-14.683594 10.238282 20.113281-11.597657c1.945313-1.117187 4.421875-.535156 5.667969 1.328125 1.25 1.863282.839844 4.375-.933594 5.746094l-50.789062 39.058594 59.441406-34.289063c1.984375-1.113281 4.496094-.476562 5.707031 1.453125 1.210938 1.925782.691406 4.464844-1.175781 5.765625l-15.445313 10.515625 16.511719-9.542968c1.957031-1.109376 4.441407-.511719 5.675781 1.367187 1.234376 1.882813.800782 4.398437-.996093 5.75l-48.941407 36.386719 51.125-29.507813c1.945313-1.125 4.433594-.542969 5.683594 1.328125 1.246094 1.867188.828125 4.386719-.957031 5.753906l-49.570313 37.890626 48.359376-27.90625c1.933593-1.125 4.40625-.5625 5.667968 1.285156 1.261719 1.847656.878906 4.355468-.871094 5.746094l-42.558593 33.828124 36.601562-21.121093c1.902344-1.09375 4.328125-.5625 5.601563 1.226562 1.273437 1.789063.980468 4.253907-.679688 5.695313l-26.207031 22.492187 10.738281-6.203125c1.320313-.839844 3-.890625 4.367188-.125 1.367187.761719 2.207031 2.214844 2.1875 3.78125-.023438 1.570313-.902344 3-2.289063 3.726563l-50.347656 29.089843c-.652344.378907-1.394531.578126-2.148437.570313zm0 0"/></g><path d="m.167969 251.960938c.144531 76 93.292969 85.804687 132.214843 39.820312l166.9375 103.25c-6.0625 10.925781-9.175781 23.238281-9.027343 35.730469-.34375 94.78125 144 89.011719 148.90625-1.980469 0-.167969-.101563-.273438-.128907-.433594-.023437-.164062.128907-.289062.121094-.453125-4.046875-75.1875-97.597656-87.269531-134.28125-41.140625l-166.402344-102.875c-.085937-.03125-.171874-.058594-.261718-.078125 6.554687-10.597656 10.28125-22.699219 10.820312-35.148437-.472656-11.921875-3.871094-23.542969-9.890625-33.84375l163.414063-101.035156c34.898437 48.316406 132.589844 31.019531 136.601562-43.46875 0-.160157-.105468-.246094-.121094-.402344-.015624-.152344.128907-.289063.121094-.449219-5.027344-93.371094-148.480468-89.277344-148.890625 2.882813-.28125 12.261718 2.601563 24.386718 8.371094 35.207031l-163.617187 101.15625c-37.171876-48.691407-135.0312505-32.042969-134.886719 43.261719zm381.644531 116.300781c26.652344 9.269531 44.636719 34.257812 44.960938 62.472656-2.253907 37.546875-32.238282 70.539063-72.898438 62.082031-29.902344-7.042968-50.976562-33.800781-50.816406-64.519531-.546875-19.621094 8.382812-38.304687 23.992187-50.199219 15.609375-11.898437 35.988281-15.558594 54.761719-9.835937zm0-358.476563c26.683594 9.316406 44.675781 34.347656 44.996094 62.609375-2.253906 37.113281-32.136719 71.058594-72.890625 62.105469-29.890625-7.132812-50.945313-33.890625-50.84375-64.621094-.023438-40.464844 37.878906-73.480468 78.738281-60.09375zm-291.933594 298.15625c-20.875 5.519532-26.90625 9.0625-43.914062-.851562-15.453125-9.023438-26.6875-23.816406-31.222656-41.125-4.539063-17.3125-2.007813-35.714844 7.03125-51.15625 10.617187-17.996094 15.308593-16.214844 37.546874-22.136719 22.109376-5.84375 21.964844-9.113281 37.84375-1.910156 23.832032 11.117187 39.191407 34.90625 39.511719 61.199219-.316406 14.082031-4.898437 27.734374-13.140625 39.152343-10.199218 13.960938-11.546875 10.972657-33.65625 16.828125zm0 0" fill="#262626"/></svg>