<svg height="512" viewBox="0 0 60 60" width="512" xmlns="http://www.w3.org/2000/svg"><g id="024---Un-Group" fill="none"><path id="Path" d="m4.866 25.5c-.2209281-.0001611-.41556228-.145297-.47874926-.3569964-.06318698-.2116995.02005326-.4397739.20474926-.5610036l5.508-3.621-6.82 3.939c-.23345719.1253051-.52412895.0467367-.66266771-.1791186-.13853877-.2258554-.07683646-.5205686.14066771-.6718814l5.942-3.858-5.42 3.127c-.23290614.1254293-.52320856.0477402-.66233729-.1772508s-.0789338-.5194187.13733729-.6717492l8.082-5.339-7.557 4.362c-.23332909.1269664-.52520994.0493179-.66460758-.1768043-.13939765-.2261221-.07764593-.5217747.14060758-.6731957l7.155-4.69-6.631 3.828c-.23448097.1270728-.52742279.0477401-.66573664-.1802909-.13831386-.2280309-.07330581-.5244809.14773664-.6737091l2.311-1.471-1.793 1.035c-.23345719.1253051-.52412895.0467367-.66266771-.1791186-.13853877-.2258554-.07683646-.5205686.14066771-.6718814l6.084-3.956-5.562 3.211c-.23543794.13455-.53521485.0569022-.67572813-.1750261s-.0705395-.5335888.15772813-.6799739l1.771-1.128-1.253.723c-.23354514.1328438-.53032442.0573638-.6720248-.1709163s-.07765459-.5277351.1450248-.6780837l5.2-3.46-4.675 2.7c-.22996058.1262156-.51836501.0532546-.66064209-.1671302-.14227708-.2203849-.09004713-.5132542.11964209-.6708698l6.431-4.6-5.89 3.4c-.23236798.1256461-.52238417.0488566-.66212823-.1753162-.13974406-.2241727-.08099508-.5183743.13412823-.6716838l.44-.3c-.23212216.0781416-.48667897-.023363-.6013434-.239786-.11466443-.2164229-.05567848-.4840476.1393434-.632214l3.158-2.368-2.606 1.505c-.22361555.12710114-.50717883.06381246-.65552963-.14630811-.14835081-.21012056-.11308343-.49851231.08152963-.66669189l2.462-2.1-1.888 1.092c-.21777199.12398428-.49368841.06761168-.64537559-.13185696-.15168719-.19946865-.13228783-.48041599.04537559-.65714304l1.092-1.075-.492.28c-.17182893.09921932-.38606953.0874463-.54599199-.03000353-.15992245-.11744982-.23526406-.318351-.19200801-.51199647l.309-1.377c-.10568439-.0400014-.19433656-.11523213-.251-.213-.13755324-.23865551-.05617205-.54361136.182-.682l.5-.289c.17188018-.09985857.38658839-.08841537.54688079.02914686.1602924.11756222.23571939.318911.19211921.51285314l-.253 1.13 2.9-1.677c.21777199-.12398428.49368841-.06761168.64537559.13185696.15168719.19946865.13228783.48041599-.04537559.65714304l-1.089 1.075 3.235-1.868c.22361555-.12710114.50717883-.06381246.6555296.14630811.1483508.21012056.1130835.49851231-.0815296.66669189l-2.465 2.099 5.054-2.917c.2285233-.12824968.5172952-.05830465.6618051.16029949.14451.21860415.095725.51169373-.1118051.67170051l-3.157 2.371 5.554-3.206c.2334461-.13529908.5321345-.06097219.6749447.16795606.1428102.22892826.0782242.52987333-.1459447.68004394l-.323.216 1.849-1.067c.2305507-.13029452.5227069-.05822926.6662193.16433419.1435123.22256344.0886.51842379-.1252193.67466581l-6.431 4.6 9.427-5.443c.2340027-.13899883.5362016-.06529813.6799386.16582441s.0762078.53476011-.1519386.68317559l-5.194 3.453 7.46-4.307c.2361017-.14331788.5436821-.06810171.687.16800001s.0681017.54368209-.168.68699999l-1.775 1.13 2.067-1.193c.2342478-.13088329.5300435-.05352709.6702262.17527691.1401827.22880401.074765.52746697-.1482262.67672309l-6.092 3.961 5.573-3.217c.2354379-.13454995.5352149-.05690217.6757281.17502611.1405133.23192829.0705395.53358878-.1577281.67997389l-2.3 1.465 1.788-1.031c.2341443-.13311196.5316521-.0568382.672871.17250776s.075396.52933917-.148871.67849224l-7.161 4.693 6.64-3.833c.2336556-.13069104.5287926-.05414659.6694787.17363081.140686.22777741.0769932.52595205-.1444787.67636919l-8.076 5.335 7.547-4.361c.2347034-.13648675.5354374-.06073246.6774741.17065437.1420368.23138683.073465.53383943-.1544741.68134563l-5.947 3.862 5.427-3.133c.2347029-.1405531.538787-.0663884.6824238.1664401.1436368.2328284.0734897.5378644-.1574238.6845599l-5.511 3.616 4.988-2.879c.2308022-.1338179.5260112-.0628564.670779.1612399s.0880924.5223777-.128779.6777601l-8.039 5.784 7.5-4.329c.2309306-.1317312.5245674-.0597083.6683337.1639283.1437664.2236366.0873821.520673-.1283337.6760717l-4.525 3.223 3.987-2.306c.2266681-.1317558.5166136-.0660514.6643416.1505461.1477279.2165976.1030619.5105201-.1023416.6734539l-4.229 3.365 3.67-2.118c.2230421-.1299097.508313-.0686909.6584139.1412949.150101.2099857.1156933.4997155-.0794139.6687051l-2.4 2.095 1.824-1.052c.2096246-.1209913.4758118-.0744647.6319655.1104606.1561537.1849254.1574318.4551452.0030345.6415394l-1.218 1.47.586-.337c.1950137-.1118232.4406794-.0797527.6004508.078386s.1943635.4034621.0845492.599614l-.253.448c.1058554.041687.1946138.1177656.252.216.1380647.2391402.0561341.5449248-.183.683l-.979.566c-.1950137.1118232-.4406794.0797527-.6004508-.078386s-.1943635-.4034621-.0845492-.599614l.073-.13-1.405.81c-.2096246.1209913-.4758118.0744647-.6319655-.1104606-.1561537-.1849254-.1574318-.4551452-.0030345-.6415394l1.217-1.469-3.857 2.226c-.2227723.1294397-.5074311.0684047-.6575526-.1409889s-.1165485-.4985799.0775526-.6680111l2.4-2.094-5.038 2.912c-.2266681.1317558-.5166136.0660514-.6643416-.1505461-.1477279-.2165976-.1030619-.5105201.1023416-.6734539l4.23-3.367-7.268 4.2c-.2309306.1317312-.5245674.0597083-.6683337-.1639283-.1437664-.2236366-.0873821-.520673.1283337-.6760717l4.529-3.226-7.049 4.066c-.23080222.1338179-.52601117.0628564-.670779-.1612399-.14476784-.2240963-.08809237-.5223777.128779-.6777601l8.042-5.786-11.484 6.63c-.07560202.045205-.16191615.069373-.25.07z" fill="#439cf8"/><path id="Path" d="m37.873 25.5c-.2185449-.0003247-.4115564-.1425484-.4765995-.3511902-.0650431-.2086417.0129552-.4353514.1925995-.5598098l8.941-6.177-11.25 6.488c-.2348642.1312813-.531504.0531604-.6712412-.1767732-.1397372-.2299337-.0724576-.5292187.1522412-.6772268l3.084-1.969-2.565 1.484c-.2340569.1357068-.5336008.0606207-.6759704-.1694442s-.0759129-.5316408.1499704-.6805558l8.3-5.489-7.774 4.484c-.2341443.133112-.5316521.0568382-.672871-.1725078-.1412189-.2293459-.075396-.5293391.148871-.6784922l7.444-4.89-6.92 4c-.2330829.1306613-.5277074.0549657-.6689423-.1718661-.1412349-.2268319-.0791592-.5246238.1409423-.6761339l9.607-6.445-9.079 5.236c-.2334572.1253051-.5241289.0467367-.6626677-.1791186-.1385388-.2258554-.0768365-.5205686.1406677-.6718814l6.054-3.937-5.532 3.194c-.2337734.1287456-.5274505.051198-.667188-.1761759-.1397374-.2273739-.07627-.5244122.144188-.6748241l4.543-2.963-4.02 2.315c-.2325262.1307666-.5267591.0559509-.6685809-.1700024s-.0812744-.5234503.1375809-.6759976l5.434-3.691-4.9 2.83c-.2309506.1251572-.5193699.0502601-.6602447-.1714532-.1408749-.2217132-.0861633-.5146329.1252447-.6705468l4.17-2.9-3.635 2.1c-.2280542.1290416-.517047.0601323-.6623353-.1579314-.1452882-.2180638-.0975826-.5113034.1093353-.6720686l4.31-3.298-3.76 2.171c-.2309306.13173121-.5245674.05970825-.6683337-.16392831-.1437664-.22363655-.0873821-.52067301.1283337-.67607169l.358-.256c-.2190086.03114493-.432452-.08532418-.524772-.28635099-.09232-.20102682-.0415708-.43882431.124772-.58464901l1.756-1.537-1.177.679c-.2206356.13002916-.503851.07232504-.6560244-.1336626-.1521734-.20598765-.1241014-.49365536.0650244-.6663374l.389-.362c-.1245693.00967772-.2484585-.02582063-.349-.1-.1608279-.12109071-.2333471-.32682459-.184-.522l.283-1.128c-.0972521-.04197335-.1780498-.11469121-.23-.207-.1375532-.23865551-.0561721-.54361136.182-.682l.5-.289c.1738103-.10088788.3911331-.08790711.5516983.03295313.1605653.12086025.2331646.32610891.1843017.52104687l-.213.852 2.441-1.409c.2206356-.13002916.503851-.07232504.6560244.1336626.1521734.20598765.1241014.49365536-.0650244.6663374l-.243.226 1.784-1.027c.222272-.1250569.5030453-.06278062.6515981.14452625s.1172703.49319734-.0725981.66347375l-1.752 1.536 4.068-2.348c.2309306-.13173121.5245674-.05970825.6683337.16392831.1437664.22363655.0873821.52067301-.1283337.67607169l-.044.031 1.514-.874c.228242-.1318458.5196375-.06386204.6659708.15537372.1463332.21923576.0973404.51441845-.1119708.67462628l-4.317 3.294 7.152-4.129c.23158-.12940266.5239091-.05542235.6660571.16856044.142148.2239828.0846277.51999085-.1310571.67443956l-4.168 2.9 6.492-3.748c.2338926-.14690773.5425922-.07639257.6895.15750001.1469077.23389259.0763926.54259224-.1575.68949999l-5.436 3.693 7.868-4.543c.2352733-.1446986.5433014-.0712733.688.164s.0712733.5433014-.164.688l-4.536 2.964 6.243-3.6c.2342478-.13088329.5300435-.05352709.6702262.17527691.1401827.22880401.074765.52746697-.1482262.67672309l-6.056 3.932 5.536-3.2c.2330829-.13066131.5277074-.05496574.6689423.17186612.1412349.22683187.0791592.52462377-.1409423.67613388l-9.611 6.452 9.086-5.245c.2333291-.12696636.5252099-.04931787.6646076.17680427.1393976.22612213.0776459.5217747-.1406076.67319573l-7.45 4.892 6.924-4c.2340569-.1357068.5336008-.06062069.6759704.16944421s.0759129.53164078-.1499704.68055579l-8.293 5.488 7.769-4.486c.2361017-.14359401.5439059-.0686017.6875.1675.143594.2361017.0686017.543906-.1675.6875l-3.087 1.97 2.569-1.483c.2322938-.1351768.5298928-.0625367.6737842.164462.1438914.2269988.0825928.5271392-.1387842.679538l-8.943 6.177 8.411-4.856c.2301828-.1290216.5210052-.0569569.6643125.1646141.1433073.2215711.0897614.5163656-.1223125.6733859l-7.253 5.236 6.718-3.879c.2321092-.1290838.5246372-.0541763.6661393.170578.1415021.2247542.0825963.5209195-.1341393.674422l-1.843 1.255 1.313-.757c.2287194-.1310429.5198877-.0620127.6654353.1577616.1455476.2197742.0954752.5147944-.1144353.6742384l-3.443 2.6 2.894-1.671c.2283835-.1299972.5184238-.0610156.6638282.1578813.1454044.2188968.0965443.5129964-.1118282.6731187l-1.194.907.644-.372c.215258-.1229472.4881008-.0696094.6412115.1253499.1531108.1949593.1402554.4726694-.0302115.6526501l-1.749 1.828 1.141-.658c.1959807-.1131314.4435122-.0805345.6035233.0794767.1600112.1600111.1926081.4075426.0794767.6035233l-.494.85c.2361894-.0299691.4607507.1107583.5367674.3363798.0760167.2256214-.0175984.4735492-.2237674.5926202l-1.4.807c-.1959807.1131314-.4435122.0805345-.6035233-.0794767-.1600112-.1600111-.1926081-.4075426-.0794767-.6035233l.454-.783-2.545 1.47c-.215258.1229472-.4881008.0696094-.6412115-.1253499-.1531108-.1949593-.1402554-.4726694.0302115-.6526501l1.75-1.834-4.524 2.613c-.2281943.1273484-.5159664.0574929-.6603781-.1603041-.1444117-.2177969-.0967481-.5100652.1093781-.6706959l1.2-.907-3.016 1.741c-.2285233.1282497-.5172952.0583047-.6618051-.1602995-.14451-.2186041-.095725-.5116937.1118051-.6717005l3.443-2.6-5.956 3.436c-.2325262.1307666-.5267591.0559509-.6685809-.1700024s-.0812744-.5234503.1375809-.6759976l1.839-1.253-3.642 2.1c-.2301828.1290216-.5210052.0569569-.6643125-.1646141-.1433073-.2215711-.0897614-.5163656.1223125-.6733859l7.26-5.231-10.521 6.077c-.0755028.0455556-.1618234.0700707-.25.071z" fill="#439cf8"/><path id="Path" d="m35.664 57.5c-.2214347-.0005716-.4161185-.1467232-.4784751-.3591975s.0224686-.4406558.2084751-.5608025l4.235-2.731-4.349 2.508c-.2335877.1237383-.5231326.0442789-.6608429-.1813541s-.0760007-.5194731.1408429-.6706459l4.645-2.992-4.125 2.381c-.2348642.1312813-.531504.0531604-.6712412-.1767732-.1397372-.2299337-.0724576-.5292187.1522412-.6772268l3.327-2.128-2.808 1.621c-.2338963.1269547-.5262491.04845-.6650871-.1785941-.1388379-.227044-.0755015-.5230536.1440871-.6734059l5.215-3.37-4.694 2.709c-.2354116.1379583-.5379577.061708-.6798637-.1713453-.1419059-.2330532-.070765-.5368414.1598637-.6826547l4.34-2.789-3.819 2.2c-.2328603.1351428-.5309189.0616362-.6742423-.1662803-.1433233-.2279164-.080443-.5283964.1422423-.6797197l10.936-7.459-10.4 6.006c-.2334572.1253051-.5241289.0467367-.6626677-.1791186-.1385388-.2258554-.0768365-.5205686.1406677-.6718814l4.155-2.707-3.633 2.1c-.2310609.1298083-.523268.0567757-.6660866-.1664779-.1428185-.2232536-.086628-.5191613.1280866-.6745221l7.107-5.009-6.574 3.792c-.2300482.1308569-.5222207.059778-.6664488-.1621318-.1442281-.2219099-.0905463-.5177734.1224488-.6748682l5.157-3.754-4.613 2.662c-.2300266.1529829-.5405171.0905266-.6935-.1395s-.0905266-.5405171.1395-.6935l3.593-2.762-3.039 1.762c-.2240372.1259992-.5071082.0616068-.6545964-.1489061s-.1113381-.4985559.0835964-.6660939l2.228-1.87-1.657.956c-.2166955.1249531-.4923876.0705435-.6453641-.1273666-.1529764-.19791-.1361605-.4784164.0393641-.6566334l1.17-1.192-.564.325c-.1724691.0995342-.3875585.0872401-.547563-.0312978-.1600044-.1185379-.2344176-.3207192-.189437-.5147022l.3-1.288c-.1791204-.0707263-.3017018-.2380365-.3151494-.4301445-.0134475-.1921081.0846292-.3748644.2521494-.4698555l.5-.289c.1725201-.1001788.3880816-.0882165.548458.0304359.1603764.1186525.2348724.3212856.189542.5155641l-.241 1.031 2.742-1.582c.2163843-.1232964.4905169-.0685506.6429461.1284.1524291.1969505.1366764.476052-.0369461.6546l-1.171 1.192 3.43-1.979c.2240372-.1259992.5071082-.0616068.6545964.1489061s.1113381.4985559-.0835964.6660939l-2.228 1.87 4.659-2.689c.227731-.1281621.5157443-.059345.6609391.1579231.1451949.217268.0985947.509699-.1069391.6710769l-3.6 2.765 6.233-3.6c.2300482-.1308569.5222207-.059778.6664488.1621318.1442281.2219099.0905463.5177734-.1224488.6748682l-5.147 3.753 7.954-4.593c.2310609-.1298083.523268-.0567757.6660866.1664779.1428185.2232536.086628.5191613-.1280866.6745221l-7.112 5.014 10.15-5.86c.2342478-.1308833.5300435-.0535271.6702262.1752769s.074765.527467-.1482262.6767231l-4.143 2.7 5.842-3.373c.2328603-.1351428.5309189-.0616362.6742423.1662803.1433233.2279164.080443.5283964-.1422423.6797197l-10.94 7.462 10.411-6.01c.2343611-.1288923.5286543-.0505227.6678755.1778537.1392213.2283764.0740613.5258734-.1478755.6751463l-4.344 2.79 3.823-2.206c.2347713-.1336383.5332399-.0566316.6740509.1739091.1408109.2305408.0730402.5312411-.1530509.6790909l-5.203 3.363 4.687-2.7c.2348642-.1312813.531504-.0531604.6712412.1767732.1397372.2299337.0724576.5292187-.1522412.6772268l-3.329 2.129 2.811-1.624c.2347713-.1336383.5332399-.0566316.6740509.1739091.1408109.2305408.0730402.5312411-.1530509.6790909l-4.65 2.988 4.128-2.384c.2347713-.1336383.5332399-.0566316.6740509.1739091.1408109.2305408.0730402.5312411-.1530509.6790909l-4.24 2.735 3.721-2.148c.2347713-.1336383.5332399-.0566316.6740509.1739091.1408109.2305408.0730402.5312411-.1530509.6790909l-1.486.955.967-.558c.2308022-.1338179.5260112-.0628564.670779.1612399s.0880924.5223777-.128779.6777601l-7.264 5.233 6.728-3.885c.2283835-.1299972.5184238-.0610156.6638282.1578813.1454044.2188968.0965443.5129964-.1118282.6731187l-5.31 4.022 4.761-2.746c.2268147-.12995.5154475-.0632557.6622581.1530278.1468106.2162836.1022433.50915-.1022581.6719722l-3.094 2.434 2.536-1.464c.2260575-.1301558.5141897-.0646595.6617686.1504288.1475789.2150884.1050107.5074886-.0977686.6715712l-1.091.876.529-.3c.2128621-.1227709.4833831-.0726697.6381602.1181888.1547771.1908586.1479267.4658947-.0161602.6488112l-1.092 1.214.472-.272c.1753676-.1009051.3942618-.0861777.5545322.0373093.1602703.123487.2303234.3313912.1774678.5266907l-.262.972c.0907241.04306.1660988.1128513.216.2.1373847.2389169.0555349.543953-.183.682l-.5.289c-.1751903.1006317-.3937272.0859419-.5538737-.0372309-.1601464-.1231727-.2304281-.3306206-.1781263-.5257691l.181-.674-2.149 1.241c-.2125801.1214168-.481811.0710563-.6361309-.1189903-.1543198-.1900467-.1483392-.4638818.0141309-.6470097l1.092-1.214-3.44 1.978c-.2259042.1277621-.5120042.0614438-.6586593-.152678-.1466552-.2141217-.1051039-.5048532.0956593-.669322l1.092-.878-2.951 1.7c-.2266506.1274915-.5131906.0599635-.6590607-.1553189-.1458701-.2152823-.1023667-.5064398.1000607-.6696811l3.091-2.432-5.65 3.262c-.2283835.1299972-.5184238.0610156-.6638282-.1578813-.1454044-.2188968-.0965443-.5129964.1118282-.6731187l5.312-4.02-8.416 4.859c-.2308022.1338179-.5260112.0628564-.670779-.1612399s-.0880924-.5223777.128779-.6777601l7.267-5.231-10.523 6.075c-.1525524.0930677-.3431677.09768-.5000428.0120996-.1568752-.0855804-.2561773-.2483519-.2605-.427-.0043228-.1786481.0869904-.3460319.2395428-.4390996l1.485-.953-3.136 1.81c-.0757995.0445046-.162101.0679786-.25.068z" fill="#439cf8"/><path id="Path" d="m3.443 57.5c-.2227823.0001822-.41880952-.1470511-.48071654-.3610592-.06190703-.2140082.02524258-.4431572.21371654-.5619408l.71-.449-.606.35c-.23405687.1357068-.53360081.0606207-.67597038-.1694442-.14236958-.2300649-.07591293-.5316408.14997038-.6805558l8.451-5.6-7.925 4.572c-.23543794.13455-.53521485.0569022-.67572813-.1750261s-.0705395-.5335888.15772813-.6799739l2.985-1.905-2.467 1.425c-.23296731.1327691-.52919188.0581284-.67142871-.1691822-.14223683-.2273105-.07984054-.5263539.14142871-.6778178l10.4-7.044-9.87 5.7c-.23389628.1269547-.52624912.04845-.66508708-.1785941-.13883795-.227044-.07550148-.5230536.14408708-.6734059l5.072-3.276-4.551 2.625c-.23345719.1253051-.52412895.0467367-.66266771-.1791186-.13853877-.2258554-.07683646-.5205686.14066771-.6718814l5.772-3.75-5.25 3.03c-.23405687.1357068-.53360081.0606207-.67597038-.1694442-.14236958-.2300649-.07591293-.5316408.14997038-.6805558l5.451-3.612-4.925 2.844c-.2296891.1296297-.52056951.0585592-.66460409-.1623819-.14403457-.2209411-.09168688-.5157667.11960409-.6736181l7.475-5.466-6.93 4c-.23198312.1309881-.52592847.0570795-.6683699-.1680527-.14244144-.2251321-.0833463-.52241.1343699-.6759473l2.417-1.673-1.883 1.088c-.22695866.1282325-.51435386.0605795-.66027781-.1554298s-.1014061-.5078844.10227781-.6705702l3.637-2.854-3.079 1.777c-.22710024.1265913-.51332263.0580067-.65838639-.1577626s-.100553-.506709.10238639-.6692374l1.045-.813-.489.283c-.21132343.1216732-.47959512.0731604-.6349231-.1148162-.15532798-.1879765-.15240279-.4605836.0069231-.6451838l1.461-1.691-.833.481c-.17423457.1003534-.39163177.0865755-.55180307-.0349714-.1601713-.1215468-.23195253-.3272136-.18219693-.5220286l.278-1.09c-.09545784-.0426805-.17468227-.1148939-.226-.206-.13755324-.2386555-.05617205-.5436114.182-.682l.5-.289c.17411001-.10075.39164285-.0873499.55207088.0340079s.23250771.3270387.18292912.5219921l-.207.808 2.372-1.368c.21132343-.1216732.47959512-.0731604.6349231.1148162.15532798.1879765.15240279.4605836-.0069231.6451838l-1.462 1.69 4.254-2.455c.22710024-.1265913.5133226-.0580067.6583864.1577626.1450637.2157693.100553.506709-.1023864.6692374l-1.048.814 2.849-1.644c.2271272-.1307942.5167067-.0640046.6636035.1530559.1468968.2170604.1012506.5107158-.1046035.6729441l-3.635 2.853 6.38-3.684c.2319831-.1309881.5259285-.0570795.6683699.1680527.1424414.2251321.0833463.52241-.1343699.6759473l-2.421 1.676 4.369-2.523c.2296891-.1296297.5205695-.0585592.6646041.1623819s.0916869.5157667-.1196041.6736181l-7.475 5.465 10.925-6.307c.234721-.145527.542973-.073221.6885.1615s.073221.542973-.1615.6885l-5.453 3.613 7.738-4.467c.2342478-.1308833.5300435-.0535271.6702262.1752769s.074765.527467-.1482262.6767231l-5.772 3.747 5.418-3.128c.2347713-.1336383.5332399-.0566316.6740509.1739091.1408109.2305408.0730402.5312411-.1530509.6790909l-5.058 3.269 4.543-2.623c.2329673-.1327691.5291919-.0581284.6714287.1691822.1422368.2273105.0798406.5263539-.1414287.6778178l-10.4 7.043 9.873-5.7c.234481-.1270728.5274228-.0477401.6657366.1802909.1383139.2280309.0733058.5244809-.1477366.6737091l-2.988 1.907 2.472-1.426c.2332457-.1346693.5312496-.0603894.674.168.1430435.2296546.0774591.5314311-.148.681l-8.455 5.607 7.933-4.58c.2354379-.13455.5352149-.0569022.6757281.1750261.1405133.2319283.0705395.5335888-.1577281.6799739l-.727.459.211-.121c.2322938-.1351768.5298928-.0625367.6737842.164462.1438914.2269988.0825928.5271392-.1387842.679538l-7.881 5.449 7.349-4.242c.2308022-.1338179.5260112-.0628564.670779.1612399s.0880924.5223777-.128779.6777601l-6.257 4.489 5.715-3.3c.2309306-.1317312.5245674-.0597083.6683337.1639283.1437664.2236366.0873821.520673-.1283337.6760717l-3.113 2.214 2.576-1.488c.2302873-.1343427.5254749-.0643663.6709518.1590541.1454768.2234204.0900639.5216852-.1259518.6779459l-1.705 1.243 1.162-.67c.2187434-.1297091.5000021-.0745628.6535686.128145s.1305136.4883932-.0535686.663855l-2.622 2.535 2.027-1.17c.2056813-.1187395.4665095-.0764089.6240818.1012842s.1684045.4417118.0259182.6317158l-.931 1.236.283-.163c.23893-.1358451.5427102-.0533708.6801373.1846528.137427.2380237.0569695.5423443-.1801373.6813472l-2.408 1.39c-.2056813.1187395-.4665095.0764089-.6240818-.1012842s-.1684045-.4417118-.0259182-.6317158l.931-1.236-3.423 1.974c-.2187434.1297091-.5000021.0745628-.6535686-.128145s-.1305136-.4883932.0535686-.663855l2.622-2.535-5.773 3.332c-.2302873.1343427-.5254749.0643663-.6709518-.1590541-.1454768-.2234204-.0900639-.5216852.1259518-.6779459l1.7-1.242-3.604 2.083c-.2309306.1317312-.5245674.0597083-.6683337-.1639283-.1437664-.2236366-.0873821-.520673.1283337-.6760717l3.11-2.211-5.292 3.055c-.2308022.1338179-.5260112.0628564-.670779-.1612399-.14476784-.2240963-.0880924-.5223777.128779-.6777601l6.264-4.494-9.244 5.337c-.23198312.1309881-.52592847.0570795-.6683699-.1680527-.14244144-.2251321-.0833463-.52241.1343699-.6759473l7.878-5.447-10.906 6.3c-.0764846.0432795-.16313005.0653724-.251.064z" fill="#439cf8"/><g fill="#0970de"><path id="Path" d="m24.73 38.471c-.1694473-.0004033-.3271598-.0865994-.419-.229-.1452933-.2236961-.0894058-.5220558.127-.678l5.112-3.674-7.083 4.089c-.2321092.1290838-.5246372.0541763-.6661393-.170578-.1415021-.2247542-.0825963-.5209195.1341393-.674422l5.084-3.486-4.739 2.736c-.2304184.1322364-.5240189.0611893-.6684864-.1617642-.1444674-.2229535-.0893536-.5199576.1254864-.6762358l7.963-5.746-7.417 4.282c-.2335451.1328438-.5303244.0573638-.6720248-.1709163s-.0776546-.5277351.1450248-.6780837l2.819-1.876-2.292 1.324c-.2299138.1328235-.5235501.0627731-.6687427-.1595365s-.0912979-.5193359.1227427-.6764635l6.535-4.786-5.989 3.457c-.2285233.1282497-.5172952.0583047-.6618051-.1602995-.14451-.2186041-.095725-.5116937.1118051-.6717005l4.136-3.114-3.586 2.071c-.2234669.1287231-.5081764.0663691-.6573848-.1439733-.1492085-.2103425-.1139612-.4996608.0813848-.6680267l3.152-2.72-2.58 1.491c-.2184203.1276802-.4977941.0720852-.6506935-.1294872s-.1311343-.4855915.0506935-.6615128l1.374-1.336-.776.447c-.1907702.1113709-.4320163.0843577-.5934296-.0664485-.1614133-.1508061-.2047372-.3896626-.1065704-.5875515l.536-1.083c-.226294-.00001-.4243705-.1520058-.4829405-.3705888-.0585699-.2185831.0369699-.4492542.2329405-.5624112l1.129-.651c.1902553-.1126502.4322419-.0848544.592.068.160488.1506967.2035274.3886316.106.586l-.482.975 2.823-1.63c.2184203-.1276802.4977941-.0720852.6506935.1294872s.1311343.4855915-.0506935.6615128l-1.376 1.338 3.689-2.127c.2231941-.1282474.5072862-.0660776.6565145.1436697s.1148202.4985197-.0795145.6673303l-3.153 2.72 6.116-3.531c.2287194-.1310429.5198877-.0620127.6654353.1577616.1455476.2197742.0954752.5147944-.1144353.6742384l-4.135 3.11 6.832-3.942c.2299138-.1328235.5235501-.0627731.6687427.1595365s.0912979.5193359-.1227427.6764635l-6.533 4.785 7.975-4.6c.2335451-.1328438.5303244-.0573638.6720248.1709163s.0776546.5277351-.1450248.6780837l-2.819 1.876 2.292-1.323c.2304184-.1322364.5240189-.0611893.6684864.1617642.1444674.2229535.0893536.5199576-.1254864.6762358l-7.963 5.739 7.417-4.283c.2321092-.1290838.5246372-.0541763.6661393.170578.1415021.2247542.0825963.5209195-.1341393.674422l-5.089 3.488 4.557-2.629c.2301828-.1290216.5210052-.0569569.6643125.1646141.1433073.2215711.0897614.5163656-.1223125.6733859l-5.112 3.675 4.57-2.637c.2283835-.1299972.5184238-.0610156.6638282.1578813.1454044.2188968.0965443.5129964-.1118282.6731187l-3.75 2.847 3.2-1.845c.2206356-.1300292.503851-.072325.6560244.1336626s.1241014.4936554-.0650244.6663374l-3.013 2.8 2.422-1.4c.2190652-.1318893.5023394-.0772423.6566242.1266708s.1298566.4913741-.0566242.6663292l-.784.752.188-.108c.1946395-.1115094.4397218-.0797422.5994994.0777063.1597775.1574484.19514.4020378.0865006.5982937l-.438.787c.146324.0259385.273901.1147672.349.243.0666188.1149293.0847639.2516448.0504306.3799727-.0343334.1283278-.1183225.2377179-.2334306.3040273l-1.127.643c-.1946881.1124152-.4404645.0810722-.6007086-.0766061-.160244-.1576783-.1955497-.4029168-.0862914-.5993939l.328-.589-2.192 1.265c-.2190652.1318893-.5023394.0772423-.6566242-.1266708s-.1298566-.4913741.0566242-.6663292l.786-.754-2.677 1.547c-.2206356.1300292-.503851.072325-.6560244-.1336626s-.1241014-.4936554.0650244-.6663374l3.014-2.8-6.235 3.6c-.2283835.1299972-.5184238.0610156-.6638282-.1578813-.1454044-.2188968-.0965443-.5129964.1118282-.6731187l3.75-2.848-6.374 3.679c-.0754832.0456007-.1618163.0701194-.25.071z"/><path id="Path" d="m3.459 59.471c-.18101519.0001909-.34799779-.0974691-.43657509-.2553317s-.08491499-.3512722.00957509-.5056683l.488-.8-1.978 1.145c-.21578429.1245835-.49036414.0712785-.64385961-.1249944s-.13905573-.4756061.03385961-.6550056l.817-.849-.47.27c-.19373601.1112232-.43774549.0804371-.59778454-.0754209-.16003905-.1558581-.19727226-.3989673-.09121546-.5955791l.461-.848c-.21353512-.0265151-.38615855-.1866718-.42857593-.3976245-.04241738-.2109528.05488548-.425385.24157593-.5323755l1.128-.65c.19399155-.1127127.43931061-.0824055.60003884.0741298.16072822.1565353.19750782.4009677.08996116.5978702l-.368.675 1.992-1.144c.21548124-.1230022.48856906-.0693794.6415393.1259712.15297024.1953505.13954472.4733291-.0315393.6530288l-.815.848.62-.358c.19802026-.1138754.44803846-.0790694.60742592.0845621s.18761274.4144778.06857408.6094379l-.527.862c.23655459-.0320693.46278469.1075561.54016957.3333837.07738489.2258276-.01566264.4748607-.22216957.5946163l-1.479.847c-.07542374.0457373-.16179512.0702668-.25.071z"/><path id="Path" d="m3.5 37.471c-.18333138.0001678-.35205274-.1000108-.43966596-.2610522s-.08006643-.3571171.01966596-.5109478l.347-.537-1.76 1.016c-.219385.1342545-.50483439.0801688-.65990028-.1250351-.1550659-.2052038-.12915517-.4945743.05990028-.6689649l.4-.38-.189.108c-.18795902.1045765-.4217365.0772265-.58048105-.0679113-.15874456-.1451379-.2068785-.3755355-.11951895-.5720887l.592-1.294c-.23484039.0240988-.45453861-.1193399-.52694335-.344036-.07240475-.224696.02221463-.4694186.22694335-.586964l1.128-.65c.18841605-.1090283.42572135-.0836224.58678661.0628213.16106525.1464437.20887252.3802679.11821339.5781787l-.56 1.226 2.434-1.406c.219385-.1342545.50483439-.0801688.65990028.1250351.1550659.2052038.12915517.4945743-.05990028.6689649l-.405.387c.20213647-.0932487.44157512-.0416332.58734164.1266124.14576651.1682456.16274917.412595.04165836.5993876l-.44.68c.22217608.0089183.41176809.1634857.46526109.3793103s-.04196745.4410434-.23426109.5526897l-1.442.823c-.07542374.0457373-.16179512.0702668-.25.071z"/><path id="Path" d="m25.266 59.471c-.1910362.0001326-.3654516-.1086004-.4494367-.2801852-.0839852-.1715848-.0628596-.3760288.0544367-.5268148l.136-.175-1.285.741c-.2123689.1214471-.4814292.0713915-.6359136-.1183044-.1544843-.1896959-.1490205-.4633181.0129136-.6466956l1.064-1.193-.884.51c-.1924778.1107495-.4349376.0812796-.5952808-.0723537-.1603433-.1536334-.2001446-.3946128-.0977192-.5916463l.491-.938c-.2197407-.0153746-.4035331-.1727432-.4525602-.3874959s.0482623-.4362911.2395602-.5455041l1.128-.65c.1927295-.112193.4364588-.083189.5974766.0711004.1610177.1542893.2003927.3965595.0965234.5938996l-.415.794 2.089-1.206c.2123689-.1214471.4814292-.0713915.6359136.1183044.1544843.1896959.1490205.4633181-.0129136.6466956l-1.065 1.194.8-.463c.2068255-.1177772.4680042-.0734377.6243729.1059978.1563687.1794354.1645788.4442239.0196271.6330022l-.315.406c.2091627.0333101.3746464.1947905.4130678.4030749s-.0585561.4181799-.2420678.5239251l-1.705.985c-.0749025.0440368-.1601129.0674956-.247.068z"/><path id="Path" d="m2.7 5.471c-.14481833.0004313-.28270976-.06194816-.378-.171-.15816709-.17920031-.1673857-.4452829-.022-.635l.716-.926-1.662.961c-.21646605.12484815-.49186915.07071175-.64497177-.12678306s-.13688866-.4776996.03797177-.65621694l.546-.556-.014.008c-.19914675.11425706-.45051395.07820281-.60951616-.08742449s-.18477082-.41825619-.06248384-.61257551l.331-.521c-.18042676-.06831938-.30544982-.23434805-.32125947-.42662755-.01580965-.19227951.08041518-.37649967.24725947-.47337245l1.128-.648c.19914675-.11425706.45051395-.07820281.60951616.08742449s.18477082.41825619.06248384.61257551l-.118.186 1.433-.828c.21638428-.1232964.49051692-.06855056.64294607.12839998.15242915.19695053.13667647.47605206-.03694607.65460002l-.545.559.68-.4c.20663387-.11792962.4677477-.07392277.62431463.10521892.15656693.1791417.16521839.44379654.02068537.63278108l-.716.926.072-.041c.23742522-.12420086.53055313-.03916186.66464661.19281988.13409349.23198173.06147969.52843213-.16464661.67218012l-2.272 1.312c-.07513259.04556458-.16113531.07008744-.249.071z"/><path id="Path" d="m2.445 27.471c-.18542474.0000418-.355646-.1025351-.44224014-.2664979-.08659415-.1639627-.07533942-.362383.02924014-.5155021l1.142-1.678-1.894 1.089c-.18836124.1054763-.42314788.0781489-.58224873-.0677693s-.20658301-.3774716-.11775127-.5742307l.589-1.284c-.19541443.0176238-.38361157-.078419-.484-.247-.0666188-.1149293-.08476389-.2516448-.05043057-.3799727.03433332-.1283278.11832247-.2377179.23343057-.3040273l1.128-.65c.18836124-.1054763.42314789-.0781489.58224873.0677693.15910085.1459182.20658301.3774716.11775127.5742307l-.557 1.214 2.427-1.4c.20186194-.1159573.45704252-.0772592.61544934.0933328.15840681.1705919.1781225.427936.04755066.6206672l-1.141 1.682.633-.365c.23742522-.1242009.53055313-.0391619.66464661.1928199.13409349.2319817.06147969.5284321-.16464661.6721801l-2.521 1.455c-.07687698.0466119-.16509611.0711749-.255.071z"/><path id="Path" d="m25.762 5.47c-.1816194.00013727-.3490312-.09822071-.4373216-.25693563-.0882904-.15871493-.0835735-.35282513.0123216-.50706437l.16-.258-1.525.88c-.2122255.12284529-.4822194.073656-.6374856-.1161414s-.1499782-.4641845.0124856-.6478586l1.026-1.164-1.094.632c-.1891655.10734265-.4260249.08008435-.5858618-.06742224-.1598368-.14750659-.205982-.38142116-.1141382-.57857776l.569-1.206c-.1905843.01617156-.3728166-.08141087-.465-.249-.0666188-.11492931-.0847639-.25164482-.0504306-.37997265.0343334-.12832784.1183225-.23771796.2334306-.30402735l1.126-.647c.1893664-.10782385.426756-.08058807.586782.06732168.160026.14790976.2058297.38242544.113218.57967832l-.53 1.123 2.357-1.36c.2122255-.12284529.4822194-.073656.6374856.1161414s.1499782.4641845-.0124856.6478586l-1.025 1.161.6-.348c.1992882-.11726676.452989-.08258652.6134939.08386303.1605049.16644956.1859398.42124331.0615061.61613697l-.351.566c.1862546.06277601.3184532.22885119.3378611.42443991.0194079.19558873-.0775754.38440521-.2478611.48256009l-1.121.64c-.0757164.04493829-.1619569.06908563-.25.07z"/><path id="Path" d="m57.336 59.471c-.1828529.0000613-.3511555-.0996969-.4388756-.2601349-.08772-.1604381-.080865-.3559642.0178756-.5098651l.531-.832-1.959 1.131c-.2135054.1227461-.4845965.071745-.6388985-.1201978-.1543021-.1919428-.1458589-.4676604.0198985-.6498022l.96-1.05-.549.316c-.1968605.1126554-.4448915.0786873-.6042149-.0827479-.1593234-.1614353-.1900228-.409892-.0747851-.6052521l.384-.645c-.1265859-.0349372-.234346-.1182716-.3-.232-.0666188-.1149293-.0847639-.2516448-.0504306-.3799727.0343334-.1283278.1183225-.2377179.2334306-.3040273l1.128-.65c.1971258-.1142746.446579-.0808228.6066332.0813497.1600541.1621725.1902233.412044.0733668.6076503l-.23.384 1.686-.973c.2135054-.1227461.4845965-.071745.6388985.1201978.1543021.1919428.1458589.4676604-.0198985.6498022l-.96 1.052.934-.54c.1990945-.1132785.4497027-.0767785.6082143.0885839.1585116.1653623.1843818.4172898.0627857.6114161l-.553.865c.2165343-.0520635.4416921.0432736.555.235.1380647.2391402.0561341.5449248-.183.683l-1.625.938c-.0762962.0462598-.1637753.0708093-.253.071z"/><path id="Path" d="m55.978 37.463c-.1859274.0001807-.3566006-.1028205-.4430919-.2674058-.0864912-.1645853-.074515-.3635706.0310919-.5165942l1.316-1.9-1.6.925c-.193736.1112232-.4377455.0804371-.5977845-.0754209-.1600391-.1558581-.1972723-.3989673-.0912155-.5955791l.462-.853c-.213693-.0261749-.3866387-.186198-.4292968-.3972196-.0426581-.2110215.0545502-.4256564.2412968-.5327804l1.128-.65c.1939916-.1127127.4393106-.0824055.6000388.0741298.1607283.1565353.1975079.4009677.0899612.5978702l-.37.682 2-1.152c.2024537-.1163469.4584788-.0770739.6167505.0946066.1582717.1716804.1766405.4300481.0442495.6223934l-1.316 1.9 1.067-.615c.2374252-.1242009.5305531-.0391619.6646466.1928199.1340935.2319817.0614797.5284321-.1646466.6721801l-2.999 1.731c-.0763933.042493-.1625922.0642151-.25.063z"/><path id="Path" d="m35.762 59.47c-.1714087.0000379-.33089-.0877307-.4225737-.2325584-.0916836-.1448277-.1027892-.326526-.0294263-.4814416l.524-1.11-2.346 1.354c-.2189627.1248229-.4965995.0671571-.6477436-.1345378-.1511442-.2016949-.1285371-.4843546.0527436-.6594622l.408-.392-.022.013c-.1921651.1152701-.4375551.0886096-.6004816-.0652396s-.2035952-.3973098-.0995184-.5957604l.507-.987c-.2221477-.0098591-.4110903-.1652426-.4636588-.381306-.0525685-.2160633.0438708-.4408806.2366588-.551694l1.128-.65c.1923632-.1158597.4383718-.0892618.6015262.0650357.1631545.1542975.2034277.3984403.0984738.5969643l-.439.855 2.142-1.235c.2189627-.1248229.4965995-.0671571.6477436.1345378.1511442.2016949.1285371.4843546-.0527436.6594622l-.406.389.142-.082c.1893664-.1078239.426756-.0805881.586782.0673217.160026.1479097.2058297.3824254.113218.5796783l-.566 1.2c.2317189-.0136914.4423882.1338932.5086726.356351.0662843.2224579-.0292499.46128-.2306726.576649l-1.123.647c-.0757079.0425036-.1611788.0645606-.248.064z"/><path id="Path" d="m56 5.468c-.2031097-.00002959-.3860195-.12292405-.4628124-.31095701-.0767929-.18803297-.0322079-.40383661.1128124-.54604299l.185-.183-.476.275c-.2155591.12451122-.4898785.07148712-.6435094-.12438605-.153631-.19587318-.1397727-.47492626.0325094-.65461395l.622-.648-.086.05c-.1989828.11135595-.4480993.07398146-.6056441-.09086369-.1575449-.16484515-.1836047-.41539802-.0633559-.60913631l.312-.478c-.1785406-.07180232-.3000293-.23969664-.3124052-.43173611-.0123758-.19203947.0865577-.37413878.2544052-.46826389l1.123-.648c.2003414-.11576526.4539423-.07894885.6130948.08900577.1591525.16795461.1822771.42316855.0559052.61699423l-.073.113 1.337-.774c.2154812-.12300225.4885691-.06937936.6415393.12597115.1529702.19535052.1395447.47332917-.0315393.65302885l-.623.647.808-.466c.2180963-.12577812.4956948-.06977641.6479698.13071911.1522751.20049552.1317242.48293973-.0479698.65928089l-.36.354c.2283706-.0051146.4311709.14519207.4927094.36517455s-.0338336.45370071-.2317094.56782545l-2.976 1.718c-.0742607.04382939-.1587726.06728577-.245.068z"/><path id="Path" d="m55.949 27.455c-.189386 0-.3625176-.1070012-.4472136-.2763932s-.066418-.372098.0472136-.5236068l1.258-1.69-1.527.881c-.1917679.1141164-.4359415.0873403-.5984214-.0656229-.1624799-.1529633-.203927-.3950786-.1015786-.5933771l.512-1.007c-.2237104-.0070919-.4154547-.1619929-.4694113-.3792147-.0539566-.2172219.0430207-.4438396.2374113-.5547853l1.128-.65c.1919667-.1146891.436745-.0879692.5994468.0654353.1627017.1534044.2037616.3961893.1005532.5945647l-.448.881 2.16-1.246c.2053026-.1190853.4660343-.0774312.6240153.0996916.1579809.1771228.1696738.4409018.0279847.6313084l-1.252 1.691.926-.535c.23893-.1358451.5427102-.0533708.6801373.1846528.137427.2380237.0569695.5423443-.1801373.6813472l-3.026 1.744c-.0760953.0445559-.1628227.0677063-.251.067z"/><path id="Path" d="m35.762 5.47c-.1785002.00014694-.3435404-.0948765-.4330324-.24932233-.089492-.15444584-.0898608-.34488641-.0009676-.49967767l.285-.5-1.828 1.058c-.2161513.1162235-.4847.05839115-.6338521-.13650093-.1491521-.19489209-.1348098-.46922272.0338521-.64749907l.7-.706-.6.344c-.187959.10457651-.4217365.07722653-.5804811-.06791135-.1587445-.14513788-.2068784-.37553548-.1195189-.57208865l.6-1.315c-.1983113.02162925-.3908748-.07504388-.492-.247-.0666188-.11492931-.0847639-.25164482-.0504306-.37997265.0343334-.12832784.1183225-.23771796.2334306-.30402735l1.116-.647c.1882192-.10855511.4250019-.08312686.5858794.06291797.1608775.14604482.20902.37927214.1191206.57708203l-.567 1.248 2.455-1.418c.2161513-.11622349.4847-.05839115.6338521.13650093.1491521.19489209.1348098.46922272-.0338521.64749907l-.7.709.229-.132c.1945359-.11395969.4415922-.08143061.6.079.1584512.15930645.1911761.40474324.08.6l-.414.722c.2022813.04337321.3569615.20684186.3891017.41120906.0321402.20436719-.064898.40742281-.2441017.51079094l-1.113.646c-.0757164.04493829-.1619569.06908563-.25.07z"/></g><path id="Shape" d="m57.724 54.5v-17.1c.4165014-.0249202.8228871-.1384491 1.192-.333 1.088-.617.841-2.049.808-3.122-.044-1.454-1.53-1.323-2.592-1.323-1.162 0-2.773.094-2.856 1.593-.008.139-.018.288-.028.441h-15.524v-9.19h15.549c-.0754016.4693069.002446.9504191.222 1.372.3954537.4302313.9795584.6346867 1.557.545 1.135 0 2.806.247 3.493-.907.1852578-.4524021.2470304-.9458926.179-1.43.068438-.5417581.042044-1.0912946-.078-1.624-.283-.7-1.1-.843-1.921-.847v-17.222c.7028109.02105195 1.3727733-.29755241 1.8-.856.2047005-.45617265.2741175-.96152817.2-1.456.0694494-.54171831.0430469-1.09143114-.078-1.624-.465-1.137-2.39-.773-3.347-.773-.0336257.00331003-.0670202.00865314-.1.016-.029 0-.046 0-.078 0-.8064885-.00116991-1.5305734.49400555-1.822 1.246-.0390623.1974907-.0555016.39878824-.049.6h-16.508c.0387828-.36736501.0048023-.73877177-.1-1.093-.471-1.213-2.355-.859-3.371-.859-.028 0-.065.006-.1.007s-.052-.005-.087 0c-.821098.00624241-1.5461129.53711449-1.8 1.318-.0551762.50219014-.0618738 1.00852613-.02 1.512-.075673.49991383.0064755 1.01098249.235 1.462.3905161.44819928.9796593.67086462 1.569.593h.2v16.164h-8.542v-16.342c.951-.087 1.918-.393 2-1.47.084-1.135.262-2.764-1.065-3.053-.0572227-.03767462-.1260351-.05363625-.194-.045-1.070341-.12457811-2.1546479-.04242336-3.194.242-.6167828.25782157-1.0168808.86251072-1.013 1.531h-16.504c-.036-.976-.3-1.875-1.506-2-.03549546-.00031959-.07095458.00235657-.106.008-.029-.002-.045-.012-.081-.012-1.002 0-2.336-.237-3.178.431-.879.7-.66 2.137-.62 3.138.05 1.241 1.026 1.452 2.01 1.485v17.155c-.40927826.0294373-.80881414.138834-1.176.322-1.109.59-.858 1.987-.825 3.059.044 1.441 1.535 1.26 2.576 1.26 1.12 0 2.777-.083 2.873-1.529.011-.158.024-.327.035-.5h15.517v9.427h-15.549c.08039081-.4965486.02047244-1.0056815-.173-1.47-.34167742-.4301687-.88831346-.6433224-1.431-.558-1.128 0-2.723-.237-3.55.722-.27409263.4116643-.38134401.9121707-.3 1.4-.04611825.5291701-.03706956 1.0617021.027 1.589.187.841 1.1.973 1.974.964v17.163c-.73553406-.0336292-1.4329951.3282574-1.829.949-.18023012.4844179-.23860987 1.0057147-.17 1.518-.06177999.5305688-.03372055 1.067755.083 1.589.476 1.24 2.349.887 3.38.887.023 0 .053 0 .078-.006s.064.007.107 0c.82361378-.0108519 1.54643406-.5511499 1.79-1.338.03195997-.1862493.04668891-.3750476.044-.564h16.5c-.0323346.3426065.001617.6882342.1 1.018.476 1.236 2.351.882 3.379.882.023 0 .055-.005.081-.006s.062.007.1 0c.8235424-.0095751 1.5471436-.5486418 1.792-1.335.0536784-.5019465.0603741-1.0078086.02-1.511.0782235-.5038298-.002887-1.0195106-.232-1.475-.3888589-.4533489-.9794562-.6810219-1.572-.606-.064 0-.134 0-.2 0v-16.139h8.544v16.352c-.946.089-1.912.4-1.992 1.46-.044.579-.011 1.183 0 1.764-.0491874.6451178.4219077 1.213086 1.065 1.284.0562644.0355492.1227525.0513798.189.045 1.0702216.1225303 2.1540001.0393716 3.193-.245.6101513-.2490424 1.0103084-.8409908 1.014-1.5h16.506c.038.959.3 1.83 1.5 1.95.0395206.0004502.0790048-.0025613.118-.009.025 0 .041.01.067.01 1.007 0 2.328.232 3.179-.429.889-.69.664-2.118.626-3.119-.049-1.228-1.034-1.422-2.01-1.453zm-1.952-21.117c.2079921-.0335116.4200079-.0335116.628 0 .4489379-.056147.9034194-.051101 1.351.015.783.248.6 2.1.525 2.734-.017.145-.124.532-.048.485-.126.078-.556 0-.7 0h-1.112c-.641-.1-.772-.959-.761-1.743.0285011-.0382773.0285011-.0907227 0-.129.011-.344.043-.664.067-.877.02-.148.129-.527.05-.485zm2.483-9.39c.0529278.3978762.059974.8005155.021 1.2 0 .3.1 1.207-.059 1.4-.015.019.063-.012-.06.03-.1126543.0124997-.2263457.0124997-.339 0h-.762c-.562 0-1.136.092-1.311-.615-.04823-.384065-.0706137-.7709354-.067-1.158.0252818-.0538468.0252818-.1161532 0-.17 0-.644.052-1.275.209-1.308.164-.008.346-.021.544-.034.2679813.1143332.5710187.1143332.839 0 .47.046.873.204.985.655zm0-22c.0524135.3979146.0594586.80049514.021 1.2 0 .275.12 1.162-.035 1.377-.032.044-.023.051-.015.051-.0215871.00552932-.0426635.01288932-.063.022-.1125661.01400367-.2264339.01400367-.339 0h-.282c-.2423519-.08939833-.5086481-.08939833-.751 0-.471 0-.9-.033-1.046-.639-.0473859-.38312089-.069101-.76898158-.065-1.155.0261873-.06097383.0261873-.13002617 0-.191 0-.645.05-1.273.2-1.313.799-.034 2.148-.274 2.375.648zm-24.51 2.014c-.065-.254-.166-2.533.167-2.567h.01c.76-.041 2.125-.258 2.333.555.054532.4125429.0605731.83005204.018 1.244 0 .236.007.473 0 .709v.126c-.009.074-.145.44-.106.474l-.028.008c-.1127561.01050046-.2262439.01050046-.339 0h-.411c-.1608439-.03749365-.3281561-.03749365-.489 0-.487.012-1 .053-1.155-.549zm1.984 1.44c.7311568.03080987 1.4246662-.32505995 1.826-.937.1497842-.31791223.2122558-.66996204.181-1.02h16.536c-.0723793.45751341.0051448.92616611.221 1.336.3964288.42530891.9792697.6242179 1.553.53h.229v17.267c-.041 0-.095.007-.148.012-.007 0-.011 0-.018 0h-.022l-.075.012c-.7731839.0283315-1.4512102.5245739-1.712 1.253-.0414061.2106693-.0578528.4254827-.049.64h-15.527v-2.546l7.544-7.544v2.613c0 .725 1.464.485 1.464-.126v-4c0-.023-.012-.035-.015-.055.0040408-.0389739-.0062699-.0780838-.029-.11-.1-.218-.367-.273-.616-.273h-4c-.8 0-1.131 1-.144 1h2.853l-8.109 8.111h-1.943zm-10.197-4.147c1.031.1.817 2.132.744 2.851-.013.121-.046.239-.07.359-.0491513.04916851-.09244.10386658-.129.163-.134.006-.268.019-.375.019h-.065c-.3218469-.19853036-.7281531-.19853036-1.05 0-.039 0-.082 0-.119 0-.645-.1-.8-.883-.812-1.64.0313862-.08762762.0334916-.18307361.006-.272.01-.354.041-.687.062-.916.019-.2-.049.172.07-.382.0532386-.049439.100252-.10518346.14-.166.081-.007.16-.016.213-.016zm-23.798 1.88c-.03050138-.40843134-.03050138-.81856866 0-1.227.09-.572.494-.422.967-.422h1.062c.63.076.5.833.5 1.289.03150016.40572284.03150016.81327716 0 1.219-.1.581-.481.43-.967.43-.41710438.06442384-.84231351.05460611-1.256-.029-.424-.205-.306-.889-.306-1.26zm2.511 23.5c-.105.061-.435 0-.553 0-.48940985.0676617-.98687359.0493876-1.47-.054-.76-.321-.568-2.124-.5-2.782.00060543-.1757715.01095464-.3513742.031-.526.1-.065.506 0 .628 0h1.157c1.029.107.807 2.094.738 2.813.00798744.1839081-.00239734.3681543-.031.55zm1.535-1.97c.008-.929-.184-1.83-1.2-2h-.012c-.037-.006-.062-.022-.1-.025-.05095522-.0030224-.10204478-.0030224-.153 0-.188 0-.383-.007-.582-.013v-17.172c1.01-.088 1.972-.447 2.01-1.69 0-.09.007-.186.011-.28h16.502c.008.163.016.324.02.482.031 1.229 1.042 1.3 2 1.294v16.3h-1.7l-8.28-8.28h2.4c.442 0 1.569-.66.606-.66h-3.702c-.406-.252-1.435.144-1.321.514v.01 4c0 .3 1.448.077 1.448-.388v-2.12l7.552 7.551v2.477zm-4.035 11.3c-.05504268-.4245244-.0620871-.8538984-.021-1.28 0-.261-.016-.527 0-.787 0-.042 0-.085 0-.126-.00013721-.1121955.02408746-.2230831.071-.325.05751787-.0512198.10646994-.1113126.145-.178h.9c.591 0 1.233-.051 1.411.682.05504268.4245244.0620871.8538984.021 1.28 0 .261.016.527 0 .787v.134l-.071.317c-.06134218.0561919-.11066719.1242263-.145.2-.123.008-.252.016-.387.023-.182-.3-.775-.268-1.13-.05-.3790725-.0423909-.69382649-.3119535-.794-.68zm.094 22.251c-.234-.354-.11-1.017-.11-1.41-.06176582-.4153225-.05467077-.8379846.021-1.251.088-.182.123-.128.391-.128h.525c.12956855.0239572.26243145.0239572.392 0 .44-.011.955-.088 1.15.4.07503786.3695616.11156639.745906.109 1.123-.00499903.0395092-.00499903.0794908 0 .119.011.689-.04 1.4-.238 1.424-.00845695.0018669-.01680324.0042039-.025.007-.662.036-1.884.213-2.215-.287zm24.416-2.265c.067.265.165 2.511-.172 2.545-.008 0-.015.005-.023.006-.751.043-2.119.251-2.315-.537-.0523593-.410718-.0577273-.8260661-.016-1.238 0-.236-.007-.473 0-.709 0-.041 0-.085 0-.126.009-.074.141-.416.11-.461l.028-.008c.1124219-.0105019.2255781-.0105019.338 0h.763c.511-.003 1.126-.122 1.287.525zm-1.979-1.461c-.7367009-.0350412-1.436021.3260581-1.834.947-.1399604.2982702-.2015672.6272984-.179.956h-16.531c.06568239-.4473681-.01685173-.9039398-.235-1.3-.38950451-.4538788-.98043896-.6825186-1.574-.609-.061 0-.129 0-.193 0v-17.224h.029c.06-.005.121-.014.184-.024h.032c.045-.008.088-.015.132-.026.64166369-.0506395 1.21567706-.4183082 1.53-.98.10158025-.3174392.13564286-.6526153.1-.984h15.539v2.809l-7.552 7.551v-2.845c0-.379-1.448-.129-1.448.388v4c0 .164.339.178.432.178h4c.254 0 .849-.1.961-.379s-.1-.365-.377-.365h-3.292l8.238-8.238h2.038zm.752-16.922c-.6 0-1.229-.056-1.826 0-.1965794.0097734-.3936422-.0009511-.588-.032.0824597-.7557598.1191933-1.5158105.11-2.276v-12.915h1.759c.2303607.0813591.4816393.0813591.712 0h9.269c.2585243.1139522.5525519.1164838.813.007.5073713.0272656 1.0159007.0249283 1.523-.007.1965794-.0097734.3936422.0009511.588.032-.0824597.7557598-.1191933 1.5158105-.11 2.276v12.912h-1.725c-.2825426-.1447374-.6174574-.1447374-.9 0h-9.62zm12.374.78 8.172 8.172h-2.3c-.289 0-.828.092-.954.407-.118.3.1.469.4.469h3.8c.527.225 1.435-.209 1.207-.652v-3.872c0-.639-1.454-.349-1.454.166v2.2l-7.549-7.549v-2.385h15.5c0 .946.2 1.871 1.276 2.009l.027.007c.0069924.0004599.0140076.0004599.021 0h.046c.0380069.0066749.0764339.0106846.115.012.18 0 .371.006.565.014v17.139c-1 .088-1.97.441-2.008 1.667 0 .082-.006.169-.01.254h-16.513c-.007-.157-.015-.312-.019-.464-.031-1.225-1.04-1.293-1.992-1.286v-16.311zm-2.932 20.312c-1.034-.1-.817-2.142-.746-2.86.013-.122.046-.241.069-.362.0504604-.0512294.0950678-.1079111.133-.169.131-.007.262-.019.369-.019h.04c.207.308.85.256 1.186 0h.009c.644.108.8.882.812 1.637-.0309233.0945354-.0309233.1964646 0 .291-.01.351-.041.681-.061.909-.018.2.045-.165-.069.385-.0548525.0507952-.1023142.1090284-.141.173-.08.007-.157.015-.21.015zm23.8-.649c-.09.591-.474.444-.961.444h-1.05c-.467-.048-.591-.756-.6-1.435.0314797-.0937616.0314797-.1952384 0-.289.0080345-.2757523.031404-.550844.07-.824.092-.6.463-.452.961-.452.4191287-.0630993.8461538-.0509083 1.261.036.43.206.314.919.314 1.293.0309998.4083765.0320025.8184768.003 1.227z" fill="#262626"/></g></svg>