<svg height="505pt" viewBox="-116 0 505 505.91181" width="505pt" xmlns="http://www.w3.org/2000/svg"><path d="m64.539062 502.5c-1.898437.003906-3.570312-1.25-4.101562-3.070312-.53125-1.824219.207031-3.777344 1.808594-4.796876l34.824218-22.1875-51.039062 29.449219c-2 1.085938-4.5.40625-5.679688-1.539062-1.179687-1.945313-.625-4.476563 1.261719-5.75l53-33.671875-69.351562 40.03125c-2.003907 1.140625-4.550781.484375-5.75-1.484375-1.203125-1.96875-.625-4.535157 1.304687-5.796875l97.355469-62.820313-104.523437 60.339844c-1.992188 1.082031-4.480469.421875-5.671876-1.507813-1.1875-1.929687-.664062-4.453124 1.199219-5.746093l126.371094-82.746094-123.554687 71.355469c-2.003907 1.164062-4.570313.515625-5.78125-1.457032-1.210938-1.976562-.625-4.554687 1.320312-5.816406l122.535156-79.878906-118.074218 68.164062c-2.003907 1.101563-4.523438.425782-5.707032-1.53125-1.183594-1.957031-.613281-4.5 1.296875-5.765624l68.265625-43.066407-63.855468 36.871094c-1.996094 1.097656-4.5.4375-5.691407-1.503906-1.195312-1.9375-.652343-4.472657 1.230469-5.757813l113.550781-73.90625-109.089843 62.976563c-1.996094 1.082031-4.492188.414062-5.675782-1.523438s-.644531-4.464843 1.230469-5.746093l95.070313-61.347657-90.625 52.328125c-1.996094 1.082032-4.492188.410156-5.675782-1.527344s-.644531-4.460937 1.230469-5.746093l84.546875-54.46875-80.101562 46.253906c-1.300782.792969-2.925782.835937-4.265626.109375-1.339843-.730469-2.1875-2.117188-2.226562-3.640625s.738281-2.953125 2.039062-3.75l80.785157-52.292969-76.332031 44.058594c-1.996094 1.097656-4.5.4375-5.691407-1.503906-1.195312-1.9375-.652343-4.472656 1.230469-5.757813l75.996094-49.492187-71.535156 41.300781c-2.007813 1.148437-4.566407.484375-5.765626-1.492187-1.199218-1.980469-.601562-4.554688 1.347657-5.804688l19.964843-12.636719-15.546874 8.949219c-2.011719 1.230469-4.636719.59375-5.867188-1.417969-1.226562-2.011719-.589844-4.640625 1.421875-5.867187l33.050781-21.25-28.605468 16.511718c-2.003907 1.199219-4.597657.566407-5.824219-1.417968-1.222657-1.988282-.625-4.589844 1.34375-5.84375l38.195312-25.070313-33.714843 19.464844c-1.988282 1.132813-4.515626.496094-5.730469-1.441406-1.210938-1.941407-.679688-4.492188 1.207031-5.785157l38.65625-26.105468-33.535156 19.355468c-1.960938 1.132813-4.46875.535157-5.707032-1.363281-1.238281-1.894531-.777343-4.429687 1.046876-5.769531l46.464843-34.136719-38.46875 22.1875c-1.976562 1.105469-4.46875.472657-5.683593-1.4375-1.210938-1.910156-.722657-4.4375 1.117187-5.753906l7.683594-5.359375c-1.878907.261719-3.703125-.746094-4.480469-2.476562-.777344-1.726563-.320312-3.757813 1.117188-4.992188l21.109374-18.097656c-1.617187-.503906-2.785156-1.921875-2.96875-3.609375-.1875-1.683594.644532-3.320313 2.117188-4.164063l30.667969-17.707031c1.910156-1.121094 4.363281-.59375 5.644531 1.210937 1.277344 1.808594.964844 4.296876-.730469 5.726563l-15.433593 13.199219 42.972656-24.746094c1.976562-1.132812 4.5-.511719 5.722656 1.414062 1.226562 1.921876.71875 4.472657-1.148438 5.78125l-4.660156 3.242188 18.082032-10.4375c1.960937-1.132812 4.46875-.535156 5.707031 1.363281 1.238281 1.894531.777343 4.429688-1.046875 5.773438l-46.472656 34.132812 71.527343-41.269531c1.988281-1.132812 4.515625-.496094 5.726563 1.445312 1.214844 1.9375.683594 4.492188-1.207032 5.785157l-38.613281 26.050781 57.695313-33.28125c2-1.132812 4.535156-.484375 5.742187 1.472656 1.203125 1.957032.644531 4.519532-1.269531 5.789063l-38.230469 25.097656 53.632813-30.96875c2.007812-1.175781 4.589844-.523437 5.800781 1.464844s.605469 4.578125-1.363281 5.824219l-32.957032 21.1875 43.289063-25.011719c2.011719-1.148438 4.566406-.484375 5.765625 1.496093 1.199219 1.976563.601562 4.550782-1.34375 5.800782l-20.078125 12.707031 27.109375-15.652344c2.003906-1.164062 4.570312-.515625 5.78125 1.457031 1.210938 1.976563.625 4.554688-1.320312 5.816407l-75.945313 49.492187 84.265625-48.640625c1.300781-.796875 2.925781-.835937 4.265625-.109375 1.339844.730469 2.1875 2.117188 2.226563 3.640625.039062 1.523438-.734376 2.953125-2.035157 3.75l-80.8125 52.308594 86.671875-50.039063c2.015625-1.230468 4.640625-.59375 5.867188 1.417969 1.230468 2.011719.59375 4.640625-1.417969 5.867188l-84.523437 54.445312 88.609374-51.203125c2.011719-1.230468 4.636719-.597656 5.867188 1.414063 1.230469 2.007812.597656 4.636719-1.414062 5.867187l-95.101563 61.363282 97.808594-56.464844c2-1.167969 4.566406-.519532 5.78125 1.453125 1.210937 1.976562.625 4.558593-1.320313 5.816406l-113.492187 73.890625 114.421875-66.082031c2.007812-1.105469 4.523437-.429688 5.707031 1.53125 1.1875 1.957031.613281 4.5-1.292969 5.761719l-68.378906 43.128906 65.621094-37.886719c2.007812-1.234375 4.636718-.609375 5.871094 1.398437 1.234374 2.007813.609374 4.636719-1.398438 5.871094l-122.566406 79.898438 119-68.695313c1.988281-1.054687 4.457031-.386719 5.636718 1.53125 1.179688 1.917969.664063 4.425781-1.175781 5.722657l-126.292969 82.695312 121.855469-70.355469c2.003907-1.140625 4.550781-.484375 5.753907 1.484375 1.199218 1.96875.621093 4.53125-1.308594 5.792969l-97.433594 62.867187 92.972656-53.675781c2.007813-1.148437 4.566406-.484375 5.765625 1.492188 1.199219 1.980469.601563 4.554687-1.34375 5.804687l-53.035156 33.714844 48.636719-28.058594c2.003906-1.082031 4.503906-.40625 5.683594 1.539063 1.179687 1.945312.625 4.476562-1.261719 5.75l-34.757813 22.101562 30.3125-17.496093c2.003906-1.164063 4.570313-.515626 5.78125 1.457031 1.210938 1.976562.625 4.554687-1.320312 5.816406l-46.164063 30.105469 41.703125-24.074219c2-1.117187 4.523438-.457031 5.71875 1.496094 1.195313 1.953125.636719 4.5-1.265625 5.773437l-20.480469 13.261719 15.992188-9.222656c1.96875-1.128907 4.472656-.523438 5.707031 1.378906 1.230469 1.902344.761719 4.4375-1.074219 5.769531l-58.734374 42.4375 54.101562-31.230468c1.980469-1.121094 4.488281-.488282 5.703125 1.433593s.710937 4.457031-1.144531 5.765625l-18.773438 12.988282 14.242188-8.214844c1.96875-1.097656 4.449218-.476563 5.667968 1.421875 1.214844 1.894531.746094 4.410156-1.070312 5.746093l-11.707031 8.308594 7.109375-4.09375c1.949218-1.132812 4.441406-.546875 5.691406 1.328125 1.25 1.882813.8125 4.414063-.992188 5.769531l-10.460937 7.894532 5.761719-3.320313c1.90625-1.085937 4.328125-.542969 5.59375 1.25s.964844 4.253907-.695313 5.6875l-8.808593 7.484375 3.910156-2.246094c1.699218-.972656 3.84375-.664062 5.199218.746094 1.359376 1.414063 1.578126 3.570313.535157 5.230469l-7.167969 11.246094c2.058594-.496094 4.167969.59375 4.957031 2.554687.789063 1.964844.019531 4.210938-1.808593 5.277344l-13.773438 7.953125c-1.699219.976563-3.84375.667969-5.199219-.746094-1.359375-1.414062-1.578125-3.566406-.535156-5.226562l6.964844-10.941407-29.542969 17.070313c-1.910156 1.082031-4.328125.542969-5.59375-1.25s-.964844-4.253906.695312-5.6875l8.789063-7.476563-24.96875 14.386719c-1.953125 1.144531-4.460937.566407-5.714844-1.320312-1.25-1.886719-.808593-4.425781 1.003907-5.78125l10.46875-7.898438-25.992188 15c-1.96875 1.097657-4.449219.472657-5.664062-1.421875-1.21875-1.898437-.75-4.414062 1.066406-5.746094l11.714844-8.320312-26.828126 15.488281c-1.972656 1.078125-4.445312.4375-5.648437-1.460937-1.203125-1.902344-.726563-4.410156 1.09375-5.734375l18.773437-12.984375-34.988281 20.179687c-1.964843 1.128907-4.472656.523438-5.703125-1.378906-1.234375-1.902344-.765625-4.4375 1.070313-5.773437l58.734375-42.433594-85.855469 49.585937c-1.996094 1.117188-4.523437.457031-5.71875-1.496093-1.195313-1.953126-.636719-4.5 1.265625-5.773438l20.480469-13.289062-35.617188 20.558593c-1.996093 1.097657-4.503906.4375-5.695312-1.503906-1.191407-1.941406-.648438-4.472656 1.230469-5.757813l46.175781-30.113281-64.742188 37.375c-.648437.386719-1.382812.59375-2.136719.605469zm0 0" fill="#5e9cea"/><path d="m138.875 178.089844c-1.835938 0-3.46875-1.175782-4.046875-2.917969-.582031-1.742187.015625-3.660156 1.488281-4.761719l21.273438-15.882812-36.386719 21.011718c-1.953125 1.117188-4.4375.527344-5.679687-1.347656-1.242188-1.875-.8125-4.394531.976562-5.753906l47.539062-35.839844-62.386718 36.011719c-1.988282 1.113281-4.503906.46875-5.707032-1.46875-1.207031-1.933594-.675781-4.476563 1.203126-5.769531l16.542968-11.09375-21.425781 12.375c-1.972656 1.136718-4.492187.523437-5.722656-1.394532-1.230469-1.917968-.734375-4.464843 1.125-5.78125l54.84375-38.886718-62.378907 36.011718c-1.976562 1.117188-4.484374.496094-5.703124-1.417968-1.222657-1.914063-.730469-4.449219 1.117187-5.769532l56.476563-39.535156-61.492188 35.480469c-1.96875 1.097656-4.449219.476563-5.667969-1.421875-1.214843-1.894531-.75-4.410156 1.070313-5.746094l64.578125-45.941406-68.078125 39.304688c-1.976563 1.15625-4.515625.542968-5.746094-1.386719-1.234375-1.929688-.722656-4.488281 1.15625-5.796875l59.023438-41.617188-59.578126 34.40625c-1.980468 1.101563-4.476562.460938-5.6875-1.457031-1.207031-1.917969-.703124-4.445313 1.144532-5.753906l38.878906-26.589844-36.09375 20.835937c-1.972656 1.125-4.476562.511719-5.703125-1.398437-1.226563-1.90625-.746094-4.441406 1.09375-5.769531l46.164063-32.859375-41.445313 23.890625c-1.972656 1.140625-4.492187.527344-5.722656-1.394532-1.230469-1.917968-.734375-4.460937 1.125-5.78125l28.480469-20.121093-21.167969 12.246093c-1.96875 1.109376-4.460938.496094-5.6875-1.402343-1.222657-1.898438-.753907-4.425781 1.070312-5.757813l14.640625-10.511718-4.1875 2.421874c-1.917968 1.117188-4.371094.578126-5.644531-1.238281-1.273437-1.816406-.941406-4.304687.761719-5.726562l19.808594-16.714844c-.882813-.34375-1.621094-.96875-2.101563-1.785156-1.175781-2.039063-.476563-4.648438 1.5625-5.828125l30.695313-17.722656c1.914062-1.117188 4.367187-.578126 5.640624 1.238281 1.273438 1.816406.945313 4.304687-.761718 5.726562l-12.636719 10.664063 37.792969-21.820313c1.96875-1.109375 4.460937-.4960935 5.6875 1.402344 1.222656 1.902344.753906 4.425781-1.070313 5.757813l-14.632812 10.488281 26.769531-15.453125c1.96875-1.109375 4.464844-.484375 5.683594 1.421875 1.21875 1.902343.738281 4.429687-1.09375 5.753906l-28.492188 20.128906 38.398438-22.140625c1.972656-1.125 4.476562-.511718 5.703125 1.398438 1.226562 1.90625.746093 4.441406-1.09375 5.769531l-46.21875 32.84375 55.339843-31.957031c2.003907-1.246094 4.636719-.632813 5.882813 1.367187 1.246094 2.003907.632813 4.636719-1.367187 5.886719l-38.835938 26.570312 44.195312-25.515624c1.976563-1.152344 4.511719-.542969 5.746094 1.390624 1.234375 1.929688.722656 4.488282-1.15625 5.796876l-59.027344 41.617187 64.566407-37.273437c1.96875-1.125 4.472656-.511719 5.703125 1.398437 1.226562 1.90625.742187 4.441406-1.097656 5.769531l-64.589844 45.910156 68.21875-39.355468c1.980468-1.179688 4.539062-.570313 5.777344 1.375 1.234374 1.941406.707031 4.519531-1.195313 5.816406l-56.464844 39.507812 56.832031-32.808593c1.96875-1.097657 4.449219-.472657 5.664063 1.421875 1.21875 1.898437.75 4.414062-1.066406 5.746094l-54.859375 38.910156 52.625-30.386719c1.996094-1.183594 4.574218-.554687 5.800781 1.417969 1.226563 1.96875.652344 4.5625-1.296875 5.828125l-16.511719 11.058593 12.109375-6.988281c1.953125-1.117187 4.4375-.527343 5.679688 1.347657 1.242187 1.875.8125 4.390624-.976563 5.753906l-47.523437 35.839844 38.988281-22.46875c1.957031-1.140626 4.464844-.550782 5.710937 1.339843 1.246094 1.894531.792969 4.429688-1.027343 5.777344l-21.273438 15.878906 8.261719-4.769531c1.9375-1.109375 4.398438-.539062 5.652344 1.304688 1.25 1.847656.871094 4.34375-.875 5.734374l-15.359375 12.167969c.394531.328125.726562.71875.980469 1.160157 1.179687 2.042968.480468 4.652343-1.558594 5.828124l-30.644532 17.691407c-1.933593 1.109375-4.398437.539062-5.652343-1.304688-1.25-1.847656-.871094-4.347656.875-5.734375l.449219-.359375-20.632813 11.902344c-.648437.378906-1.390625.574219-2.140625.574219zm0 0" fill="#5e9cea"/><g fill="#262626"><path d="m3.425781 483.070312c6.511719 24.746094 29.292969 20.199219 49.851563 20.199219h129.550781c20.167969 0 56.320313 7.421875 75.546875-2.613281 20.113281-10.519531 13.527344-41.703125 13.527344-60.191406 0-40.585938.75-81.246094 0-121.824219-.804688-43.160156-21.273438-82.03125-65.410156-94.539063-34.191407-9.6875-76.015626-3.472656-111.0625-3.472656-99.949219 6.722656-92.089844 101.492188-92.089844 175.851563-.015625 25.882812-6.535156 61.324219.085937 86.589843zm12.457031-128.476562c0-56.6875 3.355469-119.332031 78.574219-124.390625 35.296875 0 82.3125-7.808594 115.507813 6.277344 51.644531 21.914062 49.359375 72.894531 49.359375 118.914062 0 36.378907 7.941406 82.636719 0 118.125-6.503907 29.015625-35.140625 20.175781-60.402344 20.175781h-121.683594c-28.347656 0-57.171875 9.0625-61.355469-25.320312-4.460937-36.71875 0-76.832031 0-113.78125zm0 0"/><path d="m132.714844 176.902344c.082031.003906.164062.003906.246094 0 .238281 0 .460937.058594.707031.078125h.242187c.363282.046875.730469.066406 1.097656.058593 45.78125-2.464843 88.089844-31.300781 93.550782-79.835937 2.421875-24.722656-5.730469-49.308594-22.441406-67.6875-16.707032-18.375-40.410157-28.828125-65.246094-28.765625-42.410156-.171875-83.625 28.304688-92.757813 70.824219-12.058593 55.828125 30.660157 101.90625 84.601563 105.328125zm-69.972656-115.984375c8.734374-27.46875 27.382812-39.953125 54.746093-47.265625 27.710938-7.40625 49.71875-6.09375 71.492188 14.085937 11.777343 10.839844 20.300781 24.746094 24.613281 40.160157 6.835938 23.625 2.578125 49.074218-11.578125 69.1875-14.15625 20.113281-36.675781 32.714843-61.222656 34.253906-35.359375-.976563-66.421875-23.746094-77.992188-57.175782-5.589843-17.304687-5.609375-35.929687-.058593-53.246093zm0 0"/></g></svg>