<svg height="512.02166pt" viewBox="0 0 512.02166 512.02166" width="512.02166pt" xmlns="http://www.w3.org/2000/svg"><g fill-rule="evenodd"><path d="m441.378906 133.054688v343.65625c0 19.5-15.808594 35.3125-35.308594 35.3125h-370.761718c-19.5 0-35.308594-15.8125-35.308594-35.3125v-370.757813c0-19.5 15.808594-35.3125 35.308594-35.3125h343.660156zm0 0" fill="#cbd1d7"/><path d="m332.09375 242.425781-67.441406 20.570313-35.136719 10.679687 7.503906-17.652343 32.574219-76.09375 48.199219 14.300781zm0 0" fill="#6ba3ea"/><path d="m506.792969 67.640625-65.414063 65.414063-109.285156 109.371093-62.5-62.496093 109.375-109.289063 65.410156-65.410156c3.296875-3.347657 7.796875-5.230469 12.492188-5.230469 4.695312 0 9.195312 1.882812 12.492187 5.230469l37.429688 37.429687c3.34375 3.292969 5.230469 7.792969 5.230469 12.488282 0 4.699218-1.886719 9.199218-5.230469 12.492187zm0 0" fill="#578fda"/><g fill="#6592aa"><path d="m237.019531 256.023438-7.503906 17.652343h-150.066406c-4.875 0-8.828125-3.953125-8.828125-8.828125s3.953125-8.824218 8.828125-8.824218zm0 0"/><path d="m388.414062 353.125h-308.964843c-4.875 0-8.828125-3.953125-8.828125-8.828125s3.953125-8.828125 8.828125-8.828125h308.964843c4.875 0 8.828126 3.953125 8.828126 8.828125s-3.953126 8.828125-8.828126 8.828125zm0 0"/><path d="m185.378906 432.574219h-105.929687c-4.875 0-8.828125-3.953125-8.828125-8.828125s3.953125-8.828125 8.828125-8.828125h105.929687c4.875 0 8.828125 3.953125 8.828125 8.828125s-3.953125 8.828125-8.828125 8.828125zm0 0"/><path d="m247.171875 432.574219h-17.65625c-4.875 0-8.824219-3.953125-8.824219-8.828125s3.949219-8.828125 8.824219-8.828125h17.65625c4.875 0 8.828125 3.953125 8.828125 8.828125s-3.953125 8.828125-8.828125 8.828125zm0 0"/></g><path d="m35.308594 141.261719c-4.875 0-8.824219-3.949219-8.824219-8.828125v-17.652344c0-9.75 7.902344-17.65625 17.652344-17.65625h88.277343c4.875 0 8.828126 3.953125 8.828126 8.828125s-3.953126 8.828125-8.828126 8.828125h-88.277343v17.652344c0 4.878906-3.949219 8.828125-8.828125 8.828125zm0 0" fill="#d9dfe6"/><path d="m35.308594 194.230469c-4.875 0-8.824219-3.953125-8.824219-8.828125v-17.65625c0-4.875 3.949219-8.828125 8.824219-8.828125 4.878906 0 8.828125 3.953125 8.828125 8.828125v17.65625c0 4.875-3.949219 8.828125-8.828125 8.828125zm0 0" fill="#d9dfe6"/><path d="m379.585938 128.746094c-3.570313 0-6.789063-2.152344-8.152344-5.449219-1.367188-3.300781-.613282-7.09375 1.910156-9.621094l77.285156-77.242187c2.21875-2.292969 5.5-3.214844 8.585938-2.40625 3.085937.808594 5.496094 3.21875 6.304687 6.304687.808594 3.085938-.113281 6.371094-2.40625 8.585938l-77.285156 77.242187c-1.65625 1.65625-3.902344 2.585938-6.242187 2.585938zm0 0" fill="#6297de"/><path d="m340.566406 167.746094c-3.566406 0-6.785156-2.152344-8.152344-5.449219-1.367187-3.300781-.609374-7.09375 1.914063-9.621094l12.535156-12.523437c3.460938-3.347656 8.96875-3.300782 12.375.105468 3.402344 3.40625 3.453125 8.910157.105469 12.375l-12.535156 12.527344c-1.65625 1.65625-3.898438 2.585938-6.242188 2.585938zm0 0" fill="#6297de"/></g></svg>