<?xml version="1.0" encoding="iso-8859-1"?>
<!-- Generator: Adobe Illustrator 19.0.0, SVG Export Plug-In . SVG Version: 6.00 Build 0)  -->
<svg version="1.1" id="Capa_1" xmlns="http://www.w3.org/2000/svg" xmlns:xlink="http://www.w3.org/1999/xlink" x="0px" y="0px"
	 viewBox="0 0 415.8 415.8" style="enable-background:new 0 0 415.8 415.8;" xml:space="preserve">
<g>
	<g>
		<path d="M204.534,43H148.34c-14.359,0-26,11.641-26,26c0,14.359,11.641,26,26,26h56.194c14.359,0,26-11.641,26-26
			C230.534,54.641,218.893,43,204.534,43z M204.534,75H148.34c-3.314,0-6-2.686-6-6s2.686-6,6-6h56.194c3.314,0,6,2.686,6,6
			S207.848,75,204.534,75z"/>
	</g>
</g>
<g>
	<g>
		<path d="M204.534,159H148.34c-14.359,0-26,11.641-26,26c0,14.359,11.641,26,26,26h56.194c14.359,0,26-11.641,26-26
			C230.534,170.641,218.893,159,204.534,159z M204.534,191H148.34c-3.314,0-6-2.686-6-6s2.686-6,6-6h56.194c3.314,0,6,2.686,6,6
			S207.848,191,204.534,191z"/>
	</g>
</g>
<g>
	<g>
		<path d="M340.973,212.549V50.255C340.973,22.685,318.108,0,290.537,0h-228.2C34.766,0,11.973,22.685,11.973,50.255v268.633
			c0,27.57,22.793,50.112,50.363,50.112h147.081c19.805,29.186,52.749,46.702,88.02,46.8c58.544,0,106.39-47.657,106.39-106.2
			C403.822,267.693,379.212,229.694,340.973,212.549z M31.973,50.255C32.142,33.574,45.655,20.109,62.336,20h0.004h228.2
			c16.539,0,30.433,13.713,30.433,30.255V115h-289V50.255z M148.34,274c-14.359,0-26,11.641-26,26c0,14.359,11.641,26,26,26h44.207
			c1.183,7.885,3.286,15.604,6.266,23H62.34c-16.546,0-30.367-13.57-30.367-30.112V255h174.674c-3.797,5.964-6.908,12.337-9.273,19
			H148.34z M192.398,294c-0.578,3.977-0.935,7.983-1.071,12H148.34c-3.314,0-6-2.686-6-6s2.686-6,6-6H192.398z M31.973,235V135h289
			v70.936c-7.67-1.59-15.485-2.369-23.318-2.325c-29.294,0-56.073,11.389-75.3,31.389H31.973z M297.439,395.745
			c-47.592,0-86.173-38.581-86.174-86.173c-0.001-47.593,38.58-86.174,86.173-86.175s86.174,38.58,86.175,86.173
			c0,0,0,0.001,0,0.001C383.56,357.142,345.009,395.692,297.439,395.745z"/>
	</g>
</g>
<g>
	<g>
		<path d="M296.973,260.265c-5.523,0-10,4.477-10,10v46.613c0,5.523,4.477,10,10,10c5.523,0,10-4.477,10-10v-46.613
			C306.973,264.742,302.496,260.265,296.973,260.265z"/>
	</g>
</g>
<g>
	<g>
		<path d="M296.973,332.265c-5.523,0-10,4.477-10,10v6.613c0,5.523,4.477,10,10,10c5.523,0,10-4.477,10-10v-6.613
			C306.973,336.742,302.496,332.265,296.973,332.265z"/>
	</g>
</g>
<g>
</g>
<g>
</g>
<g>
</g>
<g>
</g>
<g>
</g>
<g>
</g>
<g>
</g>
<g>
</g>
<g>
</g>
<g>
</g>
<g>
</g>
<g>
</g>
<g>
</g>
<g>
</g>
<g>
</g>
</svg>
