<?xml version="1.0" encoding="iso-8859-1"?>
<!-- Generator: Adobe Illustrator 19.0.0, SVG Export Plug-In . SVG Version: 6.00 Build 0)  -->
<svg version="1.1" id="Capa_1" xmlns="http://www.w3.org/2000/svg" xmlns:xlink="http://www.w3.org/1999/xlink" x="0px" y="0px"
	 viewBox="0 0 415.813 415.813" style="enable-background:new 0 0 415.813 415.813;" xml:space="preserve">
<g>
	<g>
		<path d="M204.444,43h-56.2c-14.359,0-26,11.641-26,26c0,14.359,11.641,26,26,26h56.2c14.359,0,26-11.641,26-26
			C230.444,54.641,218.804,43,204.444,43z M204.444,75h-56.2c-3.314,0-6-2.686-6-6s2.686-6,6-6h56.2c3.314,0,6,2.686,6,6
			S207.758,75,204.444,75z"/>
	</g>
</g>
<g>
	<g>
		<path d="M204.444,159h-56.2c-14.359,0-26,11.641-26,26c0,14.359,11.641,26,26,26h56.2c14.359,0,26-11.641,26-26
			C230.444,170.641,218.804,159,204.444,159z M204.444,191h-56.2c-3.314,0-6-2.686-6-6s2.686-6,6-6h56.2c3.314,0,6,2.686,6,6
			S207.758,191,204.444,191z"/>
	</g>
</g>
<g>
	<g>
		<path d="M340.344,212.549L340.344,212.549l0-162.294c0-27.57-22.329-50.255-49.9-50.255h-228.2c-27.571,0-49.9,22.685-49.9,50.255
			v268.633c-0.026,27.604,22.296,50.02,49.9,50.112h147.08c32.771,48.603,98.739,61.438,147.342,28.666
			c29.279-19.742,46.823-52.753,46.802-88.066C403.468,266.392,377.344,229.107,340.344,212.549z M32.344,50.255
			C32.295,33.664,45.654,20.147,62.244,20h228.2c16.591,0.147,29.949,13.664,29.9,30.255V115h-288V50.255z M148.244,274
			c-14.359,0-26,11.641-26,26c0,14.359,11.641,26,26,26h44.21c1.183,7.885,3.286,15.604,6.266,23H62.244
			c-16.563-0.079-29.938-13.549-29.9-30.112V255h174.21c-3.798,5.963-6.908,12.337-9.272,19H148.244z M192.302,294
			c-0.578,3.977-0.935,7.983-1.071,12h-42.987c-3.314,0-6-2.686-6-6s2.686-6,6-6H192.302z M32.344,235V135h288v70.936
			c-7.571-1.64-15.304-2.42-23.05-2.325C268,203.611,241.494,215,222.26,235H32.344z M297.344,395.745
			c-47.593,0-86.174-38.581-86.174-86.174c0-47.593,38.581-86.174,86.174-86.174c47.593,0,86.174,38.581,86.174,86.174
			C383.465,357.141,344.915,395.692,297.344,395.745z"/>
	</g>
</g>
<g>
	<g>
		<path d="M297.344,273.74c-19.789,0-35.832,16.043-35.832,35.832c0,19.789,16.043,35.832,35.832,35.832
			c19.789,0,35.832-16.043,35.832-35.832c0,0,0-0.001,0-0.001C333.154,289.791,317.124,273.762,297.344,273.74z M297.344,325.4
			v0.003c-8.744,0-15.832-7.088-15.832-15.832s7.088-15.832,15.832-15.832s15.832,7.088,15.832,15.832
			C313.165,318.309,306.083,325.39,297.344,325.4z"/>
	</g>
</g>
<g>
	<g>
		<path d="M362.02,312.854c0.147-3.176,0.066-6.359-0.242-9.523l8.718-8.363l-13.001-29.718l-12.1,0.89
			c-2.131-2.379-4.447-4.586-6.926-6.6l0.356-12.076l-30.316-11.7l-7.881,9.135c-3.176-0.148-6.358-0.067-9.522,0.242l-8.364-8.719
			l-29.716,13l0.89,12.1c-2.379,2.132-4.585,4.448-6.6,6.927l-12.075-0.355l-11.7,30.314l9.136,7.881
			c-0.147,3.176-0.066,6.358,0.242,9.522l-8.718,8.363l13,29.718l12.1-0.89c2.131,2.379,4.447,4.586,6.926,6.6l-0.356,12.077
			l30.316,11.7l7.881-9.134c3.176,0.145,6.358,0.064,9.522-0.243l8.364,8.719l29.716-13l-0.89-12.1
			c2.379-2.132,4.586-4.448,6.6-6.927l12.075,0.355l11.7-30.314L362.02,312.854z M345.895,330.641l-8.69-0.256L334.129,335
			c-2.613,3.914-5.883,7.347-9.667,10.145l-4.418,3.278l0.637,8.652l-3.962,1.733l-5.966-6.22l-5.3,0.977
			c-4.737,0.865-9.58,0.989-14.355,0.367l-5.333-0.684l-5.526,6.405l-3.965-1.531l0.255-8.689l-4.612-3.074
			c-3.914-2.613-7.347-5.884-10.146-9.668l-3.279-4.417l-8.65,0.637l-1.733-3.962l6.218-5.966l-0.976-5.3
			c-0.865-4.738-0.988-9.581-0.366-14.357l0.683-5.332l-6.4-5.526l1.53-3.966l8.69,0.256l3.074-4.612
			c2.611-3.915,5.881-7.347,9.664-10.146l4.418-3.278l-0.637-8.652l3.961-1.733l5.967,6.22l5.3-0.977
			c4.737-0.866,9.58-0.99,14.355-0.367l5.333,0.684l5.526-6.4l3.965,1.531l-0.255,8.689l4.612,3.075
			c3.915,2.613,7.347,5.883,10.146,9.667l3.279,4.417l8.65-0.637l1.733,3.962l-6.218,5.966l0.976,5.3
			c0.865,4.738,0.988,9.581,0.366,14.357l-0.683,5.332l6.4,5.526L345.895,330.641z"/>
	</g>
</g>
<g>
</g>
<g>
</g>
<g>
</g>
<g>
</g>
<g>
</g>
<g>
</g>
<g>
</g>
<g>
</g>
<g>
</g>
<g>
</g>
<g>
</g>
<g>
</g>
<g>
</g>
<g>
</g>
<g>
</g>
</svg>
