<?xml version="1.0" encoding="iso-8859-1"?>
<!-- Generator: Adobe Illustrator 19.0.0, SVG Export Plug-In . SVG Version: 6.00 Build 0)  -->
<svg version="1.1" id="Capa_1" xmlns="http://www.w3.org/2000/svg" xmlns:xlink="http://www.w3.org/1999/xlink" x="0px" y="0px"
	 viewBox="0 0 415.8 415.8" style="enable-background:new 0 0 415.8 415.8;" xml:space="preserve">
<g>
	<g>
		<path d="M204.534,43H148.34c-14.359,0-26,11.641-26,26c0,14.359,11.641,26,26,26h56.194c14.359,0,26-11.641,26-26
			C230.534,54.641,218.893,43,204.534,43z M204.534,75H148.34c-3.314,0-6-2.686-6-6s2.686-6,6-6h56.194c3.314,0,6,2.686,6,6
			S207.848,75,204.534,75z"/>
	</g>
</g>
<g>
	<g>
		<path d="M204.534,159H148.34c-14.359,0-26,11.641-26,26c0,14.359,11.641,26,26,26h56.194c14.359,0,26-11.641,26-26
			C230.534,170.641,218.893,159,204.534,159z M204.534,191H148.34c-3.314,0-6-2.686-6-6s2.686-6,6-6h56.194c3.314,0,6,2.686,6,6
			S207.848,191,204.534,191z"/>
	</g>
</g>
<g>
	<g>
		<path d="M340.973,212.549V50.255C340.973,22.685,318.108,0,290.537,0h-228.2C34.766,0,11.973,22.685,11.973,50.255v268.633
			c0,27.57,22.793,50.112,50.363,50.112h147.081c19.805,29.186,52.749,46.702,88.02,46.8c58.544,0,106.39-47.657,106.39-106.2
			C403.822,267.693,379.212,229.694,340.973,212.549z M31.973,50.255C32.142,33.574,45.655,20.109,62.336,20h0.004h228.2
			c16.539,0,30.433,13.713,30.433,30.255V115h-289V50.255z M148.34,274c-14.359,0-26,11.641-26,26c0,14.359,11.641,26,26,26h44.207
			c1.183,7.885,3.286,15.604,6.266,23H62.34c-16.546,0-30.367-13.57-30.367-30.112V255h174.674c-3.797,5.964-6.908,12.337-9.273,19
			H148.34z M192.398,294c-0.578,3.977-0.935,7.983-1.071,12H148.34c-3.314,0-6-2.686-6-6s2.686-6,6-6H192.398z M31.973,235V135h289
			v70.936c-7.67-1.59-15.485-2.369-23.318-2.325c-29.294,0-56.073,11.389-75.3,31.389H31.973z M297.439,395.745
			c-47.592,0-86.173-38.581-86.174-86.173c-0.001-47.593,38.58-86.174,86.173-86.175s86.174,38.58,86.175,86.173
			c0,0,0,0.001,0,0.001C383.56,357.142,345.009,395.692,297.439,395.745z"/>
	</g>
</g>
<g>
	<g>
		<path d="M349.861,347.735l-16.809-16.72c5.36-8.065,8.215-17.535,8.207-27.218c0.078-27.405-22.074-49.684-49.479-49.763
			c-27.405-0.078-49.684,22.074-49.763,49.479s22.074,49.684,49.479,49.763c9.729,0.028,19.253-2.805,27.385-8.147l16.874,16.785
			c3.915,3.895,10.247,3.879,14.142-0.036S353.776,351.63,349.861,347.735z M291.787,333.279c-0.04,0-0.081,0-0.121,0
			c-16.307,0.016-29.549-13.172-29.6-29.479c-0.067-16.347,13.131-29.654,29.479-29.721c16.348-0.067,29.654,13.131,29.721,29.479
			C321.332,319.906,308.134,333.212,291.787,333.279z"/>
	</g>
</g>
<g>
</g>
<g>
</g>
<g>
</g>
<g>
</g>
<g>
</g>
<g>
</g>
<g>
</g>
<g>
</g>
<g>
</g>
<g>
</g>
<g>
</g>
<g>
</g>
<g>
</g>
<g>
</g>
<g>
</g>
</svg>
