<?xml version="1.0"?>
<svg xmlns="http://www.w3.org/2000/svg" id="icons" viewBox="0 0 60 60" width="512" height="512"><path d="M21.293,45.454a.5.5,0,0,1-.307-.894l.549-.427-1.14.658a.5.5,0,0,1-.546-.836l.658-.483-.72.415a.5.5,0,0,1-.544-.837L20.7,41.989l-1.514.874a.5.5,0,0,1-.552-.831l4.035-3.054-4.306,2.485a.5.5,0,0,1-.549-.833l3.709-2.773-3.941,2.276a.5.5,0,0,1-.561-.824l4.967-3.941-5.38,3.106a.5.5,0,0,1-.544-.837l2.9-2.112-3.053,1.763a.5.5,0,0,1-.558-.826l4.768-3.74-5.147,2.971a.5.5,0,0,1-.54-.839l2.019-1.437-2.1,1.214a.5.5,0,0,1-.559-.826l4.728-3.7-5.1,2.944a.5.5,0,0,1-.538-.841l1.763-1.245-2.053,1.185a.5.5,0,1,1-.5-.865L23.674,24.6a.5.5,0,0,1,.538.841l-1.765,1.246,1.729-1a.5.5,0,0,1,.558.826l-4.729,3.7,5.1-2.945a.5.5,0,0,1,.54.839l-2.02,1.437,2.105-1.215a.5.5,0,0,1,.559.826l-4.767,3.739,5.146-2.971a.5.5,0,0,1,.544.837l-2.9,2.113,3.056-1.765a.5.5,0,0,1,.561.825l-4.969,3.942,5.385-3.108a.5.5,0,0,1,.549.833l-3.7,2.769L29.124,34.1a.5.5,0,0,1,.552.831l-4.039,3.058L28.4,36.393a.5.5,0,0,1,.543.836l-1.447,1.053.361-.207a.5.5,0,0,1,.545.836l-.88.648a.5.5,0,0,1,.394.886l-.84.653a.5.5,0,0,1,.468.249.5.5,0,0,1-.183.682l-5.814,3.358A.491.491,0,0,1,21.293,45.454Z" fill="#3778c6"/><path d="M25.646,24.317a.5.5,0,0,1-.25-.932L33.688,18.6a.5.5,0,0,1,.6.786l-.742.743a.5.5,0,0,1,.134.919L31.148,22.51a.5.5,0,0,1-.6-.786l.371-.372L25.9,24.25A.5.5,0,0,1,25.646,24.317Z" fill="#3778c6"/><path d="M2.653,38.311a.5.5,0,0,1-.269-.921L15.2,29.182,1.628,37.015a.5.5,0,0,1-.513-.859l3.307-2.044L1.318,35.9a.5.5,0,0,1-.512-.858l2.558-1.581-2.084,1.2a.5.5,0,0,1-.523-.851l14.158-9.272L1.28,32.417a.5.5,0,0,1-.521-.853l10.888-7.049L1.28,30.5a.5.5,0,0,1-.526-.85L12.748,21.7,1.28,28.316a.5.5,0,0,1-.516-.855l2.83-1.787L1.28,27.01a.5.5,0,0,1-.519-.855l4.207-2.686L1.28,25.6a.5.5,0,0,1-.522-.852l5.888-3.831-5.367,3.1a.5.5,0,0,1-.535-.844l9.638-6.676-9.1,5.255a.5.5,0,0,1-.536-.843L8.919,15.2l-7.64,4.41a.5.5,0,0,1-.525-.849l2.552-1.685-2.027,1.17A.5.5,0,0,1,.751,17.4l2.707-1.81L1.279,16.845A.5.5,0,0,1,.749,16l2.313-1.561L1.279,15.465a.5.5,0,0,1-.529-.848l.976-.657-.447.258a.5.5,0,0,1-.548-.834l4.306-3.191L1.279,12.362A.5.5,0,0,1,.61,12.2a.5.5,0,0,1,.123-.677l2.6-1.91L1.279,10.8a.5.5,0,0,1-.556-.827L3.434,7.87,1.279,9.113a.5.5,0,0,1-.584-.8L3.739,5.572l-2.46,1.42a.5.5,0,0,1-.6-.79l2.041-2-1.442.832a.5.5,0,0,1-.655-.725L1.792,2.691a.5.5,0,0,1-.624-.212A.5.5,0,0,1,1.351,1.8L3.31.665a.5.5,0,0,1,.655.726L2.8,3,5.646,1.359a.5.5,0,0,1,.6.79L4.2,4.15,7.375,2.319a.5.5,0,0,1,.584.805L4.916,5.859l4.332-2.5a.5.5,0,0,1,.557.828L7.092,6.294l3.649-2.106a.5.5,0,0,1,.546.835l-2.6,1.909,3.431-1.981a.5.5,0,0,1,.548.834L8.358,8.977l5.4-3.117a.5.5,0,0,1,.529.848l-.973.654,1.544-.89a.5.5,0,0,1,.531.846L13.066,8.886l3.011-1.738A.5.5,0,0,1,16.605,8l-2.7,1.8,3.4-1.966a.5.5,0,0,1,.526.85l-2.563,1.691L18.52,8.5a.5.5,0,0,1,.536.843l-8.171,5.7,9.522-5.5a.5.5,0,0,1,.535.844L11.3,17.071l11.1-6.41a.5.5,0,0,1,.523.852l-5.885,3.829,6.762-3.9a.5.5,0,0,1,.519.855l-4.2,2.681,4.926-2.844a.5.5,0,0,1,.516.855l-2.837,1.791,3.475-2a.5.5,0,0,1,.526.849L14.742,21.573l13.394-7.732a.5.5,0,0,1,.521.852l-10.889,7.05L29.829,14.78a.5.5,0,0,1,.524.851L16.19,24.905l15.627-9.021a.5.5,0,0,1,.513.858L29.8,18.308l3-1.731a.5.5,0,0,1,.513.859l-3.331,2.058,3.476-2.007a.5.5,0,0,1,.52.854L9.83,33.807a.5.5,0,0,1-.23.57L2.9,38.243A.5.5,0,0,1,2.653,38.311Z" fill="#3778c6"/><path d="M43.733,59.4a.5.5,0,0,1-.29-.907l5.5-3.909L40.954,59.2a.5.5,0,0,1-.531-.845l6.537-4.445-8.271,4.775a.5.5,0,0,1-.53-.847l8.916-6.042L36.551,57.868a.5.5,0,0,1-.53-.847L46.854,49.7,34.579,56.791a.5.5,0,0,1-.526-.849l11.119-7.386L32.935,55.62a.5.5,0,0,1-.527-.849L44.526,46.73l-12.985,7.5a.5.5,0,0,1-.523-.852L41.876,46.3l-11.426,6.6a.5.5,0,0,1-.526-.85l13.1-8.688-13.677,7.9a.5.5,0,0,1-.517-.856l5.614-3.545L28.8,50.107a.5.5,0,0,1-.52-.853l8.5-5.447L28.21,48.753a.5.5,0,0,1-.518-.856l5.155-3.256-4.978,2.873a.5.5,0,0,1-.521-.853l8.941-5.788-8.784,5.071a.5.5,0,0,1-.517-.855l3.484-2.2-3.081,1.778a.5.5,0,0,1-.528-.849l10.124-6.743-9.635,5.563a.5.5,0,0,1-.527-.849l8.161-5.425L27.527,40.67a.5.5,0,0,1-.518-.855l.818-.521a.5.5,0,0,1-.468-.877l6.971-4.842L28.8,36.77a.5.5,0,0,1-.539-.841l4.1-2.9-2.1,1.212a.5.5,0,0,1-.556-.828l2.807-2.165a.5.5,0,0,1-.052-.891l4.827-2.788a.5.5,0,0,1,.556.829l-1.607,1.24,5.031-2.905a.5.5,0,0,1,.539.841l-4.1,2.9,6.489-3.746a.5.5,0,0,1,.536.843L37.76,32.411l9.055-5.228a.5.5,0,0,1,.519.854l-.719.458,1.607-.927a.5.5,0,0,1,.526.849l-8.156,5.422,9.422-5.44a.5.5,0,0,1,.527.849L40.412,35.995l11.344-6.549a.5.5,0,0,1,.516.856l-3.479,2.2L52.8,30.186a.5.5,0,0,1,.521.852l-8.936,5.785,9.587-5.535a.5.5,0,0,1,.517.856L49.334,35.4l5.551-3.2a.5.5,0,0,1,.519.854L46.9,38.5l8.849-5.108a.5.5,0,0,1,.517.855L50.649,37.8l5.836-3.369a.5.5,0,0,1,.527.849l-13.1,8.689L57.349,36.21a.5.5,0,0,1,.523.852L47.021,44.137l10.928-6.31a.5.5,0,0,1,.527.85l-12.119,8.04,12.108-6.99a.5.5,0,0,1,.526.848L47.878,47.958l10.768-6.217a.5.5,0,0,1,.531.847L48.34,49.907l10.253-5.919a.5.5,0,0,1,.53.847L50.2,50.881l8.041-4.642a.5.5,0,0,1,.531.846l-6.533,4.441,5.334-3.079a.5.5,0,0,1,.54.84L52.622,53.2l3.552-2.05a.5.5,0,0,1,.557.827L53.6,54.411a.5.5,0,0,1,.239.933L48.289,58.55a.5.5,0,0,1-.558-.827l2.713-2.117-6.461,3.731A.491.491,0,0,1,43.733,59.4Z" fill="#5fc77d"/><path d="M46.224,45.471a.5.5,0,0,1-.25-.933l6-3.461a.5.5,0,0,1,.624.765L51.568,43l1.095-.632a.5.5,0,1,1,.5.865L49.4,45.4a.5.5,0,0,1-.624-.764l1.027-1.159L46.474,45.4A.5.5,0,0,1,46.224,45.471Z" fill="#e1efff"/><path d="M43.044,53.426a.5.5,0,0,1-.4-.806l.383-.5-1.162.67a.5.5,0,0,1-.63-.758l1.455-1.7-1.414.816a.5.5,0,0,1-.6-.789l1.147-1.129-.548.316a.5.5,0,0,1-.562-.823l4.924-3.94L41.279,47.3a.5.5,0,0,1-.586-.8l2.97-2.687L40.7,45.523a.5.5,0,0,1-.609-.78l2.121-2.189L37.276,45.4a.5.5,0,0,1-.549-.832l1.3-.98-3,1.732a.5.5,0,0,1-.658-.72l1.412-2-2.365,1.365a.5.5,0,0,1-.653-.728l.565-.772a.5.5,0,0,1-.2-.931l1.62-.935a.5.5,0,0,1,.653.727l-.429.587,2.28-1.315a.5.5,0,0,1,.658.72l-1.412,2,8.222-4.746a.5.5,0,0,1,.55.832l-1.3.977.841-.486a.5.5,0,0,1,.609.781L43.3,42.868,47.234,40.6a.5.5,0,0,1,.586.8l-2.97,2.688,6-3.467a.5.5,0,0,1,.563.823l-6.2,4.962a.482.482,0,0,1,.15.132.5.5,0,0,1-.047.659l-1.147,1.129.548-.315a.5.5,0,0,1,.63.758l-1.456,1.7.826-.477a.5.5,0,0,1,.645.738l-.631.819a.5.5,0,0,1,.11.912l-1.551.895A.49.49,0,0,1,43.044,53.426Z" fill="#e1efff"/><path d="M41.03,40.386a.5.5,0,0,1-.379-.826l2.02-2.348-1.392.8a.5.5,0,0,1-.641-.744l1.593-2.014-.952.55a.5.5,0,0,1-.633-.753L41.2,34.4a.5.5,0,0,1-.025-.879l1.547-.893a.5.5,0,0,1,.634.753l-.129.154L44,33.084a.5.5,0,0,1,.628.1.5.5,0,0,1,.014.638l-1.594,2.015,1.675-.967a.5.5,0,0,1,.629.759l-2.02,2.347,1.392-.8a.5.5,0,0,1,.5.865L41.28,40.318A.49.49,0,0,1,41.03,40.386Z" fill="#e1efff"/><path d="M48.79,27.43a17.13,17.13,0,0,0-18.6,5c-.239.281-.461.573-.678.867l-2.742-4.671c-.589-1-1.2-2-1.766-3.008a2.32,2.32,0,0,1-.336-.673c-.1-.56.252-.481.763-.651,2.24-.741,4.5-1.446,6.721-2.225,2.683-.939,3.6-4.276.929-5.887-3.383-2.043-6.935-3.848-10.39-5.766L8.121,2.329a14.882,14.882,0,0,0-3.1-1.6A3.743,3.743,0,0,0,.276,4.37c-.042,4.422,0,8.847,0,13.269v15.97c0,1.405-.2,2.961.943,4.021a3.782,3.782,0,0,0,4.21.437,9.539,9.539,0,0,0,2.089-1.722L10.8,33.273a8.013,8.013,0,0,1,1.1-1.031c.4-.246.073-.2.269.163,1.064,1.98,2.284,3.89,3.422,5.827,1.171,1.995,2.3,4.026,3.516,5.99,1.467,2.358,3.926.5,5.615-.506l1.58-.938a16.324,16.324,0,0,0,2.3,8.76,16.813,16.813,0,0,0,31.128-8.591A16.633,16.633,0,0,0,48.79,27.43ZM23.945,43.252c-.887.527-2.3,1.908-3.209.843a10.216,10.216,0,0,1-.893-1.488L17.98,39.433q-1.956-3.33-3.91-6.66a3.92,3.92,0,0,0-.855-1.251c-.858-.6-1.891-.013-2.549.586-1.774,1.611-3.471,3.308-5.253,4.91A1.938,1.938,0,0,1,4.03,37.7a2.464,2.464,0,0,1-2.2-1.855,4.77,4.77,0,0,1-.1-1.322V6.187a10.642,10.642,0,0,1,.16-3.4c.862-2.373,2.949-.956,4.358-.174L31.189,16.458c.256.142.53.271.776.431,1.454.945,1.921,3.39.2,4.388a13.853,13.853,0,0,1-2.585.892l-3.815,1.263a5.577,5.577,0,0,0-2.206.933c-.667.7-.162,1.369.225,2.029L27.7,33.069l.92,1.566a16.609,16.609,0,0,0-2.269,7.188ZM48.238,57.569a15.39,15.39,0,0,1-16.986-4.793A15.739,15.739,0,0,1,29.8,35.155a15.212,15.212,0,0,1,16.054-7.32A15.706,15.706,0,0,1,58.265,43.053,15.534,15.534,0,0,1,48.238,57.569Z" fill="#262626"/><path d="M47.6,40.476a6.017,6.017,0,0,1-1.381,0c-.559-.146-.488-.647-.488-1.1v-3.72c0-1.388-.354-2.695-1.892-3.09a2.88,2.88,0,0,0-3.574,2.608c-.057,1,0,2.028,0,3.033,0,.53.046,1.083,0,1.611-.033.377-.075.572-.438.663a7.7,7.7,0,0,1-1.676,0H36.08c-1.284,0-2.558.066-3.371,1.247a2.428,2.428,0,0,0,1.761,3.759,20.041,20.041,0,0,0,3.119.042h1.886c.5,0,.718.151.792.688a28,28,0,0,1,0,3.664c0,1.074-.106,2.157.772,2.96a2.884,2.884,0,0,0,4.269-.625c.677-1.07.425-2.627.425-3.829,0-.688-.059-1.41,0-2.1.037-.42.022-.656.444-.762a8.621,8.621,0,0,1,1.9,0h2.15c1.573,0,3.067-.555,3.478-2.24C54.059,39.847,49.763,40.476,47.6,40.476Zm1.682,4c-1.036,0-2.093-.061-3.127,0-2.554.153-1.89,3.22-1.89,4.984,0,.933.256,3.07-1.2,3.011s-1.338-1.712-1.338-2.709V46.389c0-1.117-.46-1.863-1.677-1.913-.907-.037-1.823,0-2.73,0-.844,0-2.116.234-2.869-.257a1.459,1.459,0,0,1,.482-2.695,8.015,8.015,0,0,1,.93,0h3.493c.956,0,2.081-.214,2.336-1.315a12.648,12.648,0,0,0,.035-2.71,19.7,19.7,0,0,1,.016-2.706,1.227,1.227,0,0,1,2.425-.229,3.645,3.645,0,0,1,.093,1.2v3.845c0,1.133.473,1.869,1.707,1.913,1.138.04,2.285,0,3.424,0,1.33,0,3.039-.063,2.84,1.875C51.9,44.768,50.359,44.476,49.284,44.476Z" fill="#262626"/><path d="M5.46,7.669a1.453,1.453,0,0,0-.533.057,1.41,1.41,0,0,0-.491.218l-.1.086a.185.185,0,0,0-.061.165v1c0,.1.214.132.264.138a1.475,1.475,0,0,0,.533-.057,1.429,1.429,0,0,0,.491-.218l.1-.086a.185.185,0,0,0,.061-.165v-1C5.724,7.709,5.51,7.675,5.46,7.669Z" fill="#262626"/><path d="M4.276,13.194v16c0,.222,1.448.021,1.448-.388v-16C5.724,12.585,4.276,12.785,4.276,13.194Z" fill="#262626"/></svg>
