<svg height="501pt" viewBox="-23 0 501 501.34671" width="501pt" xmlns="http://www.w3.org/2000/svg"><path d="m225.265625 485.1875c-1.886719 0-3.550781-1.246094-4.085937-3.054688-.535157-1.808593.183593-3.753906 1.765624-4.785156l68.324219-44.375-86.023437 49.664063c-2.007813 1.234375-4.636719.609375-5.871094-1.398438-1.234375-2.007812-.609375-4.636719 1.398438-5.871093l104.441406-68.105469-123.980469 71.585937c-2.015625 1.164063-4.589844.496094-5.789063-1.496094-1.199218-1.996093-.578124-4.582031 1.394532-5.816406l61.539062-38.511718-72.285156 41.722656c-2.003906 1.140625-4.550781.480468-5.75-1.484375-1.203125-1.96875-.625-4.535157 1.304688-5.796875l131.097656-84.1875-146.3125 84.476562c-2.007813 1.148438-4.566406.488282-5.765625-1.492187s-.601563-4.554688 1.34375-5.800781l138.171875-87.894532-151.472656 87.398438c-2.019532 1.214844-4.644532.5625-5.859376-1.453125-1.214843-2.019531-.5625-4.644531 1.457032-5.859375l124.917968-78.335938-134.605468 77.710938c-2.011719 1.078125-4.515625.378906-5.679688-1.582032-1.164062-1.964843-.578125-4.496093 1.328125-5.746093l29.867188-18.21875-34.269531 19.761719c-2.011719 1.089843-4.527344.402343-5.699219-1.5625-1.171875-1.964844-.585938-4.503907 1.328125-5.757813l72.535156-44.492187-77.902344 44.988281c-2.027344 1.199219-4.644531.527343-5.84375-1.503907-1.199218-2.027343-.527344-4.644531 1.5-5.84375l11.828125-7.175781-14.8125 8.546875c-2.003906 1.046875-4.476562.34375-5.632812-1.59375-1.160157-1.941406-.605469-4.449218 1.261719-5.71875l117.257812-72.53125-122.804688 70.894532c-2.027343 1.199218-4.644531.527343-5.84375-1.503907-1.199218-2.027343-.527343-4.644531 1.5-5.84375l.214844-.121093-2.066406 1.179687c-2.011719 1.074219-4.515625.375-5.679688-1.585937-1.164062-1.960938-.578124-4.492188 1.328126-5.746094l77.527343-47.402344-81.007812 46.773438c-2.015625 1.160156-4.589844.496093-5.789063-1.5-1.199218-1.992188-.578125-4.582032 1.394532-5.8125l160.289062-100.046876-165.476562 95.503907c-2.007813 1.074219-4.503907.382812-5.671876-1.570313-1.167968-1.953125-.601562-4.480468 1.292969-5.742187l147.363281-91.503907-151.367187 87.390626c-2.015625 1.136718-4.566406.457031-5.753906-1.527344s-.574219-4.554688 1.378906-5.792969l132.597656-81.921875-135.515625 78.242188c-2.015625 1.164062-4.589844.496093-5.789062-1.496094-1.199219-1.996094-.578125-4.582032 1.394531-5.816406l161.03125-100.367188-163.753906 94.566406c-2.011719 1.105469-4.539063.425782-5.71875-1.542968-1.179688-1.96875-.589844-4.519532 1.332031-5.769532l149.707031-93.015625-151.105469 87.230469c-2.03125 1.199219-4.648437.53125-5.851562-1.5-1.199219-2.027344-.53125-4.648438 1.5-5.847656l45.882812-27.863282-45.464843 26.25c-2.023438 1.152344-4.597657.46875-5.785157-1.53125-1.1875-2.003906-.550781-4.585937 1.433594-5.808593l44.0625-26.769531-42.921875 24.746093c-2.015625 1.136719-4.566406.460938-5.753906-1.527343-1.1875-1.984376-.578125-4.554688 1.378906-5.792969l116.460938-71.800781-115.472657 66.65625c-2.007812 1.058593-4.492187.359374-5.65625-1.59375-1.160156-1.949219-.589843-4.46875 1.296876-5.730469l102.644531-63.144531-101.511719 58.5625c-2.015625 1.136718-4.566406.460937-5.753906-1.527344-1.1875-1.984375-.578125-4.554688 1.378906-5.792969l115.410156-71.425781-112.894531 65.1875c-2.015625 1.113281-4.554687.429687-5.730469-1.550782-1.179687-1.980468-.570312-4.539062 1.371094-5.777343l58.238281-35.628907-55.152343 31.863282c-2.011719 1.078125-4.511719.378906-5.679688-1.582032-1.164062-1.964843-.578125-4.496093 1.328125-5.746093l51.132813-31.277344-48 27.675781c-2.015626 1.226563-4.640626.585938-5.867188-1.429687-1.222656-2.015625-.585938-4.640625 1.429688-5.867188l161.007812-102.792969-156.230469 90.199219c-2.011719 1.222657-4.636719.578125-5.859375-1.433593-1.222656-2.015626-.582031-4.640626 1.433594-5.863282l141.703125-90.453125-135.058594 77.976563c-2.011719 1.164062-4.589843.496094-5.785156-1.5-1.199219-1.992188-.578125-4.578125 1.390625-5.8125l70.164062-43.640625-63.558593 36.695312c-2.023438 1.207031-4.640625.542969-5.847657-1.480469-1.207031-2.023437-.542968-4.644531 1.480469-5.851562l24.113281-14.855469-16.273437 9.386719c-2.015625 1.160156-4.589844.496094-5.785156-1.5-1.199219-1.992188-.582031-4.578125 1.390625-5.8125l47.0625-29.398438-38.792969 22.359376c-2.015625 1.222656-4.640625.578124-5.863281-1.433594-1.222656-2.015625-.578125-4.640625 1.433594-5.863282l63.488281-40.371093-51.300781 29.59375c-1.996094 1.113281-4.511719.460937-5.714844-1.484375-1.199219-1.941406-.65625-4.488282 1.234375-5.769532l78.90625-52.054687-62.796875 36.265625c-2.007813 1.179688-4.589844.527344-5.800782-1.460938-1.210937-1.988281-.601562-4.582031 1.363282-5.824218l16.0625-10.316406c-1.960938.535156-4.027344-.386719-4.9375-2.203126-.914063-1.8125-.417969-4.019531 1.183594-5.273437l47.222656-37.058594c-1.597656.085938-3.105469-.742187-3.890625-2.132812-1.175781-2.039063-.476563-4.644531 1.558593-5.820313l47.414063-27.375c1.9375-1.117187 4.40625-.546875 5.660156 1.304688 1.253907 1.851562.863281 4.359375-.890625 5.742187l-44.570312 34.988281 99.933594-57.703124c2.023437-1.230469 4.65625-.589844 5.886718 1.433593 1.230469 2.023438.589844 4.65625-1.433594 5.886719l-13.710937 8.765625 31.359375-18.109375c1.996094-1.15625 4.554688-.515625 5.769531 1.445312 1.214844 1.964844.648438 4.539063-1.28125 5.808594l-78.796875 51.984375 99.746094-57.574219c2-1.082031 4.5-.40625 5.679688 1.539063 1.183593 1.945313.628906 4.476563-1.257813 5.75l-63.582031 40.445313 78.804687-45.496094c2.003907-1.089844 4.511719-.40625 5.6875 1.550781 1.175781 1.953125.605469 4.488281-1.292969 5.753906l-46.933593 29.335938 56.824219-32.800781c2.015624-1.136719 4.566406-.460938 5.753906 1.527343 1.1875 1.984375.578125 4.554688-1.378906 5.792969l-24.027344 14.761719 32.359375-18.679688c2.011719-1.160156 4.589843-.496093 5.785156 1.5 1.199219 1.992188.578125 4.578125-1.390625 5.8125l-70.222656 43.792969 79.480468-45.875c2.003907-1.117188 4.535157-.453125 5.726563 1.507812 1.191406 1.964844.617187 4.519532-1.296875 5.78125l-141.65625 90.453126 155.375-89.796876c2.015625-1.226562 4.640625-.585937 5.867188 1.429688 1.226562 2.015625.585937 4.640625-1.429688 5.867188l-161.03125 102.808593 173.890625-100.394531c2.019531-1.113281 4.554687-.425781 5.734375 1.554688 1.175781 1.976562.570312 4.535156-1.371094 5.777343l-51.398437 31.445313 55.886719-32.273438c1.308593-.78125 2.9375-.800781 4.265624-.054687 1.332032.746093 2.164063 2.144531 2.179688 3.667969.019531 1.527343-.773438 2.945312-2.085938 3.722656l-58.222656 35.613281 62.882813-36.304687c2.007812-1.070313 4.5-.378907 5.671875 1.574218 1.167968 1.953125.597656 4.476563-1.296875 5.742188l-115.285157 71.355468 121.660157-70.246093c2.011719-1.09375 4.527343-.402344 5.699219 1.5625 1.171874 1.964843.585937 4.503906-1.328126 5.757812l-102.691406 63.199219 107.027344-61.78125c2.015625-1.136719 4.566406-.460938 5.753906 1.527344 1.1875 1.984375.574219 4.554687-1.378906 5.792968l-116.523438 71.902344 121.34375-70.058594c2.019532-1.097656 4.542969-.402343 5.710938 1.574219 1.171875 1.976563.566406 4.523438-1.367188 5.761719l-43.988281 26.71875 46.082031-26.582031c2.015626-1.09375 4.539063-.398438 5.707032 1.578125 1.171875 1.976562.566406 4.523437-1.363282 5.761718l-45.722656 27.769532 47.171875-27.230469c2.011719-1.109375 4.535157-.425781 5.71875 1.542969 1.179688 1.96875.589844 4.515625-1.332031 5.769531l-149.734375 92.996094 153.8125-88.796875c1.308594-.785156 2.933594-.8125 4.269531-.074219 1.332032.742187 2.171875 2.136719 2.195313 3.660156.027343 1.527344-.761719 2.949219-2.070313 3.734375l-161.015625 100.34375 164.503907-94.976562c2.027343-1.207032 4.648437-.546875 5.855468 1.476562 1.207032 2.023438.546875 4.644532-1.476562 5.855469l-132.703125 81.96875 134.25-77.5c2.019531-1.210937 4.640625-.554687 5.851562 1.46875 1.210938 2.023437.554688 4.644531-1.46875 5.855469l-147.371093 91.492187 148.6875-85.835937c2.003906-1.085938 4.511718-.402344 5.6875 1.550781 1.175781 1.957031.605468 4.492187-1.292969 5.753906l-160.289063 100.085938 161.433594-93.199219c2.015625-1.117188 4.550781-.429688 5.730469 1.550781 1.175781 1.980469.570312 4.539063-1.371094 5.777344l-77.40625 47.320313 75.945313-43.855469c2.015624-1.058594 4.507812-.355469 5.664062 1.605469 1.160156 1.960937.574219 4.484374-1.328125 5.734374l-1.605469.972657c2.050782-.878907 4.429688-.035157 5.464844 1.9375 1.035156 1.976562.375 4.414062-1.511719 5.597656l-117.214843 72.535156 115.617187-66.75c2.019531-1.097656 4.542969-.402343 5.710937 1.574219 1.167969 1.976562.566407 4.523438-1.367187 5.765625l-11.734375 7.117187 8.476562-4.890624c2.011719-1.089844 4.523438-.402344 5.695313 1.5625 1.171875 1.964843.585937 4.507812-1.328125 5.757812l-72.464844 44.476562 69.4375-40.105468c2.007813-1.046875 4.484375-.339844 5.640625 1.609375 1.152344 1.949219.582031 4.460937-1.296875 5.71875l-30.117187 18.375 26.683593-15.363281c2.011719-1.125 4.550782-.453126 5.742188 1.519531 1.1875 1.972656.597656 4.535156-1.335938 5.785156l-124.871093 78.261719 120.160156-69.367188c2.007813-1.148437 4.566406-.488281 5.765625 1.492188 1.199219 1.980468.601562 4.554687-1.347656 5.800781l-138.144532 87.945313 131.566407-75.945313c2.011719-1.226563 4.640625-.59375 5.867187 1.421875 1.226563 2.011719.589844 4.636719-1.421875 5.863281l-131.097656 84.167969 122.957031-71c2.019532-1.214844 4.644532-.5625 5.859375 1.457031 1.214844 2.019531.5625 4.640625-1.457031 5.855469l-61.558594 38.539062 53.019532-30.628906c1.992187-1.097656 4.5-.433594 5.691406 1.503906 1.191406 1.941407.652344 4.476563-1.230469 5.757813l-104.371094 68.089844 91.308594-52.738281c2-1.164063 4.566406-.515626 5.78125 1.457031 1.210937 1.976562.625 4.554687-1.320313 5.816406l-68.375 44.371094 54.21875-31.28125c2-1.117188 4.523438-.457031 5.71875 1.496093 1.195313 1.949219.636719 4.5-1.265624 5.773438l-28.765626 18.578125 11.71875-6.757813c1.949219-1.121093 4.433594-.53125 5.675782 1.34375 1.242187 1.875.816406 4.394532-.976563 5.753907l-52.90625 39.875 13.261719-7.679688c2.039062-1.15625 4.632812-.453125 5.804688 1.578125 1.171874 2.03125.484374 4.625-1.539063 5.8125l-73.511719 42.496094c-1.953125 1.117188-4.4375.53125-5.679687-1.347656-1.242188-1.875-.816407-4.390625.976562-5.75l52.90625-39.902344-99.679687 57.554688c-2.007813 1.230468-4.636719.597656-5.863282-1.410157-1.230468-2.011719-.597656-4.636719 1.410157-5.867187l28.707031-18.535156-47.257812 27.308593c-.652344.363281-1.386719.550781-2.132813.542969zm0 0" fill="#66d4f1"/><path d="m224.480469 288.28125c-1.679688.003906-3.203125-.980469-3.890625-2.511719-.691406-1.527343-.421875-3.320312.691406-4.578125l10.238281-11.632812-19.53125 11.28125c-1.820312 1.050781-4.128906.617187-5.449219-1.011719-1.320312-1.632813-1.257812-3.980469.148438-5.539063l15.359375-17.066406-16.605469 9.648438c-1.765625 1.007812-3.992187.628906-5.328125-.902344-1.332031-1.53125-1.402343-3.792969-.167969-5.402344l9.175782-11.757812c-1.90625.59375-3.972656-.214844-4.96875-1.945313-1.171875-2.039062-.476563-4.640625 1.554687-5.820312l17.875-10.316407c1.765625-1.015624 4.003907-.640624 5.34375.890626 1.339844 1.535156 1.40625 3.800781.160157 5.414062l-8.976563 11.539062 21.230469-12.246093c1.816406-1.035157 4.117187-.605469 5.433594 1.019531 1.3125 1.625 1.257812 3.964844-.132813 5.523438l-15.402344 17.066406 18.679688-10.808594c1.8125-1.050781 4.113281-.628906 5.441406.988281 1.324219 1.621094 1.277344 3.960938-.109375 5.53125l-10.289062 11.613281 4.179687-2.417968c1.324219-.839844 3-.886719 4.367187-.125 1.371094.765625 2.210938 2.21875 2.1875 3.785156-.019531 1.566406-.898437 2.996094-2.289062 3.722656l-26.820312 15.480469c-.636719.375-1.363282.578125-2.105469.578125zm0 0" fill="#f4f6f8"/><g fill="#262626"><path d="m425.253906 149.753906c.648438-.628906.984375-1.511718.910156-2.414062-.074218-.898438-.550781-1.71875-1.296874-2.230469-.835938-.53125-1.808594-.800781-2.796876-.777344-19.617187-31.253906-46.398437-57.386719-78.125-76.234375l.546876-.949218c1.65625-2.855469-2.5-3.316407-6.296876-2.492188-86.265624-48.492188-201.507812-43.167969-279.945312 43.785156-37.324219 40.449219-57.734375 93.660156-57.035156 148.695313-1.46875 1.648437-1.371094 4.164062.21875 5.691406 1.566406 37.480469 12.089844 74.039063 30.695312 106.613281l-1.117187.648438c-2.160157 1.238281-1.390625 2.5625.734375 2.757812.792968.070313 1.59375.046875 2.378906-.066406 12.929688 22.042969 29.304688 41.871094 48.511719 58.726562-.347657.226563-.648438.515626-.894531.851563l-39.167969 66.902344c-1.203125 2.046875 10.316406 1.289062 12.238281-1.996094l35.070312-59.898437c6.707032 5.449218 13.722657 10.503906 21.007813 15.148437-.648437 1.132813.914063 1.382813 2.460937 1.375 45.015626 27.664063 98.5625 38.003906 150.644532 29.089844 36.894531-5.972657 71.710937-21.074219 101.285156-43.929688l35.660156 60.902344c2.125 3.640625 13.882813-.710937 12.355469-3.3125-12.753906-21.800781-25.515625-43.597656-38.28125-65.390625 19.851563-17.136719 36.648437-37.519531 49.671875-60.28125 1.066406-.792969 1.632812-1.703125 1.316406-2.464844 18.738282-33.539062 29.054688-71.125 30.070313-109.535156-.839844-38.429688-11.445313-76.015625-30.820313-109.214844zm-83.867187 293.808594c-3.226563-5.578125-6.449219-11.164062-9.667969-16.75-2.261719-3.90625-14.242188.171875-11.433594 5.042969 3.492188 6.035156 6.976563 12.070312 10.453125 18.101562-29.621093 16.480469-62.804687 25.507813-96.691406 26.296875v-22.28125c0-3.191406-12.359375-1.066406-12.359375 3.3125v18.945313c-34.292969-1.140625-67.789062-10.648438-97.566406-27.699219l11.714844-20.285156c1.125-1.953125-4.386719-1.289063-4.949219-1.195313-2.195313.367188-5.972657 1.222657-7.253907 3.371094l-7.679687 13.261719c-29.863281-18.792969-54.875-44.359375-73.003906-74.632813l19.628906-11.347656c2.15625-1.238281 1.390625-2.5625-.742187-2.757813-3.082032-.09375-6.121094.722657-8.738282 2.347657l-12.726562 7.335937c-17.488282-30.664062-27.085938-65.195312-27.9375-100.488281h18.714844c7.234374 0 9.328124-9.554687.957031-9.554687h-19.628907c.796876-34.527344 9.867188-68.355469 26.453126-98.648438l14.089843 8.132812c3.199219 1.851563 14.652344-2.953124 9.925781-5.683593l-19.160156-11.023438c17.660156-29.171875 41.828125-53.863281 70.613282-72.140625l9.625 16.675782c2.21875 3.847656 14.21875-.199219 11.4375-5.011719l-10.394532-18.039063c29.605469-16.488281 62.773438-25.542968 96.648438-26.382812v22.289062c0 1.796875 12.355468.117188 12.355468-3.3125v-18.9375c34.257813 1.054688 67.734376 10.492188 97.496094 27.488282l-11.242187 19.472656c-2.644531 4.574218 9.585937 3.003906 11.402343-.144532l8.242188-14.277343c29.238281 18.636719 53.691406 43.878906 71.390625 73.695312l-17.492187 10.09375c-2.195313 1.269531-3.117188 4.113281-.855469 5.71875 2.898437 1.277344 6.253906.925781 8.824219-.921875 4.507812-2.613281 9.015624-5.21875 13.535156-7.816406 16.941406 30.910156 26.496094 65.324219 27.921875 100.546875h-16.574219c-2.3125 0-6.988281.894531-8.214844 3.164063-1.230468 2.273437 1.089844 2.84375 3.128906 2.84375h21.726563c-1.253906 34.992187-10.507813 69.226562-27.050781 100.085937l-13.457032-7.765625c-3.140624-1.816406-14.589843 2.929688-9.941406 5.617188l18.550782 10.707031c-17.378907 29.320312-41.375 54.167969-70.074219 72.550781zm0 0"/><path d="m305.273438 254.953125h-46.027344c-1.597656-13.019531-12.105469-23.132813-25.175782-24.238281v-101.007813c0-1.65625-12.355468 0-12.355468 3.3125v98.046875c-14.691406 2.027344-25.625 14.59375-25.601563 29.421875.105469 37.496094 55.816407 35.738281 62.839844 3.285157h45.226563c6.90625 0 9.5-8.820313 1.09375-8.820313zm-77.925782 25.742187c-10.949218-1.796874-18.914062-11.363281-18.699218-22.457031-.375-5.707031 1.875-11.273437 6.105468-15.121093 4.230469-3.847657 9.984375-5.558594 15.628906-4.644532 9.871094 2.65625 16.757813 11.566406 16.839844 21.785156-.703125 10.753907-7.699218 21.71875-19.875 20.4375zm0 0"/><path d="m20.355469 97.511719c32.109375-41.628907 75.375-73.296875 124.765625-91.316407 8.0625-2.960937.792968-7.808593-5.035156-5.664062-52.003907 19.074219-97.523438 52.507812-131.277344 96.425781-3.636719 4.539063 8.867187 3.992188 11.546875.554688zm0 0"/><path d="m435.484375 99.621094c2.558594 3.242187 14.4375-1 11.484375-4.789063-33.132812-43.027343-77.800781-75.769531-128.808594-94.414062-3.644531-1.339844-14.867187 4.054687-9.867187 5.890625 50.371093 18.441406 94.476562 50.800781 127.191406 93.3125zm0 0"/></g></svg>