<?xml version="1.0" encoding="UTF-8"?>
<svg xmlns="http://www.w3.org/2000/svg" id="icons" viewBox="0 0 60 60" width="512" height="512"><path d="M11.662,55.47a.5.5,0,0,1-.281-.913l1.914-1.3L9.575,55.4a.5.5,0,0,1-.556-.828l5.744-4.455L5.611,55.4a.5.5,0,0,1-.532-.845l2.18-1.489L3.74,55.1a.5.5,0,0,1-.541-.84l3.7-2.647L2.412,54.206a.5.5,0,0,1-.56-.824l4.433-3.511L1.477,52.646a.5.5,0,0,1-.562-.823L3.45,49.8,1.28,51.055a.5.5,0,0,1-.58-.808l1.445-1.272-.865.5a.5.5,0,0,1-.634-.753l.71-.851-.076.044a.5.5,0,0,1-.722-.6l.2-.581a.473.473,0,0,1-.16-.169.5.5,0,0,1,.182-.682l.5-.289A.5.5,0,0,1,2,46.192l-.065.188L3.3,45.6a.5.5,0,0,1,.634.753l-.71.85L6,45.6a.5.5,0,0,1,.58.807L5.136,47.674l3.6-2.081a.5.5,0,0,1,.562.823L6.765,48.439,11.7,45.591a.5.5,0,0,1,.561.824L7.827,49.926l7.512-4.337a.5.5,0,0,1,.67.162.5.5,0,0,1-.129.678l-3.7,2.644,6.038-3.486a.5.5,0,0,1,.532.846l-2.186,1.492,4.052-2.339a.5.5,0,0,1,.557.828L15.427,50.87l9.156-5.286a.5.5,0,0,1,.531.846l-1.912,1.3,3.721-2.147a.5.5,0,0,1,.556.827l-5.761,4.474,9.186-5.3a.5.5,0,0,1,.544.837l-4.6,3.343,5.358-3.094a.5.5,0,0,1,.566.82l-4.834,3.943L33.019,48.5a.5.5,0,0,1,.558.826l-2.166,1.7,2.173-1.253a.5.5,0,0,1,.6.793l-2,1.93,2.083-1.2a.5.5,0,0,1,.614.775l-.726.771.636-.367a.5.5,0,0,1,.744.509l-.16,1.039.083-.048a.5.5,0,1,1,.5.865l-.986.569a.5.5,0,0,1-.744-.508l.16-1.04L31.7,55.4a.5.5,0,0,1-.614-.775l.726-.77L29.133,55.4a.5.5,0,0,1-.6-.793l2-1.929L25.822,55.4a.5.5,0,0,1-.558-.826l2.166-1.7L23.053,55.4a.5.5,0,0,1-.567-.82l4.834-3.941L19.072,55.4a.5.5,0,0,1-.544-.837l4.6-3.343L15.89,55.4a.5.5,0,0,1-.557-.827L21.094,50.1l-9.182,5.3A.5.5,0,0,1,11.662,55.47Z" fill="#d8d8d8"/><path d="M4.306,47.538a.5.5,0,0,1-.25-.933l1.693-.978a.5.5,0,1,1,.5.865l-1.693.979A.491.491,0,0,1,4.306,47.538Z" fill="#994040"/><path d="M1.03,49.471A.5.5,0,0,1,.689,48.6l1.736-1.613-1.145.66a.5.5,0,0,1-.609-.78l2.472-2.55L1.28,45.4a.5.5,0,0,1-.6-.792l2.035-1.965-1.438.83a.5.5,0,0,1-.588-.8l1.621-1.489-1.033.595a.5.5,0,0,1-.574-.812l.82-.7L1.28,40.4a.5.5,0,0,1-.6-.791l2.09-2.035-1.492.862a.5.5,0,0,1-.57-.818l.5-.411a.509.509,0,0,1-.57-.162.5.5,0,0,1,.038-.656l2.408-2.46L1.28,34.97a.5.5,0,0,1-.6-.789l2.178-2.148-1.577.91a.5.5,0,0,1-.586-.8L2.2,30.773l-.92.531a.5.5,0,0,1-.6-.784l2.342-2.369-1.737,1a.5.5,0,0,1-.654-.138A.5.5,0,0,1,.7,28.35L2.13,27.056l-.85.49a.5.5,0,0,1-.575-.812l.881-.756-.306.175a.5.5,0,0,1-.6-.79l2.1-2.051-1.5.867A.5.5,0,0,1,.673,23.4L3.08,20.934l-1.8,1.039A.5.5,0,0,1,.7,21.162l.983-.85-.406.233a.5.5,0,0,1-.569-.817l.46-.382a.507.507,0,0,1-.539-.177.5.5,0,0,1,.048-.66l2.132-2.091L1.28,17.3A.5.5,0,0,1,.7,16.493l1.12-.981-.541.311a.5.5,0,0,1-.6-.788L2.85,12.894l-1.57.9a.5.5,0,0,1-.567-.82l.4-.329a.5.5,0,0,1-.407-.875l.667-.563-.094.054A.5.5,0,0,1,.7,10.457L1.8,9.5l-.518.3A.5.5,0,0,1,.691,9l1.64-1.514L1.28,8.089a.5.5,0,0,1-.569-.818l.467-.387a.5.5,0,0,1-.5-.835L2.8,3.969l-1.47.847a.5.5,0,0,1-.606-.783L1.8,2.943a.5.5,0,0,1-.1-.91L4.073.661a.5.5,0,0,1,.607.783l-.653.663L5.721,1.13a.5.5,0,0,1,.6.79L4.2,4,5.722,3.12a.5.5,0,0,1,.569.818l-.467.387a.5.5,0,0,1,.488.845L4.67,6.685l1.054-.608a.5.5,0,0,1,.579.809L5.21,7.842l.515-.3a.5.5,0,0,1,.573.814l-.669.566.1-.056a.5.5,0,0,1,.567.819l-.4.33a.5.5,0,0,1,.436.848L4.157,13.008,5.728,12.1a.5.5,0,0,1,.579.808l-1.122.984.544-.314a.5.5,0,0,1,.6.79L4.2,16.461l1.532-.885a.5.5,0,0,1,.57.818l-.459.38a.5.5,0,0,1,.468.858l-.982.849.405-.233a.5.5,0,0,1,.608.782L3.93,21.5l1.8-1.041a.5.5,0,0,1,.6.79L4.231,23.3l1.5-.867a.5.5,0,0,1,.577.811L5.43,24l.305-.176a.5.5,0,0,1,.585.8L4.884,25.918l.852-.491a.5.5,0,0,1,.606.784L4,28.579l1.737-1a.5.5,0,0,1,.586.8L4.818,29.745l.92-.53a.5.5,0,0,1,.6.789L4.161,32.151,5.74,31.24a.5.5,0,0,1,.608.782l-2.41,2.461,1.8-1.04a.5.5,0,0,1,.571.818l-.5.41a.5.5,0,0,1,.524.827l-2.09,2.034,1.492-.861a.5.5,0,0,1,.575.812l-.823.7.249-.144a.5.5,0,0,1,.588.8l-1.62,1.489,1.033-.6a.5.5,0,0,1,.6.792L4.308,42.494l1.439-.831a.5.5,0,0,1,.609.78L3.884,44.994l1.864-1.076a.5.5,0,0,1,.591.8L2.334,48.441a.5.5,0,0,1-.246.5L1.28,49.4A.49.49,0,0,1,1.03,49.471Z" fill="#994040"/><path d="M7.285,47.5a.5.5,0,0,1-.268-.922l14.191-9.033L5.28,46.737a.5.5,0,0,1-.513-.857l8.619-5.34L5.28,45.219a.5.5,0,0,1-.517-.856l15.026-9.5L5.28,43.235a.5.5,0,0,1-.516-.855l13.907-8.759L5.28,41.353a.5.5,0,0,1-.515-.857l12.99-8.152L5.28,39.545a.5.5,0,0,1-.513-.857l9.353-5.807-8.84,5.1a.5.5,0,0,1-.517-.855l14.849-9.386L5.28,36.018a.5.5,0,0,1-.511-.859l5.5-3.387L5.28,34.654a.5.5,0,0,1-.517-.854L20.7,23.676,5.28,32.58a.5.5,0,0,1-.514-.857L15.553,25,5.28,30.931a.5.5,0,0,1-.517-.856l15.229-9.64L5.28,28.928a.5.5,0,0,1-.513-.858l8.758-5.428L5.28,27.4a.5.5,0,0,1-.517-.855L19.58,17.182,5.28,25.438a.5.5,0,0,1-.519-.855L21.684,13.775,5.28,23.246a.5.5,0,0,1-.514-.857L14,16.642,5.28,21.674a.5.5,0,0,1-.516-.856l10.715-6.767L5.28,19.938a.5.5,0,0,1-.523-.851L17.731,10.62,5.28,17.809a.5.5,0,0,1-.526-.85L15.771,9.67,5.28,15.727a.5.5,0,0,1-.528-.848l8.769-5.87L5.28,13.767a.5.5,0,0,1-.525-.85L9.606,9.709l-4.326,2.5a.5.5,0,0,1-.524-.851L6.3,10.346l-1.018.587a.5.5,0,0,1-.545-.836l5.457-3.99L5.28,8.943a.5.5,0,0,1-.545-.836L7.453,6.122,5.28,7.376a.5.5,0,0,1-.553-.83L6.316,5.331l-1.036.6a.5.5,0,0,1-.608-.782L6.5,3.267,5.28,3.972a.5.5,0,0,1-.74-.531l.329-1.649A.5.5,0,0,1,4.78.885L5.28.6a.5.5,0,0,1,.741.531L5.736,2.554,9.126.6a.5.5,0,0,1,.608.781L7.9,3.26,12.516.6a.5.5,0,0,1,.553.83L11.481,2.641,15.021.6a.5.5,0,0,1,.545.836L12.848,3.42,17.736.6a.5.5,0,0,1,.545.836l-5.459,3.99L21.183.6a.5.5,0,0,1,.524.85L20.163,2.459,23.389.6a.5.5,0,0,1,.525.849L19.066,4.652,26.091.6a.5.5,0,0,1,.528.847L17.851,7.314,29.485.6a.5.5,0,0,1,.527.849L18.994,8.736,33.092.6a.5.5,0,0,1,.523.851L20.64,9.917,36.781.6a.5.5,0,0,1,.517.855L26.574,8.226,39.511.758a.5.5,0,0,1,.514.857l-9.2,5.731,9.711-5.607a.5.5,0,0,1,.52.855L24.124,13.4l16.6-9.581a.5.5,0,0,1,.517.856L26.414,14.046l14.307-8.26a.5.5,0,0,1,.513.858l-8.758,5.428,8.245-4.759a.5.5,0,0,1,.517.855L26.02,17.8l14.7-8.489a.5.5,0,0,1,.514.858L30.439,16.9l10.283-5.935a.5.5,0,0,1,.517.854L25.3,21.942l15.424-8.9a.5.5,0,0,1,.511.858l-5.5,3.387L40.722,14.4a.5.5,0,0,1,.517.856L26.4,24.636l14.322-8.269a.5.5,0,0,1,.513.858l-9.38,5.823,8.868-5.119a.5.5,0,0,1,.515.856L28.261,26.93l12.462-7.195a.5.5,0,0,1,.516.856L27.332,29.35l13.391-7.732a.5.5,0,0,1,.517.856L26.2,31.984,40.723,23.6a.5.5,0,0,1,.513.857L32.625,29.8l8.1-4.676a.5.5,0,0,1,.518.855l-14.2,9.039,13.682-7.9a.5.5,0,0,1,.516.856l-8.605,5.414,8.089-4.67a.5.5,0,0,1,.515.856l-4.744,2.97L40.724,30.1a.5.5,0,0,1,.513.857l-.548.341a.5.5,0,0,1,.444.887L30.914,39.027l7.851-4.532a.5.5,0,0,1,.53.847L33.037,39.58,37.2,37.175a.5.5,0,0,1,.541.84l-4.7,3.357,2.584-1.491a.5.5,0,0,1,.543.838l-1.562,1.13a.5.5,0,0,1,.411.874l-1.575,1.33a.5.5,0,0,1,.357.808l-1.118,1.417,0,.007a.5.5,0,0,1-.183.683l-.754.435a.5.5,0,0,1-.643-.742l.295-.373-1.936,1.117a.5.5,0,0,1-.572-.814l1.2-1.016-3.177,1.833a.5.5,0,0,1-.543-.838l1.322-.956-3.113,1.8a.5.5,0,0,1-.541-.84l4.7-3.359-7.28,4.2a.5.5,0,0,1-.53-.847L27.2,42.329l-8.814,5.089a.5.5,0,0,1-.528-.848l10.22-6.844-13.33,7.7a.5.5,0,0,1-.514-.858l.312-.193-1.826,1.054a.5.5,0,0,1-.516-.857L16.948,43.6l-6.636,3.831a.5.5,0,0,1-.516-.856l8.618-5.422L7.535,47.43A.494.494,0,0,1,7.285,47.5Z" fill="#cc5050"/><path d="M16.623,22.47a.5.5,0,0,1-.286-.91l9.343-6.52L12.928,22.4a.5.5,0,0,1-.534-.843L22.46,14.6l-11.884,6.86a.5.5,0,0,1-.535-.844l8.865-6.155-8.626,4.98a.5.5,0,0,1-.525-.85l2.638-1.741L10.28,18.066a.5.5,0,0,1-.536-.842l4.236-2.959L10.28,16.4a.5.5,0,0,1-.554-.829l4.33-3.332-3.776,2.18a.5.5,0,0,1-.561-.824l2.217-1.762-1.656.955a.5.5,0,0,1-.58-.809L10.819,11l-.539.311a.5.5,0,0,1-.663-.715l.758-1.108a.5.5,0,0,1-.49-.247.5.5,0,0,1,.182-.682L11.726,7.6a.5.5,0,0,1,.663.714l-.7,1.03L14.709,7.6a.5.5,0,0,1,.58.808l-1.12.983,3.1-1.791a.5.5,0,0,1,.562.824l-2.216,1.761L20.1,7.6a.5.5,0,0,1,.554.829l-4.33,3.331L23.528,7.6a.5.5,0,0,1,.536.842L19.824,11.4l6.591-3.8a.5.5,0,0,1,.525.849l-2.632,1.738L28.789,7.6a.5.5,0,0,1,.535.843L20.459,14.6l12.124-7a.5.5,0,0,1,.534.843L23.054,15.4,35.285,8.34a.5.5,0,0,1,.536.843L26.478,15.7l9.242-5.336a.5.5,0,0,1,.54.84l-7.094,5.044,6.554-3.783a.5.5,0,0,1,.536.843l-3.417,2.383,2.881-1.663a.5.5,0,0,1,.566.821l-4.392,3.585,3.826-2.209a.5.5,0,0,1,.567.818L34.5,18.514l1.216-.7a.5.5,0,0,1,.6.788l-1,.986.4-.23a.5.5,0,0,1,.5.866L32.444,22.4a.5.5,0,0,1-.6-.788l1-.986L29.769,22.4a.5.5,0,0,1-.568-.818l1.782-1.468L27.023,22.4a.5.5,0,0,1-.566-.82L30.851,18,23.219,22.4a.5.5,0,0,1-.536-.842L26.1,19.177,20.511,22.4a.5.5,0,0,1-.54-.839l7.091-5.043L16.873,22.4A.493.493,0,0,1,16.623,22.47Z" fill="#fff"/><path d="M45.943,59.438a.5.5,0,0,1-.288-.909l2.809-1.978-4.777,2.758a.5.5,0,0,1-.526-.85l1.1-.725-2.231,1.287a.5.5,0,0,1-.524-.85l2.156-1.413-3.146,1.816a.5.5,0,0,1-.532-.845l7.544-5.136-8.9,5.136a.5.5,0,0,1-.519-.855l1.213-.772-1.741,1a.5.5,0,0,1-.521-.852l4.846-3.135-5.461,3.152a.5.5,0,0,1-.526-.849l8.6-5.692-9.33,5.386a.5.5,0,0,1-.515-.856l.149-.094-.318.184a.5.5,0,0,1-.529-.848l11.09-7.473-11.692,6.75a.5.5,0,0,1-.518-.854l3.515-2.232-3.577,2.065a.5.5,0,0,1-.517-.856l2.093-1.321-2.035,1.175a.5.5,0,0,1-.525-.851l8.712-5.737L31.8,49.2a.5.5,0,0,1-.523-.851l6.449-4.191-6.242,3.6a.5.5,0,0,1-.521-.853l4.6-2.968L31.312,46.4a.5.5,0,0,1-.525-.851l6.165-4.061L31.3,44.745a.5.5,0,0,1-.525-.85l4.325-2.84-3.629,2.094a.5.5,0,0,1-.536-.843L37.53,37.73l-5.5,3.174a.5.5,0,0,1-.539-.841l4.555-3.228-2.943,1.7a.5.5,0,0,1-.57-.816l3.361-2.8a.587.587,0,0,1-.442-.25.5.5,0,0,1,.183-.683l4.537-2.62a.5.5,0,0,1,.57.817l-3.082,2.567L44.846,30.6a.5.5,0,0,1,.539.84l-4.558,3.231,6.607-3.814a.5.5,0,0,1,.535.844l-6.588,4.573,8.282-4.782a.5.5,0,0,1,.524.851l-4.338,2.849,5.285-3.05a.5.5,0,0,1,.525.85L45.5,37.049l7.051-4.07a.5.5,0,0,1,.521.852l-4.608,2.974,5.187-2.994a.5.5,0,0,1,.523.851l-6.442,4.187,7-4.043a.5.5,0,0,1,.526.85l-8.709,5.736,9.264-5.349a.5.5,0,0,1,.517.855l-2.1,1.325,2.215-1.279a.5.5,0,0,1,.518.855L53.455,40.03l3.6-2.075a.5.5,0,0,1,.529.848L46.488,46.276l11.361-6.558a.5.5,0,0,1,.515.856l-.167.105a.5.5,0,0,1,.5.864L50.1,47.232l8.437-4.871a.5.5,0,0,1,.522.853l-4.849,3.137,4.48-2.587a.5.5,0,0,1,.519.854L57.99,45.4l.716-.413a.5.5,0,0,1,.531.846L51.69,50.967,58.5,47.039a.5.5,0,0,1,.525.851L56.872,49.3l1.259-.727a.5.5,0,0,1,.525.85l-1.1.729,0,0a.5.5,0,0,1,.538.842L55.3,52.96l1.053-.607a.5.5,0,0,1,.555.828l-2.549,1.966a.5.5,0,0,1,.007.87l-4.537,2.619a.5.5,0,0,1-.555-.828l1.1-.847-4.174,2.41A.491.491,0,0,1,45.943,59.438Z" fill="#34acaf"/><path d="M34.434,22.386c1.736-.354,2.294-1.7,2.294-3.277-.017-3.077.032-6.172-.017-9.242-.1-2.79-3.364-2.332-5.294-2.32H13.047c-2.136-.3-4.074,1.152-3.775,3.389,0,2.955-.053,5.916,0,8.871.047,2.638,2.249,2.646,4.229,2.646C20.473,22.383,27.48,22.587,34.434,22.386ZM10.728,18.219c.6-9.482-3.054-10.339,8.108-9.765H32.8c1.222,0,2.338.151,2.475,1.721-.032,3.3.051,6.6,0,9.9-.119,1.331-.862,1.478-1.893,1.478H13.386C10.938,21.894,10.5,20.311,10.728,18.219Z" fill="#262626"/><path d="M50.1,31.347a14.894,14.894,0,0,0-8.38-.407V6.121c.078-2.539.528-5.686-3-5.427C27.6.72,16.713.67,5.57.658-.2.823-.047,5.745.276,10.188v40.5c-.379,3.262,2.941,5.2,5.875,4.828H34.782c8.933,8.687,25.033,1.973,24.948-10.589A14.535,14.535,0,0,0,50.1,31.347ZM5.724,1.3c.767,0,1.534.008,2.3.008,10.168.01,20.346-.013,30.51,0,1.967.165,1.744,2.125,1.744,3.524V31.351A14.6,14.6,0,0,0,30.37,46.477c-8.211-.01-16.437-.154-24.646,0Zm-4,3.9c.02-1.661.781-3.513,2.552-3.828V46.59a5.209,5.209,0,0,0-2.552,1.329C1.771,33.68,1.626,19.438,1.724,5.2ZM8.976,54.48c-1.272,0-2.557.056-3.827,0C.877,54.29.582,47.6,5.084,47.52c8.472-.073,16.947.039,25.419,0a14.2,14.2,0,0,0,.883,3.107c-1.3.175-2.95-.421-4.055.38-.2.272.174.366.377.366h4.011a13.55,13.55,0,0,0,2.05,3.107Zm40.7,3.225a13.376,13.376,0,0,1-15-4.328c-7.706-9.477.788-24.308,12.958-21.586C60.452,34.548,62.018,53.059,49.68,57.705Z" fill="#262626"/><path d="M34.475,27.722h-23c-.289,0-1.63.556-.95.556h23C33.814,28.278,35.155,27.722,34.475,27.722Z" fill="#262626"/><path d="M24.262,50.515h-18c-.307,0-.821.085-.948.426a.4.4,0,0,0,.424.544h15.77c1-.162,2.452.416,3.178-.426A.4.4,0,0,0,24.262,50.515Z" fill="#262626"/><path d="M45.735,44.674V37.949c0-.773-1.47-.571-1.47.1v6.623h-5.96c-.438,0-1.571.652-.61.652h6.57v6.725c0,.773,1.47.571,1.47-.1V45.326H51.7c.438,0,1.571-.652.61-.652Z" fill="#262626"/></svg>
