<svg height="505pt" viewBox="0 -6 505.28303 505" width="505pt" xmlns="http://www.w3.org/2000/svg"><path d="m26.820312 124.378906c-1.855468 0-3.488281-1.214844-4.019531-2.988281-.535156-1.773437.15625-3.6875 1.703125-4.710937l9.1875-6.058594-22.828125 13.167968c-1.941406 1.101563-4.410156.492188-5.609375-1.394531-1.203125-1.882812-.71875-4.375 1.101563-5.671875l40.984375-28.722656-36.476563 21.058594c-1.921875 1.085937-4.355469.496094-5.566406-1.34375-1.214844-1.84375-.796875-4.308594.957031-5.648438l35.09375-26.167968-30.492187 17.625c-1.847657.988281-4.140625.46875-5.375-1.222657-1.234375-1.691406-1.035157-4.035156.472656-5.492187l29.484375-26.5-24.582031 14.195312c-1.753907.996094-3.96875.605469-5.273438-.933594-1.308593-1.535156-1.335937-3.785156-.066406-5.351562l12.824219-15.707031c-2.03125.839843-4.363282-.027344-5.351563-1.992188-.988281-1.964843-.292969-4.355469 1.59375-5.484375l19.378907-11.1875c1.753906-1.007812 3.976562-.621094 5.289062.917969 1.308594 1.542969 1.335938 3.796875.058594 5.367187l-12.785156 15.628907 39.667968-22.871094c1.847656-.992187 4.140625-.46875 5.375 1.222656 1.234375 1.691407 1.035156 4.035157-.472656 5.492188l-29.484375 26.445312 57.484375-33.160156c1.921875-1.085937 4.355469-.5 5.570312 1.34375 1.210938 1.839844.792969 4.308594-.960937 5.644531l-35.078125 26.140625 57.394531-33.128906c1.9375-1.066406 4.371094-.445313 5.558594 1.417969 1.191406 1.863281.730469 4.328125-1.050781 5.640625l-40.933594 28.695312 61.96875-35.753906c1.953125-1.054687 4.390625-.402344 5.558594 1.484375 1.167968 1.890625.664062 4.363281-1.152344 5.640625l-9.183594 6.066406 22.882813-13.191406c1.925781-1.089844 4.367187-.492187 5.578125 1.359375 1.207031 1.855469.769531 4.332031-1.003906 5.65625l-51.578126 37.644531 77.421876-44.660156c1.933593-1.113281 4.398437-.515625 5.609374 1.355469 1.214844 1.871094.75 4.363281-1.054687 5.675781l-48.832031 35.253906 73.207031-42.285156c1.941406-1.0625 4.375-.433594 5.558594 1.4375 1.183593 1.867187.714843 4.335937-1.074219 5.636719l-35.933594 24.820312 55.28125-31.894531c1.949219-1.117187 4.433594-.496094 5.628906 1.402344 1.199219 1.902343.691407 4.410156-1.15625 5.6875l-31.636718 21.621093 49.800781-28.710937c1.953125-1.097656 4.429687-.464844 5.613281 1.441406 1.1875 1.902344.664063 4.402344-1.183594 5.675781l-19.539062 13.027344 34.984375-20.144531c1.9375-1.105469 4.402344-.503906 5.609375 1.375 1.207031 1.875.734375 4.371094-1.078125 5.675781l-45.449219 32.328125 68.246094-39.378906c1.941406-1.074219 4.382812-.453125 5.574219 1.417969 1.191406 1.871094.71875 4.34375-1.074219 5.648437l-39.121094 27.246094 59.492188-34.3125c1.957031-1.082031 4.417968-.4375 5.59375 1.460937 1.179687 1.902344.660156 4.390626-1.179688 5.664063l-13.664062 9.0625 28.058594-16.1875c1.921874-1.085937 4.355468-.5 5.566406 1.34375 1.214844 1.839844.796875 4.308594-.957032 5.644531l-54.96875 41.070313 83.261719-48.058594c1.9375-1.105469 4.402344-.503906 5.609375 1.375 1.207032 1.875.734375 4.371094-1.078125 5.675781l-45.71875 32.566406 68.632813-39.617187c1.921875-1.085937 4.355468-.5 5.570312 1.34375 1.210938 1.839844.792969 4.308594-.960937 5.644531l-54.660157 40.769532 82.726563-47.757813c1.949219-1.085937 4.40625-.457031 5.59375 1.429687 1.1875 1.886719.691406 4.371094-1.128906 5.660157l-31.625 21.621093 42.640625-24.617187c1.933594-1.109375 4.398437-.511719 5.609375 1.359375 1.210937 1.871094.75 4.363281-1.054688 5.675781l-43.898437 31.808594 50.941406-29.375c1.941406-1.089844 4.390625-.476563 5.589844 1.398437 1.199218 1.871094.726562 4.355469-1.074219 5.660157l-23.695313 16.695312 24.089844-13.910156c1.9375-1.105469 4.402344-.5 5.609375 1.378906 1.207031 1.875.734375 4.367188-1.078125 5.671875l-12.949218 9.234375 10.03125-5.785156c1.894531-1.058594 4.289062-.492187 5.511718 1.300781 1.222656 1.796875.875 4.230469-.804687 5.609375l-18.253907 14.578125 13.613282-7.847656c1.839844-1.105469 4.214844-.648438 5.511718 1.0625 1.292969 1.710938 1.089844 4.125-.476562 5.59375l-12.457031 11.960938 7.554687-4.339844c1.566406-.902344 3.53125-.703125 4.882813.492187 1.351562 1.199219 1.785156 3.125 1.078125 4.789063l-4.464844 10.457031c2-.332031 3.949219.816406 4.632812 2.722656.683594 1.910157-.09375 4.035157-1.847656 5.050781l-9.316406 5.371094c-1.5625.902344-3.53125.703125-4.882812-.492187-1.351563-1.199219-1.785157-3.125-1.078126-4.789063l4.289063-10.070312-26.570313 15.335937c-1.839843 1.105469-4.21875.644531-5.511718-1.066406-1.296875-1.710937-1.089844-4.121094.472656-5.589844l12.464844-11.972656-32.289063 18.636719c-1.898437 1.058594-4.289062.492187-5.511719-1.300782-1.226562-1.796874-.875-4.230468.804688-5.609374l18.230469-14.527344-37.175781 21.453125c-1.9375 1.105469-4.402344.5-5.609376-1.375-1.207031-1.878907-.734374-4.371094 1.078126-5.675781l12.925781-9.242188-28.246094 16.300781c-1.9375 1.089844-4.390625.476563-5.589844-1.398437-1.199219-1.871094-.726562-4.355469 1.074219-5.660156l23.730469-16.746094-41.238281 23.8125c-1.933594 1.109375-4.398438.515625-5.609376-1.355469-1.214843-1.871094-.75-4.367187 1.050782-5.675781l43.914062-31.796875-67.3125 38.847656c-1.960937 1.195313-4.515625.59375-5.738281-1.347656-1.226563-1.941407-.660156-4.503907 1.261719-5.753907l31.601562-21.621093-49.78125 28.738281c-1.917968 1.0625-4.332031.46875-5.539062-1.367188-1.203125-1.832031-.796875-4.285156.941406-5.625l54.65625-40.765624-82.757812 47.773437c-1.9375 1.105469-4.402344.5-5.609376-1.375-1.207031-1.878906-.734374-4.371094 1.074219-5.675781l45.722657-32.582032-68.660157 39.640626c-1.917969 1.0625-4.332031.46875-5.539062-1.363282-1.207031-1.832031-.796875-4.285156.9375-5.628906l54.960937-41.085938-83.285156 48.097657c-1.972656 1.21875-4.558594.613281-5.78125-1.355469-1.222656-1.972656-.613281-4.558594 1.355469-5.78125l13.597656-9.023438-28 16.175782c-1.949219 1.15625-4.464844.558594-5.683594-1.355469-1.214843-1.910156-.695312-4.445313 1.175781-5.71875l39.148438-27.296875-59.535156 34.414062c-1.9375 1.105469-4.402344.5-5.609375-1.378906-1.207031-1.875-.734375-4.367187 1.078125-5.671875l45.464844-32.359375-68.289063 39.449219c-1.964844 1.167969-4.5.550781-5.707031-1.390625-1.207032-1.941406-.640625-4.488281 1.277344-5.734375l19.554687-13.078125-35.015625 20.214844c-1.957031 1.132812-4.457031.515625-5.660156-1.398438-1.203125-1.910156-.675782-4.433594 1.195312-5.703125l31.632813-21.707031-49.816407 28.765625c-1.949218 1.132813-4.445312.523437-5.652343-1.382813-1.210938-1.902343-.695313-4.421874 1.164062-5.703124l35.941407-24.851563-55.3125 31.945313c-1.933594 1.109374-4.398438.511718-5.613282-1.359376-1.210937-1.871093-.75-4.363281 1.054688-5.675781l48.824218-35.25-73.214843 42.300781c-1.929688 1.089844-4.371094.492188-5.578125-1.363281-1.210938-1.851562-.769532-4.328125 1.003906-5.652343l51.507812-37.660157-77.402343 44.695313c-.636719.371094-1.359375.570312-2.097657.570312zm0 0" fill="#d94452"/><path d="m64.691406 493.445312c-1.882812 0-3.53125-1.253906-4.039062-3.0625-.511719-1.8125.25-3.738281 1.855468-4.71875l134.859376-82.289062-154.609376 89.265625c-1.976562 1.089844-4.460937.417969-5.625-1.519531-1.160156-1.933594-.582031-4.441406 1.3125-5.675782l223.609376-138.492187-239.03125 138.007813c-1.984376 1.0625-4.453126.371093-5.597657-1.570313-1.140625-1.941406-.550781-4.4375 1.34375-5.65625l4.765625-2.855469-6.535156 3.769532c-1.976562 1.039062-4.421875.351562-5.5625-1.566407-1.144531-1.917969-.585938-4.394531 1.273438-5.636719l210.355468-129.015624-211.40625 122.058593c-1.996094 1.183594-4.570312.523438-5.753906-1.472656s-.523438-4.570313 1.472656-5.753906l157.695313-95.683594-154.210938 89.011719c-1.984375 1.078125-4.464843.394531-5.617187-1.550782-1.148438-1.941406-.554688-4.449218 1.34375-5.667968l146.105468-88.507813-141.832031 81.875c-1.996093 1.179688-4.570312.519531-5.75-1.476562-1.179687-1.996094-.519531-4.570313 1.476563-5.75l142.4375-86.242188-138.164063 79.761719c-1.988281 1.109375-4.5.429688-5.65625-1.53125s-.539062-4.488281 1.390625-5.695312l100.957032-60.808594-96.691407 55.808594c-1.976562 1.039062-4.421875.351562-5.5625-1.566407-1.144531-1.917969-.582031-4.394531 1.273438-5.636719l205.738281-126.421874-201.441406 116.308593c-1.996094 1.179688-4.574219.515625-5.753906-1.480469-1.179688-2-.515626-4.574218 1.480468-5.753906l34.589844-20.765625-30.324219 17.5c-2 1.175781-4.574219.511719-5.75-1.484375-1.175781-2-.511719-4.574218 1.484375-5.75l40.761719-24.542968-36.496094 21.066406c-1.984375 1.078125-4.464843.394531-5.617187-1.546875-1.148438-1.945313-.554688-4.449219 1.34375-5.671875l67.222656-40.707032-62.949219 36.335938c-1.949219.890625-4.257812.171875-5.351562-1.667969-1.097657-1.839843-.632813-4.210937 1.078125-5.5l75.15625-45.710937-70.882813 40.875c-1.984375 1.144531-4.515625.488281-5.695312-1.472656-1.175781-1.960938-.566407-4.507813 1.371093-5.71875l159.835938-100.050782-155.511719 89.785156c-1.972656 1.082032-4.449219.417969-5.613281-1.507812s-.601562-4.425781 1.273438-5.667969l158.550781-100.722656-154.210938 89.0625c-1.972656 1.070313-4.4375.394531-5.59375-1.527344-1.160156-1.921875-.597656-4.414062 1.269531-5.65625l101.066407-63.246093-96.742188 55.84375c-1.960937 1.050781-4.398437.390624-5.5625-1.503907-1.164062-1.898437-.644531-4.371093 1.179688-5.640625l133.304687-86.546875-128.921875 74.402344c-1.964843 1.066406-4.417969.40625-5.582031-1.5s-.632812-4.390625 1.207031-5.652344l100.890625-65.34375-96.515625 55.714844c-1.960937 1.097656-4.4375.457031-5.621093-1.457031-1.179688-1.910156-.644532-4.414063 1.214843-5.675782l89.992188-59.265624-85.585938 49.410156c-1.929687.988281-4.292969.339844-5.453125-1.488282-1.160156-1.832031-.734375-4.242187.980469-5.570312l87.375-59.988281-82.902344 47.820312c-1.941406 1.101563-4.410156.488281-5.609375-1.394531-1.203125-1.882812-.71875-4.378906 1.101563-5.671875l66.460937-46.570313-61.953125 35.765626c-1.957031 1.113281-4.441406.488281-5.636719-1.417969-1.191406-1.910157-.667968-4.417969 1.1875-5.691407l26.230469-17.75-21.78125 12.589844c-1.921875 1.097656-4.363281.519532-5.585937-1.324218-1.222656-1.847657-.800782-4.320313.960937-5.660157l40.046875-30.183593-35.421875 20.421874c-1.925781 1.105469-4.378906.515626-5.597656-1.34375-1.214844-1.855468-.773437-4.339843 1.007813-5.664062l14.039062-10.367188-9.449219 5.449219c-1.898437 1.058594-4.289062.492188-5.511719-1.300781-1.226562-1.796875-.875-4.230469.800782-5.609375l9.605468-7.652344-4.894531 2.820313c-1.722656.988281-3.902343.640625-5.226562-.84375-1.320313-1.480469-1.425781-3.6875-.246094-5.285156l10.859375-14.738282-5.386719 3.105469c-1.5.863281-3.378906.71875-4.726562-.367187-1.351563-1.089844-1.894531-2.894532-1.367188-4.542969l1.855469-5.824219c-.613281-.371094-1.121094-.894531-1.46875-1.519531-1.15625-2.003907-.472656-4.5625 1.527344-5.726563l4.195312-2.425781c1.503906-.871094 3.386719-.726563 4.738282.363281 1.351562 1.085938 1.894531 2.894532 1.363281 4.546875l-.90625 2.8125 13.429687-7.730469c1.71875-.984374 3.894532-.628906 5.214844.84375 1.320312 1.476563 1.425781 3.675782.257812 5.277344l-10.910156 14.738282 36.160156-20.875c1.898438-1.078126 4.304688-.519532 5.535157 1.28125 1.230469 1.804687.875 4.25-.820313 5.625l-9.636718 7.679687 25.289062-14.59375c1.929688-1.105469 4.382812-.515625 5.597656 1.339844 1.21875 1.859375.777344 4.34375-1.003906 5.667969l-14.042969 10.367187 30.125-17.382813c1.917969-1.101562 4.363281-.523437 5.585938 1.324219 1.21875 1.84375.800781 4.320313-.960938 5.65625l-40.003906 30.175781 64.386719-37.175781c1.953125-1.113281 4.441406-.488281 5.632812 1.421875 1.195313 1.90625.671875 4.417969-1.183594 5.6875l-26.1875 17.71875 43.023438-24.835937c1.941406-1.101563 4.40625-.488281 5.609375 1.394531 1.199219 1.882812.714844 4.375-1.101563 5.671875l-66.492187 46.585937 92.972656-53.667968c1.953125-1.160156 4.472657-.550782 5.6875 1.367187 1.214844 1.921875.679688 4.457031-1.207031 5.726563l-87.339844 59.960937 116.199219-67.082031c1.96875-1.179688 4.519531-.554688 5.726563 1.398438 1.207031 1.953124.617187 4.515624-1.320313 5.746093l-90.011719 59.300781 115.058594-66.417968c1.96875-1.121094 4.472656-.476563 5.65625 1.460937 1.183594 1.933594.613281 4.457031-1.285156 5.699219l-100.890625 65.34375 125.609375-72.519531c1.964844-1.101563 4.449218-.449219 5.625 1.46875 1.175781 1.921875.628906 4.429687-1.242188 5.679687l-133.273437 86.503906 162.3125-93.703124c1.988281-1.199219 4.566406-.554688 5.761719 1.429687 1.199218 1.988281.558593 4.566406-1.429688 5.761719l-101.023438 63.210937 121.972657-70.421875c1.972656-1.082031 4.449219-.417968 5.613281 1.507813s.605469 4.425781-1.273438 5.671875l-158.636718 100.71875 186.957031-107.914063c1.285156-.773437 2.882813-.804687 4.195313-.078125 1.3125.726563 2.140624 2.097656 2.167968 3.597656s-.746094 2.898438-2.03125 3.675782l-159.847656 100.054687 185.789062-107.265625c1.992188-1.132812 4.519532-.464844 5.6875 1.503906 1.167969 1.96875.542969 4.511719-1.40625 5.714844l-75.011718 45.617188 91.53125-52.878906c1.996094-1.179688 4.570312-.519532 5.75 1.476562 1.179687 1.996094.515625 4.570312-1.476563 5.75l-67.375 40.800781 83.203125-48.035156c2-1.179687 4.574219-.511719 5.75 1.484375 1.175782 2 .511719 4.574219-1.484375 5.75l-40.667969 24.515625 54.96875-31.734375c1.996094-1.175781 4.570313-.511719 5.75 1.488281 1.175782 1.996094.511719 4.570313-1.484374 5.746094l-34.5 20.726563 48.429687-27.960938c1.984375-1.097656 4.480469-.417969 5.640625 1.527344 1.15625 1.949218.558594 4.464844-1.351562 5.683594l-205.820313 126.457031 220.746094-127.457031c1.988281-1.105469 4.5-.425782 5.65625 1.535156 1.15625 1.960937.539062 4.488281-1.394531 5.691406l-100.921876 60.8125 96.691407-55.808594c1.984375-1.078125 4.46875-.394531 5.617187 1.550782 1.152344 1.941406.558594 4.445312-1.34375 5.667968l-142.4375 86.234375 138.164063-79.738281c1.996093-1.179688 4.570312-.519531 5.75 1.476562 1.179687 1.996094.519531 4.570313-1.476563 5.75l-145.894531 88.367188 141.621094-81.761719c1.984375-1.078125 4.46875-.394531 5.617187 1.550781 1.152344 1.941407.558594 4.449219-1.34375 5.667969l-157.878906 95.820313 153.597656-88.679688c1.976563-1.039062 4.421875-.351562 5.5625 1.566406 1.144532 1.917969.585938 4.394532-1.273437 5.636719l-210.230469 128.941407 205.949219-118.902344c1.988281-1.0625 4.457031-.371094 5.601562 1.570312 1.140625 1.941406.546875 4.4375-1.34375 5.65625l-4.632812 2.769532.375-.210938c1.976562-1.054688 4.429687-.371094 5.578125 1.546875 1.152344 1.921875.589844 4.40625-1.269532 5.648437l-223.667968 138.53125 219.359375-126.648437c1.980469-1.054687 4.441406-.371094 5.589843 1.558594 1.144532 1.933593.570313 4.421875-1.308593 5.652343l-134.90625 82.316407 130.625-75.40625c1.984375-1.082031 4.46875-.394531 5.617187 1.546875 1.152344 1.945312.558594 4.449218-1.34375 5.667968l-76.109375 46.164063 71.835938-41.46875c1.980469-1.058594 4.441406-.371094 5.589843 1.558594 1.144532 1.929687.570313 4.417969-1.308593 5.648437l-105.167969 64.34375 100.914062-58.25c1.972657-1.054687 4.429688-.371094 5.578126 1.546875 1.148437 1.921875.589843 4.40625-1.273438 5.648438l-137.953125 85.652343 133.605469-77.132812c1.972656-1.039062 4.410156-.359375 5.554687 1.550781 1.148438 1.910157.601563 4.382813-1.238281 5.632813l-130.167969 81.417968 125.867188-72.65625c1.972656-1.101562 4.464843-.445312 5.636719 1.484376 1.171874 1.929687.605468 4.441406-1.277344 5.683593l-141.917969 90.648438 137.570313-79.433594c1.976562-1.109375 4.472656-.445313 5.644531 1.496094 1.167969 1.9375.585937 4.457031-1.316407 5.6875l-96.128906 60.71875 91.800782-52.988281c1.96875-1.039063 4.40625-.355469 5.554687 1.550781 1.144531 1.910156.601563 4.382812-1.242187 5.636719l-47.96875 29.9375 43.644531-25.179688c1.960937-1.082031 4.421875-.4375 5.597656 1.464844 1.175781 1.898437.660156 4.390625-1.179687 5.660156l-107.539063 71.285156 103.132813-59.523437c1.972656-1.070313 4.4375-.398438 5.59375 1.523437 1.15625 1.925782.597656 4.417969-1.273438 5.660156l-8.394531 5.269532 4.089843-2.347656c1.957032-1.097657 4.429688-.464844 5.613282 1.441406 1.1875 1.902344.664062 4.402344-1.183594 5.675781l-69.664062 46.597656 65.25-37.660156c1.972656-1.101563 4.460937-.445313 5.636718 1.484375 1.171875 1.929688.605469 4.441406-1.28125 5.683594l-3.28125 2.089844c1.976563-.492188 4.023438.507812 4.851563 2.367187.828125 1.863281.195312 4.050781-1.492188 5.1875l-33.875 22.746094 29.375-16.980469c1.953125-1.097656 4.421875-.46875 5.613281 1.425781 1.1875 1.898438.679688 4.394531-1.15625 5.675781l-22.964843 15.660157 18.464843-10.675781c1.898438-1.070313 4.296876-.515626 5.53125 1.28125 1.230469 1.796874.878907 4.238281-.804687 5.621093l-40.605469 32.734375 35.878906-20.699218c1.902344-1.085938 4.316407-.527344 5.550782 1.28125 1.230468 1.8125.863281 4.261718-.839844 5.632812l-15.722656 12.542969 11.054687-6.378907c1.800781-1.046874 4.097657-.609374 5.390625 1.019532 1.292969 1.632812 1.195313 3.964844-.230468 5.484375l-12.855469 13.816406 2.40625-1.394531c1.300781-.828125 2.953125-.875 4.296875-.125 1.347656.753906 2.171875 2.183594 2.152344 3.722656-.019532 1.542969-.886719 2.949219-2.25 3.664062l-26.859376 15.535157c-1.800781 1.042969-4.097656.605469-5.390624-1.023438-1.292969-1.632812-1.199219-3.964843.226562-5.480469l12.828125-13.816406-35.472656 20.472656c-1.902344 1.082032-4.316407.523438-5.546875-1.285156-1.234375-1.808594-.867188-4.261718.839844-5.632812l15.769531-12.53125-33.707031 19.449218c-1.898438 1.089844-4.316407.539063-5.554688-1.265624-1.238281-1.804688-.882812-4.257813.820312-5.636719l40.617188-32.734375-68.703125 39.636718c-1.945313 1.054688-4.378906.417969-5.554687-1.457031-1.179688-1.875-.699219-4.34375 1.097656-5.636719l22.925781-15.636718-39.382813 22.730468c-1.957031 1.113282-4.441406.484376-5.636718-1.421874-1.195313-1.90625-.671875-4.417969 1.1875-5.6875l33.859375-22.738282-51.722657 29.847656c-1.96875 1.101563-4.460937.445313-5.632812-1.484374-1.171875-1.929688-.609375-4.441407 1.277344-5.6875l.3125-.191407-12.765625 7.363281c-1.957031 1.09375-4.429688.460938-5.617188-1.445312-1.183593-1.902344-.664062-4.402344 1.183594-5.675781l69.707031-46.597657-93.082031 53.71875c-1.976563 1.105469-4.476563.445313-5.644531-1.496093-1.171875-1.941407-.589844-4.460938 1.3125-5.691407l8.394531-5.226562-21.570313 12.414062c-1.960937 1.078126-4.421874.433594-5.597656-1.464843-1.175781-1.902344-.65625-4.390625 1.179688-5.664063l107.539062-71.257812-135.816406 78.386718c-1.972656 1.066407-4.4375.394532-5.59375-1.527343-1.15625-1.925781-.597656-4.417969 1.273438-5.660157l48.027343-29.988281-64.414062 37.175781c-1.96875 1.082032-4.445313.417969-5.613281-1.507812-1.164063-1.925781-.601563-4.429688 1.277343-5.671875l95.960938-60.625-117.449219 67.804687c-1.976562 1.15625-4.515625.515626-5.707031-1.441406-1.191407-1.953125-.59375-4.503906 1.339843-5.730468l141.910157-90.648438-169.378907 97.820312c-1.972656 1.066407-4.4375.394532-5.597656-1.527343-1.15625-1.925781-.59375-4.417969 1.273438-5.660157l130.191406-81.414062-153.484375 88.601562c-1.976563 1.085938-4.460937.417969-5.621094-1.519531-1.164062-1.9375-.582031-4.445312 1.308594-5.675781l137.921875-85.636719-160.84375 92.832031c-1.980469 1.054688-4.441406.371094-5.585938-1.5625-1.148437-1.929687-.570312-4.417968 1.304688-5.648437l105.210938-64.371094-123.988282 71.582031c-1.980468 1.042969-4.429687.347657-5.570312-1.578124-1.136719-1.929688-.5625-4.410157 1.308594-5.640626l76.253906-46.242187-92.613282 53.460937c-.636718.378907-1.359374.582032-2.097656.59375zm0 0" fill="#cad0d7"/><path d="m250.328125 233.25c-1.730469-.003906-3.285156-1.066406-3.910156-2.679688-.625-1.613281-.195313-3.449218 1.082031-4.617187l14.738281-13.445313-34.464843 19.894532c-1.890626 1.066406-4.289063.511718-5.519532-1.28125-1.230468-1.792969-.886718-4.226563.785156-5.609375l25.015626-20.195313-33.425782 19.304688c-1.878906 1.070312-4.261718.539062-5.507812-1.230469s-.941406-4.195313.699218-5.601563l32.191407-27.179687-29.714844 17.148437c-1.820313 1.011719-4.113281.535157-5.375-1.125-1.265625-1.65625-1.121094-3.992187.339844-5.480468l19.070312-18.976563-14.019531 8.089844c-1.6875.972656-3.824219.652344-5.152344-.773437-1.332031-1.421876-1.507812-3.574219-.429687-5.195313l6.488281-9.691406c-1.6875.226562-3.34375-.589844-4.195312-2.066407-1.152344-2.003906-.472657-4.5625 1.527343-5.722656l13.65625-7.890625c1.691407-.972656 3.824219-.652343 5.15625.773438 1.332031 1.421875 1.507813 3.574219.425781 5.195312l-6.050781 9.003907 26.261719-15.109376c1.824219-1.011718 4.113281-.53125 5.375 1.125 1.265625 1.660157 1.121094 3.992188-.339844 5.480469l-19.058594 18.960938 42.628907-24.617188c1.878906-1.054687 4.25-.515625 5.488281 1.246094 1.238281 1.765625.941406 4.175781-.6875 5.585937l-32.195312 27.203126 39.1875-22.660157c1.898437-1.09375 4.316406-.542969 5.554687 1.261719s.882813 4.257812-.820313 5.636719l-24.988281 20.226562 21.402344-12.355469c1.851563-1.027343 4.175781-.519531 5.429687 1.183594 1.25 1.707032 1.035157 4.078125-.5 5.53125l-14.730468 13.429688 9.800781-5.648438c1.671875-.941406 3.769531-.632812 5.09375.753906 1.328125 1.386719 1.546875 3.496094.53125 5.121094l-6.890625 10.667969c2.015625-.414063 4.03125.695313 4.765625 2.617187.734375 1.917969-.035156 4.089844-1.8125 5.125l-13.546875 7.820313c-1.671875.941406-3.765625.632813-5.09375-.753906-1.324219-1.382813-1.542969-3.492188-.527344-5.121094l6.628906-10.273437-28.269531 16.316406c-.632812.382812-1.359375.589844-2.097656.597656zm0 0" fill="#f4f6f8"/><path d="m363.1875 233.25c-1.808594 0-3.410156-1.15625-3.984375-2.871094-.570313-1.714844.019531-3.601562 1.464844-4.683594l14.605469-11.246093-23.074219 13.320312c-1.921875 1.070313-4.34375.472657-5.550781-1.367187-1.207032-1.839844-.789063-4.296875.960937-5.632813l15.03125-11.140625-15.351563 8.863282c-1.878906 1.089843-4.28125.5625-5.535156-1.210938-1.25-1.777344-.941406-4.214844.71875-5.621094l26.691406-22.769531-22.53125 13c-1.828124 1.054687-4.160156.585937-5.4375-1.097656-1.277343-1.683594-1.105468-4.054688.402344-5.53125l12.851563-12.589844-7.824219 4.503906c-1.730469.992188-3.921875.628907-5.238281-.867187-1.316407-1.5-1.398438-3.71875-.191407-5.308594l5.035157-6.539062c-1.71875-.332032-3.050781-1.699219-3.339844-3.425782-.292969-1.726562.523437-3.453125 2.039063-4.328125l13.65625-7.890625c1.734374-1.011718 3.941406-.652344 5.265624.855469 1.324219 1.503906 1.398438 3.738281.175782 5.328125l-3.359375 4.417969 18.472656-10.628907c1.832031-1.054687 4.160156-.585937 5.441406 1.097657 1.277344 1.683593 1.105469 4.054687-.402343 5.535156l-12.867188 12.589844 33.269531-19.222657c1.878907-1.066406 4.257813-.535156 5.503907 1.230469 1.242187 1.761719.949218 4.183594-.683594 5.59375l-26.675782 22.753907 39.449219-22.785157c1.921875-1.09375 4.367188-.507812 5.582031 1.34375 1.214844 1.847657.785157 4.324219-.984374 5.65625l-15.03125 11.128907 14.09375-8.132813c1.910156-1.078125 4.328124-.5 5.546874 1.324219 1.21875 1.824218.828126 4.277344-.898437 5.632812l-14.613281 11.257813 9.972656-5.757813c1.863281-1.078125 4.238281-.570312 5.5 1.171875 1.257812 1.746094.996094 4.160157-.605469 5.589844l-11.425781 10.15625 6.53125-3.765625c1.6875-.972656 3.824219-.65625 5.15625.765625 1.332031 1.417969 1.511719 3.570313.433594 5.191406l-6.515625 9.753907c1.980469-.242188 3.855469.945312 4.488281 2.832031.632812 1.890625-.152344 3.964843-1.875 4.964843l-13.546875 7.824219c-1.6875.972657-3.824219.65625-5.15625-.765625s-1.511719-3.574218-.433594-5.195312l6.074219-9.113282-26.355469 15.207032c-1.84375.976562-4.125.453125-5.355469-1.234375-1.230468-1.6875-1.03125-4.023438.464844-5.480469l11.386719-10.199219-29.375 16.941407c-.621094.363281-1.328125.558593-2.046875.570312zm0 0" fill="#f4f6f8"/><path d="m114.574219 233.25c-1.789063.003906-3.382813-1.121094-3.972657-2.808594-.59375-1.683594-.054687-3.558594 1.34375-4.671875l1.679688-1.34375-14.269531 8.253907c-1.875 1.046874-4.242188.511718-5.480469-1.246094-1.238281-1.757813-.949219-4.164063.671875-5.578125l26.09375-22.152344-38.800781 22.378906c-1.890625 1.070313-4.28125.523438-5.519532-1.257812-1.238281-1.78125-.914062-4.214844.75-5.609375l31.5-26.011719-30.558593 17.625c-1.855469 1.070313-4.214844.578125-5.480469-1.148437-1.261719-1.722657-1.027344-4.117188.542969-5.566407l20.675781-18.910156-15.746094 9.117187c-1.644531.9375-3.710937.664063-5.046875-.671874-1.339843-1.335938-1.621093-3.398438-.6875-5.042969l8.394531-14.679688-.203124.105469c-1.992188 1.042969-4.453126.332031-5.578126-1.617188-1.125-1.945312-.515624-4.433593 1.382813-5.640624l13.65625-7.890626c1.632813-.9375 3.695313-.667968 5.035156.65625 1.332031 1.332032 1.609375 3.394532.679688 5.035157l-8.394531 14.6875 35.582031-20.472657c1.847656-1.042968 4.1875-.542968 5.445312 1.171876 1.257813 1.710937 1.039063 4.089843-.511719 5.542968l-20.65625 18.894532 40.96875-23.644532c1.886719-1.070312 4.28125-.523437 5.519532 1.257813 1.234375 1.78125.910156 4.214843-.75 5.609375l-31.527344 26.019531 35.351562-20.40625c1.882813-1.085937 4.28125-.5625 5.535157 1.214844 1.25 1.773437.941406 4.214843-.714844 5.617187l-26.113281 22.160156 21.882812-12.589843c1.898438-1.078125 4.304688-.519531 5.535156 1.28125 1.234376 1.804687.875 4.25-.820312 5.625l-3.214844 2.535156c1.398438-.179687 2.792969.332031 3.746094 1.367187 1.316406 1.488282 1.410156 3.695313.226562 5.289063l-7.128906 9.5625c2.019532-1.144531 4.582032-.433594 5.726563 1.585937 1.140625 2.019532.433593 4.582032-1.585938 5.722657l-17.527343 10.074219c-1.722657 1.007812-3.921876.65625-5.25-.835938-1.328126-1.488281-1.421876-3.710938-.222657-5.308594l7.109375-9.535156-27.175781 15.652344c-.632813.382812-1.359375.589844-2.097656.597656zm0 0" fill="#f4f6f8"/><path d="m230.386719 342.363281c-1.761719.003907-3.335938-1.089843-3.945313-2.738281-.613281-1.648438-.128906-3.503906 1.207032-4.648438l27.851562-23.820312-40.207031 23.207031c-1.9375 1.105469-4.402344.503907-5.609375-1.375-1.207032-1.875-.734375-4.371093 1.078125-5.675781l3.566406-2.515625-1.855469 1.023437c-1.84375.988282-4.136718.46875-5.375-1.222656-1.234375-1.691406-1.03125-4.035156.472656-5.492187l26.550782-23.828125-21.824219 12.589844c-1.828125 1.039062-4.144531.566406-5.417969-1.105469-1.273437-1.675781-1.109375-4.035157.382813-5.519531l9.792969-9.632813-4.757813 2.734375c-1.765625 1.023438-4.011719.628906-5.324219-.9375-1.308594-1.566406-1.300781-3.847656.019532-5.40625l3.9375-4.652344c-1.433594-.648437-2.386719-2.046875-2.460938-3.617187-.078125-1.574219.734375-3.058594 2.097656-3.84375l13.65625-7.871094c1.769532-1.023437 4.015625-.628906 5.324219.9375s1.300781 3.847656-.019531 5.40625l-.570313.671875 12.363281-7.132812c1.828126-1.042969 4.144532-.570313 5.417969 1.105468 1.273438 1.675782 1.109375 4.03125-.378906 5.515625l-9.8125 9.660157 28.21875-16.273438c1.84375-.992188 4.136719-.46875 5.371094 1.222656 1.238281 1.691406 1.035156 4.035156-.46875 5.492188l-26.550781 23.835937 43.46875-25.085937c1.941406-1.105469 4.40625-.503906 5.609374 1.375 1.207032 1.875.734376 4.371094-1.074218 5.675781l-3.519532 2.515625 3.046876-1.753906c1.875-1.0625 4.25-.53125 5.496093 1.226562 1.246094 1.757813.957031 4.171875-.667969 5.589844l-27.839843 23.828125 23.910156-13.796875c1.789063-1.019531 4.046875-.59375 5.34375 1.003906 1.292969 1.597656 1.238281 3.898438-.128906 5.433594l-15.109375 16.785156 9.9375-5.734375c2.003906-1.136719 4.554687-.445312 5.707031 1.550781 1.15625 2 .480469 4.554688-1.511719 5.71875l-32.949218 18.980469c-1.789063 1.015625-4.050782.589844-5.34375-1.007812-1.292969-1.597657-1.238282-3.898438.128906-5.433594l15.109375-16.785156-40.246094 23.226562c-.636719.378907-1.359375.582031-2.097656.59375zm0 0" fill="#f4f6f8"/><path d="m385.203125 342.363281c-1.707031.003907-3.242187-1.023437-3.890625-2.601562-.648438-1.574219-.277344-3.386719.933594-4.582031l19.507812-19.304688-42.804687 24.742188c-1.902344 1.097656-4.328125.546874-5.566407-1.261719-1.238281-1.8125-.875-4.273438.839844-5.644531l27.1875-21.925782-33.207031 19.171875c-1.863281 1.050781-4.222656.527344-5.46875-1.214843-1.246094-1.738282-.984375-4.136719.609375-5.566407l31.558594-27.597656-28.269532 16.316406c-1.816406 1-4.09375.519531-5.355468-1.132812-1.257813-1.648438-1.125-3.972657.320312-5.464844l15.261719-15.285156-10.199219 5.875c-1.726562 1-3.914062.648437-5.238281-.84375-1.324219-1.488281-1.417969-3.703125-.226563-5.300781l5.3125-7.125c-1.792968-.21875-3.246093-1.5625-3.601562-3.332032-.359375-1.773437.457031-3.574218 2.023438-4.472656l13.65625-7.875c1.726562-1.007812 3.921874-.65625 5.25.832031 1.332031 1.492188 1.421874 3.714844.222656 5.3125l-4.011719 5.382813 20.144531-11.644532c1.820313-1 4.097656-.519531 5.355469 1.132813 1.261719 1.648437 1.125 3.972656-.320313 5.464844l-15.273437 15.292969 37.917969-21.804688c1.867187-1.050781 4.222656-.527344 5.472656 1.210938 1.246094 1.742187.984375 4.140624-.609375 5.570312l-31.550781 27.546875 42.804687-24.691406c1.898438-1.09375 4.316407-.542969 5.554688 1.261719 1.238281 1.804687.882812 4.257812-.820313 5.636718l-27.1875 21.921875 24.339844-14.042969c1.828125-1.023437 4.128906-.546874 5.398438 1.117188 1.269531 1.664062 1.113281 4.011719-.359376 5.5l-19.515624 19.269531 14.460937-8.34375c1.765625-1.011719 4.003906-.609375 5.308594.953125 1.304687 1.5625 1.300781 3.835938-.011719 5.394532l-5.582031 6.570312c1.800781-.410156 3.660156.390625 4.601562 1.980469 1.160157 2.003906.476563 4.570312-1.527343 5.734375l-19.582032 11.273437c-1.769531 1.011719-4.007812.609375-5.3125-.953125-1.304687-1.5625-1.296875-3.835937.015625-5.394531l5.253907-6.175781-21.722657 12.523437c-.632812.382813-1.359375.589844-2.097656.59375zm0 0" fill="#f4f6f8"/><path d="m104.40625 342.363281c-1.78125.003907-3.371094-1.117187-3.964844-2.800781-.59375-1.679688-.058594-3.554688 1.332032-4.667969l12.691406-10.222656-26.566406 15.332031c-1.925782 1.066406-4.347657.460938-5.546876-1.382812-1.203124-1.84375-.773437-4.304688.980469-5.632813l7.847657-5.707031-10.910157 6.292969c-1.941406 1.273437-4.546875.734375-5.816406-1.207031-1.273437-1.941407-.734375-4.542969 1.207031-5.816407l11.003906-8.023437-8.6875 5.035156c-1.894531 1.085938-4.304687.539062-5.542968-1.261719-1.238282-1.800781-.890625-4.246093.800781-5.628906l18.652344-15.109375-13.917969 8.023438c-1.828125 1.042968-4.144531.570312-5.417969-1.105469-1.273437-1.675781-1.109375-4.03125.382813-5.515625l11.464844-11.273438-6.429688 3.703125c-1.75 1-3.960938.617188-5.273438-.914062-1.308593-1.527344-1.347656-3.773438-.089843-5.347657l4.464843-5.566406c-1.589843-.5-2.730468-1.890625-2.914062-3.542968-.179688-1.65625.632812-3.261719 2.074219-4.09375l13.65625-7.875c1.75-1.007813 3.96875-.628907 5.285156.902343 1.316406 1.535157 1.351563 3.785157.085937 5.359375l-2.097656 2.613282 15.621094-9.023438c1.828125-1.042969 4.144531-.570312 5.417969 1.105469 1.273437 1.675781 1.109375 4.03125-.382813 5.515625l-11.464844 11.246094 31.054688-17.894532c1.890625-1.0625 4.28125-.507812 5.511719 1.28125 1.230469 1.785156.898437 4.214844-.769531 5.601563l-18.640626 15.167969 31.300782-18.078126c1.929687-1.128906 4.410156-.542968 5.628906 1.332032 1.222656 1.878906.757812 4.378906-1.054688 5.691406l-10.972656 8 11.710938-6.714844c1.929687-1.097656 4.382812-.503906 5.59375 1.359375 1.210937 1.863281.757812 4.347657-1.027344 5.664063l-7.875 5.71875 4.472656-2.570313c1.898438-1.070312 4.300782-.515625 5.53125 1.28125 1.230469 1.796875.878906 4.238281-.804687 5.617188l-12.691407 10.226562 7.976563-4.601562c1.773437-1.019531 4.023437-.613281 5.328125.964843 1.304688 1.578126 1.277344 3.863282-.058594 5.414063l-11.195312 12.851563 5.636718-3.257813c1.300782-.828125 2.953126-.875 4.296876-.121094 1.347656.75 2.171874 2.179688 2.152343 3.71875-.019531 1.542969-.882812 2.949219-2.25 3.664063l-27.195312 15.695312c-1.773438 1.011719-4.011719.601563-5.3125-.96875-1.300781-1.574218-1.285157-3.851562.042969-5.402344l11.144531-12.890624-33.378907 19.304687c-.640624.359375-1.363281.546875-2.101562.535156zm0 0" fill="#f4f6f8"/><path d="m244.023438 451.476562c-1.722657.007813-3.269532-1.042968-3.910157-2.640624-.636719-1.601563-.230469-3.429688 1.023438-4.609376l23.703125-22.425781-45.132813 26.019531c-1.9375 1.105469-4.402343.5-5.609375-1.378906-1.207031-1.875-.730468-4.367187 1.078125-5.671875l1.980469-1.410156-3.011719 1.734375c-1.875 1.050781-4.242187.515625-5.480469-1.242188-1.238281-1.757812-.949218-4.167968.671876-5.578124l31.15625-26.472657-28.195313 16.304688c-1.816406 1.039062-4.121094.574219-5.398437-1.082031-1.277344-1.65625-1.140626-4 .320312-5.496094l17.46875-17.675782-12.390625 7.148438c-1.710937.984375-3.871094.648438-5.199219-.8125s-1.457031-3.648438-.316406-5.253906l5.785156-8.109375c-1.875-.050781-3.488281-1.339844-3.953125-3.15625-.464843-1.816407.332031-3.722657 1.953125-4.664063l13.65625-7.890625c1.710938-.984375 3.875-.644531 5.203125.8125 1.324219 1.460938 1.457031 3.648438.3125 5.253907l-4.910156 6.890624 22.664063-13.074218c1.816406-1.035156 4.121093-.574219 5.398437 1.082031s1.140625 4-.320313 5.496094l-17.484374 17.6875 41.363281-23.863281c1.875-1.050782 4.242187-.511719 5.480469 1.242187 1.238281 1.757813.949218 4.167969-.671876 5.582031l-31.121093 26.429688 39.808593-22.980469c1.9375-1.105469 4.402344-.5 5.609376 1.375 1.207031 1.878906.734374 4.371094-1.078126 5.675781l-2.398437 1.679688c1.867187-.742188 4-.054688 5.082031 1.636718 1.082032 1.695313.8125 3.917969-.644531 5.304688l-23.710937 22.433594 18.742187-10.808594c1.835937-1.089844 4.199219-.628906 5.488281 1.074219 1.289063 1.699219 1.09375 4.097656-.449218 5.570312l-5.1875 5.039063.175781-.101563c1.992187-1.042969 4.453125-.328125 5.578125 1.617188 1.125 1.949219.515625 4.4375-1.382813 5.640625l-29.578125 17.074218c-1.835937 1.089844-4.195312.625-5.484375-1.074218-1.289062-1.703125-1.097656-4.101563.449219-5.574219l5.203125-5.035156-20.238281 11.683593c-.632813.382813-1.355469.589844-2.097656.59375zm0 0" fill="#f4f6f8"/><path d="m381.441406 451.476562c-1.730468-.011718-3.273437-1.085937-3.886718-2.703124-.613282-1.617188-.175782-3.445313 1.109374-4.605469l15.207032-13.429688-33.671875 19.378907c-1.898438 1.09375-4.316407.542968-5.554688-1.261719-1.238281-1.804688-.882812-4.257813.820313-5.636719l26.554687-21.46875-33.574219 19.386719c-1.886718 1.070312-4.277343.527343-5.515624-1.253907-1.238282-1.785156-.914063-4.214843.75-5.609374l29.191406-24.109376-26.269532 15.160157c-1.835937 1.089843-4.199218.625-5.488281-1.074219-1.289062-1.703125-1.09375-4.101562.453125-5.574219l17.882813-17.230469-12.882813 7.4375c-1.679687.992188-3.820312.675782-5.144531-.757812-1.335937-1.410156-1.527344-3.558594-.460937-5.1875l6.714843-10.164062c-1.734375.285156-3.464843-.527344-4.347656-2.046876-1.15625-2.003906-.472656-4.5625 1.527344-5.722656l13.65625-7.890625c1.683593-.96875 3.8125-.660156 5.144531.753907 1.335938 1.410156 1.523438 3.554687.460938 5.179687l-6.386719 9.710937 27.3125-15.738281c1.839843-1.105469 4.214843-.648437 5.511719 1.0625 1.292968 1.710938 1.089843 4.125-.476563 5.59375l-17.894531 17.230469 40.027344-23.105469c1.890624-1.09375 4.308593-.554687 5.554687 1.238281 1.242187 1.796876.902344 4.25-.785156 5.636719l-29.167969 24.089844 36.460938-21.0625c1.894531-1.085937 4.304687-.535156 5.542968 1.261719 1.238282 1.800781.890625 4.25-.800781 5.632812l-26.582031 21.492188 23.433594-13.519532c1.867187-1.0625 4.230468-.546874 5.484374 1.195313 1.253907 1.738281.992188 4.148437-.605468 5.578125l-15.203125 13.429688 10.324219-5.960938c1.6875-.964844 3.8125-.652344 5.144531.761719 1.332031 1.414062 1.519531 3.558593.453125 5.183593l-7.9375 12.007813.335937-.191406c1.300781-.828125 2.949219-.875 4.296875-.125 1.34375.753906 2.171875 2.183593 2.148438 3.722656-.019532 1.542969-.882813 2.949219-2.25 3.664063l-15.761719 9.046874c-1.683594.976563-3.816406.667969-5.152344-.746093-1.339843-1.417969-1.523437-3.570313-.445312-5.195313l7.929687-11.996094-31.054687 17.945313c-.644531.386719-1.382813.589844-2.132813.585937zm0 0" fill="#f4f6f8"/><path d="m126.324219 451.476562c-1.738281.003907-3.296875-1.0625-3.921875-2.683593-.625-1.621094-.1875-3.460938 1.101562-4.625l2.011719-1.789063-14.789063 8.503906c-1.84375.988282-4.136718.46875-5.371093-1.222656s-1.035157-4.035156.472656-5.492187l20.90625-18.808594-40.429687 23.339844c-1.898438 1.117187-4.335938.574219-5.585938-1.242188-1.246094-1.8125-.878906-4.28125.84375-5.65625l29.929688-24.230469-32.886719 18.976563c-1.890625 1.082031-4.296875.53125-5.535157-1.261719-1.238281-1.792968-.894531-4.234375.785157-5.621094l23.367187-18.976562-19.21875 11.09375c-1.816406 1.046875-4.125.597656-5.414062-1.058594-1.285156-1.652344-1.152344-4.003906.308594-5.503906l15.417968-15.871094-10.3125 5.949219c-1.726562 1.03125-3.9375.675781-5.257812-.839844-1.320313-1.507812-1.390625-3.738281-.167969-5.328125l4.910156-6.355468c-1.15625-.253907-2.152343-.984376-2.742187-2.011719-1.15625-2.003907-.472656-4.5625 1.527344-5.726563l13.65625-7.890625c1.738281-1.015625 3.953124-.65625 5.28125.859375 1.324218 1.511719 1.386718 3.757813.148437 5.34375l-3.171875 4.105469 18.0625-10.433594c1.8125-1.03125 4.109375-.578125 5.390625 1.066407 1.28125 1.648437 1.160156 3.984374-.289063 5.488281l-15.410156 15.855469 38.855469-22.410157c1.890625-1.082031 4.296875-.53125 5.535156 1.261719s.894531 4.234375-.785156 5.621094l-23.359375 18.976562 33.28125-19.210937c1.890625-1.066407 4.289062-.511719 5.519531 1.28125 1.230469 1.789062.886719 4.226562-.785156 5.609375l-29.925781 24.230468 28.96875-16.726562c1.84375-.992188 4.136718-.46875 5.371094 1.222656 1.238281 1.691406 1.035156 4.035156-.472657 5.492188l-20.921875 18.816406 16.03125-9.230469c1.859375-1.058593 4.222656-.546875 5.476563 1.191407 1.253906 1.734374 1 4.136718-.59375 5.574218l-3.28125 2.902344c1.660156-.171875 3.269531.636719 4.121093 2.074219 1.160157 2.003906.476563 4.570312-1.527343 5.730469l-33.027344 19.046874c-.632813.382813-1.359375.589844-2.097656.59375zm0 0" fill="#f4f6f8"/><g fill="#262626"><path d="m2.4375 452.277344c4.195312 46.164062 43.257812 39.882812 78.097656 39.882812h377.394532.691406.5625c.257812-.023437.515625-.058594.769531-.109375.269531 0 .4375 0 .738281-.066406 63.160156-10.179687 40.71875-110.875 40.71875-156.679687v-216.753907c0-26.992187 8.996094-71.34375-24.023437-82.859375-11.933594-4.195312-28.203125-1.796875-40.4375-1.796875h-2.6875v-32.851562c0-2.097657-12.152344-.34375-12.152344 3.257812v29.59375h-164.109375v-32.851562c0-1.675781-12.152344 0-12.152344 3.257812v29.59375h-15.066406c-49.523438 0-99.414062-1.46875-149.042969-.609375v-32.242187c0-1.855469-12.15625-.175781-12.15625 3.257812v29.242188c-5.292969.144531-10.609375.144531-15.886719.351562-54.625 2.125-51.257812 42.640625-51.257812 87.914063v147.28125c0 60.1875-5.484375 123.214844 0 183.1875zm461.050781 34.546875h-338.550781c-37.769531 0-103.238281 14.269531-110.347656-35.78125-7.488282-52.542969 0-111.632813 0-164.621094v-163.570313h439.742187c2.867188 0 10.070313-.167968 17.390625-.320312h19.210938c2.046875 3.089844-1.679688 42.371094-1.679688 50.199219v230.769531c0 24.402344 9.4375 76.925781-25.765625 83.324219zm-424.5-448.226563c7.820313-.984375 15.734375-.984375 23.554688 0h7.039062v32.851563c0 1.855469 12.15625.175781 12.15625-3.257813v-29.59375h164.109375v32.851563c0 1.636719 12.152344 0 12.152344-3.257813v-29.59375h60.070312c34.558594 0 69.398438-1.101562 104.078126-.445312v33.296875c0 2.097656 12.15625.34375 12.15625-3.257813v-29.753906c2.28125.074219 4.566406.066406 6.839843.160156 16.359375.6875 28.6875-1.847656 40.589844 14.191406 12.3125 16.601563 8.25 43.890626 7.671875 64.722657h-467.101562c-10.644532-1.730469-4.199219 3.089843-7.714844-5.3125-8.4375-20.210938 2.667968-67.199219 24.398437-73.601563zm0 0"/><path d="m265.519531 159.042969c-12.253906 0-24.859375-.839844-37.082031.058593-13.15625-.40625-24.152344 9.933594-24.558594 23.089844-.527344 11.316406-3.359375 30.214844 2.292969 40.421875 6.132813 11.003907 18.605469 9.789063 29.265625 9.789063h39.207031c.167969 0 .367188-.070313.542969-.085938h.984375c6.484375-.050781 12.671875-2.726562 17.15625-7.414062 4.480469-4.6875 6.875-10.988282 6.636719-17.472656.386718-10.910157 3.273437-29.511719-2.691406-39.195313-6.824219-11.121094-20.65625-9.191406-31.753907-9.191406zm12.882813 67.148437c-15.601563 1.066406-31.257813 1.066406-46.859375 0-14.882813-2.007812-15.511719-12.316406-15.511719-24.015625 0-10.199219-2.929688-25.179687 4.550781-32.734375 6.570313-6.640625 16.410157-4.195312 25.617188-4.195312 8.898437-.601563 17.832031-.601563 26.730469 0 15.3125 2.148437 14.882812 13.941406 14.882812 25.574218 0 8.863282 3.8125 33.136719-9.410156 35.394532zm0 0"/><path d="m371.597656 233.535156h39.203125c.933594-.011718 1.859375-.199218 2.722657-.554687 14.265624-2.886719 20.429687-12.144531 20.804687-26.859375.277344-10.625 3.023437-28.496094-2.851563-38.257813-7.136718-11.867187-21.757812-9.910156-33.507812-9.910156-11.945312 0-24.441406-1.160156-36.320312 0-6.445313.167969-12.558594 2.910156-16.972657 7.613281-4.414062 4.703125-6.765625 10.976563-6.527343 17.421875-.4375 11.265625-3.355469 30.417969 2.855468 40.660157 6.664063 11.085937 19.453125 9.886718 30.59375 9.886718zm-11.15625-67.148437c6.203125-.828125 12.488282-.828125 18.691406 0 9.203126-.566407 18.429688-.566407 27.632813 0 15.292969 1.945312 15.273437 13.175781 15.273437 24.886719 0 8.300781 3.695313 31.9375-10.070312 33.785156-14.6875 0-32.902344 3.144531-47.164062 0-14.257813-3.148438-14.433594-13.238282-14.433594-24.886719.023437-10.234375-3.804688-29.195313 10.070312-33.785156zm0 0"/><path d="m101.34375 233.140625h39.332031c.472657.035156.945313.035156 1.417969 0 6.804688-.265625 13.195312-3.328125 17.667969-8.464844 4.46875-5.136719 6.621093-11.886719 5.945312-18.664062.273438-10.683594 3.035157-28.410157-2.789062-38.023438-6.890625-11.355469-20.597657-9.652343-31.894531-9.652343-12.269532 0-24.84375-.839844-37.089844 0-6.550782-.078126-12.851563 2.515624-17.445313 7.183593-4.59375 4.671875-7.085937 11.011719-6.894531 17.5625-.4375 11.179688-3.167969 29.324219 2.324219 39.550781 6.050781 11.347657 18.488281 10.507813 29.425781 10.507813zm-14.269531-64.730469c6.714843-4.542968 17.066406-2.417968 25.03125-2.417968 9.117187-.507813 18.257812-.507813 27.378906 0 14.65625 1.679687 14.007813 14.335937 14.007813 25.398437 0 9.460937 3.742187 32.230469-9.953126 34.085937-15.902343.941407-31.847656.941407-47.75 0-14.378906-1.679687-14.011718-14.351562-14.011718-25.398437-.007813-8.921875-2.996094-26.054687 5.289062-31.667969zm0 0"/><path d="m235.648438 342.28125h39.3125c.480468.042969.960937.042969 1.4375 0 6.804687-.265625 13.203124-3.332031 17.671874-8.46875 4.472657-5.140625 6.621094-11.898438 5.9375-18.675781.277344-10.695313 3.03125-28.421875-2.792968-38.039063-6.902344-11.375-20.589844-9.671875-31.894532-9.671875-12.28125 0-24.847656-.839843-37.101562 0-6.550781-.078125-12.851562 2.519531-17.445312 7.195313-4.59375 4.671875-7.085938 11.015625-6.894532 17.566406-.429687 11.1875-3.15625 29.328125 2.332032 39.558594 6.050781 11.355468 18.484374 10.535156 29.4375 10.535156zm-14.269532-64.738281c6.714844-4.535157 17.0625-2.410157 25.027344-2.410157 9.121094-.503906 18.261719-.503906 27.382812 0 14.644532 1.679688 13.992188 14.269532 13.992188 25.363282 0 9.476562 3.75 32.230468-9.964844 34.070312-15.898437.9375-31.839844.9375-47.742187 0-14.371094-1.679687-13.992188-14.320312-13.992188-25.367187-.007812-8.921875-3.003906-26.042969 5.289063-31.65625zm0 0"/><path d="m399.796875 268.082031c-12.261719 0-24.859375-.839843-37.089844.058594-6.328125-.191406-12.46875 2.144531-17.074219 6.492187-4.601562 4.347657-7.285156 10.34375-7.460937 16.671876-.519531 11.332031-3.355469 30.21875 2.292969 40.425781 6.136718 11.035156 18.589844 9.859375 29.292968 9.859375h39.207032c.140625 0 .328125-.058594.484375-.074219.347656.019531.695312.019531 1.042969 0 6.496093-.066406 12.6875-2.761719 17.164062-7.464844 4.476562-4.707031 6.859375-11.023437 6.605469-17.515625.378906-10.910156 3.273437-29.519531-2.703125-39.222656-6.839844-11.152344-20.640625-9.230469-31.761719-9.230469zm12.84375 67.148438c-15.589844 1.050781-31.230469 1.050781-46.820313 0-14.878906-1.992188-15.492187-12.246094-15.492187-23.9375 0-10.191407-2.9375-25.183594 4.566406-32.734375 6.578125-6.609375 16.433594-4.148438 25.617188-4.148438 8.902343-.597656 17.835937-.597656 26.738281 0 15.292969 2.132813 14.859375 13.867188 14.859375 25.5 0 8.921875 3.835937 33.128906-9.46875 35.34375zm0 0"/><path d="m129.269531 266.664062c-11.945312 0-24.441406-1.152343-36.320312 0-6.480469.199219-12.609375 2.988282-17.019531 7.742188-4.40625 4.753906-6.726563 11.078125-6.4375 17.554688-.445313 11.363281-3.292969 30.511718 2.902343 40.851562 6.714844 11.253906 19.457031 10.199219 30.703125 10.199219h39.207032c.929687-.007813 1.847656-.199219 2.703124-.5625 14.320313-2.914063 20.378907-12.355469 20.757813-27.136719.273437-10.734375 3.003906-28.597656-2.90625-38.453125-7.191406-11.992187-21.679687-10.195313-33.589844-10.195313zm14.042969 67.148438c-14.722656 0-32.871094 3.113281-47.171875 0-14.160156-3.074219-14.269531-12.828125-14.269531-24.425781 0-10.308594-3.859375-28.949219 10.113281-33.523438 6.203125-.828125 12.488281-.828125 18.695313 0 9.199218-.5625 18.425781-.5625 27.628906 0 15.210937 1.921875 15.160156 12.765625 15.160156 24.425781-.042969 8.382813 3.699219 31.667969-10.15625 33.523438zm0 0"/><path d="m263.605469 375.9375c-11.941407 0-24.441407-1.160156-36.316407 0-6.472656.179688-12.601562 2.941406-17.019531 7.675781-4.414062 4.730469-6.75 11.035157-6.484375 17.503907-.433594 11.324218-3.296875 30.476562 2.886719 40.765624 6.714844 11.207032 19.472656 10.074219 30.671875 10.074219h39.207031c.929688-.003906 1.851563-.191406 2.710938-.554687 14.265625-2.894532 20.394531-12.261719 20.78125-27.027344.277343-10.691406 3.011719-28.535156-2.886719-38.367188-7.160156-11.925781-21.730469-10.070312-33.550781-10.070312zm14.042969 67.148438c-14.714844 0-32.886719 3.121093-47.171876 0-14.285156-3.125-14.359374-13.003907-14.359374-24.636719 0-10.265625-3.84375-29.046875 10.070312-33.632813 6.203125-.820312 12.488281-.820312 18.691406 0 9.203125-.5625 18.429688-.5625 27.632813 0 15.242187 1.941406 15.207031 12.953125 15.207031 24.636719.011719 8.34375 3.738281 31.777344-10.070312 33.632813zm0 0"/><path d="m397.867188 375.820312c-11.941407 0-24.441407-1.148437-36.316407 0-6.484375.1875-12.625 2.964844-17.042969 7.71875-4.417968 4.75-6.742187 11.074219-6.460937 17.554688-.4375 11.347656-3.289063 30.492188 2.90625 40.824219 6.714844 11.238281 19.453125 10.164062 30.695313 10.164062h39.203124c.929688-.007812 1.847657-.199219 2.703126-.5625 14.269531-2.902343 20.378906-12.328125 20.765624-27.101562.277344-10.726563 3.003907-28.589844-2.902343-38.433594-7.152344-11.976563-21.65625-10.164063-33.550781-10.164063zm14.042968 67.148438c-14.722656 0-32.867187 3.113281-47.171875 0-14.160156-3.082031-14.320312-12.867188-14.320312-24.484375 0-10.300781-3.859375-28.976563 10.074219-33.574219 6.203124-.828125 12.488281-.828125 18.691406 0 9.203125-.566406 18.429687-.566406 27.632812 0 15.214844 1.921875 15.164063 12.816406 15.164063 24.484375.035156 8.390625 3.777343 31.71875-10.070313 33.574219zm0 0"/><path d="m129.269531 375.785156c-11.945312 0-24.441406-1.15625-36.320312 0-6.480469.195313-12.609375 2.984375-17.019531 7.738282-4.410157 4.75-6.730469 11.074218-6.4375 17.550781-.445313 11.367187-3.292969 30.511719 2.902343 40.851562 6.714844 11.257813 19.457031 10.191407 30.703125 10.191407h39.207032c.929687-.003907 1.847656-.191407 2.703124-.554688 14.269532-2.914062 20.378907-12.355469 20.757813-27.136719.273437-10.734375 3.003906-28.597656-2.90625-38.449219-7.191406-11.996093-21.6875-10.191406-33.589844-10.191406zm14.042969 67.148438c-14.722656 0-32.871094 3.105468-47.171875 0-14.160156-3.082032-14.269531-12.832032-14.269531-24.433594 0-10.304688-3.859375-28.949219 10.113281-33.574219 6.203125-.820312 12.488281-.820312 18.695313 0 9.199218-.5625 18.425781-.5625 27.628906 0 15.210937 1.929688 15.160156 12.777344 15.160156 24.433594-.042969 8.425781 3.699219 31.710937-10.15625 33.574219zm0 0"/></g></svg>