<svg height="509pt" viewBox="0 -4 509.55201 509" width="509pt" xmlns="http://www.w3.org/2000/svg"><path d="m411.511719 368.140625c-1.929688 0-3.621094-1.296875-4.121094-3.160156-.5-1.867188.316406-3.832031 1.988281-4.800781l89.601563-51.710938c1.898437-1.101562 4.320312-.582031 5.601562 1.199219s1.003907 4.246093-.644531 5.695312l-26.523438 23.398438 21.546876-12.433594c1.84375-1.050781 4.183593-.585937 5.484374 1.089844 1.300782 1.679687 1.171876 4.058593-.304687 5.585937l-11.179687 11.40625 5.976562-3.453125c2.023438-1.0625 4.527344-.335937 5.671875 1.644531 1.140625 1.980469.523437 4.507813-1.40625 5.734376l-33.007813 19.054687c-1.84375 1.066406-4.191406.605469-5.5-1.074219-1.308593-1.683594-1.175781-4.070312.3125-5.597656l11.179688-11.410156-31.464844 18.167968c-1.898437 1.101563-4.320312.582032-5.601562-1.199218s-1.003906-4.246094.644531-5.695313l26.589844-23.441406-52.675781 30.414063c-.65625.386718-1.40625.589843-2.167969.585937zm0 0" fill="#5e9cea"/><path d="m392.011719 500.800781c-1.554688 0-2.988281-.851562-3.738281-2.21875-.746094-1.363281-.691407-3.03125.148437-4.34375l5.878906-9.257812-9.199219 5.308593c-1.839843 1.050782-4.167968.589844-5.476562-1.074218-1.304688-1.667969-1.1875-4.039063.269531-5.574219l3.246094-3.363281-4.695313 2.707031c-1.867187 1.105469-4.265624.636719-5.578124-1.09375-1.308594-1.730469-1.113282-4.167969.457031-5.664063l6.101562-5.90625-8.214843 4.734376c-1.875 1.148437-4.308594.6875-5.632813-1.066407-1.324219-1.75-1.101563-4.21875.511719-5.707031l12.664062-12.132812-16.265625 9.386718c-1.917969 1.085938-4.351562.53125-5.609375-1.28125-1.257812-1.808594-.929687-4.28125.761719-5.699218l7.167969-5.828126-9.097656 5.246094c-1.917969 1.109375-4.367188.5625-5.632813-1.257812-1.265625-1.820313-.925781-4.308594.777344-5.722656l14.167969-11.671876-17.28125 9.949219c-1.914063 1.097657-4.351563.550781-5.617188-1.257812-1.265625-1.808594-.941406-4.28125.746094-5.707031l24.335937-20.480469-29.117187 16.8125c-1.929688 1.117187-4.394532.558593-5.65625-1.285157-1.261719-1.839843-.886719-4.34375.851562-5.738281l28.273438-22.765625-33.160156 19.148438c-1.96875 1.140625-4.488282.535156-5.726563-1.375-1.234375-1.914063-.75-4.460938 1.101563-5.785156l11.46875-8.234376-13.65625 7.894532c-2 1.164062-4.566407.515625-5.777344-1.457032-1.214844-1.976562-.628906-4.554687 1.316406-5.816406l48.800781-31.785156-52.375 30.226562c-1.996093 1.097657-4.503906.433594-5.695312-1.503906-1.191407-1.941406-.648438-4.476562 1.230469-5.757812l59.136718-38.574219-63.222656 36.507813c-2.019531 1.21875-4.640625.570312-5.859375-1.445313-1.21875-2.019531-.570313-4.640625 1.445313-5.859375l17.792968-11.238281-19.839844 11.453125c-2.015624 1.160156-4.589843.492187-5.789062-1.5-1.199219-1.996094-.578125-4.582032 1.394531-5.816406l10.351563-6.492188-12.144532 7.003906c-2 1.203125-4.597656.570313-5.824218-1.417968-1.222656-1.988282-.625-4.589844 1.34375-5.84375l84.226562-55.167969-89.558594 51.6875c-1.996093 1.070312-4.480468.390625-5.660156-1.542969-1.175781-1.933594-.636718-4.453125 1.230469-5.734375l66.21875-42.4375-70.144531 40.5c-1.996094 1.082031-4.488282.414063-5.675782-1.523437-1.183593-1.9375-.640624-4.464844 1.230469-5.746094l85.222657-55.050782-105.941407 61.125c-2.007812 1.109376-4.535156.425782-5.714843-1.542968-1.183594-1.96875-.59375-4.519532 1.328124-5.769532l23.1875-14.378906-37.582031 21.691406c-2 1.070313-4.492187.386719-5.664062-1.558593-1.171875-1.941407-.617188-4.464844 1.261719-5.738281l86.339843-54.40625-106.898437 61.703124c-2.003906 1.140626-4.550782.484376-5.75-1.484374-1.203125-1.96875-.625-4.53125 1.304687-5.792969l147.371094-94.722657-176.675781 102c-2 1.085938-4.5.40625-5.679688-1.539062-1.179687-1.945312-.625-4.476562 1.261719-5.75l161.007813-102.21875-189.738282 109.507812c-2.011718 1.109376-4.539062.425782-5.71875-1.542968-1.179687-1.96875-.59375-4.519532 1.332032-5.769532l144.679687-89.96875-168.574219 97.28125c-2.007812 1.058594-4.492187.359376-5.65625-1.589843-1.160156-1.953125-.589844-4.46875 1.296875-5.730469l134.945313-83.066406-156.570313 90.386718c-2.011719 1.089844-4.523437.402344-5.699219-1.5625-1.171874-1.964843-.585937-4.507812 1.332032-5.757812l167.371094-103.152344-191.410157 110.472656c-2.011719 1.074219-4.515625.378907-5.679687-1.585937-1.167969-1.960937-.582032-4.492187 1.328125-5.742187l165.109375-101.046876-187.800782 108.375c-2.011718 1.074219-4.515624.378907-5.679687-1.585937-1.164063-1.960937-.582031-4.492187 1.328125-5.742187l173.875-106.0625-185.234375 106.949218c-2.03125 1.195313-4.644531.515625-5.839844-1.515625-1.195312-2.03125-.515625-4.648437 1.515625-5.839843l15.886719-9.507813-15.109375 8.722656c-2.023438 1.125-4.578125.433594-5.753906-1.5625-1.175782-1.992187-.546875-4.558593 1.417968-5.785156l91.042969-54.792969-87.316406 50.40625c-2.007813 1.046875-4.484375.339844-5.636719-1.609375-1.15625-1.949219-.585937-4.460937 1.292969-5.722656l174.328125-106-169.984375 98.117187c-2.03125 1.195313-4.644531.515626-5.839844-1.515624-1.195312-2.03125-.515625-4.644532 1.515625-5.839844l4.1875-2.492188c-2.046875 1.109375-4.605468.371094-5.746094-1.65625-1.144531-2.027344-.453124-4.597656 1.558594-5.777344l46.660156-27.980468-42.335937 24.449218c-2.03125 1.195313-4.648437.519532-5.84375-1.511718s-.519531-4.648438 1.511719-5.84375l85.109375-51.199219-80.777344 46.605469c-2.015625 1.082031-4.527344.378906-5.691406-1.59375-1.160157-1.972656-.558594-4.511719 1.367187-5.75l16.117188-9.667969-11.792969 6.824219c-2.015625 1.097656-4.539063.402344-5.707031-1.574219-1.171875-1.976563-.566406-4.523437 1.363281-5.765625l127.394531-77.457031-123.058594 71.050781c-2.011718 1.089844-4.523437.398438-5.695312-1.566406-1.175781-1.964844-.589844-4.503906 1.328125-5.753906l182.773437-113.144532-178.40625 103.003906c-2.007812 1.109376-4.535156.425782-5.714843-1.542968-1.183594-1.96875-.59375-4.515625 1.328125-5.769532l176.640625-110.199218-172.253907 99.4375c-2.015624 1.117187-4.550781.429687-5.730468-1.550782-1.179688-1.980468-.570313-4.539062 1.371094-5.777343l104.0625-64-99.703126 57.53125c-2.015624 1.097656-4.539062.402343-5.710937-1.574219-1.167969-1.976562-.5625-4.523438 1.367187-5.765625l22.878907-13.90625-18.535157 10.699219c-2.007812 1.046875-4.484374.339844-5.640624-1.609375-1.152344-1.949219-.585938-4.460938 1.296874-5.722657l14.269532-8.695312-9.925782 5.726562c-2.015624 1.117188-4.550781.429688-5.730468-1.550781-1.179688-1.980469-.570313-4.539062 1.371094-5.777343l32.058593-19.628907-27.699219 15.96875c-2.019531 1.164063-4.597656.488281-5.792968-1.511719-1.207032-1.988281-.601563-4.578124 1.363281-5.820312l106.378906-67.414062-101.964843 58.882812c-2.003907 1.054688-4.484376.363281-5.648438-1.578125-1.167969-1.941406-.613281-4.457031 1.261719-5.726563l51.199219-31.949218-46.796876 27.03125c-1.992187 1.117187-4.511718.464844-5.710937-1.480469-1.203125-1.945313-.65625-4.488281 1.230469-5.773437l109.117187-72.054688-104.636719 60.410156c-1.988281 1.132813-4.515624.496094-5.730468-1.445312-1.210938-1.941406-.679688-4.492188 1.207031-5.785156l94.40625-63.769532-89.882813 51.890625c-2.003906 1.105469-4.523437.429688-5.707031-1.53125-1.183593-1.957031-.613281-4.5 1.296875-5.761719l4.683594-2.972656-.273438.148438c-1.992187 1.257812-4.628906.664062-5.890624-1.328125-1.261719-1.996094-.667969-4.632813 1.324218-5.894531l63.421875-44.039063-58.878906 33.980469c-1.964844 1.132812-4.46875.535156-5.707031-1.363282-1.238282-1.894531-.78125-4.429687 1.046875-5.769531l53.035156-38.90625-48.351563 27.9375c-1.980468 1.136719-4.507812.507813-5.726562-1.425781s-.699219-4.480469 1.179688-5.78125l7.832031-5.386719-3.285157 1.894531c-1.917968 1.089844-4.351562.535157-5.609374-1.277343-1.257813-1.8125-.925782-4.285157.761718-5.703125l28.597656-23.613282-23.75 13.65625c-1.875.992188-4.195312.457032-5.445312-1.257812s-1.050781-4.089844.472656-5.570312l13.164063-11.777344-8.191407 4.730468c-1.707031.988282-3.871093.671876-5.230468-.761718s-1.554688-3.609375-.476563-5.265625l6.980469-10.707031c-1.808594.398437-3.664062-.433594-4.566406-2.046876-1.175782-2.039062-.480469-4.640624 1.554687-5.820312l13.925781-8.046875c1.707032-.984375 3.863282-.667969 5.21875.761719 1.355469 1.429687 1.558594 3.597656.488282 5.253906l-6.722656 10.324219 28.492187-16.417969c1.875-.996094 4.195313-.457031 5.445313 1.257812 1.25 1.714844 1.050781 4.089844-.46875 5.570313l-13.175782 11.808594 32.324219-18.636719c1.917969-1.089844 4.351563-.535156 5.609375 1.277344s.925781 4.285156-.765625 5.703125l-28.578125 23.570312 52.960938-30.550781c1.976562-1.089844 4.460937-.449219 5.664062 1.460938 1.207031 1.90625.714844 4.425781-1.117188 5.742187l-7.773437 5.339844 21.757813-12.542969c1.960937-1.105469 4.445312-.5 5.671874 1.386719 1.230469 1.882812.785157 4.398437-1.019531 5.746093l-53.007812 38.878907 79.734375-46.011719c1.96875-1.066406 4.433594-.429688 5.632812 1.464844 1.203125 1.890625.738282 4.390625-1.066406 5.71875l-63.414062 44.015625 88.78125-51.199219c2.003906-1.085938 4.5-.40625 5.683593 1.539062 1.179688 1.945313.625 4.476563-1.261719 5.75l-4.632812 2.941407 17.730469-10.230469c1.980469-1.085938 4.46875-.4375 5.667969 1.476562 1.199218 1.914063.699218 4.433594-1.144532 5.742188l-94.429687 63.777344 123.015625-70.996094c1.988281-1.070312 4.464844-.40625 5.652344 1.511719 1.1875 1.921875.671874 4.433593-1.171876 5.734375l-109.082031 72.011718 137.292969-79.257812c2.003906-1.054688 4.484375-.363281 5.648438 1.578125 1.167968 1.941406.613281 4.453125-1.261719 5.726563l-51.21875 31.949218 68.105469-39.253906c2.007812-1.148438 4.566406-.484375 5.765624 1.492188 1.199219 1.980468.601563 4.554687-1.34375 5.804687l-106.429687 67.414063 129.425781-74.710938c2.023438-1.207031 4.644532-.542969 5.851563 1.480469 1.203125 2.023437.542969 4.644531-1.480469 5.851562l-32.113281 19.648438 46.78125-26.980469c2.011719-1.074219 4.515625-.378906 5.679687 1.585938 1.164063 1.960937.578125 4.492187-1.328125 5.746093l-14.148437 8.617188 27.628906-15.949219c2.023438-1.152344 4.597656-.472656 5.785156 1.53125 1.1875 2 .550782 4.585938-1.429687 5.808594l-22.777344 13.8125 36.691406-21.152344c2.011719-1.058594 4.496094-.359375 5.65625 1.589844 1.164063 1.953125.59375 4.46875-1.292969 5.730468l-104.183593 64.085938 123.722656-71.40625c2.003906-1.054688 4.484375-.363281 5.648437 1.578125 1.167969 1.941406.613282 4.453125-1.261718 5.726563l-176.570313 110.148437 203.484375-117.453125c2.003906-1.042969 4.476563-.34375 5.632813 1.597656 1.160156 1.9375.605469 4.445313-1.261719 5.714844l-182.800781 113.128906 208.664062-120.441406c2.023438-1.152344 4.59375-.472656 5.78125 1.53125 1.1875 2 .550781 4.585938-1.429687 5.808594l-127.386719 77.40625 146.851563-84.746094c2.015624-1.046875 4.496093-.335938 5.648437 1.621094 1.152344 1.960937.566406 4.476562-1.332031 5.726562l-16.015625 9.582032 24.652343-14.242188c2.023438-1.125 4.574219-.433594 5.75 1.558594 1.179688 1.996094.550782 4.5625-1.414062 5.789062l-85.085938 51.199219 87.097657-50.269531c2.019531-1.082032 4.53125-.375 5.691406 1.597656 1.164063 1.972656.5625 4.507812-1.363281 5.75l-46.421875 27.828125 43.691406-25.21875c.96875-.574219 2.128906-.734375 3.21875-.449219 1.09375.289063 2.023437 1 2.582031 1.980469 1.195313 2.015625.535156 4.617187-1.472656 5.828125l-4.421875 2.636719.09375-.054688c2.007813-1.042969 4.484375-.335937 5.640625 1.613281 1.152344 1.945313.585938 4.457032-1.296875 5.71875l-174.082031 105.890626 169.738281-98.007813c2.023437-1.125 4.574219-.433594 5.75 1.5625 1.175781 1.992187.550781 4.5625-1.414063 5.785156l-91.171874 54.855469 86.835937-50.125c2.019531-1.082031 4.53125-.378906 5.691406 1.59375 1.160157 1.972656.558594 4.511719-1.363281 5.75l-15.917969 9.523438 11.589844-6.6875c2.023437-1.152344 4.59375-.472657 5.78125 1.53125 1.1875 2 .550781 4.585937-1.429687 5.804687l-173.984376 106.148437 169.640626-97.929687c2.011718-1.074219 4.515624-.375 5.679687 1.585937 1.164063 1.960938.582031 4.492188-1.328125 5.746094l-165.195312 101.144532 160.84375-92.859376c2.011718-1.089843 4.527343-.402343 5.699218 1.5625 1.171875 1.964844.585938 4.507813-1.328125 5.757813l-167.355469 103.167969 162.984376-94.085938c2.007812-1.058594 4.496093-.359375 5.65625 1.589844 1.160156 1.949219.59375 4.46875-1.296876 5.730469l-134.925781 83.046875 130.558594-75.375c2.015625-1.136719 4.570313-.457032 5.757813 1.527344 1.1875 1.984374.574218 4.554687-1.378907 5.792968l-144.683593 90.011719 140.3125-81c2-1.054687 4.472656-.371094 5.644531 1.5625 1.167969 1.933594.628906 4.445313-1.230469 5.726563l-160.949219 102.21875 156.535157-90.34375c2-1.097657 4.511718-.429688 5.699218 1.519531s.632813 4.488281-1.261718 5.761719l-147.34375 94.71875 142.90625-82.507813c2.003906-1.070313 4.492187-.386719 5.664062 1.558594 1.171875 1.941406.621094 4.464843-1.261719 5.738281l-86.5 54.449219 82.0625-47.375c2.015625-1.136719 4.570313-.460938 5.757813 1.527343 1.1875 1.984376.574218 4.554688-1.378906 5.792969l-23.039063 14.292969 18.671875-10.777344c1.996094-1.082031 4.488281-.414062 5.675781 1.523438 1.183594 1.9375.640625 4.464844-1.230469 5.746094l-85.164062 55.007812 80.71875-46.601562c1.996094-1.070313 4.480469-.390626 5.65625 1.542968 1.179688 1.9375.636719 4.453125-1.230469 5.734375l-66.148437 42.429688 61.746094-35.652344c2-1.136719 4.539062-.484375 5.742187 1.472656 1.207031 1.957031.644531 4.515625-1.269531 5.789063l-84.222656 55.175781 79.75-46.078125c2.015624-1.164062 4.589843-.496094 5.789062 1.496094 1.199219 1.996094.578125 4.582031-1.394531 5.816406l-10.351563 6.492188 5.976563-3.414063c2.003906-1.101563 4.519531-.425781 5.707031 1.53125 1.183594 1.960937.609375 4.503906-1.296875 5.765625l-17.722656 11.203125 13.3125-7.679687c1.992187-1.097657 4.5-.433594 5.691406 1.503906 1.191406 1.941406.652344 4.476562-1.230469 5.757812l-59.273437 38.691406 54.777343-31.574218c2-1.117188 4.523438-.457032 5.71875 1.496094 1.195313 1.953124.636719 4.503906-1.265624 5.777343l-93.363282 60.808594c.296875.28125.558594.601563.769532.953125 1.238281 1.910156.757812 4.457031-1.09375 5.785156l-11.46875 8.234375 6.828124-3.941406c1.925782-1.089844 4.367188-.523437 5.621094 1.304687 1.25 1.824219.894532 4.308594-.816406 5.710938l-28.253906 22.722656 23.472656-13.550781c1.917969-1.097656 4.351562-.550781 5.617188 1.257813 1.265624 1.808593.945312 4.28125-.742188 5.707031l-24.355469 20.480469 19.480469-11.238282c1.921875-1.089844 4.351562-.535156 5.609375 1.277344 1.261719 1.8125.929687 4.285156-.761719 5.703125l-14.140625 11.65625 9.292969-5.359375c1.921875-1.09375 4.359375-.539062 5.621094 1.277344 1.257812 1.820312.917968 4.296875-.78125 5.710937l-7.058594 5.8125 2.21875-1.273437c1.875-1.144532 4.308594-.683594 5.632812 1.066406 1.324219 1.75 1.101563 4.222656-.511718 5.710938l-12.707032 12.132812 7.585938-4.378906c1.867188-1.105469 4.269531-.636719 5.578125 1.09375 1.3125 1.730468 1.113281 4.167968-.457031 5.664062l-6.074219 5.882813.953125-.582031c1.839844-1.050782 4.171875-.589844 5.476562 1.074218 1.304688 1.667969 1.191407 4.039063-.269531 5.574219l-3.859375 4.011719c1.671875-.316406 3.371094.394531 4.324219 1.800781.953125 1.410156.976563 3.25.0625 4.683594l-5.914063 9.308593.164063-.09375c2.027344-1.058593 4.527344-.332031 5.671875 1.644532 1.144531 1.980468.523438 4.511718-1.40625 5.738281l-15.222656 8.789063c-.644532.355468-1.371094.535156-2.109375.527343zm0 0" fill="#5e9cea"/><path d="m507.519531 20.886719c-8.371093-30.769531-72.457031-17.972657-96.101562-17.972657h-212.675781c-53.648438 0-107.929688-2.386718-161.535157 0-27.863281 1.238282-36.976562 10.710938-36.976562 38.65625v285.195313c0 15.8125-3.15625 31.101563 13.875 38.398437 13.046875 5.554688 33.648437 1.304688 47.292969 1.304688h106.964843c27.980469 0 60.203125-4.554688 87.894531 0 14.957032 2.46875 17.382813 8.902344 30.164063 22.949219l79.359375 87.234375c8.96875 9.855468 19.210938 28.484375 34.613281 25.496094 19.777344-3.828126 13.242188-29.34375 13.242188-43.929688v-91.304688c25.78125 1.859376 65.136719 8.386719 83.960937-5.121093 18.652344-13.378907 9.90625-56.652344 9.90625-75.527344zm-12.355469 320.53125c-3.414062 19.554687-10.359374 19.898437-29.277343 19.898437h-54.410157c-2.269531 0-10.179687.851563-10.179687 4.214844 0 15.035156 7.679687 126.695312-2.917969 129.859375-4.042968 1.203125-34.988281-38.46875-38.238281-42.027344l-64.324219-70.664062c-24.652344-27.101563-34.773437-21.382813-72.917968-21.382813h-173.824219c-45.601563 0-36.453125-36.25-36.453125-71.679687v-184.679688c-.035156-22.117187-11.152344-87.449219 12.988281-96.921875 11.476563-4.503906 34.046875 0 46.242187 0h296.472657c21.429687 0 118.230469-15.46875 126.839843 16.164063v216.632812c0 31.8125 5.503907 69.171875 0 100.585938zm0 0" fill="#262626"/></svg>