<svg id="icons" height="512" viewBox="0 0 60 60" width="512" xmlns="http://www.w3.org/2000/svg"><g fill="#3778c6"><path d="m42.677 36.738a.5.5 0 0 1 -.25-.932l1.952-1.127a.5.5 0 1 1 .5.865l-1.952 1.127a.494.494 0 0 1 -.25.067z"/><path d="m36.677 34.738a.5.5 0 0 1 -.25-.932l1.952-1.127a.5.5 0 1 1 .5.865l-1.952 1.127a.494.494 0 0 1 -.25.067z"/><path d="m32.613 59.47a.5.5 0 0 1 -.277-.916l2.57-1.716-4.139 2.39a.5.5 0 0 1 -.529-.848l5.062-3.391-6.446 3.722a.5.5 0 0 1 -.534-.845l8.826-6.059-10.246 5.913a.5.5 0 0 1 -.53-.847l9.836-6.673-10.846 6.266a.5.5 0 0 1 -.522-.852l7.291-4.75-7.753 4.476a.5.5 0 0 1 -.526-.85l10.395-6.89-10.834 6.252a.5.5 0 0 1 -.525-.852l10.426-6.865-10.7 6.175a.5.5 0 0 1 -.517-.855l4.624-2.934-4.67 2.7a.5.5 0 0 1 -.524-.852l4.918-3.211-5 2.887a.5.5 0 0 1 -.521-.853l4.342-2.811-4.4 2.54a.5.5 0 0 1 -.517-.855l.281-.177-.229.131a.5.5 0 0 1 -.522-.852l5.288-3.443-5.38 3.1a.5.5 0 0 1 -.532-.845l5.678-3.88-5.845 3.37a.5.5 0 0 1 -.524-.851l2.438-1.602-2.45 1.414a.5.5 0 0 1 -.571-.816l.961-.806-.946.545a.5.5 0 0 1 -.589-.8l1.795-1.654-1.9 1.1a.5.5 0 0 1 -.61-.779l2.342-2.44-2.619 1.509a.5.5 0 0 1 -.6-.786l2.049-2.047-2.24 1.293a.5.5 0 0 1 -.608-.781l2.068-2.124-2.282 1.316a.5.5 0 0 1 -.6-.787l1.813-1.8-1.961 1.132a.5.5 0 0 1 -.581-.808l.854-.753-.785.453a.5.5 0 0 1 -.6-.791l1.078-1.046-.666.384a.5.5 0 0 1 -.61-.781l.655-.676a.5.5 0 0 1 -.016-.875l2.013-1.162a.5.5 0 0 1 .609.781l-.062.063 1.059-.613a.5.5 0 0 1 .6.792l-1.077 1.045 1.628-.94a.5.5 0 0 1 .581.808l-.856.755.966-.557a.5.5 0 0 1 .6.787l-1.809 1.8 2.075-1.2a.5.5 0 0 1 .608.781l-2.069 2.126 2.41-1.391a.5.5 0 0 1 .6.786l-2.05 2.047 2.365-1.366a.5.5 0 0 1 .611.78l-2.342 2.439 2.759-1.588a.5.5 0 0 1 .589.8l-1.791 1.651 2.002-1.159a.5.5 0 0 1 .572.816l-.962.806 12.453-7.189a.5.5 0 0 1 .524.85l-2.432 1.6 2.159-1.246a.5.5 0 0 1 .532.845l-5.681 3.889 10.258-5.922a.5.5 0 0 1 .523.852l-5.284 3.44 5.457-3.15a.5.5 0 0 1 .518.855l-.3.189a.5.5 0 0 1 .5.865l-4.337 2.813 3.825-2.208a.5.5 0 0 1 .523.851l-4.917 3.21 9.638-5.563a.5.5 0 0 1 .517.854l-4.63 2.939 4.689-2.707a.5.5 0 0 1 .525.85l-10.428 6.864 10.078-5.818a.5.5 0 0 1 .526.85l-10.392 6.887 9.866-5.7a.5.5 0 0 1 .522.852l-7.291 4.75 6.769-3.902a.5.5 0 0 1 .53.847l-9.841 6.67 9.311-5.375a.5.5 0 0 1 .533.845l-8.827 6.063 8.294-4.788a.5.5 0 0 1 .528.848l-5.048 3.39 4.522-2.611a.5.5 0 0 1 .527.849l-2.581 1.722 1.918-1.106a.5.5 0 0 1 .555.829l-5.4 4.138 4.2-2.423a.5.5 0 0 1 .567.819l-2.608 2.126.434-.25a.5.5 0 1 1 .5.865l-5.776 3.335a.5.5 0 0 1 -.567-.819l2.609-2.131-5.473 3.157a.5.5 0 0 1 -.555-.829l5.395-4.137-8.6 4.966a.5.5 0 0 1 -.254.07z"/><path d="m30.677 33.738a.5.5 0 0 1 -.25-.932l1.952-1.127a.5.5 0 1 1 .5.865l-1.952 1.127a.494.494 0 0 1 -.25.067z"/><path d="m24.03 40.015a.5.5 0 0 1 -.324-.881l1.751-1.489-1.177.678a.5.5 0 0 1 -.568-.818l1.326-1.1-.758.438a.5.5 0 0 1 -.584-.8l2.377-2.135-1.793 1.034a.5.5 0 0 1 -.58-.808l2.124-1.863-1.544.891a.5.5 0 0 1 -.583-.806l2.3-2.043-1.713.988a.5.5 0 0 1 -.567-.819l1.265-1.04-.7.4a.5.5 0 0 1 -.566-.82l1.171-.958-.605.35a.5.5 0 0 1 -.559-.826l.536-.423a.5.5 0 0 1 -.553-.825l1.904-1.64-1.331.769a.5.5 0 0 1 -.574-.814l1.773-1.51-1.2.691a.5.5 0 0 1 -.589-.8l2.608-2.4-2.018 1.164a.5.5 0 0 1 -.567-.82l1.222-1-.655.378a.5.5 0 0 1 -.595-.794l2.546-2.435-1.951 1.127a.5.5 0 0 1 -.579-.81l.867-.756-.288.166a.5.5 0 0 1 -.644-.74l1.086-1.393a.5.5 0 0 1 -.293-.931l1.936-1.119a.5.5 0 0 1 .645.741l-1.009 1.294 2.526-1.458a.5.5 0 0 1 .579.81l-.867.755 1.095-.632a.5.5 0 0 1 .6.8l-2.548 2.435 2.339-1.35a.5.5 0 0 1 .567.819l-1.222 1 .655-.378a.5.5 0 0 1 .589.8l-2.608 2.4 2.015-1.169a.5.5 0 0 1 .574.813l-1.773 1.511 1.2-.692a.5.5 0 0 1 .576.812l-1.907 1.642 1.331-.768a.5.5 0 0 1 .559.826l-.538.424a.5.5 0 0 1 .545.832l-1.169.956.6-.348a.5.5 0 0 1 .567.82l-1.265 1.04.7-.4a.5.5 0 0 1 .583.807l-2.3 2.043 1.712-.988a.5.5 0 0 1 .58.809l-2.123 1.862 1.543-.891a.5.5 0 0 1 .584.805l-2.377 2.135 1.793-1.035a.5.5 0 0 1 .568.818l-1.326 1.1.758-.438a.5.5 0 0 1 .574.814l-1.753 1.491 6.4-3.693a.5.5 0 1 1 .5.865l-11.156 6.435a.493.493 0 0 1 -.25.068z"/></g><path d="m40.1 32.773a4.321 4.321 0 0 0 -3.7 1.09 2.987 2.987 0 0 0 -3.1-2.138 4.655 4.655 0 0 0 -2.569.857v-14.082a13.728 13.728 0 0 0 -.108-3.491c-.807-2.917-5-2.852-6.654-.764-.8 1.006-.686 2.186-.686 3.379v19.876l-2.583-4.117a23.6 23.6 0 0 0 -1.564-2.455c-1.241-1.526-3.465-1.447-5.067-.57a3.25 3.25 0 0 0 -1.438 4.316c.252.55.558 1.082.836 1.62l4.027 7.806 4.072 7.892c1.173 2.274 2.359 4.4 4.64 5.786 2.967 1.809 6.357 1.5 9.678 1.5 3.412 0 6.69-.484 9.36-2.829a10.216 10.216 0 0 0 3.356-6.09 23.991 23.991 0 0 0 .121-3.686v-8.7c-.18-3.378-4.02-3.944-6.115-2.314a3.025 3.025 0 0 0 -2.506-2.886zm5.647 2.851a3.244 3.244 0 0 1 1.529 2.74v6.536c0 2.36.271 4.993-.457 7.27a9.2 9.2 0 0 1 -8.854 6.557c-2.605 0-5.553.35-8.081-.394-5.236-1.539-7.156-7.283-9.424-11.678-2.113-4.1-4.384-8.146-6.353-12.313a3.343 3.343 0 0 1 -.377-1.684 2.191 2.191 0 0 1 3.762-1.558 14.394 14.394 0 0 1 1.759 2.667l4.025 6.433v1.99c0 .1.213.135.265.141a1.4 1.4 0 0 0 .534-.055 1.382 1.382 0 0 0 .49-.219.318.318 0 0 0 .159-.255v-22.009c0-1.209-.009-2.418 0-3.627a3.808 3.808 0 0 1 .255-1.541c1.12-2.565 4.094-.811 4.283 1.365.248 2.861.014 5.837.014 8.706v10.5c0 .191 1.427-.01 1.448-.388a2.8 2.8 0 0 1 .976-2.158 2.1 2.1 0 0 1 2.77.59 4.086 4.086 0 0 1 .805 2.954c0 .191 1.427-.01 1.448-.388.068-1.218.763-2.527 2.178-2.5.974.019 1.844 1.08 2.154 1.893a8.563 8.563 0 0 1 .22 2.994c0 .191 1.427-.01 1.448-.388.088-1.549 1.352-3.117 3.024-2.181z" fill="#262626"/><path d="m12.732 15.938a14.568 14.568 0 0 1 9.126-13.511 14.363 14.363 0 0 1 16.065 4.36 14.832 14.832 0 0 1 3.345 9.275c.008.73 1.471.491 1.464-.124a15.575 15.575 0 0 0 -10.317-14.557 16.159 16.159 0 0 0 -17.395 4.649 15.624 15.624 0 0 0 -3.752 10.032c-.008.728 1.457.494 1.464-.124z" fill="#262626"/><path d="m38.724 15.806a11.378 11.378 0 0 0 -7.752-10.622 12.256 12.256 0 0 0 -12.865 3.494 11.406 11.406 0 0 0 -2.832 7.412c-.008.6 1.443.3 1.45-.18.075-5.683 4.575-10.729 10.454-10.485a10.817 10.817 0 0 1 10.1 10.769c.003.457 1.453.178 1.445-.388z" fill="#262626"/><path d="m29.772 8.988a8.181 8.181 0 0 0 -8.617 2.259 7.416 7.416 0 0 0 -1.881 4.837c-.009.631 1.445.344 1.452-.168.047-3.389 2.626-6.581 6.194-6.48a6.732 6.732 0 0 1 6.354 6.648c.008.635 1.459.339 1.452-.168a7.378 7.378 0 0 0 -4.954-6.928z" fill="#262626"/></svg>