<svg id="icons" height="512" viewBox="0 0 60 60" width="512" xmlns="http://www.w3.org/2000/svg"><g fill="#3778c6"><path d="m45.084 32.185a.5.5 0 0 1 -.372-.834l1.25-1.395a.5.5 0 0 1 -.235-.933l2.292-1.323a.5.5 0 0 1 .622.767l-1.092 1.219 2.894-1.672a.5.5 0 0 1 .5.866l-5.609 3.238a.49.49 0 0 1 -.25.067z"/><path d="m37.127 29.929a.5.5 0 0 1 -.362-.845l1.089-1.143a.5.5 0 0 1 -.127-.918l2.292-1.323a.5.5 0 0 1 .612.778l-.746.783 2.3-1.326a.5.5 0 0 1 .5.866l-5.3 3.062a.5.5 0 0 1 -.258.066z"/><path d="m30.5 59.47a.5.5 0 0 1 -.28-.914l10.851-7.342-13.855 8a.5.5 0 0 1 -.524-.851l11.37-7.463-13.129 7.578a.5.5 0 0 1 -.515-.857l3.564-2.221-4.148 2.395a.5.5 0 0 1 -.523-.852l13.839-9.021-14.829 8.561a.5.5 0 0 1 -.511-.858l.331-.2-.476.273a.5.5 0 0 1 -.521-.852l15.256-9.889-15.742 9.086a.5.5 0 0 1 -.521-.853l15.9-10.278-16.255 9.382a.5.5 0 0 1 -.512-.857l5.486-3.4-5.511 3.181a.5.5 0 0 1 -.519-.854l14.977-9.6-15.277 8.821a.5.5 0 0 1 -.515-.857l7.374-4.591-7.437 4.294a.5.5 0 0 1 -.521-.854l9.956-6.407-10.139 5.853a.5.5 0 0 1 -.524-.851l12.606-8.242-12.906 7.451a.5.5 0 0 1 -.517-.855l7.42-4.705-7.514 4.338a.5.5 0 0 1 -.524-.85l7.141-4.7-7.288 4.208a.5.5 0 0 1 -.529-.847l9.882-6.655-10.169 5.873a.5.5 0 0 1 -.518-.854l1.747-1.108-1.717.991a.5.5 0 0 1 -.558-.826l1.446-1.132-1.449.836a.5.5 0 0 1 -.561-.824l1.588-1.255-1.6.923a.5.5 0 0 1 -.553-.83l.7-.533-.642.371a.5.5 0 0 1 -.571-.816l2.208-1.847-2.3 1.331a.5.5 0 0 1 -.556-.828l.856-.663-.812.469a.5.5 0 0 1 -.573-.815l2.175-1.84-2.286 1.312a.5.5 0 0 1 -.583-.806l2.6-2.319-2.777 1.6a.5.5 0 0 1 -.569-.817l1.749-1.455-1.8 1.038a.5.5 0 0 1 -.572-.815l1.851-1.565-1.917 1.11a.5.5 0 0 1 -.595-.8l2.648-2.521-2.787 1.61a.5.5 0 0 1 -.6-.793l1.971-1.9-1.514.874a.5.5 0 0 1 -.6-.789l.961-.947a.5.5 0 0 1 0-.865l2.178-1.252a.5.5 0 0 1 .6.79l-.248.245 1.663-.961a.5.5 0 0 1 .6.793l-1.97 1.9 2.886-1.667a.5.5 0 0 1 .6.8l-2.651 2.522 3.13-1.813a.5.5 0 0 1 .572.815l-1.847 1.562 2.018-1.166a.5.5 0 0 1 .57.818l-1.753 1.455 1.9-1.1a.5.5 0 0 1 .583.806l-2.6 2.32 2.9-1.677a.5.5 0 0 1 .573.815l-2.17 1.845 2.39-1.379a.5.5 0 0 1 .555.828l-.853.661.895-.517a.5.5 0 0 1 .571.817l-2.204 1.85 2.413-1.4a.5.5 0 0 1 .552.83l-.7.535.73-.421a.5.5 0 0 1 .56.824l-1.582 1.254 1.7-.979a.5.5 0 0 1 .558.826l-1.449 1.131 16.5-9.526a.5.5 0 0 1 .517.856l-1.74 1.1 1.774-1.024a.5.5 0 0 1 .529.848l-9.88 6.653 9.639-5.566a.5.5 0 0 1 .524.852l-7.145 4.707 13.508-7.8a.5.5 0 0 1 .518.855l-7.422 4.706 7.632-4.406a.5.5 0 0 1 .523.851l-12.605 8.24 12.466-7.2a.5.5 0 0 1 .52.853l-9.96 6.411 15.528-8.965a.5.5 0 0 1 .514.857l-7.385 4.6 7.874-4.545a.5.5 0 0 1 .519.854l-14.967 9.6 15.194-8.772a.5.5 0 0 1 .512.858l-5.5 3.407 5.154-2.975a.5.5 0 0 1 .521.853l-15.893 10.269 15.369-8.873a.5.5 0 0 1 .521.852l-15.258 9.89 14.737-8.508a.5.5 0 0 1 .511.859l-.449.276a.5.5 0 0 1 .461.883l-13.843 9.02 13.32-7.69a.5.5 0 0 1 .514.856l-3.574 2.231 3.06-1.766a.5.5 0 0 1 .524.851l-11.369 7.46 10.845-6.261a.5.5 0 0 1 .53.847l-10.85 7.343 10.32-5.959a.5.5 0 0 1 .529.847l-7.331 4.942 6.616-3.82a.5.5 0 0 1 .534.844l-5.807 4.015 4.766-2.751a.5.5 0 0 1 .538.84l-3.6 2.54 2.135-1.232a.5.5 0 0 1 .548.833l-2.1 1.568a.5.5 0 0 1 .325.926l-6.983 4.032a.5.5 0 0 1 -.549-.833l1.868-1.394-4.3 2.483a.5.5 0 0 1 -.538-.84l3.6-2.541-5.857 3.379a.5.5 0 0 1 -.534-.843l5.811-4.018-8.421 4.861a.5.5 0 0 1 -.53-.847l7.325-4.937-10.02 5.784a.5.5 0 0 1 -.245.07z"/><path d="m29.084 29.185a.5.5 0 0 1 -.372-.833l1.251-1.4a.5.5 0 0 1 -.236-.933l2.292-1.319a.5.5 0 0 1 .622.767l-1.092 1.219 2.894-1.672a.5.5 0 0 1 .5.866l-5.609 3.239a.5.5 0 0 1 -.25.066z"/><path d="m21.03 34.469a.5.5 0 0 1 -.3-.9l1.813-1.386-1.26.726a.5.5 0 0 1 -.545-.837l.443-.322a.5.5 0 0 1 -.447-.878l1.123-.838-.574.331a.5.5 0 0 1 -.561-.825l2.663-2.117-2.1 1.214a.5.5 0 0 1 -.564-.822l2.951-2.383-2.392 1.381a.5.5 0 0 1 -.572-.813l3.646-3.079-3.074 1.773a.5.5 0 0 1 -.568-.819l3.359-2.78-2.791 1.611a.5.5 0 0 1 -.559-.826l2.517-1.986-1.958 1.13a.5.5 0 0 1 -.556-.828l2.192-1.705-1.636.945a.5.5 0 0 1 -.551-.832l1.371-1.027-.816.47a.5.5 0 0 1 -.561-.824l2.727-2.175-2.171 1.252a.5.5 0 0 1 -.568-.818l3.334-2.755-2.766 1.6a.5.5 0 0 1 -.544-.838l.428-.311a.5.5 0 0 1 -.44-.877l2.224-1.732-1.668.963a.5.5 0 0 1 -.555-.828l2.094-1.622-1.539.888a.5.5 0 0 1 -.545-.836l.42-.308a.5.5 0 0 1 -.44-.872l2.218-1.808-1.653.954a.5.5 0 0 1 -.579-.81l1.993-1.744-1.4.808a.5.5 0 0 1 -.629-.759l1.389-1.618a.505.505 0 0 1 -.514-.244.5.5 0 0 1 .183-.683l2.31-1.338a.5.5 0 0 1 .629.759l-1.327 1.546 3.278-1.893a.5.5 0 0 1 .579.81l-1.991 1.744 2.63-1.518a.5.5 0 0 1 .566.82l-2.221 1.809 2.318-1.339a.5.5 0 0 1 .546.837l-.3.217a.5.5 0 0 1 .526.845l-2.092 1.62 1.545-.892a.5.5 0 0 1 .557.827l-2.223 1.733 1.668-.964a.5.5 0 0 1 .544.838l-.428.311a.5.5 0 0 1 .452.867l-3.335 2.756 2.767-1.6a.5.5 0 0 1 .561.824l-2.725 2.174 2.164-1.243a.5.5 0 0 1 .551.832l-1.363 1.025.812-.469a.5.5 0 0 1 .556.828l-2.192 1.705 1.636-.945a.5.5 0 0 1 .559.826l-2.519 1.985 1.96-1.131a.5.5 0 0 1 .568.818l-3.359 2.781 2.791-1.611a.5.5 0 0 1 .572.815l-3.646 3.078 3.074-1.775a.5.5 0 0 1 .564.823l-2.951 2.382 2.387-1.378a.5.5 0 0 1 .561.825l-2.662 2.115 2.1-1.212a.5.5 0 0 1 .549.833l-1.123.838.574-.331a.5.5 0 0 1 .545.837l-.444.323a.5.5 0 0 1 .452.875l-1.812 1.386 7.483-4.321a.5.5 0 0 1 .5.867l-14.163 8.176a.493.493 0 0 1 -.25.069z"/></g><path d="m9.215 32.959q3.107 6.205 6.212 12.411c1.422 2.839 2.836 5.683 4.264 8.519a9.767 9.767 0 0 0 4.528 4.611 12.851 12.851 0 0 0 5.7.93h4.545a.941.941 0 0 0 .931 0h1.339c.906 0 1.83.025 2.751.014a.718.718 0 0 0 .458.1 1.254 1.254 0 0 0 .417-.131 15.346 15.346 0 0 0 1.536-.137 13.75 13.75 0 0 0 11.83-13.36c.037-3.82 0-7.643 0-11.464 0-1.473.194-3.135-.5-4.484a4.787 4.787 0 0 0 -7.083-1.4 4.6 4.6 0 0 0 -.539.492 4 4 0 0 0 -.094-.424 4.448 4.448 0 0 0 -3.006-2.9 5.072 5.072 0 0 0 -5.131 1.6 4.032 4.032 0 0 0 -.337-.7 4.4 4.4 0 0 0 -3.367-2.045 5.16 5.16 0 0 0 -3.942 1.359v-18.212c0-1.537.252-3.461-.494-4.857-1.793-3.351-7.028-2.872-8.564.458a9.866 9.866 0 0 0 -.395 4.092v16.377q0 4.314 0 8.63l-4.314-7.015c-.879-1.423-1.633-2.963-3.349-3.523-2.617-.861-5.855.734-6.292 3.576a5.476 5.476 0 0 0 .852 3.4zm-.2-9.841c1.557-1.222 3.567-.357 4.541 1.154.194.3.374.613.562.918q2.851 4.638 5.7 9.276l.451.734v1.884c0 .633 1.453.341 1.453-.168v-31.45a6.063 6.063 0 0 1 .129-1.56 3.138 3.138 0 0 1 5.624-1.081c1.042 1.341.8 3.163.8 4.755v21.5c0 .63 1.431.346 1.452-.168.092-2.243 2.054-4.285 4.388-3.17 1.734.828 2.16 2.588 2.16 4.338 0 .63 1.431.346 1.452-.168.115-2.818 3.1-4.675 5.356-2.481 1.31 1.274 1.192 2.982 1.192 4.649 0 .63 1.431.346 1.452-.168.07-1.705 1.165-3.476 3.053-3.482a3.727 3.727 0 0 1 3.44 3.25 21.557 21.557 0 0 1 .054 3.438c0 3.581.01 7.162 0 10.743-.018 6.252-4.349 12.03-10.822 12.65-.237.023-.478.024-.716.041v-4.6a.563.563 0 0 0 -.678-.5c-.293.028-.794.231-.794.6v4.586c-1.171.039-2.348.039-3.528.015v-8.7c0-.793-1.472-.606-1.472.092v8.572c-1.083-.027-2.162-.052-3.229-.052h-.311v-4.759c0-.291-1.448-.069-1.448.388v4.369a9.956 9.956 0 0 1 -2.883-.384 8.92 8.92 0 0 1 -5.22-4.613c-1.174-2.3-2.314-4.624-3.471-6.935-3.125-6.243-6.285-12.47-9.376-18.73-.79-1.601-.856-3.571.688-4.783z" fill="#262626"/></svg>