<svg height="512" viewBox="0 0 61 60" width="512" xmlns="http://www.w3.org/2000/svg"><g id="011---Menu" fill="none"><path id="Path" d="m11.578 59.471c-.2242747.0003879-.4213699-.1486096-.4821521-.3644912-.0607822-.2158815.0296209-.4458251.2211521-.5625088l12.692-7.738-14.865 8.582c-.2372063.141661-.54433895.0642063-.68599998-.173s-.06420631-.544339.17299998-.686l21.694-13.377-23.693 13.679c-.23583577.1260453-.52910097.0442222-.66561588-.1857118-.13651492-.2299339-.06795177-.5265795.15561588-.6732882l17.435-10.623-18.426 10.637c-.23628449.1306359-.5336041.0500916-.67163931-.181948s-.06692381-.5317553.16063931-.677052l20.615-12.593-21.316 12.307c-.23628449.1306359-.5336041.0500916-.67163931-.181948s-.06692381-.5317553.16063931-.677052l24.883-15.282-25.325 14.622c-.2353357.1240261-.52657993.04207-.66269982-.1864836-.13611989-.2285535-.06945065-.5236725.15169982-.6715164l26.286-16.157-26.317 15.193c-.23583577.1260453-.52910097.0442222-.66561588-.1857118-.13651492-.2299339-.06795177-.5265795.15561588-.6732882l22.6-13.788-22.234 12.835c-.23698876.1350471-.53848394.055235-.67761558-.1793791-.13913163-.2346142-.06455352-.5374465.16761558-.6806209l19.93-12.109-19.42 11.21c-.23803473.1402803-.54471967.0610347-.685-.177s-.06103473-.5447197.177-.685l7.791-4.677-7.283 4.21c-.2372063.1413849-.54411508.0637063-.68549997-.1735s-.06370631-.5441151.17349997-.6855l28.441-17.541-27.929 16.127c-.23628449.1306359-.5336041.0500916-.67163931-.181948s-.06692381-.5317553.16063931-.677052l24.913-15.254-24.402 14.086c-.23775858.1405564-.54444351.0617586-.68499997-.176-.14055647-.2377586-.0617586-.5444435.17599997-.685l17.068-10.339-16.559 9.565c-.23571786.1278172-.53029699.0469384-.66770199-.1833224-.13740501-.2302607-.06871185-.5279174.15570199-.6746776l26.458-16.251-25.946 14.979c-.23583577.1260453-.52910097.0442222-.66561588-.1857118-.13651492-.2299339-.06795177-.5265795.15561588-.6732882l20.974-12.776-20.464 11.814c-.23638246.1285498-.53210687.0469768-.6691568-.184581-.13704993-.2315579-.06627089-.5300498.1601568-.675419l17.162-10.412-16.653 9.615c-.23698876.1350471-.53848394.055235-.67761558-.1793791-.13913163-.2346142-.06455352-.5374465.16761558-.6806209l19.537-11.906-19.027 10.984c-.23628449.1306359-.5336041.0500916-.67163931-.181948s-.06692381-.5317553.16063931-.677052l20.361-12.453-19.85 11.46c-.23693016.1419372-.54406281.0649301-.68599999-.172-.14193717-.2369302-.06493016-.5440628.17199999-.686l24.734-15.347-24.22 13.982c-.23520866.125628-.52761522.0445694-.66457305-.1842276-.13695782-.228797-.07026696-.5248112.15157305-.6727724l20.155-12.473-19.642 11.34c-.23571786.1278172-.53029699.0469384-.66770199-.1833224-.13740501-.2302607-.06871185-.5279174.15570199-.6746776l13.888-8.532-13.376 7.723c-.23628449.1306359-.5336041.0500916-.67163931-.181948s-.06692381-.5317553.16063931-.677052l9.722-5.955-9.211 5.318c-.23693016.1419372-.5440628.0649301-.68599998-.172-.14193717-.2369302-.06493016-.5440628.17199998-.686l12.534-7.766-12.02 6.936c-.23402298.1252853-.52515789.0458598-.66313509-.1809119-.13797721-.2267718-.07469786-.5218373.14413509-.6720881l17.139-10.95-16.62 9.591c-.23508655.127347-.52875831.0472199-.66659082-.1818764-.13783251-.2290964-.071048-.5260868.15159082-.6741236l9.135-5.712-8.62 4.974c-.2372063.141661-.54433895.0642063-.68599999-.173-.14166103-.2372063-.0642063-.544339.17299999-.686l2.116-1.306-1.6.925c-.23497088.1292146-.53003872.050062-.66879247-.179405-.13875376-.2294671-.07178369-.5275361.15179247-.675595l6.61-4.168-6.096 3.518c-.23610173.1433179-.54368209.0681017-.68699998-.168s-.06810174-.5436821.16799998-.687l6.1-3.882-5.581 3.223c-.23551248.13196-.53324972.0531389-.67262044-.1780652-.13937073-.2312042-.07004227-.5312938.15662044-.6779348l1.1-.694-.587.339c-.23470337.1364868-.53543738.0607325-.67747413-.1706544-.14203676-.2313868-.07346495-.5338394.15447413-.6813456l5.16-3.356-4.634 2.677c-.23424781.1308833-.53004345.0535271-.67022619-.1752769-.14018273-.228804-.07476503-.527467.14822619-.6767231l2.442-1.586-1.92 1.11c-.23004825.1308569-.52222067.059778-.6664488-.1621318-.14422813-.2219099-.09054634-.5177734.1224488-.6748682l7.127-5.187-6.583 3.8c-.22805424.1290416-.51704704.0601323-.66233529-.15793143-.14528824-.21806373-.09758263-.5113034.10933529-.67206857l4.952-3.77-4.327 2.5c-.2295527.13149209-.52180501.0614183-.6667704-.15987256-.14496539-.22129087-.0924688-.51720615.1197704-.67512744l1.557-1.148-.731.422c-.219385.13425453-.50483439.08016882-.65990028-.12503505-.1550659-.20520387-.12915517-.4945743.05990028-.66896495l2.036-1.945c-.18373124.00346255-.3551728-.09199489-.449-.25-.06733923-.11498593-.08599394-.25209476-.05182328-.38089189.03417067-.12879713.11833953-.23862624.23382328-.30510811l3.165-1.826c.219385-.13425453.50483439-.08016882.65990028.12503505.1550659.20520387.12915517.4945743-.05990028.66896495l-1.857 1.775 4.869-2.807c.2295527-.13149208.521805-.0614183.6667704.15987257.1449654.22129086.0924688.51720614-.1197704.67512743l-1.559 1.147 3.435-1.982c.2280542-.12904158.517047-.0601323.6623353.15793143.1452882.21806373.0975826.5113034-.1093353.67206857l-4.953 3.77 7.969-4.6c.2300482-.13085688.5222207-.05977797.6664488.16213184.1442281.22190982.0905463.51777331-.1224488.67486816l-7.126 5.182 10.431-6.019c.2342478-.13088328.5300435-.05352709.6702262.17527691.1401827.22880401.074765.52746697-.1482262.67672309l-2.44 1.58 4.218-2.432c.2337734-.12874562.5274505-.05119801.667188.1761759.1397374.22737391.07627.52441224-.144188.6748241l-5.164 3.36 7.294-4.211c.2346058-.12538552.5263122-.0451285.6637604.18262002.1374483.22774852.0725112.52324301-.1477604.67237998l-1.111.7 2.693-1.555c.2348642-.13128134.531504-.05316042.6712412.17677323.1397372.22993366.0724576.52921865-.1522412.67722677l-6.088 3.874 8.19-4.728c.2346058-.12538552.5263122-.0451285.6637604.18262002.1374483.22774852.0725112.52324301-.1477604.67237998l-6.606 4.167 8.7-5.022c.2362075-.13307102.5354329-.05365088.6745599.17904108.1391271.23269196.0674613.53386873-.1615599.67895892l-2.113 1.305 3.745-2.163c.2350866-.12734701.5287583-.04721993.6665908.18187644.1378325.22909636.071048.52608673-.1515908.67412356l-9.144 5.72 11.392-6.576c.2343611-.12889228.5286543-.05052268.6678755.17785371.1392213.22837639.0740613.52587341-.1478755.67514629l-17.128 10.947 20.438-11.8c.2356087-.12976469.5316571-.04987998.6700067.18079238.1383496.23067235.0694166.52946068-.1560067.67620762l-12.528 7.764 14.937-8.621c.2362845-.13063592.5336041-.05009164.6716393.18194798s.0669238.53175531-.1606393.67705202l-9.707 5.941 11.788-6.8c.2357179-.12781718.530297-.04693838.667702.18332235.137405.23026074.0687118.52791741-.155702.67467765l-13.893 8.53 16.269-9.388c.2352087-.12562801.5276152-.04456942.664573.18422757.1369579.22879699.070267.52481121-.151573.67277243l-20.154 12.466 22.983-13.268c.2362075-.13307102.5354329-.05365088.6745599.17904108.1391271.23269196.0674613.53386873-.1615599.67895892l-24.731 15.349 26.853-15.5c.2374824-.14110873.5443912-.06298241.6855.17450002.1411087.23748243.0629824.54439122-.1745.68549998l-20.369 12.454 21.348-12.324c.2354667-.12251985.5256326-.0396943.6609447.18866143.135312.22835573.0686058.52264567-.1519447.67033857l-19.527 11.9 20.072-11.588c.2377586-.14083261.5446674-.06225858.6855.1755s.0622586.54466739-.1755.6855l-17.172 10.416 17.373-10.029c.2358358-.12604535.529101-.04422219.6656159.18571176.1365149.22993394.0679517.52657952-.1556159.67328824l-20.972 12.775 20.941-12.09c.2362845-.13063592.5336041-.05009165.6716393.18194798.1380352.23203962.0669238.53175531-.1606393.67705202l-26.447 16.244 26.1-15.07c.2363825-.12854979.5321069-.0469768.6691568.18458103.1370499.23155784.0662709.53004973-.1601568.67541897l-17.088 10.352 16.583-9.575c.2369888-.13504713.5384839-.05523499.6776156.1793791.1391316.2346142.0645535.5374465-.1676156.6806209l-24.913 15.255 24.4-14.088c.2357179-.1278172.530297-.0469384.667702.1833224.137405.2302607.0687118.5279174-.155702.6746776l-28.429 17.53 27.92-16.123c.2380347-.1402803.5447197-.0610347.685.177s.0610347.5447197-.177.685l-7.79 4.676 7.282-4.2c.2377586-.1405565.5444435-.0617586.685.176.1405564.2377586.0617586.5444435-.176.685l-19.947 12.118 19.438-11.222c.2358358-.1260453.529101-.0442222.6656159.1857118.1365149.2299339.0679517.5265795-.1556159.6732882l-22.593 13.786 22.083-12.749c.2353357-.1240261.5265799-.04207.6626998.1864836.1361199.2285535.0694507.5236725-.1516998.6715164l-26.276 16.15 25.765-14.876c.2362845-.1306359.5336041-.0500916.6716393.181948s.0669238.5317553-.1606393.677052l-24.89 15.286 24.379-14.074c.2358358-.1260453.529101-.0442222.6656159.1857118.1365149.2299339.0679517.5265795-.1556159.6732882l-20.611 12.59 20.1-11.6c.2363825-.1285498.5321069-.0469768.6691568.184581.1370499.2315579.0662709.5300498-.1601568.675419l-17.428 10.613 16.92-9.767c.2372063-.1413849.5441151-.0637063.6855.1735s.0637063.5441151-.1735.6855l-21.709 13.386 21.2-12.237c.2369888-.1350471.5384839-.055235.6776156.1793791.1391316.2346142.0645535.5374465-.1676156.6806209l-12.66 7.716 12.147-7.01c.2356087-.1297647.5316571-.04988.6700067.1807924.1383496.2306723.0694166.5294607-.1560067.6762076l-19.6 12.212 19.086-11.021c.2362075-.133071.5354329-.0536509.6745599.1790411.1391271.2326919.0674613.5338687-.1615599.6789589l-14.751 9.147 14.238-8.219c.2352087-.125628.5276152-.0445694.664573.1842276.1369579.228797.070267.5248112-.151573.6727724l-11.578 7.174 11.065-6.388c.2355125-.13196.5332497-.0531389.6726204.1780652.1393708.2312042.0700423.5312938-.1566204.6779348l-13.263 8.339 12.747-7.359c.2353357-.1240261.5265799-.04207.6626998.1864836.1361199.2285535.0694507.5236725-.1516998.6715164l-2.1 1.29 1.588-.916c.234023-.1252853.5251579-.0458598.6631351.1809119.1379772.2267718.0746978.5218373-.1441351.6720881l-12.138 7.783 11.62-6.709c.2362075-.133071.5354329-.0536509.6745599.1790411.1391271.2326919.0674613.5338687-.1615599.6789589l-1.612 1 1.1-.634c.2343611-.1288923.5286543-.0505227.6678755.1778537.1392213.2283764.0740613.5258734-.1478755.6751463l-7.414 4.759 6.895-3.98c.2334572-.1253051.5241289-.0467367.6626677.1791186.1385388.2258554.0768365.5205686-.1406677.6718814l-6.844 4.456 6.317-3.646c.2340027-.1389988.5362016-.0652981.6799386.1658244s.0762078.5347601-.1519386.6831756l-6.755 4.517 6.227-3.595c.2309306-.1317312.5245674-.0597083.6683337.1639283.1437664.2236366.0873821.520673-.1283337.6760717l-7.185 5.123 6.645-3.836c.2322938-.1351768.5298928-.0625367.6737842.164462.1438914.2269988.0825928.5271392-.1387842.679538l-3.144 2.18 2.609-1.505c.2304184-.1322364.5240189-.0611893.6684864.1617642.1444674.2229535.0893536.5199576-.1254864.6762358l-2.47 1.782 1.792-1.026c.2256086-.1271264.5109479-.0609576.657579.1524896.1466312.2134471.106025.5035297-.093579.6685104l-2.41 1.954 1.206-.7c.1549945-.0985297.351531-.1041539.5119064-.0146489.1603754.0895049.2587712.2597296.2562855.4433739s-.1054527.3511436-.2681919.436275l-6.691 3.86c-.2256086.1271264-.5109479.0609576-.657579-.1524896-.1466312-.2134471-.106025-.5035297.093579-.6685104l2.413-1.952-4.811 2.773c-.2304184.1322364-.5240189.0611893-.6684864-.1617642-.1444674-.2229535-.0893536-.5199576.1254864-.6762358l2.472-1.784-4.543 2.622c-.23158.1294027-.5239091.0554223-.6660571-.1685604-.142148-.2239828-.0846277-.5199909.1310571-.6744396l3.141-2.179-5.236 3.022c-.2303174.1272935-.5198822.0542782-.6623044-.1670037s-.0889497-.5150841.1223044-.6719963l7.185-5.124-10.33 5.963c-.2330829.1306613-.5277074.0549657-.6689423-.1718661-.1412349-.2268319-.0791592-.5246238.1409423-.6761339l6.751-4.515-9.29 5.363c-.2334572.1253051-.5241289.0467367-.6626677-.1791186-.1385388-.2258554-.0768365-.5205686.1406677-.6718814l6.836-4.449-9.189 5.3c-.2347713.1336383-.5332399.0566316-.6740509-.1739091-.1408109-.2305408-.0730402-.5312411.1530509-.6790909l7.411-4.756-9.716 5.609c-.2356087.1297647-.5316571.04988-.6700067-.1807924-.1383496-.2306723-.0694166-.5294607.1560067-.6762076l1.622-1.003-3.23 1.86c-.2343611.1288923-.5286543.0505227-.6678755-.1778537-.1392213-.2283764-.0740613-.5258734.1478755-.6751463l12.143-7.784-14.963 8.637c-.2353357.1240261-.5265799.04207-.6626998-.1864836-.1361199-.2285535-.0694507-.5236725.1516998-.6715164l2.1-1.292-3.719 2.15c-.2346058.1253855-.5263122.0451285-.6637604-.18262-.1374483-.2277485-.0725112-.523243.1477604-.67238l13.261-8.338-15.928 9.193c-.2352087.125628-.5276152.0445694-.664573-.1842276-.1369579-.228797-.070267-.5248112.151573-.6727724l11.568-7.168-13.9 8.025c-.2356087.1297647-.5316571.04988-.6700067-.1807924-.1383496-.2306723-.0694166-.5294607.1560067-.6762076l14.752-9.143-17.332 10c-.2361735.1361818-.537908.0580681-.6783318-.1756081-.1404239-.2336761-.0677709-.5367718.1633318-.6813919l19.593-12.204-22.629 13.061c-.0751127.0456101-.1611282.0701366-.249.071z" fill="#0970de"/><path id="Path" d="m14.718 19.354c-.2033744-.0000204-.3864729-.1232227-.4631008-.3116088-.0766279-.188386-.0315153-.4044155.1141008-.5463912l.259-.253-1.646.95c-.2243164.1264895-.5080183.0619132-.6554889-.1492026s-.1104702-.4997121.0854889-.6667974l.678-.565-1.274.735c-.2240205.1297641-.5100442.0670649-.6592395-.1445117s-.1122125-.502047.0852395-.6694883l1.67-1.419-2.02 1.166c-.218866.1231702-.4951381.0648746-.6455811-.1362227-.1504431-.2010973-.1283693-.4825886.0515811-.6577773l2.535-2.41-2.507 1.448c-.2068846.1189418-.4689871.0751042-.62590769-.1046854-.15692059-.1797897-.1649156-.4454126-.01909231-.6343146l1.652-2.136-.11.063c-.1549945.0985297-.351531.1041539-.5119064.0146489-.1603754-.0895049-.2587712-.2597296-.2562855-.4433739s.1054527-.3511436.2681919-.436275l2.31-1.334c.206692-.119093.468728-.0755884.6258468.1039065.1571188.1794948.1655567.4449837.0201532.6340935l-1.653 2.137 3.956-2.288c.2208953-.136633.509623-.0813788.6644625.1271591.1548394.208538.1242214.5009064-.0704625.6728409l-2.535 2.409 3.154-1.82c.2236156-.1271011.5071788-.0638125.6555296.1463081s.1130835.4985123-.0815296.6666919l-1.669 1.417 1.534-.886c.2248726-.1315945.5131068-.0684479.6623629.1451111.149256.213559.1094985.5059386-.0913629.6718889l-.679.565.064-.036c.2184203-.1276802.4977941-.0720852.6506935.1294872s.1311343.4855915-.0506935.6615128l-.931.906c.0843227.0462999.1537001.1156773.2.2.1373847.2389169.0555349.543953-.183.682l-2.31 1.334c-.0757423.0422013-.1613091.063593-.248.062z" fill="#f2f4f7"/><path id="Path" d="m13.28 34.354c-.2013084-.0000288-.3829665-.120781-.4609196-.3063838-.0779532-.1856027-.0369963-.3998532.1039196-.5436162l1.98-2.012-3.26 1.882c-.2207276.1320893-.5056598.0751513-.6586724-.1316224-.1530126-.2067738-.124171-.4959044.0666724-.6683776l2.549-2.374-3 1.725c-.2245855.1309436-.5120466.0679354-.66127016-.144943-.14922355-.2128783-.11041686-.5045939.08927016-.671057l1.4-1.182-1.128.654c-.2085649.1202746-.4732297.0748336-.62973252-.1081204s-.16039777-.4514631-.00926748-.6388796l1.544-1.914c-.2389945.1171135-.5278435.0264848-.6570956-.2061691-.1292522-.2326539-.0536017-.5257823.1720956-.6668309l2.31-1.334c.2085649-.1202746.4732297-.0748336.6297325.1081204s.1603978.4514631.0092675.6388796l-1.544 1.913 3.715-2.143c.2245855-.1309436.5120466-.0679354.6612702.144943.1492235.2128783.1104168.5045939-.0892702.671057l-1.405 1.183 1.873-1.082c.2206356-.1300292.503851-.072325.6560244.1336626s.1241014.4936554-.0650244.6663374l-2.545 2.379 2.668-1.54c.2163843-.1232964.4905169-.0685506.6429461.1284.1524291.1969505.1366764.476052-.0369461.6546l-1.979 2.012 1.29-.745c.1549945-.0985297.351531-.1041539.5119064-.0146489.1603754.0895049.2587712.2597296.2562855.4433739s-.1054527.3511436-.2681919.436275l-4.482 2.588c-.0756892.0435554-.1616792.0660026-.249.065z" fill="#f2f4f7"/><path id="Path" d="m14.124 49.451c-.2002564.0004391-.3814574-.1186481-.4605001-.3026455-.0790427-.1839975-.0406776-.3974072.0975001-.5423545l1.452-1.528-2.987 1.722c-.225024.1298327-.5119893.0657046-.6603401-.147566s-.108657-.5046224.0913401-.670434l1.155-.957-1.595.921c-.220007.1195261-.4945025.0578939-.6422936-.1442135-.147791-.2021073-.1233056-.4823693.0572936-.6557865l2.315-2.088-2.495 1.442c-.2197017.1368532-.50752789.0834076-.66345429-.1231949s-.12839804-.4980515.06345429-.6718051l2.029-1.932-1.476.853c-.2184203.1276802-.49779411.0720852-.65069351-.1294872-.15289941-.2015724-.13113426-.4855915.05069351-.6615128l.932-.909c-.1622477-.0840431-.2657295-.249898-.2698955-.4325731-.0041659-.1826751.0916477-.3530749.2498955-.4444269l2.31-1.334c.2184203-.1276802.4977941-.0720852.6506935.1294872s.1311343.4855915-.0506935.6615128l-.264.258 1.652-.954c.2209139-.1656854.5343146-.1209139.7.1s.1209139.5343146-.1.7l-2.03 1.931 2.968-1.713c.220007-.1195261.4945025-.0578939.6422936.1442135.147791.2021073.1233056.4823693-.0572936.6557865l-2.315 2.088 2.634-1.521c.2248836-.1275609.509928-.0626394.65739.1497267.1474621.2123662.1087026.5021295-.08939.6682733l-1.158.959.841-.485c.2153349-.1244465.4894005-.0717052.6431691.1237719.1537685.1954771.1404869.4742551-.0311691.6542281l-1.452 1.527.214-.123c.1549945-.0985297.351531-.1041539.5119064-.0146489.1603754.0895049.2587712.2597296.2562855.4433739s-.1054527.3511436-.2681919.436275l-3.209 1.853c-.0758425.0430703-.1617889.0651609-.249.064z" fill="#f2f4f7"/><path id="Path" d="m43.716 32.471c-.2101159-.0001765-.3977045-.1316989-.4694922-.329171s-.0124567-.418758.1484922-.553829l.315-.266-1.872 1.078c-.2148145.122858-.4871855.0700952-.640583-.1240916-.1533976-.1941868-.1416695-.4713733.027583-.6519084l1.375-1.45-3.865 2.226c-.2167987.1191224-.4881174.0618073-.638215-.1348206s-.1338516-.473458.038215-.6511794l1.255-1.255-3.538 2.041c-.214156.122774-.4858627.0708854-.6397046-.1221662s-.1437736-.4694853.0237046-.6508338l1.392-1.492-3.928 2.265c-.2072709.1186494-.4695147.0741485-.6260418-.106235-.156527-.1803835-.1636307-.4462813-.0169582-.634765l1.5-1.9-4.581 2.641c-.2135054.1227461-.4845965.071745-.6388985-.1201978-.1543021-.1919428-.1458589-.4676604.0198985-.6498022l1.418-1.549-3.86 2.229c-.2166955.1249531-.4923876.0705435-.6453641-.1273666-.1529764-.19791-.1361605-.4784164.0393641-.6566334l1.2-1.219-1.955 1.128c-.1946881.1124152-.4404645.0810722-.6007086-.0766061-.160244-.1576783-.1955497-.4029168-.0862914-.5993939l.767-1.382-.063.036c-.1549945.0985297-.351531.1041539-.5119064.0146489-.1603754-.0895049-.2587712-.2597296-.2562855-.4433739s.1054527-.3511436.2681919-.436275l1.627-.94c.1946881-.1124152.4404645-.0810722.6007086.0766061.160244.1576783.1955497.4029168.0862914.5993939l-.767 1.382 3.59-2.066c.2163843-.1232964.4905169-.0685506.6429461.1284.1524291.1969505.1366764.476052-.0369461.6546l-1.2 1.219 3.47-2c.2135054-.1227461.4845965-.071745.6388985.1201978.1543021.1919428.1458589.4676604-.0198985.6498022l-1.418 1.549 4.015-2.321c.2072709-.1186494.4695147-.0741485.6260418.106235.156527.1803835.1636307.4462813.0169582.634765l-1.5 1.9 4.587-2.641c.214156-.122774.4858627-.0708854.6397046.1221662s.1437736.4694853-.0237046.6508338l-1.393 1.492 3.926-2.265c.2167987-.1191224.4881174-.0618073.638215.1348206s.1338516.473458-.038215.6511794l-1.255 1.255 3.538-2.041c.2148894-.1243392.4884665-.0721685.6425166.1225268.1540502.1946953.1419081.4729375-.0285166.6534732l-1.376 1.45 3.865-2.226c.2240372-.1259992.5071082-.0616068.6545964.1489061s.1113381.4985559-.0835964.6660939l-.313.264 1.7-.98c.2059252-.1197303.4677219-.0775667.6256432.1007629.1579212.1783295.1681132.4433039.0243568.6332371l-1.415 1.882 2.221-1.283c.2034689-.1174438.4612594-.0773942.6195066.0962447.1582471.173639.1742651.4340297.0384934.6257553l-.547.771c.2237406.0061313.4161493.1602099.4710365.3772003.0548871.2169904-.0411204.4440232-.2350365.5557997l-1.614.932c-.2035198.1185418-.4621722.0789787-.6209515-.0949799-.1587793-.1739585-.1746281-.4351387-.0380485-.6270201l.445-.626-2.366 1.358c-.2056252.1176007-.4655534.0747743-.6225815-.1025779s-.1680579-.4405539-.0264185-.6304221l1.417-1.88-4.534 2.613c-.0754832.0456007-.1618163.0701194-.25.071z" fill="#f2f4f7"/><path id="Path" d="m42.292 17.471c-.2101159-.0001765-.3977045-.1316989-.4694922-.329171s-.0124567-.418758.1484922-.553829l.306-.257-1.858 1.069c-.2223898.1269737-.5047663.065395-.6540994-.1426415-.1493332-.2080365-.1173442-.4952735.0740994-.6653585l.691-.608-2.453 1.416c-.217772.1239843-.4936884.0676117-.6453756-.131857-.1516872-.1994686-.1322878-.4804159.0453756-.657143l1.212-1.2-3.436 1.989c-.2190652.1318893-.5023394.0772423-.6566242-.1266708s-.1298566-.4913741.0566242-.6663292l1.143-1.1-3.277 1.893c-.2153349.1244465-.4894005.0717052-.6431691-.1237719-.1537685-.1954771-.1404869-.4742551.0311691-.6542281l1.355-1.417-3.8 2.195c-.2038365.1170428-.4616761.0763052-.6195-.0978785s-.1730154-.4347791-.0365-.6261215l1.477-2.056-4.566 2.636c-.2139383.1227586-.4854345.0711644-.6394281-.1215147-.1539936-.1926792-.1444708-.4688702.0224281-.6504853l1.273-1.378-1.887 1.094c-.1991965.1152477-.4513319.0796452-.6108298-.0862515-.1594978-.1658967-.1851601-.4192369-.0621702-.6137485l.651-1.033c-.2422991.06986-.4986996-.0516425-.5980645-.2834093-.099365-.2317668-.0105928-.5012544.2070645-.6285907l1.627-.94c.1991965-.1152477.4513319-.0796452.6108298.0862515.1594978.1658967.1851601.4192369.0621702.6137485l-.636 1.008 2.984-1.723c.2136477-.1213457.4838004-.0694794.6373204.1223584.15352.1918377.1449064.4667894-.0203204.6486416l-1.271 1.376 3.721-2.147c.2038365-.1170428.4616761-.0763052.6195.0978785s.1730154.4347791.0365.6261215l-1.476 2.057 4.817-2.781c.215258-.1229472.4881008-.0696094.6412115.1253499.1531108.1949593.1402554.4726694-.0302115.6526501l-1.353 1.417 3.8-2.2c.2190652-.1318893.5023394-.0772423.6566242.1266708s.1298566.4913741-.0566242.6663292l-1.143 1.102 3.28-1.893c.217772-.1239843.4936884-.0676117.6453756.131857.1516872.1994686.1322878.4804159-.0453756.657143l-1.214 1.2 3.434-1.986c.2223898-.1269737.5047663-.065395.6540994.1426415.1493332.2080365.1173442.4952735-.0740994.6653585l-.69.607 2.455-1.415c.2240372-.1259992.5071082-.0616068.6545964.1489061s.1113381.4985559-.0835964.6660939l-.306.257 1.858-1.072c.2205392-.1280792.5021318-.0696485.6535046.1356028.1513729.2052513.124009.4915375-.0635046.6643972l-.981.908 2.348-1.356c.2164748-.1176434.486383-.0600602.6359981.1356862.149615.1957464.134338.4713056-.0359981.6493138l-.915.918 1.063-.613c.2036526-.117242.4614665-.076848.6195016.0970628s.1736406.434403.0374984.6259372l-.543.761c.2226746.0086332.4127583.1635845.4660957.3799491.0533375.2163645-.0429473.4419104-.2360957.5530509l-1.614.932c-.2037045.1183401-.462381.0784318-.620948-.0957991s-.1740022-.4355122-.037052-.6272009l.435-.61-2.331 1.342c-.2164748.1176434-.486383.0600602-.6359981-.1356862-.149615-.1957464-.134338-.4713056.0359981-.6493138l.913-.917-2.95 1.7c-.220439.1262233-.5004889.0670999-.6510942-.1374575-.1506054-.2045574-.1238973-.4895314.0620942-.6625425l.977-.898-2.958 1.7c-.0754237.0457373-.1617951.0702668-.25.071z" fill="#f2f4f7"/><path id="Path" d="m34.641 47.471c-.2058444.0001752-.3907608-.1258204-.4659121-.3174561-.0751512-.1916356-.0251778-.4097448.1259121-.5495439l.986-.915-2.968 1.711c-.2087017.1189347-.4724867.0726495-.6282299-.1102327-.1557433-.1828821-.1594257-.4506718-.0087701-.6377673l1.493-1.832-4.475 2.58c-.2046686.1173503-.4635162.0756679-.621-.1-.1580507-.1751058-.1722218-.436854-.034-.628l1.479-2.045-4.293 2.478c-.2111163.1217329-.4792426.0735321-.6347434-.1141072s-.1530747-.4600529.0057434-.6448928l1.217-1.407-1.45.837c-.2077189.119562-.4710624.0749112-.6277607-.1064389-.1566982-.1813502-.1626716-.4483854-.0142393-.6365611l.456-.575c-.1927403-.0550618-.3339665-.2199096-.3588025-.418816-.0248361-.1989065.0715192-.3934194.2448025-.494184l1.627-.94c.2077189-.119562.4710624-.0749112.6277607.1064389.1566982.1813502.1626716.4483854.0142393.6365611l-.2.252 1.752-1c.2111163-.1217329.4792426-.0735321.6347434.1141072s.1530747.4600529-.0057434.6448928l-1.219 1.404 3.755-2.163c.2040207-.1168465.4618881-.0757661.6195016.0986916.1576136.1744578.1723898.4351585.0354984.6263084l-1.479 2.045 4.8-2.77c.2087634-.1201586.4735249-.0743925.6298391.1088725.1563143.183265.1597449.451931.0081609.6391275l-1.493 1.832 4.47-2.58c.220439-.1262233.5004889-.0670999.6510942.1374575.1506054.2045574.1238973.4895314-.0620942.6625425l-.987.915 2.97-1.714c.2161513-.1162235.4847-.0583912.6338521.1365009s.1348098.4692227-.0338521.6474991l-1.282 1.3 3.6-2.08c.2088997-.1188201.4727821-.0722109.6283375.1109825.1555554.1831933.1587734.4511411.0076625.6380175l-1.483 1.816 4.458-2.57c.2081694-.1205179.4726501-.07573.6295333.1066069.1568831.1823369.1617005.4505398.0114667.6383931l-1.495 1.869 3.927-2.268c.2030505-.1167744.4599528-.0769359.6181003.0958505.1581476.1727864.1751468.4322029.0408997.6241495l-1.222 1.746 1.463-.844c.23893-.1358451.5427102-.0533708.6801373.1846528.137427.2380237.0569695.5423443-.1801373.6813472l-3.42 1.966c-.2028151.1159188-.4588658.0759527-.6167074-.0962599-.1578415-.1722125-.175401-.430768-.0422926-.6227401l1.222-1.746-4.263 2.465c-.2081694.1205179-.4726501.07573-.6295333-.1066069-.1568831-.1823369-.1617005-.4505398-.0114667-.6383931l1.5-1.869-4.539 2.614c-.2089623.1200463-.4738237.0739562-.6299505-.1096215s-.1590908-.4524031-.0070495-.6393785l1.491-1.823-4.456 2.572c-.2161513.1162235-.4847.0583912-.6338521-.1365009s-.1348098-.4692227.0338521-.6474991l1.283-1.3-3.61 2.084c-.0754832.0456007-.1618163.0701194-.25.071z" fill="#f2f4f7"/><g fill="#262626"><path id="Shape" d="m53.457.656c-6.468-.519-13.18-.007-19.664-.007-7.991 0-16.044-.3-24.03 0-6.44.241-8.487 4.813-8.487 10.537v27.785c0 5.35-2.059 16.135 3.6 19.389 2.357 1.354 5.35.991 7.963.991h39.861c7.875-.706 8.022-7.08 8.022-13.33v-28.543c.002-6.372 1.683-16.105-7.265-16.822zm5.819 34.5c0 5.771 2.878 22.7-5.978 23.493h-40.453c-3.107 0-6.221.236-8.521-2.4-1.911-2.194-1.6-5.039-1.6-7.7v-23.7c0-5.665-.814-11.991.054-17.61 1.262-8.167 13.3-5.888 19.147-5.888h24.992c1.875 0 3.84-.165 5.711 0 4.918.432 6.581 4.154 6.648 8.424.132 8.456 0 16.925 0 25.381z"/><path id="Shape" d="m18.724 14.806c-.31-5.758-9.466-5.1-9.448.388.018 5.83 9.157 5.022 9.448-.388zm-7.462-1.949c.8047835-1.2342717 2.3618244-1.7395394 3.738-1.213 1.0616187.4756165 1.8507496 1.4064009 2.1462637 2.5315306s.0656193 2.3235602-.6252637 3.2594694c-.9497428 1.126843-2.5530578 1.4460945-3.862.769-1.2008397-.7119473-1.9376761-2.003976-1.939-3.4.0064465-.6853506.1933903-1.3568998.542-1.947z"/><path id="Shape" d="m9.276 30.146c-.024 5.862 9.15 5.27 9.447-.243 0-.018-.012-.028-.014-.044s.017-.034.015-.053c-.311-5.792-9.424-5.243-9.448.34zm4.314 3.384c-1.680619-.4251886-2.8540731-1.9424652-2.843-3.676 0-2.073 1.8-4.032 3.994-3.272 1.5060896.5483623 2.5142007 1.9732656 2.53 3.576-.129 1.9-1.51 3.858-3.681 3.372z"/><path id="Shape" d="m18.724 44.806c-.313-5.816-9.438-5.3-9.449.334-.012 5.885 9.151 5.34 9.451-.225 0-.023-.013-.036-.015-.056s.015-.034.013-.053zm-5.142 3.694c-1.6752752-.4078638-2.8489466-1.9158638-2.833-3.64-.0655445-1.0214714.3672629-2.0115145 1.1615743-2.6570911.7943115-.6455766 1.8519206-.8668695 2.8384257-.5939089 1.4959767.527542 2.5027479 1.9338256 2.52 3.52-.124 1.929-1.53 3.811-3.687 3.371z"/><path id="Path" d="m39.461 17.274c3 0 12.112 1.8 13.251-2.41 0-.006-.008-.009-.008-.015s.02-.028.02-.043c0-2.342-2.654-2.08-4.248-2.08-.3615056-.0143506-.7188746.0811802-1.025.274-.176.149-.25.273.073.273.621 0 1.246-.022 1.867 0 1.0380024.0135816 1.8744678.854936 1.882 1.893-.93 3.175-10.61 1.559-13.284 1.559-1.7 0-13.2 1.412-13.262-1.9.841-2.889 7.382-1.556 9.8-1.556h9c.285 0 1.628-.548.952-.548h-13.215c-2.636 0-7.08-.9-7.976 2.41 0 .006.008.009.008.015s-.02.028-.02.043c0 3.931 14.075 2.085 16.185 2.085z"/><path id="Path" d="m23.276 30.194c.676 2.5 2.559 2.234 4.7 2.234h11.2c3.179 0 12.048 1.818 13.467-2.321.0482663-.0530935.0765506-.1213295.08-.193.0186425-.0571872.0124768-.1195688-.017-.172-.0975394-1.1674484-1.036722-2.0866212-2.206-2.159-.731-.064-1.484-.011-2.218-.011-.284 0-.829.093-.954.4s.1.454.4.454c1.306 0 3.551-.319 3.551 1.657-.824 3.046-10.616 1.487-13 1.487-2.469 0-12.545 1.644-13.536-1.732.164-2.522 8.106-1.412 9.585-1.412h9.4c.568 0 1.53-.856.554-.856h-13.216c-1.982 0-7.792-.925-7.792 2.513 0 .011.007.016.008.025-.0067167.0281415-.0087439.0571984-.006.086z"/><path id="Path" d="m50.243 42.444c-.726-.04-1.461-.007-2.188-.007-.85 0-1.091 1.126-.11 1.126 1.258 0 3.22-.34 3.319 1.483 0 2.6-11.732 1.391-13.209 1.391-2.387 0-12.3 1.588-13.3-1.57.372-2.578 16.84-1.3 19.191-1.3.85 0 1.091-1.126.11-1.126h-12.856c-2.1 0-7.935-.993-7.935 2.609 0 .018.01.029.011.046-.0038353.033223-.0038353.066777 0 .1.642 2.375 2.3 2.338 4.357 2.369 3.759.057 7.524 0 11.283 0 2.255 0 13.82 1.879 13.82-2.609-.028252-1.3681266-1.1251273-2.4733616-2.493-2.512z"/></g></g></svg>