<svg height="506pt" viewBox="0 -52 506.39834 506" width="506pt" xmlns="http://www.w3.org/2000/svg"><g fill="#46ceac"><path d="m138.988281 60.453125c-1.898437 0-3.5-1.199219-4.097656-3-.601563-1.796875.097656-3.699219 1.597656-4.796875l1.5-1.101562-14.300781 8.199218c-2 1.101563-4.398438.5-5.699219-1.398437-1.199219-1.902344-.800781-4.402344 1-5.800781l8.800781-6.5-23.601562 13.800781c-1.898438 1.097656-4.398438.5-5.597656-1.300781-1.300782-1.800782-.902344-4.300782.800781-5.699219l20.796875-16.902344-41.5 23.902344c-1.898438 1.097656-4.398438.5-5.597656-1.300781-1.199219-1.800782-.902344-4.300782.800781-5.699219l19.296875-15.402344-38.898438 22.5c-1.898437 1.101563-4.300781.5-5.601562-1.296875-1.296875-1.800781-.898438-4.300781.703125-5.703125l22.5-18.796875-42.703125 24.699219c-1.898438 1.097656-4.398438.597656-5.699219-1.300781-1.300781-1.898438-.898437-4.398438.902344-5.800782l15.398437-12-22.601562 13.101563c-1.898438 1-4.199219.5-5.398438-1.199219-1.300781-1.703125-1.101562-4 .300782-5.601562l20.800781-20.699219-23 13.199219c-1.703125 1-4 .601562-5.300781-.898438-1.300782-1.5-1.402344-3.703125-.199219-5.300781l9.296875-12.601563c-1.898438.5-3.796875-.300781-4.796875-2-1.203125-2-.5-4.699218 1.597656-5.800781l16.402344-9.5c1.699219-1 4-.699219 5.296875.800781 1.300781 1.5 1.5 3.699219.300781 5.402344l-9.097656 12.296875 33.296875-19.199219c1.902344-1 4.203125-.5 5.402344 1.199219 1.300781 1.703125 1.097656 4-.300782 5.601563l-20.800781 20.601562 47.601563-27.402344c1.898437-1.097656 4.398437-.5 5.597656 1.300782 1.203125 1.800781.902344 4.300781-.898438 5.699218l-15.398437 12 33-19.097656c1.898437-1.101562 4.296875-.5 5.597656 1.296875 1.300781 1.800781.902344 4.300781-.699219 5.703125l-22.398437 18.796875 44.5-25.699219c1.898437-1.097656 4.398437-.597656 5.699219 1.300782 1.300781 1.898437.898437 4.300781-.902344 5.699218l-19.296875 15.402344 38.898437-22.402344c1.898438-1.097656 4.398438-.5 5.601563 1.300782 1.296875 1.800781.898437 4.300781-.800781 5.699218l-20.800782 16.902344 41.398438-23.902344c2-1.097656 4.402344-.5 5.703125 1.402344 1.199219 1.898438.796875 4.398438-1 5.796875l-8.800781 6.5 23.597656-13.597656c2-1.101563 4.402344-.5 5.703125 1.398437 1.296875 1.902344.796875 4.402344-1 5.699219l-1.5 1.101563 14.296875-8.300782c2-1.097656 4.5-.5 5.703125 1.402344 1.199219 1.898438.796875 4.398438-1 5.796875l-6 4.402344 19.898437-11.5c1.898438-1.101563 4.300782-.5 5.601563 1.300781 1.296875 1.796875.898437 4.296875-.800781 5.699219l-21.402344 17.5 42.5-24.601563c1.902344-1.097656 4.300781-.5 5.601562 1.300782 1.300782 1.800781.898438 4.300781-.800781 5.699218l-21.300781 17.5 42.402344-24.5c2-1.097656 4.398437-.5 5.699218 1.300782 1.300782 1.800781.800782 4.398437-1 5.800781l-10.398437 7.800781 25.796875-14.902344c1.902344-1.097656 4.300781-.597656 5.601562 1.199219 1.300782 1.800781 1.101563 4.203125-.5 5.703125l-26.898437 25 55.097656-31.800781c1.902344-1.101563 4.402344-.5 5.601563 1.300781 1.199218 1.796875.898437 4.296875-.800782 5.699219l-18.601562 14.597656 37.703125-21.699219c1.898437-1.097656 4.296875-.5 5.597656 1.300782 1.300781 1.800781.902344 4.300781-.800781 5.699218l-21.199219 17.300782 42.101563-24.300782c1.898437-1.097656 4.398437-.597656 5.699218 1.300782 1.300782 1.800781.898438 4.300781-.898437 5.699218l-19.5 15.699219 39.296875-22.699219c1.902344-1.097656 4.300781-.5 5.601562 1.300782 1.300782 1.800781.898438 4.300781-.699218 5.699218l-22.699219 19 45-25.898437c1.898437-1 4.199219-.5 5.398437 1.300781 1.300782 1.699219 1 4.097656-.5 5.597656l-25.601562 22.699219 49.601562-28.597656c1.898438-1.101563 4.398438-.5 5.601563 1.300781 1.199219 1.796875.898437 4.296875-.902344 5.699219l-16.800781 13.300781 24.601562-14.203125c1.898438-1.097656 4.398438-.5 5.601563 1.300781 1.296875 1.800782.898437 4.300782-.800781 5.699219l-10.402344 8.300781 11.601562-6.699218c1.898438-1 4.199219-.5 5.5 1.199218 1.300782 1.699219 1.101563 4.101563-.5 5.601563l-8.898437 8 5.398437-3.101563c1.800782-1 4.199219-.597656 5.5 1.101563 1.300782 1.699219 1.199219 4-.300781 5.597656l-6.097656 6.402344c.699219.398437 1.199219.898437 1.597656 1.597656 1.199219 2 .5 4.703125-1.597656 5.800781l-16.402344 9.5c-1.800781 1.101563-4.199219.601563-5.5-1.097656-1.300781-1.703125-1.199219-4 .300781-5.601562l1-1.101563-14.5 8.402344c-1.898437 1-4.199218.5-5.5-1.199219-1.300781-1.703125-1.101562-4.101562.5-5.601562l8.898438-8-25.796875 14.898437c-1.902344 1.101563-4.402344.5-5.601563-1.296875-1.300781-1.800781-.898437-4.300781.800782-5.703125l10.300781-8.296875-26.5 15.296875c-1.902344 1.101563-4.402344.5-5.703125-1.296875-1.296875-1.800781-.898438-4.300781.902344-5.703125l16.898437-13.5-35.199219 20.300781c-1.898437 1.101563-4.300781.601563-5.601562-1.199218-1.296875-1.800782-1-4.199219.601562-5.699219l25.601563-22.699219-51.203125 29.597656c-1.898438 1.101563-4.296875.5-5.597656-1.300781-1.300782-1.796875-.902344-4.296875.699218-5.699219l22.699219-19-45 26c-1.898437 1.101563-4.398437.5-5.597656-1.300781-1.300781-1.796875-.902344-4.296875.796875-5.699219l19.5-15.597656-39.296875 22.699219c-1.902344 1.097656-4.300781.5-5.601563-1.300781-1.300781-1.800782-.898437-4.300782.800782-5.699219l21.398437-17.402344-42.097656 24.300781c-1.902344 1.101563-4.402344.5-5.601563-1.300781-1.199218-1.796875-.898437-4.296875.898438-5.699219l18.5-14.699218-37.699219 21.699218c-1.898437 1.101563-4.300781.601563-5.597656-1.097656-1.300781-1.703125-1.101563-4.203125.597656-5.703125l26.902344-25-55.203125 31.800781c-2 1.101563-4.398438.5-5.699219-1.398437-1.300781-1.902344-.800781-4.402344 1-5.699219l10.402344-7.800781-25.800781 14.898437c-1.902344 1.101563-4.300782.5-5.601563-1.300781-1.300781-1.796875-.898437-4.296875.800781-5.699219l21.300782-17.5-42.402344 24.5c-1.898438 1.101563-4.398438.5-5.597656-1.300781-1.300782-1.796875-.902344-4.296875.800781-5.699219l21.296875-17.5-42.5 24.5c-2 1.101563-4.5.5-5.699219-1.398437-1.199219-1.902344-.800781-4.402344 1-5.800781l6-4.398438-19.898437 11.5c-.601563.5-1.402344.699219-2.101563.796875zm0 0"/><path d="m293.988281 231.054688c-1.800781 0-3.5-1.199219-4-2.898438-.597656-1.703125 0-3.703125 1.5-4.800781l10.199219-7.699219-25.597656 14.796875c-1.902344 1.101563-4.402344.5-5.601563-1.296875-1.199219-1.800781-.898437-4.300781.902344-5.703125l17.097656-13.398437-35.5 20.398437c-1.898437 1.101563-4.300781.5-5.597656-1.296875-1.300781-1.800781-.902344-4.300781.699219-5.703125l22.5-18.699219-44.402344 25.699219c-2 1.101563-4.5.5-5.699219-1.398437-1.199219-1.898438-.800781-4.398438 1-5.800782l7.5-5.5-21.898437 12.699219c-1.902344 1.101563-4.402344.5-5.601563-1.296875-1.199219-1.800781-.898437-4.300781.902344-5.703125l16.898437-13.199219-35.199218 20.199219c-1.902344 1.101563-4.402344.5-5.699219-1.296875-1.300781-1.800781-.800781-4.402344.898437-5.703125l15.199219-11.699219-32.5 18.699219c-1.898437 1.101563-4.398437.5-5.597656-1.296875-1.203125-1.800781-.902344-4.300781.898437-5.703125l16.800782-13.097656-34.902344 20.097656c-1.898438 1.101563-4.398438.5-5.699219-1.296875-1.300781-1.800781-.898437-4.300781.902344-5.703125l18.097656-14.296875-37 21.296875c-2 1.101563-4.398437.5-5.699219-1.296875-1.199218-1.902344-.800781-4.402344 1-5.800781l11.300782-8.5-27 15.597656c-1.902344 1.101563-4.300782.601563-5.5-1.199219-1.300782-1.699218-1.101563-4.199218.5-5.597656l26.597656-24.402344-54.199219 31.199219c-1.898437 1.101563-4.300781.5-5.597656-1.296875-1.300781-1.800781-.902344-4.300781.796875-5.703125l21.300781-17.5-42.300781 24.5c-1.898438 1-4.199219.5-5.5-1.199219-1.296875-1.699218-1.097656-4.097656.5-5.597656l26.300781-23.902344-41 23.601563c-1.898437 1.097656-4.300781.597656-5.597656-1.199219-1.300781-1.703125-1.101563-4.203125.5-5.703125l19-17.5-20.703125 11.902344c-1.699219 1-3.898438.699219-5.296875-.800781-1.402344-1.5-1.5-3.699219-.402344-5.300782l10.300781-15.097656-.300781.199219c-1.300781.800781-3 .898437-4.398437.097656-1.402344-.796875-2.199219-2.199219-2.199219-3.796875 0-1.601562.898437-3 2.296875-3.703125l16.5-9.5c1.703125-1 3.902344-.699219 5.300781.800781 1.402344 1.5 1.5 3.699219.402344 5.300782l-10.203125 15.199218 38-21.800781c1.902344-1.097656 4.300781-.597656 5.601562 1.203125 1.300782 1.699219 1.101563 4.199219-.5 5.699219l-19 17.5 42-24.402344c1.898438-1 4.199219-.5 5.5 1.203125 1.300782 1.699219 1.101563 4.097656-.5 5.597656l-26.300781 23.902344 53.199219-30.703125c1.902344-1.097656 4.300781-.5 5.601562 1.300781 1.300782 1.800782.898438 4.300782-.800781 5.699219l-21.300781 17.5 42.402344-24.5c1.898437-1.097656 4.300781-.597656 5.5 1.203125 1.300781 1.699219 1.097656 4.199219-.5 5.597656l-26.601563 24.402344 54.101563-31.203125c2-1.097656 4.398437-.5 5.699218 1.300781 1.199219 1.902344.800782 4.402344-1 5.800782l-11.300781 8.5 27-15.601563c1.902344-1.097656 4.402344-.5 5.699219 1.300781 1.300781 1.800782.902344 4.300782-.898438 5.699219l-18.101562 14.300781 37-21.300781c1.902344-1.097656 4.402344-.5 5.601562 1.300781 1.199219 1.800782.898438 4.300782-.898437 5.699219l-16.800781 13.101563 34.898437-20.101563c1.902344-1.097656 4.402344-.5 5.699219 1.300781 1.203125 1.902344.800781 4.402344-.898438 5.699219l-15.199218 11.703125 32.597656-18.800781c1.902344-1.101563 4.402344-.5 5.601562 1.300781 1.199219 1.796875.898438 4.296875-.898437 5.699219l-16.902344 13.199219 35.101563-20.300782c2-1.097656 4.398437-.5 5.699218 1.402344 1.300782 1.898438.800782 4.398438-1 5.699219l-7.398437 5.5 21.796875-12.601563c1.902344-1.097656 4.300781-.5 5.601562 1.300782 1.300782 1.800781.898438 4.300781-.699218 5.699218l-22.5 18.699219 44.5-25.699219c1.898437-1.097656 4.398437-.5 5.699218 1.300782 1.300782 1.898437.898438 4.398437-.898437 5.699218l-17.203125 13.601563 35.402344-20.5c2-1.101563 4.398437-.5 5.699218 1.300781 1.199219 1.898438.800782 4.398438-1 5.796875l-10.199218 7.703125 25.597656-14.800781c1.902344-1.101563 4.402344-.5 5.601562 1.300781 1.199219 1.796875.898438 4.296875-.898437 5.699219l-16.800781 13.097656 35-20.199219c2-1.097656 4.398437-.5 5.597656 1.402344 1.203125 1.898438.800781 4.398438-1 5.699219l-9.796875 7.300781 25-14.402344c1.898437-1.097656 4.398437-.5 5.597656 1.300782 1.199219 1.800781.902344 4.300781-.800781 5.699218l-18.597656 14.800782 37.800781-21.800782c2-1.097656 4.5-.5 5.699219 1.402344 1.199218 1.898438.800781 4.398438-1.101563 5.796875l-.300781.203125 12.703125-7.300781c1.898437-1.101563 4.296875-.5 5.597656 1.300781 1.300781 1.796875 1 4.199219-.699219 5.699219l-23.398437 19.800781 40.699219-23.5c1.898437-1.101562 4.398437-.601562 5.597656 1.296875 1.300781 1.800781.902344 4.300781-.796875 5.703125l-18.800781 15.699219 23.5-13.5c1.898437-1.101563 4.300781-.5 5.597656 1.300781 1.300781 1.796875 1 4.296875-.699219 5.699219l-8.5 7.097656 7.101563-4.097656c1.800781-1 4-.699219 5.398437.898437 1.300781 1.5 1.402344 3.800782.199219 5.402344l-8.699219 11.296875c1.601563-.097656 3.199219.703125 4.101563 2.101563 1.199218 2 .5 4.699218-1.601563 5.800781l-16.398437 9.5c-1.800782 1-4 .597656-5.300782-.902344-1.300781-1.5-1.398437-3.796875-.101562-5.398437l8.101562-10.5-30.398437 17.398437c-1.902344 1.101563-4.300781.5-5.601563-1.296875-1.300781-1.800781-1-4.300781.699219-5.703125l8.5-7.097656-24.398437 14.097656c-1.902344 1.101563-4.402344.601563-5.601563-1.296875-1.300781-1.800781-.898437-4.300781.699219-5.703125l18.800781-15.699219-39.199219 22.699219c-1.898437 1.101563-4.300781.5-5.601562-1.296875-1.296875-1.800781-1-4.203125.703125-5.703125l23.398437-19.796875-46.300781 26.796875c-2 1.101563-4.5.5-5.699219-1.398437-1.199218-1.898438-.800781-4.398438 1.101563-5.800782l.296875-.199218-12.699219 7.300781c-1.898437 1.097656-4.398437.5-5.597656-1.300781-1.203125-1.800782-.902344-4.300782.796875-5.699219l18.601562-14.800781-37.800781 21.898437c-2 1.101563-4.398437.5-5.699219-1.398437-1.199218-1.898438-.800781-4.398438 1-5.699219l9.800782-7.300781-25 14.398437c-1.902344 1.101563-4.402344.5-5.601563-1.296875-1.199219-1.800781-.898437-4.300781.902344-5.703125l16.796875-13.097656-35 20.199219c-.699219.300781-1.398438.5-2.199219.5zm0 0"/><path d="m54.089844 401.753906c-1.902344 0-3.5-1.199218-4.101563-3-.597656-1.800781.101563-3.699218 1.601563-4.800781l2.398437-1.699219-15.398437 8.800782c-1.902344 1.101562-4.300782.5-5.601563-1.199219-1.300781-1.800781-1-4.199219.699219-5.699219l24.5-21-38.898438 22.398438c-2 1.101562-4.398437.5-5.699218-1.398438-1.199219-1.902344-.800782-4.402344 1-5.800781l1.300781-1-2.601563 1.5c-1.898437 1.097656-4.300781.5-5.601562-1.300781-1.296875-1.800782-.898438-4.300782.703125-5.699219l7.699219-6.402344-6.402344 3.703125c-1.796875 1-4 .597656-5.296875-.902344-1.300781-1.5-1.402344-3.800781-.203125-5.398437l9-11.902344c-2 .402344-4.097656-.796875-4.796875-2.699219-.703125-1.898437.097656-4.097656 1.898437-5.199218l16.5-9.5c1.800782-1 4-.601563 5.300782.898437 1.300781 1.5 1.398437 3.800781.199218 5.402344l-8.601562 11.398437 31.703125-18.300781c1.898437-1.097656 4.296875-.5 5.597656 1.300781 1.300781 1.800782.902344 4.300782-.699219 5.699219l-7.699218 6.402344 23.097656-13.402344c2-1.097656 4.402344-.5 5.601562 1.402344 1.199219 1.898437.800782 4.398437-1 5.699219l-1.300781 1 14.101563-8.101563c1.898437-1.097656 4.300781-.5 5.597656 1.203125 1.300781 1.796875 1 4.199219-.699219 5.699219l-24.5 21 48.5-28c2-1.101563 4.5-.5 5.699219 1.398437 1.203125 1.902344.800781 4.402344-1.097656 5.800782l-2.402344 1.699218 15.402344-8.898437c2-1.101563 4.398437-.5 5.699218 1.398437 1.199219 1.902344.800782 4.402344-1 5.800782l-8.300781 6.101562 22.902344-13.300781c1.898437-1.101563 4.398437-.5 5.699219 1.300781 1.300781 1.796875.898437 4.296875-.902344 5.699219l-17.898438 14.097656 36.699219-21.199219c2-1.097656 4.5-.5 5.699219 1.402344 1.203125 1.898438.800781 4.398438-1 5.796875l-7 5.101563 21.300781-12.300782c2-1.097656 4.5-.5 5.699219 1.402344 1.203125 1.898438.800781 4.398438-1 5.796875l-4.5 3.300781 18-10.398437c1.902344-1 4.203125-.5 5.5 1.199219 1.300781 1.699218 1.101562 4.101562-.5 5.601562l-26.296875 23.898438 53.199219-30.699219c1.898437-1 4.199218-.5 5.5 1.199219 1.300781 1.699218 1.097656 4.101562-.5 5.601562l-26 23.296875 52.199218-30.097656c1.898438-1.101563 4.398438-.5 5.699219 1.300781 1.300781 1.898438.902344 4.398438-.898437 5.699219l-17.5 13.800781 36.097656-20.800781c1.902344-1.101563 4.402344-.601563 5.703125 1.300781 1.296875 1.898438.898437 4.398438-.902344 5.796875l-18.199219 14.402344 37.199219-21.5c1.902344-1.101563 4.402344-.5 5.601563 1.300781 1.199218 1.796875.898437 4.296875-.800782 5.699219l-18.5 14.699219 37.601563-21.699219c2-1.101563 4.398437-.5 5.699219 1.398437 1.199218 1.902344.800781 4.402344-1 5.699219l-3.601563 2.601563 16.902344-9.699219c1.898437-1.101563 4.398437-.601563 5.597656 1.300781 1.300781 1.796875.902344 4.296875-.800781 5.699219l-20 16.097656 40-23.097656c1.902344-1.101563 4.402344-.5 5.703125 1.300781 1.199219 1.898438.796875 4.398438-.902344 5.699219l-13.398437 10.199219 30-17.300782c1.898437-1.097656 4.398437-.5 5.597656 1.300782 1.203125 1.800781.902344 4.300781-.898438 5.699218l-16.898437 13.101563 35-20.199219c1.898437-1.101562 4.398437-.5 5.597656 1.296875 1.199219 1.800781.902344 4.300781-.898437 5.703125l-17.699219 14 36.398437-21c1.898438-1.101562 4.300782-.601562 5.601563 1.097656 1.296875 1.800782 1.097656 4.199219-.601563 5.699219l-27 25.203125 46.199219-26.703125c1.902344-1.097656 4.402344-.5 5.699219 1.300781 1.203125 1.902344.800781 4.402344-.898438 5.699219l-6.398437 4.902344 8.296875-4.800781c1.902344-1.101563 4.300781-.699219 5.601562 1.101562 1.300782 1.699219 1.101563 4.199219-.5 5.699219l-14.5 14 13.398438-7.699219c1.800781-1 4.101562-.601562 5.402344 1 1.300781 1.597656 1.300781 4-.101563 5.5l-7.300781 8.097656c1.601562.601563 2.601562 2 2.800781 3.601563.199219 1.597656-.699219 3.199219-2.097656 4.097656l-16.402344 9.5c-1.800781 1-4.097656.601563-5.398437-1-1.300782-1.597656-1.300782-4 .097656-5.5l4.101562-4.597656-20.601562 11.800781c-1.898438 1.097656-4.296875.699219-5.597656-1.101562-1.300782-1.699219-1.101563-4.199219.5-5.699219l14.5-14-35.800782 20.699219c-1.898437 1.101562-4.398437.5-5.699218-1.300782-1.199219-1.898437-.800782-4.398437.898437-5.699218l6.402344-4.898438-20.703125 11.898438c-1.898438 1.101562-4.296875.601562-5.597656-1.101563-1.300782-1.796875-1.101563-4.199219.597656-5.699219l27-25.199218-55.398438 32c-1.898437 1.101562-4.398437.5-5.699218-1.300782-1.300782-1.800781-.902344-4.300781.898437-5.699218l17.699219-14-36.398438 21c-1.898437 1.101562-4.398437.5-5.601562-1.300782-1.199219-1.800781-.898438-4.300781.902344-5.699218l16.800781-13.199219-35.101563 20.199219c-1.898437 1.101562-4.398437.5-5.699218-1.300782-1.199219-1.898437-.800782-4.398437.898437-5.699218l13.402344-10.199219-29.703125 17.800781c-1.898438 1.097656-4.398438.5-5.597656-1.300781-1.300782-1.800781-.902344-4.300781.800781-5.699219l20-16.101562-40 23.101562c-2 1.097656-4.5.5-5.703125-1.402344-1.199219-1.898437-.796875-4.398437 1-5.800781l3.601562-2.597656-16.800781 9.699219c-1.898437 1.101562-4.398437.5-5.597656-1.300782-1.203125-1.800781-.902344-4.300781.796875-5.699218l18.5-14.699219-37.597656 21.699219c-1.902344 1.101562-4.402344.601562-5.699219-1.300782-1.300781-1.898437-.902344-4.398437.898437-5.800781l18.300782-14.398437-37.199219 21.5c-1.902344 1.101562-4.402344.5-5.601563-1.300782-1.199218-1.800781-.898437-4.300781.898438-5.699218l17.5-13.800782-36.097656 20.800782c-1.902344 1-4.199219.5-5.5-1.199219-1.300782-1.699219-1.101563-4.101563.5-5.601563l26-23.300781-52.402344 30.203125c-1.898438 1-4.199219.5-5.5-1.203125-1.296875-1.699219-1.097656-4.097656.5-5.597656l26.300781-23.902344-53.199219 30.703125c-2 1.097656-4.5.5-5.699218-1.402344-1.199219-1.898437-.800782-4.398437 1-5.800781l4.5-3.296875-18 10.398438c-2 1.101562-4.5.5-5.699219-1.398438-1.203125-1.902344-.800781-4.402344 1-5.800781l7-5.101563-21.203125 12.402344c-1.898438 1.097656-4.398438.5-5.699219-1.300781s-.898437-4.300781.902344-5.699219l17.898437-14.203125-36.699218 21.203125c-2 1.097656-4.402344.5-5.699219-1.402344-1.203125-1.898437-.800781-4.398437 1-5.800781l8.296875-6.199219-23 13.300782c-.597656.5-1.296875.699218-2.097656.699218zm0 0"/></g><path d="m78.289062 59.953125h395.398438c.601562 0 1.203125-.097656 1.703125-.296875.5 0 1-.101562 1.5-.101562 36.199219-7.300782 41.898437-51.699219 1.296875-57.800782-23-3.5-49.199219 0-72.296875 0h-298.601563c-24-1.300781-48-1.300781-72 0-28.300781 3.199219-52.800781 40.101563-17.300781 55.902344 16.5 7.199219 43.300781 2.296875 60.300781 2.296875zm-47.5-51.199219c1.199219-1 5.300782.601563 6.601563 0 6.296875-2.898437 21 0 27.796875 0h351.402344c13.5-.898437 27.097656-.898437 40.699218 0 3.398438.5 7.800782-1 11.101563 0 .898437.300782 2.398437-.398437 3.296875 0h1.101562c15.199219-.199218 16.101563 14.5 2.601563 44.199219h-383.601563c-10.5 0-46.699218 6.203125-55.601562 0-3.199219-14.597656-5-29.398437-5.398438-44.199219zm0 0" fill="#262626"/><path d="m17.390625 227.953125c16.296875 7.601563 43.898437 2.402344 60.796875 2.402344h393.703125c1.097656.199219 2.199219.199219 3.199219-.101563 36.097656-7.300781 45.597656-50.300781 3.398437-57.597656-20.699219-3.601562-45.199219 0-66.199219 0h-298.300781c-26.097656-1.300781-52.199219-1.300781-78.300781 0-1.398438.199219-2.597656.296875-5.5 1-25.296875 6.5-46.398438 38.699219-12.796875 54.296875zm7.597656-29.796875c1.800781-6.800781 3.5-13.203125 5.101563-19.101562.097656.199218.300781.300781.597656.101562 1.402344-.902344 5.101562.597656 6.601562 0 7.398438-2.902344 22.398438 0 30.300782 0h354.800781c12.597656 0 25.597656-.902344 38.199219 0 3.097656.199219 6.597656-.5 9.699218 0h2.601563.597656c23.699219 4.5 25 19.296875 3.699219 44.699219h-388.398438c-15.300781 0-38.699218 4.597656-53.5 0-21.898437-7-16-3.902344-10.300781-25.699219zm0 0" fill="#262626"/><path d="m17.289062 398.355469c16.5 7.398437 43.800782 2.199219 60.800782 2.199219h393.5c1.097656.199218 2.300781.101562 3.398437-.199219 35.601563-7.199219 45.601563-49.601563 3.601563-56.699219-20.800782-3.5-45.199219 0-66.199219 0h-298.300781c-26.101563-1.402344-52.199219-1.402344-78.300782 0-27.300781 2.898438-54.398437 38.398438-18.5 54.699219zm19.898438-49c7.902344-2.699219 22 0 30.300781 0h354.800781c12.5 0 25.699219-1.101563 38.199219 0 3.199219-.199219 6.402344-.199219 9.699219 0 .703125.199219 1.800781-.199219 2.5 0 5.101562 1.398437 59.402344 34.199219 5.203125 45.5h-388.902344c-15.898437 0-38 4.199219-53.5 0-32.898437-8.800781-17.199219-38.902344 1.699219-45.5zm0 0" fill="#262626"/></svg>