<svg height="506pt" viewBox="0 -2 506.71104 506" width="506pt" xmlns="http://www.w3.org/2000/svg"><path d="m261.667969 502.550781c-1.890625 0-3.554688-1.242187-4.089844-3.054687-.539063-1.808594.175781-3.757813 1.761719-4.789063l80.765625-52.652343-102.851563 59.410156c-2.003906 1.140625-4.550781.484375-5.75-1.484375-1.203125-1.964844-.625-4.53125 1.304688-5.792969l106.144531-68.566406-126.292969 72.941406c-2.015625 1.21875-4.640625.570312-5.855468-1.445312-1.21875-2.015626-.574219-4.640626 1.445312-5.859376l92.945312-58.527343-107.410156 61.984375c-2.007812 1.125-4.550781.453125-5.738281-1.519532-1.191406-1.972656-.597656-4.53125 1.335937-5.785156l110.695313-69.582031-123.734375 71.441406c-2.015625 1.136719-4.570312.460938-5.757812-1.527343-1.1875-1.984376-.574219-4.554688 1.378906-5.792969l75.894531-46.839844-85.433594 49.332031c-2.023437 1.152344-4.59375.472656-5.78125-1.53125-1.1875-2-.550781-4.585937 1.429688-5.808594l28.433593-17.304687-34.511718 19.925781c-2.019532 1.210938-4.640625.554688-5.851563-1.46875-1.210937-2.019531-.554687-4.640625 1.464844-5.851562l131.664063-81.921875-141.910157 81.921875c-2.011719 1.125-4.550781.453125-5.738281-1.519532-1.191406-1.972656-.601562-4.535156 1.335938-5.785156l126.566406-78.320312-135.203125 78.019531c-2.023438 1.210937-4.644531.554687-5.855469-1.46875-1.210938-2.019531-.554688-4.640625 1.46875-5.851563l152.261719-94.601562-161.085938 93.011719c-2.011719 1.078125-4.515625.378906-5.679687-1.582031-1.164063-1.960938-.578125-4.496094 1.328125-5.746094l77.5-47.207032-82.566407 47.667969c-2.007812 1.085938-4.515624.402344-5.691406-1.550781-1.175781-1.957031-.605468-4.492188 1.292969-5.753906l185.847656-116.113282-194.234375 112.1875c-2.015625 1.164063-4.589844.496094-5.789062-1.5-1.199219-1.992187-.578125-4.578124 1.394531-5.8125l195.652344-122.292968-203.640625 117.574218c-2.015625 1.136719-4.566406.457032-5.753906-1.527343-1.1875-1.988281-.578126-4.554688 1.378906-5.792969l177.621094-110.082031-183.195313 105.789062c-2.015625 1.113281-4.554687.425781-5.730469-1.554687-1.179687-1.980469-.570312-4.535156 1.371094-5.777344l135.976562-83.300781-140.023437 80.84375c-2.019531 1.128906-4.574219.433593-5.75-1.558594-1.175781-1.996094-.546875-4.5625 1.417969-5.789063l39.328125-23.722656-40.464844 23.363282c-2.023437 1.152343-4.59375.472656-5.78125-1.527344-1.1875-2.003906-.550781-4.585938 1.429687-5.808594l113.613282-69.242188-115.40625 66.636719c-2.003906 1.089844-4.511719.40625-5.6875-1.550781-1.175782-1.953125-.605469-4.488281 1.292968-5.75l206.378907-128.769531-210.890625 121.761719c-2.027344 1.207031-4.644532.542968-5.851563-1.480469-1.207031-2.023438-.542969-4.644531 1.480469-5.847657l160.367188-98.671874-161.9375 93.488281c-2.015626 1.097656-4.539063.402343-5.710938-1.574219-1.167969-1.976562-.5625-4.523438 1.367188-5.761719l69.847656-42.300781-69.523438 40.105469c-2.019531 1.214843-4.644531.558593-5.855468-1.460938-1.214844-2.023437-.558594-4.644531 1.460937-5.859375l196.488281-122.316406-198.476562 114.566406c-2.015625 1.136719-4.566406.460938-5.753906-1.527344-1.1875-1.984374-.578126-4.554687 1.378906-5.792968l159.410156-98.292969-158.796875 91.65625c-2.011719 1.074219-4.515625.375-5.679687-1.585937-1.164063-1.960938-.582032-4.492188 1.328124-5.746094l119.191407-72.933594-117.828125 68.042969c-2.019532 1.210937-4.640625.554687-5.851563-1.464844-1.210937-2.023437-.554687-4.644531 1.464844-5.855469l174.933594-108.800781-174.042969 100.480469c-2.027344 1.210937-4.648438.546875-5.855469-1.476563-1.207031-2.023437-.546875-4.644531 1.476563-5.851562l133.230468-82.082031-130.046874 75.066406c-2.015626 1.113281-4.554688.425781-5.730469-1.554688-1.179688-1.976562-.574219-4.535156 1.367187-5.777344l94.960938-58.128906-91.613282 52.90625c-2.007812 1.089844-4.511718.40625-5.6875-1.550781-1.175781-1.953125-.609374-4.488281 1.292969-5.753906l151.601563-94.539063-147.703125 85.332032c-2.011719 1.09375-4.523438.402343-5.699219-1.5625-1.171875-1.964844-.585938-4.503907 1.332031-5.757813l101.085938-62.292969-95.746094 55.203125c-2.007813 1.148438-4.566406.484375-5.765625-1.496093-1.199219-1.976563-.601562-4.550782 1.347656-5.800782l157.644532-99.839844-151.042969 87.175782c-2 1.058594-4.480469.363281-5.648438-1.578125-1.164062-1.941407-.609375-4.453125 1.265625-5.726563l102.894532-64.136718-95.113282 54.863281c-2.003906 1.101562-4.523437.425781-5.707031-1.53125-1.183594-1.960938-.613281-4.503907 1.292969-5.765625l110.304687-69.640625-100.695312 58.136719c-2.007813 1.148437-4.566407.484374-5.765625-1.492188-1.199219-1.980469-.601563-4.554688 1.347656-5.804688l104.53125-66.710937-93.0625 53.757813c-1.300781.800781-2.929688.847656-4.277344.125-1.34375-.726563-2.199218-2.113282-2.242187-3.640626-.042969-1.527343.730469-2.960937 2.03125-3.761718l109.496093-72.175782-91.925781 53.078126c-1.992187 1.214843-4.59375.605468-5.835937-1.367188-1.242188-1.976562-.671875-4.582031 1.285156-5.851562l86.078125-58.746094-60.957031 35.191406c-1.945313 1.125-4.433594.546875-5.679688-1.324219-1.25-1.871093-.832031-4.390625.953125-5.757812l47.25-36.0625h-.058593c-1.933594 0-3.621094-1.296875-4.121094-3.160157-.5-1.867187.3125-3.835937 1.988281-4.800781l52.085937-30.078125c1.945313-1.101562 4.410157-.515625 5.652344 1.347656 1.238282 1.859376.832032 4.363282-.933594 5.734376l-43.835937 33.519531 101.410156-58.609375c1.984375-1.132813 4.507813-.503906 5.726563 1.429687 1.21875 1.929688.699218 4.480469-1.179688 5.78125l-86.039062 58.753907 118.960937-68.6875c2.007813-1.238282 4.636719-.617188 5.875 1.386718 1.242188 2.007813.621094 4.636719-1.386719 5.875l-109.507812 72.160156 134.160156-77.457031c2.007813-1.121093 4.539063-.453125 5.730469 1.507813 1.191406 1.960937.617187 4.515625-1.300781 5.777344l-104.644532 66.785156 121.378907-70.058594c2.003906-1.070312 4.492187-.386719 5.664062 1.558594 1.171875 1.941406.621094 4.464844-1.261719 5.734375l-110.179687 69.566406 124.925781-72.125c2.015625-1.164063 4.589844-.496094 5.789063 1.5 1.199219 1.992187.578125 4.578125-1.394531 5.8125l-102.945313 64.214844 114.347656-66.03125c2.007813-1.148438 4.566407-.484375 5.765625 1.492187 1.199219 1.980469.601563 4.554688-1.347656 5.804688l-157.59375 99.839844 171.785156-99.183594c2.023438-1.210938 4.644532-.546875 5.855469 1.476562 1.207031 2.023438.546875 4.644532-1.476563 5.851563l-101.0625 62.269531 109.484376-63.148438c2.015624-1.160156 4.589843-.496093 5.789062 1.5 1.199219 1.992188.578125 4.582032-1.394531 5.8125l-151.652344 94.527344 161.550781-93.304687c2.015625-1.117188 4.554688-.429688 5.730469 1.550781 1.179687 1.980469.574219 4.539062-1.371094 5.777344l-94.863281 58.105468 100.992188-58.308593c2.023437-1.210938 4.644531-.546875 5.855468 1.476562 1.207032 2.023438.546875 4.644531-1.476562 5.851563l-133.265625 82.101562 140.269531-80.980468c2.023438-1.210938 4.644531-.554688 5.855469 1.464843 1.210937 2.023438.554687 4.644531-1.46875 5.855469l-174.933594 108.800781 182.613281-105.457031c2.027344-1.203125 4.644532-.535156 5.851563 1.488281 1.203125 2.027344.535156 4.648438-1.492188 5.851563l-119.125 72.910156 124.09375-71.679688c2.023438-1.210937 4.644531-.550781 5.851563 1.472657 1.210937 2.027343.550781 4.648437-1.476563 5.855469l-159.359375 98.296874 164.226563-94.816406c2.015625-1.160156 4.589843-.492187 5.785156 1.5 1.199219 1.992188.578125 4.582032-1.390625 5.816406l-196.378906 122.304688 202.761718-117.058594c2.015626-1.097656 4.539063-.402344 5.707032 1.574219 1.171875 1.976563.566406 4.523437-1.363282 5.765625l-70.214843 42.511719 71.929687-41.523438c2.023438-1.207031 4.640625-.542969 5.847656 1.480469 1.207032 2.023438.542969 4.644531-1.480468 5.851562l-160.359375 98.660157 163.269531-94.257813c2.015625-1.164062 4.589844-.496094 5.789062 1.496094 1.199219 1.996094.578126 4.582031-1.394531 5.816406l-206.308593 128.707032 210.773437-121.710938c2.011719-1.074219 4.511719-.375 5.679687 1.585938 1.164063 1.960937.578126 4.492187-1.328124 5.746093l-113.777344 69.351563 114.347656-65.988282c2.015625-1.0625 4.507812-.359374 5.664062 1.601563s.574219 4.484375-1.328124 5.734375l-39.160157 23.628906 38.511719-22.238281c2.027344-1.203125 4.644531-.535156 5.847656 1.488281 1.207032 2.027344.539063 4.648438-1.488281 5.851563l-135.9375 83.257812 136.535156-78.828125c2.023438-1.210937 4.644531-.554687 5.855469 1.46875 1.210938 2.019532.550781 4.640625-1.46875 5.851563l-177.734375 110.082031 178.015625-102.734375c2.007812-1.085937 4.511719-.402344 5.6875 1.550781 1.175781 1.957032.605469 4.492188-1.292969 5.753906l-195.558593 122.230469 195.300781-112.785156c2.003906-1.054687 4.484375-.363281 5.648437 1.578125 1.167969 1.941406.613282 4.457031-1.261718 5.726562l-185.941407 116.164063 184.988281-106.8125c2.011719-1.074219 4.511719-.375 5.679688 1.585937 1.164062 1.960938.578125 4.492188-1.328125 5.746094l-77.253906 47.050782 73.847656-42.664063c2.011719-1.109375 4.539063-.425781 5.71875 1.542969s.589844 4.515625-1.332031 5.769531l-152.355469 94.703125 149.257813-86.1875c2.011718-1.089844 4.523437-.398438 5.699218 1.566406 1.171875 1.964844.585938 4.503906-1.332031 5.753906l-126.511719 78.328126 122.402344-70.6875c1.304688-.785157 2.933594-.8125 4.265625-.074219 1.335937.738281 2.171875 2.136719 2.199219 3.660156.027344 1.527344-.765625 2.949219-2.070313 3.734375l-131.714843 81.972656 126.210937-72.859375c2.019531-1.152343 4.59375-.472656 5.78125 1.53125 1.1875 2 .550781 4.585938-1.429687 5.808594l-28.230469 17.195313 23.039062-13.304688c2.015625-1.136719 4.570313-.457031 5.757813 1.527344s.574218 4.554687-1.378906 5.792968l-75.945313 46.839844 68.546875-39.570312c2-1.042969 4.464844-.347656 5.628906 1.582031 1.164063 1.933594.621094 4.4375-1.234375 5.714844l-110.675781 69.605469 102.648438-59.261719c2.003906-1.101563 4.519531-.429688 5.707031 1.53125 1.183593 1.957031.609375 4.5-1.296875 5.765625l-92.835938 58.484375 82.066406-47.375c2.011719-1.230469 4.636719-.597657 5.867188 1.410156 1.230469 2.011719.597656 4.636719-1.414062 5.867187l-106.203126 68.574219 92.160157-53.1875c2-1.164062 4.566406-.519531 5.78125 1.457031 1.210937 1.972657.625 4.554688-1.320313 5.8125l-80.863281 52.675782 63.8125-36.835938c2.007813-1.242187 4.636719-.621094 5.875 1.386719 1.242187 2.003906.621094 4.632813-1.382813 5.875l-51.578124 33.945313 30.5-17.613282c1.949218-1.109375 4.421874-.519531 5.664062 1.347656 1.242188 1.867188.824219 4.375-.953125 5.742188l-45.585937 34.542969c1.878906.117187 3.457031 1.453125 3.886718 3.285156.429688 1.832031-.390625 3.726563-2.019531 4.667969l-52.050781 30.074218c-1.949219 1.109376-4.425782.519532-5.667969-1.347656-1.238281-1.871094-.824219-4.378906.957031-5.746094l41.019532-31.09375-97.171876 56.089844c-2 1.199219-4.597656.566406-5.820312-1.421875-1.226562-1.988281-.628906-4.589843 1.34375-5.839843l51.660156-33.988282-75.417968 43.519532c-.65625.386718-1.40625.589843-2.167969.589843zm0 0" fill="#d94452"/><g fill="#262626"><path d="m306.40625 495.976562c115.664062-25.660156 198.554688-127.40625 200.304688-245.871093-1.363282-114.332031-79.453126-213.453125-190.292969-241.542969-93.5-22.148438-191.609375 8.855469-255.402344 80.707031-74.273437 85.996094-81.476563 211.175781-17.554687 305.121094 59.144531 83.789063 162.832031 123.847656 262.945312 101.585937zm-21.765625-486.253906c121.546875 17.527344 206.847656 123.425782 209.714844 243.695313-3.414063 143.113281-126.03125 261.574219-272.898438 240.382812-120.171875-18.863281-208.957031-122.050781-209.679687-243.695312.070312-143.410157 128.785156-261.167969 272.863281-240.382813zm0 0"/><path d="m246.332031 253.394531-109.789062 109.789063c-2.492188 2.492187 9.054687 1.152344 11.179687-.972656l103.714844-103.714844c35.632812 35.625 71.265625 71.253906 106.894531 106.898437 3.851563 3.847657 15.566407-1.164062 11.332031-5.394531l-109.863281-109.867188 109.789063-109.789062c2.492187-2.492188-9.054688-1.152344-11.179688.972656l-103.714844 103.714844-106.894531-106.898438c-3.851562-3.847656-15.566406 1.160157-11.335937 5.394532zm0 0"/></g></svg>