<svg id="icons" height="512" viewBox="0 0 60 60" width="512" xmlns="http://www.w3.org/2000/svg"><path d="m14.319 54.5a.5.5 0 0 1 -.271-.92l12.352-7.98-12.117 7a.5.5 0 0 1 -.523-.852l12.8-8.349-12.28 7.077a.5.5 0 0 1 -.526-.85l13.16-8.713-12.634 7.294a.5.5 0 0 1 -.517-.855l5.091-3.223-4.574 2.64a.5.5 0 0 1 -.516-.856l3.1-1.952-2.584 1.489a.5.5 0 0 1 -.516-.855l2.871-1.808-2.324 1.341a.5.5 0 0 1 -.52-.854l10.509-6.725-9.8 5.658a.5.5 0 0 1 -.52-.854l11.5-7.343-10.53 6.079a.5.5 0 0 1 -.512-.859l.794-.489a.494.494 0 0 1 -.529-.23.5.5 0 0 1 .16-.681l10.221-6.481-8.492 4.9a.5.5 0 0 1 -.521-.854l11.8-7.581-8.195 4.731a.5.5 0 0 1 -.522-.853l9.746-6.287-7.564 4.366a.5.5 0 0 1 -.518-.854l4.571-2.9-5 2.887a.5.5 0 0 1 -.515-.856l1.285-.8-1.628.94a.5.5 0 0 1 -.518-.855l7.307-4.654-7.82 4.508a.5.5 0 0 1 -.522-.853l11.068-7.154-11.606 6.7a.5.5 0 0 1 -.515-.857l4.824-3.017-5 2.889a.5.5 0 0 1 -.519-.855l10.017-6.394-10.221 5.9a.5.5 0 0 1 -.52-.854l9.19-5.915-9.316 5.378a.5.5 0 0 1 -.527-.848l10.786-7.207-10.819 6.246a.5.5 0 0 1 -.534-.844l9.972-6.89-9.795 5.655a.5.5 0 0 1 -.539-.841l7.941-5.635-7.585 4.379a.5.5 0 0 1 -.53-.847l2.639-1.782-2.109 1.217a.5.5 0 0 1 -.534-.844l1.96-1.357-1.426.823a.5.5 0 0 1 -.568-.818l3.781-3.127-3.213 1.854a.5.5 0 0 1 -.6-.788l2.12-2.101-1.521.878a.5.5 0 0 1 -.611-.778l.4-.418a.493.493 0 0 1 -.353-.109.5.5 0 0 1 -.161-.542l.22-.688a.478.478 0 0 1 -.177-.18.5.5 0 0 1 .182-.682l.5-.289a.5.5 0 0 1 .726.586l-.105.325 1.585-.903a.5.5 0 0 1 .612.778l-.279.29 1.855-1.07a.5.5 0 0 1 .6.788l-2.123 2.1 5-2.888a.5.5 0 0 1 .569.818l-3.78 3.126 6.841-3.956a.5.5 0 0 1 .534.844l-1.966 1.361 3.824-2.207a.5.5 0 0 1 .53.847l-2.634 1.779 4.552-2.628a.5.5 0 0 1 .539.841l-7.942 5.636 11.224-6.481a.5.5 0 0 1 .535.844l-9.971 6.89 13.4-7.738a.5.5 0 0 1 .528.849l-10.791 7.208 13.958-8.061a.5.5 0 0 1 .52.854l-9.19 5.916 11.732-6.772a.5.5 0 0 1 .52.855l-10.012 6.39 10.05-5.8a.5.5 0 0 1 .515.856l-4.835 3.031 4.32-2.5a.5.5 0 0 1 .521.853l-11.057 7.147 10.536-6.081a.5.5 0 0 1 .518.855l-7.3 4.651 6.785-3.917a.5.5 0 0 1 .514.857l-1.286.8.772-.445a.5.5 0 0 1 .517.855l-4.573 2.9 4.056-2.341a.5.5 0 0 1 .521.853l-9.735 6.289 9.13-5.271a.5.5 0 0 1 .52.854l-11.809 7.588 11.084-6.4a.5.5 0 0 1 .517.855l-10.2 6.471 9.117-5.263a.5.5 0 0 1 .512.858l-.853.526a.494.494 0 0 1 .525.23.5.5 0 0 1 -.158.682l-11.512 7.346 9.426-5.441a.5.5 0 0 1 .519.853l-10.513 6.726 5.851-3.377a.5.5 0 0 1 .517.856l-2.865 1.8 2.344-1.352a.5.5 0 0 1 .517.855l-3.11 1.96 3.474-2a.5.5 0 0 1 .518.856l-5.076 3.212 5.573-3.217a.5.5 0 0 1 .526.849l-13.165 8.715 14.019-8.093a.5.5 0 0 1 .523.852l-12.8 8.35 13.432-7.756a.5.5 0 0 1 .521.852l-12.347 7.987 12.649-7.3a.5.5 0 0 1 .515.856l-3.157 1.972 3.176-1.833a.5.5 0 0 1 .526.85l-10.775 7.116 10.8-6.232a.5.5 0 0 1 .528.848l-9.265 6.217 9.184-5.3a.5.5 0 0 1 .53.848l-6.848 4.607 6.488-3.745a.5.5 0 0 1 .525.851l-2.452 1.606 2.031-1.172a.5.5 0 0 1 .525.85l-.8.529.28-.161a.5.5 0 0 1 .558.826l-5.29 4.151 4.738-2.735a.5.5 0 0 1 .548.834l-1.453 1.079.909-.524a.5.5 0 0 1 .6.787l-2.169 2.161 1.572-.907a.5.5 0 0 1 .648.129.5.5 0 0 1 -.045.658l-.325.323a.5.5 0 0 1 .455.644l-.233.768a.492.492 0 0 1 .191.188.5.5 0 0 1 -.183.682l-.5.289a.5.5 0 0 1 -.728-.577l.129-.43-1.748 1.013a.5.5 0 0 1 -.6-.787l.1-.1-1.545.891a.5.5 0 0 1 -.6-.787l2.17-2.163-5.115 2.951a.5.5 0 0 1 -.548-.834l1.452-1.076-3.314 1.913a.5.5 0 0 1 -.559-.826l5.29-4.151-8.631 4.98a.5.5 0 0 1 -.525-.85l.8-.527-2.388 1.379a.5.5 0 0 1 -.525-.851l2.448-1.61-4.269 2.464a.5.5 0 0 1 -.529-.848l6.847-4.608-9.459 5.459a.5.5 0 0 1 -.528-.848l9.27-6.219-12.242 7.07a.5.5 0 0 1 -.525-.85l10.763-7.117-13.807 7.971a.5.5 0 0 1 -.515-.857l3.163-1.974-4.91 2.834a.494.494 0 0 1 -.25.066z" fill="#3778c6"/><path d="m13.786 7.471a.5.5 0 0 1 -.292-.906l.222-.16-1.4.81a.5.5 0 0 1 -.59-.8l2.954-2.749-3.93 2.269a.5.5 0 0 1 -.567-.819l.763-.629-.584.337a.5.5 0 0 1 -.647-.736l1.046-1.37a.506.506 0 0 1 -.51-.244.5.5 0 0 1 .183-.683l1.93-1.115a.5.5 0 0 1 .648.736l-.992 1.3 3.664-2.112a.5.5 0 0 1 .567.818l-.761.626 2.503-1.444a.5.5 0 0 1 .591.8l-2.954 2.746 6.145-3.546a.5.5 0 0 1 .542.838l-.223.162 1.732-1a.5.5 0 0 1 .566.82l-2.426 1.97 4.834-2.79a.5.5 0 0 1 .575.812l-2.823 2.411 5.589-3.223a.5.5 0 0 1 .59.8l-3.158 2.937 6.478-3.737a.5.5 0 0 1 .565.82l-2.443 1.985 4.864-2.805a.5.5 0 0 1 .549.833l-1.156.864 2.939-1.697a.5.5 0 0 1 .553.831l-1.511 1.144 3.427-1.975a.5.5 0 0 1 .557.827l-1.901 1.473 3.993-2.3a.5.5 0 0 1 .554.83l-1.616 1.231 3.511-2.026a.5.5 0 0 1 .545.836l-.637.467 1.456-.838a.5.5 0 0 1 .593.8l-2.651 2.5 3.262-1.883a.5.5 0 0 1 .632.755l-1.56 1.848.944-.544a.5.5 0 0 1 .5.866l-3.42 1.958a.5.5 0 0 1 -.632-.755l1.561-1.845-4.507 2.6a.5.5 0 0 1 -.592-.8l2.65-2.49-5.703 3.29a.5.5 0 0 1 -.546-.836l.637-.465-2.256 1.301a.5.5 0 0 1 -.554-.83l1.613-1.23-3.571 2.06a.5.5 0 0 1 -.556-.827l1.9-1.477-3.996 2.304a.5.5 0 0 1 -.553-.831l1.511-1.147-3.427 1.978a.5.5 0 0 1 -.549-.833l1.157-.864-2.94 1.7a.5.5 0 0 1 -.565-.82l2.442-1.983-4.862 2.8a.5.5 0 0 1 -.591-.8l3.159-2.937-6.479 3.737a.5.5 0 0 1 -.576-.812l2.825-2.411-5.589 3.223a.5.5 0 0 1 -.566-.82l2.428-1.972-4.837 2.792a.493.493 0 0 1 -.25.071z" fill="#b0ccdd"/><path d="m15.612 59.471a.5.5 0 0 1 -.3-.9l1.232-.923-3.044 1.752a.5.5 0 0 1 -.569-.817l2.617-2.171-4.065 2.346a.5.5 0 0 1 -.582-.807l2.287-2.03-2.7 1.557a.5.5 0 0 1 -.572-.814l.476-.4-.092.052a.5.5 0 0 1 -.617-.771l.794-.862a.5.5 0 0 1 -.051-.892l1.934-1.116a.5.5 0 0 1 .617.771l-.334.364 2.1-1.213a.5.5 0 0 1 .572.814l-.474.4 2.111-1.211a.5.5 0 0 1 .582.806l-2.287 2.031 4.915-2.837a.5.5 0 0 1 .569.817l-2.617 2.172 5.178-2.989a.5.5 0 0 1 .55.833l-1.231.921 3.041-1.754a.5.5 0 0 1 .56.825l-2.1 1.657 4.3-2.482a.5.5 0 0 1 .545.836l-.658.481 2.282-1.317a.5.5 0 0 1 .576.811l-2.863 2.465 5.675-3.276a.5.5 0 0 1 .557.827l-1.928 1.5 4.035-2.33a.5.5 0 0 1 .592.8l-3.172 2.971 6.529-3.768a.5.5 0 0 1 .566.819l-2.491 2.037 4.948-2.856a.5.5 0 0 1 .579.81l-2.91 2.526 5.7-3.29a.5.5 0 0 1 .554.829l-1.693 1.3 2.671-1.542a.5.5 0 0 1 .587.8l-2.4 2.181 2.825-1.631a.5.5 0 0 1 .589.8l-.98.905.5-.289a.5.5 0 0 1 .5.865l-4.384 2.536a.5.5 0 0 1 -.589-.8l.982-.907-2.956 1.707a.5.5 0 0 1 -.587-.8l2.4-2.182-5.173 2.982a.5.5 0 0 1 -.554-.829l1.692-1.3-3.694 2.129a.5.5 0 0 1 -.578-.81l2.908-2.525-5.779 3.335a.5.5 0 0 1 -.566-.819l2.49-2.036-4.946 2.855a.5.5 0 0 1 -.592-.8l3.172-2.971-6.529 3.771a.5.5 0 0 1 -.558-.827l1.931-1.5-4.038 2.327a.5.5 0 0 1 -.576-.811l2.863-2.465-5.675 3.276a.5.5 0 0 1 -.545-.836l.658-.481-2.283 1.317a.5.5 0 0 1 -.559-.825l2.1-1.657-4.3 2.482a.493.493 0 0 1 -.25.071z" fill="#b0ccdd"/><path d="m28.866 27.979a.5.5 0 0 1 -.294-.9l3.722-2.7-4.686 2.7a.5.5 0 0 1 -.546-.835l6.238-4.596-7.581 4.377a.5.5 0 0 1 -.528-.848l2.809-1.877-3.474 2a.5.5 0 0 1 -.535-.844l6.7-4.64-7.667 4.426a.5.5 0 0 1 -.536-.843l8.348-5.829-9.115 5.263a.5.5 0 0 1 -.53-.848l4.907-3.3-5.168 2.983a.5.5 0 0 1 -.524-.852l.5-.326-.5.289a.5.5 0 0 1 -.551-.831l5.9-4.461-6.013 3.471a.5.5 0 0 1 -.549-.834l3.193-2.377-2.944 1.7a.5.5 0 0 1 -.541-.839l.288-.207a.5.5 0 0 1 -.484-.826l2.278-2.46-1.7.98a.5.5 0 0 1 -.7-.643l.588-1.272a.52.52 0 0 1 -.48-.248.5.5 0 0 1 .183-.684l1.128-.65a.5.5 0 0 1 .7.643l-.554 1.2 3.189-1.841a.5.5 0 0 1 .617.772l-2.276 2.459 5.6-3.232a.5.5 0 0 1 .541.839l-.12.086 1.6-.925a.5.5 0 0 1 .549.834l-3.193 2.377 5.565-3.21a.5.5 0 0 1 .551.831l-5.9 4.463 9.173-5.294a.5.5 0 0 1 .523.851l-.5.325 2.041-1.176a.5.5 0 0 1 .53.847l-4.9 3.3 6.662-3.847a.5.5 0 0 1 .536.842l-8.336 5.824 8.125-4.691a.5.5 0 0 1 .535.844l-6.7 4.641 6.16-3.56a.5.5 0 0 1 .527.848l-2.814 1.882 2.167-1.249a.5.5 0 0 1 .547.835l-6.238 4.591 5.142-2.968a.5.5 0 0 1 .544.837l-3.719 2.7 2.011-1.16a.5.5 0 0 1 .5.865l-10.271 5.931a.491.491 0 0 1 -.25.067z" fill="#2d629b"/><path d="m22.921 49.471a.5.5 0 0 1 -.289-.908l7.1-5.041-9.962 5.751a.5.5 0 0 1 -.538-.841l8.468-5.932-8.42 4.861a.5.5 0 0 1 -.53-.846l5.383-3.639-4.853 2.8a.5.5 0 0 1 -.543-.838l7.314-5.289-6.61 3.815a.5.5 0 0 1 -.536-.843l4.129-2.886-3.145 1.815a.5.5 0 0 1 -.533-.846l1.182-.806a.5.5 0 0 1 -.5-.86l3.134-2.358-.255.147a.5.5 0 0 1 -.5-.866l7.368-4.254a.5.5 0 0 1 .551.832l-3.131 2.361 4.2-2.423a.5.5 0 0 1 .533.846l-1.15.785 1.739-1.008a.5.5 0 0 1 .536.843l-4.127 2.885 5.053-2.916a.5.5 0 0 1 .543.837l-7.312 5.29 8.626-4.98a.5.5 0 0 1 .53.847l-5.383 3.638 6.128-3.537a.5.5 0 0 1 .537.842l-8.472 5.933 9.254-5.343a.5.5 0 0 1 .539.84l-7.093 5.039 7.51-4.336a.5.5 0 0 1 .544.836l-5.748 4.208 5.9-3.405a.5.5 0 0 1 .543.838l-3.182 2.3 3.041-1.759a.5.5 0 0 1 .575.813l-3.646 3.127 3.292-1.9a.5.5 0 0 1 .567.82l-.875.717.314-.181a.5.5 0 0 1 .657.722l-.978 1.375.32-.184a.5.5 0 0 1 .5.865l-2.3 1.328a.5.5 0 0 1 -.657-.721l.975-1.375-3.638 2.094a.5.5 0 0 1 -.568-.819l.875-.717-2.657 1.536a.5.5 0 0 1 -.575-.812l3.645-3.124-6.82 3.936a.5.5 0 0 1 -.543-.838l3.183-2.3-5.435 3.138a.5.5 0 0 1 -.545-.836l5.748-4.208-8.737 5.044a.493.493 0 0 1 -.25.071z" fill="#2d629b"/><g fill="#262626"><path d="m40.141 29.065c.366-.314.754-.6 1.113-.926a16.5 16.5 0 0 0 2.4-2.684 17.308 17.308 0 0 0 3.078-10.327v-7.593a6.216 6.216 0 0 0 .845-.08 3.687 3.687 0 0 0 3.077-4.293 3.6 3.6 0 0 0 -3.648-2.686c-1.734-.03-3.471 0-5.206 0h-28.145a4.918 4.918 0 0 0 -2.488.513 3.514 3.514 0 0 0 -1.252 5.1 3.92 3.92 0 0 0 3.358 1.427c-.028 5.776-.763 12.076 2.445 17.179a16.515 16.515 0 0 0 1.8 2.37c.827.9 1.876 1.526 2.725 2.373 1.07 1.068-.674 1.871-1.415 2.522a16.367 16.367 0 0 0 -2.545 2.811 17.174 17.174 0 0 0 -3.008 10.235v7.659a4.155 4.155 0 0 0 -3.728 2.207c-1.028 2.3.868 4.387 3.152 4.472 5.114.189 10.269 0 15.385 0h18.616c2.089-.113 4.263-1.517 4.007-3.865a3.339 3.339 0 0 0 -3.493-2.823c-.16 0-.32 0-.479 0 .024-5.63.736-11.771-2.139-16.845a16.775 16.775 0 0 0 -4.37-4.969c-.926-.721-1.045-.951-.085-1.777zm8.725 25.615c.815 1.358.351 3.873-1.566 3.976h-32.029c-.6 0-1.217.033-1.82 0a2.841 2.841 0 0 1 -2.579-3.716 2.511 2.511 0 0 1 2.528-1.632 1.312 1.312 0 0 0 .625-.017c.6.005 1.2.053 1.743.053h28.961c.214 0 .431-.006.648-.01a.941.941 0 0 0 1.1.008h.141a2.779 2.779 0 0 1 2.248 1.338zm-10.349-23.448a32.155 32.155 0 0 1 2.98 2.686 16.376 16.376 0 0 1 3.77 10.954v7.775c-1.267 0-2.535.009-3.8.009h-22.333c-1.468 0-2.94-.018-4.411-.009-.014-6.008-.821-12.572 2.783-17.78a15.824 15.824 0 0 1 2.115-2.467c.668-.635 2.016-1.235 2.377-2.117s-.389-1.338-.985-1.79a16.1 16.1 0 0 1 -2.728-2.632 16.69 16.69 0 0 1 -3.561-10.863v-7.474h13.21c.822 0 1.116-1.048.132-1.048-4.883 0-9.793.163-14.673 0a2.605 2.605 0 0 1 -2.434-3.635 2.446 2.446 0 0 1 2.494-1.317h32.087c.446 0 .911-.037 1.356 0 2.34.192 3.412 3.742 1.024 4.788a3.789 3.789 0 0 1 -1.539.211.984.984 0 0 0 -.457-.016c-.314-.015-.62-.031-.886-.031h-12.972c-.822 0-1.116 1.048-.132 1.048h12.972c.12 0 .243 0 .365.006.04 5.8.762 12.146-2.6 17.2a15.626 15.626 0 0 1 -2.231 2.645c-.7.668-2.011 1.245-2.409 2.157a1.41 1.41 0 0 0 .486 1.7z"/><path d="m41.586 17.256a25.43 25.43 0 0 0 .143-4.066c0-1.143.067-2.237-1.128-2.574a.563.563 0 0 0 -.334-.081h-17.975c-1.19 0-3.139-.313-3.838.918-.438.769-.183 2.107-.183 2.942a17.085 17.085 0 0 0 .266 3.751 11.576 11.576 0 0 0 5.8 7.55c1.01.565 2.024 1.123 3.036 1.685a5.317 5.317 0 0 0 2.526 1.07 5.952 5.952 0 0 0 2.361-1.036q1.577-.874 3.152-1.75a11.854 11.854 0 0 0 6.174-8.409zm-6.874 7.744c-.819.459-1.642.911-2.463 1.367l-1.4.778c-.156.086-.619.46-.8.447.159.011-.34-.313-.39-.34l-1.42-.789c-.889-.493-1.779-.984-2.667-1.48a11 11 0 0 1 -5.507-6.919 24.5 24.5 0 0 1 -.33-6.131c0-.612.09-.469.67-.469h19.328c.871.118.538 2.261.538 2.825a19.394 19.394 0 0 1 -.142 3.114 10.65 10.65 0 0 1 -5.417 7.597z"/><path d="m31.18 31.854a2.522 2.522 0 0 0 -2.429.26c-1.015.553-2.022 1.122-3.032 1.683-2.518 1.4-4.758 2.928-6.147 5.56s-1.3 5.365-1.3 8.229c0 1.005.3 1.734 1.448 1.8.378.021.764 0 1.142 0h14.081c1.575 0 3.175.082 4.748 0 1.164-.061 2-.644 2.033-1.834.035-1.106 0-2.217 0-3.323a11.293 11.293 0 0 0 -5.262-9.423 53.028 53.028 0 0 0 -5.282-2.952zm9.1 12.764v2.609.942c0 .419.068.34-.162.444a4.712 4.712 0 0 1 -1.452 0h-15.614c-.728 0-2.733.385-3.188-.366-.394-.649-.14-1.938-.14-2.657a17.1 17.1 0 0 1 .226-3.49 10.773 10.773 0 0 1 5.444-7.253q1.308-.731 2.62-1.455l1.327-.736a2.169 2.169 0 0 1 .39-.217c.356-.1.033-.026.171.018a14.174 14.174 0 0 1 2.231 1.243c.857.476 1.722.941 2.574 1.428a11.021 11.021 0 0 1 5.569 9.49z"/><path d="m25.68 15.036a.274.274 0 0 0 -.01-.33.567.567 0 0 0 -.4-.152h-2a1.377 1.377 0 0 0 -.569.109.829.829 0 0 0 -.383.3.274.274 0 0 0 .01.33.567.567 0 0 0 .4.152h2a1.377 1.377 0 0 0 .569-.109.829.829 0 0 0 .383-.3z"/><path d="m28.714 15.4h2a1.5 1.5 0 0 0 .568-.115.886.886 0 0 0 .39-.274c.054-.089.093-.2 0-.286a.579.579 0 0 0 -.388-.117h-2a1.5 1.5 0 0 0 -.568.115.886.886 0 0 0 -.39.274c-.054.089-.093.2 0 .286a.579.579 0 0 0 .388.117z"/><path d="m31.276 22.566h-2a1.4 1.4 0 0 0 -.569.11.833.833 0 0 0 -.385.3.261.261 0 0 0 .007.32.567.567 0 0 0 .395.143h2a1.4 1.4 0 0 0 .569-.11.833.833 0 0 0 .385-.3.261.261 0 0 0 -.007-.32.567.567 0 0 0 -.395-.143z"/><path d="m28.67 19c.054-.084.1-.192 0-.272a.579.579 0 0 0 -.385-.107h-2a1.553 1.553 0 0 0 -.567.117.906.906 0 0 0 -.388.262c-.054.084-.1.192 0 .272a.579.579 0 0 0 .385.107h2a1.553 1.553 0 0 0 .567-.117.906.906 0 0 0 .388-.262z"/><path d="m34.266 18.53h-2a1.326 1.326 0 0 0 -.57.106.806.806 0 0 0 -.38.314.307.307 0 0 0 .016.352.567.567 0 0 0 .4.168h2a1.326 1.326 0 0 0 .57-.106.806.806 0 0 0 .38-.314.307.307 0 0 0 -.016-.352.567.567 0 0 0 -.4-.168z"/><path d="m37.274 14.56h-2a1.406 1.406 0 0 0 -.569.109.839.839 0 0 0 -.384.3.267.267 0 0 0 .009.325.565.565 0 0 0 .4.147h2a1.406 1.406 0 0 0 .569-.109.839.839 0 0 0 .384-.3.267.267 0 0 0 -.009-.325.565.565 0 0 0 -.4-.147z"/><path d="m23.714 44.693h-.247a2.023 2.023 0 0 0 -.531.066 1.593 1.593 0 0 0 -.494.208c-.066.047-.193.129-.166.227s.187.113.257.113h2a2.023 2.023 0 0 0 .531-.066 1.593 1.593 0 0 0 .494-.208c.066-.047.193-.129.166-.227s-.187-.113-.257-.113z"/><path d="m31.067 44.478h-2a1.026 1.026 0 0 0 -.545.2.6.6 0 0 0 -.255.38.381.381 0 0 0 .173.357.887.887 0 0 0 .493.108h2a1.026 1.026 0 0 0 .545-.2.6.6 0 0 0 .255-.381.38.38 0 0 0 -.173-.356.887.887 0 0 0 -.493-.108z"/><path d="m28.941 37.552h2a.994.994 0 0 0 .545-.2.624.624 0 0 0 .25-.4c.014-.384-.361-.5-.677-.5h-2a.994.994 0 0 0 -.545.2.624.624 0 0 0 -.25.4c-.014.381.361.5.677.5z"/><path d="m28.675 41.018a.237.237 0 0 0 0-.3.567.567 0 0 0 -.392-.131h-2a1.46 1.46 0 0 0 -.568.112.867.867 0 0 0 -.387.286.237.237 0 0 0 0 .3.567.567 0 0 0 .392.131h2a1.46 1.46 0 0 0 .568-.112.867.867 0 0 0 .387-.286z"/><path d="m32.72 40.714h-.248a2.047 2.047 0 0 0 -.528.076 1.748 1.748 0 0 0 -.5.2c-.06.039-.2.115-.172.205s.192.092.252.092h2a2.047 2.047 0 0 0 .528-.076 1.748 1.748 0 0 0 .5-.2c.06-.039.2-.115.172-.205s-.192-.092-.252-.092z"/><path d="m34.324 45.27a.589.589 0 0 0 .382.1h2a1.6 1.6 0 0 0 .567-.118.93.93 0 0 0 .394-.259c.054-.078.1-.182.009-.259a.589.589 0 0 0 -.382-.1h-2a1.6 1.6 0 0 0 -.567.118.93.93 0 0 0 -.394.259c-.054.078-.099.182-.009.259z"/></g></svg>