<svg height="507pt" viewBox="0 -2 507.03383 507" width="507pt" xmlns="http://www.w3.org/2000/svg"><path d="m466.289062 502.203125c-1.769531 0-3.355468-1.09375-3.988281-2.746094-.628906-1.652343-.175781-3.523437 1.144531-4.703125l3.167969-2.832031-12.972656 7.492187c-1.882813 1.1875-4.367187.722657-5.695313-1.066406-1.332031-1.789062-1.0625-4.296875.621094-5.761718l21.160156-20.128907-30.378906 17.535157c-1.9375 1.09375-4.386718.515624-5.632812-1.328126s-.867188-4.332031.871094-5.722656l8.933593-6.988281-11.875 6.828125c-1.882812 1.09375-4.285156.59375-5.578125-1.15625-1.292968-1.753906-1.058594-4.195312.542969-5.671875l25.984375-24.277344-33.527344 19.355469c-1.902344 1.074219-4.308594.539062-5.574218-1.242188-1.265626-1.777343-.988282-4.222656.648437-5.671874l21.574219-18.71875-27.257813 15.742187c-1.90625 1.097656-4.335937.566406-5.609375-1.230469-1.273437-1.792968-.972656-4.261718.695313-5.699218l20.691406-17.730469-26.085937 15.144531c-1.949219 1.136719-4.445313.554688-5.695313-1.324219-1.25-1.878906-.824219-4.40625.976563-5.765625l5.0625-3.839844-7.449219 4.265626c-1.953125 1.117187-4.4375.53125-5.679688-1.347657-1.242187-1.875-.816406-4.390625.976563-5.75l2.765625-2.082031-4.890625 2.824219c-1.910156 1.101562-4.34375.566406-5.617188-1.234375-1.273437-1.796875-.964844-4.273438.710938-5.703125l20.785156-17.835938-26.210938 15.136719c-1.914062 1.089844-4.335937.546875-5.601562-1.25s-.960938-4.265625.710938-5.695312l19.992187-16.988282-25.179687 14.503906c-1.933594 1.082032-4.371094.507813-5.617188-1.324218-1.242188-1.828125-.878906-4.308594.835938-5.707032l12.46875-9.898437-15.976563 9.21875c-1.878906 1.074219-4.269531.570313-5.554687-1.175781-1.285157-1.746094-1.058594-4.175782.53125-5.652344l25.734374-23.824219-33.089843 19.097657c-1.90625 1.078124-4.320313.542968-5.589844-1.246094-1.265625-1.789063-.96875-4.246094.683594-5.683594l20.699219-17.714844-26.085938 15.113282c-1.953125 1.117187-4.4375.527343-5.679688-1.347657-1.242187-1.875-.8125-4.394531.976563-5.753906l3.859375-2.902344-6.109375 3.527344c-1.878906 1.046875-4.246094.53125-5.519531-1.203125-1.273438-1.734375-1.054688-4.148438.507812-5.625l44.5625-40.644531c-.339844-1.785157.484375-3.589844 2.054688-4.496094l8.261718-4.769531c1.878907-1.035156 4.230469-.515625 5.5 1.214844 1.265626 1.730468 1.054688 4.132812-.5 5.609374l-24.984374 22.808594 31.949218-18.4375c1.949219-1.121094 4.4375-.53125 5.675782 1.34375 1.242187 1.875.816406 4.394532-.976563 5.753906l-3.820313 2.886719 6.050782-3.492187c1.90625-1.097656 4.335937-.566406 5.609375 1.230468 1.273437 1.792969.972656 4.261719-.695313 5.699219l-20.703125 17.714844 26.0625-15.035156c1.878907-1.078125 4.269531-.574219 5.554688 1.171875 1.285156 1.746094 1.058593 4.179687-.527344 5.65625l-25.738281 23.796875 33.058594-19.070313c1.929687-1.082031 4.367187-.507812 5.613281 1.324219 1.246093 1.828125.882812 4.308594-.835938 5.707031l-12.507812 9.941406 16-9.234374c1.910156-1.089844 4.335937-.546876 5.601562 1.25 1.265625 1.800781.957031 4.265624-.714843 5.695312l-19.992188 16.984375 25.148438-14.507813c1.90625-1.097656 4.335937-.566406 5.609374 1.226563 1.273438 1.796875.972657 4.265625-.695312 5.703125l-20.785156 17.816406 26.179687-15.113281c1.949219-1.117187 4.433594-.527344 5.675781 1.347656 1.242188 1.875.816407 4.390625-.976562 5.753907l-2.804688 2.105468 4.914063-2.832031c1.949219-1.132813 4.449219-.554687 5.699219 1.324219s.820312 4.40625-.980469 5.765625l-5.050781 3.832031 7.421875-4.265625c1.910156-1.101563 4.347656-.570313 5.617187 1.230469 1.273438 1.800781.964844 4.273437-.710937 5.707031l-20.675781 17.722656 26.054687-15.042969c1.902344-1.09375 4.328125-.5625 5.601563 1.226563 1.273437 1.789063.980468 4.253906-.679688 5.695313l-21.578125 18.730468 27.21875-15.761718c1.882813-1.09375 4.285156-.59375 5.578125 1.15625 1.289062 1.75 1.058594 4.195312-.542969 5.667968l-25.964843 24.296875 32.363281-18.6875c1.9375-1.09375 4.390625-.519531 5.636719 1.324219 1.246093 1.84375.863281 4.335938-.875 5.722656l-8.933594 6.988282 8.628906-4.972657c1.871094-1.082031 4.253906-.59375 5.550781 1.136719 1.292969 1.730469 1.089844 4.15625-.472656 5.644531l-21.171875 20.132813 17.714844-10.242188c1.875-.992187 4.195312-.457031 5.445312 1.257813 1.25 1.714843 1.050782 4.089843-.472656 5.570312l-7.523438 6.742188c1.683594.417969 2.949219 1.824219 3.191407 3.542969.242187 1.722656-.585938 3.417968-2.09375 4.289062l-28.277344 16.351562c-.648437.375-1.382813.574219-2.132813.570313zm0 0" fill="#a38671"/><path d="m206.304688 416.945312c-1.886719 0-3.546876-1.238281-4.085938-3.046874-.539062-1.804688.171875-3.75 1.746094-4.785157l66.644531-43.65625-85.007813 49.074219c-2.011718 1.125-4.550781.453125-5.738281-1.519531-1.191406-1.972657-.597656-4.535157 1.335938-5.785157l32.128906-20.214843-42.847656 24.746093c-2.007813 1.148438-4.566407.484376-5.765625-1.492187-1.199219-1.980469-.601563-4.554687 1.34375-5.804687l65.410156-41.4375-77.398438 44.679687c-2.015624 1.164063-4.589843.496094-5.789062-1.496094-1.195312-1.996093-.578125-4.582031 1.394531-5.816406l47.394531-29.550781-56.054687 32.34375c-2.015625 1.160156-4.589844.492187-5.789063-1.5-1.199218-1.992188-.578124-4.582032 1.394532-5.816406l60.304687-37.542969-68.53125 39.558593c-1.996093 1.070313-4.480469.390626-5.660156-1.542968-1.175781-1.9375-.636719-4.453125 1.230469-5.734375l135.996094-87.28125-148.582032 85.785156c-2 1.085937-4.5.410156-5.679687-1.539063-1.183594-1.945312-.628907-4.472656 1.257812-5.746093l141.722657-90.386719-152.667969 88.140625c-2.015625 1.078125-4.515625.378906-5.683594-1.582031-1.164063-1.964844-.578125-4.496094 1.328125-5.746094l19.347656-11.84375-22.894531 13.257812c-2.019531 1.21875-4.640625.570313-5.859375-1.445312s-.570312-4.640625 1.445312-5.859375l136.570313-86.007813-144.019531 83.140626c-1.3125.777343-2.941406.796874-4.273438.046874-1.328125-.75-2.160156-2.152343-2.175781-3.679687-.015625-1.523437.785156-2.945313 2.097656-3.722656l39.9375-24.394531-43.351562 25.0625c-2.015625 1.097656-4.539063.398437-5.710938-1.578126-1.167969-1.972656-.5625-4.519531 1.367188-5.761718l.660156-.402344-1.980469 1.136719c-2.011718 1.148437-4.566406.484375-5.765625-1.492188-1.199219-1.980469-.605469-4.554687 1.34375-5.804687l160.027344-101.1875-166.324219 96.023437c-2.027344 1.207031-4.644531.539063-5.851562-1.488281-1.203125-2.027344-.535156-4.644531 1.492187-5.847656l62.769531-38.402344-64.734374 37.351562c-2.007813 1.125-4.550782.453126-5.738282-1.519531-1.191406-1.972656-.597656-4.535156 1.335938-5.785156l142.191406-88.96875-145.433594 83.960937c-2.003906 1.101563-4.523437.425782-5.707031-1.53125-1.183594-1.957031-.613281-4.503906 1.292969-5.765624l171.179687-108.5625-175.136719 101.113281c-2 1.082031-4.5.40625-5.679687-1.539063-1.183594-1.945312-.628906-4.476562 1.257813-5.75l170.984374-108.527344-173.246093 100.019532c-2.027344 1.199218-4.644531.527344-5.84375-1.5-1.199219-2.03125-.527344-4.648438 1.5-5.847656l6.683593-4.042969-5.75 3.3125c-2.011718 1.105469-4.539062.425781-5.71875-1.542969-1.179687-1.96875-.59375-4.519531 1.332032-5.773438l117.503906-73.078124-116.609375 67.320312c-2.015625 1.160156-4.589844.496094-5.789063-1.5-1.199218-1.992188-.578124-4.578125 1.394532-5.8125l119.851562-74.789062-118.792968 68.59375c-2.011719 1.105468-4.539063.425781-5.71875-1.542969-1.179688-1.96875-.589844-4.519531 1.332031-5.769531l107.410156-66.894532-105.175781 60.75c-2.003906 1.101563-4.519532.425782-5.707032-1.53125-1.183593-1.957031-.609374-4.503906 1.296876-5.765625l140.902343-89.496093-137.875 79.605468c-2.007812 1.175782-4.589843.527344-5.800781-1.460937s-.601562-4.582031 1.367188-5.828125l148.476562-95.570313-143.894531 83.070313c-1.308594.785156-2.9375.808594-4.269531.070312-1.332032-.742187-2.167969-2.136718-2.191407-3.660156-.023437-1.527344.765625-2.949219 2.074219-3.730469l50.617188-31.34375-45.226563 26.09375c-2.007813 1.230469-4.636719.597657-5.863281-1.410156-1.230469-2.011719-.597656-4.636719 1.410156-5.867187l121.429688-78.421876-113.648438 65.621094c-2.007812 1.148438-4.566406.484375-5.765625-1.492187-1.199219-1.980469-.601563-4.554688 1.347656-5.804688l66.960938-42.359375-58.648438 33.871094c-2.019531 1.21875-4.640625.570312-5.859375-1.449219-1.21875-2.015625-.570312-4.636719 1.445313-5.855469l39.910156-25.148437-30.078125 17.363281c-1.988281 1.117188-4.503906.472656-5.710938-1.464844-1.203124-1.933593-.675781-4.476562 1.203126-5.769531l88.535156-59.410156-72.535156 41.890625c-1.980469 1.117188-4.488282.488281-5.703126-1.433594-1.214843-1.921875-.710937-4.457031 1.148438-5.769531l63.34375-43.859375-39.902344 23.039062c-1.957031 1.15625-4.476562.578126-5.734375-1.316406-1.253906-1.898437-.800781-4.445312 1.03125-5.792968l35.335938-26.554688c-1.546875-.570312-2.625-1.980469-2.769531-3.625-.144532-1.640625.667968-3.21875 2.085937-4.054688l47.351563-27.390624c1.957031-1.128907 4.449218-.539063 5.695312 1.34375 1.242188 1.882812.804688 4.410156-1 5.761718l-25.285156 19.015625 68.976562-39.816406c1.976563-1.121094 4.488282-.488281 5.703125 1.433594 1.214844 1.917969.710938 4.457031-1.148437 5.765625l-63.308594 43.835937 92.050781-53.144531c1.988281-1.113281 4.5-.46875 5.707031 1.464844 1.207032 1.9375.675782 4.476562-1.203124 5.769531l-88.515626 59.402344 111.554688-64.417969c2.019531-1.21875 4.640625-.570312 5.859375 1.445312 1.21875 2.019532.570313 4.640626-1.445313 5.859376l-39.945312 25.199218 50.457031-29.132812c2.015625-1.222656 4.640625-.574219 5.863281 1.441406 1.21875 2.015625.574219 4.640625-1.441406 5.863281l-67.046875 42.382813 79.085938-45.660156c2.011719-1.230469 4.636719-.597657 5.867187 1.410156 1.230469 2.011718.597656 4.636718-1.414062 5.867187l-121.386719 78.414063 135.46875-78.234375c2.019531-1.210938 4.640625-.554688 5.851563 1.46875 1.214843 2.023437.554687 4.640625-1.464844 5.855469l-50.535156 31.296874 58.121093-33.558593c2.011719-1.230469 4.636719-.59375 5.867188 1.417969 1.226562 2.015624.589843 4.640624-1.421875 5.867187l-148.53125 95.617187 160.699218-92.78125c2.003907-1.105468 4.523438-.429687 5.707032 1.527344 1.183594 1.960938.613281 4.503906-1.296875 5.765625l-140.902344 89.464844 150.835937-87.089844c2.019532-1.222656 4.644532-.582031 5.867188 1.4375 1.222656 2.015625.578125 4.640625-1.4375 5.867188l-107.476562 66.925781 113.3125-65.425781c2.023437-1.214844 4.648437-.5625 5.863281 1.460937 1.214843 2.019532.5625 4.644532-1.460938 5.859375l-119.890625 74.804688 126.171875-72.847657c1.308594-.785156 2.9375-.8125 4.269531-.070312 1.332032.742188 2.167969 2.136719 2.191407 3.660156.023437 1.523438-.765625 2.945313-2.074219 3.730469l-117.445312 73.035156 121.722656-70.269531c2.027344-1.203125 4.644531-.53125 5.847656 1.496094 1.203125 2.03125.53125 4.648437-1.496094 5.851562l-6.777344 4.101563 8.191407-4.734375c2.019531-1.21875 4.640625-.570313 5.859375 1.445312 1.21875 2.019532.570312 4.640625-1.445313 5.859375l-171.042969 108.542969 176.769532-102.039062c2.007812-1.148438 4.566406-.488282 5.765625 1.492187s.601562 4.554687-1.347657 5.800781l-171.136718 108.527344 175.660156-101.417969c2.019531-1.214843 4.640625-.5625 5.859375 1.453125 1.214844 2.019532.5625 4.644532-1.457031 5.859375l-142.140625 88.933594 144.214843-83.273437c2.015626-1.117188 4.554688-.429688 5.730469 1.550781 1.179688 1.980469.570313 4.539062-1.371093 5.777343l-62.820313 38.460938 62.546875-36.113281c2.019531-1.222657 4.644531-.574219 5.863281 1.441406 1.222657 2.015625.574219 4.640625-1.441406 5.863281l-159.992187 101.136719 161.46875-93.191406c2.027343-1.203125 4.644531-.527344 5.84375 1.5 1.199218 2.027343.527343 4.644531-1.5 5.84375l-1.808594 1.101562c2.050781-.898437 4.445312-.058593 5.488281 1.925781 1.042969 1.980469.375 4.429688-1.53125 5.609376l-39.960937 24.414062 38.015624-21.949219c2.007813-1.101562 4.523438-.425781 5.707032 1.53125 1.183594 1.960938.613281 4.503907-1.292969 5.765625l-136.535156 85.984375 134.945312-77.917969c2.027344-1.207031 4.648438-.539062 5.851563 1.488282s.535156 4.644531-1.488282 5.847656l-19.347656 11.8125 15.8125-9.132812c2.011719-1.148438 4.566406-.484376 5.765625 1.496093 1.199219 1.976563.605469 4.550781-1.34375 5.800781l-141.722656 90.375 138.710937-80.074218c2.003907-1.121094 4.535157-.453125 5.726563 1.507812 1.191406 1.960938.617187 4.515625-1.300781 5.777344l-135.992188 87.261719 129.996094-75.050781c2.015625-1.160157 4.589844-.492188 5.789062 1.5 1.195313 1.996093.578126 4.582031-1.394531 5.816406l-60.246093 37.546875 54.785156-31.636719c2.019531-1.210938 4.644531-.554688 5.855468 1.464844 1.214844 2.023437.558594 4.644531-1.460937 5.859375l-47.507813 29.601562 39.734376-22.929687c2.015624-1.21875 4.636718-.570313 5.855468 1.445312 1.21875 2.019532.570313 4.640625-1.445312 5.859375l-65.375 41.414063 57.089844-32.964844c2.007812-1.125 4.550781-.453125 5.738281 1.519531 1.191406 1.972657.597656 4.53125-1.335938 5.785157l-32.214843 20.25 21.8125-12.597657c2.003906-1.199219 4.597656-.566406 5.824218 1.421875 1.226563 1.984375.625 4.589844-1.34375 5.839844l-66.558594 43.605469 52.65625-30.394531c2-1.101563 4.511719-.429688 5.699219 1.515624 1.191407 1.949219.632813 4.488282-1.261719 5.761719l-13.824218 8.875c2.003906-.621093 4.160156.304688 5.089844 2.183594.929687 1.878906.359374 4.15625-1.351563 5.371094l-42.382813 30.136719 14.394532-8.300782c2.027344-1.0625 4.527344-.335937 5.671875 1.644532 1.144531 1.980468.523437 4.507812-1.40625 5.734374l-92.601563 53.472657c-1.972656 1.121093-4.476562.507812-5.703125-1.398438-1.226562-1.910156-.746093-4.445312 1.09375-5.769531l42.429688-30.15625-75.640625 43.65625c-2.007813 1.175781-4.589844.523438-5.800782-1.464844-1.210937-1.988281-.605468-4.578125 1.363282-5.824218l11.851562-7.59375-27.261718 15.71875c-.648438.375-1.378907.574218-2.125.578124zm0 0" fill="#66d4f1"/><path d="m208.582031 416.851562c39.355469-.933593 77.828125-11.871093 111.785157-31.785156l83.03125 77.652344c22.886718 21.410156 46.734374 51.363281 81.304687 33.101562 46.082031-24.347656 10.386719-62.960937-13.839844-85.640624l-87.867187-82.203126c7.417968-10.214843 13.875-21.097656 19.292968-32.503906 39.832032-86.179687 16.433594-188.390625-56.925781-248.660156-142.5-115.796875-364.28125 3.046875-344.074219 186.445312 11.726563 106.222657 103.269532 180.695313 207.292969 183.59375zm223.417969-27.65625c16.90625 15.820313 67.414062 49.296876 61.96875 76.996094 1.363281 12.703125-6.886719 17.335938-24.746094 13.894532-10.066406 9.890624-18.152344 11.949218-24.25 6.167968-.855468-.351562-1.324218-1.605468-2.160156-2.011718-4.019531-2.894532-7.652344-6.285157-10.8125-10.097657l-40.234375-37.632812-61.644531-57.667969c17.367187-11.566406 32.886718-25.691406 46.03125-41.898438zm-223.417969-381.941406c102.261719 1.332032 187.691407 78.273438 199.679688 179.839844 6.007812 55.898438-11.636719 111.761719-48.664063 154.070312-37.027344 42.304688-90.058594 67.195313-146.261718 68.648438-101.019532-2.816406-188.953126-77.429688-199.679688-179.839844-12.078125-114.910156 77.011719-222.59375 194.925781-222.71875zm0 0" fill="#262626"/></svg>