<svg height="507pt" viewBox="0 -10 507.0016 507" width="507pt" xmlns="http://www.w3.org/2000/svg"><path d="m393.910156 482.0625c-1.410156 0-2.726562-.695312-3.523437-1.855469-.792969-1.164062-.964844-2.644531-.453125-3.957031l5.261718-13.59375-16.542968 9.558594c-1.777344 1.027344-4.035156.644531-5.375-.910156-1.335938-1.554688-1.378906-3.84375-.097656-5.445313l10.4375-13.101563-19.898438 11.488282c-1.832031 1.046875-4.152344.601562-5.460938-1.050782-1.3125-1.648437-1.222656-4.011718.210938-5.554687l17.066406-18.261719-28.066406 16.214844c-1.929688 1.101562-4.386719.53125-5.640625-1.308594-1.25-1.835937-.878906-4.332031.855469-5.726562l5.46875-4.332032-10.570313 6.101563c-1.929687 1.070313-4.355469.496094-5.597656-1.320313-1.242187-1.820312-.898437-4.289062.800781-5.695312l15.53125-12.476562-22.707031 13.109374c-1.953125 1.144532-4.464844.5625-5.714844-1.324218-1.253906-1.886719-.8125-4.421875 1.003907-5.777344l13.890624-10.476562-20.242187 11.679687c-1.960937 1.117187-4.453125.511719-5.683594-1.382813-1.230469-1.894531-.773437-4.417968 1.042969-5.757812l12.46875-9.0625-18.347656 10.539062c-1.964844 1.085938-4.4375.460938-5.652344-1.425781-1.214844-1.890625-.757812-4.394531 1.042969-5.734375l13.800781-9.78125-19.714844 11.367188c-1.976562 1.074218-4.449218.425781-5.648437-1.480469-1.195313-1.90625-.707031-4.414063 1.117187-5.730469l.480469-.332031-4.847656 2.800781c-1.964844 1.113282-4.457031.507813-5.6875-1.386718-1.230469-1.890626-.773438-4.417969 1.046875-5.757813l37.773437-27.546875-47.136719 27.222656c-1.972656 1.121094-4.480468.496094-5.703124-1.417968-1.21875-1.914063-.726563-4.449219 1.121093-5.765626l34.347657-24.058593-42.421876 24.492187c-1.957031 1.105469-4.441406.5-5.667968-1.386718-1.230469-1.882813-.785156-4.398438 1.019531-5.746094l60.925781-44.65625-212.382812 122.617187c-2.003906 1.117188-4.535156.453125-5.730469-1.507812-1.191406-1.964844-.617187-4.519531 1.300781-5.78125l148.027344-94.113281-140.144531 80.894531c-2.011719 1.078125-4.511719.378906-5.679688-1.582031-1.164062-1.964844-.578125-4.496094 1.328125-5.746094l18.570313-11.300782-12.253907 7.085938c-2.03125 1.199219-4.648437.527344-5.847656-1.503906-1.199218-2.027344-.527344-4.644532 1.503906-5.84375l37.214844-22.605469-30.859375 17.78125c-2.027343 1.203125-4.648437.53125-5.847656-1.496094-1.203125-2.027343-.53125-4.648437 1.496094-5.847656l63.8125-38.769531-57.257813 33.058594c-2.015625 1.113281-4.554687.429687-5.730468-1.550782-1.179688-1.980468-.570313-4.539062 1.371093-5.777344l112.058594-68.730468-105.054687 60.589844c-2.007813 1.125-4.550782.453124-5.738282-1.519532-1.191406-1.976562-.597656-4.535156 1.335938-5.785156l155.136718-97.214844-147.464843 85.148438c-2.015625 1.132812-4.570313.457031-5.757813-1.527344-1.1875-1.988281-.574218-4.558594 1.378906-5.796875l91.027344-56.257813-84.105468 48.5625c-2.019532 1.214844-4.644532.5625-5.859376-1.457031-1.214843-2.019531-.5625-4.640625 1.457032-5.855469l115.769531-72.765624-108.425781 62.609374c-2.015625 1.21875-4.636719.570313-5.855469-1.445312-1.21875-2.019531-.570313-4.640625 1.445313-5.859375l105.34375-66.617187-98.003907 56.582031c-2.011719 1.148437-4.566406.484375-5.765625-1.492188-1.199218-1.980469-.601562-4.554687 1.34375-5.804687l90.746094-57.667969-83.5 48.214844c-2.007812 1.148437-4.566406.484375-5.765625-1.492188-1.199219-1.980469-.601563-4.554687 1.34375-5.804687l71.042969-45.226563-70.914063 40.960938c-2.003906 1.101562-4.523437.425781-5.707031-1.53125s-.613281-4.5 1.296875-5.765625l45.917969-29.011719-49.410156 28.515625c-1.996094 1.058594-4.472657.371094-5.640626-1.5625-1.171874-1.933594-.632812-4.441406 1.230469-5.722656l45.355469-28.785156-48.878906 28.210937c-2.015625 1.164063-4.59375.496094-5.789063-1.496094-1.199219-1.996093-.578125-4.582031 1.394531-5.816406l4.769532-2.96875-6.828125 3.925781c-1.992188 1.113282-4.511719.460938-5.710938-1.480468-1.203125-1.945313-.660156-4.488282 1.230469-5.773438l98.75-64.988281-105.628906 60.976562c-1.296875.800781-2.921875.84375-4.265625.121094-1.339844-.726563-2.191407-2.113281-2.234375-3.636719-.042969-1.523437.730468-2.953125 2.03125-3.753906l95.101562-62.078125-101.546875 58.597656c-1.992187 1.054688-4.460937.378907-5.636719-1.546875-1.175781-1.925781-.648437-4.433594 1.199219-5.722656l84.71875-54.613281-90.222656 52.050781c-2.003906 1.121094-4.535156.453125-5.726563-1.507812-1.191406-1.960938-.617187-4.515626 1.300782-5.777344l75.945312-48.5625-80.769531 46.660156c-1.953125 1.125-4.449219.539062-5.691406-1.347656-1.242188-1.882813-.804688-4.40625 1-5.761719l50.089843-37.496094-57.171874 32.980469c-1.921876 1.109375-4.371094.5625-5.636719-1.257812-1.265625-1.820313-.925781-4.308594.78125-5.722657l36.101562-29.738281-43.160156 24.910156c-1.894531 1.078125-4.292969.554688-5.570313-1.210937-1.273437-1.765625-1.015624-4.210938.605469-5.667969l19.421875-17.226562-24.527344 14.144531c-1.75 1.011719-3.96875.65625-5.316406-.851563-1.34375-1.507812-1.445312-3.75-.246094-5.375l9.558594-12.9375-14.753906 8.535156c-1.394531.800782-3.121094.753907-4.46875-.125-1.347656-.878906-2.082031-2.441406-1.90625-4.039062l.648438-5.8125-1.871094 1.082031c-1.320313.761719-2.949219.761719-4.269532 0-1.320312-.765625-2.132812-2.175781-2.132812-3.699219 0-1.527343.816406-2.9375 2.136719-3.699218l9.175781-5.289063c1.398438-.789062 3.121094-.738281 4.46875.136719 1.34375.878906 2.078125 2.4375 1.902344 4.035156l-.648438 5.804688 25.183594-14.507813c1.746094-1.011719 3.964844-.65625 5.3125.847657 1.347656 1.503906 1.453125 3.746093.257812 5.371093l-9.554687 12.9375 43.21875-24.949219c1.898437-1.097656 4.316406-.582031 5.597656 1.195313s1.011719 4.238281-.628906 5.691406l-19.414063 17.183594 51.148438-29.523437c1.921875-1.113282 4.378906-.566407 5.644531 1.257812 1.265625 1.828125.917969 4.320312-.796875 5.730469l-36.0625 29.738281 74.734375-43.109375c1.957031-1.128906 4.449219-.539063 5.695313 1.34375 1.242187 1.882813.804687 4.410156-1 5.761719l-50.066406 37.4375 182.050781-105.132813c1.996093-1.066406 4.480469-.390625 5.660156 1.546875 1.175781 1.933594.636719 4.453125-1.230469 5.734375l-76.007812 48.640625 77.105468-44.519531c1.996094-1.082031 4.492188-.414063 5.675782 1.523437 1.1875 1.9375.644531 4.464844-1.226563 5.746094l-84.730469 54.613282 86.1875-49.765626c1.996094-1.097656 4.5-.4375 5.695313 1.503907 1.191406 1.941406.648437 4.472656-1.230469 5.757812l-95.035156 62.097657 97.054688-56.046876c2-1.136718 4.539062-.484374 5.742187 1.472657 1.207031 1.957031.644531 4.515625-1.269531 5.789062l-98.703125 64.972657 101.058593-58.316407c2.011719-1.109375 4.535157-.425781 5.71875 1.542969 1.179688 1.96875.589844 4.515625-1.332031 5.769531l-4.890625 3.046875 5.121094-2.953125c2.003906-1.101562 4.523438-.425781 5.707031 1.53125 1.183594 1.957031.613281 4.5-1.296875 5.765625l-45.292968 28.75 56.574218-32.667968c2.011719-1.148438 4.566406-.484376 5.765625 1.492187 1.199219 1.980469.601563 4.554687-1.34375 5.804687l-45.851562 28.960938 58.453125-33.75c2.003906-1.117188 4.535156-.453125 5.730468 1.511719 1.191407 1.960937.617188 4.515625-1.300781 5.777343l-71.140625 45.269532 86.089844-49.699219c2.003906-1.082031 4.503906-.40625 5.683594 1.539063 1.179687 1.945312.625 4.476562-1.261719 5.75l-90.777344 57.683593 107.222657-61.898437c2.007812-1.148438 4.566406-.488282 5.765624 1.492187 1.199219 1.980469.601563 4.554688-1.347656 5.800781l-105.308594 66.5625 122.476563-70.707031c2.011719-1.128906 4.550781-.453125 5.742187 1.519531 1.1875 1.972657.597657 4.53125-1.335937 5.785157l-115.714844 72.71875 133.0625-76.800781c2.015625-1.132813 4.570313-.457032 5.753907 1.53125 1.1875 1.984374.578124 4.554687-1.375 5.792968l-91.164063 56.34375 105.488281-60.902344c2.015625-1.160156 4.589844-.496093 5.789063 1.5 1.199219 1.992188.578125 4.578126-1.394531 5.8125l-155.050782 97.160157 174.808594-100.914063c2.023438-1.207031 4.640625-.542968 5.847656 1.480469 1.207032 2.023437.542969 4.644531-1.480468 5.851563l-112.023438 68.769531 113.125-65.316407c2.023438-1.152343 4.59375-.46875 5.78125 1.53125 1.1875 2.003907.550781 4.585938-1.429688 5.808594l-64.050781 38.914063 31.09375-17.921875c2.03125-1.203125 4.648438-.53125 5.851563 1.496094 1.199218 2.03125.53125 4.648437-1.5 5.851562l-36.949219 22.449219 5.976563-3.453125c2.019531-1.152344 4.59375-.472656 5.78125 1.53125 1.1875 2 .550781 4.585937-1.429688 5.804687l-28.28125 17.195313c1.738281-.289063 3.484375.5 4.414062 1.996094 1.195313 1.984374.585938 4.5625-1.367187 5.804687l-147.992187 94.089844 107.519531-62.0625c1.960937-1.136719 4.46875-.539063 5.707031 1.359375 1.238281 1.898437.777344 4.433594-1.046875 5.773437l-60.9375 44.664063 59.253906-34.210938c1.976563-1.121094 4.484375-.5 5.703125 1.417969 1.222656 1.914063.730469 4.449219-1.121094 5.765625l-34.304687 24.023438 31.882813-18.40625c1.964843-1.148438 4.484374-.550782 5.726562 1.355468 1.238281 1.90625.765625 4.453125-1.078125 5.785156l-37.773437 27.527344 35.523437-20.476562c1.984375-1.117188 4.492187-.480469 5.703125 1.449218 1.210938 1.925782.695312 4.464844-1.171875 5.769532l-2.03125 1.382812c1.992187-.5625 4.101563.394532 4.996094 2.261719.898437 1.867187.324219 4.109375-1.363281 5.3125l-13.789063 9.824219 10.984375-6.339844c1.960938-1.117188 4.457031-.511719 5.6875 1.382812 1.230469 1.894532.769531 4.417969-1.046875 5.757813l-12.441406 9.039063 9.601562-5.539063c1.949219-1.128906 4.441407-.546875 5.691407 1.332031s.820312 4.40625-.984376 5.765625l-13.882812 10.480469 11.09375-6.390625c1.929688-1.089844 4.371094-.527344 5.621094 1.300781s.898437 4.308594-.816406 5.710938l-15.546876 12.484375 12.800782-7.378907c1.929687-1.082031 4.367187-.507812 5.613281 1.324219 1.242187 1.828125.882813 4.308594-.835937 5.707031l-5.480469 4.351563 2.390625-1.382813c1.828125-1.046874 4.148437-.601562 5.460937 1.046876 1.3125 1.652343 1.222657 4.011718-.210937 5.558593l-17.066406 18.253907 14.582031-8.414063c1.773437-1.019531 4.023437-.636719 5.359375.914063 1.332031 1.550781 1.378906 3.828124.109375 5.433593l-10.433594 13.097657 7.523437-4.34375c1.570313-.902344 3.535157-.71875 4.910157.457031 1.375 1.179687 1.855469 3.097656 1.199219 4.785156l-5.261719 13.582031 2.132812-1.21875c2.023438-1.058594 4.527344-.335937 5.671875 1.644532 1.144532 1.980468.523438 4.511718-1.40625 5.738281l-12.621094 7.277343c-.667968.378907-1.425781.570313-2.191406.554688zm0 0" fill="#fdcd56"/><path d="m178.023438 159.316406c-1.871094-.003906-3.519532-1.226562-4.070313-3.011718-.550781-1.789063.128906-3.726563 1.671875-4.78125l18.226562-12.40625-5.765624 3.320312c-1.976563 1.136719-4.496094.523438-5.726563-1.394531-1.226563-1.917969-.734375-4.464844 1.125-5.785157l26.179687-18.609374-12.585937 7.261718c-1.960937 1.117188-4.457031.507813-5.6875-1.382812-1.230469-1.894532-.769531-4.417969 1.046875-5.761719l21.085938-15.359375-7.679688 4.429688c-1.945312 1.101562-4.414062.511718-5.652344-1.347657-1.242187-1.859375-.832031-4.363281.933594-5.734375l19.171875-14.601562-5.433594 3.140625c-1.941406 1.101562-4.402343.523437-5.644531-1.328125-1.246094-1.847656-.859375-4.34375.890625-5.730469l11.511719-8.964844c-1.898438.394531-3.820313-.539062-4.6875-2.273437-.863282-1.730469-.453125-3.832032 1-5.109375l13.652344-12.03125c-1.835938.691406-3.90625.039062-5.019532-1.578125-1.109375-1.617188-.976562-3.78125.328125-5.25l13.832031-15.359375c-1.570312-.089844-2.964843-1.035157-3.628906-2.464844-.660156-1.429687-.484375-3.105469.464844-4.363281l7.679688-10.351563c-.105469-.164062-.203126-.335937-.292969-.511719-1.175781-2.039062-.476563-4.648437 1.5625-5.828124l6.828125-3.949219c1.746094-1.011719 3.964844-.65625 5.3125.847656 1.34375 1.503906 1.453125 3.746094.257812 5.371094l-2.25 3.039062 1.707032-.964843c1.816406-1.046876 4.125-.617188 5.445312 1.015624 1.320312 1.632813 1.257812 3.980469-.148438 5.539063l-12.296874 13.652344 13.140624-7.578125c1.898438-1.082032 4.308594-.554688 5.582032 1.21875 1.273437 1.773437 1.003906 4.226562-.632813 5.675781l-13.515625 11.835937 13.757813-7.976562c1.9375-1.101562 4.398437-.523438 5.644531 1.328125 1.246094 1.847656.855469 4.34375-.894531 5.730469l-10.296875 8.027344 10.058594-5.8125c1.945312-1.078126 4.394531-.484376 5.625 1.371093 1.230468 1.851563.832031 4.335938-.914063 5.714844l-19.191406 14.640625 19.558593-11.28125c1.964844-1.117188 4.457032-.507812 5.6875 1.386719 1.230469 1.890625.773438 4.417969-1.046874 5.757812l-21.074219 15.359375 21.347656-12.355468c1.976563-1.140626 4.496094-.527344 5.722656 1.394531 1.230469 1.917969.738281 4.464843-1.121093 5.78125l-26.179688 18.578125 26.621094-15.359375c1.988281-1.15625 4.53125-.527344 5.753906 1.417969 1.222656 1.945312.6875 4.507812-1.210938 5.800781l-18.253906 12.421875 18.167969-10.484375c2.039063-1.160157 4.628906-.457031 5.800781 1.574219 1.175782 2.03125.488282 4.628906-1.535156 5.8125l-117.84375 68.027343c-.636719.382813-1.359375.589844-2.101562.609375zm0 0" fill="#fdcd56"/><path d="m50.015625 242.089844 45.386719 44.890625c5.558594 5.496093 22.949218 17.1875 25.183594 24.910156 2.160156 7.441406-3.601563 22.511719-4.847657 29.867187-3.480469 20.632813-6.96875 41.265626-10.460937 61.898438-3.414063 20.292969-18.882813 60.050781-10.71875 79.917969.652344 1.746093 2.253906 2.960937 4.113281 3.113281 21.292969 1.417969 46.550781-20.292969 64.460937-29.867188l56.40625-30.097656c7.679688-4.113281 25.285157-18.335937 34.242188-18.269531 15.796875.128906 60.988281 33.664063 78.59375 43.050781 19.394531 10.351563 50.398438 36.753906 73.386719 35.21875 2.691406-.078125 5.140625-1.589844 6.417969-3.960937 7.796874-18.96875-5.972657-53.757813-9.207032-72.992188-3.578125-21.117187-7.148437-42.242187-10.710937-63.371093-1.449219-8.53125-8.449219-27.304688-5.65625-35.675782 2.558593-7.679687 17.519531-17.5625 23.039062-23.042968l44.867188-44.371094c14.761719-14.601563 47.371093-35.542969 52.480469-56.6875.089843-1.3125-.503907-2.578125-1.570313-3.34375-15.605469-13.140625-52.480469-10.8125-71.679687-13.65625l-55.613282-8.191406c-9.597656-1.414063-32.144531-.347657-40.300781-5.972657-14.746094-10.121093-26.890625-52.359375-34.671875-68.359375l-39.339844-80.980468c-.070312-.652344-.371094-1.261719-.851562-1.707032-.539063-.976562-1.472656-1.671875-2.558594-1.914062l-2.195312-1.371094c-2.292969-1.414062-5.164063-1.5-7.535157-.222656-17.738281 11.09375-25.839843 44.152344-34.542969 62.0625-9.933593 20.417968-19.863281 40.835937-29.789062 61.253906-4.140625 10.769531-8.9375 21.273438-14.363281 31.460938-13.96875 10.675781-75.046875 10.742187-96.269531 13.875-20.046876 2.953124-57.304688.582031-73.636719 14.34375-1.539063 1.058593-2.320313 2.914062-2.0039065 4.753906 4.7265625 19.625 36.2929685 39.925781 49.9453125 53.4375zm-30.71875-54.683594c15.949219-6.375 38.507813-5.683594 55.464844-8.183594 27.851562-4.105468 73.582031-1.707031 98.84375-14.582031 18.429687-9.386719 26.066406-41.617187 34.574219-59.113281l31.574218-64.902344c3.414063-7.089844 6.664063-14.363281 10.367188-21.332031 1.707031-3.210938 2.664062-5.035157 3.132812-6.136719l36.871094 75.808594c8.894531 18.28125 19.550781 59.152344 35.628906 72.285156 15.503906 12.683594 52.691406 10.34375 71.421875 13.101562l55.613281 8.199219c4.675782.691407 37.71875 1.707031 40.300782 5.972657 7.886718 12.988281-108.515625 97.28125-117.398438 118.613281-7.09375 17.015625 5.117188 48.085937 8.011719 65.109375 3.414063 20.164062 6.828125 40.328125 10.238281 60.492187 1.632813 9.628907 10.753906 33.863281 7.304688 43.25-.039063.148438-.070313.296875-.09375.449219-3.890625-1.9375-7.628906-4.171875-11.175782-6.679688-16.472656-9.582031-33.75-18.007812-50.5625-26.972656-21.554687-11.503906-55.628906-39.511718-80.109374-42.738281-16.710938-2.199219-34.527344 13.039063-48.546876 20.523437-30.507812 16.273438-65.921874 43.878907-99.257812 52.957032-2.167969.472656-4.226562 1.339844-6.078125 2.5625 1.101563-2.097656 1.53125-4.480469 1.238281-6.828125-.65625-15.855469 5.835938-34.523438 8.472656-50.148438 3.414063-20.164062 6.828126-40.328125 10.242188-60.492187 2.0625-12.1875 9.496094-32.054688 7.523438-44.503906-2.320313-14.632813-17.527344-24.191407-28.003907-34.558594-27.929687-27.632813-57.320312-54.339844-84.046875-83.132813-9.855468-10.605469-12.449218-4.683593-1.550781-9.019531zm0 0" fill="#262626"/></svg>