<svg height="506pt" viewBox="0 -2 506.82377 506" width="506pt" xmlns="http://www.w3.org/2000/svg"><path d="m253.171875 503.011719c-1.898437 0-3.566406-1.253907-4.097656-3.074219-.527344-1.824219.207031-3.777344 1.808593-4.792969l59.546876-37.957031-76.03125 43.84375c-2.007813 1.074219-4.503907.382812-5.671876-1.570312-1.167968-1.953126-.601562-4.480469 1.292969-5.742188l9.386719-5.8125-20.328125 11.734375c-2.015625 1.136719-4.566406.457031-5.753906-1.527344s-.578125-4.554687 1.378906-5.792969l20.8125-12.800781-30.089844 17.363281c-2.011719 1.109376-4.535156.425782-5.714843-1.539062-1.183594-1.96875-.59375-4.519531 1.328124-5.773438l71.886719-44.765624-84.097656 48.539062c-2.011719 1.074219-4.515625.378906-5.679687-1.585938-1.164063-1.960937-.578126-4.492187 1.328124-5.746093l1.46875-.902344-7.824218 4.511719c-2.007813 1.089844-4.511719.40625-5.691406-1.550782-1.175782-1.953124-.605469-4.488281 1.296874-5.753906l117.433594-73.445312-129.800781 74.933594c-2.019531 1.152343-4.59375.46875-5.78125-1.53125-1.1875-2.003907-.550781-4.585938 1.429687-5.808594l22.945313-13.960938-28.703125 16.570313c-2.011719 1.109375-4.539062.425781-5.71875-1.542969-1.179688-1.964844-.59375-4.515625 1.332031-5.769531l116.792969-72.34375-126.09375 72.789062c-2.027344 1.207031-4.652344.546875-5.859375-1.480469-1.210937-2.027343-.546875-4.648437 1.480469-5.859374l115.351562-71.160157-123.457031 71.296875c-2.027344 1.207032-4.644531.542969-5.851563-1.480468-1.207031-2.023438-.542968-4.644532 1.480469-5.847657l124.953125-77.050781-132.367187 76.417969c-2.003907 1.054687-4.484375.363281-5.648438-1.578125-1.167969-1.941406-.613281-4.457032 1.261719-5.726563l173.804688-108.425781-182.976563 105.636719c-2.019531 1.09375-4.542969.398437-5.710937-1.578125-1.171876-1.972656-.566407-4.523438 1.367187-5.761719l26.035156-15.703125-28.929687 16.699219c-2.007813 1.089843-4.511719.40625-5.6875-1.550781-1.175782-1.953126-.605469-4.488282 1.292968-5.75l188.238282-117.429688-196.464844 113.425781c-2.011719 1.089844-4.523438.402344-5.695312-1.5625-1.175782-1.964843-.589844-4.507812 1.328124-5.757812l161.953126-99.945313-166.902344 96.378906c-2.03125 1.195313-4.648438.519532-5.847656-1.511718-1.195313-2.03125-.519532-4.648438 1.511718-5.847656l19.992188-12.039063-21.632813 12.46875c-2.007812 1.042969-4.484375.335937-5.636719-1.609375-1.15625-1.949219-.585937-4.460938 1.296876-5.722656l110.929687-67.652344-114.269531 66.007812c-2.011719 1.089844-4.523438.398438-5.695313-1.566406s-.585937-4.503906 1.328125-5.757812l150.859375-92.636719-153.761719 88.761719c-2.015624 1.117187-4.554687.429687-5.730468-1.550782-1.179688-1.980468-.570313-4.539062 1.371094-5.777343l142.777343-87.492188-145.226562 83.839844c-2.023438 1.207031-4.644531.542969-5.851563-1.480469-1.203125-2.023437-.542968-4.644531 1.480469-5.851562l158.21875-97.277344-161.050781 92.960938c-2.019532 1.210937-4.640625.554687-5.851563-1.46875-1.214843-2.019532-.554687-4.640626 1.464844-5.851563l188.699219-117.019531-190.40625 109.925781c-2.015625 1.136719-4.566406.460937-5.753906-1.527344-1.1875-1.984375-.578126-4.554687 1.378906-5.792969l168.582031-104.0625-169.835937 98.0625c-2.023438 1.128907-4.578126.4375-5.753907-1.558593-1.175781-1.992188-.546875-4.5625 1.417969-5.789063l34.730469-20.957031-33.878907 19.558594c-2.015624 1.164062-4.589843.496093-5.789062-1.496094-1.195312-1.996094-.578125-4.582031 1.394531-5.816406l190.457031-118.578125-190.054687 109.703125c-2.023437 1.210937-4.644531.546875-5.855469-1.476563-1.207031-2.023437-.546875-4.644531 1.476563-5.851562l147.261719-90.726563-146.246094 84.417969c-2.007813 1.046875-4.484375.339844-5.640625-1.609375-1.152344-1.949219-.582031-4.460937 1.296875-5.71875l86.109375-52.472656-83.847657 48.410156c-2.023437 1.152344-4.59375.472656-5.78125-1.53125-1.1875-2-.550781-4.585937 1.429688-5.808594l55.507812-33.6875-52.050781 30.042969c-2.023437 1.210938-4.644531.550781-5.855469-1.476562-1.207031-2.023438-.546874-4.644532 1.476563-5.851563l73.15625-44.59375-69.742187 40.265625c-2.011719 1.109375-4.535157.425781-5.71875-1.542969-1.179688-1.96875-.589844-4.515625 1.332031-5.769531l159.011719-99.335938-155.382813 89.703126c-1.996094.988281-4.417969.273437-5.558594-1.636719-1.140625-1.914063-.621093-4.378907 1.195313-5.667969l154.746094-97.144531-149.15625 86.109375c-2.007813 1.148437-4.566407.488281-5.765626-1.492188-1.199218-1.980468-.601562-4.554687 1.347657-5.800781l160.578125-102.042969-153.480469 88.609375c-2.003906 1.101563-4.523437.425781-5.707031-1.53125s-.613282-4.5 1.296875-5.765625l119.875-75.441406-111.785157 64.527344c-2.011718 1.109375-4.539062.425781-5.71875-1.542969-1.179687-1.96875-.59375-4.515625 1.332032-5.769531l65.355468-40.574219-56.234374 32.46875c-2.023438 1.210937-4.644532.558594-5.859376-1.464844-1.210937-2.019531-.558593-4.644531 1.464844-5.859375l54.613282-34.027344-44.851563 25.898438c-1.996094 1.097656-4.5.433594-5.691406-1.503906-1.195313-1.941406-.652344-4.476563 1.230469-5.757813l101.546874-65.929687-85.855468 49.570312c-2.015625 1.160156-4.589844.496094-5.789063-1.5-1.199219-1.992187-.578125-4.578125 1.394531-5.8125l14.761719-9.277344-1.226562.707032c-1.992188 1.117187-4.503907.46875-5.710938-1.464844-1.203125-1.9375-.675781-4.476562 1.203125-5.769531l59.792969-39.988281-36.121094 20.855468c-1.957031 1.140625-4.464843.550782-5.710937-1.339844-1.242188-1.894531-.792969-4.429687 1.027344-5.777343l41.445312-30.847657c-1.6875-.421874-2.949219-1.824218-3.191406-3.542968-.242188-1.722656.585937-3.417969 2.089844-4.289063l52.089843-30.089843c1.957031-1.136719 4.460938-.550782 5.707031 1.34375 1.246094 1.890624.796876 4.425781-1.023437 5.773437l-33.152344 24.695313 85.289063-49.238282c1.996094-1.132812 4.527344-.488281 5.734375 1.460938 1.210937 1.945312.664062 4.503906-1.234375 5.785156l-59.84375 39.988281 86.414062-49.878906c2.015625-1.160156 4.589844-.496094 5.789063 1.5 1.199219 1.992187.578125 4.578125-1.394531 5.8125l-14.769532 9.269531 29.054688-16.777344c2.003906-1.164062 4.570312-.519531 5.78125 1.457032 1.210937 1.972656.628906 4.554687-1.316406 5.8125l-101.460938 65.886718 123.261719-71.167968c2.023437-1.214844 4.644531-.558594 5.859375 1.464844 1.214844 2.019531.558594 4.644531-1.464844 5.855468l-54.613281 34.039063 66.03125-38.132813c2.015625-1.136718 4.570312-.460937 5.757812 1.527344 1.1875 1.984375.574219 4.554688-1.378906 5.792969l-65.382813 40.652343 77.046876-44.507812c2.003906-1.070312 4.492187-.386719 5.664062 1.554688 1.171875 1.945312.617188 4.46875-1.261719 5.738281l-119.890625 75.425781 132.84375-76.6875c2.003906-1.085938 4.503906-.40625 5.683594 1.539062 1.179688 1.945313.625 4.476563-1.261719 5.75l-160.546875 102.015626 175.601563-101.378907c2.019531-1.214843 4.640625-.5625 5.855469 1.457031 1.214843 2.019532.566406 4.640626-1.453126 5.859376l-154.847656 97.175781 166.785156-96.289063c2.015626-1.164062 4.589844-.496094 5.789063 1.496094 1.199219 1.996094.578125 4.582031-1.394531 5.816406l-159.019532 99.363282 169.15625-97.65625c2.011719-1.078126 4.515626-.378907 5.679688 1.585937 1.164062 1.960937.582031 4.492187-1.328125 5.742187l-72.976563 44.476563 78.363282-45.226563c2.027344-1.203124 4.648437-.53125 5.847656 1.496094 1.203125 2.03125.53125 4.648438-1.496094 5.851563l-55.800781 33.867187 60.273437-34.804687c2.019532-1.152344 4.59375-.472657 5.78125 1.53125 1.1875 2 .550782 4.585937-1.429687 5.804687l-85.871094 52.3125 90.152344-52.054687c2.011719-1.089844 4.527344-.402344 5.699219 1.5625 1.171875 1.964843.585937 4.507812-1.328125 5.757812l-147.234375 90.734375 153.554687-88.652344c2.011719-1.105468 4.539063-.425781 5.71875 1.542969 1.179688 1.96875.59375 4.519531-1.332031 5.769531l-190.4375 118.613282 197.027344-113.773438c2.023437-1.125 4.574218-.433594 5.75 1.558594 1.175781 1.996094.546875 4.5625-1.414063 5.789062l-34.714843 20.941407 36.539062-21.09375c1.308594-.785157 2.9375-.808594 4.269531-.066407 1.332031.746094 2.164063 2.140626 2.1875 3.667969.023438 1.523438-.769531 2.945313-2.078125 3.726563l-168.707031 104.105468 173.867187-100.339843c2.007813-1.074219 4.503907-.382813 5.671876 1.570312 1.167968 1.953125.601562 4.476563-1.292969 5.742188l-188.699219 117.015625 192.539062-111.164063c2.011719-1.089843 4.527344-.398437 5.699219 1.566407 1.171875 1.964843.585938 4.503906-1.328125 5.757812l-158.183594 97.277344 161.039063-93.011719c2.027344-1.207031 4.648437-.542969 5.855469 1.484375 1.207031 2.027344.542968 4.648438-1.484375 5.855469l-142.617188 87.429687 144.570313-83.464844c2.011718-1.089843 4.527344-.398437 5.699218 1.566407 1.171876 1.964843.585938 4.503906-1.328124 5.757812l-151.042969 92.757813 151.910156-87.664063c2.011719-1.046875 4.488281-.339843 5.640625 1.609375 1.15625 1.949219.585938 4.460938-1.296875 5.71875l-110.933594 67.621094 111.15625-64.207031c2.03125-1.195313 4.648438-.519531 5.847657 1.511719 1.195312 2.03125.519531 4.648437-1.511719 5.84375l-19.867188 11.949218 19.046875-10.992187c2.015625-1.136719 4.570313-.457031 5.757813 1.527343 1.1875 1.984376.574219 4.554688-1.378907 5.792969l-161.996093 99.96875 161.21875-93.0625c2.003906-1.058593 4.484375-.367187 5.648437 1.574219 1.164063 1.941406.613282 4.457031-1.261718 5.726562l-188.289063 117.4375 187.878906-108.484374c2.023438-1.125 4.574219-.433594 5.75 1.558593 1.175781 1.996094.550781 4.5625-1.414062 5.789063l-25.855469 15.648437 23.671875-13.652343c2.007813-1.105469 4.535156-.425782 5.714844 1.542968 1.179687 1.96875.59375 4.519532-1.332031 5.769532l-173.832032 108.410156 170.820313-98.65625c2.011719-1.089844 4.527343-.398438 5.699219 1.566406 1.171874 1.964844.585937 4.503906-1.328126 5.757812l-124.910156 77.0625 121.675782-70.253906c2.023437-1.210937 4.644531-.546875 5.851562 1.476563 1.210938 2.023437.550781 4.644531-1.476562 5.851562l-115.402344 71.195313 111.222656-64.214844c2.011719-1.105469 4.535156-.425781 5.71875 1.542969 1.179688 1.96875.589844 4.519531-1.332031 5.769531l-116.847657 72.382812 111.429688-64.324218c2.011719-1.078125 4.515625-.378906 5.679688 1.582031 1.164062 1.964844.578124 4.496094-1.328126 5.746094l-22.878906 13.925781 17.785156-10.238281c2.007813-1.125 4.550782-.453125 5.738282 1.519531s.597656 4.53125-1.335938 5.785156l-117.230468 73.292969 109.335937-63.148437c2.011719-1.074219 4.515625-.375 5.679687 1.585937 1.164063 1.960937.582032 4.492187-1.328124 5.746094l-5.75 3.507812c2.03125-.582031 4.179687.410157 5.058593 2.332031.875 1.921876.210938 4.195313-1.558593 5.347657l-71.972657 44.882812 62.601563-36.164062c2.023437-1.207031 4.644531-.546875 5.855468 1.476562 1.207032 2.023438.546876 4.644531-1.476562 5.855469l-20.679688 12.746094 11.667969-6.730469c2.015625-1.136719 4.566407-.457031 5.753907 1.527344s.578124 4.554687-1.378907 5.792969l-10.078125 6.222656c2.046875-.933594 4.460938-.125 5.527344 1.851562 1.066406 1.976563.421875 4.441406-1.480469 5.640625l-59.546875 37.964844 45.644532-26.351563c2.003906-1.121093 4.535156-.453124 5.730468 1.507813 1.191406 1.960937.617188 4.515625-1.300781 5.777344l-21.785156 13.84375 5.382812-3.105469c2.011719-1.179688 4.59375-.527344 5.804688 1.460938 1.210937 1.988281.601562 4.582031-1.367188 5.824218l-16.484375 10.582032c1.808594.0625 3.378906 1.261718 3.921875 2.988281.539063 1.726562-.066406 3.605469-1.515625 4.691406l-39.074218 28.75c1.546874.570313 2.628906 1.980469 2.773437 3.621094.148437 1.640625-.664063 3.222656-2.082031 4.058593l-52.054688 30.070313c-1.957031 1.097656-4.429687.492187-5.65625-1.386719-1.226562-1.878906-.792968-4.386718.996094-5.738281l28.035156-20.625-76.878906 44.375c-2.003906 1.140625-4.550781.480469-5.75-1.484375-1.203125-1.96875-.625-4.535156 1.304688-5.796875l5.324218-3.414063-22.75 13.132813c-2 1.085937-4.5.410156-5.679687-1.535156-1.179688-1.949219-.625-4.476563 1.261719-5.75l21.742187-13.765625-39.722656 22.886718c-.632813.375-1.355469.582032-2.089844.597657zm0 0" fill="#35ba9b"/><g fill="#262626"><path d="m300.316406 498.292969c118.515625-23.53125 204.539063-126.585938 206.507813-247.398438-2.558594-106.460937-67.3125-202.386719-169.617188-237.226562-98.320312-32.710938-206.671875-3.683594-275.472656 73.796875-70.984375 81.78125-81.828125 199.753906-26.941406 293.101562 55.308593 90.761719 161.128906 137.675782 265.523437 117.726563zm-37.445312-489.957031c130.375 6.824218 228.492187 115.445312 231.546875 243.839843-3.167969 135.097657-112.027344 249.179688-250.949219 242.558594-129.246094-7.851563-230.382812-114.363281-231.542969-243.839844-.179687-134.777343 114.609375-249.789062 250.945313-242.558593zm0 0"/><path d="m196.277344 373.5625c3.359375 2.394531 7.976562 1.914062 10.769531-1.121094 62.578125-79.644531 125.15625-159.289062 187.734375-238.929687 4.71875-5.976563-7.066406-6.898438-10.15625-2.953125l-182.5 232.300781-79.796875-79.75c-3.550781-3.550781-15.292969 1.277344-11.382813 5.1875zm0 0"/></g></svg>