<svg height="505pt" viewBox="0 -1 505.5826 505" width="505pt" xmlns="http://www.w3.org/2000/svg"><path d="m353.554688 217.777344c-1.816407-.003906-3.433594-1.15625-4.027344-2.875-.589844-1.71875-.03125-3.621094 1.398437-4.746094l39.910157-31.195312c-1.4375-.460938-2.523438-1.648438-2.859376-3.121094-.332031-1.472656.136719-3.011719 1.238282-4.046875l34.25-32.25c-.09375-1.609375.730468-3.132813 2.125-3.941407l5.820312-3.414062c1.882813-1.125 4.316406-.640625 5.621094 1.125s1.058594 4.230469-.566406 5.703125l-14.730469 13.859375 9.644531-5.566406c1.933594-1.074219 4.367188-.488282 5.605469 1.347656 1.238281 1.832031.867187 4.3125-.855469 5.703125l-31.992187 25 27.242187-15.707031c2.023438-1.0625 4.527344-.335938 5.667969 1.644531 1.144531 1.980469.527344 4.507813-1.402344 5.734375l-79.992187 46.175781c-.636719.371094-1.363282.570313-2.097656.570313zm0 0" fill="#cad0d7"/><path d="m208.488281 503.199219c-1.90625.007812-3.582031-1.246094-4.113281-3.074219-.527344-1.828125.214844-3.785156 1.824219-4.800781l45.816406-29.011719-62.804687 36.28125c-2.003907 1.121094-4.535157.457031-5.730469-1.507812-1.191407-1.960938-.617188-4.515626 1.300781-5.777344l81.917969-52.183594-103.039063 59.46875c-2 1.101562-4.511718.433594-5.699218-1.515625s-.632813-4.488281 1.261718-5.761719l120.226563-77.199218-146.363281 84.476562c-2.007813 1.089844-4.511719.40625-5.6875-1.550781-1.175782-1.953125-.605469-4.488281 1.292968-5.753907l96.425782-60.285156-117.066407 67.589844c-2.015625 1.136719-4.570312.460938-5.757812-1.527344-1.1875-1.984375-.574219-4.554687 1.378906-5.792968l81.492187-50.347657-99.832031 57.667969c-2.003906 1.074219-4.5.382812-5.667969-1.570312-1.171874-1.953126-.601562-4.480469 1.292969-5.742188l110.703125-68.480469-131.269531 75.792969c-2.007813 1.089844-4.511719.40625-5.6875-1.550781-1.175781-1.953125-.605469-4.488281 1.292969-5.753907l162.175781-101.066406-184.984375 106.761719c-2.015625 1.132813-4.570312.457031-5.757812-1.53125-1.1875-1.984375-.574219-4.554687 1.378906-5.792969l157.96875-97.570312-167.003906 96.417968c-2.03125 1.199219-4.648438.527344-5.847657-1.5-1.199219-2.03125-.527343-4.648437 1.503907-5.847656l89.699218-54.492187-91.757812 52.976562c-2.023438 1.152344-4.59375.46875-5.78125-1.53125-1.1875-2.003906-.550782-4.585937 1.429687-5.808593l133.367188-81.546876-132.488281 76.496094c-2.023438 1.210938-4.644532.558594-5.859376-1.464844-1.210937-2.023437-.558593-4.644531 1.464844-5.859374l210.328125-131.046876-206.34375 119.136719c-2.019531 1.210938-4.640625.554688-5.851562-1.46875-1.210938-2.023437-.554688-4.644531 1.464843-5.855469l207.414063-129.089843-203.027344 117.222656c-2.023437 1.207031-4.644531.546875-5.851562-1.476563-1.210938-2.023437-.550781-4.644531 1.476562-5.855468l48.757813-30.089844-44.375 25.601562c-2.011719 1.222657-4.636719.582032-5.859375-1.433593-1.222657-2.015625-.582031-4.640625 1.433593-5.863281l80.210938-51.199219-75.792969 43.792969c-2 1.101562-4.511719.429687-5.699219-1.515626-1.1875-1.949218-.632812-4.488281 1.261719-5.761718l72.023438-46.175782-67.585938 39.007813c-2.019531 1.214844-4.640625.5625-5.855469-1.457031-1.21875-2.019532-.566406-4.640625 1.453126-5.855469l36.097656-22.640625-31.695313 18.296875c-2.015625 1.160156-4.589843.492187-5.789062-1.5-1.195313-1.992187-.578125-4.582031 1.394531-5.816406l32.964844-20.605469-28.570313 16.496094c-2.015625 1.132812-4.566406.457031-5.753906-1.53125-1.1875-1.984375-.578125-4.554688 1.378906-5.792969l5.628907-3.488281-1.253907.722656c-2 1.117188-4.523437.457031-5.71875-1.492188-1.195312-1.953124-.636719-4.503906 1.265625-5.777343l115.832032-75.09375-111.378907 64.335937c-2.023437 1.207032-4.644531.546875-5.851562-1.476562-1.210938-2.027344-.550781-4.648438 1.476562-5.855469l17.347657-10.675781-12.9375 7.46875c-2.023438 1.210937-4.644532.550781-5.855469-1.46875-1.210938-2.023438-.550781-4.644532 1.46875-5.855469l63.574219-39.414063-59.1875 34.132813c-2.023438 1.210937-4.644532.554687-5.855469-1.46875-1.210938-2.019531-.550781-4.640625 1.46875-5.851563l111.523437-69.417968-107.171875 61.882812c-2.007812 1.125-4.550781.453125-5.738281-1.519531-1.191406-1.972656-.597656-4.535156 1.335938-5.785156l168.355468-105.875-163.953125 94.660156c-2.015625 1.117187-4.550781.429687-5.730469-1.550781-1.179687-1.980469-.570312-4.539063 1.371094-5.777344l64.613282-39.605469-60.253907 34.757813c-2.011719 1.089844-4.523437.402344-5.695312-1.5625-1.175781-1.964844-.589844-4.507813 1.328125-5.757813l48.972656-30.074219-44.605469 25.753907c-2.003906 1.140625-4.550781.484375-5.75-1.484375-1.203125-1.964844-.625-4.53125 1.304688-5.792969l138.238281-89.0625-133.792969 77.242187c-2.019531 1.210938-4.640625.554688-5.851562-1.464843-1.210938-2.023438-.554688-4.644531 1.464843-5.855469l43.605469-27.117188-39.253906 22.644532c-2.011719 1.222656-4.636719.582031-5.859375-1.433594-1.222656-2.011719-.582031-4.636719 1.433594-5.859375l78.777344-50.304687-74.316407 42.921874c-2.015625 1.222657-4.636719.582032-5.863281-1.433593-1.222656-2.015625-.578125-4.640625 1.433594-5.863281l50.960937-32.425782-46.53125 26.855469c-1.992187 1.152344-4.539062.519531-5.757812-1.433594s-.667969-4.523437 1.246093-5.804687l81.585938-54.722656-77.074219 44.5c-1.976562 1.074218-4.449219.425781-5.648437-1.480469-1.199219-1.90625-.707032-4.414063 1.117187-5.730469l63.351563-43.125-58.820313 33.996094c-1.972656 1.089844-4.453125.460937-5.664062-1.441406-1.210938-1.902344-.734375-4.417969 1.089843-5.746094l49.742188-34.730469-45.167969 26.035156c-1.953125 1.113281-4.4375.515625-5.671875-1.363281-1.238281-1.882812-.800781-4.398438.996094-5.753906l42.394531-31.46875-37.71875 21.785156c-1.953125 1.101562-4.425781.503906-5.660156-1.367188-1.234375-1.875-.808594-4.382812.976563-5.742187l20.753906-15.480469-16.070313 9.277344c-1.902343 1.128906-4.355469.613281-5.640625-1.1875-1.289062-1.800781-.988281-4.285156.691406-5.722656l19.550782-17.179688-13.910156 8.03125c-1.835938 1.058594-4.171876.613282-5.484376-1.050781s-1.207031-4.042969.253907-5.582031l9.558593-10.09375c-1.726562-.367188-3.050781-1.761719-3.328124-3.503906-.273438-1.746094.550781-3.480469 2.082031-4.363282l19.703125-11.367187c1.832031-1.046875 4.15625-.597657 5.464844 1.058593 1.308593 1.65625 1.210937 4.023438-.234376 5.5625l-6.929687 7.324219 25.882813-14.917969c1.898437-1.082031 4.304687-.558593 5.582031 1.21875 1.273437 1.773438 1 4.226563-.632813 5.675782l-19.542968 17.167968 41.703124-24.0625c1.953126-1.078124 4.40625-.476562 5.632813 1.386719 1.222656 1.863281.808594 4.359375-.957031 5.722657l-20.753906 15.460937 39.144531-22.570313c1.953125-1.085937 4.417969-.480468 5.644531 1.386719 1.226562 1.871094.800781 4.371094-.976562 5.730469l-42.394532 31.4375 66.816406-38.570312c1.972657-1.09375 4.453126-.460938 5.664063 1.441406s.734375 4.417968-1.089844 5.742187l-49.722656 34.714844 72.582031-41.882813c1.980469-1.074218 4.453125-.425781 5.648438 1.480469 1.199218 1.90625.710937 4.414063-1.117188 5.730469l-63.386718 43.136719 87.28125-50.347657c1.984374-1.097656 4.484374-.453124 5.6875 1.472657 1.199218 1.925781.683593 4.453125-1.171876 5.753906l-81.582031 54.71875 107.265625-61.945313c2-1.082031 4.5-.40625 5.679688 1.539063 1.179687 1.945313.625 4.476563-1.257813 5.75l-50.902343 32.425781 68.761718-39.714844c2.003906-1.121093 4.535156-.453124 5.726563 1.507813 1.191406 1.964844.617187 4.515625-1.296875 5.78125l-78.824219 50.34375 99.816406-57.632813c2.007813-1.105468 4.535157-.425781 5.714844 1.542969s.59375 4.519531-1.332031 5.769531l-43.621094 27.128907 59.664062-34.441407c1.996094-1.054687 4.464844-.378906 5.640626 1.546876 1.175781 1.925781.648437 4.433593-1.203126 5.722656l-138.238281 89.070312 166.886719-96.339844c2.007812-1.058593 4.492188-.359374 5.652344 1.589844 1.164062 1.953125.59375 4.46875-1.292969 5.730469l-48.988281 30.066406 64.792968-37.386719c2.011719-1.089843 4.523438-.398437 5.695313 1.566407 1.175781 1.964843.585937 4.503906-1.328125 5.753906l-64.460938 39.535156 81.171876-46.855469c2-1.070312 4.488281-.382812 5.664062 1.558594 1.171875 1.945313.617188 4.464844-1.261719 5.738282l-168.390625 105.863281 133.734375-77.199219c1.308594-.785156 2.9375-.8125 4.269531-.070312 1.332032.742187 2.167969 2.136718 2.191407 3.660156.023437 1.527344-.765625 2.945312-2.074219 3.730468l-111.539062 69.4375 71.878906-41.5c2.019531-1.210937 4.640625-.554687 5.851562 1.46875 1.210938 2.023438.554688 4.640626-1.46875 5.855469l-63.460937 39.34375 29.320312-16.917969c2.011719-1.09375 4.527344-.402343 5.699219 1.5625 1.171875 1.964844.585938 4.503907-1.328125 5.757813l-17.28125 10.664063 3.652344-2.105469c2.007812-1.230469 4.636719-.597657 5.867187 1.410156 1.230469 2.011719.597656 4.636719-1.414062 5.867187l-115.8125 75.042969 101.117187-58.367187c2.011719-1.109375 4.539063-.425782 5.71875 1.542968 1.179688 1.96875.59375 4.515626-1.332031 5.769532l-9.164062 5.667968c1.863281-.523437 3.84375.253907 4.855468 1.902344 1.195313 1.992188.574219 4.578125-1.398437 5.808594l-33.050781 20.660156 22.1875-12.800781c2.015624-1.160156 4.589843-.496094 5.789062 1.5 1.195312 1.992187.578125 4.582031-1.394531 5.8125l-36.035157 22.605469 25.019532-14.4375c2-1.097656 4.511718-.429688 5.699218 1.519531s.628907 4.484375-1.261718 5.761719l-72.058594 46.207031 83.765625-48.359375c2.015625-1.226562 4.640625-.585938 5.867187 1.429688 1.222657 2.015624.585938 4.640624-1.429687 5.867187l-80.214844 51.15625 129.792969-74.941406c2.015625-1.132813 4.570312-.457031 5.757812 1.53125 1.183594 1.984375.574219 4.554687-1.378906 5.792969l-48.683594 30.0625 174.183594-100.566407c2.019532-1.210937 4.640625-.554687 5.851563 1.46875 1.210937 2.023438.554687 4.640625-1.46875 5.855469l-207.417969 129.089844 203.035156-117.222656c2.019532-1.210938 4.640625-.554688 5.851563 1.46875 1.210937 2.023437.554687 4.640624-1.46875 5.855468l-210.300781 131.027344 205.917968-118.878906c2.011719-1.074219 4.511719-.375 5.679688 1.585937 1.164062 1.960938.578125 4.492188-1.328125 5.746094l-133.378907 81.550781 129.027344-74.484375c1.3125-.777343 2.9375-.792969 4.265625-.046875 1.328125.75 2.15625 2.152344 2.171875 3.675782.015625 1.523437-.785156 2.941406-2.097656 3.71875l-89.84375 54.578124 85.503906-49.359374c2.007813-1.089844 4.523438-.398438 5.695313 1.566406s.585937 4.503906-1.328125 5.757812l-157.96875 97.570313 153.601562-88.679688c2.007813-1.105469 4.535156-.425781 5.714844 1.542969s.59375 4.519531-1.332031 5.769531l-162.132813 101.078125 157.75-91.050781c2.007813-1.089844 4.523438-.402344 5.695313 1.566406 1.171875 1.964844.585937 4.503907-1.328125 5.753907l-110.644532 68.4375 106.277344-61.351563c2.007813-1.09375 4.523438-.402344 5.695313 1.5625s.585937 4.503906-1.328125 5.757813l-81.542969 50.347656 77.175781-44.5625c2-1.054688 4.480469-.363282 5.648438 1.578125 1.164062 1.941406.609375 4.453125-1.265625 5.726562l-96.425781 60.289063 92.042968-53.128906c2.007813-1.179688 4.589844-.527344 5.800782 1.460937 1.210937 1.988281.601562 4.582031-1.367188 5.824219l-120.265625 77.246094 115.839844-66.875c2-1.085938 4.5-.410157 5.679687 1.535156 1.179688 1.949218.625 4.476562-1.261718 5.75l-81.917969 52.171875 77.464843-44.714844c2.015626-1.214844 4.640626-.570313 5.859376 1.449219 1.21875 2.015625.570312 4.640625-1.449219 5.855468l-45.769531 28.957032 41.394531-23.894532c2.015625-1.164062 4.589843-.496093 5.789062 1.496094 1.195313 1.996094.578125 4.582032-1.394531 5.816406l-13.714844 8.617188 9.320313-5.375c1.992187-1.054688 4.464843-.378906 5.636719 1.546875 1.175781 1.925781.648437 4.433594-1.199219 5.722656l-38.324219 24.730469 33.886719-19.558594c1.988281-1.113281 4.503906-.46875 5.707031 1.46875 1.207031 1.933594.675781 4.476563-1.203125 5.769532l-54.175781 36.308593 49.671875-28.664062c1.988281-1.132813 4.515625-.496094 5.726562 1.445312 1.214844 1.9375.683594 4.488281-1.203125 5.78125l-37.984375 25.761719 33.476563-19.316406c1.964844-1.089844 4.4375-.464844 5.652344 1.421875 1.214843 1.890625.757812 4.398437-1.042969 5.734375l-36.5 25.925781 31.890625-18.398437c1.957031-1.109376 4.4375-.511719 5.675781 1.367187 1.234375 1.878906.796875 4.394531-1 5.75l-26.351563 19.550781 21.660157-12.503906c1.929687-1.117188 4.398437-.554688 5.65625 1.285156 1.261719 1.84375.886719 4.34375-.851563 5.738282l-18.46875 14.867187 13.65625-7.886719c1.902344-1.105468 4.335938-.585937 5.617188 1.207032 1.28125 1.792968.988281 4.265624-.679688 5.707031l-7.679687 6.742187.503906-.300781c2.039063-1.160156 4.632813-.453125 5.804687 1.574219 1.171876 2.03125.484376 4.628906-1.539062 5.816406l-38.371094 22.125c-1.902344 1.089844-4.316406.5625-5.589844-1.21875-1.273437-1.78125-.996093-4.234375.648438-5.683594l7.722656-6.742187-23.65625 13.65625c-1.929687 1.109375-4.386718.550781-5.644531-1.285157-1.261719-1.835937-.898437-4.332031.832031-5.730468l18.464844-14.867188-37.902344 21.871094c-1.957031 1.113281-4.441406.515625-5.675781-1.363281-1.234375-1.882813-.796875-4.398438 1-5.753907l26.332031-19.554687-46.171875 26.671875c-1.96875 1.085938-4.4375.464844-5.652343-1.421875-1.214844-1.890625-.761719-4.398437 1.042968-5.734375l36.488282-25.941406-57.371094 33.097656c-1.980469 1.089844-4.464844.441406-5.664063-1.476562-1.199219-1.914063-.699219-4.433594 1.144531-5.742188l38.007813-25.769531-57.175781 32.988281c-1.980469 1.074219-4.457032.417969-5.648438-1.496094-1.195312-1.910156-.691406-4.421875 1.144532-5.730468l54.160156-36.292969-75.453125 43.519531c-1.996094 1.085938-4.488281.414062-5.675781-1.523438-1.183594-1.9375-.644532-4.460937 1.230468-5.746093l38.332032-24.746094-55.398438 32.015625c-2.007812 1.128906-4.550781.453125-5.738281-1.519531-1.191407-1.972657-.597657-4.53125 1.335937-5.785157l13.652344-8.53125-27.527344 15.835938c-.648437.390625-1.386718.601562-2.140625.605469zm0 0" fill="#cad0d7"/><path d="m325.144531 239.519531c-1.792969 0-3.394531-1.121093-4.003906-2.808593-.613281-1.683594-.109375-3.570313 1.265625-4.726563l1.339844-1.125-2.910156 1.707031c-1.941407 1.09375-4.402344.507813-5.640626-1.347656-1.238281-1.855469-.839843-4.347656.914063-5.726562l28.507813-21.84375-33.449219 19.308593c-1.972657 1.140625-4.492188.527344-5.722657-1.394531-1.230468-1.917969-.734374-4.464844 1.125-5.78125l53.996094-38.1875-60.117187 34.707031c-1.992188 1.132813-4.523438.488281-5.734375-1.460937-1.207032-1.945313-.660156-4.5 1.238281-5.785156l66.148437-44.03125-71.636718 41.351562c-2.007813 1.179688-4.589844.527344-5.800782-1.460938-1.210937-1.988281-.601562-4.582031 1.363282-5.824218l62.082031-39.894532-66.492187 38.398438c-2.015626 1.222656-4.640626.574219-5.863282-1.441406-1.21875-2.015625-.574218-4.640625 1.441406-5.863282l44.015626-27.859374-47.425782 27.375c-2.007812 1.085937-4.515625.402343-5.691406-1.554688-1.175781-1.953125-.605469-4.488281 1.296875-5.75l11.089844-6.921875c-2.007813 1.125-4.546875.453125-5.738281-1.519531-1.1875-1.972656-.597657-4.53125 1.335937-5.785156l91.707031-60.945313-44.902344 25.925781c-1.976562 1.136719-4.5.511719-5.722656-1.410156-1.222656-1.925781-.71875-4.472656 1.148438-5.785156l68.695312-47.921875-21.332031 12.296875c-1.953125 1.078125-4.40625.476562-5.632813-1.386719-1.226562-1.863281-.808593-4.359375.953126-5.722656l42.070312-31.425781c-1.855469.1875-3.621094-.851563-4.355469-2.570313s-.265625-3.710937 1.15625-4.921875l28.613281-24.269531c-1.121093-2.035157-.414062-4.589844 1.59375-5.753907l16.605469-9.546874c1.910157-1.066407 4.3125-.523438 5.574219 1.265624 1.257812 1.785157.964844 4.234376-.683594 5.671876l-10.09375 8.53125 17.484375-10.09375c1.953125-1.101563 4.425781-.503907 5.660157 1.367187 1.234374 1.875.808593 4.382813-.976563 5.742187l-39.566406 29.558594 45.363281-26.179687c1.976562-1.136719 4.5-.515625 5.722656 1.410156s.71875 4.472656-1.152344 5.78125l-68.683593 47.875 75.554687-43.625c1.988282-1.082031 4.472656-.429687 5.667969 1.492187 1.195313 1.925782.679687 4.445313-1.171875 5.746094l-91.664062 60.925782 98.484374-56.847657c2-1.054687 4.480469-.363281 5.648438 1.578125 1.164062 1.941406.609375 4.453125-1.261719 5.726563l-10.941406 6.828125 12.167969-7.015625c2.003906-1.101563 4.523437-.425781 5.707031 1.53125s.613281 4.5-1.292969 5.765625l-44.128906 27.945312 40.707031-23.5c2-1.140625 4.546875-.484375 5.75 1.484375 1.203125 1.964844.625 4.53125-1.304687 5.792969l-62.15625 39.953125 32.636718-18.839844c1.996094-1.132812 4.527344-.492187 5.734376 1.457031 1.210937 1.949219.664062 4.503907-1.234376 5.785157l-66.082031 43.984375 24.464844-14.117188c1.972656-1.136718 4.492187-.523437 5.722656 1.394532 1.230469 1.917968.734375 4.464843-1.125 5.785156l-53.988281 38.175781 9.886719-5.707031c1.945312-1.09375 4.402343-.507813 5.640625 1.347656 1.238281 1.851562.84375 4.347656-.910156 5.726562l-36.90625 28.269532c1.484374.464844 2.601562 1.707031 2.90625 3.234375.304687 1.527343-.246094 3.101562-1.441407 4.105469l-22.542969 18.953124c.816407 1.976563.042969 4.253907-1.808593 5.324219l-14.765625 8.53125c-.644532.375-1.382813.570313-2.132813.5625zm0 0" fill="#4a88da"/><path d="m257.75 264.027344c-1.769531 0-3.355469-1.089844-3.988281-2.746094-.628907-1.652344-.175781-3.523438 1.144531-4.703125l17.230469-15.359375-36.402344 21c-1.90625 1.082031-4.320313.542969-5.585937-1.246094-1.269532-1.785156-.972657-4.242187.679687-5.683594l26.402344-22.59375-11.785157 6.824219c-1.882812 1.109375-4.300781.617188-5.597656-1.140625-1.300781-1.757812-1.058594-4.210937.554688-5.683594l14.769531-13.746093-1.238281.707031c-1.882813 1.144531-4.328125.667969-5.644532-1.105469-1.3125-1.773437-1.058593-4.253906.585938-5.722656l6.765625-6.363281c-.402344-.199219-.769531-.457032-1.089844-.769532-1.382812-1.308593-1.730469-3.371093-.855469-5.0625l8.867188-16.816406c-1.03125-2.035156-.277344-4.519531 1.707031-5.640625l2.960938-1.707031c1.644531-.957031 3.726562-.703125 5.097656.613281 1.371094 1.320313 1.703125 3.386719.816406 5.070313l-4.957031 9.386718 8.957031-5.164062c1.882813-1.125 4.316407-.640625 5.621094 1.125 1.304687 1.761719 1.058594 4.230469-.566406 5.703125l-.8125.757813 2.117187-1.210938c1.882813-1.09375 4.285156-.59375 5.574219 1.15625 1.292969 1.753906 1.058594 4.195312-.539063 5.671875l-14.773437 13.738281 19.199219-11.09375c1.910156-1.101562 4.347656-.570312 5.617187 1.230469 1.273438 1.800781.96875 4.273437-.707031 5.707031l-26.414062 22.605469 32.359374-18.679687c1.875-.996094 4.195313-.460938 5.445313 1.253906 1.253906 1.71875 1.050781 4.089844-.46875 5.570312l-17.210937 15.363282 21.859374-12.570313c1.351563-.78125 3.019532-.757813 4.351563.054687s2.113281 2.285157 2.039063 3.84375l-.382813 8.175782 3.859375-2.226563c2.023438-1.0625 4.527344-.335937 5.671875 1.644531 1.140625 1.980469.523437 4.507813-1.40625 5.734376l-10.632813 6.144531c-1.351562.777343-3.019531.757812-4.351562-.054688s-2.113281-2.285156-2.039062-3.84375l.382812-8.175781-51.039062 29.464844c-.652344.378906-1.394532.570312-2.148438.5625zm0 0" fill="#5e9cea"/><g fill="#262626"><path d="m122.625 501.605469h215.363281c28.65625 0 81.382813 9.609375 97.707031-22.1875 7.875-15.359375 4.265626-37.84375 4.265626-54.46875v-293.253907c20.882812-20.886718 41.761718-41.765624 62.625-62.644531.054687-.058593 0-.085937.054687-.136719.050781-.050781.367187-.273437.460937-.445312 12.378907-21.332031-24.476562-61.003906-45.960937-66.0625-24.40625-5.742188-46.867187 28.289062-60.589844 42.007812l-25.65625 25.601563c-106.351562-.195313-213.898437-5.121094-320.042969 0-38.164062 1.9375-49.929687 22.824219-49.929687 58.144531v299.058594c0 14.199219-2.558594 30.890625.851563 44.878906 10.863281 44.707032 87.304687 29.507813 120.851562 29.507813zm195.480469-264.652344-79.667969 24.277344 31.128906-72.816407zm114.253906-218.359375c14.796875-9.96875 17.015625-8.953125 32 2.125 14.675781 10.835938 37.503906 30.914062 26.582031 49.917969l-62.140625 62.15625c-.324219.207031-.613281.460937-.855469.761719-31.785156 31.792968-66.300781 62.234374-95.929687 96.015624-.582031.65625-1.390625 1.46875-2.253906 2.304688l-1.9375-1.9375c-2.601563-3.613281-5.773438-6.78125-9.386719-9.386719l-39.722656-39.78125c-.636719-1.546875-1.460938-3.007812-2.457032-4.351562.632813-.914063 1.296876-1.820313 1.988282-2.730469 1.605468-1.632812 3.054687-3.410156 4.335937-5.308594l.238281-.28125c5.820313-6.476562 11.886719-12.800781 17.921876-19.074218 4.757812-4.265626 9.554687-8.453126 13.71875-12.617188l62.429687-62.378906c.691406-.683594 1.402344-1.359375 2.089844-2.050782.113281-.109374.105469-.1875.171875-.289062 16.835937-17.21875 33.589844-39.867188 53.207031-53.09375zm-419.082031 88.105469c7.953125-38.398438 30.976562-31.761719 56.910156-31.761719h218.050781c11.246094 0 68.164063-7.941406 78.105469-.355469-3.367188 3.378907-6.742188 6.75-10.121094 10.117188-.570312.554687-1.132812 1.109375-1.707031 1.707031l-42.460937 42.429688c-16.257813 14.210937-31.679688 29.355468-46.179688 45.355468-1.777344.429688-3.269531 1.617188-4.089844 3.25l-3.300781 7.738282c-11.324219 21.082031-20.75 43.128906-28.160156 65.878906l-6.222657 14.558594h-137.710937c-4.265625 0-13.261719 6.398437-4.984375 6.398437h142.441406c1.816406 1.3125 4.136719 1.726563 6.296875 1.117187l50.644531-15.445312c10.410157-2.539062 20.667969-5.675781 30.71875-9.386719l17.734376-5.402343c1.160156-.34375 2.214843-.96875 3.070312-1.824219 1.65625-1.058594 2.636719-2.441407 2.175781-3.898438l.726563-.726562.09375-.058594c33.835937-22.65625 63.273437-60.585937 92.238281-91.804687v258.671874c0 17.785157 5.304687 45.125 0 62.292969-10.984375 35.578125-30.773437 31.171875-57.976563 31.171875h-306.441406c-25.984375 0-45.542968-6.398437-49.851562-36.625-3.070313-21.621094 0-46 0-67.796875v-223.101562c0-19.398438-3.941406-43.417969 0-62.5zm0 0"/><path d="m83.386719 350.234375h298.667969c7.140624 0 9.386718-9.304687 1.023437-9.304687h-298.667969c-7.140625 0-9.410156 9.304687-1.023437 9.304687zm0 0"/><path d="m86.355469 419.078125c-4.382813 0-13.207031 6.605469-4.914063 6.605469h102.402344c4.382812 0 13.207031-6.605469 4.914062-6.605469zm0 0"/><path d="m250.078125 419.992188h-17.066406c-3.074219-.035157-6.101563.773437-8.746094 2.339843-1.800781 1.195313-1.871094 2.4375.65625 2.4375h17.066406c3.074219.035157 6.101563-.773437 8.746094-2.335937 1.800781-1.195313 1.871094-2.441406-.65625-2.441406zm0 0"/></g></svg>