<svg id="Icons" height="512" viewBox="0 0 60 60" width="512" xmlns="http://www.w3.org/2000/svg"><path d="m15.65 35.47a.5.5 0 0 1 -.359-.848l.756-.782-2.707 1.56a.5.5 0 0 1 -.624-.764l1.45-1.636-4.119 2.38a.5.5 0 0 1 -.651-.732l1.471-1.973-1.587.916a.5.5 0 0 1 -.68-.681l.4-.716a.5.5 0 0 1 -.171-.927l1.162-.67a.5.5 0 0 1 .684.681l-.3.524 2.086-1.2a.5.5 0 0 1 .651.731l-1.465 1.967 4.685-2.7a.5.5 0 0 1 .624.764l-1.449 1.636 3.132-1.808a.5.5 0 0 1 .609.781l-.757.782.229-.132a.5.5 0 0 1 .673.7l-.32.505a.5.5 0 0 1 .094.907l-1.16.67a.5.5 0 0 1 -.673-.7l.128-.2-1.562.9a.493.493 0 0 1 -.25.065z" fill="#9ebbce"/><path d="m42.931 35.47a.5.5 0 0 1 -.319-.886l.139-.114-1.159.669a.5.5 0 0 1 -.6-.786l.989-.988-.7.4a.5.5 0 0 1 -.692-.666l.474-.9a.5.5 0 0 1 -.229-.932l1.161-.67a.5.5 0 0 1 .6.072.5.5 0 0 1 .1.594l-.408.771 2.484-1.434a.5.5 0 0 1 .6.786l-.988.987 3.076-1.773a.5.5 0 0 1 .568.818l-.14.116 1.619-.934a.5.5 0 0 1 .642.742l-1.494 1.9 2.066-1.192a.5.5 0 0 1 .687.675l-.537.971a.5.5 0 0 1 .512.245.5.5 0 0 1 -.183.682l-1.355.782a.5.5 0 0 1 -.688-.674l.506-.916-2.756 1.585a.5.5 0 0 1 -.642-.742l1.494-1.9-4.577 2.642a.493.493 0 0 1 -.25.07z" fill="#9ebbce"/><g fill="#6cafd8"><path d="m19.121 24.47a.5.5 0 0 1 -.269-.922l4.858-3.1-6.744 3.894a.5.5 0 0 1 -.518-.855l6.427-4.087-7.7 4.445a.5.5 0 0 1 -.519-.855l8.3-5.3-9.182 5.31a.5.5 0 0 1 -.517-.855l6.743-4.258-7.2 4.158a.5.5 0 0 1 -.52-.854l9.462-6.061-9.767 5.639a.5.5 0 0 1 -.526-.85l12.272-8.1-12.345 7.119a.5.5 0 0 1 -.525-.85l7.432-4.888-6.972 4.025a.5.5 0 0 1 -.519-.855l1.044-.663-.233.135a.5.5 0 0 1 -.593-.8l1.806-1.7a.5.5 0 0 1 -.166-.926l3.041-1.756a.5.5 0 0 1 .593.8l-1.439 1.351 17.08-9.861a.5.5 0 0 1 .517.855l-1.059.673 1.31-.756a.5.5 0 0 1 .525.85l-7.431 4.893 11.865-6.851a.5.5 0 0 1 .526.85l-12.273 8.1 14.095-8.134a.5.5 0 0 1 .52.853l-9.459 6.06 10.194-5.885a.5.5 0 0 1 .516.855l-6.728 4.251 7-4.04a.5.5 0 0 1 .519.855l-8.3 5.3 8.338-4.821a.5.5 0 0 1 .518.855l-6.436 4.093 6.132-3.54a.5.5 0 0 1 .519.854l-4.859 3.1 4.186-2.42a.5.5 0 0 1 .532.845l-9.241 6.318 10.538-6.084a.5.5 0 0 1 .538.841l-8.946 6.312 10.372-5.988a.5.5 0 0 1 .539.84l-7.492 5.323 8.192-4.729a.5.5 0 0 1 .541.838l-5.786 4.15 5.967-3.445a.5.5 0 0 1 .538.841l-3.072 2.167 2.811-1.623a.5.5 0 0 1 .547.835l-2.463 1.816 1.863-1.076a.5.5 0 0 1 .574.814l-2.346 2 1.008-.582a.5.5 0 1 1 .5.865l-5.764 3.322a.5.5 0 0 1 -.574-.813l2.344-1.995-4.864 2.808a.5.5 0 0 1 -.547-.835l2.469-1.819-4.6 2.654a.5.5 0 0 1 -.538-.84l3.068-2.16-5.205 3a.5.5 0 0 1 -.541-.839l5.785-4.148-8.639 4.987a.5.5 0 0 1 -.54-.839l7.5-5.322-10.677 6.161a.5.5 0 0 1 -.538-.84l8.944-6.311-12.387 7.151a.5.5 0 0 1 -.532-.845l9.243-6.32-12.41 7.165a.5.5 0 0 1 -.25.07z"/><path d="m16.934 10.906a.5.5 0 0 1 -.287-.91l3.027-2.116-2.392 1.381a.5.5 0 0 1 -.566-.82l4.743-3.88-3.278 1.892a.5.5 0 0 1 -.57-.816l2.007-1.674a.488.488 0 0 1 -.222-.2.5.5 0 0 1 .183-.683l3.621-2.095a.5.5 0 0 1 .57.817l-1.05.876 3.573-2.062a.5.5 0 0 1 .566.82l-4.742 3.879 7.057-4.074a.5.5 0 0 1 .536.843l-3.022 2.116 3.9-2.25a.5.5 0 1 1 .5.866l-13.9 8.026a.494.494 0 0 1 -.254.064z"/><path d="m7.04 59.47a.5.5 0 0 1 -.282-.913l5.611-3.813-7.645 4.413a.5.5 0 0 1 -.52-.852l2.086-1.344-2.79 1.608a.5.5 0 0 1 -.534-.844l9.465-6.518-10.325 5.962a.5.5 0 0 1 -.518-.855l.272-.172-.222.128a.5.5 0 0 1 -.538-.842l9-6.324-8.808 5.084a.5.5 0 0 1 -.541-.839l6.26-4.5-4.9 2.826a.5.5 0 0 1 -.541-.84l3.732-2.662a.5.5 0 0 1 -.534-.84l1.632-1.27-.61.351a.5.5 0 0 1 -.576-.812l1.376-1.179a.492.492 0 0 1 -.166-.173.5.5 0 0 1 .183-.683l3.06-1.767a.5.5 0 0 1 .575.812l-.27.231 2.068-1.193a.5.5 0 0 1 .558.827l-1.633 1.279 2.835-1.634a.5.5 0 0 1 .54.84l-3.722 2.655 4.606-2.658a.5.5 0 0 1 .541.839l-6.26 4.494 9.818-5.668a.5.5 0 0 1 .537.842l-9 6.323 11.181-6.455a.5.5 0 0 1 .518.854l-.272.173.528-.3a.5.5 0 0 1 .534.844l-9.46 6.515 9.743-5.625a.5.5 0 0 1 .521.853l-2.098 1.352 1.633-.942a.5.5 0 0 1 .531.845l-5.611 3.814 5.192-2.998a.5.5 0 0 1 .537.842l-4.644 3.252 5.83-3.366a.5.5 0 0 1 .556.828l-5.9 4.564 6.778-3.913a.5.5 0 0 1 .567.818l-4.587 3.78 4.717-2.724a.5.5 0 0 1 .592.8l-2.946 2.75 2.174-1.25a.5.5 0 0 1 .584.8l-1.1.988a.5.5 0 0 1 -.014.857l-2.683 1.55a.5.5 0 0 1 -.584-.8l.151-.135-1.817 1.04a.5.5 0 0 1 -.591-.8l2.946-2.75-6.148 3.55a.5.5 0 0 1 -.568-.818l4.588-3.78-7.966 4.6a.5.5 0 0 1 -.665-.154.5.5 0 0 1 .109-.674l5.9-4.564-9.343 5.39a.5.5 0 0 1 -.536-.841l4.641-3.25-7.088 4.091a.5.5 0 0 1 -.25.07z"/><path d="m37.057 59.47a.5.5 0 0 1 -.275-.918l3.459-2.274-4.807 2.776a.5.5 0 0 1 -.523-.852l3.494-2.267-4.2 2.422a.5.5 0 0 1 -.532-.845l9.142-6.255-9.85 5.686a.5.5 0 0 1 -.53-.846l8.116-5.5-8.187 4.726a.5.5 0 0 1 -.527-.848l4.4-2.937-3.912 2.258a.5.5 0 0 1 -.533-.845l3.924-2.695-2.674 1.544a.5.5 0 0 1 -.554-.83l5.644-4.321-1.722.994a.5.5 0 0 1 -.611-.779l2.338-2.444-.03.017a.5.5 0 0 1 -.5-.866l3.059-1.771a.5.5 0 0 1 .611.778l-2.339 2.445 5.356-3.091a.5.5 0 0 1 .554.83l-5.648 4.323 7.073-4.085a.5.5 0 0 1 .534.845l-3.926 2.7 6.146-3.545a.5.5 0 0 1 .528.849l-4.4 2.935 6.875-3.968a.5.5 0 0 1 .53.846l-8.118 5.5 9.2-5.308a.5.5 0 0 1 .532.846l-9.141 6.254 9.527-5.5a.5.5 0 0 1 .522.853l-3.487 2.261 3.115-1.8a.5.5 0 0 1 .524.85l-3.471 2.282 2.492-1.438a.5.5 0 0 1 .524.85l-1 .659 1.777-1.026a.5.5 0 0 1 .537.842l-4.347 3.046 5.248-3.029a.5.5 0 0 1 .554.83l-5.286 4.043 5.892-3.4a.5.5 0 0 1 .56.826l-3.761 2.962 3.721-2.147a.5.5 0 0 1 .594.8l-2.857 2.71 2.011-1.16a.5.5 0 0 1 .5.865l-5.672 3.267a.5.5 0 0 1 -.594-.8l2.857-2.7-6.074 3.5a.5.5 0 0 1 -.559-.825l3.759-2.961-6.56 3.786a.5.5 0 0 1 -.554-.83l5.286-4.042-8.441 4.872a.5.5 0 0 1 -.537-.841l4.348-3.047-6.737 3.888a.5.5 0 0 1 -.524-.85l1-.656-2.613 1.506a.5.5 0 0 1 -.25.07z"/></g><path d="m49.9 35.452a1.859 1.859 0 0 0 1.729-2c.693-.173 10.365.611 7.361-.9h-7.372c-.03-3.2-4.259-1.721-6.316-2-1.857-.021-4.763-.656-5.008 1.986h-9.728v-7.995h11.723c8.626-.467 9.626-12.876 1.066-14.152a6.309 6.309 0 0 0 -9.931-6.563c-5.77-6.111-16.424-2.941-16.994 5.813-.526.994-.535.563-1.374 1.22-4.22 1.895-6.127 7.327-3 11.094 4.155 4.589 11.929 2.085 17.378 2.588v7.991h-9.81c-.181-3.236-4.123-1.912-6.259-2.1-1.9-.046-4.65-.617-4.948 2.061h-7.265c-.578 0-1.05 1.016-.3 1.016h7.53c.17 2.755 3.153 2.159 5.133 2.216v6.151a6.74 6.74 0 0 0 -4.756.224c-3.592 1.52-2.986 4.205-4.7 6.7-.626.922-2.059 1.228-2.759 2.313a5.38 5.38 0 0 0 -.717 4.285c1.247 6.534 17.063 4.048 22.237 4.05 6.536-.632 7.713-8.933 1.349-10.7 2.014-4.576-3.977-8.271-7.39-4.85a8.606 8.606 0 0 0 -2.294-1.639v-6.57c2.015-.2 4.732.542 5.084-2.223h20.719c.268 2.679 3.318 2.025 5.259 2.1v6.671a6.969 6.969 0 0 0 -9.955 6.412c-6 2.273-4.765 10.49 1.75 10.95 5.487.388 11.128 0 16.631 0 6.541-.352 7.193-9.523 1.169-11.012 1.733-4.536-4.05-8.362-7.385-4.675a7.586 7.586 0 0 0 -1.3-1.153v-7.216c1.158-.039 2.319-.093 3.443-.093zm-30.523-11.995c-7.543 1.051-11.526-10.229-2.477-12.038a.731.731 0 0 0 .545-.65c-.416-8.777 10.008-11.727 15.432-5.807.178.2.422.1.616-.058 4.666-3.715 10.352.925 8.78 6.291 7.355.88 8.524 11.6.334 12.262-7.742-.042-15.49.071-23.23 0zm3.523 25.41c-.1.268-.094.5.288.585 5.769 1.222 5.252 8.2-.366 9.1-5.526-.011-11.12.066-16.64 0-4.831-.752-6.73-7.179-.941-9.052a.507.507 0 0 0 .385-.483 5.979 5.979 0 0 1 10.637-4.06.734.734 0 0 0 1.029-.125c2.777-3.493 7.534.399 5.608 4.035zm24.515-3.788c.186.188.4.32.635.029a3.6 3.6 0 0 1 5.961 4.034.514.514 0 0 0 .4.487 4.468 4.468 0 0 1 4.089 4.807 4.539 4.539 0 0 1 -4.472 3.964c-5.645-.034-11.308.064-16.941 0-4.957-.626-5.848-7.149-.964-8.728a.511.511 0 0 0 .357-.562 6.1 6.1 0 0 1 10.933-4.031zm-29.371-10.648h-5.257c-1.269.029-3.17.581-3.374-1.277.149-.228.179-.5-.028-.611 0-1.285 1.461-1.027 2.356-.974h3.659c1.174 0 2.765-.571 3.1 1.087-.113.134-.056.353.1.532.057.574-.081 1.112-.556 1.243zm24.155.117a1.532 1.532 0 0 1 -.673-1.23.367.367 0 0 0 -.031-.36c-.2-1.61 1.06-1.668 2.309-1.506h3.661c1.249-.076 3.006-.536 3.014 1.372a.4.4 0 0 0 .014.363 1.459 1.459 0 0 1 -.638 1.361h-3.516a.376.376 0 0 0 -.524 0c-1.101-.11-2.548.29-3.615 0z" fill="#262626"/></svg>