<svg id="Icons" height="512" viewBox="0 0 60 60" width="512" xmlns="http://www.w3.org/2000/svg"><path d="m27.58 50.472a.5.5 0 0 1 -.25-.933l27.39-15.814a.5.5 0 0 1 .521.852l-7.826 5.062 7.305-4.217a.5.5 0 0 1 .532.846l-9.842 6.732 9.311-5.375a.5.5 0 0 1 .529.848l-5.677 3.827 5.148-2.972a.5.5 0 0 1 .524.851l-1.2.786.671-.387a.5.5 0 0 1 .543.838l-4.443 3.206 3.9-2.251a.5.5 0 0 1 .556.828l-3.451 2.677 2.9-1.676a.5.5 0 0 1 .583.806l-2.355 2.1 1.447-.835a.5.5 0 0 1 .5.866l-5.653 3.263a.5.5 0 0 1 -.583-.8l2.355-2.1-5.038 2.9a.5.5 0 0 1 -.557-.828l3.451-2.672-6.071 3.5a.5.5 0 0 1 -.543-.838l4.443-3.203-7 4.044a.5.5 0 0 1 -.524-.85l1.2-.786-2.847 1.633a.5.5 0 0 1 -.529-.844l5.68-3.825-8.093 4.669a.5.5 0 0 1 -.532-.845l9.834-6.728-13.119 7.573a.5.5 0 0 1 -.522-.852l7.825-5.062-10.243 5.914a.5.5 0 0 1 -.25.072z" fill="#ccd0da"/><path d="m14.438 59.268a.5.5 0 0 1 -.284-.912l.691-.476-.565.325a.5.5 0 0 1 -.511-.858l10.644-6.547-10.134 5.846a.5.5 0 0 1 -.509-.86l3.85-2.344-3.341 1.929a.5.5 0 0 1 -.514-.857l15.709-9.787-15.195 8.773a.5.5 0 0 1 -.512-.858l12.183-7.525-11.671 6.737a.5.5 0 0 1 -.508-.86l1.113-.675-.849.49a.5.5 0 0 1 -.513-.858l13.285-8.22-15.02 8.669a.5.5 0 0 1 -.514-.857l16.446-10.2-18.784 10.848a.5.5 0 0 1 -.515-.856l21.339-13.309-22.736 13.126a.5.5 0 0 1 -.513-.852l21.49-13.36-22.1 12.76a.5.5 0 0 1 -.51-.859l11.677-7.111-11.624 6.711a.5.5 0 0 1 -.511-.859l15.205-9.321-14.857 8.577a.5.5 0 0 1 -.515-.857l21.757-13.631-21.242 12.263a.5.5 0 0 1 -.509-.86l4.111-2.495-3.6 2.079a.5.5 0 0 1 -.51-.859l5.713-3.488-5.2 3a.5.5 0 0 1 -.517-.855l16.332-10.335-15.82 9.136a.5.5 0 0 1 -.511-.859l4.8-2.957-4.289 2.48a.5.5 0 0 1 -.511-.859l1.431-.88-.915.529a.5.5 0 0 1 -.516-.856l7.75-4.875-7.239 4.176a.5.5 0 0 1 -.515-.856l3.913-2.449-3.4 1.961a.5.5 0 0 1 -.514-.856l.81-.506-.3.171a.5.5 0 0 1 -.517-.856l2.533-1.6-2.011 1.162a.5.5 0 0 1 -.524-.851l5.936-3.892-5.412 3.124a.5.5 0 0 1 -.528-.848l5.366-3.6-4.838 2.796a.5.5 0 0 1 -.523-.851l.607-.4-.084.048a.5.5 0 0 1 -.537-.842l3.645-2.556-3.108 1.797a.5.5 0 0 1 -.542-.839l2.253-1.619-1.711.987a.5.5 0 0 1 -.583-.806l3.1-2.768-2.321 1.34a.5.5 0 0 1 -.6-.792l1.333-1.293a.5.5 0 0 1 -.077-.9l2.544-1.468a.5.5 0 0 1 .649.13.5.5 0 0 1 -.052.662l-.8.779 3.02-1.744a.5.5 0 0 1 .583.8l-3.1 2.769 6.192-3.569a.5.5 0 0 1 .542.839l-2.254 1.62 4.26-2.459a.5.5 0 0 1 .537.841l-3.642 2.553 5.883-3.4a.5.5 0 0 1 .524.851l-.616.4 2.172-1.245a.5.5 0 0 1 .529.847l-5.362 3.591 7.693-4.44a.5.5 0 0 1 .524.85l-5.937 3.894 8.217-4.742a.5.5 0 0 1 .518.855l-2.519 1.592 4.243-2.447a.5.5 0 0 1 .514.856l-.8.5 2.349-1.356a.5.5 0 0 1 .516.856l-3.931 2.46 5.744-3.316a.5.5 0 0 1 .517.855l-7.747 4.873 9.922-5.728a.5.5 0 0 1 .512.858l-1.416.87 2.994-1.728a.5.5 0 0 1 .512.858l-4.8 2.953 6.6-3.811a.5.5 0 0 1 .517.855l-16.342 10.345 19.4-11.2a.5.5 0 0 1 .511.859l-5.706 3.482 7.52-4.341a.5.5 0 0 1 .51.86l-4.124 2.5 5.749-3.321a.5.5 0 0 1 .516.856l-21.755 13.632 23.705-13.686a.5.5 0 0 1 .512.859l-15.2 9.318 15.831-9.139a.5.5 0 0 1 .51.859l-11.675 7.11 11.828-6.829a.5.5 0 0 1 .514.858l-21.51 13.365 21.424-12.371a.5.5 0 0 1 .515.856l-21.332 13.3 20.837-12.027a.5.5 0 0 1 .513.857l-16.453 10.207 15.94-9.2a.5.5 0 0 1 .512.857l-13.284 8.22 12.772-7.375a.5.5 0 0 1 .509.86l-1.1.668.594-.341a.5.5 0 0 1 .512.858l-12.186 7.522 11.671-6.733a.5.5 0 0 1 .514.858l-15.709 9.783 15.2-8.772a.5.5 0 0 1 .509.86l-3.822 2.326 3.313-1.912a.5.5 0 0 1 .511.858l-29.425 18.108a.5.5 0 0 1 -.2.55l-6.22 4.3a.5.5 0 0 1 -.2.646l-4.5 2.6a.493.493 0 0 1 -.253.063z" fill="#ccd0da"/><path d="m23.692 33.471a.5.5 0 0 1 -.27-.921l3.149-2.026-4.986 2.876a.5.5 0 0 1 -.522-.852l5.661-3.659-7.816 4.511a.5.5 0 0 1 -.519-.853l5.988-3.835-8.121 4.688a.5.5 0 0 1 -.518-.854l6.262-3.972-7.76 4.478a.5.5 0 0 1 -.526-.85l13.551-8.968-14.755 8.519a.5.5 0 0 1 -.517-.856l6.607-4.169-6.825 3.942a.5.5 0 0 1 -.52-.854l10.445-6.709-10.351 5.974a.5.5 0 0 1 -.518-.854l7.6-4.823-6.91 3.989a.5.5 0 0 1 -.521-.855l6.968-4.426-5.347 3.088a.5.5 0 0 1 -.526-.849l11.455-7.6-8.794 5.077a.5.5 0 0 1 -.529-.848l9.639-6.485-7.044 4.068a.5.5 0 0 1 -.526-.85l5.258-3.479-3.141 1.813a.5.5 0 0 1 -.536-.843l6.886-4.804-4.37 2.522a.5.5 0 0 1 -.535-.844l3.63-2.512-1.531.883a.5.5 0 0 1 -.556-.828l4.835-3.739-2.19 1.265a.5.5 0 0 1 -.552-.831l1.547-1.176a.5.5 0 0 1 -.269-.871l1.44-1.269a.486.486 0 0 1 -.114-.136.5.5 0 0 1 .182-.682l2.525-1.458a.5.5 0 0 1 .581.807l-.207.182 1.649-.951a.5.5 0 0 1 .552.831l-.894.677 1.674-.97a.5.5 0 0 1 .556.828l-4.835 3.743 5.688-3.284a.5.5 0 0 1 .535.844l-3.627 2.51 3.856-2.226a.5.5 0 0 1 .536.843l-6.891 4.812 7.275-4.2a.5.5 0 0 1 .675.17.5.5 0 0 1 -.149.68l-5.245 3.47 5.458-3.151a.5.5 0 0 1 .529.848l-9.645 6.488 10.077-5.818a.5.5 0 0 1 .526.85l-11.457 7.6 11.924-6.881a.5.5 0 0 1 .519.854l-6.965 4.42 7.165-4.136a.5.5 0 0 1 .518.855l-7.6 4.823 7.82-4.515a.5.5 0 0 1 .521.854l-10.446 6.719 10.776-6.221a.5.5 0 0 1 .517.856l-6.606 4.165 6.787-3.918a.5.5 0 0 1 .527.849l-13.55 8.967 14.089-8.138a.5.5 0 0 1 .517.855l-6.264 3.978 6.449-3.722a.5.5 0 0 1 .519.853l-5.978 3.828 6.168-3.56a.5.5 0 0 1 .521.852l-5.662 3.661 5.858-3.381a.5.5 0 0 1 .52.853l-3.152 2.023 3.262-1.883a.5.5 0 0 1 .536.842l-7.982 5.56 8.419-4.86a.5.5 0 0 1 .523.85l-1.532 1 1.6-.923a.5.5 0 0 1 .525.85l-.823.543.863-.5a.5.5 0 0 1 .537.842l-3.433 2.406 3.627-2.094a.5.5 0 0 1 .544.837l-3.055 2.23 3.154-1.82a.5.5 0 0 1 .55.833l-2.048 1.533 1.855-1.071a.5.5 0 0 1 .551.832l-.483.364a.5.5 0 0 1 .517.829l-1.258 1.22a.5.5 0 0 1 .518.243.5.5 0 0 1 -.182.682l-3.228 1.864a.5.5 0 0 1 -.6-.791l1.169-1.136-3.5 2.02a.5.5 0 0 1 -.551-.832l.427-.321-2 1.153a.5.5 0 0 1 -.55-.833l2.05-1.534-4.1 2.367a.5.5 0 0 1 -.544-.837l3.053-2.221-5.3 3.058a.5.5 0 0 1 -.537-.841l3.428-2.4-5.616 3.239a.5.5 0 0 1 -.525-.849l.827-.546-2.419 1.395a.5.5 0 0 1 -.523-.85l1.54-1.004-3.221 1.854a.5.5 0 0 1 -.535-.842l7.981-5.556-11.083 6.398a.5.5 0 0 1 -.25.071z" fill="#d84557"/><path d="m29.93 29.45a.5.5 0 0 1 -.441-.737l.818-1.519-1.807 1.044a.5.5 0 0 1 -.675-.7l.675-1.092a.5.5 0 0 1 -.425-.9l1.637-.945a.5.5 0 0 1 .675.7l-.667 1.079 1.612-.931a.5.5 0 0 1 .691.67l-.818 1.52.273-.158a.5.5 0 0 1 .5.866l-1.8 1.036a.489.489 0 0 1 -.248.067z" fill="#f0f2f5"/><path d="m30.135 21.438a.5.5 0 0 1 -.418-.775l.952-1.45-2.18 1.259a.5.5 0 0 1 -.619-.771l2-2.183-1.828 1.055a.5.5 0 0 1 -.6-.786l2.131-2.13-1.689.975a.5.5 0 0 1 -.58-.808l1.289-1.136-.831.48a.5.5 0 0 1 -.568-.818l.359-.3a.494.494 0 0 1 -.529-.169.5.5 0 0 1 .026-.654l1.6-1.716-1.086.626a.5.5 0 0 1 -.62-.769l.687-.759a.489.489 0 0 1 -.224-.2.5.5 0 0 1 .183-.682l1.84-1.063a.5.5 0 0 1 .62.769l-.226.25 1.232-.711a.5.5 0 0 1 .615.774l-1.605 1.717 2.145-1.237a.5.5 0 0 1 .567.818l-.3.246a.5.5 0 0 1 .54.829l-1.289 1.135.628-.362a.5.5 0 0 1 .6.786l-2.129 2.129 1.348-.779a.5.5 0 0 1 .619.771l-2 2.183 1.192-.688a.5.5 0 0 1 .668.707l-.976 1.487a.5.5 0 0 1 .37.918l-1.67.964a.49.49 0 0 1 -.244.068z" fill="#f0f2f5"/><g fill="#262626"><path d="m31.156 24.78a3.411 3.411 0 0 0 -3.338.954 2.154 2.154 0 0 0 -.205 2.573 2.574 2.574 0 0 0 2.8.931 2.655 2.655 0 0 0 2.314-2.432 2.169 2.169 0 0 0 -1.571-2.026zm-1.555.546h-.033.014c.037-.006.038-.005.018 0zm-.032 0h.01-.018zm.807 3.346c.032 0 .038 0 0 0zm.072 0h-.022.021zm.527-.479a1.765 1.765 0 0 1 -.164.2c-.024.025-.048.05-.073.074 0 0-.061.053-.073.065-.053.038-.213.14-.109.082l-.093.05-.029.006h-.014-.05a1.277 1.277 0 0 1 -.469-.1 1.831 1.831 0 0 1 -.819-.636 1.91 1.91 0 0 1 -.105-2.036 1.637 1.637 0 0 1 .293-.37.582.582 0 0 1 .141-.116l.086-.059c-.089.058 0 .009.056-.023-.013 0-.007 0 0 0h.012l.035-.006h-.022.056q.05 0 .1.006a.836.836 0 0 1 .219.041 1.872 1.872 0 0 1 1.02 2.815z"/><path d="m29.564 25.332h-.009-.006.028z"/><path d="m26.842 15.989c.083 1 .162 2 .249 2.992a2.413 2.413 0 0 0 2.444 2.319h.052.105s.065-.008.1-.01h.008a3.047 3.047 0 0 0 3.087-2.478c.067-.651.109-1.3.163-1.956.142-1.71.35-3.428.426-5.142.158-3.592-4.986-3.82-6.55-1.267a3.8 3.8 0 0 0 -.346 2.446zm2.458-6.649c1.214-.395 2.449.989 2.672 2.037a5.914 5.914 0 0 1 -.025 1.711l-.222 2.665q-.119 1.427-.238 2.852c-.061.742-.206 2-1.124 2.085-1.979-.087-1.862-2.521-1.981-3.944-.134-1.609-.281-3.217-.4-4.827a2.489 2.489 0 0 1 1.318-2.579z"/><path d="m13.264 58.077c.153 1.494 1.711 1.816 2.835 1.05.627-.428 1.213-.935 1.815-1.4l7.216-5.556a10.659 10.659 0 0 1 2.016-1.552 2.825 2.825 0 0 1 1-.06h7.254c4.829 0 9.679.136 14.506 0a5.853 5.853 0 0 0 5.825-5.751c.04-1.878 0-3.761 0-5.639v-16.955c0-2.435-.462-4.726-2.8-6.043-2.241-1.261-5.567-.732-8.033-.732h-2.289l-7.509-11.861-.352-.555c-.008-.014-.027-.019-.038-.031s0-.029-.009-.043a5.6 5.6 0 0 0 -7.116-1.689 6.89 6.89 0 0 0 -2.835 2.847l-6.426 10.156-.743 1.176h-6.869c-3.335 0-6.343 2.03-6.448 5.611-.134 4.572 0 9.168 0 13.741v8.191c0 2.077-.1 4.1 1.43 5.764a5.893 5.893 0 0 0 4.451 1.815c.872.009 2.978-.465 3.119.657.283 2.252-.232 4.6 0 6.859zm12.847-54.042c.772-1.221 1.605-2.477 3.2-2.656a4.414 4.414 0 0 1 4.04 2.1l11 17.384 2.484 3.926a7.622 7.622 0 0 1 1.4 3 4.163 4.163 0 0 1 -3.886 4.856c-1 .017-1.994 0-2.99 0h-23.7a9.093 9.093 0 0 1 -2.848-.213 4.643 4.643 0 0 1 -2.381-6.762c1.358-2.306 2.87-4.535 4.3-6.8l1.548-2.447a.629.629 0 0 0 .29-.459l5.218-8.254zm-14.2 45.4c-1.565 0-3.087.116-4.409-.915a4.739 4.739 0 0 1 -1.763-3.785c-.03-1.747 0-3.5 0-5.245v-16.472c0-2.055-.157-4.191 1.7-5.618a5.522 5.522 0 0 1 3.653-.839h5.786l-5.123 8.1a7.185 7.185 0 0 0 -1.464 3.482 5.051 5.051 0 0 0 4.859 5.207c2.664.151 5.373.01 8.04.01h19.393a10.287 10.287 0 0 0 3.372-.339 5.248 5.248 0 0 0 3.6-6.215 11.148 11.148 0 0 0 -1.544-2.829l-4.692-7.416h5.573a5.361 5.361 0 0 1 3.733 1.017 4.734 4.734 0 0 1 1.639 3.683c.082 4.712 0 9.434 0 14.147v7.647c0 2.034.138 4.136-1.7 5.545-1.473 1.131-3.58.839-5.333.839h-16.661c-1.249 0-3.123-.338-4.248.361-1.544.958-2.952 2.261-4.39 3.368l-6.245 4.808c-.091.07-.444.436-.564.434-.46-.007-.38-.555-.387-.862-.031-1.309 0-2.622 0-3.931a23.139 23.139 0 0 0 -.006-2.737c-.185-1.536-1.63-1.441-2.822-1.441z"/><path d="m11.721 38.42h3a1.157 1.157 0 0 0 .955-.4c.18-.286-.154-.441-.4-.441h-3a1.157 1.157 0 0 0 -.955.4c-.177.286.157.441.4.441z"/><path d="m39.3 42.647h-3a1.327 1.327 0 0 0 -.962.372c-.21.265.183.334.368.334h3a1.327 1.327 0 0 0 .962-.372c.207-.265-.186-.334-.368-.334z"/><path d="m18.932 38.515h24c.816 0 1.122-1.03.136-1.03h-24c-.816 0-1.122 1.03-.136 1.03z"/><path d="m31.934 43.524c.823 0 1.116-1.048.132-1.048h-20c-.823 0-1.116 1.048-.132 1.048z"/><path d="m46.714 38.394h1a1.511 1.511 0 0 0 .567-.115.86.86 0 0 0 .23-.127.561.561 0 0 0 .161-.146c.054-.088.093-.2 0-.284a.573.573 0 0 0 -.388-.116h-1a1.511 1.511 0 0 0 -.567.115.86.86 0 0 0 -.23.127.561.561 0 0 0 -.161.146c-.054.088-.093.2 0 .284a.573.573 0 0 0 .388.116z"/></g></svg>