<svg height="497pt" viewBox="0 -5 497.87201 497" width="497pt" xmlns="http://www.w3.org/2000/svg"><path d="m459.636719 422.457031c-1.863281-.003906-3.492188-1.257812-3.972657-3.058593-.484374-1.800782.296876-3.699219 1.90625-4.636719l26.839844-15.5c1.28125-.816407 2.902344-.859375 4.226563-.121094s2.136719 2.144531 2.117187 3.660156c-.019531 1.515625-.871094 2.898438-2.214844 3.601563l-26.863281 15.503906c-.617187.359375-1.324219.550781-2.039062.550781zm0 0" fill="#5e9cea"/><path d="m441.816406 486.367188c-1.503906 0-2.890625-.816407-3.617187-2.136719-.726563-1.316407-.679688-2.925781.125-4.199219l4.53125-7.183594-9.652344 5.574219c-1.703125.988281-3.863281.640625-5.167969-.832031-1.304687-1.472656-1.386718-3.660156-.199218-5.230469l11.980468-15.910156-20.902344 12.0625c-1.835937 1.050781-4.167968.542969-5.398437-1.175781-1.234375-1.71875-.96875-4.089844.609375-5.496094l7.21875-6.367188-11.5625 6.699219c-1.890625 1.074219-4.292969.496094-5.488281-1.324219-1.199219-1.820312-.773438-4.253906.964843-5.5625l22.164063-16.476562-28.070313 16.1875c-1.875 1.0625-4.257812.503906-5.460937-1.285156-1.207031-1.789063-.832031-4.207032.863281-5.546876l44.238282-34.507812-54.183594 31.273438c-1.914063 1.117187-4.367188.523437-5.558594-1.34375-1.195312-1.867188-.699219-4.34375 1.117188-5.609376l30.050781-21.125-36.085938 20.824219c-1.925781 1.082031-4.359375.457031-5.527343-1.417969-1.164063-1.871093-.652344-4.332031 1.164062-5.582031l14.792969-9.910156-19.042969 10.992187c-1.917969 1.050782-4.324219.421876-5.484375-1.429687-1.160156-1.855469-.675781-4.292969 1.105469-5.558594l30.003906-20.347656-35.511719 20.503906c-1.910156 1.058594-4.3125.445313-5.484375-1.394531s-.707031-4.273438 1.058594-5.558594l54.503906-37.945312-72.398437 41.738281c-1.929688 1.0625-4.355469.421875-5.511719-1.457031-1.152344-1.878906-.628906-4.328125 1.191406-5.570313l27.722656-18.054687-43.445312 25.082031c-1.933594 1.078125-4.378906.441406-5.535156-1.449219s-.617188-4.355468 1.222656-5.589844l39.640625-25.597656-56.601563 32.636719c-1.941406 1.066406-4.375.410156-5.523437-1.484375-1.144531-1.894531-.589844-4.355469 1.253906-5.578125l22.875-14.453125-37.285156 21.515625c-1.945313 1.089844-4.402344.4375-5.554687-1.472656-1.148438-1.910157-.578126-4.386719 1.292968-5.597657l29.773438-18.703124-44.644532 25.773437c-1.933593 1.097656-4.390624.46875-5.558593-1.425781-1.164063-1.894532-.621094-4.371094 1.230469-5.601563l109.601562-71.542969-136.09375 78.570313c-1.933594 1.03125-4.335938.378906-5.476562-1.496094-1.136719-1.871093-.617188-4.308593 1.191406-5.550781l117.667968-75.460938-142.914062 82.507813c-1.9375 1.082031-4.386719.4375-5.542969-1.460937-1.152343-1.898438-.597656-4.371094 1.257813-5.59375l132.425781-84.132813-157.984375 91.1875c-1.941406 1.050781-4.367188.386719-5.503906-1.503906-1.140625-1.890625-.585938-4.34375 1.25-5.566407l126.863281-79.277343-145.234375 83.867187c-1.960938 1.09375-4.429688.421875-5.566406-1.507812-1.140625-1.929688-.53125-4.414063 1.371094-5.601563l9.082031-5.523437-12.386719 7.152344c-1.960938 1.167968-4.492188.523437-5.660156-1.433594-1.167969-1.960938-.527344-4.492188 1.433594-5.660156l95.4375-58.585938-96.464844 55.679688c-1.949219 1.097656-4.421875.441406-5.570313-1.480469-1.148437-1.921875-.554687-4.410157 1.335938-5.605469l141.929687-88.089844-139.007812 80.21875c-1.941406 1.023438-4.347656.347656-5.472656-1.539062-1.121094-1.886719-.574219-4.324219 1.253906-5.546875l96.972656-59.523438-92.753906 53.535157c-1.9375 1.023437-4.335938.355468-5.464844-1.523438s-.59375-4.3125 1.222656-5.542969l147.453125-92.234375-143.210937 82.679688c-1.941406 1.035156-4.355469.367187-5.488282-1.523438-1.128906-1.886718-.578124-4.332031 1.253907-5.554687l97.203125-60.191407-92.96875 53.675782c-1.941406 1.023437-4.347656.347656-5.472656-1.539063-1.121094-1.886719-.574219-4.324219 1.253906-5.546875l50.546875-31.082031-46.328125 26.738281c-1.9375 1.066406-4.375.414063-5.523438-1.480468-1.144531-1.894532-.589844-4.355469 1.253906-5.578126l107.941407-68.378906-103.671875 59.847656c-1.9375 1.023438-4.335938.351563-5.464844-1.527343-1.128906-1.878907-.59375-4.3125 1.222656-5.542969l55.527344-34.683594-51.285156 29.605469c-1.949219 1.125-4.441406.480469-5.601563-1.449219-1.160156-1.929687-.558593-4.433594 1.351563-5.628906l40.289062-25.203125-36.039062 20.785156c-1.929688 1.0625-4.355469.421875-5.507813-1.453125-1.15625-1.878906-.628906-4.332031 1.191407-5.574218l83.695312-54.660157-79.378906 45.824219c-1.914063 1.039062-4.308594.414062-5.464844-1.429688-1.160156-1.847656-.6875-4.273437 1.082031-5.546874l84.875-57.683594-80.492187 46.46875c-1.921875 1.117187-4.382813.507812-5.566406-1.375-1.183594-1.882813-.664063-4.363282 1.175781-5.613282l61.109375-41.777343-56.71875 32.726562c-1.929688 1.082031-4.367188.449219-5.527344-1.433593-1.160156-1.878907-.636719-4.34375 1.191406-5.585938l16.0625-10.609375-11.742187 6.769531c-1.898438 1.101563-4.324219.523438-5.523438-1.3125-1.199219-1.839844-.75-4.296875 1.023438-5.589844l42.3125-30.992187-37.796875 21.832031c-1.902344 1.09375-4.328125.507813-5.519532-1.335937-1.191406-1.839844-.738281-4.292969 1.035157-5.582031l17.152343-12.386719-12.667968 7.316406c-1.835938 1.066406-4.183594.5625-5.421875-1.164063-1.242188-1.722656-.96875-4.105468.625-5.507812l23.304687-20.5625-18.507812 10.675781c-1.820313 1.058594-4.144532.574219-5.394532-1.121093-1.25-1.691407-1.023437-4.058594.523438-5.484376l6.855469-6.351562-1.984375 1.132812c-1.410156.8125-3.167969.71875-4.484375-.234374-1.320313-.957032-1.953125-2.597657-1.617188-4.191407l2.617188-12.386719c-1.492188-.558593-2.535157-1.925781-2.671875-3.515624-.136719-1.585938.652344-3.113282 2.027344-3.917969l4.128906-2.378907c1.414062-.820312 3.175781-.730468 4.5.230469 1.320312.957031 1.953125 2.605469 1.613281 4.203125l-2.214844 10.449219 25.734375-14.867187c1.820313-1.054688 4.144532-.574219 5.394532 1.121093 1.25 1.695313 1.023437 4.058594-.523438 5.488281l-6.847656 6.355469 22.4375-12.964843c1.835937-1.042969 4.164062-.539063 5.394531 1.175781 1.234375 1.714843.976563 4.082031-.597656 5.488281l-23.34375 20.589844 47.195312-27.253906c1.902344-1.089844 4.328125-.503907 5.519531 1.335937 1.195313 1.84375.738282 4.292969-1.035156 5.585937l-17.160156 12.386719 33.484375-19.308593c1.898437-1.070313 4.300781-.484376 5.488281 1.34375 1.191406 1.824218.757813 4.257812-.988281 5.5625l-42.28125 30.964843 65.570313-37.871093c1.925781-1.035157 4.320312-.394532 5.46875 1.464843 1.152343 1.859375.652343 4.289063-1.132813 5.546875l-16.121094 10.636719 30.554688-17.648437c1.921875-1.097657 4.363281-.488282 5.542969 1.382812 1.179687 1.871094.675781 4.335938-1.140626 5.597656l-61.109374 41.785156 84.472656-48.722656c1.914062-1.039062 4.308594-.414062 5.464844 1.429688 1.160156 1.847656.6875 4.273437-1.082032 5.546875l-84.777344 57.609375 111.988282-64.628906c1.933594-1.097657 4.390625-.46875 5.558594 1.425781 1.164062 1.894531.621093 4.371093-1.230469 5.601562l-83.738281 54.660157 106.894531-61.6875c1.945312-1.089844 4.402343-.4375 5.554687 1.472656s.578125 4.386718-1.292968 5.597656l-40.175782 25.136719 55.824219-32.207031c1.941406-1.050782 4.367187-.390626 5.503906 1.503906 1.140625 1.890625.585938 4.34375-1.25 5.566406l-55.621093 34.75 72.410156-41.820312c1.941406-1.109376 4.417968-.46875 5.578125 1.445312 1.160156 1.917969.582031 4.40625-1.300781 5.617188l-107.976563 68.359374 130.691406-75.421874c1.949219-1.054688 4.382813-.386719 5.515625 1.515624 1.132813 1.902344.566406 4.359376-1.285156 5.570313l-50.375 31 65.925781-38.085937c1.945313-1.070313 4.390625-.410157 5.53125 1.492187 1.144531 1.90625.574219 4.375-1.289062 5.585937l-97.179688 60.152344 113.910157-65.769531c1.953124-1.121094 4.445312-.476563 5.601562 1.453125 1.160156 1.929688.5625 4.429688-1.347656 5.625l-147.636719 92.335938 155.828125-89.957032c1.949219-1.054687 4.378906-.386718 5.515625 1.515625 1.132813 1.898438.566406 4.359375-1.285156 5.570313l-96.886719 59.457031 96.710938-55.824219c1.945312-1.070312 4.390624-.410156 5.535156 1.492188 1.140625 1.90625.570312 4.375-1.289063 5.585937l-141.914062 88.121094 138.246093-79.8125c1.945313-1.027344 4.347657-.347656 5.472657 1.539063 1.125 1.886718.574219 4.324218-1.25 5.542968l-95.308594 58.511719 91.085937-52.582031c1.964844-1.160156 4.496094-.507813 5.65625 1.453125 1.164063 1.964843.511719 4.496093-1.453124 5.660156l-9.398438 5.679687 5.195312-2.988281c1.9375-1.023437 4.339844-.351562 5.46875 1.527344 1.125 1.878906.589844 4.308594-1.222656 5.539063l-126.8125 79.261718 122.566406-70.738281c1.945313-1.109375 4.421876-.46875 5.582032 1.445313 1.160156 1.914062.582031 4.40625-1.304688 5.617187l-132.359375 84.117187 128.082031-73.953124c1.941407-1.082032 4.390626-.4375 5.542969 1.460937 1.15625 1.898437.597657 4.371094-1.257812 5.589844l-117.683594 75.472656 113.40625-65.46875c1.933594-1.066406 4.355469-.425781 5.511719 1.453125 1.152344 1.878906.628906 4.332031-1.191406 5.574219l-109.585938 71.546875 105.265625-60.769532c1.953125-1.125 4.445313-.480468 5.601563 1.449219 1.160156 1.929688.5625 4.433594-1.347657 5.625l-29.730469 18.6875 25.496094-14.714843c1.9375-1.035157 4.34375-.371094 5.480469 1.507812 1.132813 1.882812.597656 4.320312-1.222656 5.554688l-22.988281 14.5 18.710937-10.792969c1.933594-1.046875 4.347656-.402344 5.492187 1.472656 1.148438 1.875.625 4.320313-1.1875 5.5625l-39.640624 25.648437 35.355468-20.402343c1.925782-1.035157 4.328125-.386719 5.472656 1.476562 1.140626 1.867188.632813 4.300781-1.164062 5.550781l-27.695312 18.042969 23.386718-13.503906c1.914063-1.097656 4.351563-.496094 5.539063 1.367187 1.183593 1.863282.691406 4.328126-1.113281 5.59375l-54.503907 37.921876 50.042969-28.902344c1.917969-1.050782 4.324219-.425782 5.484375 1.429687 1.160156 1.851563.675781 4.289063-1.105469 5.558594l-30.054687 20.371094 25.675781-14.816407c1.925781-1.078124 4.359375-.453124 5.523438 1.421876 1.167968 1.871093.65625 4.332031-1.164063 5.582031l-14.738281 9.910156 10.378906-5.988281c1.910156-1.070313 4.320312-.46875 5.5 1.375s.714844 4.289062-1.058594 5.570312l-30.066406 21.148438 25.601562-14.789063c1.875-1.066406 4.257813-.507812 5.460938 1.285157 1.207031 1.789062.832031 4.207031-.863281 5.542968l-44.203125 34.535156 38.457031-22.203124c1.890625-1.078126 4.296875-.5 5.492187 1.320312 1.195313 1.820312.773438 4.253906-.96875 5.566406l-32.824218 24.394532c.75.292968 1.398437.792968 1.875 1.445312 1.238281 1.722656.964844 4.105469-.628906 5.507812l-7.226563 6.367188 2.4375-1.40625c1.699219-.96875 3.84375-.617188 5.140625.847656s1.390625 3.636719.21875 5.207032l-11.957031 15.914062 6.605469-3.816406c1.644531-.953125 3.726562-.65625 5.046874.710937 1.316407 1.371094 1.527344 3.464844.511719 5.070313l-4.65625 7.382812c2-.578125 4.117188.425782 4.9375 2.339844.820313 1.914062.085938 4.140625-1.710937 5.191406l-13.460938 7.777344c-.625.367188-1.339844.558594-2.0625.554688zm0 0" fill="#5e9cea"/><path d="m152.882812 273.746094c-1.867187 0-3.503906-1.253906-3.988281-3.058594s.304688-3.710938 1.921875-4.644531l219.804688-126.910157c1.925781-1.035156 4.324218-.394531 5.472656 1.460938 1.148438 1.859375.652344 4.292969-1.136719 5.550781l-76.796875 50.652344 72.460938-41.769531c1.925781-1.0625 4.347656-.429688 5.507812 1.441406 1.15625 1.871094.648438 4.320312-1.164062 5.570312l-56.730469 37.582032 52.386719-30.238282c1.929687-1.023437 4.320312-.367187 5.460937 1.496094 1.136719 1.863282.625 4.289063-1.164062 5.539063l-7.433594 4.773437 3.097656-1.785156c1.90625-1.035156 4.289063-.414062 5.453125 1.414062 1.160156 1.832032.710938 4.25-1.035156 5.539063l-43.816406 30.523437 39.4375-22.769531c1.894531-1.0625 4.289062-.472656 5.476562 1.34375 1.1875 1.816407.765625 4.242188-.964844 5.550781l-37.714843 27.78125 33.238281-19.183593c1.863281-1.054688 4.226562-.507813 5.4375 1.261719 1.210938 1.769531.871094 4.167968-.789062 5.527343l-28.40625 22.867188 23.722656-13.691407c1.871094-1.046874 4.230468-.492187 5.433594 1.28125 1.207031 1.769532.855468 4.167969-.808594 5.523438l-7.148438 5.671875 2.523438-1.445313c1.691406-.96875 3.832031-.621093 5.128906.832032 1.300781 1.453125 1.40625 3.613281.257812 5.1875l-9.6875 13.15625c1.992188-.496094 4.050782.546875 4.824219 2.449218.773438 1.90625.03125 4.085938-1.742187 5.121094l-15.890625 9.175782c-1.691407.976562-3.835938.636718-5.140625-.820313-1.304688-1.453125-1.40625-3.625-.25-5.199219l9.496094-12.832031-33.859376 19.511719c-1.871093 1.066406-4.246093.519531-5.457031-1.261719-1.210937-1.78125-.851562-4.191406.824219-5.542969l7.136719-5.65625-21.621094 12.394532c-1.867187 1.058593-4.226563.507812-5.4375-1.257813-1.210937-1.769531-.871094-4.171875.789063-5.527344l28.339843-22.808593-51.273437 29.59375c-1.894532 1.0625-4.285156.476562-5.472656-1.339844-1.191407-1.816406-.765626-4.246094.964843-5.554688l37.738281-27.78125-60.078124 34.6875c-1.90625 1.054688-4.308594.445313-5.480469-1.398437-1.171875-1.839844-.710938-4.273438 1.054687-5.554688l43.875-30.558593-64.914062 37.476562c-1.933594 1.046875-4.347656.402344-5.496094-1.472656-1.144531-1.875-.621094-4.320313 1.191406-5.5625l7.433594-4.804688-20.53125 11.839844c-1.925781 1.0625-4.347656.429688-5.503906-1.441406-1.160156-1.867188-.648438-4.316406 1.160156-5.570313l56.667969-37.589843-77.28125 44.59375c-1.925781 1.0625-4.34375.429687-5.503907-1.441407-1.160156-1.867187-.648437-4.320312 1.160157-5.570312l76.792969-50.539063-99.921876 57.648438c-.617187.359375-1.316406.554687-2.03125.5625zm0 0" fill="#9ed26a"/><path d="m49.507812 339.363281c-1.84375 0-3.464843-1.222656-3.96875-2.996093-.503906-1.777344.230469-3.667969 1.796876-4.640626l92.878906-57.46875-95.304688 55.015626c-1.945312 1.039062-4.359375.367187-5.488281-1.519532-1.132813-1.890625-.582031-4.335937 1.25-5.558594l112.308594-69.78125-108.179688 62.441407c-1.910156.839843-4.148437.117187-5.210937-1.675781-1.066406-1.796876-.621094-4.105469 1.03125-5.375l63.035156-38.65625-58.855469 33.945312c-1.945312 1.058594-4.378906.390625-5.515625-1.511719-1.132812-1.902343-.566406-4.359375 1.289063-5.570312l79.910156-49.1875-75.742187 43.769531c-1.957032 1.167969-4.492188.523438-5.660157-1.433594-1.167969-1.957031-.527343-4.492187 1.433594-5.660156l66.128906-40.574219-61.933593 35.765625c-1.953126 1.082032-4.40625.414063-5.546876-1.5-1.140624-1.917968-.554687-4.390625 1.324219-5.59375l49.816407-30.453125-55.074219 31.792969c-1.9375 1.023438-4.339844.351562-5.464844-1.527344-1.128906-1.878906-.59375-4.3125 1.21875-5.542968l139.066406-86.957032-150.914062 87.125c-1.949219 1.054688-4.382813.386719-5.515625-1.515625-1.136719-1.902343-.566406-4.359375 1.285156-5.570312l110.558594-68.136719-112.175782 64.757812c-1.9375 1.035157-4.347656.371094-5.480468-1.507812-1.136719-1.878906-.601563-4.320312 1.21875-5.550781l178.457031-112.386719-175.601563 101.375c-1.941406 1.011719-4.339843.328125-5.457031-1.554688-1.117187-1.886718-.566406-4.316406 1.253907-5.539062l52.375-31.882812-48.171876 27.804687c-1.941406 1.039063-4.355468.367187-5.488281-1.519531-1.128906-1.890625-.578125-4.335938 1.253907-5.558594l125.363281-77.773438-121.128907 69.929688c-1.957031 1.171875-4.492187.535156-5.664062-1.421875-1.171875-1.953125-.535156-4.492187 1.421875-5.664063l113.613281-70.761718-109.371094 63.171875c-1.941406 1.027343-4.347656.347656-5.472656-1.539063-1.121094-1.886718-.570312-4.324218 1.253906-5.546875l44.113282-27.085937-39.894532 23.023437c-1.945312 1.089844-4.402343.441407-5.554687-1.46875-1.148437-1.910156-.578125-4.386719 1.296875-5.597656l102.695312-64.828125-98.4375 56.824219c-1.949218 1.125-4.441406.480469-5.601562-1.449219s-.558594-4.433594 1.351562-5.628906l66.351563-41.609375-62.082031 35.839843c-1.941406 1.050782-4.367188.390626-5.507813-1.503906-1.136719-1.890625-.585937-4.34375 1.253907-5.566406l49.738281-31.28125-45.511719 26.269531c-1.929688 1.078125-4.367188.445313-5.527344-1.433593-1.160156-1.882813-.636718-4.34375 1.191406-5.585938l90.765626-59.878906-86.429688 49.917968c-1.914062 1.066407-4.332031.449219-5.5-1.40625-1.167969-1.855468-.683594-4.304687 1.109375-5.570312l84.097656-57.433594-79.707031 46.027344c-1.925781 1.117188-4.394531.503906-5.574219-1.386719-1.179687-1.890625-.644531-4.375 1.207031-5.613281l50.785157-34.191406-46.417969 26.78125c-1.933594 1.101562-4.390625.472656-5.554688-1.421875-1.167968-1.894531-.625-4.371094 1.226563-5.605469l13.339844-8.777344-9.011719 5.203125c-1.886719 1.058594-4.269531.480469-5.464844-1.324219-1.191406-1.804687-.789062-4.226562.925782-5.546874l46.472656-34.964844-41.933594 24.203125c-1.855469 1.074219-4.226562.542969-5.453125-1.21875-1.222656-1.757813-.894531-4.164063.753906-5.535157l32.597657-27.019531-27.898438 16.09375c-1.835938 1.050781-4.175781.542969-5.40625-1.179687-1.234375-1.722656-.960938-4.097656.625-5.5l14.492188-12.652344-9.710938 5.597656c-1.726562.992188-3.910156.613282-5.199219-.902344-1.292969-1.515624-1.316406-3.738281-.058593-5.28125l8.304687-10.183593c-1.816406-.109375-3.347656-1.398438-3.769531-3.171875-.417969-1.773438.375-3.609375 1.953125-4.523438l15.964843-9.214844c1.726563-1.011718 3.929688-.640624 5.226563.882813 1.300781 1.519531 1.320313 3.757813.050781 5.300781l-7.101562 8.703125 26.917968-15.515625c1.839844-1.070312 4.191407-.5625 5.429688 1.164063 1.242188 1.730469.964844 4.117187-.636719 5.515625l-14.511719 12.628906 33.488282-19.308594c1.855468-1.066406 4.21875-.539062 5.441406 1.21875 1.226562 1.753906.90625 4.15625-.734375 5.527344l-32.605469 27.011719 58.519532-33.757813c1.886718-1.082031 4.292968-.511718 5.492187 1.304688 1.203125 1.8125.789063 4.25-.945313 5.566406l-46.472656 34.941406 72.460938-41.8125c1.929687-1.046875 4.339844-.40625 5.488281 1.460938 1.152344 1.867187.644531 4.308594-1.160156 5.558594l-13.277344 8.722656 27.316406-15.742188c1.921875-1.0625 4.339844-.4375 5.503907 1.425782 1.164062 1.863281.664062 4.308593-1.136719 5.570312l-50.761719 34.171875 71.359375-41.167969c1.917969-1.066406 4.332031-.445312 5.5 1.410156 1.167969 1.855469.683594 4.300782-1.105469 5.570313l-84.109375 57.375 111.515625-64.355469c1.925782-1.0625 4.347656-.429687 5.507813 1.441406 1.15625 1.871094.644531 4.320313-1.164063 5.570313l-90.765625 59.878906 115.871094-66.890625c1.933594-1.007812 4.320313-.339844 5.445313 1.53125 1.128906 1.867188.605468 4.292969-1.191407 5.53125l-49.789062 31.28125 66.460937-38.34375c1.941406-1.050781 4.367188-.390625 5.503906 1.503906 1.140626 1.890626.585938 4.34375-1.25 5.566407l-66.253906 41.539062 84.246094-48.609375c1.941406-1.066406 4.378906-.414062 5.523438 1.480469 1.144531 1.898437.59375 4.359375-1.253907 5.582031l-102.695312 64.78125 124.546875-71.84375c1.945312-1.054687 4.378906-.386718 5.515625 1.515625 1.132812 1.898438.566406 4.359375-1.289063 5.570313l-44.054687 27.019531 59.128906-34.105469c1.949219-1.125 4.441406-.480468 5.601563 1.449219 1.160156 1.929687.558593 4.433594-1.351563 5.628906l-113.769531 70.796875 131.957031-76.171875c1.945313-1.074219 4.386719-.414062 5.53125 1.492188 1.140625 1.902343.574219 4.371093-1.289063 5.582031l-125.308593 77.734375 131.949219-76.171875c1.945312-1.042969 4.367187-.367188 5.496093 1.535156 1.128907 1.898438.5625 4.347656-1.285156 5.558594l-52.480469 31.941406 52.234375-30.148437c1.9375-1.035157 4.34375-.375 5.480469 1.507812 1.132812 1.878907.597656 4.320313-1.222656 5.550781l-178.429688 112.382813 175.234375-101.175781c1.960938-1.167969 4.5-.523438 5.667969 1.4375 1.164062 1.960937.523438 4.496094-1.4375 5.664062l-110.660156 68.179688 106.429687-61.449219c1.945313-1.070313 4.390625-.410156 5.535157 1.492187 1.140624 1.90625.574218 4.375-1.289063 5.585938l-139.015625 86.890625 134.769531-77.816406c1.949219-1.039063 4.371094-.363281 5.496094 1.535156 1.128906 1.898437.5625 4.347656-1.28125 5.558594l-49.730469 30.40625 45.515625-26.277344c1.945313-1.023437 4.351563-.347656 5.472657 1.539063 1.125 1.890624.574218 4.324218-1.25 5.546874l-66.222657 40.628907 62-35.789063c1.953125-1.078125 4.40625-.414062 5.546875 1.503906 1.140625 1.914063.554688 4.390626-1.324218 5.589844l-79.742188 49.078125 75.519531-43.570312c1.945313-1.023438 4.351563-.347657 5.472657 1.539062 1.125 1.886719.574218 4.324219-1.25 5.546875l-63.242188 38.746094 59.027344-34.074219c1.953125-1.097656 4.421875-.441406 5.574218 1.480469 1.148438 1.921875.554688 4.40625-1.335937 5.605469l-112.375 69.804687 108.136719-62.429687c1.949218-1.054688 4.382812-.386719 5.515625 1.515625 1.132812 1.898437.566406 4.359375-1.285157 5.570312l-294.699218 182.347656c-.324219.9375-.980469 1.726563-1.839844 2.21875l-26.738281 15.453126c-.628907.367187-1.339844.5625-2.066407.558593zm0 0" fill="#9ed26a"/><path d="m217.875 125.058594c-1.871094 0-3.507812-1.253906-3.988281-3.058594-.484375-1.804688.304687-3.710938 1.921875-4.644531l39.191406-22.609375c1.546875-.890625 3.492188-.6875 4.820312.503906 1.328126 1.195312 1.738282 3.105469 1.019532 4.738281l-5.078125 11.511719c1.671875-.222656 3.316406.574219 4.179687 2.023438.546875.949218.699219 2.078124.414063 3.136718-.28125 1.0625-.976563 1.964844-1.925781 2.511719l-9.273438 5.34375c-1.546875.890625-3.492188.6875-4.820312-.507813-1.328126-1.191406-1.738282-3.101562-1.019532-4.738281l4.871094-11.054687-28.25 16.257812c-.625.375-1.335938.578125-2.0625.585938zm0 0" fill="#f4f6f8"/><path d="m197.542969 174.601562c-1.003907 0-1.976563-.367187-2.726563-1.035156-1.332031-1.167968-1.769531-3.054687-1.089844-4.6875l5.285157-12.667968-21.296875 12.285156c-1.753906 1.003906-3.972656.59375-5.25-.96875-1.277344-1.566406-1.234375-3.824219.097656-5.339844l15.085938-17.003906-10.609376 6.128906c-1.894531 1.089844-4.308593.519531-5.511718-1.300781-1.203125-1.824219-.777344-4.265625.96875-5.578125l22.417968-16.78125-17.875 10.324218c-1.878906 1.066407-4.257812.503907-5.464843-1.285156-1.207031-1.789062-.828125-4.207031.863281-5.546875l12.046875-9.386719-9.90625 5.695313c-1.789063.972656-4.019531.496094-5.253906-1.117187-1.234375-1.617188-1.109375-3.894532.296875-5.363282l15.847656-15.929687-33.675781 19.429687c-1.886719 1.097656-4.304688.539063-5.515625-1.28125-1.207032-1.816406-.792969-4.261718.949218-5.582031l5.78125-4.382813-18.855468 10.875c-1.765625 1.015626-4.007813.589844-5.28125-1.003906-1.269532-1.589844-1.191406-3.871094.1875-5.371094l11.253906-12.15625-12.824219 7.433594c-1.566406.894532-3.53125.667969-4.851562-.554687-1.324219-1.226563-1.699219-3.167969-.929688-4.796875l4.660157-9.785156c-1.558594.125-3.046876-.683594-3.792969-2.058594-.550781-.949219-.699219-2.078125-.414063-3.136719.28125-1.058594.976563-1.960937 1.925782-2.511719l9.273437-5.339844c1.566406-.894531 3.53125-.671874 4.855469.554688 1.320312 1.222656 1.699218 3.164062.925781 4.792969l-4.300781 9.085937 24.972656-14.417968c1.765625-1.027344 4.015625-.605469 5.292969.988281 1.277343 1.597656 1.195312 3.886719-.191407 5.386719l-11.253906 12.15625 51.800782-29.929688c1.886718-1.070312 4.28125-.503906 5.484374 1.304688 1.199219 1.808593.796876 4.238281-.925781 5.558593l-5.78125 4.359375 4.074219-2.34375c1.789062-1.03125 4.070312-.582031 5.332031 1.054688 1.261719 1.640625 1.117188 3.957031-.335937 5.429687l-15.875 15.929688 34.542968-19.894531c1.878907-1.066407 4.257813-.507813 5.464844 1.28125 1.207032 1.792968.828125 4.207031-.863281 5.546874l-12.039063 9.355469 26.308594-15.183593c1.890625-1.09375 4.304688-.523438 5.511719 1.300781 1.203125 1.820312.777344 4.265625-.96875 5.578125l-44.644531 33.410156.125.125c1.285156 1.570312 1.234375 3.84375-.117188 5.359375l-15.101562 17.003906 9.808594-5.648437c1.53125-.890625 3.457031-.703125 4.789062.460937 1.335938 1.167969 1.777344 3.0625 1.089844 4.699219l-5.414063 12.964844c1.992188-.449219 4.015625.625 4.757813 2.53125.742187 1.910156-.027344 4.070312-1.804688 5.082031l-9.273437 5.34375c-.628907.359375-1.339844.550781-2.0625.554687zm0 0" fill="#f4f6f8"/><path d="m174.1875 86.992188c-1.71875 0-3.253906-1.0625-3.863281-2.671876-.609375-1.605468-.15625-3.417968 1.128906-4.554687l3.933594-3.484375c-1.398438.152344-2.777344-.429688-3.644531-1.539062-1.273438-1.601563-1.175782-3.898438.226562-5.390626l10.246094-10.894531-5.175782 2.992188c-1.59375.910156-3.59375.664062-4.917968-.605469-1.320313-1.269531-1.644532-3.261719-.796875-4.886719l4.003906-7.632812c-1.800781-.144531-3.300781-1.449219-3.691406-3.214844-.394531-1.765625.40625-3.578125 1.972656-4.480469l9.316406-5.367187c1.59375-.921875 3.605469-.679688 4.933594.59375 1.328125 1.277343 1.648437 3.277343.789063 4.90625l-3.371094 6.390625 17.128906-9.910156c1.773438-1.011719 4.019531-.578126 5.289062 1.019531 1.265626 1.601562 1.175782 3.890625-.21875 5.382812l-10.265624 10.941407 8.257812-4.765626c1.839844-1.066406 4.183594-.5625 5.425781 1.160157 1.238281 1.726562.96875 4.109375-.625 5.511719l-3.460937 3.054687c1.707031-.285156 3.417968.507813 4.300781 2 1.140625 1.972656.46875 4.496094-1.503906 5.640625l-33.335938 19.25c-.632812.367188-1.351562.558594-2.082031.554688zm0 0" fill="#f4f6f8"/><g fill="#262626"><path d="m157.101562 124.910156c24.832032 5.003906 1.105469 32.332032 14.929688 46.164063 7.203125 7.199219 32.679688 5.507812 38.9375-2.476563 5.898438-7.492187 2.609375-21.941406 2.808594-30.464844.140625-5.996093-1.1875-10.785156 3.445312-13.253906 5.945313-.992187 12.019532-.992187 17.96875 0 22.632813 0 27.992188-6.0625 28.078125-28.472656.21875-.53125.21875-1.125 0-1.652344-8.835937-21.339844-34.535156-.554687-46.816406-13.4375-12.066406-12.660156 8.730469-38.976562-13.386719-46.300781-12.140625-4.023437-30.941406-.4375-34.371094 12.898437-2.34375 9.082032 2.332032 20.015626 0 29.132813-1.648437 6.605469-.140624 5.1875-5.292968 7.308594-6.847656.957031-13.796875.957031-20.644532 0-17.277343.511719-25.78125 6.484375-23.640624 25.394531 2.597656 22.527344 21.757812 11.890625 37.984374 15.160156zm-25.90625-27.441406c3.304688-7.523438 2.5625-5.589844 11.636719-5.589844 8.167969.855469 16.410157.738282 24.550781-.347656 23.777344-6.152344 6.070313-27.84375 13.363282-43.148438 6.027344-12.667968 18.390625-5.613281 21.007812 6.246094 1.816406 8.207032-2.792968 18.992188 0 26.851563 8.042969 22.523437 41.894532-1.898438 49.546875 16.519531.140625 12.832031 2.859375 19.4375-11.660156 19.4375-8.167969-.855469-16.410156-.738281-24.550781.347656-22.238282 5.78125-8.257813 26.359375-13.359375 41.894532-4.660157 14.203124-18.269531 7.429687-21.011719-4.957032-1.816406-8.207031 2.792969-18.953125 0-26.855468-7.613281-21.304688-34.953125-1.453126-46.8125-13.832032-3.375-4.824218-4.371094-10.917968-2.710938-16.566406zm0 0"/><path d="m485.871094 157.878906c-11.816406-11.792968-32.652344-8.257812-47.597656-8.257812h-59.367188v-120.890625c-8.226562-40.761719-81.953125-25.492188-111.914062-25.492188h-195.527344c-27.515625 0-62.460938-5.351562-67.871094 30.265625-8.085938 53.179688 0 113.84375 0 167.636719 0 16.335937-6.121094 50.457031 7.265625 63.753906 12.972656 12.882813 34.3125 2.832031 42.273437 24.839844 5.542969 15.335937-4.589843 31.976563 4.433594 46.804687.621094 1.015626 2.394532.71875 3.355469.664063 22.296875-1.355469 40.347656-16.261719 58.183594-31.628906v52.363281c0 13.867188-3.707031 34.898438 2.5625 48.128906 13.304687 28.035156 69.203125 17.027344 92.703125 17.027344 35.046875 0 87.769531-10.058594 120.46875 3.667969 32.957031 13.824219 61.109375 59.160156 97.695312 61.371093 3.101563.390626 6.144532-1.078124 7.769532-3.746093 14.691406-24.117188-6.605469-44.894531 22.988281-61.292969 16.707031-9.265625 27.460937-7.664062 31.324219-30.191406 7.070312-41.183594 0-89.808594 0-131.5 0-24.554688 11.503906-83.324219-8.746094-103.523438zm-404.453125 166.828125c-11.15625 5.085938-9.011719 13.4375-16.351563 1.3125-3.816406-6.300781.453125-24.136719 0-31.535156-1.4375-23.125-5.78125-18.285156-23.253906-26.988281-30.925781-15.425782-26.292969-22.703125-26.292969-50.835938v-154.210937c0-11.480469-3.785156-32.085938 1.855469-42.859375 8.753906-16.648438 28.640625-11.710938 43.613281-11.710938h171.203125c29.183594 0 126.53125-16.671875 134.757813 24.054688v119.742187c0 27.070313 13.988281 105.703125-18.996094 115.84375-15.847656 4.847657-40.25 0-56.832031 0h-84.230469c-26.625 0-41.925781-.585937-64.207031 14.863281-4.847656 3.355469-9.792969 7.105469-14.824219 10.976563-3.597656-.898437-8.753906 1.007813-8.753906 4.730469v2.03125c-11.617188 9.558594-24.257813 17.804687-37.6875 24.585937zm374.527343 89.1875c-29.398437 16.285157-15.386718 22.132813-23.066406 53.050781-4.035156 16.265626-5.359375 10.453126-18.894531 1.097657l-47.40625-32.785157c-14.527344-10.042968-25.140625-19.324218-42.6875-21.363281-30.019531-3.492187-62.546875 0-92.738281 0-27.589844 0-89.144532 13.210938-99.921875-22.636719-7.9375-26.375 0-66.171874 0-93.960937-.011719-.597656-.160157-1.183594-.429688-1.714844 11.402344-10.683593 25.050781-18.679687 39.945313-23.40625 23.460937-5.871093 56.640625 0 80.628906 0 29.257812 0 59.507812 2.246094 88.703125 0 43.3125-3.300781 38.8125-35.253906 38.8125-70.300781v-43.246094c24.773437-.917968 56.640625-6.257812 78.90625.183594 33.203125 9.609375 24.648437 45.789062 24.648437 72.667969v114.128906c.015626 35.1875 7.316407 49.523437-26.46875 68.242187zm0 0"/><path d="m263.09375 206.574219h49.550781c3.765625 0 12.921875-5.648438 4.953125-5.648438h-49.546875c-3.765625 0-12.925781 5.648438-4.957031 5.648438zm0 0"/><path d="m230.0625 206.484375c3.648438 0 12.957031-5.464844 5.003906-5.464844h-165.210937c-3.648438 0-12.957031 5.464844-5.003907 5.464844zm0 0"/><path d="m191.726562 232.199219h-8.257812c-6.976562 0-9.082031 9.167969-.957031 9.167969h8.257812c6.980469 0 9.058594-9.167969.957031-9.167969zm0 0"/><path d="m150.527344 232.539062h-82.578125c-6.730469 0-9.273438 8.488282-1.140625 8.488282h82.582031c6.730469 0 9.273437-8.488282 1.136719-8.488282zm0 0"/><path d="m431.253906 339.726562h-49.546875c-6.847656 0-9.167969 8.820313-1.042969 8.820313h49.550782c6.84375 0 9.164062-8.820313 1.039062-8.820313zm0 0"/><path d="m185.46875 341.421875c-3.632812 0-12.964844 5.433594-5.019531 5.433594h165.160156c3.632813 0 12.964844-5.433594 5.019531-5.433594zm0 0"/><path d="m302.535156 374.933594c-2.964844-.011719-5.882812.761718-8.457031 2.238281-1.773437 1.128906-1.808594 2.210937.59375 2.210937h8.257813c2.964843.019532 5.882812-.746093 8.457031-2.210937 1.777343-1.132813 1.808593-2.214844-.59375-2.214844zm0 0"/><path d="m269.429688 374.628906h-82.582032c-2.675781 0-13.585937 5.085938-7.710937 5.085938h82.578125c2.675781 0 13.585937-5.085938 7.714844-5.085938zm0 0"/><path d="m296.234375 314.34375h8.257813c2.992187.175781 5.90625-1.015625 7.917968-3.238281 1.414063-2.335938-1.210937-3.300781-3.179687-3.300781h-8.257813c-2.988281-.183594-5.898437.992187-7.917968 3.203124-1.410157 2.402344 1.214843 3.335938 3.179687 3.335938zm0 0"/><path d="m263.09375 314.03125c3.90625 0 12.890625-5.847656 4.90625-5.847656h-82.582031c-3.90625 0-12.890625 5.847656-4.902344 5.847656zm0 0"/><path d="m434.621094 308.6875h-90.835938c-2.527344 0-13.527344 4.839844-7.78125 4.839844h90.839844c2.527344 0 13.527344-4.839844 7.777344-4.839844zm0 0"/></g></svg>