<svg height="512" viewBox="0 0 61 60" width="512" xmlns="http://www.w3.org/2000/svg"><g id="003---Code-Conversation" fill="none"><path id="Path" d="m55.226 53.471c-.226294-.00001-.4243705-.1520058-.4829405-.3705888-.0585699-.2185831.0369699-.4492542.2329405-.5624112l4.745-2.738c.2032855-.1176484.4610547-.0779441.6195147.0954241.15846.1733683.1748892.4336595.0394853.6255759l-.706 1c.2255547.001802.4219749.1544.4794824.3725078.0575076.2181079-.0381386.4477138-.2334824.5604922l-1.619.935c-.2032855.1176484-.4610547.0779441-.6195147-.0954241-.15846-.1733683-.1748892-.4336595-.0394853-.6255759l.612-.868-2.778 1.6c-.0756184.0452887-.1618652.0697828-.25.071z" fill="#896fdc"/><path id="Path" d="m51.4 59.289c-.1926784.0026781-.3697481-.1056056-.4551553-.2783416-.0854072-.1727361-.06395-.3791789.0551553-.5306584l.977-1.246-1.872 1.081c-.2189627.1248229-.4965995.0671571-.6477436-.1345378-.1511442-.2016949-.1285371-.4843546.0527436-.6594622l1.119-1.069-1.73 1c-.2328603.1351428-.5309189.0616362-.6742423-.1662803-.1433233-.2279164-.080443-.5283964.1422423-.6797197l.4-.27-.787.454c-.2280542.1290416-.517047.0601323-.6623353-.1579314-.1452882-.2180638-.0975826-.5113034.1093353-.6720686l6.021-4.59-7.218 4.164c-.2296891.1296297-.5205695.0585592-.6646041-.1623819s-.0916869-.5157667.1196041-.6736181l6.609-4.846-7.749 4.473c-.2310609.1298083-.523268.0567757-.6660866-.1664779-.1428185-.2232536-.086628-.5191613.1280866-.6745221l6.7-4.729-8.061 4.654c-.232192.1378754-.5319082.0664712-.6769921-.1612862-.1450839-.2277573-.0831069-.529564.1399921-.6817138l8.01-5.589-11.13 6.423c-.2338963.1269547-.5262491.04845-.6650871-.1785941-.1388379-.227044-.0755015-.5230536.1440871-.6734059l4.761-3.082-6.818 3.934c-.2334572.1253051-.5241289.0467367-.6626677-.1791186-.1385388-.2258554-.0768365-.5205686.1406677-.6718814l8.211-5.343-10.739 6.194c-.233204.1287421-.5263939.0520483-.6666872-.1743946-.1402933-.226443-.0784231-.5231151.1406872-.6746054l13.436-8.911-16.908 9.76c-.2353357.1240261-.5265799.04207-.6626998-.1864836-.1361199-.2285535-.0694507-.5236725.1516998-.6715164l.581-.357-2.108 1.215c-.2350866.127347-.5287583.0472199-.6665908-.1818764-.1378325-.2290964-.071048-.5260868.1515908-.6741236l10.3-6.475-12.696 7.331c-.2357179.1278172-.530297.0469384-.667702-.1833224-.137405-.2302607-.0687118-.5279174.155702-.6746776l5.043-3.1-5.945 3.434c-.2356087.1297647-.5316571.04988-.6700067-.1807924-.1383496-.2306723-.0694166-.5294607.1560067-.6762076l11.29-7.019-11.449 6.61c-.2356087.1297647-.5316571.04988-.6700067-.1807924-.1383496-.2306723-.0694166-.5294607.1560067-.6762076l11.321-7.027-10.854 6.262c-.2356087.1297647-.5316571.04988-.6700067-.1807924-.1383496-.2306723-.0694166-.5294607.1560067-.6762076l12.758-7.951-12.244 7.069c-.2352087.125628-.5276152.0445694-.664573-.1842276-.1369579-.228797-.070267-.5248112.151573-.6727724l10.809-6.7-10.3 5.944c-.2361735.1361818-.537908.0580681-.6783318-.1756081-.1404239-.2336761-.0677709-.5367718.1633318-.6813919l13.761-8.639-13.243 7.643c-.2343611.1288923-.5286543.0505227-.6678755-.1778537-.1392213-.2283764-.0740613-.5258734.1478755-.6751463l15.63-10.053-15.11 8.723c-.2347713.1336383-.5332399.0566316-.6740509-.1739091-.1408109-.2305408-.0730402-.5312411.1530509-.6790909l12.95-8.374-12.429 7.175c-.2342478.1308833-.5300435.0535271-.6702262-.1752769s-.074765-.527467.1482262-.6767231l10.643-6.936-10.121 5.84c-.2322377.1273115-.5234633.0514462-.664069-.1729923-.1406056-.2244384-.0818101-.5195841.134069-.6730077l10.733-7.254-10.2 5.891c-.2318603.1330617-.527371.0602043-.6708066-.1653857-.1434357-.22559-.0840493-.5240996.1348066-.6776143l8.994-6.283-8.458 4.883c-.2301828.1290216-.5210052.0569569-.6643125-.1646141-.1433073-.2215711-.0897614-.5163656.1223125-.6733859l6.742-4.849-6.2 3.579c-.2312043.1356861-.5282776.0648879-.6734329-.160492-.1451554-.2253799-.0867349-.525133.1324329-.679508l3.588-2.561-3.05 1.761c-.2300482.1308569-.5222207.059778-.6664488-.1621318-.1442281-.2219099-.0905463-.5177734.1224488-.6748682l1.87-1.361-1.326.765c-.227731.1281621-.5157443.059345-.6609391-.1579231-.1451949-.217268-.0985947-.509699.1069391-.6710769l1.134-.872-.58.335c-.2208953.136633-.509623.0813788-.6644625-.1271591-.1548394-.208538-.1242214-.5009064.0704625-.6728409l1.3-1.229-.7.4c-.206692.119093-.468728.0755884-.6258468-.1039065-.1571188-.1794948-.1655567-.4449837-.0201532-.6340935l.59-.768c-.2036011-.0415104-.3603083-.2046179-.3936397-.4097167-.0333313-.2050989.0636612-.409436.2436397-.5132833l1.627-.94c.206747-.1202771.4697217-.0772839.6274005.1025723.1576788.1798563.165894.4461955.0195995.6354277l-.389.506 2.172-1.247c.2208953-.136633.509623-.0813788.6644625.1271591.1548394.208538.1242214.5009064-.0704625.6728409l-1.3 1.229 3.512-2.029c.2279124-.1308241.5182022-.0628918.6643976.1554793.1461953.2183711.0983971.512647-.1093976.6735207l-1.138.874 2.951-1.7c.2300482-.1308569.5222207-.059778.6664488.1621318.1442281.2219099.0905463.5177734-.1224488.6748682l-1.871 1.36 3.808-2.2c.2312043-.1356861.5282776-.0648879.6734329.160492.1451554.2253799.0867349.525133-.1324329.679508l-3.59 2.56 5.9-3.4c.2308022-.1338179.5260112-.0628564.670779.1612399s.0880924.5223777-.128779.6777601l-6.744 4.843 9.848-5.682c.2318603-.1330617.527371-.0602043.6708066.1653857.1434357.22559.0840493.5240996-.1348066.6776143l-8.995 6.284 12.343-7.127c.2329673-.1327691.5291919-.0581284.6714287.1691822.1422368.2273105.0798406.5263539-.1414287.6778178l-10.735 7.253 14.042-8.1c.2342478-.1308833.5300435-.0535271.6702262.1752769s.074765.527467-.1482262.6767231l-10.651 6.935 13.494-7.787c.2355494-.1441463.5433537-.0700494.6875.1655s.0700494.5433537-.1655.6875l-12.946 8.367 15.978-9.22c.2343611-.1288923.5286543-.0505227.6678755.1778537.1392213.2283764.0740613.5258734-.1478755.6751463l-15.627 10.047 18.579-10.727c.2355125-.13196.5332497-.0531389.6726204.1780652.1393708.2312042.0700423.5312938-.1566204.6779348l-13.77 8.645 14.406-8.316c.2362075-.133071.5354329-.0536509.6745599.1790411.1391271.2326919.0674613.5338687-.1615599.6789589l-10.785 6.69 10.44-6.028c.2356087-.1297647.5316571-.04988.6700067.1807924.1383496.2306723.0694166.5294607-.1560067.6762076l-12.765 7.956 12.251-7.073c.2362075-.133071.5354329-.0536509.6745599.1790411.1391271.2326919.0674613.5338687-.1615599.6789589l-11.316 7.024 10.8-6.238c.2362075-.133071.5354329-.0536509.6745599.1790411.1391271.2326919.0674613.5338687-.1615599.6789589l-11.306 7.035 10.8-6.234c.2374824-.1411087.5443912-.0629824.6855.1745.1411087.2374824.0629824.5443912-.1745.6855l-5.035 3.094 4.521-2.61c.2361735-.1361818.537908-.0580681.6783318.1756081.1404239.2336761.0677709.5367718-.1633318.6813919l-10.315 6.478 9.8-5.657c.2353357-.1240261.5265799-.04207.6626998.1864836.1361199.2285535.0694507.5236725-.1516998.6715164l-.558.344.047-.026c.233204-.1287421.5263939-.0520483.6666872.1743946.1402933.226443.0784231.5231151-.1406872.6746054l-13.432 8.913 12.906-7.451c.2342478-.1308833.5300435-.0535271.6702262.1752769s.074765.527467-.1482262.6767231l-8.215 5.35 7.693-4.44c.2347713-.1336383.5332399-.0566316.6740509.1739091.1408109.2305408.0730402.5312411-.1530509.6790909l-4.759 3.081 4.238-2.447c.2318603-.1330617.527371-.0602043.6708066.1653857.1434357.22559.0840493.5240996-.1348066.6776143l-8.012 5.591 7.476-4.313c.2310609-.1298083.523268-.0567757.6660866.1664779.1428185.2232536.086628.5191613-.1280866.6745221l-6.7 4.727 6.159-3.556c.2299138-.1328235.5235501-.0627731.6687427.1595365s.0912979.5193359-.1227427.6764635l-6.612 4.848 6.066-3.5c.227871-.1265147.5147039-.056766.6590373.1602571s.0977476.5085154-.1070373.6697429l-6.019 4.589 5.467-3.157c.2328603-.1351428.5309189-.0616362.6742423.1662803.1433233.2279164.080443.5283964-.1422423.6797197l-5.834 3.985c.1170005.1998827.081414.4539539-.086.614l-1.118 1.068.506-.292c.2072709-.1186494.4695147-.0741485.6260418.106235.156527.1803835.1636307.4462813.0169582.634765l-.977 1.246.229-.132c.1549945-.0985297.351531-.1041539.5119064-.0146489.1603754.0895049.2587712.2597296.2562855.4433739s-.1054527.3511436-.2681919.436275l-2.47 1.427c-.074224.0415737-.1579265.0632744-.243.063z" fill="#896fdc"/><path id="Path" d="m19.621 31.475c-.2269914.0007823-.4260281-.1514415-.4847202-.3707152-.0586921-.2192736.0376892-.4505707.2347202-.5632848l20.35-11.749c.2348642-.1312813.531504-.0531604.6712412.1767732.1397372.2299337.0724576.5292187-.1522412.6772268l-.448.289c.2364861-.0885612.5018876.0131138.6186709.237012.1167832.2238983.0482866.4997314-.1596709.642988l-4.123 2.795 3.593-2.074c.2318603-.1330617.527371-.0602043.6708066.1653857.1434357.22559.0840493.5240996-.1348066.6776143l-3.243 2.259 2.707-1.563c.2247363-.1292165.510959-.0652384.6592891.1473681.1483301.2126064.1095663.5033193-.0892891.6696319l-4.474 3.725 3.9-2.253c.2272713-.1290292.5155715-.0612656.6615658.155498.1459944.2167636.1004262.5093938-.1045658.671502l-.94.733.383-.221c.2130757-.122757.4837819-.0723545.6383991.1188629.1546171.1912173.1472392.4664769-.0173991.6491371l-1.332 1.479.715-.413c.23893-.1358451.5427102-.0533708.6801373.1846528.137427.2380237.0569695.5423443-.1801373.6813472l-3.464 2c-.2130757.122757-.4837819.0723545-.6383991-.1188629-.1546171-.1912173-.1472392-.4664769.0173991-.6491371l1.336-1.479-3.892 2.244c-.227445.1317107-.5180356.064845-.6650404-.1530278-.1470048-.2178727-.1002333-.512366.1070404-.6739722l.943-.734-2.7 1.561c-.2248726.1315945-.5131068.0684479-.6623629-.1451111-.149256-.213559-.1094985-.5059386.0913629-.6718889l4.475-3.726-7.869 4.543c-.2318603.1330617-.527371.0602043-.6708066-.1653857-.1434357-.22559-.0840493-.5240996.1348066-.6776143l3.236-2.257-5.37 3.1c-.2329673.1327691-.5291919.0581284-.6714287-.1691822-.1422368-.2273105-.0798406-.5263539.1414287-.6778178l4.12-2.793-6.3 3.64c-.2348642.1312813-.531504.0531604-.6712412-.1767732-.1397372-.2299337-.0724576-.5292187.1522412-.6772268l.342-.22-1.867 1.078c-.0771943.045874-.1652058.0703791-.255.071z" fill="#37b793"/><path id="Path" d="m9.151 37.228c-.22287038-.0004442-.41853813-.1483428-.47976545-.3626384-.06122732-.2142957.02677055-.4432416.21576545-.5613616l6.243-3.9-6.661 3.847c-.23497088.1292146-.53003872.050062-.66879247-.179405-.13875376-.2294671-.07178369-.5275361.15179247-.675595l9.6-6.042-9.273 5.352c-.23415271.123715-.52415635.0433988-.66130449-.1831476-.13714814-.2265465-.07386591-.5207372.14430449-.6708524l11.59-7.35-11.073 6.398c-.23541159.1379583-.53795774.061708-.67986369-.1713453-.14190596-.2330532-.07076502-.5368414.15986369-.6826547l14.57-9.38-15.142 8.734c-.23560872.1297647-.5316571.04988-.67000668-.1807924-.13834959-.2306723-.06941665-.5294607.15600668-.6762076l8.127-5.065-10.266 5.922c-.23497088.1292146-.53003872.050062-.66879247-.179405-.13875376-.2294671-.07178369-.5275361.15179247-.675595l14.766-9.341-16.138 9.322c-.23637787.1427656-.54373439.0668779-.6865-.1695s-.06687787-.5437344.1695-.6865l15.663-9.87-15.511 8.957c-.23665401.1427656-.54423437.066654-.68699998-.17-.1427656-.236654-.06665402-.5442344.16999998-.687l17.174-10.869-16.657 9.617c-.23583577.1260453-.52910097.0442222-.66561588-.1857118-.13651492-.2299339-.06795177-.5265795.15561588-.6732882l3.661-2.237-3.151 1.819c-.23637787.1427656-.54373439.0668779-.6865-.1695s-.06687787-.5437344.1695-.6865l16.18-10.234-15.664 9.044c-.23560872.1297647-.5316571.04988-.67000668-.1807924-.13834959-.2306723-.06941665-.5294607.15600668-.6762076l10.784-6.741-10.27 5.929c-.23583577.1260453-.52910097.0442222-.66561588-.1857118-.13651492-.2299339-.06795177-.5265795.15561588-.6732882l.411-.252c-.24044089.0784169-.50157596-.0350527-.60831665-.2643287-.10674069-.2292759-.02547181-.5021537.18931665-.6356713l10.091-6.412-9.573 5.528c-.23541159.1379583-.53795774.061708-.67986369-.1713453-.14190596-.2330532-.07076502-.5368414.15986369-.6826547l9.176-5.894-8.656 5c-.23477127.1336383-.53323995.0566316-.67405087-.1739091-.14081092-.2305408-.07304023-.5312411.15305087-.6790909l7.558-4.894-7.037 4.06c-.23470337.1364868-.53543738.0607325-.67747413-.1706544-.14203676-.2313868-.07346495-.5338394.15447413-.6813456l5.744-3.74-5.221 3.012c-.23541159.1379583-.53795774.061708-.67986369-.1713453-.14190596-.2330532-.07076502-.5368414.15986369-.6826547l1.266-.812-.746.43c-.23252618.1307666-.52675914.0559509-.6685809-.1700024-.14182177-.2259533-.08127436-.5234503.1375809-.6759976l4.91-3.333-4.379 2.528c-.23041837.1322364-.52401892.0611893-.66848638-.1617642-.14446747-.2229535-.0893536-.5199576.12548638-.6762358l5.12-3.707-4.577 2.643c-.23080222.1338179-.52601117.06285643-.670779-.16123991-.14476784-.22409633-.08809237-.52237765.128779-.67776009l2.357-1.7-1.815 1.05c-.23015827.13666889-.52712465.067833-.67368315-.15615768-.14655849-.22399068-.09071527-.52367208.12668315-.67984232l.99-.73-.443.255c-.22417026.12809525-.50900662.06444562-.65732826-.14688679-.14832165-.21133241-.11134683-.50084215.08532826-.66811321l1.273-1.076-.7.405c-.19755636.11566076-.44842814.08238215-.6089975-.08078466-.16056936-.1631668-.18981829-.41454027-.0710025-.61021534l.926-1.541c-.2423678.10604259-.52539336.00493731-.64571401-.23066855-.12032066-.23560586-.0362897-.52416182.19171401-.65833145l1.628-.94c.19751101-.11468692.44763135-.08095869.60770937.0819484.16007801.16290708.18941973.41357985.07129063.6090516l-.924 1.536 3.88-2.237c.22417026-.12809525.50900662-.06444562.65732826.14688679.14832165.21133241.11134683.50084215-.08532826.66811321l-1.274 1.074 3.277-1.889c.2295527-.13149208.521805-.0614183.6667704.15987257.1449654.22129086.0924688.51720614-.1197704.67512743l-.991.732 2.715-1.567c.2308022-.1338179.5260112-.06285643.670779.16123991.1447678.22409633.0880924.52237765-.128779.67776009l-2.356 1.7 4.393-2.539c.2304184-.13223644.5240189-.06118928.6684864.16176419.1444674.22295348.0893536.51995759-.1254864.67623581l-5.12 3.703 7.871-4.541c.2325262-.13076655.5267591-.05595091.6685809.17000241s.0812744.52345026-.1375809.67599759l-4.907 3.328 7.236-4.174c.2358256-.14387016.5436298-.06932557.6875.16650001s.0693256.54362981-.1665.68749999l-1.276.819 2.897-1.673c.2347034-.13648675.5354374-.06073246.6774741.17065438.1420368.23138683.073465.53383941-.1544741.68134562l-5.737 3.734 7.95-4.586c.2347713-.13363828.5332399-.05663158.6740509.17390914.1408109.23054072.0730402.5312411-.1530509.67909086l-7.559 4.9 9.955-5.753c.2354116-.13795832.5379577-.06170795.6798637.17134529.1419059.23305325.070765.53684142-.1598637.68265471l-9.177 5.9 11.689-6.754c.2361017-.14331788.5436821-.06810172.687.16800001.1433179.23610172.0681017.54368209-.168.68699999l-10.088 6.406 12.584-7.261c.2362845-.13063592.5336041-.05009164.6716393.18194798s.0669238.53175531-.1606393.67705202l-.022.014 1.512-.873c.2356087-.12976469.5316571-.04987998.6700067.18079238.1383496.23067235.0694166.52946068-.1560067.67620762l-10.792 6.743 12.421-7.175c.2363779-.14304174.5439582-.06737786.687.16900001.1430417.23637787.0673779.54395823-.169.68699999l-16.167 10.227 16.469-9.508c.2358358-.12604535.529101-.04422219.6656159.18571176.1365149.22993394.0679517.52657952-.1556159.67328824l-3.661 2.241 3.151-1.823c.2363779-.14276559.5437344-.06687785.6865.16950002.1427656.23637786.0668779.54373436-.1695.68649998l-17.175 10.867 16.658-9.614c.2355125-.13195996.5332497-.0531389.6726204.17806525.1393708.23120415.0700423.53129378-.1566204.67793475l-15.664 9.869 15.148-8.745c.2349709-.12921461.5300387-.05006202.6687925.17940502.1387537.22946704.0717837.52753611-.1517925.67559498l-14.764 9.34 14.248-8.227c.2369302-.14193718.5440628-.06493016.686.172.1419372.2369302.0649302.5440628-.172.686l-8.135 5.07 7.617-4.4c.2354116-.1379583.5379577-.061708.6798637.1713453.1419059.2330532.070765.5368414-.1598637.6826547l-14.562 9.384 14.046-8.11c.2349709-.1292146.5300387-.050062.6687925.179405.1387537.2294671.0717837.5275361-.1517925.675595l-11.606 7.355 11.089-6.4c.2355125-.13196.5332497-.0531389.6726204.1780652.1393708.2312042.0700423.5312938-.1566204.6779348l-9.591 6.037 9.075-5.239c.2356087-.1297647.5316571-.04988.6700067.1807924.1383496.2306723.0694166.5294607-.1560067.6762076l-6.235 3.894 5.723-3.3c.23893-.1358451.5427102-.0533708.6801373.1846528.137427.2380237.0569695.5423443-.1801373.6813472l-30.823 17.789c-.07561795.0440691-.16147902.0675171-.249.068z" fill="#37b793"/><g fill="#262626"><path id="Shape" d="m3.527 31.283c1.465.362 2.7-.674 3.749.911.659 1-.489 2.917.31 4.074.994 1.441 2.7 1.058 4 .425 1.9-.923 3.7-2.624 5.41-3.849 1.1752102-1.043571 2.7050629-1.5981247 4.276-1.55v12.86c0 2.906-1.316 8.332 2.352 9.213 3.746.9 8.777.005 12.619.005 1.648 0 3.921-.384 5.543 0 2.151.51 4.078 2.442 5.857 3.718 1.8 1.295 4.95 3.876 6.764.883.439-.725.211-1.457.313-2.223.251-1.878-.3-1.763 1.484-2.378 1.159-.4 2.362.233 3.468-.653 2.159-1.731 1.048-7.242 1.048-9.559v-16.142c0-3.632-1.206-4.39-4.7-4.39h-15.293c.012-6.179.4-12.489 0-18.65-.271-4.156-3.688-3.261-7.015-3.261h-22.552c-2.768 0-8.882-1.247-9.873 2.416 0 .007.008.011.008.017s-.019.028-.019.044v16.462c0 3.033-1.665 10.659 2.251 11.627zm55.749-5.325c.788 3.9 0 8.766 0 12.736 0 3.534.911 8.466 0 11.9-.924 3.478-3.927.74-5.7 2.8-1.254 1.456 1.316 5.025-2.332 4.759-1.366-.1-4.1-2.942-5.25-3.766-5.466-3.922-13.5-1.037-19.842-1.761-4.705-.537-3.425-5.009-3.425-8.862v-12.475c4.708.039 10.581.995 15.137-.039 3.815-.866 2.954-4.68 2.872-7.878h9.954c3.054 0 7.81-1.246 8.586 2.586zm-45.109-24.675h17.858c3.435 0 6.691-.837 7.251 3.326.689 5.13 0 10.83 0 16.005 0 .865.024 1.742.047 2.621v.023c.0584962 1.4261841.0428083 2.8544449-.047 4.279-.164 2.063-.24 2.841-2.349 3.18-4.641.747-9.619-.187-14.365-.06-.2076149-.0438115-.4229284-.0345248-.626.027-.265.012-.533.013-.8.033-2.969.234-4.526 1.595-6.968 3.345-2.477 1.776-4.405 3.779-5.448-.314-.524-2.06.35-2.62-1.935-3.031-3.087-.555-4.065-1.14-4.065-4.123v-23.751c.88-3.069 8.939-1.56 11.447-1.56z"/><path id="Path" d="m15.336 12.315c.449.449 1.821-.137 1.328-.63l-2.772-2.772 2.708-2.713c.635-.635-.763-.848-1.206-.4l-3 3c-.1450369.13371438-.1709339.35320203-.061.517z"/><path id="Path" d="m28.144 9.11-2.735 2.735c-.615.615.8.694 1.182.31l3-3c.109-.11.215-.315.078-.452l-3-3c-.4-.4-1.772.16-1.338.594z"/><path id="Path" d="m20.723 12.9c.6666667-2.6666667 1.3333333-5.33333333 2-8 .125-.5-1.327-.285-1.446.192-.6666667 2.66666667-1.3333333 5.3333333-2 8-.125.508 1.323.289 1.446-.192z"/><path id="Path" d="m34.86 40.892 1.732-1.732c.617-.617-.793-.711-1.184-.32l-2 2c-.111.111-.214.321-.077.459l2 2c.4.4 1.778-.157 1.338-.6z"/><path id="Path" d="m46.18 41.133-1.758 1.759c-.588.588.828.544 1.156.216l2-2c.1-.1.229-.254.1-.388-.6666667-.6666667-1.3333333-1.3333333-2-2-.347-.346-1.717.191-1.348.559z"/><path id="Path" d="m40.264 38.049c-.3333333 2-.6666667 4-1 6-.125.752 1.358.583 1.472-.1.3333333-2 .6666667-4 1-6 .125-.749-1.358-.581-1.472.1z"/><path id="Path" d="m33.932 18.516h1c.307 0 .764-.237.8-.575.041-.376-.389-.457-.665-.457h-1c-.307 0-.764.237-.8.575-.041.376.389.457.665.457z"/><path id="Path" d="m35.3 21.654h-1c-.3579986-.0152937-.7064349.1178574-.963.368-.174.273.149.324.365.324h1c.3579986.0152937.7064349-.1178574.963-.368.173-.273-.15-.324-.365-.324z"/><path id="Path" d="m29.719 18.415c.55 0 1.537-.83.562-.83h-22c-.55 0-1.537.83-.562.83z"/><path id="Path" d="m8.3 25.654c-.462 0-1.564.692-.6.692h13c.462 0 1.564-.692.6-.692z"/><path id="Path" d="m30.062 21.46h-17c-.834 0-1.107 1.08-.124 1.08h17c.834 0 1.107-1.08.124-1.08z"/><path id="Path" d="m7.728 22.449h1c.36669057.0327292.72512499-.1218527.953-.411.154-.294-.133-.487-.409-.487h-1c-.3667803-.0332899-.72547116.1214026-.953.411-.154.294.133.487.409.487z"/><path id="Path" d="m34.451 46.635c-2.828-.285-2.048-2.578-3.323-4.173-.5891288-.6651785-1.3091296-1.2016898-2.115-1.576.6011953-.3135133 1.1589047-.7041452 1.659-1.162 1.406-1.336.773-4.115 3.219-4.362.674-.068 1.23-.826.218-.724-1.387462.037408-2.6639639.7672668-3.4 1.944-.419.744-.32 1.591-.709 2.325-.552265.8290148-1.3451419 1.4690395-2.272 1.834-.176.082-.711.4-.306.589 1.5161509.5606387 2.6239057 1.8797565 2.914 3.47.3792369 1.4759417 1.689735 2.5225456 3.213 2.566.412.041 1.687-.652.902-.731z"/><path id="Path" d="m46.752 35.538c2.738.276 1.978 2.911 3.487 4.418.4488858.4317074.9533307.8016337 1.5 1.1-.4998967.2871264-.9646884.6314414-1.385 1.026-1.35 1.311-1.012 4.143-3.294 4.373-.817.083-1.108 1.185-.122 1.086 1.4042048-.0405998 2.6856478-.8103753 3.381-2.031.514-.973.354-1.979 1.148-2.846.5347887-.5235795 1.1647696-.9400593 1.856-1.227.434-.2.575-.711.092-.936-.5605398-.2502364-1.0859861-.5726311-1.563-.959-1.121-.947-.888-1.718-1.364-2.906-.5714471-1.2886928-1.8318883-2.1349502-3.241-2.176-.724-.071-1.472.979-.495 1.078z"/></g></g></svg>