<svg id="Icons" height="512" viewBox="0 0 60 60" width="512" xmlns="http://www.w3.org/2000/svg"><path d="m28.482 51.474a.5.5 0 0 1 -.25-.933l24.489-14.141a.5.5 0 0 1 .529.848l-8.95 6.027 8.423-4.862a.5.5 0 0 1 .52.854l-1.365.878.845-.488a.5.5 0 0 1 .521.853l-.444.29a.5.5 0 0 1 .46.878l-4.593 3.222 4.054-2.339a.5.5 0 0 1 .543.837l-3.176 2.3 2.633-1.519a.5.5 0 0 1 .566.819l-3.009 2.462 2.443-1.41a.5.5 0 0 1 .6.788l-1.775 1.762 1.094-.632a.5.5 0 0 1 .5.865l-4.455 2.567a.5.5 0 0 1 -.6-.788l1.776-1.757-4.412 2.545a.5.5 0 0 1 -.566-.819l3.011-2.464-5.694 3.283a.5.5 0 0 1 -.543-.838l3.177-2.3-5.434 3.138a.5.5 0 0 1 -.537-.841l4.592-3.225-7.045 4.066a.5.5 0 0 1 -.521-.852l.319-.206-1.837 1.059a.5.5 0 0 1 -.52-.853l1.375-.885-3.011 1.738a.5.5 0 0 1 -.529-.847l8.95-6.024-11.9 6.872a.5.5 0 0 1 -.254.072z" fill="#37cba1"/><path d="m16.246 59.43a.5.5 0 0 1 -.267-.923l14.247-8.956-15.511 8.954a.5.5 0 0 1 -.512-.859l6.256-3.835-6.159 3.556a.5.5 0 0 1 -.515-.857l13.638-8.495-13.15 7.59a.5.5 0 0 1 -.513-.857l11.316-7.006-10.813 6.241a.5.5 0 0 1 -.513-.858l10.662-6.591-10.157 5.866a.5.5 0 0 1 -.515-.857l13.626-8.487-14.459 8.344a.5.5 0 0 1 -.511-.859l5.832-3.562-7.659 4.421a.5.5 0 0 1 -.514-.856l18.545-11.593-20.274 11.703a.5.5 0 0 1 -.513-.858l15.487-9.548-15.827 9.137a.5.5 0 0 1 -.51-.86l8.05-4.894-7.733 4.469a.5.5 0 0 1 -.508-.862l.526-.316-.018.01a.5.5 0 0 1 -.511-.86l13.031-7.989-12.52 7.227a.5.5 0 0 1 -.512-.859l15.874-9.806-15.362 8.868a.5.5 0 0 1 -.517-.856l20.323-12.857-19.806 11.433a.5.5 0 0 1 -.513-.857l11.533-7.153-11.02 6.359a.5.5 0 0 1 -.513-.857l8.709-5.4-8.2 4.732a.5.5 0 0 1 -.513-.858l5.737-3.554-5.221 3.015a.5.5 0 0 1 -.516-.855l8.237-5.183-7.721 4.457a.5.5 0 0 1 -.514-.856l3.762-2.351-3.248 1.875a.5.5 0 0 1 -.526-.849l11.26-7.481-10.734 6.2a.5.5 0 0 1 -.522-.851l6.061-3.947-5.539 3.2a.5.5 0 0 1 -.527-.849l5.972-3.984-5.445 3.138a.5.5 0 0 1 -.543-.839l7.1-5.126-6.557 3.784a.5.5 0 0 1 -.552-.832l5.111-3.88-4.559 2.632a.5.5 0 0 1 -.573-.815l3.547-3.005-2.974 1.716a.5.5 0 0 1 -.557-.827l.347-.27a.507.507 0 0 1 -.419-.172.5.5 0 0 1 -.012-.637l1.053-1.328a.511.511 0 0 1 -.446-.25.5.5 0 0 1 .183-.683l1.933-1.117a.5.5 0 0 1 .642.744l-.951 1.2 3.5-2.021a.5.5 0 0 1 .557.827l-.072.056 1.53-.883a.5.5 0 0 1 .574.814l-3.547 3 6.617-3.812a.5.5 0 0 1 .553.831l-5.111 3.88 8.16-4.711a.5.5 0 0 1 .543.838l-7.1 5.127 10.336-5.965a.5.5 0 0 1 .527.849l-5.966 3.98 8.365-4.829a.5.5 0 0 1 .522.852l-6.067 3.948 8.317-4.8a.5.5 0 0 1 .526.849l-11.26 7.482 14.43-8.331a.5.5 0 0 1 .515.857l-3.757 2.343 5.549-3.2a.5.5 0 0 1 .517.856l-8.243 5.186 10.465-6.042a.5.5 0 0 1 .514.858l-5.712 3.537 7.613-4.4a.5.5 0 0 1 .514.858l-8.71 5.4 10.842-6.253a.5.5 0 0 1 .513.858l-11.531 7.15 13.878-8.008a.5.5 0 0 1 .518.856l-20.328 12.858 23.037-13.3a.5.5 0 0 1 .512.859l-15.874 9.806 16.5-9.525a.5.5 0 0 1 .512.859l-13.03 7.987 12.916-7.458a.5.5 0 0 1 .508.861l-.5.3a.5.5 0 0 1 .508.861l-8.057 4.9 7.548-4.357a.5.5 0 0 1 .512.859l-15.477 9.542 14.962-8.639a.5.5 0 0 1 .514.857l-18.55 11.6 18.036-10.414a.5.5 0 0 1 .51.859l-5.814 3.552 5.3-3.062a.5.5 0 0 1 .514.857l-13.63 8.494 13.12-7.575a.5.5 0 0 1 .512.858l-10.662 6.59 10.151-5.86a.5.5 0 0 1 .513.858l-11.312 7 10.8-6.234a.5.5 0 0 1 .514.857l-13.643 8.5 13.128-7.576a.5.5 0 0 1 .511.859l-6.267 3.842 5.756-3.322a.5.5 0 0 1 .516.856l-33.297 20.935a.5.5 0 0 1 -.235.312l-3.205 1.85a.5.5 0 0 1 -.254.068z" fill="#37cba1"/><path d="m17.062 24.48a.5.5 0 0 1 -.277-.916l12.4-8.26-13.785 7.96a.5.5 0 0 1 -.518-.855l7.247-4.622-7.136 4.12a.5.5 0 0 1 -.522-.852l9.572-6.216-9.484 5.476a.5.5 0 0 1 -.523-.852l8.619-5.6-8.255 4.773a.5.5 0 0 1 -.518-.855l4.377-2.789-3.961 2.287a.5.5 0 0 1 -.521-.854l4.587-2.944-3.933 2.269a.5.5 0 0 1 -.531-.85l8.939-6.089-7.989 4.613a.5.5 0 0 1 -.528-.849l4.686-3.122-3.565 2.058a.5.5 0 0 1 -.544-.837l6.031-4.39-3.866 2.232a.5.5 0 0 1 -.559-.826l3.072-2.421a.5.5 0 0 1 -.12-.916l4.828-2.787a.5.5 0 0 1 .56.826l-2.266 1.785 6.021-3.477a.5.5 0 0 1 .544.837l-6.031 4.394 8.887-5.131a.5.5 0 0 1 .527.849l-4.675 3.116 6.127-3.538a.5.5 0 0 1 .532.846l-8.943 6.091 10.646-6.146a.5.5 0 0 1 .52.854l-4.581 2.941 5.44-3.141a.5.5 0 0 1 .518.855l-4.382 2.792 5.006-2.89a.5.5 0 0 1 .523.852l-8.618 5.6 9.46-5.468a.5.5 0 0 1 .522.853l-9.572 6.216 10.221-5.9a.5.5 0 0 1 .518.855l-7.247 4.621 7.672-4.429a.5.5 0 0 1 .527.849l-12.4 8.261 13.005-7.51a.5.5 0 0 1 .517.855l-3.215 2.033 3.244-1.873a.5.5 0 0 1 .519.854l-4.244 2.722 4.256-2.457a.5.5 0 0 1 .525.85l-6.2 4.1 6.177-3.566a.5.5 0 0 1 .52.854l-.538.344.3-.173a.5.5 0 0 1 .546.837l-7.29 5.341 7.1-4.1a.5.5 0 0 1 .558.827l-5.461 4.255 5.011-2.893a.5.5 0 0 1 .553.832l-2.224 1.692 1.521-.877a.5.5 0 0 1 .572.815l-1.425 1.2.541-.312a.5.5 0 0 1 .62.769l-.885.971a.5.5 0 0 1 .224.933l-2.333 1.338a.5.5 0 0 1 -.62-.77l.7-.774-2.676 1.545a.5.5 0 0 1 -.572-.816l1.424-1.2-3.488 2.013a.5.5 0 0 1 -.552-.832l2.231-1.693-4.374 2.526a.5.5 0 0 1 -.558-.828l5.462-4.256-8.802 5.093a.5.5 0 0 1 -.546-.836l7.289-5.341-10.7 6.179a.5.5 0 0 1 -.521-.854l.528-.339-2.067 1.194a.5.5 0 0 1 -.525-.85l6.2-4.1-8.578 4.951a.5.5 0 0 1 -.52-.854l4.246-2.723-6.2 3.578a.5.5 0 0 1 -.517-.856l3.213-2.032-5 2.889a.5.5 0 0 1 -.25.066z" fill="#f0f2f5"/><path d="m30.048 19.46a.5.5 0 0 1 -.4-.8l.3-.4-1 .576a.5.5 0 0 1 -.623-.766l.47-.526-.427.247a.5.5 0 0 1 -.643-.744l.46-.581a.492.492 0 0 1 -.3-.232.5.5 0 0 1 .182-.683l1.643-.951a.5.5 0 0 1 .642.744l-.211.268.858-.5a.5.5 0 0 1 .623.766l-.47.526.456-.264a.5.5 0 0 1 .648.736l-.492.647a.5.5 0 0 1 .158.925l-1.624.937a.5.5 0 0 1 -.25.075z" fill="#346d92"/><path d="m31.194 33.349a.5.5 0 0 1 -.288-.91l4.215-2.963-6.548 3.78a.5.5 0 0 1 -.533-.845l3.818-2.627-5.391 3.116a.5.5 0 0 1 -.551-.832l5.957-4.479-7.825 4.511a.5.5 0 0 1 -.529-.848l.807-.544-1.463.845a.5.5 0 0 1 -.541-.84l2.978-2.123-3.758 2.169a.5.5 0 0 1 -.57-.817l4.279-3.567-5.417 3.125a.5.5 0 0 1 -.582-.808l3.117-2.766-3.9 2.253a.5.5 0 0 1 -.558-.827l.364-.285-.484.281a.5.5 0 0 1 -.584-.806l.748-.67-.879.508a.5.5 0 0 1 -.661-.717l.752-1.09-.878.507a.5.5 0 0 1 -.74-.336l-.2-.991a.5.5 0 0 1 -.449-.253.5.5 0 0 1 .183-.683l.387-.224a.489.489 0 0 1 .457-.022.5.5 0 0 1 .283.358l.184.931 2.2-1.267a.5.5 0 0 1 .661.717l-.755 1.09 3.126-1.8a.5.5 0 0 1 .584.8l-.748.67 2.555-1.47a.5.5 0 0 1 .557.827l-.368.286 1.93-1.113a.5.5 0 0 1 .582.807l-3.118 2.762 6.189-3.569a.5.5 0 0 1 .57.817l-4.28 3.568 7.6-4.385a.5.5 0 0 1 .541.84l-2.972 2.126 5.133-2.966a.5.5 0 0 1 .529.847l-.813.548 2.417-1.395a.5.5 0 0 1 .55.832l-5.954 4.474 9.2-5.309a.5.5 0 0 1 .533.845l-3.824 2.631 5.3-3.058a.5.5 0 0 1 .538.842l-4.212 2.962 2.355-1.363a.5.5 0 0 1 .542.839l-2.152 1.55a.5.5 0 0 1 .1.91l-6.879 3.971a.5.5 0 0 1 -.542-.838l.829-.6-3.449 1.99a.493.493 0 0 1 -.255.071z" fill="#346d92"/><g fill="#262626"><path d="m29.665 15.458a.133.133 0 0 0 -.032.008l-.02.005c-.035.014.003.029.052-.013z"/><path d="m27.612 18.319a2.634 2.634 0 0 0 2.782 1.069 2.717 2.717 0 0 0 2.333-2.467c0-.015 0-.028 0-.042l7.423-1.236a11.269 11.269 0 0 1 .084 2.551c-.021.239 1.409.072 1.449-.388a11.308 11.308 0 0 0 -.069-2.406l.277-.047c.229-.038.789-.164.833-.457s-.432-.279-.609-.249l-.6.1a11.071 11.071 0 0 0 -.751-2.449c-.169-.38-1.579.095-1.449.389a11.074 11.074 0 0 1 .719 2.307l-6.683 1.113-.73.121a2.351 2.351 0 0 0 -1.521-1.538 3.11 3.11 0 0 0 -3.212.861 2.334 2.334 0 0 0 -.276 2.768zm3.1.046c.035-.03.021-.017 0 0zm-1.78-2.307a2.136 2.136 0 0 1 .134-.206l.033-.041c.03-.032.059-.064.09-.094s.069-.056.1-.088l.013-.007c.029-.019.057-.04.087-.058l.048-.03.02-.009c.032-.012.065-.027.1-.041h.011l.044-.008.02-.005a.15.15 0 0 0 .041-.013l-.008.005.075-.007h.072s.057 0 .086.007c0 0 .08.01.1.015.052.011.1.028.155.041a.212.212 0 0 0 .035.007l.029.015a2.109 2.109 0 0 1 .278.147 1.446 1.446 0 0 1 .369.333 1.709 1.709 0 0 1 .115 2.061s-.031.043-.049.068l-.054.064a2.235 2.235 0 0 1 -.173.164l-.01.008-.124.081c-.045.019-.091.037-.134.059 0 0 0 0-.006 0l-.053.015c.048-.018-.125 0-.148.013-.04 0-.116-.006-.149-.006l-.079-.02c-.052-.012-.1-.027-.155-.041-.026-.007-.029-.006-.037-.008a.177.177 0 0 0 -.027-.014c-.032-.014-.064-.028-.1-.044a2.109 2.109 0 0 1 -.226-.131 1.685 1.685 0 0 1 -.358-.346 1.768 1.768 0 0 1 -.161-1.886z"/><path d="m6.276 47.642a3.386 3.386 0 0 0 2.343 3.57 15.687 15.687 0 0 0 4.657.16v4.853a3.466 3.466 0 0 0 .376 2.051 2.738 2.738 0 0 0 2.874 1.016 9.4 9.4 0 0 0 3.274-1.938l5.145-3.682 3.227-2.308h19.466c1.616 0 3.324.171 4.706-.862 1.443-1.078 1.38-2.606 1.38-4.188v-22.946a17.6 17.6 0 0 0 -.11-4.359c-.795-2.936-4.459-2.445-6.9-2.381a16.515 16.515 0 0 0 -10.909-15.142 17.206 17.206 0 0 0 -18.6 5 16.5 16.5 0 0 0 -3.882 10.134c-2.925-.064-6.914-.175-7.047 3.611-.079 2.218 0 4.454 0 6.673zm10.51-38.527a15.118 15.118 0 0 1 16.214-7.308 15.827 15.827 0 0 1 12.27 15.267 16.222 16.222 0 0 1 -1.024 5.479h-28.433a15.82 15.82 0 0 1 .973-13.438zm27.1 14.332a15.157 15.157 0 0 1 -8.5 8.154 15.384 15.384 0 0 1 -19.192-8.154h27.687zm-35.447-5.47c.8-.811 1.992-.612 3.018-.612h1.858a16.287 16.287 0 0 0 1.172 5.91.145.145 0 0 0 .022.049 16 16 0 0 0 1.091 2.193 16.829 16.829 0 0 0 31.1-8.166c1-.024 2-.061 2.981.014 1.765.136 2.574 1.577 2.59 3.173.023 2.379 0 4.759 0 7.138v19.424a5.179 5.179 0 0 1 -.263 2.247c-.632 1.355-1.75 1.289-2.955 1.289h-19.129a11.171 11.171 0 0 0 -1.811.015 6.39 6.39 0 0 0 -2.231 1.376l-4.865 3.481c-1.255.9-2.492 1.96-3.826 2.738a1.5 1.5 0 0 1 -2.276-.686 4.8 4.8 0 0 1 -.191-2v-4.76c0-.161-.34-.171-.43-.171-1.315 0-2.669.1-3.98 0-1.766-.136-2.572-1.574-2.59-3.173-.025-2.341 0-4.684 0-7.026v-19.475c0-1.045-.094-2.155.715-2.978z"/><path d="m31.747 6.7a10.517 10.517 0 0 1 5.353 2.816.861.861 0 0 0 .982.1c.211-.1.61-.475.346-.733a11.921 11.921 0 0 0 -6.171-3.222.946.946 0 0 0 -.944.44c-.165.342.142.542.434.599z"/><path d="m21.791 9.572a1.32 1.32 0 0 0 1.024-.272 10.74 10.74 0 0 1 2.415-1.8 9.249 9.249 0 0 1 2.663-.951c.248-.047.771-.161.829-.471s-.437-.307-.615-.273a12.469 12.469 0 0 0 -6.442 3.295c-.204.2-.179.416.126.472z"/><path d="m19.172 18.476c.322-.086.628-.313.6-.67a10.71 10.71 0 0 1 .884-5.242c.329-.739-1.129-.709-1.38-.145a11.672 11.672 0 0 0 -.953 5.775c.027.35.62.343.849.282z"/><path d="m25.524 28.273a2.443 2.443 0 0 0 1.025-.273c.07-.043.175-.1.175-.192v-1c0-.078-.228-.079-.248-.079a2.443 2.443 0 0 0 -1.025.271c-.07.043-.175.1-.175.192v1c0 .08.224.081.248.081z"/><path d="m29.437 28.4a.794.794 0 0 0 .489.1 1.1 1.1 0 0 0 .546-.2l.127-.111a.478.478 0 0 0 .132-.253v-1a.236.236 0 0 0 -.036-.187.269.269 0 0 0 -.132-.148.794.794 0 0 0 -.489-.1 1.1 1.1 0 0 0 -.546.2l-.127.111a.478.478 0 0 0 -.132.253v1a.236.236 0 0 0 .036.187.269.269 0 0 0 .132.148z"/><path d="m33.556 28.394a1.178 1.178 0 0 0 .541-.031 1.145 1.145 0 0 0 .484-.244l.094-.1a.253.253 0 0 0 .049-.209v-1a.187.187 0 0 0 -.1-.123.339.339 0 0 0 -.181-.077 1.178 1.178 0 0 0 -.541.031 1.145 1.145 0 0 0 -.484.244l-.094.1a.253.253 0 0 0 -.049.209v1a.187.187 0 0 0 .1.123.339.339 0 0 0 .181.077z"/><path d="m20.535 38.314h26a1.526 1.526 0 0 0 1.025-.274c.137-.162.267-.354-.095-.354h-26a1.526 1.526 0 0 0 -1.025.274c-.14.162-.267.354.095.354z"/><path d="m12.935 38.527h3c.3 0 .782-.242.8-.583.019-.379-.369-.471-.669-.471h-3c-.3 0-.782.242-.8.583-.019.379.369.471.669.471z"/><path d="m13.072 43.5c-.806 0-1.131 1-.144 1h24c.806 0 1.131-1 .144-1z"/></g></svg>