<?xml version="1.0" encoding="UTF-8"?>
<svg xmlns="http://www.w3.org/2000/svg" viewBox="0 0 60 60" width="512" height="512"><g id="websites_colour" data-name="websites colour"><path d="M23.856,59.47a.5.5,0,0,1-.261-.926l3.426-2.1L21.891,59.4a.5.5,0,0,1-.518-.855L38.06,47.979,18.275,59.4a.5.5,0,0,1-.515-.856L34.971,47.772,14.826,59.4a.5.5,0,0,1-.515-.856L35.741,45.1,10.961,59.4a.5.5,0,0,1-.511-.859L24.3,50.081,8.156,59.4a.5.5,0,0,1-.51-.859L23.42,48.92,5.263,59.4a.5.5,0,0,1-.512-.858L28.137,44.159,2.6,58.9a.5.5,0,0,1-.51-.859L23.933,44.707l-22.4,12.93a.5.5,0,0,1-.509-.861L18.951,45.907,1.28,56.109a.5.5,0,0,1-.509-.859L21.022,42.937,1.279,54.335a.5.5,0,0,1-.507-.861l7.234-4.341L1.279,53.016a.5.5,0,0,1-.512-.859L29.3,34.565,1.279,50.741a.5.5,0,0,1-.51-.859L24.538,35.355,1.278,48.784a.5.5,0,0,1-.511-.858L27.084,31.771,1.278,46.669a.5.5,0,0,1-.507-.861L12.8,38.562,1.278,45.212a.5.5,0,0,1-.511-.858L28.461,27.307,1.277,43a.5.5,0,0,1-.509-.859L20.379,30.209,1.277,41.237a.5.5,0,0,1-.512-.858L25.418,25.144,1.276,39.081a.5.5,0,0,1-.509-.859l12.774-7.768L1.276,37.534a.5.5,0,0,1-.51-.859l14.708-9.01-14.2,8.2A.5.5,0,0,1,.766,35l10.545-6.443L1.275,34.353a.5.5,0,0,1-.512-.858L14.68,24.884l-13.4,7.739a.5.5,0,0,1-.516-.855L17.58,21.151l-16.3,9.414a.5.5,0,0,1-.518-.855l15.094-9.6L1.274,28.525a.5.5,0,0,1-.515-.856l9.133-5.735L1.274,26.909a.5.5,0,0,1-.514-.857l4.084-2.543L1.274,25.57a.5.5,0,0,1-.518-.854l7.778-4.963L1.273,23.945a.5.5,0,0,1-.522-.852L8.71,17.918,1.273,22.212a.5.5,0,0,1-.53-.847L9.5,15.432,1.273,20.184a.5.5,0,0,1-.54-.84l7.908-5.63L1.272,17.968a.5.5,0,0,1-.544-.837l5.483-4L1.272,15.979a.5.5,0,0,1-.564-.821l4.357-3.534-3.793,2.19a.5.5,0,0,1-.6-.787l2.665-2.663L1.271,11.555a.5.5,0,0,1-.7-.65l.818-1.7A.508.508,0,0,1,.9,8.963a.5.5,0,0,1,.183-.683L2.263,7.6a.5.5,0,0,1,.7.65L2.177,9.878,6.128,7.6a.5.5,0,0,1,.6.787L4.066,11.046,10.043,7.6a.5.5,0,0,1,.564.821L6.25,11.951,13.8,7.6a.5.5,0,0,1,.545.837l-5.482,4,8.382-4.84a.5.5,0,0,1,.54.841L9.873,14.064,21.08,7.594a.5.5,0,0,1,.53.847l-8.762,5.934L24.6,7.593a.5.5,0,0,1,.522.853L17.16,13.619,27.6,7.593a.5.5,0,0,1,.518.854l-7.772,4.959L30.412,7.592a.5.5,0,0,1,.515.858L26.837,11l5.9-3.4a.5.5,0,0,1,.516.856l-9.137,5.738L35.532,7.592a.5.5,0,0,1,.519.855l-15.088,9.6,18.1-10.452a.5.5,0,0,1,.517.856L22.762,19.063,42.633,7.59a.5.5,0,0,1,.513.859L29.213,17.068,45.631,7.59a.5.5,0,0,1,.511.86L35.609,14.885,48.244,7.59a.5.5,0,0,1,.511.859l-14.72,9.018L51.144,7.589a.5.5,0,0,1,.509.861L38.872,16.222,53.824,7.589a.5.5,0,0,1,.513.858L29.692,23.677,57.56,7.588a.5.5,0,0,1,.509.861L38.45,20.385l20.27-11.7a.5.5,0,0,1,.511.859L31.552,26.579,58.72,10.893a.5.5,0,0,1,.508.861L47.17,19.019l11.55-6.668a.5.5,0,0,1,.511.859L32.914,29.365l25.806-14.9a.5.5,0,0,1,.51.86L35.479,29.841,58.72,16.423a.5.5,0,0,1,.512.859l-28.544,17.6L58.72,18.7a.5.5,0,0,1,.507.862L51.993,23.9l6.727-3.883a.5.5,0,0,1,.509.86L38.989,33.184,58.72,21.792a.5.5,0,0,1,.509.861L41.3,33.525,58.72,23.467a.5.5,0,0,1,.51.86L37.385,37.665,58.72,25.347a.5.5,0,0,1,.511.859L35.846,40.591,58.72,27.385a.5.5,0,0,1,.51.86l-15.77,9.62,15.26-8.81a.5.5,0,0,1,.51.86l-13.848,8.46,13.338-7.7a.5.5,0,0,1,.515.857L37.807,44.98,58.72,32.906a.5.5,0,0,1,.515.857L42.026,44.535,58.72,34.9a.5.5,0,0,1,.517.856L42.544,46.324,58.72,36.985a.5.5,0,0,1,.511.859l-3.425,2.1,2.914-1.681a.5.5,0,0,1,.517.855L48.281,46.044,58.72,40.018a.5.5,0,0,1,.514.857l-4.482,2.792,3.968-2.29a.5.5,0,0,1,.515.855l-4.781,3.007,4.266-2.463a.5.5,0,0,1,.516.856L56,45.675,58.72,44.1a.5.5,0,0,1,.516.855l-1,.631.486-.279a.5.5,0,0,1,.526.849l-6.534,4.334,6.008-3.468a.5.5,0,0,1,.524.851l-2.8,1.839L58.72,48.4a.5.5,0,0,1,.544.837l-6.235,4.53,5.691-3.286a.5.5,0,0,1,.535.844l-1.73,1.2,1.2-.689a.5.5,0,0,1,.538.841l-.522.368a.5.5,0,0,1,.541.837l-1.346,1.049.789-.455a.5.5,0,0,1,.592.8l-1.186,1.116.547-.316a.5.5,0,0,1,.5.866L54.9,59.4a.5.5,0,0,1-.592-.8L55.5,57.489,52.181,59.4a.5.5,0,0,1-.558-.827l1.346-1.048L49.72,59.4a.5.5,0,0,1-.538-.84L49.7,58.2l-2.087,1.2a.5.5,0,0,1-.535-.843l1.733-1.2L45.263,59.4a.5.5,0,0,1-.544-.837l6.233-4.528L41.658,59.4a.5.5,0,0,1-.524-.85l2.8-1.837L39.28,59.4a.5.5,0,0,1-.526-.849l6.532-4.333L36.309,59.4a.5.5,0,0,1-.517-.855l1-.632L34.218,59.4a.5.5,0,0,1-.517-.855l3.239-2.042-5.019,2.9a.5.5,0,0,1-.516-.855l4.773-3L29.5,59.4a.5.5,0,0,1-.515-.857l4.483-2.793L27.144,59.4a.5.5,0,0,1-.518-.855l10.962-6.928L24.106,59.4A.5.5,0,0,1,23.856,59.47Z" fill="#e1efff"/><path d="M2.464,9.5a.5.5,0,0,1-.312-.892L6.894,4.841,1.28,8.082a.5.5,0,0,1-.568-.819l3.4-2.8L1.28,6.093a.5.5,0,0,1-.587-.8l1.666-1.52-1.076.622a.5.5,0,0,1-.621-.769l.819-.906a.494.494,0,0,1-.3-.233A.5.5,0,0,1,1.362,1.8L3.411.62a.5.5,0,0,1,.621.768l-.5.549L5.856.6a.5.5,0,0,1,.587.8L4.776,2.92,8.8.6a.5.5,0,0,1,.568.819l-3.4,2.8L12.244.6a.5.5,0,0,1,.562.824L8.063,5.188,16.017.6a.5.5,0,0,1,.543.838l-3.051,2.2L18.772.6a.5.5,0,0,1,.534.845l-1.085.746L20.976.6a.5.5,0,0,1,.564.821L16.633,5.4,24.947.6a.5.5,0,0,1,.555.829L21.144,4.779,28.387.6a.5.5,0,0,1,.561.824L24.212,5.186,32.16.6a.5.5,0,0,1,.554.83L28.475,4.662,35.516.6a.5.5,0,0,1,.531.846l-.356.242L37.575.6a.5.5,0,0,1,.544.838L34.927,3.75,40.389.6a.5.5,0,0,1,.55.833l-3.985,3L43.585.6a.5.5,0,0,1,.539.841l-2.405,1.7L46.124.6a.5.5,0,0,1,.536.843L44.8,2.738,48.51.6a.5.5,0,0,1,.553.83l-4.22,3.219L51.856.6a.5.5,0,0,1,.545.837L49.021,3.9,54.75.6a.5.5,0,0,1,.559.826L50.74,5l6.7-3.87a.5.5,0,0,1,.547.836L55.172,4.042l3.206-1.851A.5.5,0,0,1,58.954,3L55.606,5.89l3.118-1.8A.5.5,0,0,1,59.3,4.9L58.055,5.993l.677-.392a.5.5,0,0,1,.718.609l-.616,1.644a.5.5,0,0,1,.412.906L58.131,9.4a.5.5,0,0,1-.718-.609l.611-1.63L54.143,9.406a.5.5,0,0,1-.58-.809L54.812,7.5l-3.3,1.9a.5.5,0,0,1-.576-.812l3.346-2.886-6.408,3.7a.5.5,0,0,1-.547-.836L50.147,6.5,45.1,9.411a.5.5,0,0,1-.558-.827l4.569-3.579L41.481,9.412a.5.5,0,0,1-.544-.837l3.378-2.47L38.586,9.414a.5.5,0,0,1-.554-.831l4.22-3.218L35.236,9.416a.5.5,0,0,1-.536-.844l1.858-1.3L32.849,9.417a.5.5,0,0,1-.539-.841l2.409-1.7L30.307,9.418a.5.5,0,0,1-.551-.833l3.986-3L27.106,9.42a.5.5,0,0,1-.544-.838l3.19-2.313-5.46,3.152a.5.5,0,0,1-.531-.846l.356-.242L22.23,9.422a.5.5,0,0,1-.553-.83l4.241-3.237L18.871,9.424A.5.5,0,0,1,18.31,8.6l4.736-3.764L15.1,9.426a.5.5,0,0,1-.555-.83L18.9,5.244,11.652,9.428a.5.5,0,0,1-.564-.822L16,4.627,7.677,9.43a.5.5,0,0,1-.533-.846L8.227,7.84,5.472,9.431a.5.5,0,0,1-.543-.838l3.051-2.2L2.714,9.432A.491.491,0,0,1,2.464,9.5Z" fill="#5a6277"/></g><g id="Colour"><path d="M26.806,27.588a.5.5,0,0,1-.342-.864l3.168-2.968L25.28,26.269a.5.5,0,0,1-.552-.831l.8-.608-.216.126a.5.5,0,0,1-.622-.768l1.838-2.05a.5.5,0,0,1-.469-.883l2.683-1.549a.5.5,0,0,1,.622.767l-1.837,2.048,4.286-2.474a.5.5,0,0,1,.552.831l-.8.607,1.331-.768a.5.5,0,0,1,.591.8l-3.168,2.967,3.834-2.213a.5.5,0,0,1,.574.814l-.938.8.8-.46a.5.5,0,0,1,.66.719l-.969,1.393.453-.261a.5.5,0,1,1,.5.866l-2.391,1.381a.5.5,0,0,1-.66-.719l.968-1.394-3.664,2.116a.5.5,0,0,1-.573-.814l.938-.8-2.792,1.612A.489.489,0,0,1,26.806,27.588Z" fill="#434b5b"/><path d="M30.047,48.468a.5.5,0,0,1-.339-.868l1.727-1.59-3.664,2.115a.5.5,0,0,1-.561-.824l1.872-1.483L26.03,47.58a.5.5,0,0,1-.569-.817l3.988-3.318L24.54,46.279A.5.5,0,0,1,24,45.44l1.369-.98-.433.25a.5.5,0,0,1-.556-.828l3.074-2.38-2,1.155a.5.5,0,0,1-.57-.816l3.5-2.924L26.053,40.26a.5.5,0,0,1-.55-.833l.7-.524a.5.5,0,0,1-.37-.875l2.445-2.136-1.316.759a.5.5,0,0,1-.6-.786l2.581-2.586-1.322.764a.5.5,0,0,1-.622-.767l2.016-2.244-.745.43a.5.5,0,0,1-.62-.769l.99-1.09a.505.505,0,0,1-.5-.128.5.5,0,0,1-.077-.6l1-1.716a.483.483,0,0,1-.177-.179.5.5,0,0,1,.182-.684l.867-.5a.5.5,0,0,1,.681.685l-.741,1.271,1-.576a.5.5,0,0,1,.62.769L30.534,29l.7-.4a.5.5,0,0,1,.623.767l-2.016,2.244,1.88-1.085a.5.5,0,0,1,.6.786l-2.583,2.588,2.472-1.427a.5.5,0,0,1,.579.809l-2.444,2.136L32.622,34.1a.5.5,0,0,1,.55.833l-.378.283.1-.056a.5.5,0,0,1,.57.817L29.96,38.9l3.383-1.952a.5.5,0,0,1,.555.828L30.83,40.151l2.9-1.673a.5.5,0,0,1,.542.838L32.9,40.3l1.125-.65a.5.5,0,0,1,.57.818L30.6,43.785l3.9-2.25a.5.5,0,0,1,.56.824l-1.873,1.483,1.655-.954a.5.5,0,0,1,.589.8L33.7,45.279l1.523-.878a.5.5,0,0,1,.644.74l-.448.577.119-.069a.5.5,0,0,1,.5.866l-2.33,1.344a.5.5,0,0,1-.645-.739l.449-.577L30.3,48.4A.49.49,0,0,1,30.047,48.468Z" fill="#434b5b"/><path d="M22.741,47.462a.5.5,0,0,1-.4-.8l.769-1.04-1.641.947a.5.5,0,0,1-.615-.774L23,43.5l-2.72,1.57a.5.5,0,0,1-.559-.825l.606-.478-.617.356a.5.5,0,0,1-.558-.827l1.4-1.089-1.377.8a.5.5,0,0,1-.567-.82L22.1,39.334l-3.463,2a.5.5,0,0,1-.548-.834L20.5,38.71l-2.122,1.225a.5.5,0,0,1-.548-.834l3.188-2.366-2.731,1.577a.5.5,0,0,1-.555-.829l5.114-3.954-4.319,2.493a.5.5,0,0,1-.552-.83l5.2-3.963-3.783,2.183a.5.5,0,0,1-.583-.806L22.3,29.5a.5.5,0,0,1-.5-.867L26.014,26.2A.5.5,0,0,1,26.6,27l-3.486,3.109,6.365-3.675a.5.5,0,0,1,.552.831l-5.206,3.964,3.95-2.28a.5.5,0,0,1,.556.828l-5.112,3.952,3.84-2.216a.5.5,0,0,1,.548.834l-3.193,2.368,2.086-1.2a.5.5,0,0,1,.548.834l-2.4,1.785,1.337-.773a.5.5,0,0,1,.567.821L24.06,39.026l2.26-1.305a.5.5,0,0,1,.558.827l-1.4,1.089.365-.21a.5.5,0,0,1,.559.825l-.8.635a.5.5,0,0,1,.435.837l-2.151,2.3.806-.465a.5.5,0,0,1,.653.729l-.947,1.281a.5.5,0,0,1,.341.243.5.5,0,0,1-.182.682l-1.562.9A.5.5,0,0,1,22.741,47.462Z" fill="#cd4c60"/><path d="M36.158,47.093a.5.5,0,0,1-.351-.857l2.561-2.525-2.8,1.618a.5.5,0,0,1-.551-.831l.163-.124a.5.5,0,0,1-.462-.863l2.505-2.1-2.366,1.366a.5.5,0,0,1-.579-.809l3.3-2.871-3.228,1.863a.5.5,0,0,1-.575-.813l3.17-2.716-3.084,1.78a.5.5,0,0,1-.573-.815l2.877-2.437-2.766,1.6a.5.5,0,0,1-.581-.808l2.915-2.566L32.9,35.814a.5.5,0,0,1-.586-.8l2.595-2.349L32.425,34.1a.5.5,0,0,1-.575-.813l1.435-1.227-1.232.711a.5.5,0,0,1-.594-.8l1.547-1.462-1.364.787a.5.5,0,0,1-.612-.778L32.193,29.3l-.956.552a.5.5,0,0,1-.646-.738l.722-.942-.469.271a.5.5,0,0,1-.75-.414l-.049-1.256a.5.5,0,0,1-.186-.929l.408-.236a.5.5,0,0,1,.75.414l.044,1.141,1.927-1.113a.5.5,0,0,1,.647.737l-.723.942,1.8-1.036a.5.5,0,0,1,.611.779l-1.163,1.219,2.039-1.177a.5.5,0,0,1,.594.8l-1.547,1.462,2.239-1.293a.5.5,0,0,1,.576.813L36.623,30.52l1.857-1.073a.5.5,0,0,1,.586.8l-2.6,2.35,3.106-1.794a.5.5,0,0,1,.58.808l-2.916,2.569,3.231-1.865a.5.5,0,0,1,.573.815l-2.873,2.434,2.941-1.7a.5.5,0,0,1,.575.813L38.516,37.4l3.036-1.752a.5.5,0,0,1,.578.81l-3.3,2.872,2.877-1.661a.5.5,0,0,1,.571.816L39.775,40.58l1.776-1.024a.5.5,0,0,1,.552.831l-.582.441a.5.5,0,0,1,.374.2.5.5,0,0,1-.046.66L39.286,44.21l.681-.393a.5.5,0,0,1,.5.866l-4.059,2.342A.49.49,0,0,1,36.158,47.093Z" fill="#cd4c60"/></g><g id="Lines"><path d="M.4,38.84C1.425,43.928-2.542,58.631,4,59.45h49.87c5.97.823,6.336-3.808,5.73-8.48q0-21.827,0-43.656c0-1.855.415-4.313-1.054-5.753-5.736-2.489-13-.328-19.235-1.012C-9.4,2.122,1.587-10.471.4,38.84ZM53.655,58.55H4.1c-3.411-.743-2.5-5.3-2.5-7.579-.043-13.807.084-27.61-.046-41.416H58.4V46.721C58.4,51.3,60.067,58.55,53.655,58.55ZM1.6,4.163C2.6.664,5.55,1.45,8.138,1.45H34.479c6.928.316,14.164-.537,21.016,0,3.707,1.123,2.782,4.124,2.905,7H1.474A13.2,13.2,0,0,1,1.6,4.163Z" fill="#262626"/><path d="M4.928,5.561c.586-.016,1.465.186,1.561-.621C6.473,3.632,3.315,4.867,4.928,5.561Z" fill="#262626"/><path d="M9.887,5.448c.683.207,2.622-.285,1.226-.9C10.43,4.345,8.491,4.837,9.887,5.448Z" fill="#262626"/><path d="M14.942,5.588c.861.291,2.3-.571,1.116-1.176C15.2,4.121,13.755,4.983,14.942,5.588Z" fill="#262626"/><path d="M48.913,5.559c1.046-.272,8.116.852,6.175-1.118C54.041,4.712,46.971,3.589,48.913,5.559Z" fill="#262626"/><path d="M47.28,35.612a24.568,24.568,0,0,0-5.062-.074,12.185,12.185,0,0,0-2.127-4.959c1.245-1.164,2.84-2.376,3.616-3.851,1.246-.915-1.276-8.614-2.166-5.444,2.264,3.558,1.251,6.212-2.019,8.563A11.846,11.846,0,0,0,35.6,26.79c.268-2.635-.556-5.582-3.192-6.681,3.584-7.06,1.531-7.548-1.026-.37a5.561,5.561,0,0,0-2.719-.032c-2.514-7.235-4.707-6.617-1.13.4-2.706,1.141-3.353,4.168-3.13,6.824a12.373,12.373,0,0,0-3.824,2.956c-3.32-2.358-4.341-5.11-2.092-8.689-.994-2.793-3.349,4.4-2.351,5.347.709,1.6,2.534,2.915,3.81,4.131A12.314,12.314,0,0,0,17.8,35.535a23.192,23.192,0,0,0-4.947.077c-1.282-.336-6.4,5.766-3.371,4.614C11.1,36.91,14.1,35.8,17.646,36.443a12.771,12.771,0,0,0,1.184,7.431c-3.742,2.954-5.781,5.653-2.936,10.191.211.529,1.406.449,1.173-.13-2.46-4.036-1.069-6.391,2.33-9.1.992,1.709,3.266,3.508,4.648,2.067a11.992,11.992,0,0,0,11.831.118c1.615,1.334,3.447-.494,4.6-2.308,3.158,2.733,5.214,4.871,2.67,8.966.309,3.516,3.319-4.894,1.825-5.772-.888-1.586-2.6-2.9-3.946-4.172a12.711,12.711,0,0,0,1.318-7.293c3.535-.612,6.483.474,8.111,3.789C53.638,41.318,48.55,35.336,47.28,35.612ZM29.124,20.576c3.422-.726,5.712,2.567,5.286,5.713a12.841,12.841,0,0,0-8.806.118C25.656,23.873,26.079,21.2,29.124,20.576ZM18.553,37.913a11.448,11.448,0,0,1,2.644-7.3,11.168,11.168,0,0,1,8.155-3.989c-1.891,5.989-3.138,12.447-5.124,18.329C21.026,48.685,18.552,40.292,18.553,37.913Zm6.178,8.155c2.417-5.64,3.156-11.718,5.388-17.6,1.737,5.846,3.25,11.771,4.973,17.611A11.218,11.218,0,0,1,24.731,46.068Zm15.731-3.15c-.587,2.01-1.989,3.212-4.52,2.4L30.719,26.636C38.422,27,43.965,35.909,40.462,42.918Z" fill="#262626"/></g></svg>
