<?xml version="1.0" encoding="UTF-8"?>
<svg xmlns="http://www.w3.org/2000/svg" id="icons" viewBox="0 0 60 60" width="512" height="512"><path d="M8.656,55.47a.5.5,0,0,1-.259-.928L14.98,50.55,6.575,55.4a.5.5,0,0,1-.511-.859L22.1,44.718,3.692,55.345a.5.5,0,0,1-.512-.859L25.15,40.944,1.968,54.328a.5.5,0,0,1-.508-.861L8.052,49.5,1.421,53.326a.5.5,0,0,1-.514-.857l26.2-16.22L1.279,51.158A.5.5,0,0,1,.766,50.3l26.3-16.285L1.279,48.905a.5.5,0,0,1-.507-.861l3.042-1.825L1.279,47.682a.5.5,0,0,1-.509-.86L17.925,36.379,1.278,45.989a.5.5,0,0,1-.511-.858L22.633,31.72,1.278,44.048a.5.5,0,0,1-.512-.859L26.138,27.516,1.278,41.868a.5.5,0,0,1-.507-.861L4.2,38.949,1.277,40.636a.5.5,0,0,1-.507-.862l3.943-2.369L1.277,39.389a.5.5,0,0,1-.512-.859l20.61-12.7-20.1,11.6a.5.5,0,0,1-.512-.859L18.009,25.947,1.276,35.607a.5.5,0,0,1-.515-.856L20.2,22.59,1.276,33.517a.5.5,0,0,1-.517-.856L19.753,20.629,1.275,31.3A.5.5,0,0,1,.76,30.44l12.925-8.1L1.275,29.509a.5.5,0,0,1-.52-.854L15.8,18.991,1.274,27.376a.5.5,0,0,1-.52-.854l11.982-7.711L1.274,25.428a.5.5,0,0,1-.523-.852l10.51-6.848L1.274,23.493a.5.5,0,0,1-.525-.849l8.968-5.929L1.273,21.589a.5.5,0,0,1-.535-.844l8.981-6.223L1.273,19.4a.5.5,0,0,1-.526-.849l3.1-2.058L1.273,17.977a.5.5,0,0,1-.545-.836l5.607-4.114L1.272,15.949a.5.5,0,0,1-.547-.834l3.128-2.324L1.272,14.28a.5.5,0,0,1-.548-.834l.96-.715-.413.238a.5.5,0,0,1-.6-.79l1.766-1.724-1.167.673a.5.5,0,0,1-.6-.077.5.5,0,0,1-.085-.6l.694-1.24a.5.5,0,0,1-.2-.932L2.263,7.6a.5.5,0,0,1,.686.677l-.6,1.08L5.389,7.6a.5.5,0,0,1,.6.79L4.222,10.111,8.578,7.6a.5.5,0,0,1,.549.834l-.957.713L10.852,7.6a.5.5,0,0,1,.547.834l-3.13,2.326L13.743,7.6a.5.5,0,0,1,.546.836l-5.6,4.111L17.256,7.6a.5.5,0,0,1,.526.849l-3.11,2.064L19.719,7.6a.5.5,0,0,1,.535.843L11.275,14.66,23.516,7.594a.5.5,0,0,1,.525.849l-8.963,5.926L26.815,7.593a.5.5,0,0,1,.524.851L16.826,15.3l13.341-7.7a.5.5,0,0,1,.521.853L18.7,16.16,33.544,7.592a.5.5,0,0,1,.52.853L19.021,18.109,37.239,7.592a.5.5,0,0,1,.516.856L24.846,16.534l15.49-8.943a.5.5,0,0,1,.518.855l-19,12.033L44.184,7.59a.5.5,0,0,1,.515.856L25.246,20.614,47.807,7.59a.5.5,0,0,1,.512.858L31.1,19.057,50.963,7.589a.5.5,0,0,1,.513.858L30.844,21.164,53.961,7.818a.5.5,0,0,1,.508.862l-3.89,2.337L54.72,8.626a.5.5,0,0,1,.507.861L51.8,11.545l2.922-1.687a.5.5,0,0,1,.512.859L29.846,26.4,54.723,12.038a.5.5,0,0,1,.511.858L33.359,26.313,54.724,13.979a.5.5,0,0,1,.509.86L38.1,25.27l16.625-9.6a.5.5,0,0,1,.506.861l-3.065,1.84,2.56-1.477a.5.5,0,0,1,.513.857L28.94,34.034,54.727,19.146A.5.5,0,0,1,55.24,20l-26.2,16.223L54.729,21.4a.5.5,0,0,1,.507.861L48.67,26.21l6.059-3.5a.5.5,0,0,1,.513.858L33.272,37.112,54.73,24.724a.5.5,0,0,1,.512.859L39.2,35.41l15.529-8.965a.5.5,0,0,1,.509.861l-6.6,4,6.088-3.515a.5.5,0,0,1,.509.86l-2.005,1.213,1.5-.863a.5.5,0,0,1,.519.854L38.042,40.8l16.692-9.637a.5.5,0,0,1,.519.855L43.131,39.744l11.6-6.7a.5.5,0,0,1,.519.854l-7.521,4.8,7-4.043a.5.5,0,0,1,.53.848l-8.621,5.806,8.092-4.672a.5.5,0,0,1,.54.84L49.1,41.88l5.64-3.257a.5.5,0,0,1,.554.829L51.969,42l2.772-1.6a.5.5,0,0,1,.645.741L53.93,43.01l.812-.469a.5.5,0,1,1,.5.865l-3.031,1.75a.5.5,0,0,1-.645-.74l1.456-1.869L45.834,46.7a.5.5,0,0,1-.554-.829L48.6,43.319,40.54,47.976a.5.5,0,0,1-.54-.84l6.184-4.407L34.617,49.406a.5.5,0,0,1-.529-.847l8.619-5.8L28.714,50.833a.5.5,0,0,1-.519-.854l7.52-4.8-11.8,6.811a.5.5,0,0,1-.519-.854L35.52,43.41,18.309,53.347a.5.5,0,0,1-.519-.855L35.006,41.545,11.867,54.9a.5.5,0,0,1-.509-.86l2-1.212L8.906,55.4A.5.5,0,0,1,8.656,55.47Z" fill="#e1efff"/><path d="M1.929,9.5a.5.5,0,0,1-.288-.908L3.926,6.979,1.28,8.506A.5.5,0,0,1,.708,7.69l4.039-3.4-3.467,2a.5.5,0,0,1-.555-.828l.46-.357a.5.5,0,0,1-.557-.771L1.845,2.678A.5.5,0,0,1,1.362,1.8L3.411.62a.5.5,0,0,1,.652.729L2.848,3,7.015.6a.5.5,0,0,1,.555.828l-.392.3L9.14.6a.5.5,0,0,1,.572.815l-4.039,3.4L12.979.6a.5.5,0,0,1,.539.84L11.229,3.053,15.482.6a.5.5,0,0,1,.564.822L11.182,5.34,19.4.6a.5.5,0,0,1,.531.846l-.073.049L21.406.6a.5.5,0,0,1,.55.833l-3.948,2.96L24.578.6a.5.5,0,0,1,.541.839L22.275,3.475,27.26.6a.5.5,0,0,1,.541.839L25,3.443,29.928.6a.5.5,0,0,1,.541.84L27.728,3.4,32.574.6a.5.5,0,0,1,.557.828L28.674,4.881,36.093.6a.5.5,0,0,1,.547.835L33,4.123,39.1.6a.5.5,0,0,1,.539.84L37.311,3.087,41.623.6a.5.5,0,0,1,.535.843L40.629,2.5l3.3-1.9a.5.5,0,0,1,.543.838l-3.053,2.2L46.687.6a.5.5,0,0,1,.535.842l-1.7,1.181L49.031.6a.5.5,0,0,1,.549.833L45.718,4.317l6.4-3.695a.5.5,0,0,1,.54.84L50.045,3.325l3.574-2.063a.5.5,0,0,1,.555.829l-3.5,2.695,3.862-2.229a.5.5,0,0,1,.553.831L53.525,4.576l1.2-.69a.5.5,0,0,1,.583.8l-1.6,1.428,1.024-.591a.5.5,0,0,1,.609.084.5.5,0,0,1,.067.612L54.59,7.546l.153-.088a.5.5,0,1,1,.5.865L53.372,9.4a.5.5,0,0,1-.676-.7l.818-1.322L50.015,9.4a.5.5,0,0,1-.583-.8l1.6-1.428L47.156,9.407a.5.5,0,0,1-.552-.831l1.565-1.187-3.5,2.019a.5.5,0,0,1-.555-.829l3.5-2.694-6.1,3.525a.5.5,0,0,1-.54-.84l2.613-1.863L38.893,9.412a.5.5,0,0,1-.549-.833l3.864-2.888L35.761,9.413a.5.5,0,0,1-.535-.843l1.7-1.182L33.412,9.415a.5.5,0,0,1-.543-.838l3.054-2.2L30.65,9.416a.5.5,0,0,1-.671-.165.5.5,0,0,1,.136-.679l1.524-1.055-3.294,1.9a.5.5,0,0,1-.538-.841l2.337-1.651-4.32,2.493a.5.5,0,0,1-.547-.835L28.916,5.9,22.81,9.421a.5.5,0,0,1-.557-.828l4.458-3.456L19.287,9.423a.5.5,0,0,1-.541-.84l2.745-1.961-4.853,2.8a.5.5,0,0,1-.541-.839L18.9,6.58,13.968,9.426a.5.5,0,0,1-.541-.839l2.847-2.041L11.283,9.427a.5.5,0,0,1-.55-.833l3.948-2.959L8.108,9.429a.5.5,0,0,1-.53-.847l.073-.05L6.1,9.43a.5.5,0,0,1-.564-.823L10.4,4.688,2.179,9.432A.494.494,0,0,1,1.929,9.5Z" fill="#3778c6"/><path d="M24.486,59.47a.5.5,0,0,1-.263-.925l2.8-1.742-4.5,2.6A.5.5,0,0,1,22,58.55l13.346-8.633L18.915,59.4a.5.5,0,0,1-.516-.856l8.885-5.558L16.174,59.4a.5.5,0,0,1-.52-.853L31.528,48.405,13.315,58.92a.5.5,0,0,1-.51-.859l4.144-2.54L12.16,58.286a.5.5,0,0,1-.514-.857l9.771-6.051L11.078,57.347a.5.5,0,0,1-.517-.855L27.72,45.606,10.02,55.825a.5.5,0,0,1-.514-.857l11.6-7.213L9.5,54.455a.5.5,0,0,1-.516-.856L22.4,45.213,9.284,52.782a.5.5,0,0,1-.516-.855L24.16,42.205l-14.5,8.37a.5.5,0,0,1-.52-.853L26.716,38.43,11.594,47.16a.5.5,0,0,1-.518-.855L22.87,38.838l-9.516,5.494a.5.5,0,0,1-.513-.857l4.126-2.566-2.315,1.336a.5.5,0,0,1-.522-.851L26.119,33.6l-9.5,5.485a.5.5,0,0,1-.525-.851l10.783-7.1-8.288,4.785a.5.5,0,0,1-.524-.852l7.128-4.658-4.955,2.86a.5.5,0,0,1-.523-.85l5-3.274-2.98,1.72a.5.5,0,0,1-.535-.843l7.6-5.28-5.078,2.932a.5.5,0,0,1-.529-.849l1.917-1.28-.1.055a.5.5,0,0,1-.532-.844l1.706-1.17a.507.507,0,0,1-.562-.207.5.5,0,0,1,.127-.678l1.8-1.3a.5.5,0,0,1-.486-.844L29.3,18.475a.5.5,0,0,1-.147-.922L32.194,15.8a.5.5,0,0,1,.591.8l-1.821,1.7,4.327-2.5a.5.5,0,0,1,.543.838l-1.688,1.223,2.61-1.506a.5.5,0,0,1,.532.844l-1.556,1.067,2.079-1.2a.5.5,0,0,1,.528.848l-1.926,1.286L38.652,17.9a.5.5,0,0,1,.536.843l-7.6,5.279,8.059-4.653a.5.5,0,0,1,.524.851l-4.992,3.269L40.354,20.5a.5.5,0,0,1,.524.851l-7.135,4.664,7.389-4.266a.5.5,0,0,1,.525.851l-10.787,7.1,11.191-6.46a.5.5,0,0,1,.522.852L30.6,31.882l12.383-7.15a.5.5,0,0,1,.514.858l-4.113,2.557L43.6,25.716a.5.5,0,0,1,.517.855l-11.8,7.468,12.108-6.99a.5.5,0,0,1,.52.853L27.372,39.2,45.481,28.741A.5.5,0,0,1,46,29.6L30.6,39.318,46.392,30.2a.5.5,0,0,1,.515.857L33.495,39.45l13.721-7.922a.5.5,0,0,1,.513.858L36.115,39.6l11.864-6.848a.5.5,0,0,1,.518.854L31.342,44.493,48.956,34.324a.5.5,0,0,1,.514.858l-9.762,6.045,9.964-5.752a.5.5,0,0,1,.511.859l-4.149,2.542,4.234-2.444a.5.5,0,0,1,.519.853L34.909,47.432,51.244,38a.5.5,0,0,1,.516.856l-8.882,5.556,9.091-5.248a.5.5,0,0,1,.521.853L39.145,48.65,52.922,40.7a.5.5,0,0,1,.514.858L50.627,43.3l2.881-1.663a.5.5,0,0,1,.521.852L44.46,48.683l9.882-5.7a.5.5,0,0,1,.516.855l-3.38,2.136,3.476-2.007a.5.5,0,0,1,.531.846L45.2,51.814,55.971,45.6a.5.5,0,0,1,.532.845L48.441,51.95l8.45-4.878a.5.5,0,0,1,.525.851l-3.237,2.132,3.36-1.94a.5.5,0,0,1,.536.843L52.8,52.632l5.46-3.152a.5.5,0,0,1,.543.838L54.179,53.66l4.483-2.588a.5.5,0,0,1,.55.832L55.9,54.388l2.75-1.587a.5.5,0,0,1,.544.837l-.659.48a.507.507,0,0,1,.431.2.5.5,0,0,1-.066.664l-1.7,1.559a.492.492,0,0,1,.3.231.5.5,0,0,1-.183.683l-3.037,1.753a.5.5,0,0,1-.588-.8l1.186-1.089L51.277,59.4a.5.5,0,0,1-.544-.837l.248-.18L49.218,59.4a.5.5,0,0,1-.55-.832l3.306-2.482L46.232,59.4a.5.5,0,0,1-.543-.838l4.622-3.341L43.071,59.4a.5.5,0,0,1-.536-.842l5.276-3.674L39.988,59.4a.5.5,0,0,1-.525-.85L42.7,56.419,37.533,59.4A.5.5,0,0,1,37,58.557l8.064-5.511L34.055,59.4a.5.5,0,0,1-.532-.845l10.284-7L30.21,59.4a.5.5,0,0,1-.517-.855l3.391-2.142-5.192,3a.5.5,0,0,1-.522-.852l9.572-6.195L24.736,59.4A.5.5,0,0,1,24.486,59.47Z" fill="#cd4c60"/><path d="M33.335,46.352a.5.5,0,0,1-.391-.812l.984-1.233-1.5.865a.5.5,0,0,1-.6-.794l.775-.74-.329.189a.5.5,0,0,1-.589-.8l.629-.58-.04.023a.5.5,0,0,1-.593-.8l.851-.806-.258.149a.5.5,0,0,1-.6-.786l1.282-1.289-.678.392a.5.5,0,0,1-.627-.761l1.971-2.262-1.344.775a.5.5,0,0,1-.587-.8l.54-.493a.5.5,0,0,1-.55-.816l1.025-.994-.428.248a.5.5,0,0,1-.617-.773l1.695-1.831-1.078.622a.5.5,0,0,1-.6-.793l.972-.934-.376.216a.5.5,0,0,1-.6-.79l.705-.688-.106.06a.5.5,0,0,1-.663-.714l.762-1.12a.5.5,0,0,1-.314-.928l1.658-.956a.5.5,0,0,1,.663.713l-.711,1.046,1.662-.96a.5.5,0,0,1,.6.79l-.707.69.49-.282a.5.5,0,0,1,.6.793l-.972.934.376-.217a.5.5,0,0,1,.617.773l-1.694,1.829,1.077-.621a.5.5,0,0,1,.6.792l-1.025.993.428-.247a.5.5,0,0,1,.587.8l-.543.5a.5.5,0,0,1,.583.784l-1.97,2.262,1.343-.776a.5.5,0,0,1,.6.786L35.04,38.27l.68-.393a.5.5,0,0,1,.593.8l-.851.806.258-.149a.5.5,0,0,1,.589.8l-.626.578.037-.021a.5.5,0,0,1,.595.793l-.774.74.179-.1a.5.5,0,0,1,.64.744L35.375,44.1l.312-.18a.5.5,0,0,1,.5.865l-2.6,1.5A.49.49,0,0,1,33.335,46.352Z" fill="#fff"/><path d="M34.028,54.468a.5.5,0,0,1-.386-.818l.166-.2-.831.48a.5.5,0,0,1-.628-.76l.628-.727-.655.378a.5.5,0,0,1-.638-.747l.488-.605a.488.488,0,0,1-.289-.229.5.5,0,0,1,.182-.682l1.658-.956a.5.5,0,0,1,.638.747l-.213.263.9-.518a.5.5,0,0,1,.628.76l-.629.727.64-.369a.5.5,0,0,1,.636.75l-.475.579a.5.5,0,0,1,.087.905l-1.656.956A.49.49,0,0,1,34.028,54.468Z" fill="#fff"/><path d="M.4,50.36c.2,5.549,4.091,5.123,8.724,5.093,1.3,2.863,4.535,4.063,7.912,4.109,11.792.161,23.6,0,35.391,0C61.7,58.1,60.182,49.421,55.6,43.64V8.672c0-3.4.763-7.44-3.632-8.122C40.2.072,28.25.834,16.44.549,12.485.55,7.922-.08,4,.55-.395,1.255.4,5.343.4,8.745.531,22.612.144,36.5.4,50.36Zm52.153,8.078H28.211c-5.74-.665-14.335,2.266-18.132-3.281a.418.418,0,0,0-.226-.533c-2.431-5.3,13.467-25.168,16.638-31.442,6.709-12.54,13.039-4.612,17.548,4.29C47.568,33.11,51,38.72,54.565,44.338,57.771,49.384,62.429,57.509,52.553,58.438Zm-1.1-21.2C43.461,26.225,35.811,1.587,24.09,25.34q-5.208,8.367-10.415,16.734c-2.207,3.5-6.315,8.008-4.874,12.491-5.428.479-8.17-.779-7.2-6.7-.081-12.794.161-25.548-.094-38.343H54.4q-.009,16.131,0,32.264C53.4,40.266,52.4,38.756,51.454,37.239ZM4.34,1.45c3.453-.962,8.555,0,12.109,0h19.9c4.522,0,9.929-.83,14.387,0,3.953.736,3.781,3.824,3.69,7.028H1.444C1.291,5.564,1.418,2.264,4.34,1.45Z" fill="#262626"/><path d="M34.011,25.409c-4-.007-2.469,8.94-2.469,11.038s-1.347,9.762,2.2,10.111c4.3-.6,2.717-7.909,2.711-11.005C36.458,33.393,37.868,25.416,34.011,25.409Zm0,20c-2.652,0-1.553-8.547-1.553-9.856,0-1.381-1.034-8.95,1.531-8.962s1.553,7.8,1.553,9.082C35.542,37.665,36.8,44.654,34.011,45.409Z" fill="#262626"/><path d="M36.524,51.786c-.221-3.348-5.055-2.787-5.048.363C31.6,55.591,36.6,55,36.524,51.786Zm-3.989.065c.067-1.988,2.984-1.485,2.93.306C35.288,54.074,32.523,53.67,32.535,51.851Z" fill="#262626"/><path d="M4.829,5.539c.577-.041,1.433.211,1.663-.51.073-.237-.022-.568-.321-.568-.577.041-1.433-.211-1.663.51C4.435,5.208,4.53,5.539,4.829,5.539Z" fill="#262626"/><path d="M10.036,5.461c.483-.084,1.46.269,1.553-.419a.644.644,0,0,0-.625-.5c-.483.084-1.46-.269-1.553.419A.644.644,0,0,0,10.036,5.461Z" fill="#262626"/><path d="M15.17,5.462h1c.795-.115.266-1.045-.34-.924h-1C14.035,4.653,14.564,5.583,15.17,5.462Z" fill="#262626"/><path d="M44.846,5.468h6c.609,0,1.091-.936.308-.936h-6C44.545,4.532,44.063,5.468,44.846,5.468Z" fill="#262626"/></svg>
