<svg id="Capa_1" enable-background="new 0 0 512 512" height="512" viewBox="0 0 512 512" width="512" xmlns="http://www.w3.org/2000/svg"><g><path d="m437.02 74.98c-44.069-44.067-100.353-74.98-162.952-74.98-11.401 0-18.068 11.632-18.068 24.037v71.297c88.592 0 160.667 72.075 160.667 160.666 0 88.592-72.075 160.667-160.667 160.667s-160.667-72.075-160.667-160.667c0-8.284-30-15-30-15h-50.333c-8.284 0-15 6.716-15 15 0 68.38 26.629 132.668 74.98 181.02 48.352 48.351 112.64 74.98 181.02 74.98s132.667-26.629 181.02-74.98c48.351-48.352 74.98-112.64 74.98-181.02s-26.629-132.668-74.98-181.02z" fill="#c2e541"/><path d="m437.02 74.98c-44.069-44.067-100.353-74.98-162.952-74.98-11.401 0-18.068 11.632-18.068 24.037v71.297c88.592 0 160.667 72.075 160.667 160.666 0 88.592-72.075 160.667-160.667 160.667v95.333c68.38 0 132.667-26.629 181.02-74.98 48.351-48.352 74.98-112.64 74.98-181.02s-26.629-132.668-74.98-181.02z" fill="#a6d12d"/><path d="m344.624 167.376c-2.813-2.813-6.628-4.394-10.607-4.394-3.978 0-7.793 1.58-10.606 4.394l-46.198 46.198c-5.858 5.857-5.858 15.355 0 21.213 5.666 5.666 8.787 13.2 8.787 21.213 0 16.542-13.458 30-30 30s-30-13.458-30-30c0-8.284-6.716-15-15-15h-50s-30.333 6.716-30.333 15c0 69.109 56.224 125.333 125.333 125.333s125.333-56.224 125.333-125.333c0-33.477-13.037-64.951-36.709-88.624z" fill="#ffda2d"/><path d="m256 65.334c-50.929 0-98.81 19.832-134.821 55.845-5.858 5.858-5.858 15.355 0 21.213l46.197 46.197c5.857 5.857 15.354 5.858 21.213.001 18.006-18.006 41.947-27.922 67.411-27.922 52.567 0 95.333 42.766 95.333 95.333s-42.766 95.332-95.333 95.332-95.334-42.766-95.334-95.333h.334v-15h-95.667v15c0 105.134 85.533 190.667 190.667 190.667s190.667-85.533 190.667-190.667-85.533-190.666-190.667-190.666z" fill="#5f77af"/><path d="m344.624 167.376c-2.813-2.813-6.628-4.394-10.607-4.394-3.978 0-7.793 1.58-10.606 4.394l-46.198 46.198c-5.858 5.857-5.858 15.355 0 21.213 5.666 5.666 8.787 13.2 8.787 21.213 0 16.542-13.458 30-30 30v95.333c69.109 0 125.333-56.224 125.333-125.333 0-33.477-13.037-64.951-36.709-88.624z" fill="#febf01"/><path d="m256 65.334v95.333c52.567 0 95.333 42.766 95.333 95.333s-42.766 95.333-95.333 95.333v95.333c105.134 0 190.667-85.533 190.667-190.667 0-105.133-85.533-190.665-190.667-190.665z" fill="#455da0"/></g></svg>