<?xml version="1.0" encoding="UTF-8"?>
<svg xmlns="http://www.w3.org/2000/svg" viewBox="0 0 64 64" width="512" height="512"><g id="elastic"><path d="M54,39a8,8,0,0,0,.58-15.98A11,11,0,0,0,36.41,12.04,13.99,13.99,0,0,0,9,16a13.88,13.88,0,0,0,1.88,7H10a8,8,0,0,0,0,16h5.78A10.9,10.9,0,0,0,14,45a10.792,10.792,0,0,0,1.21,5H15a6,6,0,0,0,0,12H49a6,6,0,0,0,.6-11.97A3.507,3.507,0,0,0,50,48.5,8.506,8.506,0,0,0,41.5,40a8.6,8.6,0,0,0-1.82.2,6.911,6.911,0,0,0,.25-1.2ZM41.5,42A6.513,6.513,0,0,1,48,48.5a3.068,3.068,0,0,1-.47,1.17,6.909,6.909,0,0,0-.47.99,1.035,1.035,0,0,0,.12.92A1.014,1.014,0,0,0,48,52h1a4,4,0,0,1,0,8H15a4,4,0,0,1,0-8h2.01a1,1,0,0,0,.8-1.6,8.984,8.984,0,0,1,6.03-14.32l.32.32A8.428,8.428,0,0,0,24,38a8,8,0,0,0,5,7.41V50H25a1,1,0,0,0-.65,1.76l7,6a1,1,0,0,0,1.3,0l7-6A1,1,0,0,0,39,50H35V45.41a8.023,8.023,0,0,0,3.87-3.33l.17.41A6.316,6.316,0,0,1,41.5,42ZM21.68,28.27l4.39,4.38a8.088,8.088,0,0,0-1.17,1.67l-4.63-4.64a1.014,1.014,0,0,0-1.42,0L17.24,31.3l.43-5.63,5.63-.43-1.62,1.61a1.033,1.033,0,0,0-.29.71A1.052,1.052,0,0,0,21.68,28.27ZM30,20H27.7L32,16.32,36.3,20H34a1,1,0,0,0-1,1v9.07a7.178,7.178,0,0,0-2,0V21A1,1,0,0,0,30,20Zm2,12a6,6,0,1,1-6,6A6,6,0,0,1,32,32Zm2,20h2.3L32,55.68,27.7,52H30a1,1,0,0,0,1-1V45.93a7.178,7.178,0,0,0,2,0V51A1,1,0,0,0,34,52Zm5.1-17.68a8.088,8.088,0,0,0-1.17-1.67l4.39-4.38a1.052,1.052,0,0,0,.29-.71,1.033,1.033,0,0,0-.29-.71L40.7,25.24l5.63.43.43,5.63-1.61-1.62a1.014,1.014,0,0,0-1.42,0Zm5.34-2.51,2.82,2.83a1,1,0,0,0,1.71-.79l-.71-9.19a1.006,1.006,0,0,0-.92-.92l-9.19-.71a1.013,1.013,0,0,0-.99.58,1.028,1.028,0,0,0,.2,1.13l2.83,2.82-3.77,3.78A7.712,7.712,0,0,0,35,30.59V22h4a1,1,0,0,0,.65-1.76l-7-6a1,1,0,0,0-1.3,0l-7,6A1,1,0,0,0,25,22h4v8.59a7.712,7.712,0,0,0-1.42.75l-3.77-3.78,2.83-2.82a1.028,1.028,0,0,0,.2-1.13,1.013,1.013,0,0,0-.99-.58l-9.19.71a1.006,1.006,0,0,0-.92.92l-.71,9.19a1.013,1.013,0,0,0,.58.99,1.028,1.028,0,0,0,1.13-.2l2.82-2.83,2.58,2.57A10.957,10.957,0,0,0,17.47,37H10a6,6,0,0,1,0-12h2.77a1,1,0,0,0,.79-1.62A11.818,11.818,0,0,1,11,16a11.992,11.992,0,0,1,23.87-1.66,1,1,0,0,0,.75.83.991.991,0,0,0,1.05-.39A9,9,0,0,1,53,20a8.747,8.747,0,0,1-.76,3.6,1.034,1.034,0,0,0,.08.95,1.013,1.013,0,0,0,.84.45H54a6,6,0,0,1,0,12H39.93q-.03-.3-.09-.6Z"/></g></svg>
