<svg id="Icons" height="512" viewBox="0 0 60 60" width="512" xmlns="http://www.w3.org/2000/svg"><path d="m8.667 56.473a.5.5 0 0 1 -.259-.928l7.011-4.245-8.39 4.84a.5.5 0 0 1 -.513-.858l22.452-13.932-23.305 13.455a.5.5 0 0 1 -.509-.861l6.151-3.711-6.476 3.739a.5.5 0 0 1 -.512-.859l20.731-12.749-20.768 11.99a.5.5 0 0 1 -.513-.858l25.577-15.888-25.064 14.471a.5.5 0 0 1 -.51-.859l19.113-11.707-18.6 10.74a.5.5 0 0 1 -.508-.86l9.265-5.6-8.761 5.055a.5.5 0 0 1 -.51-.86l18.348-11.224-17.838 10.299a.5.5 0 0 1 -.51-.86l19.191-11.756-18.681 10.784a.5.5 0 0 1 -.512-.857l23.8-14.719-23.288 13.445a.5.5 0 0 1 -.513-.858l25.623-15.916-25.11 14.5a.5.5 0 0 1 -.511-.858l21.462-13.219-20.951 12.096a.5.5 0 0 1 -.507-.862l.44-.263a.5.5 0 0 1 -.443-.893l14.959-9.127-14.449 8.336a.5.5 0 0 1 -.512-.858l18.67-11.516-18.158 10.484a.5.5 0 0 1 -.512-.859l16.077-9.927-15.565 8.986a.5.5 0 0 1 -.512-.859l12.606-7.773-12.095 6.986a.5.5 0 0 1 -.515-.856l15.986-10.051-15.471 8.932a.5.5 0 0 1 -.512-.859l7.161-4.42-6.649 3.838a.5.5 0 0 1 -.522-.852l15.9-10.308-15.378 8.876a.5.5 0 0 1 -.513-.857l3.766-2.343-3.253 1.878a.5.5 0 0 1 -.526-.85l12.49-8.28-11.964 6.907a.5.5 0 0 1 -.529-.848l10.216-6.874-9.687 5.592a.5.5 0 0 1 -.523-.851l4.56-2.982-4.037 2.331a.5.5 0 0 1 -.533-.844l6.089-4.189-5.556 3.21a.5.5 0 0 1 -.525-.85l.49-.324a.5.5 0 0 1 -.522-.845l5.033-3.93-4.476 2.581a.5.5 0 0 1 -.564-.821l2.667-2.157-2.1 1.214a.5.5 0 0 1 -.632-.754l2.215-2.645a.5.5 0 0 1 -.073-.9l1.683-.969a.5.5 0 0 1 .632.754l-1.874 2.231 5.176-2.985a.5.5 0 0 1 .565.821l-2.663 2.151 5.153-2.972a.5.5 0 0 1 .558.827l-5.037 3.928 8.244-4.755a.5.5 0 0 1 .525.849l-.477.315 2.018-1.164a.5.5 0 0 1 .533.844l-6.086 4.184 8.715-5.028a.5.5 0 0 1 .523.851l-4.567 2.983 6.647-3.834a.5.5 0 0 1 .529.847l-10.214 6.87 13.373-7.717a.5.5 0 0 1 .526.849l-12.491 8.278 15.818-9.127a.5.5 0 0 1 .513.857l-3.762 2.335 5.536-3.2a.5.5 0 0 1 .522.852l-15.899 10.315 19.336-11.159a.5.5 0 0 1 .512.858l-7.173 4.424 9.157-5.282a.5.5 0 0 1 .515.855l-15.979 10.039 18.878-10.894a.5.5 0 0 1 .513.858l-12.612 7.772 14.957-8.63a.5.5 0 0 1 .513.858l-16.051 9.907 18.654-10.765a.5.5 0 0 1 .513.858l-18.678 11.516 20-11.548a.5.5 0 0 1 .511.859l-14.968 9.139 15.506-8.952a.5.5 0 0 1 .507.861l-.164.1.392-.226a.5.5 0 0 1 .511.858l-21.468 13.218 21.328-12.313a.5.5 0 0 1 .513.857l-25.611 15.91 25.1-14.49a.5.5 0 0 1 .512.857l-23.823 14.732 23.31-13.457a.5.5 0 0 1 .51.859l-19.173 11.745 18.663-10.774a.5.5 0 0 1 .51.859l-18.348 11.225 17.838-10.3a.5.5 0 0 1 .508.86l-9.265 5.6 8.757-5.053a.5.5 0 0 1 .51.86l-19.1 11.7 18.59-10.734a.5.5 0 0 1 .513.857l-25.577 15.888 25.064-14.471a.5.5 0 0 1 .511.858l-20.738 12.755 20.227-11.677a.5.5 0 0 1 .508.86l-6.149 3.71 5.641-3.256a.5.5 0 0 1 .513.857l-22.456 13.935 21.943-12.668a.5.5 0 0 1 .508.86l-6.981 4.231 6.473-3.736a.5.5 0 0 1 .516.855l-21.217 13.354 20.7-11.951a.5.5 0 0 1 .515.857l-16.735 10.497 16.226-9.367a.5.5 0 0 1 .516.855l-14.981 9.448 14.461-8.348a.5.5 0 0 1 .521.852l-16.053 10.386 15.532-8.967a.5.5 0 0 1 .519.854l-10.928 6.99 10.409-6.009a.5.5 0 0 1 .514.857l-2.453 1.531 1.939-1.123a.5.5 0 0 1 .521.852l-7.837 5.073 7.316-4.222a.5.5 0 0 1 .524.85l-6.618 4.337 6.094-3.517a.5.5 0 0 1 .538.842l-8.475 5.968 7.937-4.582a.5.5 0 0 1 .534.845l-4.407 3.037 3.873-2.235a.5.5 0 0 1 .538.842l-2.91 2.045 2.372-1.369a.5.5 0 0 1 .567.82l-3.766 3.086 3.2-1.847a.5.5 0 0 1 .6.789l-2.2 2.166 1.316-.759a.5.5 0 1 1 .5.865l-4.7 2.712a.5.5 0 0 1 -.6-.789l2.2-2.165-5.118 2.956a.5.5 0 0 1 -.568-.819l3.766-3.081-6.765 3.9a.5.5 0 0 1 -.538-.841l2.913-2.048-5.006 2.889a.5.5 0 0 1 -.534-.844l4.411-3.035-6.728 3.879a.5.5 0 0 1 -.538-.841l8.478-5.971-11.801 6.812a.5.5 0 0 1 -.525-.85l6.619-4.338-8.987 5.188a.5.5 0 0 1 -.522-.852l7.825-5.066-10.252 5.918a.5.5 0 0 1 -.515-.856l2.466-1.539-4.149 2.4a.5.5 0 0 1 -.52-.853l10.925-6.988-13.583 7.836a.5.5 0 0 1 -.522-.852l16.062-10.388-19.477 11.24a.5.5 0 0 1 -.516-.855l14.973-9.445-17.842 10.3a.5.5 0 0 1 -.516-.856l16.734-10.489-19.659 11.345a.5.5 0 0 1 -.517-.855l21.213-13.345-24.609 14.205a.5.5 0 0 1 -.25.068z" fill="#31b791"/><path d="m41.815 49.472a.5.5 0 0 1 -.25-.933l9.156-5.286a.5.5 0 0 1 .582.806l-2.282 2.03 1.7-.981a.5.5 0 0 1 .637.748l-1.076 1.323.323-.187a.5.5 0 1 1 .5.865l-2.676 1.543a.5.5 0 0 1 -.638-.748l1.075-1.32-3.585 2.068a.5.5 0 0 1 -.582-.8l2.281-2.032-4.915 2.832a.5.5 0 0 1 -.25.072z" fill="#d6dbe3"/><path d="m20.893 9.649a.5.5 0 0 1 -.25-.932l1.939-1.117a.5.5 0 1 1 .5.865l-1.939 1.117a.5.5 0 0 1 -.25.067z" fill="#d6dbe3"/><path d="m24.236 52.471a.5.5 0 0 1 -.272-.919l10.7-6.951-12.764 7.37a.5.5 0 0 1 -.524-.851l14.641-9.6-15.617 9.016a.5.5 0 0 1 -.514-.857l4.711-2.928-5.149 2.972a.5.5 0 0 1 -.517-.855l11.492-7.289-13.556 7.821a.5.5 0 0 1 -.518-.854l14.7-9.347-17.677 10.201a.5.5 0 0 1 -.513-.858l8.952-5.524-10.9 6.291a.5.5 0 0 1 -.512-.859l9.081-5.579-9.818 5.672a.5.5 0 0 1 -.509-.86l1.071-.649-.91.525a.5.5 0 0 1 -.514-.859l16.622-10.354-16.142 9.319a.5.5 0 0 1 -.514-.856l17.445-10.895-16.931 9.774a.5.5 0 0 1 -.513-.857l15.941-9.912-15.428 8.907a.5.5 0 0 1 -.509-.859l5.253-3.2-4.745 2.74a.5.5 0 0 1 -.509-.861l2.68-1.625-2.171 1.252a.5.5 0 0 1 -.511-.858l10.659-6.547-10.148 5.858a.5.5 0 0 1 -.514-.857l16.758-10.469-16.244 9.38a.5.5 0 0 1 -.513-.857l12.293-7.623-11.78 6.8a.5.5 0 0 1 -.517-.855l15.364-9.745-14.847 8.572a.5.5 0 0 1 -.516-.855l11.3-7.137-10.784 6.228a.5.5 0 0 1 -.522-.852l14.9-9.686-14.381 8.3a.5.5 0 0 1 -.515-.855l7.283-4.579-6.765 3.908a.5.5 0 0 1 -.524-.851l12.893-8.459-12.369 7.142a.5.5 0 0 1 -.525-.85l10.33-6.832-9.8 5.66a.5.5 0 0 1 -.533-.844l9.615-6.593-9.087 5.243a.5.5 0 0 1 -.523-.851l2.834-1.854-2.311 1.334a.5.5 0 0 1 -.555-.828l3.694-2.849-3.139 1.812a.5.5 0 0 1 -.552-.83l.92-.7-.368.211a.5.5 0 0 1 -.6-.792l1.346-1.295-.75.432a.5.5 0 0 1 -.644-.739l.574-.74a.5.5 0 0 1 -.136-.919l1.627-.94a.5.5 0 0 1 .645.74l-.355.457 2.1-1.21a.5.5 0 0 1 .6.793l-1.345 1.293 3.613-2.085a.5.5 0 0 1 .553.83l-.92.7 2.819-1.63a.5.5 0 0 1 .556.828l-3.7 2.851 11.403-6.579a.5.5 0 0 1 .523.85l-2.825 1.85 4.677-2.7a.5.5 0 0 1 .533.844l-9.618 6.6 12.887-7.444a.5.5 0 0 1 .525.849l-10.325 6.826 13.3-7.675a.5.5 0 0 1 .524.85l-12.9 8.464 14.634-8.453a.5.5 0 0 1 .515.855l-7.292 4.584 7.747-4.47a.5.5 0 0 1 .523.851l-14.9 9.686 16.27-9.393a.5.5 0 0 1 .517.856l-11.3 7.133 13.8-7.966a.5.5 0 0 1 .517.854l-15.366 9.743 18.356-10.594a.5.5 0 0 1 .514.857l-12.3 7.626 13.799-7.965a.5.5 0 0 1 .515.857l-16.765 10.468 16.97-9.8a.5.5 0 0 1 .511.859l-10.638 6.538 10.127-5.847a.5.5 0 0 1 .509.861l-2.712 1.646 2.2-1.271a.5.5 0 0 1 .509.859l-5.238 3.19 4.729-2.73a.5.5 0 0 1 .513.857l-15.939 9.912 15.429-8.908a.5.5 0 0 1 .514.857l-17.44 10.891 16.927-9.772a.5.5 0 0 1 .514.857l-16.635 10.363 16.121-9.305a.5.5 0 0 1 .508.86l-1.085.659.577-.333a.5.5 0 0 1 .511.858l-9.082 5.578 8.571-4.947a.5.5 0 0 1 .512.858l-8.945 5.522 8.433-4.868a.5.5 0 0 1 .518.854l-14.7 9.351 14.182-8.192a.5.5 0 0 1 .517.855l-11.486 7.289 10.969-6.332a.5.5 0 0 1 .513.857l-4.7 2.924 4.191-2.419a.5.5 0 0 1 .524.851l-14.649 9.604 14.117-8.15a.5.5 0 0 1 .522.851l-10.7 6.948 10.182-5.878a.5.5 0 0 1 .53.846l-11.137 7.531 10.607-6.123a.5.5 0 0 1 .536.842l-9.334 6.514 8.8-5.078a.5.5 0 0 1 .523.851l-1.475.963.952-.549a.5.5 0 0 1 .529.848l-10.936 7.36a.5.5 0 0 1 -.249.47l-3.167 1.825a.5.5 0 0 1 -.529-.847l2.28-1.534-4.128 2.381a.5.5 0 0 1 -.523-.849l1.476-.964-3.145 1.813a.5.5 0 0 1 -.536-.842l9.33-6.512-12.74 7.354a.5.5 0 0 1 -.531-.846l11.136-7.525-14.504 8.371a.5.5 0 0 1 -.25.071z" fill="#d6dbe3"/><g fill="#262626"><path d="m51.724 32.286v-19.48c-.151-1.872-1.693-2.085-3.193-2.085h-5.108a9.325 9.325 0 0 1 -1.109 0c-1.008-.127-1.625-.957-2.3-1.632a3.736 3.736 0 0 0 -2.893-1.368h-9.421c-2.117 0-5.308-.552-7.014 1.009-.549.5-1.038 1.072-1.581 1.582a1.345 1.345 0 0 1 -1.234.409h-4.889c-2.122 0-4.672.158-4.706 2.866-.072 5.658 0 11.322 0 16.98 0 5.444-.107 10.9 0 16.344.058 3 3.521 2.368 5.591 2.368a20.929 20.929 0 0 1 4.1.029c1.71.361 2.253 2.691 4.069 2.942a17.985 17.985 0 0 0 2.424.029h10.134a17.755 17.755 0 0 0 2.65-.046c1.663-.256 2.5-1.465 3.654-2.545.83-.778 2.466-.409 3.554-.409 2.187 0 7.051.783 7.272-2.483.1-1.5 0-3.034 0-4.532zm-2.806 16.435h-4.683a9.138 9.138 0 0 0 -3.5.322 4.763 4.763 0 0 0 -1.552 1.187c-.405.405-.982 1.292-1.543 1.491a8.64 8.64 0 0 1 -2.377 0h-9.763a12.357 12.357 0 0 1 -2.463-.029c-1.634-.348-2.2-2.573-3.873-2.922a17.041 17.041 0 0 0 -3.373-.049c-1.389 0-2.836.121-4.219 0-2.269-.2-1.846-2.673-1.846-4.275v-27.78c0-1.273-.1-2.589 0-3.86.066-.87.449-1.453 1.289-1.527.7-.061 1.429 0 2.131 0 1.461 0 2.927.04 4.386 0a4.487 4.487 0 0 0 3.285-1.509c.377-.377 1.014-1.3 1.543-1.491a2.763 2.763 0 0 1 .738 0h12.97c1.329 0 2.017.731 2.918 1.632a4.643 4.643 0 0 0 1.479 1.206 4.054 4.054 0 0 0 1.514.162h4.831c1.517 0 3.3-.142 3.466 1.915v31.706c0 1.216.39 3.821-1.358 3.821z"/><path d="m23.725 32.91c.014-.6-1.438-.3-1.45.18-.054 2.268-2.049 4.23-4.34 3.206a4.039 4.039 0 0 1 -2.21-4.01v-4.359c0-1.507.1-3.025 1.452-4a2.99 2.99 0 0 1 3.369.035 3.877 3.877 0 0 1 1.73 3.232c.01.46 1.462.177 1.448-.388a4.458 4.458 0 0 0 -5.386-4.139 4.738 4.738 0 0 0 -4.063 4.673v5.126a5.8 5.8 0 0 0 .28 2.2 4.344 4.344 0 0 0 2.7 2.515c2.923.946 6.394-1.081 6.47-4.271z"/><path d="m44.891 35.462c1.2-1.664.84-4.017.84-5.954v-6.573c0-.717-1.462-.472-1.462.13 0 3.329.063 6.665 0 9.994a3.374 3.374 0 0 1 -2.621 3.405 3.484 3.484 0 0 1 -3.736-2.447 6.823 6.823 0 0 1 -.181-2.113v-8.969c0-.717-1.462-.472-1.462.13v9.013a7.319 7.319 0 0 0 .222 2.415c1.239 3.607 6.276 3.916 8.4.969z"/><path d="m26.276 37.194c0 .409 1.448.149 1.448-.388v-5.495h.81.041.116c2.218-.03 4.546-1.414 4.961-3.719a4.167 4.167 0 0 0 -2.979-4.735 7.9 7.9 0 0 0 -2.207-.167c-.95.007-2.16.437-2.191 1.541-.031 1.126 0 2.258 0 3.385v3.579 6zm2.224-13.883a3.841 3.841 0 0 1 3.709 3.17c.331 1.844-.839 4.175-2.9 4.208h-1.59v-6.045c0-.274-.017-.554 0-.827a.935.935 0 0 1 .105-.4.472.472 0 0 1 .078-.1c.204-.001.404-.008.598-.006z"/><path d="m13.929 18.505h2a1.055 1.055 0 0 0 .545-.2.6.6 0 0 0 .258-.37.359.359 0 0 0 -.17-.343.9.9 0 0 0 -.491-.1h-2a1.055 1.055 0 0 0 -.545.2.6.6 0 0 0 -.258.37.359.359 0 0 0 .17.343.9.9 0 0 0 .491.1z"/><path d="m46.272 17.553h-2a1.371 1.371 0 0 0 -.569.109.819.819 0 0 0 -.383.3.276.276 0 0 0 .01.331.568.568 0 0 0 .4.152h2a1.371 1.371 0 0 0 .569-.109.819.819 0 0 0 .383-.3.276.276 0 0 0 -.01-.331.568.568 0 0 0 -.4-.152z"/><path d="m19.941 18.552h20c.843 0 1.1-1.1.118-1.1h-20c-.843-.004-1.099 1.1-.118 1.1z"/><path d="m16.058 41.445h-2a.989.989 0 0 0 -.544.2.62.62 0 0 0 -.25.4c-.013.385.36.507.678.507h2a.989.989 0 0 0 .544-.2.62.62 0 0 0 .25-.4c.013-.385-.36-.507-.678-.507z"/><path d="m46.284 41.6h-2a1.5 1.5 0 0 0 -.568.114.882.882 0 0 0 -.389.279c-.054.09-.092.2 0 .291a.572.572 0 0 0 .389.122h2a1.5 1.5 0 0 0 .568-.114.882.882 0 0 0 .389-.279c.054-.09.092-.2 0-.291a.572.572 0 0 0 -.389-.122z"/><path d="m40.27 41.544h-20c-.29 0-.833.09-.952.415-.109.3.095.5.412.5h20c.29 0 .833-.09.952-.415.109-.302-.095-.5-.412-.5z"/><path d="m58.568 35.568h.378c.315 0 .78-.257.791-.613a.427.427 0 0 0 -.019-.082.1.1 0 0 0 .006-.067c0-.011-.02-.012-.026-.02a.643.643 0 0 0 -.644-.354h-2.326v-4.044h1.984a1.231 1.231 0 0 0 .959-.388.209.209 0 0 0 .033-.114.113.113 0 0 0 .018-.058v-.007c0-.006 0-.011 0-.017s-.023-.014-.031-.024a.5.5 0 0 0 -.405-.17h-2.56v-4.117h2.014a1.285 1.285 0 0 0 .571-.1.8.8 0 0 0 .377-.327.386.386 0 0 0 .031-.217.29.29 0 0 0 -.031-.067.451.451 0 0 0 -.428-.272h-2.532v-3.996h2.2a1.051 1.051 0 0 0 .546-.2.606.606 0 0 0 .256-.376c0-.031-.014-.048-.018-.075a.245.245 0 0 0 -.012-.063c-.077-.248-.384-.317-.631-.317h-2.341v-3.968h2.2a1.051 1.051 0 0 0 .545-.2.6.6 0 0 0 .256-.377c0-.026-.013-.041-.015-.065a.109.109 0 0 0 -.026-.11c-.1-.219-.387-.28-.624-.28h-2.34v-4.135h1.976a1.345 1.345 0 0 0 .964-.369.2.2 0 0 0 .057-.158s0-.01 0-.015-.01 0-.012-.008c-.052-.113-.285-.147-.413-.147h-2.568v-2.313c0-.016-.01-.026-.012-.041a.284.284 0 0 0 .008-.077c-.189-.951-1.155-1.618-1.812-2.275-.615-.615-1.13-1.322-2.058-1.405-.5-.044-1.025 0-1.527 0h-.595v-2.601c0-.011-.007-.018-.008-.029v-.1c0-.021-.017-.037-.041-.048a.6.6 0 0 0 -.613-.272 1.071 1.071 0 0 0 -.546.2c-.109.086-.256.221-.256.373v2.477h-3.535v-2.597c0-.013-.008-.021-.009-.034v-.1c0-.024-.023-.039-.042-.055a.605.605 0 0 0 -.615-.273 1.051 1.051 0 0 0 -.546.2.566.566 0 0 0 -.254.38v2.479h-3.538v-2.613c0-.007 0-.01-.005-.016v-.1c0-.031-.023-.052-.052-.072a.61.61 0 0 0 -.59-.2 1.172 1.172 0 0 0 -.547.192c-.1.077-.264.2-.264.346v2.463h-3.547v-2.734c0-.1-.213-.137-.265-.143a1.421 1.421 0 0 0 -.535.054c-.218.062-.648.191-.648.477v2.346h-3.552v-2.734c0-.1-.214-.132-.264-.138a1.461 1.461 0 0 0 -.534.057c-.212.061-.65.188-.65.469v2.346h-3.548v-2.618a.3.3 0 0 0 -.158-.3.833.833 0 0 0 -.484-.073 1.225 1.225 0 0 0 -.547.191c-.1.073-.267.2-.267.336v2.464h-3.538v-2.593a.248.248 0 0 0 -.01-.039v-.1a.124.124 0 0 0 -.05-.089.633.633 0 0 0 -.611-.254c-.284.029-.8.226-.8.59v2.485h-3.532v-2.605c0-.01-.006-.015-.007-.025v-.1a.11.11 0 0 0 -.052-.083.624.624 0 0 0 -.6-.218 1.1 1.1 0 0 0 -.546.2c-.108.083-.259.215-.259.364v2.467h-.167c-1.115 0-2.241-.03-3.365-.043v-2.557c-.005-.348-.353-.5-.669-.472-.281.029-.8.224-.8.587v2.439c-.511.006-1.021.019-1.528.046-1.6.087-2.783 1.679-3.807 2.779a2.4 2.4 0 0 0 -.659 1.974v1.228h-2.008a1.318 1.318 0 0 0 -.571.1.807.807 0 0 0 -.378.319.367.367 0 0 0 -.034.212c0 .024.021.041.03.063a.449.449 0 0 0 .425.259h2.536v4.066h-2a1.373 1.373 0 0 0 -.569.108.821.821 0 0 0 -.382.306.318.318 0 0 0 -.031.162.094.094 0 0 0 -.012.073c0 .014.025.016.036.027a.448.448 0 0 0 .418.234h2.54v4.209h-1.972a1.692 1.692 0 0 0 -.566.121 1.033 1.033 0 0 0 -.4.243.182.182 0 0 0 -.058.159l.007.012c.048.11.29.137.412.137h2.577v4.31h-1.972a1.331 1.331 0 0 0 -.963.372.186.186 0 0 0 -.034.1.091.091 0 0 0 -.023.065s0 .007 0 .011a.087.087 0 0 0 .06.053.628.628 0 0 0 .367.107h2.565v4.151h-2.2a1.058 1.058 0 0 0 -.545.2.6.6 0 0 0 -.259.367c0 .024.012.037.014.058a.107.107 0 0 0 -.006.073c0 .012.021.015.029.025.088.226.389.282.623.282h2.344v.571c0 1.169-.011 2.339-.019 3.51h-1.973a1.164 1.164 0 0 0 -.956.4.256.256 0 0 0 -.027.107.154.154 0 0 0 -.017.067.123.123 0 0 0 0 .019.13.13 0 0 0 .053.082.522.522 0 0 0 .389.163h2.527q-.017 2.03-.032 4.059h-2.151c-.3 0-.782.241-.8.58 0 .026.012.041.014.064a.113.113 0 0 0 -.005.073c0 .012.021.015.028.024.089.234.384.3.63.3h2.275c-.011 1.311-.012 2.621-.015 3.931h-2.133c-.307 0-.782.249-.795.6a.357.357 0 0 0 .021.091.154.154 0 0 0 .015.068.633.633 0 0 0 .639.338h2.251c0 1.311.017 2.62.036 3.929h-2.161c-.3 0-.782.241-.8.581 0 .031.014.049.017.076a.248.248 0 0 0 .015.061c.076.253.381.33.635.33h2.31c.011.6.011 1.194.028 1.791.033 1.218.9 1.828 1.731 2.655.793.794 1.376 1.465 2.539 1.49.577.012 1.154.005 1.731.009v2.606a.285.285 0 0 0 .156.291.828.828 0 0 0 .483.069 1.228 1.228 0 0 0 .547-.19c.1-.07.268-.193.268-.33v-2.444c1.179 0 2.358 0 3.537-.01v2.58c0 .018.01.03.012.047v.1a.086.086 0 0 0 .042.067.627.627 0 0 0 .627.3c.3-.028.791-.235.791-.609v-2.491h3.538v2.626.007.1c0 .015.018.023.024.035a.283.283 0 0 0 .032.045l.01.008a.256.256 0 0 0 .084.078.85.85 0 0 0 .48.059 1.289 1.289 0 0 0 .548-.188c.1-.066.272-.184.272-.317v-2.453h3.547v2.62.015.1a.116.116 0 0 0 .06.087.287.287 0 0 0 .093.09.837.837 0 0 0 .483.07 1.241 1.241 0 0 0 .547-.191c.1-.07.268-.193.268-.33v-2.461h3.549v2.734c0 .3 1.448.075 1.448-.388v-2.346h3.539v2.585c0 .019.011.031.013.049v.1a.054.054 0 0 0 .036.046.617.617 0 0 0 .633.326c.3-.028.792-.237.792-.611v-2.495h3.536v2.621.014.1a.08.08 0 0 0 .027.052l.012.011a.281.281 0 0 0 .111.108.841.841 0 0 0 .482.068 1.24 1.24 0 0 0 .547-.19c.1-.07.269-.192.269-.329v-2.455h3.549v2.734c0 .112.208.178.279.194a1.2 1.2 0 0 0 .54-.034c.266-.078.629-.227.629-.548v-2.346h3.552v2.734c0 .108.209.164.274.176a1.254 1.254 0 0 0 .538-.04c.25-.073.636-.214.636-.524v-2.346h.862a3.2 3.2 0 0 0 2.36-.656 28.732 28.732 0 0 0 2.123-2.123 2.019 2.019 0 0 0 .659-1.259c.056-.621.075-1.252.081-1.885h2.128c.3 0 .782-.246.8-.59a.334.334 0 0 0 -.02-.088.143.143 0 0 0 -.016-.069.63.63 0 0 0 -.635-.327h-2.254c-.02-1.221-.075-2.446-.075-3.641v-.357h2a1.337 1.337 0 0 0 .569-.106.815.815 0 0 0 .381-.312.331.331 0 0 0 .031-.174.084.084 0 0 0 .01-.067c0-.014-.025-.015-.034-.025a.448.448 0 0 0 -.423-.246h-2.531v-4.035h2.2a1.066 1.066 0 0 0 .545-.2.589.589 0 0 0 .259-.365c0-.024-.012-.036-.013-.058a.11.11 0 0 0 -.028-.115c-.1-.21-.391-.258-.617-.258h-2.346v-3.936zm-3.3 16.7c-.058 1.146-1.088 1.8-1.866 2.578a4.158 4.158 0 0 1 -.689.689c.023-.013.2-.043.036.008a2.886 2.886 0 0 1 -.737 0h-16.512a.715.715 0 0 0 -.449-.106 1.238 1.238 0 0 0 -.362.106h-19.189a.717.717 0 0 0 -.446-.1 1.258 1.258 0 0 0 -.355.1h-6.177a2.023 2.023 0 0 1 -1.851-.843c-.762-.762-1.866-1.465-1.943-2.591-.048-.7-.023-1.421-.009-2.132 0-.014.014-.024.014-.038s-.011-.035-.013-.056c0-.158.008-.317.008-.474v-4.441c0-.006.007-.012.007-.018s-.006-.019-.007-.03v-4.965-.012c0-.009 0-.013 0-.022v-9.977-.007c0-.006 0-.009 0-.015v-21.199a8.773 8.773 0 0 1 0-1.385c.148-.87 1.358-1.673 1.945-2.26.064-.065.554-.553.528-.62a.233.233 0 0 0 .074 0 9.492 9.492 0 0 1 2.151 0h.113a.754.754 0 0 0 .4.072 1.4 1.4 0 0 0 .287-.072h4.374a.81.81 0 0 0 .324.035 1.617 1.617 0 0 0 .165-.035h4.44a.75.75 0 0 0 .406.077 1.333 1.333 0 0 0 .3-.077h19.438a.917.917 0 0 0 .245 0h.027 4.608a.768.768 0 0 0 .38.062 1.328 1.328 0 0 0 .29-.062h4.351a.782.782 0 0 0 .356.05 1.516 1.516 0 0 0 .235-.05h.044a10.9 10.9 0 0 1 2.02 0c.5.1.827.563 1.179.915.607.607 1.677 1.328 1.864 2.221v7.453.011.018 4.974.01.018 14.943c0 .008-.008.015-.009.024s.008.023.009.036v4.977.007.012 9.423c0 .173 0 .348.006.522 0 .012-.012.021-.012.033s.011.038.013.059v.05.018c.012.693.027 1.392-.007 2.083z"/></g></svg>