<svg id="Icons" height="512" viewBox="0 0 60 60" width="512" xmlns="http://www.w3.org/2000/svg"><path d="m6.573 26.5a.5.5 0 0 1 -.275-.917l7.102-4.683-9.128 5.269a.5.5 0 0 1 -.527-.849l7.692-5.13-8.495 4.91a.5.5 0 0 1 -.52-.853l2.3-1.483-2.742 1.579a.5.5 0 0 1 -.539-.841l8.05-5.712-8.2 4.736a.5.5 0 0 1 -.526-.848l1.923-1.278-1.408.812a.5.5 0 0 1 -.53-.847l1.422-.965-.892.515a.5.5 0 0 1 -.557-.826l3.92-3.067-3.363 1.938a.5.5 0 0 1 -.595-.794l2.744-2.619-2.063 1.19a.5.5 0 0 1 -.6-.793l2.764-2.644a.5.5 0 0 1 .25-.409l.5-.289a.5.5 0 0 1 .6.793l-.435.417 2.1-1.212a.5.5 0 0 1 .6.794l-2.751 2.614 5.917-3.416a.5.5 0 0 1 .557.826l-3.921 3.068 6.75-3.9a.5.5 0 0 1 .531.847l-1.423.963 3.14-1.812a.5.5 0 0 1 .527.849l-1.931 1.283 3.7-2.134a.5.5 0 0 1 .539.841l-8.049 5.713 11.356-6.557a.5.5 0 0 1 .52.853l-2.297 1.481 4.041-2.333a.5.5 0 0 1 .527.849l-7.695 5.132 10.364-5.984a.5.5 0 0 1 .525.85l-7.108 4.685 9.591-5.537a.5.5 0 0 1 .532.846l-9.621 6.579 12.864-7.428a.5.5 0 0 1 .532.846l-9.568 6.536 12.792-7.386a.5.5 0 0 1 .519.854l-3.314 2.12 4.44-2.563a.5.5 0 0 1 .521.853l-3.7 2.379 4.209-2.43a.5.5 0 0 1 .523.852l-4.07 2.652 4.718-2.723a.5.5 0 0 1 .526.848l-4.844 3.221 4.987-2.879a.5.5 0 0 1 .541.84l-6.559 4.662 6.133-3.54a.5.5 0 0 1 .546.836l-4.72 3.47 4.174-2.41a.5.5 0 0 1 .569.818l-3.825 3.181 3.256-1.88a.5.5 0 0 1 .595.794l-2.021 1.937 1.166-.673a.5.5 0 1 1 .5.865l-4.767 2.748a.5.5 0 0 1 -.595-.794l2.025-1.936-4.734 2.733a.5.5 0 0 1 -.57-.817l3.827-3.182-6.933 4a.5.5 0 0 1 -.546-.835l4.72-3.471-7.464 4.309a.5.5 0 0 1 -.54-.84l6.557-4.661-9.534 5.5a.5.5 0 0 1 -.526-.849l4.853-3.227-7.064 4.078a.5.5 0 0 1 -.523-.852l4.073-2.654-6.076 3.518a.5.5 0 0 1 -.521-.854l3.688-2.373-5.593 3.229a.5.5 0 0 1 -.52-.854l3.307-2.115-5.147 2.971a.5.5 0 0 1 -.532-.846l9.569-6.536-12.79 7.386a.5.5 0 0 1 -.533-.846l9.62-6.582-12.864 7.431a.494.494 0 0 1 -.25.069z" fill="#35718a"/><path d="m28.085 13.47a.5.5 0 0 1 -.274-.918l.225-.148-1.73 1a.5.5 0 0 1 -.531-.846l4.479-3.028-6.711 3.87a.5.5 0 0 1 -.539-.84l8.012-5.669-11.276 6.509a.5.5 0 0 1 -.535-.842l7.433-5.172-10.42 6.014a.5.5 0 0 1 -.532-.844l6.758-4.634-9.49 5.478a.5.5 0 0 1 -.528-.847l5.369-3.6-7.695 4.447a.5.5 0 0 1 -.53-.846l5.857-3.954-8.32 4.8a.5.5 0 0 1 -.537-.841l7.657-5.359-10.613 6.128a.5.5 0 0 1 -.539-.841l8.013-5.687-9.258 5.346a.5.5 0 0 1 -.537-.842l5.867-4.104-5.87 3.385a.5.5 0 0 1 -.537-.842l3.734-2.62-3.207 1.851a.5.5 0 0 1 -.56-.825l4.149-3.293-3.589 2.073a.5.5 0 0 1 -.555-.829l1.175-.909-.62.359a.5.5 0 0 1 -.58-.812l.7-.594-.1.056a.5.5 0 0 1 -.61-.779l.71-.736a.491.491 0 0 1 -.214-.2.5.5 0 0 1 .178-.685l2.05-1.18a.5.5 0 0 1 .61.779l-.156.163 1.67-.962a.5.5 0 0 1 .576.811l-.694.6 2.439-1.411a.5.5 0 0 1 .556.828l-1.176.908 3.008-1.736a.5.5 0 0 1 .561.824l-4.151 3.291 7.132-4.115a.5.5 0 0 1 .537.841l-3.737 2.622 6-3.465a.5.5 0 0 1 .537.841l-5.863 4.106 8.57-4.945a.5.5 0 0 1 .539.84l-8.012 5.684 11.305-6.524a.5.5 0 0 1 .537.841l-7.659 5.359 10.745-6.2a.5.5 0 0 1 .529.846l-5.861 3.954 8.319-4.8a.5.5 0 0 1 .529.847l-5.369 3.6 7.7-4.447a.5.5 0 0 1 .532.844l-6.762 4.634 9.495-5.478a.5.5 0 0 1 .536.842l-7.43 5.168 10.4-6a.5.5 0 0 1 .539.841l-8.01 5.668 9.542-5.509a.5.5 0 0 1 .53.847l-4.48 3.028 4.6-2.655a.5.5 0 0 1 .524.851l-.351.219a.508.508 0 0 1 .582.193.5.5 0 0 1 -.108.674l-5.342 4.171 4.788-2.763a.5.5 0 0 1 .581.806l-3.476 3.08 2.895-1.671a.5.5 0 0 1 .627.761l-1.647 1.88.846-.487a.5.5 0 0 1 .5.865l-3.446 1.991a.5.5 0 0 1 -.627-.761l1.642-1.88-4.579 2.641a.5.5 0 0 1 -.581-.806l3.477-3.079-6.732 3.885a.5.5 0 0 1 -.557-.827l5.344-4.167-8.652 4.994a.5.5 0 0 1 -.25.07z" fill="#4184a9"/><path d="m4.616 37.47a.5.5 0 0 1 -.271-.92l1.541-.994-2.794 1.612a.5.5 0 0 1 -.538-.842l7.552-5.32-8.446 4.876a.5.5 0 0 1 -.525-.85l1.865-1.232-1.7.979a.5.5 0 0 1 -.554-.83l6.038-4.614-5.504 3.18a.5.5 0 0 1 -.567-.82l3.887-3.19-3.32 1.915a.5.5 0 0 1 -.558-.82l.806-.635-.248.135a.5.5 0 0 1 -.654-.727l1.245-1.711h-.007a.5.5 0 0 1 -.5-.865l2.05-1.184a.5.5 0 0 1 .654.727l-1.246 1.718 4.263-2.458a.5.5 0 0 1 .559.825l-.8.634 2.522-1.459a.5.5 0 0 1 .568.819l-3.886 3.19 6.952-4.009a.5.5 0 0 1 .554.83l-6.042 4.611 9.428-5.441a.5.5 0 0 1 .526.849l-1.866 1.232 3.607-2.081a.5.5 0 0 1 .538.841l-7.552 5.319 10.673-6.16a.5.5 0 0 1 .522.852l-1.543 1 3.2-1.848a.5.5 0 0 1 .541.839l-8.347 5.971 11.771-6.8a.5.5 0 0 1 .52.853l-1.361.878 2.193-1.266a.5.5 0 0 1 .54.84l-7.578 5.4 8.22-4.745a.5.5 0 0 1 .535.843l-4.546 3.161 4.187-2.417a.5.5 0 0 1 .667.157.5.5 0 0 1 -.116.675l-4.549 3.421 4-2.308a.5.5 0 0 1 .564.822l-3 2.428 2.436-1.405a.5.5 0 0 1 .555.828l-.346.269a.5.5 0 0 1 .419.826l-1.016 1.169a.5.5 0 0 1 .49.871l-2.575 1.486a.5.5 0 0 1 -.628-.76l1.015-1.168-3.336 1.928a.5.5 0 0 1 -.556-.828l.067-.052-1.525.88a.5.5 0 0 1 -.564-.821l3-2.428-5.635 3.249a.5.5 0 0 1 -.551-.832l4.551-3.423-7.37 4.255a.5.5 0 0 1 -.535-.842l4.547-3.158-6.937 4a.5.5 0 0 1 -.54-.839l7.578-5.4-10.814 6.239a.5.5 0 0 1 -.521-.852l1.358-.876-2.995 1.728a.5.5 0 0 1 -.541-.839l8.348-5.972-11.799 6.811a.5.5 0 0 1 -.25.07z" fill="#4184a9"/><path d="m7.4 9.375a.5.5 0 0 1 -.41-.785l.871-1.254-1.433.827a.5.5 0 0 1 -.666-.71l.648-.974a.5.5 0 0 1 -.343-.923l1.656-.956a.5.5 0 0 1 .666.71l-.613.919 1.524-.877a.5.5 0 0 1 .66.717l-.875 1.254.585-.337a.5.5 0 0 1 .5.866l-2.522 1.456a.489.489 0 0 1 -.248.067z" fill="#86fdaa"/><path d="m14.992 9.187a.5.5 0 0 1 -.374-.832l.526-.593-.714.411a.5.5 0 0 1 -.667-.709l.653-.985a.5.5 0 0 1 -.351-.923l1.658-.956a.5.5 0 0 1 .614.089.5.5 0 0 1 .053.62l-.62.936 1.53-.885a.5.5 0 0 1 .624.764l-.526.6.317-.183a.5.5 0 0 1 .5.865l-2.973 1.713a.49.49 0 0 1 -.25.068z" fill="#86fdaa"/><path d="m7.624 21.431a.5.5 0 0 1 -.388-.816l.477-.587-1.03.6a.5.5 0 0 1 -.7-.651l.824-1.69-.242.139a.5.5 0 0 1 -.5-.865l1.658-.961a.491.491 0 0 1 .59.067.5.5 0 0 1 .109.584l-.822 1.688 1.963-1.132a.5.5 0 0 1 .637.748l-.494.608a.506.506 0 0 1 .591.225.5.5 0 0 1 -.183.682l-2.24 1.293a.49.49 0 0 1 -.25.068z" fill="#6de08e"/><path d="m15.8 21.454a.5.5 0 0 1 -.431-.755l.849-1.433-1.742 1.005a.5.5 0 0 1 -.674-.7l.7-1.119a.5.5 0 0 1 -.431-.9l1.658-.956a.5.5 0 0 1 .673.7l-.69 1.107 1.66-.958a.5.5 0 0 1 .681.688l-.853 1.434.347-.2a.5.5 0 1 1 .5.865l-2 1.155a.489.489 0 0 1 -.247.067z" fill="#6de08e"/><path d="m7.205 33.3a.5.5 0 0 1 -.387-.817l.67-.819-1.024.591a.5.5 0 0 1 -.673-.7l.689-1.092a.5.5 0 0 1 -.415-.9l1.658-.963a.5.5 0 0 1 .673.7l-.679 1.075 1.638-.945a.5.5 0 0 1 .637.749l-.67.82.381-.22a.5.5 0 1 1 .5.866l-2.748 1.584a.49.49 0 0 1 -.25.071z" fill="#86fdaa"/><path d="m14.942 33.156a.5.5 0 0 1 -.381-.822l.668-.792-.854.492a.5.5 0 0 1 -.656-.724l.591-.822a.5.5 0 0 1 -.245-.932l1.658-.956a.5.5 0 0 1 .656.724l-.49.682 1.316-.76a.5.5 0 0 1 .632.755l-.668.792.544-.314a.5.5 0 1 1 .5.866l-3.021 1.744a.489.489 0 0 1 -.25.067z" fill="#86fdaa"/><path d="m15.75 59.47a.5.5 0 0 1 -.263-.926l3.2-1.973-4.9 2.831a.5.5 0 0 1 -.518-.854l15.261-9.735-17.7 10.218a.5.5 0 0 1 -.516-.856l12.576-7.864-13.198 7.619a.5.5 0 0 1 -.512-.859l8.7-5.376-8.586 4.955a.5.5 0 0 1 -.518-.854l16.346-10.376-14.839 8.566a.5.5 0 0 1 -.518-.854l15.587-9.95-13.087 7.555a.5.5 0 0 1 -.518-.854l11.558-7.335-9.333 5.388a.5.5 0 0 1 -.52-.854l10.948-7.013-8.685 5.015a.5.5 0 0 1 -.523-.852l10.679-6.941-8.342 4.815a.5.5 0 0 1 -.529-.847l11.471-7.7-8.843 5.1a.5.5 0 0 1 -.52-.853l2.5-1.6-.752.434a.5.5 0 0 1 -.52-.854l1.69-1.086a.5.5 0 0 1 -.506-.86l4.228-2.813-2.268 1.31a.5.5 0 0 1 -.537-.842l5.7-3.992-3.422 1.976a.5.5 0 0 1 -.541-.839l4.325-3.1-2.132 1.231a.5.5 0 0 1 -.544-.837l2.517-1.834-.534.307a.5.5 0 0 1 -.657-.143.5.5 0 0 1 .081-.668l3.509-3.024-.917.529a.5.5 0 0 1 -.606-.783l1.618-1.644a.5.5 0 0 1 -.008-.87l2.059-1.189a.5.5 0 0 1 .609.785l-.98 1 2.332-1.345a.5.5 0 0 1 .576.811l-3.51 3.025 4.182-2.416a.5.5 0 0 1 .544.837l-2.51 1.824 2.651-1.536a.5.5 0 0 1 .541.838l-4.326 3.1 4.577-2.638a.5.5 0 0 1 .537.842l-5.7 3.993 6-3.465a.5.5 0 0 1 .527.849l-4.228 2.813 4.387-2.532a.5.5 0 0 1 .52.854l-1.685 1.083 1.735-1a.5.5 0 0 1 .519.853l-2.5 1.6 2.574-1.485a.5.5 0 0 1 .528.847l-11.471 7.7 11.949-6.9a.5.5 0 0 1 .522.852l-10.674 6.942 11.02-6.362a.5.5 0 0 1 .519.853l-10.956 7.022 11.273-6.508a.5.5 0 0 1 .517.854l-11.548 7.329 11.847-6.84a.5.5 0 0 1 .519.854l-15.593 9.952 16.023-9.25a.5.5 0 0 1 .518.855l-16.342 10.375 16.768-9.68a.5.5 0 0 1 .512.859l-8.694 5.373 8.862-5.117a.5.5 0 0 1 .516.857l-12.573 7.865 12.851-7.42a.5.5 0 0 1 .519.855l-15.265 9.735 15.682-9.054a.5.5 0 0 1 .512.859l-3.2 1.969 3.264-1.881a.5.5 0 0 1 .522.852l-13.721 8.894 14.159-8.174a.5.5 0 0 1 .518.854l-7.784 4.935 7.985-4.609a.5.5 0 0 1 .525.849l-11.287 7.446 11.7-6.754a.5.5 0 0 1 .518.854l-3.432 2.176 3.522-2.033a.5.5 0 0 1 .519.853l-3.407 2.178 3.5-2.023a.5.5 0 0 1 .521.853l-3.894 2.522 4.016-2.318a.5.5 0 0 1 .534.845l-7.202 4.964 7.555-4.364a.5.5 0 0 1 .536.843l-5.764 4.031 6.065-3.5a.5.5 0 0 1 .528.848l-1.5 1 1.551-.9a.5.5 0 0 1 .558.828l-4.97 3.873 5.384-3.108a.5.5 0 0 1 .54.84l-.8.566.824-.475a.5.5 0 0 1 .55.832l-1.067.822 1.127-.651a.5.5 0 0 1 .557.827l-.483.377.41-.236a.5.5 0 0 1 .646.739l-1.406 1.811.549-.317a.5.5 0 1 1 .5.866l-2.756 1.584a.5.5 0 0 1 -.645-.739l1.405-1.81-4.417 2.549a.5.5 0 0 1 -.558-.827l.485-.378-2.084 1.205a.5.5 0 0 1 -.55-.832l1.072-.8-2.842 1.632a.5.5 0 0 1 -.54-.839l.8-.565-2.44 1.404a.5.5 0 0 1 -.558-.827l4.973-3.873-8.145 4.7a.5.5 0 0 1 -.528-.847l1.5-1.006-3.213 1.853a.5.5 0 0 1 -.536-.842l5.761-4.029-8.439 4.871a.5.5 0 0 1 -.533-.844l7.2-4.964-10.056 5.808a.5.5 0 0 1 -.522-.852l3.9-2.527-5.853 3.379a.5.5 0 0 1 -.52-.853l3.406-2.176-5.248 3.029a.5.5 0 0 1 -.518-.854l3.437-2.178-5.254 3.032a.5.5 0 0 1 -.526-.849l11.283-7.444-14.365 8.293a.5.5 0 0 1 -.517-.854l7.788-4.938-10.033 5.792a.5.5 0 0 1 -.523-.852l13.716-8.892-16.877 9.744a.5.5 0 0 1 -.25.07z" fill="#e69b45"/><path d="m33.674 55.448a.5.5 0 0 1 -.349-.858l.408-.4-1.172.677a.5.5 0 0 1 -.621-.769l1.794-1.97-2.272 1.311a.5.5 0 0 1 -.585-.8l.545-.49-.128.074a.5.5 0 0 1 -.611-.779l.72-.753a.481.481 0 0 1 -.221-.2.5.5 0 0 1 .182-.682l2.05-1.184a.5.5 0 0 1 .611.778l-.194.2 1.215-.7a.5.5 0 0 1 .585.8l-.545.489.932-.537a.5.5 0 0 1 .62.77l-1.794 1.975 1.856-1.077a.5.5 0 0 1 .6.791l-.591.575a.508.508 0 0 1 .441.25.5.5 0 0 1 -.182.683l-3.046 1.759a.489.489 0 0 1 -.248.067z" fill="#fff"/><path d="m32.9 45.152a.5.5 0 0 1 -.39-.812l1.66-2.075-2 1.155a.5.5 0 0 1 -.589-.8l1.1-1.014-.591.341a.5.5 0 0 1 -.593-.8l1.42-1.334-.917.53a.5.5 0 0 1 -.6-.793l1.808-1.74-1.311.756a.5.5 0 0 1 -.569-.817l.408-.338a.5.5 0 0 1 -.507-.83l2.394-2.378-1.908 1.1a.5.5 0 0 1 -.587-.8l1.937-1.769-1.447.835a.5.5 0 0 1 -.575-.812l1.077-.922-.58.335a.5.5 0 0 1 -.589-.8l1.134-1.044-.628.362a.494.494 0 0 1 -.627-.1.5.5 0 0 1 -.017-.636l.978-1.252a.5.5 0 0 1 -.325-.926l2-1.154a.5.5 0 0 1 .643.74l-.92 1.18 2.307-1.332a.5.5 0 0 1 .589.8l-1.134 1.043 1.364-.786a.5.5 0 0 1 .575.812l-1.08.923.746-.431a.5.5 0 0 1 .587.8l-1.943 1.77 1.251-.722a.5.5 0 0 1 .6.787l-2.394 2.378 1.668-.963a.5.5 0 0 1 .569.818l-.486.4a.507.507 0 0 1 .494.19.5.5 0 0 1 -.053.661l-1.808 1.742 1.106-.639a.5.5 0 0 1 .593.8l-1.419 1.332.731-.421a.5.5 0 0 1 .588.8l-1.1 1.013.42-.242a.5.5 0 0 1 .64.745l-1.66 2.076.891-.514a.5.5 0 0 1 .5.865l-3.189 1.841a.489.489 0 0 1 -.242.066z" fill="#fff"/><g fill="#262626"><path d="m10.6 7.044c-.027-3.178-5.122-3.291-5.2-.088-.031 3.183 5.027 3.266 5.2.088zm-2.824-1.56c1.918-.328 2.176 2.886.314 3.06-1.774.104-2.003-2.736-.314-3.06z"/><path d="m15.9 9.594c3.238.138 3.324-5.187.1-5.194-3.132.012-3.217 5.05-.1 5.194zm1.65-2.594c-.1 1.817-3.11 1.822-3.1-.008s3.002-1.806 3.1.008z"/><path d="m10.451 19.117c.221-3.544-4.9-3.444-4.932-.012.046 3.285 4.681 3.14 4.932.012zm-3.97-.217c-.019-1.912 2.942-1.563 3.038.21-.103 1.899-3.019 1.571-3.038-.21z"/><path d="m15.959 21.54c3.206-.058 3.369-5.293-.028-5.074-3.085.179-3.256 5.176.028 5.074zm1.527-2.41c-.106 1.958-2.955 1.525-2.972-.26-.014-1.97 2.876-1.511 2.972.26z"/><path d="m8.051 28.541a2.636 2.636 0 0 0 -2.641 2.481c-.056 3.247 5.012 3.084 5.18-.044a2.485 2.485 0 0 0 -2.539-2.437zm0 4c-1.718-.026-2-2.861-.237-3.07 1.871-.171 2.174 3.029.237 3.07z"/><path d="m15.889 28.456c-3.074.234-3.159 5.233.113 5.094 3.198-.112 3.265-5.364-.113-5.094zm-1.389 2.375c.123-1.935 3.055-1.44 2.994.338-.101 1.931-3.024 1.44-2.994-.338z"/><path d="m33.971 48.539a3.468 3.468 0 0 0 -3.56 3.411c.036 4.455 6.935 4.606 7.178.1a3.675 3.675 0 0 0 -3.618-3.511zm.176 5.985c-3.039.261-3.419-4.481-.537-5 3.306-.624 3.731 4.72.537 5z"/><path d="m.574 27.82c-2.962 14.038 9.785 9.361 18.565 9.793q-3.1 5.082-6.2 10.164c-5.339 6.941-7.506 12.986 4.194 11.823h38.829c4.348-.781 3.639-4.239 1.974-7.1-5.436-9.157-11.136-18.157-16.636-27.282 3.434-2.1 3.55-9.864.163-12.2 2.794-1.479 2.589-5.749 2.118-8.735-.416-2.642-1.741-3.577-4.3-3.753-8.758-.6-17.764 0-26.541 0-6.672.021-13.534-2.243-12.325 7.361 0 2.38.332 4.183 2.107 5.069-3.367 2.207-3.253 9.712.078 12.022a3.879 3.879 0 0 0 -2.026 2.838zm7.34 8.58c-2.386 0-3.515.484-5.175-1.293-1.962-2.099-2.38-8.358 1.361-9.507 7.109-1.051 14.977.518 22.178 0-1.989 3.76-4.232 7.182-6.4 10.8zm44.331 8.655c.933 1.53 9.572 12.292 3.713 13.344h-26.913c-5.5-.031-11.074.045-16.542 0-.745-.276-2.706-2.65-2.73-3.528 6.164-10.3 12.665-20.651 18.89-30.989 4.318-8.989 7.318-7.328 11.436.929-.035.323.121.694.387.738 3.728 6.651 7.863 12.969 11.759 19.507zm-49.356-42.178c2.042-2.392 5.884-1.41 8.875-1.41h26.255c2.069 0 3.465-.428 4.4 2.658.662 2.2.259 7.323-2.321 8.309-5.81-1.059-12.719-.018-18.6-.025-5.3 0-11.611-.927-16.926-.094-3.672-1.115-4.115-6.59-1.683-9.438zm1.1 21.532c-4.1-.825-3.225-9.759.056-10.818 6.08.021 12.339-.007 18.463 0 5.815.06 11.7-.09 17.482 0 3.254 1.01 3.911 8.974.7 10.622-2.207-3.308-5.437-11.41-9.912-5.8h-5.678c-.6 0-.782 1.184-.2 1.184h4.965a46.468 46.468 0 0 0 -2.932 4.803c-7.671.231-15.162-.4-22.859.048a.406.406 0 0 0 -.084-.039z"/><path d="m31.618 44.068c1.208 2.5 4.853 1.465 4.993-1.239l.729-13.007a3.266 3.266 0 0 0 -3.54-3.362 3.616 3.616 0 0 0 -3.143 3.706c.313 4.534-.094 9.487.961 13.902zm4.718-13.9q-.36 6.438-.721 12.877c-.2 1.808-2.524 1.757-3.136.228-.827-4.318-.569-9.057-.815-13.449-.001-3.224 4.673-2.699 4.672.342z"/><path d="m25.018 7.6h13c.6 0 .566-1.2-.036-1.2h-13c-.597 0-.566 1.2.036 1.2z"/></g></svg>