<svg id="Icons" height="512" viewBox="0 0 60 60" width="512" xmlns="http://www.w3.org/2000/svg"><path d="m5.515 26.5a.5.5 0 0 1 -.268-.923l1.243-.787-2.219 1.281a.5.5 0 0 1 -.529-.847l8-5.37-8.948 5.167a.5.5 0 0 1 -.535-.844l8.178-5.667-8.9 5.136a.5.5 0 0 1 -.533-.845l5.886-4.053-5.61 3.24a.5.5 0 0 1 -.547-.835l5.748-4.241-5.2 3a.5.5 0 0 1 -.567-.812l4.353-3.565-3.787 2.183a.5.5 0 0 1 -.554-.829l.842-.649-.286.165a.5.5 0 0 1 -.624-.764l2.878-3.241a.5.5 0 0 1 .244-.51l.5-.289a.5.5 0 0 1 .624.764l-1.452 1.635 4.164-2.4a.5.5 0 0 1 .555.829l-.843.648 2.563-1.479a.5.5 0 0 1 .566.819l-4.357 3.561 7.6-4.389a.5.5 0 0 1 .547.835l-5.747 4.239 8.8-5.077a.5.5 0 0 1 .533.845l-5.888 4.053 8.491-4.9a.5.5 0 0 1 .535.844l-8.18 5.672 11.283-6.52a.5.5 0 0 1 .529.848l-8.003 5.372 10.779-6.223a.5.5 0 0 1 .518.856l-1.238.782 2.841-1.64a.5.5 0 0 1 .524.851l-6.514 4.267 8.871-5.121a.5.5 0 0 1 .521.853l-4.766 3.075 6.807-3.93a.5.5 0 0 1 .534.845l-9.853 6.77 13.194-7.618a.5.5 0 0 1 .534.845l-9.952 6.859 11.29-6.518a.5.5 0 0 1 .527.849l-6.2 4.13 7.027-4.056a.5.5 0 0 1 .531.845l-6.275 4.272 6.381-3.693a.5.5 0 0 1 .528.849l-2.993 2 2.5-1.445a.5.5 0 0 1 .553.829l-5.7 4.364 5.144-2.97a.5.5 0 0 1 .569.818l-3.654 3.028 3.092-1.773a.5.5 0 0 1 .573.814l-1.356 1.146.671-.387a.5.5 0 0 1 .593.8l-2.711 2.552a.5.5 0 0 1 -.249.394l-.492.284a.5.5 0 0 1 -.593-.8l.235-.22-1.766 1.019a.5.5 0 0 1 -.573-.814l1.359-1.153-3.411 1.972a.5.5 0 0 1 -.569-.817l3.654-3.027-6.664 3.847a.5.5 0 0 1 -.554-.829l5.7-4.365-9 5.2a.5.5 0 0 1 -.528-.849l3-2-4.944 2.853a.5.5 0 0 1 -.531-.846l6.261-4.274-8.859 5.115a.5.5 0 0 1 -.528-.849l6.21-4.135-8.637 4.989a.5.5 0 0 1 -.533-.845l9.955-6.856-13.346 7.7a.5.5 0 0 1 -.533-.845l9.854-6.771-13.2 7.619a.5.5 0 0 1 -.522-.853l4.767-3.069-6.807 3.93a.5.5 0 0 1 -.525-.851l6.515-4.267-8.871 5.12a.494.494 0 0 1 -.25.068z" fill="#35718a"/><path d="m13.4 13.47a.5.5 0 0 1 -.27-.921l.931-.6-2.512 1.451a.5.5 0 0 1 -.522-.852l1.729-1.117-3.412 1.969a.5.5 0 0 1 -.534-.843l7.16-4.951-10.037 5.794a.5.5 0 0 1 -.521-.853l1.14-.734-2.7 1.561a.5.5 0 0 1 -.53-.848l5.539-3.721-6.611 3.816a.5.5 0 0 1 -.537-.842l6.587-4.613-6.922 4a.5.5 0 0 1 -.542-.839l5.388-3.885-4.944 2.858a.5.5 0 0 1 -.545-.837l3.175-2.319-2.63 1.517a.5.5 0 0 1 -.669-.161.5.5 0 0 1 .123-.677l1.093-.8-.547.316a.5.5 0 0 1 -.58-.812l1.622-1.4-1.046.6a.5.5 0 0 1 -.638-.747l1.019-1.246a.521.521 0 0 1 -.475-.248.5.5 0 0 1 .182-.686l2.05-1.18a.5.5 0 0 1 .639.747l-.934 1.153 3.33-1.92a.5.5 0 0 1 .576.811l-1.625 1.394 3.827-2.205a.5.5 0 0 1 .545.836l-1.091.8 2.836-1.636a.5.5 0 0 1 .545.837l-3.171 2.311 5.456-3.148a.5.5 0 0 1 .542.839l-5.395 3.88 8.18-4.719a.5.5 0 0 1 .537.841l-6.584 4.612 9.45-5.453a.5.5 0 0 1 .529.847l-5.539 3.72 7.915-4.567a.5.5 0 0 1 .521.853l-1.149.739 2.759-1.592a.5.5 0 0 1 .534.843l-7.16 4.951 10.037-5.794a.5.5 0 0 1 .522.852l-1.729 1.115 3.412-1.967a.5.5 0 0 1 .521.853l-.939.6 2.524-1.453a.5.5 0 0 1 .533.844l-6.911 4.75 9.7-5.6a.5.5 0 0 1 .529.848l-5.272 3.528 7.549-4.359a.5.5 0 0 1 .537.842l-7.788 5.475 9.246-5.338a.5.5 0 0 1 .544.837l-7.361 5.351 7.568-4.369a.5.5 0 0 1 .535.844l-3.273 2.271 2.749-1.586a.5.5 0 0 1 .568.818l-4.583 3.782 4.015-2.317a.5.5 0 0 1 .579.809l-2.227 1.945 1.648-.951a.5.5 0 0 1 .649.734l-1.161 1.542a.5.5 0 0 1 .428.9l-2.05 1.184a.5.5 0 0 1 -.649-.734l1.151-1.525-3.953 2.275a.5.5 0 0 1 -.579-.809l2.224-1.944-4.768 2.753a.5.5 0 0 1 -.569-.818l4.585-3.782-7.972 4.6a.5.5 0 0 1 -.535-.843l3.266-2.267-5.387 3.11a.5.5 0 0 1 -.544-.837l7.364-5.351-10.72 6.188a.5.5 0 0 1 -.537-.841l7.785-5.473-10.94 6.314a.5.5 0 0 1 -.529-.848l5.274-3.528-7.581 4.376a.5.5 0 0 1 -.534-.844l6.915-4.756-9.7 5.6a.5.5 0 0 1 -.253.07z" fill="#4184a9"/><path d="m20.816 37.47a.5.5 0 0 1 -.273-.918l3.319-2.174-5.239 3.022a.5.5 0 0 1 -.53-.846l6.207-4.209-8.763 5.055a.5.5 0 0 1 -.522-.851l2.42-1.572-4.2 2.423a.5.5 0 0 1 -.535-.843l7.245-5.018-10.154 5.861a.5.5 0 0 1 -.54-.839l8.186-5.824-11.537 6.663a.5.5 0 0 1 -.527-.849l4.365-2.888-6.289 3.63a.5.5 0 0 1 -.525-.85l3.987-2.632-4.743 2.738a.5.5 0 0 1 -.522-.853l.259-.167-.327.189a.5.5 0 0 1 -.547-.835l6.732-4.968-6.483 3.742a.5.5 0 0 1 -.545-.836l3.717-2.721-3.172 1.835a.5.5 0 0 1 -.556-.829l2.529-1.959-1.973 1.139a.5.5 0 0 1 -.594-.8l2.022-1.92-1.426.823a.5.5 0 0 1 -.621-.769l.821-.906a.5.5 0 0 1 -.118-.915l2.05-1.184a.5.5 0 0 1 .621.769l-.5.549 2.324-1.333a.5.5 0 0 1 .595.8l-2.021 1.912 4.7-2.714a.5.5 0 0 1 .556.828l-2.526 1.958 4.826-2.784a.5.5 0 0 1 .545.836l-3.719 2.716 6.159-3.552a.5.5 0 0 1 .547.835l-6.73 4.965 10.049-5.8a.5.5 0 0 1 .521.852l-.258.167 1.766-1.019a.5.5 0 0 1 .526.849l-3.995 2.635 6.04-3.484a.5.5 0 0 1 .527.849l-4.367 2.886 6.476-3.735a.5.5 0 0 1 .54.84l-8.186 5.821 11.542-6.661a.5.5 0 0 1 .535.843l-7.247 5.02 10.157-5.863a.5.5 0 0 1 .522.851l-2.413 1.569 4.192-2.42a.5.5 0 0 1 .53.846l-6.209 4.213 8.766-5.059a.5.5 0 0 1 .523.85l-3.318 2.171 4.857-2.8a.5.5 0 0 1 .538.841l-7.647 5.4 8.576-4.952a.5.5 0 0 1 .527.849l-2.823 1.885 2.662-1.544a.5.5 0 0 1 .529.847l-1.8 1.212 1.285-.742a.5.5 0 0 1 .533.845l-1.018.7.485-.279a.5.5 0 0 1 .547.835l-1.885 1.393 1.338-.772a.5.5 0 0 1 .592.8l-2.386 2.243 1.794-1.035a.5.5 0 0 1 .634.752l-.968 1.166a.5.5 0 0 1 .25.932l-2.05 1.184a.5.5 0 0 1 -.635-.752l.847-1.019-3.101 1.79a.5.5 0 0 1 -.592-.8l2.385-2.242-5.264 3.042a.5.5 0 0 1 -.547-.835l1.887-1.394-3.86 2.229a.5.5 0 0 1 -.533-.844l1.018-.7-2.678 1.544a.5.5 0 0 1 -.529-.847l1.8-1.213-3.571 2.06a.5.5 0 0 1 -.527-.848l2.82-1.882-4.731 2.73a.5.5 0 0 1 -.539-.84l7.65-5.4-10.814 6.24a.5.5 0 0 1 -.25.07z" fill="#4184a9"/><path d="m8.028 9.468a.5.5 0 0 1 -.428-.759l.722-1.2-1.722.996a.5.5 0 0 1 -.692-.668l.8-1.5-.146.084a.5.5 0 0 1 -.5-.865l1.661-.956a.494.494 0 0 1 .6.073.5.5 0 0 1 .094.595l-.8 1.5 1.89-1.091a.5.5 0 0 1 .678.691l-.724 1.2a.5.5 0 0 1 .474.88l-1.657.952a.49.49 0 0 1 -.25.068z" fill="#86fdaa"/><path d="m16.028 9.468a.5.5 0 0 1 -.426-.761l.712-1.169-1.7.983a.5.5 0 0 1 -.692-.667l.8-1.524-.16.091a.5.5 0 0 1 -.5-.865l1.661-.956a.5.5 0 0 1 .6.072.5.5 0 0 1 .1.594l-.8 1.523 1.9-1.1a.5.5 0 0 1 .676.694l-.714 1.172a.5.5 0 0 1 .459.886l-1.666.959a.49.49 0 0 1 -.25.068z" fill="#86fdaa"/><path d="m8.028 21.468a.5.5 0 0 1 -.417-.777l.62-.935-1.531.885a.5.5 0 0 1 -.7-.65l.826-1.718-.257.148a.5.5 0 0 1 -.5-.865l1.654-.956a.5.5 0 0 1 .7.649l-.823 1.717 1.97-1.138a.5.5 0 0 1 .667.709l-.651.984a.5.5 0 0 1 .348.923l-1.656.956a.49.49 0 0 1 -.25.068z" fill="#6de08e"/><path d="m16.028 21.468a.494.494 0 0 1 -.35-.144.5.5 0 0 1 -.087-.6l.778-1.4-1.84 1.063a.5.5 0 0 1 -.682-.684l.755-1.3-.037.021a.5.5 0 0 1 -.5-.865l1.658-.956a.494.494 0 0 1 .6.079.5.5 0 0 1 .079.6l-.754 1.3 1.783-1.029a.5.5 0 0 1 .6.076.5.5 0 0 1 .087.6l-.778 1.4.091-.052a.5.5 0 0 1 .5.865l-1.656.956a.49.49 0 0 1 -.247.07z" fill="#6de08e"/><path d="m7.771 33.452a.5.5 0 0 1 -.41-.786l.7-1-1.461.839a.5.5 0 0 1 -.6-.073.5.5 0 0 1 -.094-.6l.8-1.5-.146.084a.5.5 0 0 1 -.5-.865l1.663-.951a.494.494 0 0 1 .6.073.5.5 0 0 1 .094.6l-.8 1.5 1.891-1.091a.5.5 0 0 1 .66.719l-.7 1 .086-.049a.5.5 0 0 1 .5.865l-2.033 1.168a.489.489 0 0 1 -.25.067z" fill="#86fdaa"/><path d="m15.1 33.25a.5.5 0 0 1 -.407-.791l.922-1.29-1.267.732a.5.5 0 0 1 -.626-.1.5.5 0 0 1 -.02-.635l.528-.684a.49.49 0 0 1 -.342-.241.5.5 0 0 1 .182-.682l1.658-.956a.5.5 0 0 1 .645.738l-.332.431 1.076-.622a.5.5 0 0 1 .657.724l-.923 1.291.866-.5a.5.5 0 1 1 .5.865l-2.867 1.656a.489.489 0 0 1 -.25.064z" fill="#86fdaa"/><path d="m52.693 31.487a.5.5 0 0 1 -.417-.775l1.13-1.712-2.126 1.227a.5.5 0 0 1 -.6-.789l1.213-1.2-.611.352a.5.5 0 0 1 -.589-.8l.626-.576-.037.021a.5.5 0 0 1 -.623-.765l1.879-2.109-1.256.725a.5.5 0 0 1 -.6-.792l1.018-.984-.418.241a.5.5 0 0 1 -.62-.77l1.586-1.741-.966.558a.5.5 0 0 1 -.616-.774l1.107-1.187-.639.363a.5.5 0 0 1 -.618-.772l.8-.872-.591.341a.5.5 0 0 1 -.619-.771l.613-.664-.584.337a.5.5 0 0 1 -.648-.737l.967-1.263-1.336.771a.5.5 0 0 1 -.648-.734l.9-1.192-1.583.913a.5.5 0 0 1 -.672-.7l1.022-1.612-2.563 1.485a.5.5 0 0 1 -.633-.755l.926-1.1-3.41 1.969a.5.5 0 1 1 -.5-.866l5.874-3.391a.5.5 0 0 1 .633.755l-.926 1.1 1.862-1.076a.5.5 0 0 1 .672.7l-1.021 1.613 1.96-1.131a.5.5 0 0 1 .648.734l-.9 1.191 1.368-.789a.5.5 0 0 1 .647.737l-.967 1.264 1.254-.723a.5.5 0 0 1 .618.771l-.612.663.586-.338a.5.5 0 0 1 .618.772l-.8.872.693-.4a.5.5 0 0 1 .616.773l-1.1 1.187.858-.5a.5.5 0 0 1 .62.77l-1.586 1.741 1.149-.663a.5.5 0 0 1 .6.792l-1.019.985.432-.249a.5.5 0 0 1 .623.766l-1.887 2.111 1.26-.727a.5.5 0 0 1 .589.8l-.624.574.039-.023a.5.5 0 0 1 .6.789l-1.212 1.2.614-.355a.5.5 0 0 1 .667.708l-1.126 1.719.469-.27a.5.5 0 1 1 .5.865l-2.3 1.33a.489.489 0 0 1 -.253.062z" fill="#bfdbf0"/><path d="m36.46 31.474a.5.5 0 0 1 -.489-.6l.3-1.413-2.991 1.723a.5.5 0 0 1 -.622-.767l1.862-2.075-1.24.715a.5.5 0 0 1 -.605-.785l1.325-1.334-.717.414a.5.5 0 0 1 -.592-.8l.762-.712-.17.1a.5.5 0 0 1 -.653-.136.5.5 0 0 1 .064-.664l.621-.571-.032.018a.5.5 0 0 1 -.616-.773l1.762-1.89-1.146.661a.5.5 0 0 1 -.6-.787l2.486-2.471-1.829 1.056a.5.5 0 0 1 -.534-.844l3.555-2.453-2.721 1.567a.5.5 0 0 1 -.555-.829l4.625-3.55-2.983 1.726a.5.5 0 0 1 -.565-.821l2.274-1.842a.5.5 0 0 1 -.049-.891l4.025-2.324a.5.5 0 0 1 .565.821l-1.261 1.022 4.091-2.365a.5.5 0 0 1 .554.829l-4.625 3.55 6.91-3.989a.5.5 0 0 1 .534.844l-8.513 5.872a.5.5 0 0 1 -.071.619l-2.486 2.475.712-.411a.5.5 0 0 1 .616.773l-1.761 1.89 1.046-.6a.5.5 0 0 1 .589.8l-.622.571.037-.02a.5.5 0 0 1 .591.8l-.759.71.171-.1a.5.5 0 0 1 .606.784l-1.323 1.335.723-.417a.5.5 0 0 1 .622.767l-1.858 2.067 1.244-.719a.5.5 0 0 1 .739.536l-.342 1.617a.5.5 0 0 1 .11.914l-.539.31a.509.509 0 0 1 -.252.067z" fill="#bfdbf0"/><path d="m41.115 59.47a.5.5 0 0 1 -.273-.919l2.624-1.714-4.444 2.563a.5.5 0 0 1 -.526-.849l6.763-4.485-9.24 5.334a.5.5 0 0 1 -.525-.85l8.906-5.859-11.583 6.687a.5.5 0 0 1 -.517-.856l5.454-3.449-6.529 3.77a.5.5 0 0 1 -.525-.851l13.7-9.012-14.594 8.42a.5.5 0 0 1 -.517-.855l7.711-4.86-7.658 4.42a.5.5 0 0 1 -.516-.856l6.215-3.892-5.761 3.328a.5.5 0 0 1 -.523-.851l14.919-9.76-14.4 8.311a.5.5 0 0 1 -.512-.859l.468-.288a.5.5 0 0 1 -.47-.88l5.412-3.38-4.9 2.827a.5.5 0 0 1 -.514-.857l4.649-2.9-4.129 2.386a.5.5 0 0 1 -.514-.857l3.679-2.3-3.165 1.832a.5.5 0 0 1 -.522-.851l10.994-7.143-10.472 6.046a.5.5 0 0 1 -.514-.856l.88-.551-.366.211a.5.5 0 0 1 -.52-.854l5.04-3.242-4.52 2.61a.5.5 0 0 1 -.523-.852l4.82-3.151-4.3 2.48a.5.5 0 0 1 -.521-.852l.986-.637-.465.267a.5.5 0 0 1 -.541-.839l5.994-4.285-5.45 3.148a.5.5 0 0 1 -.536-.843l2.261-1.575-1.725.995a.5.5 0 0 1 -.543-.838l1.546-1.116-1 .579a.5.5 0 0 1 -.568-.818l2.035-1.682-1.463.844a.5.5 0 0 1 -.627-.761l1.379-1.585a.51.51 0 0 1 -.523-.242.5.5 0 0 1 .182-.683l2.376-1.372a.5.5 0 0 1 .627.761l-1.322 1.52 4.061-2.342a.5.5 0 0 1 .569.818l-2.036 1.682 4.327-2.5a.5.5 0 0 1 .543.838l-1.55 1.119 3.39-1.957a.5.5 0 0 1 .536.842l-2.262 1.577 4.19-2.419a.5.5 0 0 1 .541.84l-5.995 4.285 8.879-5.125a.5.5 0 0 1 .522.852l-.98.633 2.573-1.485a.5.5 0 0 1 .524.851l-4.818 3.149 6.931-4a.5.5 0 0 1 .521.853l-5.039 3.241 7.094-4.094a.5.5 0 0 1 .515.856l-.878.544 2.208-1.274a.5.5 0 0 1 .523.851l-10.995 7.145 12.2-7.041a.5.5 0 0 1 .514.856l-3.692 2.3 3.9-2.251a.5.5 0 0 1 .515.856l-4.64 2.9 4.554-2.629a.5.5 0 0 1 .515.856l-5.4 3.375 4.99-2.88a.5.5 0 0 1 .512.859l-.474.292a.5.5 0 0 1 .485.871l-14.921 9.755 14.389-8.308a.5.5 0 0 1 .515.857l-6.222 3.9 5.707-3.3a.5.5 0 0 1 .516.856l-7.712 4.864 7.2-4.154a.5.5 0 0 1 .524.85l-13.699 9.013 13.171-7.6a.5.5 0 0 1 .517.856l-5.459 3.452 4.942-2.857a.5.5 0 0 1 .524.85l-8.91 5.863 8.386-4.84a.5.5 0 0 1 .526.849l-6.756 4.481 6.23-3.6a.5.5 0 0 1 .523.852l-2.623 1.715 2.1-1.211a.5.5 0 0 1 .544.836l-6.529 4.756 5.985-3.455a.5.5 0 0 1 .541.839l-3.089 2.211 2.548-1.471a.5.5 0 0 1 .574.814l-3.563 3.032 2.989-1.725a.5.5 0 0 1 .572.816l-.986.83.289-.166a.5.5 0 0 1 .5.865l-5.181 2.989a.5.5 0 0 1 -.572-.815l.986-.831-2.851 1.646a.5.5 0 0 1 -.575-.813l3.564-3.033-6.666 3.846a.5.5 0 0 1 -.541-.839l3.087-2.209-5.279 3.048a.5.5 0 0 1 -.544-.837l6.529-4.754-9.687 5.591a.5.5 0 0 1 -.25.07z" fill="#e69b45"/><path d="m42.232 51.471a.5.5 0 0 1 -.332-.871l.76-.682-1.339.772a.5.5 0 0 1 -.653-.136.5.5 0 0 1 .065-.665l1.884-1.725-1.116.645a.5.5 0 0 1 -.591-.8l3.277-3.054-2.337 1.345a.5.5 0 0 1 -.569-.819l1.709-1.409-1.029.594a.5.5 0 0 1 -.575-.813l1.746-1.5-2.188 1.263a.5.5 0 0 1 -.557-.827l.55-.428-.465.268a.5.5 0 0 1 -.556-.828l.21-.163a.512.512 0 0 1 -.467-.167.5.5 0 0 1 -.009-.64l1.588-1.962-.038.031a.5.5 0 0 1 -.5-.865l2.376-1.371a.5.5 0 0 1 .639.747l-1.59 1.959 3.743-2.161a.5.5 0 0 1 .556.828l-.035.027.29-.167a.5.5 0 0 1 .557.828l-.545.424.609-.349a.5.5 0 0 1 .575.812l-1.748 1.5 1.573-.912a.5.5 0 0 1 .569.818l-1.712 1.413.935-.54a.5.5 0 0 1 .591.8l-3.283 3.055 1.274-.735a.5.5 0 0 1 .588.8l-1.883 1.722 1.53-.883a.5.5 0 0 1 .584.8l-.759.682.359-.207a.5.5 0 0 1 .718.61l-.493 1.3a.5.5 0 0 1 .454.889l-1.169.674a.5.5 0 0 1 -.718-.61l.491-1.292-3.3 1.9a.49.49 0 0 1 -.244.075z" fill="#d4893b"/><g fill="#262626"><path d="m8.012 9.551c3.2-.121 3.24-5.381-.133-5.1-3.07.249-3.136 5.249.133 5.1zm.044-3.975a1.642 1.642 0 0 1 1.444 1.601c-.1 1.93-3.044 1.423-3-.354a1.34 1.34 0 0 1 1.556-1.247z"/><path d="m15.95 9.563c3.287-.108 3.349-5.4-.118-5.115-2.992.29-3.063 5.18.118 5.115zm.2-3.969a1.634 1.634 0 0 1 1.35 1.555c-.176 1.869-3.037 1.51-3.006-.3a1.363 1.363 0 0 1 1.656-1.255z"/><path d="m7.926 21.487a2.71 2.71 0 0 0 2.637-2.666c-.175-3.244-5.121-2.806-5.126.3a2.407 2.407 0 0 0 2.489 2.366zm.221-3.962a1.653 1.653 0 0 1 1.28 1.6 1.431 1.431 0 1 1 -2.852-.243 1.319 1.319 0 0 1 1.572-1.357z"/><path d="m18.594 19.086c-.011-3.178-5.191-3.376-5.186-.111.011 3.135 5.016 3.268 5.186.111zm-2.579-1.625c1.767 0 1.789 2.865.107 3.075-1.938.183-1.986-3.036-.107-3.075z"/><path d="m8.047 28.54c-3.246.018-3.559 4.774-.2 4.914s3.669-4.907.2-4.914zm0 4c-1.716-.031-2-2.868-.229-3.069 1.87-.166 2.169 3.041.229 3.069z"/><path d="m18.449 30.652c-.357-3.25-4.916-2.646-4.932.446.072 3.602 5.257 2.923 4.932-.446zm-3.966.25c-.035-1.914 2.939-1.579 3.034.2-.103 1.904-3.002 1.586-3.034-.202z"/><path d="m.412 21.851a3.6 3.6 0 0 0 2.113 3.149c-2.515 1.474-2.148 4.945-2.011 7.923.145 3.162 1.267 4.5 4.5 4.642 7.708.332 15.494.019 23.214 0 .189 28.829-2.583 20.838 26.756 21.894 3.748-.605 4.552-3.043 4.605-6.444.08-5.079 0-10.166 0-15.246.173-3.522.545-8.726-4.138-9.281.294-8.4-.671-19.414-11.878-19.06.616-6.228.343-9.854-6.95-8.928h-26.436c-5.496 0-9.745-.77-9.745 6.093 0 2.673-.3 5.4 2.071 6.5-2.754 1.583-2.577 5.557-2.101 8.758zm11.905 14.584c-3.932.25-10.267 1.424-10.831-4.071-.45-2.344-.136-6.326 2.738-6.971 9.391.188 18.834.009 28.234.069.04 1.12.086 2.222.091 3.276a6.377 6.377 0 0 0 -2.827 1.7c-1.543-.109-3.128 0-4.685-.039-.6 0-.67 1.2-.074 1.2h3.975c-.685 1.408-.6 3.254-.687 4.836zm46.1-2.479c.207 4.173 0 8.412 0 12.589 0 3.053 1.532 11.193-3.391 11.992-29.478-1.068-24.612 6.326-25.75-21.237.246-.312.306-.787-.037-.85-.551-4.924 2.976-7.684 7.328-7.086.115.263.427.219.655.025a33.536 33.536 0 0 0 5.306-.089.72.72 0 0 0 .948-.066 56.158 56.158 0 0 1 7.047-.157c-.04.683.661.546.886.069 3.74.354 6.842 1.554 7.004 4.81zm-16.253-19.182c.867 1.714.536 4.924.379 6.705-.272 3.088-2.717 2.962-5.065 2.934-.263-3.831.754-8.627 4.686-9.639zm8.369 13.564a36.784 36.784 0 0 1 -6.944.04 3.459 3.459 0 0 0 -1.828-3.405c2.68-1.53 2.065-7.6 1.327-10.362 7.887-.749 7.831 8.049 7.445 13.727zm-13.055-2.746c2.209-.174 5.035-.309 4.936 2.7-1.573-.118-3.276-.227-4.936-.207zm17.073-4.259c.109 2.331.018 4.69 0 7.029a20.678 20.678 0 0 0 -3.073-.071c.435-6.705.355-16.007-8.985-14.677a.264.264 0 0 0 -.3.054c-6.364 1.451-5.781 9.029-5.685 14.44a17.568 17.568 0 0 0 -3.064.388c0-1.062-.011-2.161.006-3.268a.419.419 0 0 0 .009-.513c-1.199-17.835 19.582-18.815 21.092-3.382zm-50.413-19.833c7.7-.648 15.8.375 23.58 0 7.391.276 16.146-3.082 14.73 8.032a11.591 11.591 0 0 0 -6.228 2.968c-10.425-.32-21.058.528-31.424 0-3.896-.895-5.096-9.651-.658-11zm-.281 12c10.432.233 20.961-.149 31.418 0a11.1 11.1 0 0 0 -2.442 4.923h-7.715c-.573 0-.871 1.158-.236 1.158h7.744a29.337 29.337 0 0 0 -.2 4.959c-9.113-.326-18.5.544-27.545 0-4.049-.722-4.948-9.714-1.025-11.04z"/><path d="m42.478 36.805a4.594 4.594 0 0 0 -1.678 7.482c.537.745.262 1.754.1 2.658-1.429 4.917.584 5.138 4.859 4.562 3.022-.565 1.45-4.853 1.038-7.115 3.388-3.264.703-9.509-4.319-7.587zm3.935 13.03c-.376 1.223-4.484 1.08-4.826-.265-.408-1.6 1.1-3.659.756-5.28-.261-1.234-1.781-1.826-1.79-3.411-.037-6.571 11.374-1.744 5.383 3.1a.714.714 0 0 0 -.275.607c.197 1.373 1.147 3.963.752 5.249z"/><path d="m24.812 7.5c1.081-.3 16.188.844 13.376-1-1.081.3-16.188-.844-13.376 1z"/></g></svg>