<svg id="Icons" height="512" viewBox="0 0 60 60" width="512" xmlns="http://www.w3.org/2000/svg"><path d="m5.7 26.5a.5.5 0 0 1 -.267-.923l1.4-.884-2.561 1.477a.5.5 0 0 1 -.523-.852l5.6-3.649-6.138 3.542a.5.5 0 0 1 -.537-.842l8.945-6.281-9.977 5.76a.5.5 0 0 1 -.538-.842l7.039-4.948-6.863 3.962a.5.5 0 0 1 -.543-.838l5.276-3.807-4.733 2.731a.5.5 0 0 1 -.553-.83l3.873-2.963-3.32 1.916a.5.5 0 0 1 -.555-.829l1.584-1.224-1.029.594a.5.5 0 0 1 -.637-.749l2.9-3.575a.5.5 0 0 1 .233-.561l.5-.289a.5.5 0 0 1 .638.748l-1.788 2.207 5.123-2.957a.5.5 0 0 1 .556.828l-1.582 1.223 3.555-2.053a.5.5 0 0 1 .554.83l-3.873 2.963 6.575-3.8a.5.5 0 0 1 .543.838l-5.277 3.81 8.05-4.647a.5.5 0 0 1 .537.842l-7.041 4.95 10.038-5.795a.5.5 0 0 1 .537.842l-8.945 6.281 12.346-7.126a.5.5 0 0 1 .524.852l-5.593 3.645 7.8-4.5a.5.5 0 0 1 .517.856l-1.4.889 3.025-1.746a.5.5 0 0 1 .532.846l-9.5 6.476 12.69-7.326a.5.5 0 0 1 .518.855l-1.9 1.205 3.565-2.061a.5.5 0 0 1 .533.845l-9.894 6.805 13.261-7.654a.5.5 0 0 1 .532.846l-9.658 6.608 10.637-6.14a.5.5 0 0 1 .526.849l-5.791 3.846 6.434-3.714a.5.5 0 0 1 .532.845l-6.33 4.333 6.326-3.652a.5.5 0 0 1 .541.839l-5.9 4.226 5.369-3.1a.5.5 0 0 1 .533.844l-1.3.893.769-.444a.5.5 0 0 1 .57.818l-3.79 3.151 3.217-1.856a.5.5 0 0 1 .557.826l-.529.415a.5.5 0 0 1 .512.843l-.966.836a.492.492 0 0 1 .212.2.5.5 0 0 1 -.183.683l-3.191 1.838a.5.5 0 0 1 -.577-.81l.072-.063-1.517.875a.5.5 0 0 1 -.557-.826l.5-.393-2.116 1.221a.5.5 0 0 1 -.571-.817l3.787-3.152-6.877 3.975a.5.5 0 0 1 -.533-.845l1.3-.891-3.012 1.738a.5.5 0 0 1 -.541-.839l5.9-4.228-8.784 5.07a.5.5 0 0 1 -.532-.845l6.33-4.335-8.975 5.182a.5.5 0 0 1 -.527-.85l5.791-3.845-8.138 4.7a.5.5 0 0 1 -.533-.846l9.654-6.6-12.91 7.453a.5.5 0 0 1 -.534-.845l9.9-6.808-13.26 7.65a.5.5 0 0 1 -.517-.855l1.876-1.19-3.547 2.047a.5.5 0 0 1 -.533-.846l9.5-6.478-12.695 7.328a.494.494 0 0 1 -.253.068z" fill="#35718a"/><path d="m21.126 13.47a.5.5 0 0 1 -.272-.92l2.135-1.384-3.874 2.234a.5.5 0 0 1 -.536-.842l7.636-5.341-10.715 6.183a.5.5 0 0 1 -.524-.85l3.669-2.41-5.645 3.26a.5.5 0 0 1 -.54-.839l8.24-5.873-11.63 6.712a.5.5 0 0 1 -.528-.847l5.358-3.584-7.685 4.431a.5.5 0 0 1 -.524-.851l2.97-1.938-4.788 2.766a.5.5 0 0 1 -.536-.843l7.447-5.188-8.753 5.054a.5.5 0 0 1 -.524-.85l2.046-1.343-2.1 1.212a.5.5 0 0 1 -.53-.847l3.151-2.135-2.794 1.612a.5.5 0 0 1 -.538-.842l3.067-2.157-2.529 1.46a.5.5 0 0 1 -.537-.842l.734-.515-.2.114a.5.5 0 0 1 -.577-.809l2.8-2.452-2.22 1.28a.5.5 0 0 1 -.661-.718l1.364-1.968-.119.068a.5.5 0 0 1 -.5-.865l2.05-1.183a.5.5 0 0 1 .661.718l-1.364 1.968 4.689-2.706a.5.5 0 0 1 .579.808l-2.8 2.451 5.653-3.259a.5.5 0 0 1 .537.841l-.734.515 2.35-1.356a.5.5 0 0 1 .538.841l-3.067 2.159 5.2-3a.5.5 0 0 1 .531.846l-3.159 2.134 5.166-2.98a.5.5 0 0 1 .525.85l-2.047 1.342 3.801-2.192a.5.5 0 0 1 .536.842l-7.448 5.188 10.449-6.03a.5.5 0 0 1 .523.851l-2.969 1.936 4.836-2.787a.5.5 0 0 1 .528.847l-5.362 3.587 7.686-4.434a.5.5 0 0 1 .54.84l-8.241 5.871 11.629-6.711a.5.5 0 0 1 .524.85l-3.67 2.41 5.65-3.26a.5.5 0 0 1 .536.842l-7.636 5.339 10.716-6.181a.5.5 0 0 1 .521.852l-2.143 1.385 3.36-1.937a.5.5 0 0 1 .539.841l-7.59 5.367 8.413-4.861a.5.5 0 0 1 .533.846l-4.115 2.807 3.9-2.252a.5.5 0 0 1 .53.847l-1.623 1.105 1.095-.632a.5.5 0 0 1 .569.817l-4.573 3.79 4-2.311a.5.5 0 0 1 .575.812l-2.064 1.775 1.493-.862a.5.5 0 0 1 .65.732l-1.183 1.584a.5.5 0 0 1 .449.891l-2.05 1.184a.5.5 0 0 1 -.65-.732l1.178-1.578-4.04 2.33a.5.5 0 0 1 -.575-.812l2.067-1.774-4.48 2.586a.5.5 0 0 1 -.569-.817l4.573-3.783-7.981 4.6a.5.5 0 0 1 -.53-.846l1.626-1.1-3.376 1.946a.5.5 0 0 1 -.532-.845l4.123-2.812-6.34 3.657a.5.5 0 0 1 -.539-.84l7.59-5.369-10.755 6.209a.5.5 0 0 1 -.25.07z" fill="#4184a9"/><path d="m7.59 37.47a.5.5 0 0 1 -.283-.912l6.829-4.689-9.584 5.531a.5.5 0 0 1 -.535-.842l7.435-5.175-9.152 5.284a.5.5 0 0 1 -.525-.851l2.461-1.616-2.65 1.529a.5.5 0 0 1 -.544-.836l6.406-4.653-6.168 3.56a.5.5 0 0 1 -.552-.83l4.706-3.58-4.154 2.4a.5.5 0 0 1 -.554-.829l2.238-1.723-1.684.972a.5.5 0 0 1 -.6-.786l2.061-2.064-1.441.829a.5.5 0 0 1 -.609-.78l.7-.726a.492.492 0 0 1 -.208-.2.5.5 0 0 1 .182-.682l2.05-1.184a.5.5 0 0 1 .609.78l-.132.137 1.628-.934a.5.5 0 0 1 .6.786l-2.058 2.06 4.938-2.846a.5.5 0 0 1 .555.829l-2.236 1.72 4.414-2.549a.5.5 0 0 1 .553.83l-4.709 3.584 7.651-4.414a.5.5 0 0 1 .543.837l-6.406 4.65 9.509-5.487a.5.5 0 0 1 .524.85l-2.455 1.61 4.265-2.46a.5.5 0 0 1 .535.842l-7.437 5.176 10.426-6.018a.5.5 0 0 1 .534.844l-6.832 4.691 9.587-5.535a.5.5 0 0 1 .539.84l-7.935 5.6 11.154-6.44a.5.5 0 0 1 .533.844l-6.807 4.671 9.555-5.515a.5.5 0 0 1 .535.842l-7.424 5.165 10.407-6.007a.5.5 0 0 1 .541.84l-8.295 5.92 10.7-6.174a.5.5 0 0 1 .532.845l-5.818 3.979 6.245-3.61a.5.5 0 0 1 .549.834l-6.747 5.03 6.435-3.715a.5.5 0 0 1 .562.822l-4.851 3.9 4.289-2.476a.5.5 0 0 1 .543.838l-.371.268a.5.5 0 0 1 .4.874l-1.25 1.072.675-.389a.5.5 0 0 1 .629.759l-.906 1.051a.5.5 0 0 1 .193.929l-2.05 1.184a.5.5 0 0 1 -.629-.759l.711-.825-2.78 1.603a.5.5 0 0 1 -.575-.812l1.249-1.07-3.259 1.882a.5.5 0 0 1 -.543-.838l.112-.081-1.593.919a.5.5 0 0 1 -.562-.822l4.852-3.895-8.176 4.717a.5.5 0 0 1 -.549-.834l6.746-5.028-10.154 5.862a.5.5 0 0 1 -.533-.845l5.812-3.977-8.354 4.822a.5.5 0 0 1 -.541-.839l8.3-5.926-11.717 6.765a.5.5 0 0 1 -.535-.842l7.417-5.158-10.403 6a.5.5 0 0 1 -.533-.844l6.807-4.671-9.553 5.515a.5.5 0 0 1 -.538-.84l7.938-5.598-11.16 6.438a.5.5 0 0 1 -.25.07z" fill="#4184a9"/><path d="m7.68 9.444a.5.5 0 0 1 -.432-.752l.9-1.545-1.732 1a.5.5 0 0 1 -.665-.711l.649-.954a.5.5 0 0 1 -.33-.926l1.653-.956a.494.494 0 0 1 .615.091.5.5 0 0 1 .05.621l-.6.89 1.5-.863a.5.5 0 0 1 .682.684l-.9 1.545.525-.3a.5.5 0 1 1 .5.865l-2.165 1.244a.489.489 0 0 1 -.25.067z" fill="#86fdaa"/><path d="m16.028 9.468a.5.5 0 0 1 -.391-.811l.259-.326-.966.558a.5.5 0 0 1 -.621-.768l.507-.562-.489.282a.5.5 0 0 1 -.64-.744l.5-.626a.5.5 0 0 1 -.121-.915l1.657-.956a.5.5 0 0 1 .64.744l-.246.309.947-.547a.5.5 0 0 1 .622.768l-.507.562.492-.285a.5.5 0 0 1 .641.744l-.5.633a.5.5 0 0 1 .124.916l-1.658.956a.49.49 0 0 1 -.25.068z" fill="#86fdaa"/><path d="m7.64 21.435a.5.5 0 0 1 -.436-.746l.93-1.654-1.755 1.013a.5.5 0 0 1 -.657-.723l.6-.837a.5.5 0 0 1 -.25-.932l1.651-.956a.5.5 0 0 1 .657.722l-.505.707 1.339-.772a.5.5 0 0 1 .685.678l-.929 1.654.636-.367a.5.5 0 1 1 .5.865l-2.216 1.28a.49.49 0 0 1 -.25.068z" fill="#6de08e"/><path d="m16.028 21.468a.5.5 0 0 1 -.4-.794l.465-.638-1.277.736a.5.5 0 0 1 -.612-.778l.3-.315-.188.107a.5.5 0 0 1 -.636-.75l.473-.575a.491.491 0 0 1 -.268-.223.5.5 0 0 1 .182-.682l1.658-.956a.5.5 0 0 1 .636.75l-.159.193.821-.474a.5.5 0 0 1 .612.779l-.3.316.3-.173a.5.5 0 0 1 .654.727l-.578.794a.5.5 0 0 1 .227.932l-1.656.956a.49.49 0 0 1 -.254.068z" fill="#6de08e"/><path d="m7.355 33.36a.5.5 0 0 1 -.426-.759l.982-1.614-1.57.907a.5.5 0 0 1 -.646-.74l.524-.675a.5.5 0 0 1 -.154-.923l1.658-.956a.5.5 0 0 1 .645.739l-.323.416 1.061-.612a.5.5 0 0 1 .677.692l-.983 1.613.88-.508a.5.5 0 0 1 .5.866l-2.575 1.487a.489.489 0 0 1 -.25.067z" fill="#86fdaa"/><path d="m16.028 33.468a.5.5 0 0 1 -.428-.768l.684-1.089-1.647.951a.5.5 0 0 1 -.7-.66l.815-1.594-.2.111a.5.5 0 0 1 -.5-.865l1.658-.956a.5.5 0 0 1 .695.66l-.805 1.596 1.929-1.114a.5.5 0 0 1 .674.7l-.692 1.1a.5.5 0 0 1 .419.9l-1.656.956a.49.49 0 0 1 -.246.072z" fill="#86fdaa"/><path d="m42.256 59.444a.5.5 0 0 1 -.289-.907l1.046-.743-2.028 1.17a.5.5 0 0 1 -.528-.849l.425-.284-1.006.581a.5.5 0 0 1 -.524-.85l.544-.357-1.077.621a.5.5 0 0 1 -.522-.851l1.688-1.1-2.236 1.291a.5.5 0 0 1 -.525-.85l5.5-3.626-6.24 3.6a.5.5 0 0 1 -.523-.852l6.4-4.185-7.094 4.1a.5.5 0 0 1 -.522-.853l6.65-4.3-7.245 4.181a.5.5 0 0 1 -.516-.856l3.085-1.946-3.426 1.978a.5.5 0 0 1 -.523-.852l10.366-6.76-11.022 6.364a.5.5 0 0 1 -.518-.855l7.569-4.817-7.951 4.59a.5.5 0 0 1 -.525-.851l13.5-8.867-14.122 8.152a.5.5 0 0 1 -.513-.857l1.525-.945-1.591.918a.5.5 0 0 1 -.512-.858l.232-.143-.243.14a.5.5 0 0 1 -.524-.852l14.948-9.755-15.348 8.86a.5.5 0 0 1 -.522-.852l15.322-9.962-15.6 9.007a.5.5 0 0 1 -.512-.858l2.836-1.75-2.718 1.569a.5.5 0 0 1 -.513-.857l4.358-2.7-4.213 2.434a.5.5 0 0 1 -.52-.853l14.412-9.229-14.371 8.296a.5.5 0 0 1 -.516-.856l8.775-5.493-8.546 4.935a.5.5 0 0 1 -.52-.855l11.519-7.353-11.249 6.495a.5.5 0 0 1 -.515-.856l4.341-2.712-3.941 2.275a.5.5 0 0 1 -.519-.854l7.09-4.51-6.632 3.829a.5.5 0 0 1 -.522-.852l8.7-5.661-8.185 4.727a.5.5 0 0 1 -.517-.856l1.9-1.2-1.386.8a.5.5 0 0 1 -.519-.853l2.99-1.915-2.468 1.422a.5.5 0 0 1 -.532-.845l8.1-5.535-7.569 4.37a.5.5 0 0 1 -.539-.841l7.26-5.137-6.721 3.88a.5.5 0 0 1 -.539-.841l2.146-1.522-1.606.926a.5.5 0 0 1 -.581-.806l2.369-2.1-1.788 1.037a.5.5 0 0 1 -.685-.678l.733-1.3a.5.5 0 0 1 -.575-.23.5.5 0 0 1 .183-.682l1.464-.847a.5.5 0 0 1 .686.679l-.721 1.277 4.5-2.6a.5.5 0 0 1 .581.807l-2.368 2.1 6.662-3.847a.5.5 0 0 1 .539.841l-2.15 1.523 6.76-3.9a.5.5 0 0 1 .539.841l-7.265 5.14 9.607-5.546a.5.5 0 0 1 .532.846l-8.102 5.529 9.857-5.69a.5.5 0 0 1 .519.853l-2.976 1.912 4.091-2.363a.5.5 0 0 1 .518.856l-1.9 1.2 2.965-1.712a.5.5 0 0 1 .523.852l-8.708 5.664 10.522-6.075a.5.5 0 0 1 .519.855l-7.089 4.508 8.688-5.016a.5.5 0 0 1 .514.857l-4.343 2.715 5.714-3.3a.5.5 0 0 1 .52.854l-11.519 7.354 13.425-7.751a.5.5 0 0 1 .516.856l-8.784 5.5 8.945-5.164a.5.5 0 0 1 .519.854l-14.408 9.223 13.892-8.019a.5.5 0 0 1 .512.857l-4.356 2.7 3.844-2.218a.5.5 0 0 1 .512.858l-2.854 1.761 2.342-1.352a.5.5 0 0 1 .522.852l-15.312 9.95 14.79-8.541a.5.5 0 0 1 .523.851l-14.952 9.76 14.429-8.33a.5.5 0 0 1 .512.858l-.435.268a.5.5 0 0 1 .436.895l-1.539.953 1.026-.592a.5.5 0 0 1 .524.85l-13.5 8.87 12.956-7.478a.5.5 0 0 1 .519.855l-7.568 4.816 6.95-4.012a.5.5 0 0 1 .523.852l-10.364 6.757 9.558-5.519a.5.5 0 0 1 .517.856l-3.085 1.946 2.271-1.311a.5.5 0 0 1 .521.853l-6.642 4.302 5.619-3.243a.5.5 0 0 1 .523.851l-6.416 4.192 5.165-2.982a.5.5 0 0 1 .525.85l-5.493 3.623 4-2.309a.5.5 0 0 1 .523.852l-1.693 1.1.149-.085a.5.5 0 0 1 .524.851l-1.538 1a.5.5 0 0 1 .278.916l-1.98 1.323a.5.5 0 0 1 .193.9l-3.617 2.57a.486.486 0 0 1 .14.155.5.5 0 0 1 -.183.683l-6.113 3.529a.494.494 0 0 1 -.25.068z" fill="#e1efff"/><path d="m41.959 54.965a.5.5 0 0 1 -.311-.892l2.881-2.282-4.082 2.356a.5.5 0 0 1 -.546-.834l4.684-3.448-5.661 3.268a.5.5 0 0 1 -.528-.848l2.022-1.357-2.493 1.439a.5.5 0 0 1 -.525-.85l1.518-1-1.885 1.087a.5.5 0 0 1 -.538-.84l8.717-6.157-9.642 5.57a.5.5 0 0 1 -.53-.847l7.7-5.2-8.27 4.77a.5.5 0 0 1 -.522-.852l3.808-2.458-4.035 2.329a.5.5 0 0 1 -.531-.847l10.044-6.809-10.552 6.095a.5.5 0 0 1 -.522-.852l5.67-3.661-5.809 3.355a.5.5 0 0 1 -.529-.847l10.736-7.192-11.013 6.356a.5.5 0 0 1 -.516-.857l.116-.073a.5.5 0 0 1 -.5-.862l4.542-2.887-4.442 2.562a.5.5 0 0 1 -.517-.855l2.754-1.734-2.566 1.481a.5.5 0 0 1 -.516-.856l1.038-.649-.783.451a.5.5 0 0 1 -.522-.851l8.631-5.622-8.4 4.848a.5.5 0 0 1 -.523-.851l7.071-4.617-6.724 3.881a.5.5 0 0 1 -.52-.853l2.873-1.844-2.418 1.4a.5.5 0 0 1 -.523-.853l2.872-1.861-2.362 1.359a.5.5 0 0 1 -.533-.845l6.318-4.343-5.785 3.339a.5.5 0 0 1 -.669-.159.5.5 0 0 1 .123-.677l6.823-5-6.277 3.624a.5.5 0 0 1 -.548-.834l3.637-2.7-3.089 1.784a.5.5 0 0 1 -.556-.828l.887-.69-.331.19a.5.5 0 0 1 -.666-.71l.824-1.234a.5.5 0 0 1 -.372-.918l1.705-.984a.5.5 0 0 1 .666.71l-.8 1.2 4.768-2.753a.5.5 0 0 1 .557.827l-.888.691 4.32-2.494a.5.5 0 0 1 .547.834l-3.641 2.696 6.7-3.87a.5.5 0 0 1 .546.836l-6.821 5 8.838-5.1a.5.5 0 0 1 .534.845l-6.323 4.346 8.082-4.657a.5.5 0 0 1 .523.853l-2.879 1.861 4.1-2.367a.5.5 0 0 1 .52.853l-2.856 1.833 4.1-2.368a.5.5 0 0 1 .524.852l-7.08 4.623 8.74-5.046a.5.5 0 0 1 .522.851l-8.621 5.616 9.163-5.29a.5.5 0 0 1 .516.856l-1.059.662.647-.373a.5.5 0 0 1 .516.855l-2.74 1.729 2.228-1.286a.5.5 0 0 1 .518.854l-4.551 2.893 4.033-2.328a.5.5 0 0 1 .515.856l-.411.257a.5.5 0 0 1 .424.894l-10.733 7.19 10.2-5.892a.5.5 0 0 1 .521.853l-5.682 3.67 5.161-2.98a.5.5 0 0 1 .53.847l-10.034 6.807 9.471-5.468a.5.5 0 0 1 .521.853l-3.811 2.46 3.153-1.82a.5.5 0 0 1 .53.847l-7.7 5.2 6.816-3.935a.5.5 0 0 1 .538.84l-8.719 6.16 7.422-4.286a.5.5 0 0 1 .524.851l-1.524 1 .358-.206a.5.5 0 0 1 .528.848l-2.018 1.355.589-.34a.5.5 0 0 1 .546.835l-4.682 3.446 2.185-1.261a.5.5 0 0 1 .561.824l-4.025 3.189a.491.491 0 0 1 .221.2.5.5 0 0 1 -.182.683l-4.3 2.484a.493.493 0 0 1 -.254.071z" fill="#e69b45"/><g fill="#262626"><path d="m7.963 9.541c3.2-.064 3.36-5.3-.035-5.076-3.085.184-3.248 5.182.035 5.076zm1.524-2.408c-.106 1.953-2.968 1.521-2.974-.266-.006-1.967 2.878-1.503 2.974.266z"/><path d="m15.915 9.585c3.286-.032 3.378-5.366-.048-5.158-2.998.232-3.09 5.131.048 5.158zm1.608-2.485a1.535 1.535 0 0 1 -3.046-.176c-.035-1.918 2.891-1.593 3.046.176z"/><path d="m10.42 19.337c.363-3.448-4.784-4.022-4.877-.407-.03 3.154 4.508 3.638 4.877.407zm-3.963-.266c-.014-1.805 2.986-1.994 3.086-.142-.096 1.788-3.072 2.005-3.086.142z"/><path d="m18.589 19.116c.009-3.165-5.166-3.451-5.179-.171-.01 3.124 5.008 3.342 5.179.171zm-2.656-1.645c1.785-.135 1.923 2.731.274 3.043-1.948.329-2.139-2.881-.274-3.043z"/><path d="m7.918 28.5c-3.146.244-3.3 5.078.055 5.008 3.268-.13 3.411-5.214-.055-5.008zm-1.371 2.357c.051-2 2.965-1.521 2.905.286-.107 1.994-2.913 1.518-2.905-.286z"/><path d="m16.015 28.55a2.541 2.541 0 0 0 -2.615 2.43c-.011 3.192 5.029 3.208 5.2.04a2.577 2.577 0 0 0 -2.585-2.47zm0 4c-1.759-.01-1.88-2.854-.165-3.083 1.913-.201 2.05 3.022.165 3.083z"/><path d="m59.452 20.751c-.906-3.6-9.216-3.023-12.172-3.8-1.268-.315-2.534-.873-3.822-1.178a3.321 3.321 0 0 0 -1.924-2.728c2.573-1.526 2.092-5.324 1.915-8.257-.167-2.774-1.177-4.069-3.977-4.388-8.608-.976-17.88 0-26.541 0-5.871.067-13.441-2.221-12.38 6.573 0 2.491-.121 4.927 1.827 6.067-1.478.876-1.766 2.496-1.861 4.612-.132 2.955-.53 6.31 2.214 7.555-1.48.712-2.3 2.147-2.3 5.059-.001 2.354-.631 5.739 2.04 6.934 7.357.879 15.025-.029 22.48.282a27.739 27.739 0 0 0 9.687 17.908c4.352 3.613 7 5.1 11.856 2.01 13.113-7.95 13.744-22.906 12.958-36.649zm-56.727-17.835c2.103-2.256 5.881-1.316 8.848-1.316h14.848c3.895 0 8.008-.382 11.885 0 1.962.193 3.13-.832 4.245 2.58.737 2.249.213 7.962-2.832 8.222-9.118-.8-18.013.428-27.11.027-2.353 0-4.983-.312-7.388-.112-4.127-.802-5.321-6.368-2.496-9.401zm-1.242 16.958c-.235-2.24-.342-5.422 2.45-6.3 11.667.339 23.46-.167 35.161.026 1.639.356 2.876.974 3.279 1.994-3.936-.089-7.787 2.028-11.73 2.584-5.016.248-6.557 1.039-6.392 6.252h-16.818c-3.417-.001-5.511-.374-5.95-4.556zm11.271 16.643c-4.889 0-11.184 1.507-11.184-5.227 0-2.605.187-4.841 2.793-5.649 6.59.426 13.3-.337 19.9-.07.267 3.78.171 7.3.557 10.946zm44.739 4.691c-2.025 6.648-7.005 13.909-13.7 16.513-7.106 1.206-13.777-7.885-16.156-13.477-2.693-6.19-1.842-12.038-2.586-18.724.3-.164.659-.6.4-.873-.038-.189-.254-.238-.444-.218-.544-5.012 3.094-4.92 6.893-5.3 2.4-.417 4.7-1.112 7.073-1.589 4-.8 6.948.414 10.8 1.183 1.7.338 7.906.471 8.765 2.375.02 6.545.78 13.774-1.045 20.11z"/><path d="m48.805 21.445c-5.449-1.813-8.166-2.031-13.636 0-2.379.447-6.091.115-6.6 3.2-.69 7.545-.258 16.076 4.083 22.584 1.834 2.731 6.448 8.505 10.252 7.648 9.424-5.225 12.537-14.277 12.546-24.522.581-6.515.59-8.47-6.645-8.91zm5.745 10.8c-.045 9.038-3.879 16.755-11.782 21.437-4.629 1.064-9.878-7.394-11.342-10.7a26.3 26.3 0 0 1 -1.976-10.882c-.008-1.825-.667-5.192 0-6.864 1.215-3.05 11.715-4.21 14.587-3.756 2.587.409 9.711 1.1 10.513 3.724.59 1.931.01 5.013 0 7.044z"/><path d="m24.991 7.591h13c.567 0 .665-1.182.018-1.182h-13c-.567 0-.665 1.182-.018 1.182z"/><path d="m47.692 29.615-8.692 11.591-2.658-2.657c-.492-.492-1.083.5-.682.9.867.523 2.825 3.651 3.648 2.934.392-1.024 11.859-14.394 8.384-12.768z"/></g></svg>