<svg id="Icons" height="512" viewBox="0 0 60 60" width="512" xmlns="http://www.w3.org/2000/svg"><path d="m19.678 56.5a.5.5 0 0 1 -.316-.888l4.263-3.464a.5.5 0 0 1 -.4-.644l.552-1.752a.489.489 0 0 1 -.181-.183.5.5 0 0 1 .182-.682l.5-.29a.5.5 0 0 1 .727.583l-.442 1.4 3.45-1.99a.5.5 0 0 1 .565.82l-3.708 3.014 6.662-3.846a.5.5 0 0 1 .552.831l-2.859 2.17 5.211-3.009a.5.5 0 0 1 .545.836l-2.158 1.583 2.9-1.672a.5.5 0 0 1 .556.829l-2.24 1.734 1.86-1.074a.5.5 0 0 1 .554.829l-.118.092a.5.5 0 0 1 .595.78l-1.33 1.493 1.771-1.022a.5.5 0 0 1 .688.673l-.548 1 1.291-.746a.5.5 0 0 1 .746.37l.114.894 1.035-.6a.5.5 0 0 1 .5.866l-1.685.972a.5.5 0 0 1 -.746-.369l-.115-.894-2.2 1.267a.5.5 0 0 1 -.688-.674l.549-1-2.9 1.674a.5.5 0 0 1 -.624-.765l1.328-1.492-3.919 2.262a.5.5 0 0 1 -.554-.829l.112-.086-1.591.918a.5.5 0 0 1 -.557-.828l2.238-1.735-4.435 2.568a.5.5 0 0 1 -.546-.836l2.158-1.583-4.2 2.423a.5.5 0 0 1 -.552-.831l2.862-2.171-5.207 3.006a.491.491 0 0 1 -.247.068z" fill="#9fbace"/><path d="m19.945 50.47a.5.5 0 0 1 -.3-.9l1.575-1.2-3.52 2.03a.5.5 0 0 1 -.575-.812l2.842-2.436-5.628 3.248a.5.5 0 0 1 -.573-.813l2.782-2.362-5.5 3.175a.5.5 0 0 1 -.549-.833l1.181-.882-2.975 1.715a.5.5 0 0 1 -.548-.835l.962-.711-2.679 1.546a.5.5 0 0 1 -.555-.828l1.784-1.372-3.82 2.2a.5.5 0 0 1 -.582-.806l3.005-2.665-4.611 2.664a.5.5 0 0 1 -.568-.819l1.607-1.324-1.417.818a.5.5 0 0 1 -.608-.782l1.185-1.217-.582.335a.5.5 0 0 1 -.66-.717l.5-.722a.5.5 0 0 1 -.219-.2.5.5 0 0 1 .183-.684l1.181-.681a.5.5 0 0 1 .66.718l-.212.3 1.774-1.018a.5.5 0 0 1 .609.781l-1.187 1.219 3.465-2a.5.5 0 0 1 .568.818l-1.6 1.322 3.71-2.14a.5.5 0 0 1 .582.806l-3.007 2.662 6.016-3.468a.5.5 0 0 1 .555.828l-1.781 1.372 3.817-2.2a.5.5 0 0 1 .548.835l-.964.713 2.684-1.548a.5.5 0 0 1 .549.833l-1.184.885 2.975-1.718a.5.5 0 0 1 .573.813l-2.781 2.357 5.5-3.176a.5.5 0 0 1 .575.812l-2.843 2.437 5.629-3.249a.5.5 0 0 1 .553.83l-1.573 1.2 3.517-2.03a.5.5 0 0 1 .571.816l-2.687 2.249 5.31-3.065a.5.5 0 0 1 .586.8l-3.086 2.793 6.232-3.6a.5.5 0 0 1 .585.8l-3.076 2.776 6.2-3.581a.5.5 0 0 1 .559.825l-2.074 1.646 4.265-2.462a.5.5 0 0 1 .556.828l-1.809 1.4 3.856-2.224a.5.5 0 0 1 .543.838l-.317.228 1.85-1.067a.5.5 0 0 1 .591.8l-3.165 2.937 6.483-3.741a.5.5 0 0 1 .552.831l-1.47 1.114 3.371-1.946a.5.5 0 0 1 .559.826l-2.05 1.609 4.22-2.435a.5.5 0 0 1 .577.811l-2.889 2.5 3.887-2.25a.5.5 0 0 1 .572.815l-1.484 1.252.912-.527a.5.5 0 0 1 .614.776l-.822.874.2-.112a.5.5 0 1 1 .5.865l-3.14 1.807a.5.5 0 0 1 -.614-.775l.822-.874-2.857 1.649a.5.5 0 0 1 -.572-.814l1.483-1.251-3.578 2.065a.5.5 0 0 1 -.577-.811l2.89-2.5-5.728 3.311a.5.5 0 0 1 -.559-.826l2.049-1.608-4.218 2.434a.5.5 0 0 1 -.551-.831l1.471-1.115-3.372 1.946a.5.5 0 0 1 -.591-.8l3.163-2.943-6.48 3.743a.5.5 0 0 1 -.543-.838l.321-.232-1.854 1.07a.5.5 0 0 1 -.556-.828l1.807-1.395-3.853 2.223a.5.5 0 0 1 -.559-.825l2.084-1.635-4.27 2.46a.5.5 0 0 1 -.585-.8l3.076-2.777-6.2 3.58a.5.5 0 0 1 -.586-.8l3.086-2.793-6.231 3.6a.5.5 0 0 1 -.572-.816l2.682-2.256-5.3 3.062a.493.493 0 0 1 -.255.07z" fill="#c0daf0"/><path d="m1.149 45.5a.5.5 0 0 1 -.26-.927l22.558-13.762-22.167 12.797a.5.5 0 0 1 -.508-.86l13.228-7.977-12.72 7.341a.5.5 0 0 1 -.508-.861l9.391-5.645-8.883 5.128a.5.5 0 0 1 -.509-.86l17.479-10.59-16.97 9.8a.5.5 0 0 1 -.512-.858l28.067-17.292-27.555 15.908a.5.5 0 0 1 -.512-.859l28.085-17.339-27.573 15.919a.5.5 0 0 1 -.511-.863l23.613-14.533-23.102 13.333a.5.5 0 0 1 -.508-.861l4.812-2.9-4.304 2.491a.5.5 0 0 1 -.509-.86l6.09-3.679-5.581 3.222a.5.5 0 0 1 -.51-.859l12.636-7.727-12.126 7a.5.5 0 0 1 -.515-.855l20.235-12.721-19.72 11.385a.5.5 0 0 1 -.517-.855l18.611-11.8-18.094 10.442a.5.5 0 0 1 -.514-.857l11.018-6.866-10.504 6.06a.5.5 0 0 1 -.521-.853l15.712-10.177-15.191 8.77a.5.5 0 0 1 -.513-.857l3.359-2.086-2.846 1.643a.5.5 0 0 1 -.516-.855l5.406-3.407-4.89 2.823a.5.5 0 0 1 -.528-.848l11.279-7.575-10.751 6.207a.5.5 0 0 1 -.528-.845l7.7-5.147-7.172 4.135a.5.5 0 0 1 -.539-.841l7.788-5.522-7.249 4.185a.5.5 0 0 1 -.526-.85l1-.667-.474.277a.5.5 0 0 1 -.556-.828l4.949-3.851-4.393 2.536a.5.5 0 0 1 -.562-.827l2.54-2.031-1.978 1.146a.5.5 0 0 1 -.594-.795l1.633-1.554-1.039.6a.5.5 0 0 1 -.655-.725l.686-.952a.5.5 0 0 1 -.244-.932l1.659-.957a.5.5 0 0 1 .655.724l-.581.812 2.662-1.536a.5.5 0 0 1 .6.8l-1.639 1.546 4.068-2.346a.5.5 0 0 1 .563.823l-2.541 2.028 4.944-2.851a.5.5 0 0 1 .557.827l-4.95 3.85 8.104-4.677a.5.5 0 0 1 .526.849l-1.012.671 2.635-1.52a.5.5 0 0 1 .539.84l-7.784 5.517 11.016-6.357a.5.5 0 0 1 .528.848l-7.7 5.147 10.389-5.995a.5.5 0 0 1 .528.847l-11.282 7.575 14.593-8.422a.5.5 0 0 1 .516.855l-5.4 3.4 7.375-4.255a.5.5 0 0 1 .513.857l-3.358 2.083 5.098-2.94a.5.5 0 0 1 .521.852l-15.709 10.175 19.1-11.027a.5.5 0 0 1 .514.856l-11.014 6.865 13.382-7.721a.5.5 0 0 1 .517.854l-18.617 11.806 21.934-12.66a.5.5 0 0 1 .515.855l-20.231 12.718 23.512-13.573a.5.5 0 0 1 .511.859l-12.635 7.724 14.87-8.583a.5.5 0 0 1 .508.86l-6.1 3.684 7.874-4.544a.5.5 0 0 1 .508.861l-4.8 2.889 6.497-3.75a.5.5 0 0 1 .512.858l-23.614 14.536 26.246-15.153a.5.5 0 0 1 .511.859l-28.075 17.334 28.592-16.508a.5.5 0 0 1 .512.859l-28.065 17.288 27.558-15.91a.5.5 0 0 1 .508.86l-17.492 10.6 16.985-9.807a.5.5 0 0 1 .507.861l-9.411 5.658 8.9-5.141a.5.5 0 0 1 .507.86l-13.207 7.971 12.706-7.336a.5.5 0 0 1 .51.859l-22.552 13.759 22.044-12.726a.5.5 0 0 1 .509.859l-17.5 10.644 16.991-9.809a.5.5 0 0 1 .507.86l-7.771 4.689 7.265-4.195a.5.5 0 0 1 .509.86l-13.708 8.354 13.2-7.621a.5.5 0 0 1 .515.857l-21.1 13.157 20.587-11.886a.5.5 0 0 1 .514.858l-16.153 10.024 15.64-9.03a.5.5 0 0 1 .515.856l-15.142 9.456 14.628-8.445a.5.5 0 0 1 .515.856l-11.617 7.243 11.1-6.412a.5.5 0 0 1 .515.857l-9.09 5.67 8.576-4.951a.5.5 0 0 1 .524.851l-14.714 9.6 14.195-8.193a.5.5 0 0 1 .527.85l-12.685 8.405 12.16-7.019a.5.5 0 0 1 .522.852l-6.9 4.465 6.375-3.68a.5.5 0 0 1 .534.843l-9.319 6.433 8.787-5.073a.5.5 0 0 1 .524.85l-2.3 1.507 1.781-1.023a.5.5 0 0 1 .542.838l-5.772 4.162 5.231-3.021a.5.5 0 0 1 .551.832l-4.054 3.056 3.505-2.023a.5.5 0 0 1 .556.829l-1.995 1.54 1.44-.831a.5.5 0 0 1 .584.8l-1.525 1.372.942-.544a.5.5 0 0 1 .643.743l-.7.877.053-.03a.5.5 0 1 1 .5.865l-2.311 1.335a.5.5 0 0 1 -.643-.743l.694-.878-2.809 1.622a.5.5 0 0 1 -.584-.8l1.525-1.372-3.772 2.177a.5.5 0 0 1 -.556-.828l1.993-1.539-4.1 2.369a.5.5 0 0 1 -.551-.832l4.051-3.054-6.738 3.888a.5.5 0 0 1 -.542-.838l5.778-4.166-8.669 5.005a.5.5 0 0 1 -.524-.85l2.287-1.5-4.073 2.352a.5.5 0 0 1 -.534-.844l9.322-6.434-12.61 7.28a.5.5 0 0 1 -.522-.852l6.9-4.469-9.22 5.322a.5.5 0 0 1 -.526-.85l12.676-8.4-16.02 9.252a.5.5 0 0 1 -.523-.852l14.722-9.606-18.118 10.46a.5.5 0 0 1 -.515-.857l9.079-5.663-11.3 6.521a.5.5 0 0 1 -.511-.856l11.62-7.243-14.031 8.1a.5.5 0 0 1 -.515-.857l15.134-9.451-17.856 10.311a.5.5 0 0 1 -.514-.858l16.162-10.027-18.86 10.887a.5.5 0 0 1 -.515-.857l21.1-13.159-24.277 14.018a.5.5 0 0 1 -.51-.86l13.7-8.348-15.95 9.209a.5.5 0 0 1 -.508-.861l7.806-4.709-9.649 5.571a.5.5 0 0 1 -.51-.86l17.48-10.632-19.907 11.494a.494.494 0 0 1 -.251.067z" fill="#154182"/><path d="m6.729 41.471a.5.5 0 0 1 -.259-.928l7.152-4.331-8.191 4.729a.5.5 0 0 1 -.513-.858l21.49-13.283-21.128 12.2a.5.5 0 0 1 -.512-.858l20.655-12.742-20.143 11.628a.5.5 0 0 1 -.509-.859l13.7-8.344-13.191 7.613a.5.5 0 0 1 -.512-.858l20.407-12.623-19.895 11.486a.5.5 0 0 1 -.512-.858l16.305-10.062-15.793 9.118a.5.5 0 0 1 -.509-.86l6.029-3.67-5.52 3.189a.5.5 0 0 1 -.511-.859l8.989-5.519-8.478 4.891a.5.5 0 0 1 -.513-.857l11.563-7.189-11.05 6.379a.5.5 0 0 1 -.511-.859l4.7-2.891-4.189 2.417a.5.5 0 0 1 -.516-.855l10.177-6.406-9.661 5.577a.5.5 0 0 1 -.52-.854l11.328-7.275-10.808 6.237a.5.5 0 0 1 -.519-.854l7.453-4.759-6.934 4a.5.5 0 0 1 -.518-.855l3.905-2.48-3.387 1.957a.5.5 0 0 1 -.52-.853l3.986-2.566-3.466 2a.5.5 0 0 1 -.526-.849l5.367-3.566-4.841 2.795a.5.5 0 0 1 -.528-.848l3.748-2.514-3.22 1.855a.5.5 0 0 1 -.534-.844l3.146-2.17-2.612 1.508a.5.5 0 0 1 -.538-.841l1.876-1.32-1.338.772a.5.5 0 0 1 -.58-.805l3.5-3.152-2.92 1.685a.5.5 0 0 1 -.573-.814l.552-.466a.5.5 0 0 1 -.687-.646l.62-1.419a.506.506 0 0 1 -.542-.238.5.5 0 0 1 .183-.682l1.161-.668a.5.5 0 0 1 .706.63l-.6 1.384 3.491-2.014a.5.5 0 0 1 .573.814l-.549.464 2.215-1.278a.5.5 0 0 1 .584.8l-3.5 3.154 6.851-3.954a.5.5 0 0 1 .538.841l-1.873 1.317 3.741-2.158a.5.5 0 0 1 .534.843l-3.151 2.173 5.228-3.016a.5.5 0 0 1 .529.847l-3.747 2.514 5.827-3.361a.5.5 0 0 1 .526.848l-5.361 3.562 7.644-4.41a.5.5 0 0 1 .521.853l-3.991 2.564 5.923-3.417a.5.5 0 0 1 .519.854l-3.91 2.484 5.782-3.338a.5.5 0 0 1 .519.853l-7.447 4.757 9.718-5.61a.5.5 0 0 1 .52.853l-11.333 7.279 14.09-8.132a.5.5 0 0 1 .517.855l-10.179 6.405 12.58-7.26a.5.5 0 0 1 .512.858l-4.7 2.894 6.5-3.752a.5.5 0 0 1 .514.857l-11.565 7.186 13.936-8.043a.5.5 0 0 1 .511.858l-8.979 5.515 11.042-6.373a.5.5 0 0 1 .51.859l-6.04 3.672 7.852-4.531a.5.5 0 0 1 .513.858l-16.3 10.056 18.91-10.914a.5.5 0 0 1 .513.857l-20.4 12.621 21.362-12.339a.5.5 0 0 1 .509.86l-13.695 8.343 13.186-7.612a.5.5 0 0 1 .512.858l-20.655 12.74 20.143-11.628a.5.5 0 0 1 .512.858l-21.491 13.284 20.979-12.112a.5.5 0 0 1 .509.86l-7.15 4.33 6.641-3.834a.5.5 0 0 1 .508.861l-.42.252a.5.5 0 0 1 .592.22.5.5 0 0 1 -.171.681l-1.782 1.077 1.273-.734a.5.5 0 0 1 .51.859l-7.954 4.865 7.444-4.3a.5.5 0 0 1 .518.854l-18.007 11.446 17.489-10.097a.5.5 0 0 1 .52.853l-16.282 10.458 15.762-9.1a.5.5 0 0 1 .52.853l-12.7 8.151 12.18-7.031a.5.5 0 0 1 .523.851l-11.764 7.677 11.241-6.489a.5.5 0 0 1 .514.856l-.492.308a.5.5 0 0 1 .51.857l-10.432 7.149 9.9-5.714a.5.5 0 0 1 .522.851l-3 1.953 2.479-1.43a.5.5 0 0 1 .522.851l-.551.358.029-.016a.5.5 0 0 1 .532.846l-3.159 2.157 2.626-1.519a.5.5 0 0 1 .549.834l-4.033 3 3.484-2.01a.5.5 0 0 1 .544.837l-.934.677.39-.224a.5.5 0 0 1 .6.791l-2.287 2.225 1.689-.974a.5.5 0 0 1 .708.633l-.7 1.586a.5.5 0 0 1 .461.886l-1.281.739a.5.5 0 0 1 -.708-.633l.7-1.582-3.842 2.215a.5.5 0 0 1 -.6-.791l2.287-2.225-5.225 3.016a.5.5 0 0 1 -.543-.837l.933-.677-2.624 1.514a.5.5 0 0 1 -.549-.834l4.032-3-6.641 3.834a.5.5 0 0 1 -.532-.845l3.159-2.155-5.2 3a.5.5 0 0 1 -.523-.851l.554-.361-2.1 1.212a.5.5 0 0 1 -.522-.851l3-1.953-4.859 2.8a.5.5 0 0 1 -.532-.844l10.433-7.151-13.849 8a.5.5 0 0 1 -.514-.856l.474-.3-2 1.153a.5.5 0 0 1 -.523-.851l11.764-7.672-14.769 8.525a.5.5 0 0 1 -.521-.853l12.7-8.151-15.6 9a.5.5 0 0 1 -.521-.853l16.288-10.452-19.592 11.309a.5.5 0 0 1 -.519-.854l18.011-11.446-21.3 12.3a.5.5 0 0 1 -.511-.859l7.948-4.86-9.912 5.719a.5.5 0 0 1 -.508-.86l1.784-1.079-3.359 1.939a.5.5 0 0 1 -.525-.85l-1.475.85a.5.5 0 0 1 -.25.071z" fill="#164993"/><path d="m28.185 59.47a.5.5 0 0 1 -.321-.884l.257-.214-1.786 1.028a.5.5 0 0 1 -.616-.772l1.4-1.509-3.954 2.281a.5.5 0 0 1 -.638-.749l1.492-1.828-4.464 2.577a.5.5 0 0 1 -.584-.8l.814-.73-2.639 1.523a.5.5 0 0 1 -.583-.806l.772-.689-1.047.6a.5.5 0 0 1 -.627-.761l.879-1.01a.5.5 0 0 1 -.176-.926l2.05-1.184a.5.5 0 0 1 .627.761l-.658.757 2.667-1.535a.5.5 0 0 1 .583.8l-.773.69 2.59-1.5a.5.5 0 0 1 .584.8l-.814.731 2.659-1.521a.5.5 0 0 1 .631.108.5.5 0 0 1 .007.641l-1.492 1.828 4.464-2.577a.5.5 0 0 1 .616.772l-1.4 1.51 3.955-2.282a.5.5 0 0 1 .57.816l-.254.213 1.783-1.029a.5.5 0 0 1 .634.753l-1.486 1.782 4.393-2.535a.5.5 0 0 1 .609.78l-1.333 1.381 3.666-2.116a.5.5 0 0 1 .63.108.5.5 0 0 1 .009.64l-1.456 1.793 2.611-1.507a.5.5 0 0 1 .616.773l-.389.419.319-.184a.494.494 0 0 1 .6.079.5.5 0 0 1 .079.6l-.255.441a.5.5 0 0 1 .158.923l-1.16.67a.5.5 0 0 1 -.683-.683l.135-.233-1.587.916a.5.5 0 0 1 -.616-.773l.39-.418-2.062 1.191a.5.5 0 0 1 -.639-.748l1.458-1.792-4.4 2.542a.5.5 0 0 1 -.609-.78l1.333-1.381-3.749 2.159a.5.5 0 0 1 -.634-.753l1.485-1.782-4.391 2.535a.5.5 0 0 1 -.25.07z" fill="#c0daf0"/><g fill="#262626"><path d="m59.734 44.612v-38.804c1.027-6.436-3.634-5.394-8.319-5.34-16.004.052-32.015-.093-48.015 0a2.906 2.906 0 0 0 -3.121 2.424c.207 15.391-.479 30.968.25 46.284 3.877 3.231 16.971.507 22.706 1.356a3.861 3.861 0 0 1 -1.111 2.279c-.986 1.172-2.664 1.215-3.781 2.043-2.052.094-4.785 4.227-1.511 4.436 4.264.132 8.554 0 12.821 0 4.405-.029 8.808.055 13.21-.031 3.411-.413 1.382-4.63-1.2-4.513-2.029-.7-4.546-1.73-4.875-4.214h20.148c3.339-.269 2.798-3.547 2.798-5.92zm-58-41.467c.029-2.183 2.522-1.545 3.979-1.613h38.321c3.031.7 13.9-1.784 14.232 1.7.053 13.736-.035 27.485 0 41.225h-56.532c.085-13.768-.163-27.545 0-41.312zm41.446 55.565c-8.538-.049-17.146.072-25.645 0-1.83-.414-.322-2.893.837-3.362 7.18.061 14.874-.293 22.186.051 1.448-.386 3.261 2.136 2.622 3.311zm-6.155-4.987a7.646 7.646 0 0 0 1.561.976c-5.748.026-11.5.009-17.244.008a5.631 5.631 0 0 0 3.352-4.175h10.606a4.641 4.641 0 0 0 1.725 3.191zm20.039-4.255q-22.014 0-44.015 0c-3.895-.827-12.674 2.706-11.315-3.927h56.532c-.193 1.302.675 3.635-1.202 3.927z"/><path d="m4.276 17.542v22.652c.25 1.555 2.872 1.08 4.013 1.08 15.4-.2 30.921.379 46.27-.19 1.778-.614 1.165-3.372 1.165-4.846-.069-10.019.162-20.047 0-30.064-.618-3.017-7.767-.808-10.3-1.449-12.948.115-25.913-.2-38.851 0-4.534.125-1.444 9.583-2.297 12.817zm1.533-12.268c15.8.022 31.739-.045 47.546 0 1.4.191.921 2.869.921 3.87.167 10.5-.337 21.155.2 31.582-15.695.006-31.478 0-47.2 0-.739 0-1.384.1-1.549-.92-.152-11.506.273-23.084-.105-34.542a1.206 1.206 0 0 0 .187.01z"/><path d="m23.329 17.29c3.669.485-1.816-3.386-2.487-4.409 6.877-6.369 2.578-4.8-1.428-.017.244 1.604 2.857 2.95 3.915 4.426z"/><path d="m35.7 17.325c1.95-.73 3.707-3.085 4.985-4.582-4.367-5.249-8.2-5.577-1.462.412-.523.894-4.668 3.821-3.523 4.17z"/><path d="m27.9 17.377c2.421-1.834 3.086-5.867 4.828-8.474-.053-.574-1.281-.237-1.446.194-.364 1.647-5.015 7.967-3.382 8.28z"/><path d="m10.936 24.533c.749-.082 3.33.409 2.622-.953-.736-.467-4.952.066-2.622.953z"/><path d="m23.4 23.648c-10.424.908 12.246.742 14.3.7 4.029-1.427-12.855-.419-14.3-.7z"/><path d="m41.938 24.539c1.011-.186 9.983.7 7.125-1.078-1.012.186-9.984-.699-7.125 1.078z"/><path d="m10.94 28.546c.835.218 4.331-.237 2.12-1.092-.835-.218-4.331.237-2.12 1.092z"/><path d="m20.439 28.407c.757.107 3.778.565 3.123-.814-.762-.107-3.779-.565-3.123.814z"/><path d="m48.941 28.549c3.958-2.356-19.8-.581-21.881-1.1-3.96 2.358 19.795.583 21.881 1.1z"/><path d="m13.3 31.639c-.843.156-2.8-.455-2.972.629.488.305 4.56.09 2.972-.629z"/><path d="m31.275 31.6c-6.328.9 5.049.923 6.441.809 3.616-1.291-5.447-.709-6.441-.809z"/><path d="m20.736 32.477c.858-.169 7.5.615 5.528-.954-.858.169-7.497-.615-5.528.954z"/><path d="m49.291 31.624c-.982.208-9.356-.619-7.583.752.983-.208 9.357.619 7.583-.752z"/><path d="m11.713 35.688c-.373-.121-1.99.326-1.179.624.592-.02 3.785.2 2.932-.624z"/><path d="m30.3 35.666c-3.249.279-6.907-.575-9.965.363-.406.621 12.565.565 9.965-.363z"/><path d="m49.269 35.543c-5.212.361-11.015-.719-15.951.414-.767.91 19.546 1.001 15.951-.414z"/><path d="m17.724 36.806c-.574-1.855 1.482-16.7-1.448-13.612.574 1.855-1.482 16.706 1.448 13.612z"/></g></svg>