<svg id="Icons" height="512" viewBox="0 0 60 60" width="512" xmlns="http://www.w3.org/2000/svg"><path d="m20.526 50.413a.5.5 0 0 1 -.269-.921l2.643-1.692-4.03 2.326a.5.5 0 0 1 -.525-.85l9.925-6.558-11.87 6.854a.5.5 0 0 1 -.52-.853l8.9-5.72-10.263 5.924a.5.5 0 0 1 -.517-.859l.026-.015-.659.38a.5.5 0 0 1 -.517-.856l9.292-5.886-10.302 5.95a.5.5 0 0 1 -.52-.854l13.08-8.375-14.191 8.192a.5.5 0 0 1 -.515-.857l8.211-5.123-8.85 5.109a.5.5 0 0 1 -.514-.857l8.306-5.166-8.847 5.106a.5.5 0 0 1 -.513-.859l5.291-3.253-5.646 3.26a.5.5 0 0 1 -.518-.854l15.567-9.866-16.241 9.372a.5.5 0 0 1 -.512-.858l7.372-4.545-7.627 4.4a.5.5 0 0 1 -.515-.856l13.492-8.431-13.827 7.983a.5.5 0 0 1 -.514-.857l13.008-8.11-13.236 7.641a.5.5 0 0 1 -.517-.855l15.869-9.98-16.073 9.279a.5.5 0 0 1 -.51-.86l5.268-3.224-5.175 2.987a.5.5 0 0 1 -.515-.856l14.294-8.943-14.252 8.229a.5.5 0 0 1 -.516-.857l14.687-9.21-14.541 8.396a.5.5 0 0 1 -.51-.859l.512-.312-.161.092a.5.5 0 0 1 -.519-.855l17.759-11.341-17.389 10.039a.5.5 0 0 1 -.511-.86l.825-.5-.326.188a.5.5 0 0 1 -.513-.858l8.082-5.011-7.569 4.366a.5.5 0 0 1 -.51-.86l1.489-.914-.979.565a.5.5 0 0 1 -.515-.857l10.2-6.4-9.685 5.592a.5.5 0 0 1 -.521-.853l14.581-9.435-14.051 8.112a.5.5 0 0 1 -.517-.855l7.46-4.694-6.859 3.96a.5.5 0 0 1 -.517-.855l6.071-3.823-5.355 3.092a.5.5 0 0 1 -.515-.856l3.243-2.031-2.42 1.4a.5.5 0 0 1 -.52-.862l4.369-2.772-3.362 1.943a.5.5 0 0 1 -.524-.85l7.084-4.65-5.667 3.271a.5.5 0 0 1 -.532-.845l6.86-4.697-4.731 2.727a.5.5 0 0 1 -.557-.827l4.7-3.76a.5.5 0 0 1 -.4-.911l5.553-3.207a.5.5 0 0 1 .563.824l-4.637 3.712 10.231-5.907a.5.5 0 0 1 .532.845l-6.859 4.704 9.554-5.519a.5.5 0 0 1 .525.85l-7.1 4.658 8.958-5.168a.5.5 0 0 1 .518.854l-4.358 2.766 5.552-3.2a.5.5 0 0 1 .515.856l-3.221 2.02 4.147-2.4a.5.5 0 0 1 .517.855l-6.075 3.828 7.036-4.063a.5.5 0 0 1 .516.856l-7.458 4.69 8.365-4.829a.5.5 0 0 1 .521.852l-14.587 9.435 15.86-9.155a.5.5 0 0 1 .515.856l-10.2 6.405 10.937-6.313a.5.5 0 0 1 .51.859l-1.488.907 1.816-1.047a.5.5 0 0 1 .514.857l-8.064 5 8.516-4.91a.5.5 0 0 1 .511.859l-.853.521 1.054-.608a.5.5 0 0 1 .52.854l-17.756 11.339 18.461-10.66a.5.5 0 0 1 .51.859l-.492.3.555-.32a.5.5 0 0 1 .516.856l-14.69 9.212 15.01-8.665a.5.5 0 0 1 .516.856l-14.3 8.949 14.5-8.371a.5.5 0 0 1 .511.86l-5.255 3.217 5.192-3a.5.5 0 0 1 .517.855l-15.878 9.987 15.916-9.188a.5.5 0 0 1 .514.856l-13.009 8.109 12.872-7.432a.5.5 0 0 1 .514.857l-13.48 8.429 13.246-7.647a.5.5 0 0 1 .513.858l-7.386 4.551 7.005-4.044a.5.5 0 0 1 .517.855l-15.557 9.859 15.082-8.708a.5.5 0 0 1 .512.858l-5.308 3.27 4.8-2.769a.5.5 0 0 1 .513.858l-8.296 5.158 7.779-4.491a.5.5 0 0 1 .514.856l-8.2 5.119 7.69-4.439a.5.5 0 0 1 .519.853l-13.087 8.379 12.562-7.252a.5.5 0 0 1 .517.856l-9.294 5.889 8.693-5.017a.5.5 0 0 1 .512.858l-.533.329a.508.508 0 0 1 .555.224.5.5 0 0 1 -.156.681l-8.9 5.717 8.007-4.622a.5.5 0 0 1 .526.85l-9.922 6.557 8.532-4.926a.5.5 0 0 1 .519.853l-2.648 1.7.5-.289a.5.5 0 0 1 .543.837l-7.389 5.339 4.1-2.369a.5.5 0 0 1 .561.824l-2.424 1.927a.507.507 0 0 1 .521.242.5.5 0 0 1 -.183.683l-5.515 3.185a.5.5 0 0 1 -.562-.825l2.265-1.8-6.743 3.888a.5.5 0 0 1 -.543-.838l7.393-5.343-10.874 6.281a.494.494 0 0 1 -.25.067z" fill="#295e75"/><path d="m47.757 59.444a.5.5 0 0 1 -.287-.909l.888-.623-2.443 1.41a.5.5 0 0 1 -.55-.833l6.454-4.84-8.692 5.019a.5.5 0 0 1 -.536-.843l6.425-4.475-7.722 4.458a.5.5 0 0 1 -.523-.853l1.676-1.086-2.2 1.27a.5.5 0 0 1 -.521-.853l1.96-1.266-2.371 1.368a.5.5 0 0 1 -.529-.847l7.406-5-8.055 4.65a.5.5 0 0 1 -.528-.848l6.8-4.53-7.185 4.148a.5.5 0 0 1 -.524-.852l4.493-2.926-4.617 2.665a.5.5 0 0 1 -.528-.848l7.181-4.8-7.277 4.2a.5.5 0 0 1 -.53-.847l7.735-5.253-7.657 4.421a.5.5 0 0 1 -.531-.846l7.021-4.78-6.69 3.865a.5.5 0 0 1 -.542-.839l8.077-5.8-7.41 4.279a.5.5 0 0 1 -.528-.849l1.689-1.124-.834.48a.5.5 0 0 1 -.539-.84l3.391-2.4-2.04 1.177a.5.5 0 0 1 -.576-.812l3.1-2.667a.513.513 0 0 1 -.475-.248.5.5 0 0 1 .183-.682l4.214-2.435a.5.5 0 0 1 .576.812l-2.907 2.5 6.742-3.893a.5.5 0 0 1 .539.841l-3.388 2.4 5.044-2.912a.5.5 0 0 1 .528.849l-1.7 1.132 2.633-1.52a.5.5 0 0 1 .542.839l-8.075 5.8 9.642-5.566a.5.5 0 0 1 .531.845l-7.017 4.773 7.9-4.562a.5.5 0 0 1 .53.847l-7.74 5.251 8.434-4.869a.5.5 0 0 1 .528.848l-7.177 4.8 7.593-4.384a.5.5 0 0 1 .523.852l-4.488 2.924 4.614-2.663a.5.5 0 0 1 .527.848l-6.809 4.537 6.889-3.977a.5.5 0 0 1 .53.846l-7.406 5 7.327-4.229a.5.5 0 0 1 .522.852l-1.96 1.267 1.612-.931a.5.5 0 0 1 .523.853l-1.672 1.09 1.216-.7a.5.5 0 0 1 .536.843l-6.42 4.467 5.706-3.294a.5.5 0 0 1 .55.833l-6.456 4.842 5.088-2.937a.5.5 0 0 1 .537.841l-1.341.94a.517.517 0 0 1 .472.249.5.5 0 0 1 -.183.682l-9.2 5.311a.491.491 0 0 1 -.248.067z" fill="#73c581"/><g fill="#262626"><path d="m59.729 46.928c.152-8.556-9.162-14.766-17.03-11.593 5.679-18.814-6.499-40.435-27.999-33.435-29.37 12.159-11.628 63.313 19.624 44.6-1.012 16.645 25.456 16.884 25.405.428zm-52.129-3.594c-7.512-7.834-7.34-20.824-3.834-30.471 6.306-14.279 27.385-15.076 35.292-1.838 4.029 7.913 6.256 22.441-1.772 28.01-3.994 12.902-20.946 13.42-29.686 4.299zm43.342 14.525c-18.195 5.568-20.73-25.087-1.755-22.13 10.833 2.071 12.237 18.452 1.755 22.13z"/><path d="m52.13 41.714c-3.007 2.208-4.633 6.446-7.116 9.367-.972-.755-2.641-3.577-3.695-1.829l3 3c3.032-.48 5.2-6.818 7.529-9.134.243-.508 1.524-1.584.282-1.404z"/><path d="m22.724 21.806c0-.344-1.447-.106-1.448.388a29.48 29.48 0 0 1 -6.941 17.824c4.506.048 8.535-13.741 8.389-18.212z"/><path d="m20.608 17.726c-5.529 1.913-2.6 13.734-9.223 19.439-.589.689.794.883 1.207.4 4.005-4.591 5.894-10.6 6.257-16.588 1.1-4.131 6.952-2.377 6.406 1.573.819 10.314-11 22.7-6.642 20.282 4.531-4.759 14.949-26 1.995-25.106z"/><path d="m32.052 33.7c-2.214-7.355 1.149-20.426-10.317-20.19-10.8.473-7.057 13.216-12.088 19.424-.427.627 1.046.614 1.375.129 5.078-5.346 1.019-16.663 9.678-18.469 13.179-.648 6.109 16.619 11.637 23.715 3.026 1.056-.424-3.309-.285-4.609z"/><path d="m27.724 34.806c-.158-.543-1.344-.139-1.45.279-.922 3.618-3.019 6.555-5.439 9.33.754 2.567 5.728-5.762 6.088-7.092.26 1.268 2.258 4.95 3.149 2.667-1.323-1.365-1.83-3.41-2.348-5.184z"/><path d="m35.015 26.875c2.1-14.4-13.331-23.7-23.333-12.014-3.128 3.784-1.982 8.854-3.404 13.239 4.7 1.124-1.379-16.387 12.581-17.682 14.736-.4 11.015 14.52 14.415 23.778 3.018 1.604-.731-5.665-.259-7.321z"/><path d="m39.724 28.806c.7-29.636-32.1-29.984-34.45-6.612 0 .3 1.445.078 1.45-.388.1-18.749 26.887-20.744 30.282-2.539.76 1.645-.324 12.244 2.718 9.539z"/></g></svg>