<svg id="Icons" height="512" viewBox="0 0 60 60" width="512" xmlns="http://www.w3.org/2000/svg"><path d="m12.078 32.489a.5.5 0 0 1 -.358-.848l1.348-1.388-2.788 1.609a.5.5 0 0 1 -.561-.824l.588-.467-.027.015a.5.5 0 0 1 -.588-.8l2.448-2.249-1.83 1.057a.5.5 0 0 1 -.591-.8l2.469-2.3-1.8 1.041a.5.5 0 0 1 -.578-.81l1.623-1.409-.987.57a.5.5 0 0 1 -.6-.792l2.5-2.416-1.826 1.054a.5.5 0 0 1 -.587-.8l1.88-1.717-1.229.71a.5.5 0 0 1 -.6-.789l2.365-2.336-1.689.974a.5.5 0 0 1 -.566-.819l.427-.349a.5.5 0 0 1 -.464-.192.5.5 0 0 1 .045-.658l2.18-2.164-1.5.868a.5.5 0 0 1 -.605-.784l2.153-2.176-1.476.853a.5.5 0 0 1 -.6-.788l1.872-1.853-1.2.693a.5.5 0 0 1 -.574-.813l.463-.395a.5.5 0 0 1 -.445-.846l1.654-1.636-.987.568a.5.5 0 0 1 -.6-.788l1.533-1.527-.87.5a.5.5 0 0 1 -.631-.756l1.772-2.09-1.062.612a.5.5 0 0 1 -.656-.725l.723-1a.5.5 0 0 1 -.246-.931l1.669-.962a.5.5 0 0 1 .655.726l-.624.858 1.532-.884a.5.5 0 0 1 .631.756l-1.771 2.09 1.718-.992a.5.5 0 0 1 .6.788l-1.534 1.527 1-.576a.5.5 0 0 1 .6.788l-1.651 1.635 1.113-.643a.5.5 0 0 1 .575.814l-.413.351a.5.5 0 0 1 .484.838l-1.872 1.853 1.337-.772a.5.5 0 0 1 .605.785l-2.154 2.182 1.625-.937a.5.5 0 0 1 .6.787l-2.181 2.164 1.649-.952a.5.5 0 0 1 .567.819l-.372.3a.5.5 0 0 1 .448.846l-2.366 2.333 1.839-1.062a.5.5 0 0 1 .587.8l-1.882 1.718 1.356-.784a.5.5 0 0 1 .6.792l-2.5 2.416 1.977-1.141a.5.5 0 0 1 .578.81l-1.625 1.414 1.1-.635a.5.5 0 0 1 .591.8l-2.471 2.3 1.95-1.125a.5.5 0 0 1 .588.8l-2.448 2.249 1.93-1.113a.5.5 0 0 1 .663.151.5.5 0 0 1 -.1.673l-.584.464.067-.038a.5.5 0 0 1 .608.781l-1.35 1.389.785-.452a.5.5 0 0 1 .736.549l-.318 1.319a.5.5 0 0 1 .1.91l-.557.321a.5.5 0 0 1 -.736-.55l.266-1.1-2.892 1.669a.489.489 0 0 1 -.25.064z" fill="#b9bfcc"/><path d="m45.234 32.494a.5.5 0 0 1 -.36-.847l2.218-2.3-2.812 1.619a.5.5 0 0 1 -.582-.807l2.119-1.88-1.527.882a.5.5 0 0 1 -.582-.807l2.079-1.849-1.432.826a.5.5 0 0 1 -.584-.8l2.058-1.849-1.408.812a.5.5 0 0 1 -.583-.8l1.85-1.651-1.205.7a.5.5 0 0 1 -.587-.8l1.967-1.8-1.314.759a.5.5 0 0 1 -.6-.787l2.491-2.474-1.812 1.029a.5.5 0 0 1 -.581-.808l1.32-1.163-.682.394a.5.5 0 0 1 -.605-.786l2.284-2.289-1.6.924a.5.5 0 0 1 -.576-.811l.765-.658-.14.081a.5.5 0 0 1 -.609-.782l2.185-2.243-1.5.866a.5.5 0 0 1 -.607-.784l1.991-2.029-1.311.757a.5.5 0 0 1 -.583-.806l.81-.721-.176.1a.5.5 0 0 1 -.612-.778l1.9-1.99-1.216.7a.5.5 0 0 1 -.629-.759l1.929-2.244-1.218.7a.5.5 0 0 1 -.667-.701l.877-1.34a.5.5 0 0 1 -.377-.922l1.669-.962a.5.5 0 0 1 .669.706l-.856 1.311 1.95-1.126a.5.5 0 0 1 .629.759l-1.93 2.245 1.7-.979a.5.5 0 0 1 .612.779l-1.9 1.99 1.357-.785a.5.5 0 0 1 .583.8l-.808.722.274-.158a.5.5 0 0 1 .607.783l-1.995 2.037 1.455-.84a.5.5 0 0 1 .608.782l-2.184 2.239 1.65-.952a.5.5 0 0 1 .576.811l-.766.66.239-.136a.5.5 0 0 1 .6.786l-2.284 2.289 1.753-1.012a.5.5 0 0 1 .581.808l-1.319 1.165.8-.459a.5.5 0 0 1 .6.787l-2.491 2.472 1.963-1.133a.5.5 0 0 1 .587.8l-1.966 1.8 1.441-.832a.5.5 0 0 1 .583.806l-1.852 1.652 1.33-.767a.5.5 0 0 1 .584.8l-2.056 1.847 1.535-.886a.5.5 0 0 1 .582.813l-2.081 1.851 1.562-.9a.5.5 0 0 1 .582.807l-2.119 1.879 1.6-.923a.5.5 0 0 1 .611.779l-2.218 2.3 1.677-.968a.5.5 0 0 1 .683.681l-.636 1.114a.5.5 0 0 1 .471.881l-1.574.908a.5.5 0 0 1 -.684-.681l.636-1.112-3.135 1.81a.489.489 0 0 1 -.251.068z" fill="#b9bfcc"/><path d="m10.094 59.471a.5.5 0 0 1 -.263-.925l16.986-10.512-19.65 11.346a.5.5 0 0 1 -.515-.857l22.975-14.358-24.162 13.949a.5.5 0 0 1 -.514-.857l18.611-11.522-18.282 10.555a.5.5 0 0 1 -.51-.859l8.274-5.044-7.764 4.481a.5.5 0 0 1 -.513-.857l13.973-8.665-13.46 7.77a.5.5 0 0 1 -.514-.856l13.534-8.455-13.021 7.515a.5.5 0 0 1 -.519-.853l15.979-10.243-15.46 8.924a.5.5 0 0 1 -.516-.855l9.551-6.023-9.035 5.215a.5.5 0 0 1 -.515-.855l6.153-3.869-5.638 3.255a.5.5 0 0 1 -.515-.857l2.621-1.639-2.106 1.214a.5.5 0 0 1 -.521-.852l6.812-4.4-6.291 3.631a.5.5 0 0 1 -.521-.852l4.316-2.788-3.795 2.19a.5.5 0 0 1 -.528-.848l5.777-3.872-5.249 3.031a.5.5 0 0 1 -.527-.849l2.912-1.942-2.385 1.376a.5.5 0 0 1 -.554-.83l5.836-4.49-5.282 3.049a.5.5 0 0 1 -.57-.816l3.73-3.118-3.16 1.825a.5.5 0 0 1 -.6-.786l2.03-2.03-1.427.824a.5.5 0 0 1 -.658-.722l.7-.982a.5.5 0 0 1 -.244-.932l1.627-.94a.5.5 0 0 1 .658.722l-.6.845 2.735-1.578a.5.5 0 0 1 .6.786l-2.03 2.028 4.878-2.814a.5.5 0 0 1 .571.816l-3.728 3.113 6.809-3.929a.5.5 0 0 1 .554.829l-5.837 4.491 9.216-5.32a.5.5 0 0 1 .527.848l-2.913 1.944 4.839-2.792a.5.5 0 0 1 .529.847l-5.772 3.869 8.168-4.716a.5.5 0 0 1 .522.852l-4.317 2.788 6.307-3.64a.5.5 0 0 1 .521.852l-6.823 4.407 9.111-5.259a.5.5 0 0 1 .516.856l-2.626 1.644 4.33-2.5a.5.5 0 0 1 .516.855l-6.156 3.87 8.188-4.725a.5.5 0 0 1 .517.855l-9.546 6.02 11.907-6.875a.5.5 0 0 1 .519.853l-15.978 10.24 19.221-11.093a.5.5 0 0 1 .514.856l-13.53 8.454 16.127-9.31a.5.5 0 0 1 .514.857l-13.972 8.661 16.492-9.518a.5.5 0 0 1 .511.859l-8.263 5.037 10.214-5.9a.5.5 0 0 1 .514.857l-18.62 11.528 20.743-11.975a.5.5 0 0 1 .514.856l-22.962 14.352 23.284-13.443a.5.5 0 0 1 .512.857l-17 10.518 16.488-9.517a.5.5 0 0 1 .516.855l-18.951 11.926 18.435-10.642a.5.5 0 0 1 .518.854l-17.969 11.446 17.452-10.075a.5.5 0 0 1 .516.856l-12.867 8.128 12.351-7.13a.5.5 0 0 1 .512.858l-2.781 1.716 2.269-1.31a.5.5 0 0 1 .523.851l-13.19 8.638 12.667-7.314a.5.5 0 0 1 .522.852l-8.993 5.84 8.471-4.891a.5.5 0 0 1 .517.855l-2.1 1.333 1.588-.917a.5.5 0 0 1 .525.85l-6.051 3.992 5.526-3.189a.5.5 0 0 1 .525.849l-3.4 2.245 2.879-1.662a.5.5 0 0 1 .54.84l-5.674 4.047 5.134-2.964a.5.5 0 0 1 .552.83l-4.5 3.435 3.952-2.281a.5.5 0 0 1 .539.839l-.356.254a.489.489 0 0 1 .463.191.5.5 0 0 1 -.042.657l-2.356 2.37 1.752-1.011a.5.5 0 0 1 .666.71l-.778 1.167a.5.5 0 0 1 .313.929l-1.614.932a.5.5 0 0 1 -.666-.71l.728-1.094-3.165 1.816a.5.5 0 0 1 -.605-.785l2.355-2.369-5.463 3.154a.5.5 0 0 1 -.539-.839l.039-.029-1.505.868a.5.5 0 0 1 -.553-.83l4.5-3.43-7.382 4.26a.5.5 0 0 1 -.54-.84l5.675-4.044-8.466 4.884a.5.5 0 0 1 -.525-.849l3.4-2.245-5.356 3.094a.5.5 0 0 1 -.525-.849l6.046-3.993-8.387 4.842a.5.5 0 0 1 -.518-.855l2.106-1.332-3.79 2.187a.5.5 0 0 1 -.523-.851l8.994-5.841-11.591 6.692a.5.5 0 0 1 -.523-.85l13.193-8.636-16.43 9.486a.5.5 0 0 1 -.513-.858l2.794-1.724-4.473 2.582a.5.5 0 0 1 -.516-.855l12.864-8.126-15.561 8.981a.5.5 0 0 1 -.518-.854l17.971-11.446-21.3 12.3a.5.5 0 0 1 -.517-.855l18.944-11.922-22.136 12.777a.5.5 0 0 1 -.25.071z" fill="#9ea5b2"/><path d="m24.075 54.471a.5.5 0 0 1 -.262-.926l1.987-1.225-3.606 2.08a.5.5 0 0 1 -.517-.854l11.132-7.061-13.709 7.915a.5.5 0 0 1 -.513-.857l4.221-2.611-6.008 3.468a.5.5 0 0 1 -.524-.851l15.14-9.872-18.575 10.723a.5.5 0 0 1 -.522-.852l14.233-9.207-17.424 10.059a.5.5 0 0 1 -.512-.858l2.2-1.357-3.834 2.215a.5.5 0 0 1 -.516-.855l10.149-6.406-12.522 7.232a.5.5 0 0 1 -.515-.856l7.4-4.624-8.464 4.888a.5.5 0 0 1 -.514-.856l8.11-5.1-8.5 4.907a.5.5 0 0 1 -.522-.851l12.235-7.954-12.043 6.955a.5.5 0 0 1 -.518-.855l6.349-4.043-5.831 3.367a.5.5 0 0 1 -.517-.855l3.437-2.182-2.92 1.688a.5.5 0 0 1 -.518-.854l1.767-1.125-1.249.72a.5.5 0 0 1 -.535-.841l7.883-5.482-7.349 4.237a.5.5 0 0 1 -.54-.84l5.779-4.115-5.239 3.023a.5.5 0 0 1 -.55-.833l4.3-3.217-3.75 2.165a.5.5 0 0 1 -.56-.824l2.708-2.147-2.148 1.239a.5.5 0 0 1 -.591-.8l1.76-1.635-1.148.664a.5.5 0 0 1 -.618-.771l.805-.877a.507.507 0 0 1 -.24-.212.5.5 0 0 1 .183-.683l1.934-1.116a.5.5 0 0 1 .618.77l-.362.4 2.155-1.246a.5.5 0 0 1 .591.8l-1.759 1.631 4.216-2.431a.5.5 0 0 1 .561.824l-2.706 2.143 5.143-2.967a.5.5 0 0 1 .55.833l-4.3 3.217 7.017-4.05a.5.5 0 0 1 .54.84l-5.78 4.118 8.587-4.958a.5.5 0 0 1 .535.842l-7.878 5.479 10.948-6.321a.5.5 0 0 1 .519.854l-1.748 1.112 3.409-1.966a.5.5 0 0 1 .517.854l-3.455 2.2 5.282-3.054a.5.5 0 0 1 .519.854l-6.345 4.04 8.478-4.894a.5.5 0 0 1 .522.851l-12.238 7.949 15.256-8.8a.5.5 0 0 1 .515.856l-8.111 5.1 10.312-5.956a.5.5 0 0 1 .514.856l-7.4 4.62 9.489-5.476a.5.5 0 0 1 .517.855l-10.155 6.41 12.584-7.265a.5.5 0 0 1 .512.858l-2.2 1.357 3.834-2.215a.5.5 0 0 1 .521.852l-14.227 9.2 17.418-10.052a.5.5 0 0 1 .523.851l-15.143 9.872 18.579-10.723a.5.5 0 0 1 .513.857l-4.221 2.608 6.009-3.465a.5.5 0 0 1 .517.854l-11.127 7.054 13.578-7.839a.5.5 0 0 1 .512.858l-2.013 1.24 2.787-1.609a.5.5 0 0 1 .515.857l-7.369 4.615 7.77-4.485a.5.5 0 0 1 .514.856l-4.878 3.046 4.725-2.728a.5.5 0 0 1 .524.851l-11.618 7.63 11.144-6.439a.5.5 0 0 1 .523.852l-7.985 5.214 7.462-4.308a.5.5 0 0 1 .522.852l-4.669 3.029 4.148-2.395a.5.5 0 0 1 .527.849l-4.907 3.269 4.38-2.529a.5.5 0 0 1 .524.851l-1.4.922.876-.506a.5.5 0 0 1 .529.848l-1.4.942.873-.5a.5.5 0 0 1 .561.823l-4.546 3.626 3.983-2.3a.5.5 0 0 1 .583.806l-2.694 2.4 2.111-1.217a.5.5 0 0 1 .579.808l-.507.445a.517.517 0 0 1 .48.248.5.5 0 0 1 -.182.682l-4.031 2.328a.5.5 0 0 1 -.58-.808l.334-.293-1.909 1.1a.5.5 0 0 1 -.583-.8l2.693-2.4-5.56 3.201a.5.5 0 0 1 -.561-.823l4.544-3.623-7.7 4.446a.5.5 0 0 1 -.529-.847l1.406-.947-3.11 1.794a.5.5 0 0 1 -.525-.85l1.391-.915-3.059 1.765a.5.5 0 0 1 -.527-.848l4.91-3.271-7.135 4.119a.5.5 0 0 1 -.523-.851l4.647-3.019-6.7 3.871a.5.5 0 0 1 -.523-.851l7.987-5.216-10.513 6.066a.5.5 0 0 1 -.525-.85l11.623-7.629-14.686 8.479a.5.5 0 0 1 -.515-.856l4.882-3.044-6.764 3.9a.5.5 0 0 1 -.515-.856l7.375-4.619-9.485 5.475a.5.5 0 0 1 -.25.071z" fill="#b9bfcc"/><path d="m22.294 48.356a.5.5 0 0 1 -.343-.864l1.478-1.392-2.575 1.486a.5.5 0 0 1 -.6-.791l2.746-2.67-3.332 1.923a.5.5 0 0 1 -.6-.789l2.45-2.405-2.186 1.262a.5.5 0 0 1 -.621-.768l1.239-1.369a.5.5 0 0 1 -.226-.932l2.31-1.334a.5.5 0 0 1 .621.768l-1.065 1.177 2.84-1.639a.5.5 0 0 1 .6.789l-2.45 2.405 3.392-1.958a.5.5 0 0 1 .6.791l-2.744 2.671 2.819-1.627a.5.5 0 0 1 .592.8l-1.477 1.392.744-.429a.5.5 0 1 1 .5.865l-4.459 2.574a.489.489 0 0 1 -.253.064z" fill="#79808f"/><path d="m36.739 48.471a.5.5 0 0 1 -.362-.845l1.832-1.926-4.046 2.34a.5.5 0 0 1 -.579-.81l3.057-2.666-3.341 1.936a.5.5 0 0 1 -.558-.827l1.458-1.144-.921.532a.5.5 0 0 1 -.589-.8l1.675-1.543-1.086.627a.5.5 0 0 1 -.665-.711l.773-1.154a.5.5 0 0 1 -.314-.928l1.627-.94a.5.5 0 0 1 .665.711l-.723 1.077 3.129-1.8a.5.5 0 0 1 .588.8l-1.675 1.54 3.255-1.878a.5.5 0 0 1 .558.827l-1.461 1.138 1.564-.9a.5.5 0 0 1 .579.81l-3.056 2.663 2.6-1.5a.5.5 0 0 1 .612.777l-1.835 1.923 1.22-.7a.5.5 0 0 1 .642.742l-.555.7a.5.5 0 0 1 .114.914l-1.614.932a.5.5 0 0 1 -.643-.742l.3-.383-1.975 1.137a.49.49 0 0 1 -.25.071z" fill="#79808f"/><path d="m50.321 48.471a.5.5 0 0 1 -.321-.882l.37-.314-1.688.975a.5.5 0 0 1 -.554-.83l.358-.274-.773.447a.5.5 0 0 1 -.563-.823l2.182-1.748-2.052 1.184a.5.5 0 0 1 -.561-.823l1.664-1.326-1.1.636a.5.5 0 0 1 -.576-.811l.87-.749-.294.17a.5.5 0 0 1 -.663-.714l.752-1.108a.515.515 0 0 1 -.477-.248.5.5 0 0 1 .182-.682l1.627-.94a.5.5 0 0 1 .663.714l-.693 1.021 3.026-1.746a.5.5 0 0 1 .576.811l-.871.749 2.273-1.311a.5.5 0 0 1 .561.823l-1.66 1.322 1.95-1.125a.5.5 0 0 1 .563.823l-2.186 1.75 1.815-1.046a.5.5 0 0 1 .553.83l-.445.34a.5.5 0 0 1 .464.861l-.447.378a.506.506 0 0 1 .507.161.5.5 0 0 1 0 .641l-.587.711a.5.5 0 0 1 .233.933l-1.999 1.149a.5.5 0 0 1 -.636-.751l.45-.544-2.245 1.3a.49.49 0 0 1 -.248.066z" fill="#79808f"/><path d="m30.048 20.46a.5.5 0 0 1 -.4-.8l.276-.356-.956.551a.5.5 0 0 1 -.63-.758l.591-.692-.574.331a.5.5 0 0 1 -.636-.749l.432-.528a.5.5 0 0 1 -.081-.9l1.637-.946a.5.5 0 0 1 .637.749l-.116.142.725-.418a.5.5 0 0 1 .63.758l-.583.683.619-.357a.5.5 0 0 1 .647.737l-.483.627a.5.5 0 0 1 .144.921l-1.624.938a.5.5 0 0 1 -.255.067z" fill="#346d92"/><g fill="#262626"><path d="m3.923 54.335c.115.016.235.022.351.037-.017 2.4-.338 4.382 2.432 4.994a18.571 18.571 0 0 0 3.69 0h21.304c6.359 0 12.717.013 19.075 0 3.932-.009 4.865-1.224 4.939-5.03a1.608 1.608 0 0 0 .161-.019c5.641-1.139 3.846-8.091 3.846-12.482 0-4.011.5-7.669-4-8.125.01-2.435.369-4.461-2.433-5.081a9.656 9.656 0 0 0 -2.576-.048q-.279-7.841-.56-15.681c-.106-3.1 1.242-10.954-2.511-12.248a.481.481 0 0 0 -.369-.108c-4.522 0-3.251 7.556-3.349 10.306l-.635 17.779h-26.57q-.3-8.337-.595-16.674c-.083-2.321 1.226-11.382-2.848-11.382-.015 0-.032.007-.048.008a1.084 1.084 0 0 0 -.327.038c-4.344 1.146-2.9 8.161-3.024 11.616l-.585 16.394h-.071c-3.941.008-4.867 1.233-4.938 5.056-4.898.622-4.006 5.178-4.006 9.015 0 4.055-1.695 10.9 3.647 11.635zm43.446 4.3h-34.499c-4.228 0-6.888.648-7.123-4.122 3.747.248 7.767-.177 11.432-.177h37.092c-.045 5.346-2.513 4.298-6.902 4.298zm-.684-57.162c3.382 1.146 2.023 11.844 2.109 14.232q.231 6.462.461 12.924h-4.519c.076-3.874-.159-26.804 1.949-27.156zm-33.8-.008c2.95.77 2.351 22.477 2.386 27.164-1.51 0-3.02 0-4.53 0l.471-13.2c.069-2.068-1.096-12.687 1.668-13.964zm-3.538 27.824c.179.2.655.175 1 .019.69.025 1.453.063 2.285.063h2.778a.992.992 0 0 0 .688 0h27.342a1.029 1.029 0 0 0 .844 0h2.847c.793 0 1.529-.022 2.207-.029.153.173.573.154.913.008 2.42.072 3.868.706 4.006 4.277-12.394-.547-24.954.038-37.354.038-3.64 0-7.5-.353-11.171-.112.057-3.704 1.324-4.259 3.615-4.264zm-7.623 8.292a3.709 3.709 0 0 1 2.9-3.212 1.713 1.713 0 0 0 .647-.116 44.326 44.326 0 0 1 5.11.082h35.24c1.7 0 5.61-.6 8.652-.209v.068c0 .22.491.222.9.087a3.963 3.963 0 0 1 2.861 1.745c.977 1.868.236 5.71.236 7.668 0 2.11 1.133 9.232-2.1 9.971h-.6a1.152 1.152 0 0 0 -.522 0h-42.243a54.849 54.849 0 0 1 -7.08.171v-.03c0-.2-.448-.214-.846-.1a3.97 3.97 0 0 1 -2.919-1.732c-.784-1.441-.236-4.184-.236-5.715 0-2.695-.566-6.04 0-8.678z"/><path d="m27.724 43.908c0-.02-.012-.031-.014-.049s.015-.034.014-.053c-.312-5.8-9.43-5.272-9.448.337-.019 5.869 9.15 5.305 9.448-.235zm-3.979-3.314a3.81 3.81 0 0 1 2.525 3.555c-.127 1.9-1.515 3.843-3.684 3.367a3.743 3.743 0 0 1 -2.838-3.659 3.16 3.16 0 0 1 3.997-3.263z"/><path d="m32.316 46.6c.546 2.456 4.322 1.731 6.159 1.716a1.041 1.041 0 0 0 .217 0 3.237 3.237 0 0 0 2.867-1.655 7.884 7.884 0 0 0 .165-2.851c0-.955.216-2.277-.341-3.118a2.759 2.759 0 0 0 -2.6-1c-1.819 0-4.64-.5-5.975 1.088a3.787 3.787 0 0 0 -.529 2.647 15.37 15.37 0 0 0 .037 3.173zm2.09-6.169c.676-.373 1.975-.116 2.749-.116 1.257 0 2.7-.069 3.08 1.479.245 1.005.489 5.755-.927 5.9h-.013c-1.72.039-5.02.608-5.53-1.482a11.418 11.418 0 0 1 -.041-2.561c0-.906-.271-2.698.682-3.223z"/><path d="m46.316 46.6c.547 2.462 4.411 1.693 6.213 1.693h.019a1.063 1.063 0 0 0 .136 0 3.263 3.263 0 0 0 2.873-1.636 7.817 7.817 0 0 0 .167-2.843c0-.951.217-2.281-.341-3.118a2.757 2.757 0 0 0 -2.6-.978c-1.791 0-4.485-.471-5.885.97-.745.767-.625 1.765-.625 2.743a15.37 15.37 0 0 0 .043 3.169zm1.992-6.076c.672-.5 2-.231 2.841-.231 1.265 0 2.708-.055 3.086 1.5.238.978.5 5.762-.912 5.922-1.726.034-5.042.618-5.558-1.5a11.478 11.478 0 0 1 -.041-2.561c0-.929-.255-2.505.584-3.133z"/><path d="m27.266 18.054c-.059 3.382 5.3 3.1 5.468-.108a2.547 2.547 0 0 0 -2.671-2.482 2.8 2.8 0 0 0 -2.797 2.59zm4 0c-.037.685-.427 1.473-1.235 1.4a1.552 1.552 0 0 1 -1.3-1.511 1.294 1.294 0 0 1 1.11-1.4 1.52 1.52 0 0 1 1.425 1.511z"/><path d="m13.724 44.806c.013-.237-1.424-.058-1.448.388-.085 1.567-1.449 3.1-3.109 2.145a3 3 0 0 1 -1.443-2.533c-.015-.281-1.471-.034-1.448.388.242 4.506 7.224 3.766 7.448-.388z"/><path d="m10.731 42.935v-3c0-.719-1.462-.475-1.462.13v3c0 .719 1.462.475 1.462-.13z"/><path d="m33.325 13.274c.307.346 1.689-.167 1.35-.548-2.629-2.958-6.806-2.58-9.345.276-.385.434 1.049.323 1.34 0 2.017-2.274 4.773-1.845 6.655.272z"/><path d="m37.68 8.742c-4.459-4.236-10.98-3.853-15.341.291-.342.325 1.044.2 1.322-.066 3.771-3.583 9.062-3.127 12.659.291.3.285 1.637-.253 1.36-.516z"/><path d="m40.676 4.73a15.809 15.809 0 0 0 -21.248.186c-.6.531.83.446 1.144.168 5.587-4.941 13.28-4.652 18.752.186.346.306 1.688-.243 1.352-.54z"/></g></svg>