<svg id="Icons" height="512" viewBox="0 0 60 60" width="512" xmlns="http://www.w3.org/2000/svg"><path d="m20.053 59.471a.5.5 0 0 1 -.313-.891l1.024-.817-2.843 1.637a.5.5 0 0 1 -.582-.806l1.888-1.673-4.295 2.479a.5.5 0 0 1 -.608-.782l2.293-2.341-5.411 3.123a.5.5 0 0 1 -.6-.787l2.251-2.238-5.243 3.025a.5.5 0 0 1 -.583-.8l1.929-1.729-3.782 2.184a.5.5 0 0 1 -.58-.809l1.433-1.259-1.618.934a.5.5 0 0 1 -.589-.8l.448-.414a.5.5 0 0 1 -.73-.547l.308-1.376a.486.486 0 0 1 -.252-.216.5.5 0 0 1 .182-.682l.5-.289a.5.5 0 0 1 .739.542l-.252 1.129 2.9-1.673a.5.5 0 0 1 .589.8l-.456.415 2.106-1.216a.5.5 0 0 1 .58.808l-1.429 1.258 3.583-2.068a.5.5 0 0 1 .583.8l-1.931 1.73 4.392-2.535a.5.5 0 0 1 .6.787l-2.252 2.238 5.245-3.027a.5.5 0 0 1 .608.782l-2.293 2.341 5.415-3.126a.5.5 0 0 1 .582.807l-1.889 1.677 4.3-2.481a.5.5 0 0 1 .562.823l-1.02.816 2.842-1.641a.5.5 0 0 1 .583.806l-1.922 1.711 4.37-2.523a.5.5 0 0 1 .607.782l-2.3 2.347 5.423-3.131a.5.5 0 0 1 .586.8l-2.024 1.846 4.589-2.65a.5.5 0 0 1 .582.806l-1.918 1.715 4.357-2.516a.5.5 0 0 1 .6.791l-2.228 2.171 5.135-2.965a.5.5 0 0 1 .565.822l-1.188.961 3.09-1.784a.5.5 0 0 1 .591.8l-2.1 1.955 4.768-2.757a.5.5 0 0 1 .568.819l-1.411 1.166 3.44-1.986a.5.5 0 0 1 .582.807l-1.918 1.7 3.909-2.256a.5.5 0 0 1 .58.808l-1.583 1.394 1-.579a.5.5 0 0 1 .612.778l-.585.613a.5.5 0 0 1 .386.914l-2.86 1.65a.5.5 0 0 1 -.612-.777l.548-.574-2.339 1.353a.5.5 0 0 1 -.58-.807l1.582-1.393-3.813 2.2a.5.5 0 0 1 -.582-.806l1.919-1.7-4.352 2.506a.5.5 0 0 1 -.568-.818l1.406-1.162-3.433 1.98a.5.5 0 0 1 -.591-.8l2.105-1.955-4.771 2.755a.5.5 0 0 1 -.564-.821l1.187-.961-3.087 1.782a.5.5 0 0 1 -.6-.791l2.228-2.171-5.13 2.962a.5.5 0 0 1 -.582-.8l1.918-1.708-4.354 2.508a.5.5 0 0 1 -.587-.8l2.025-1.846-4.586 2.646a.5.5 0 0 1 -.608-.782l2.3-2.346-5.419 3.128a.5.5 0 0 1 -.583-.8l1.924-1.716-4.371 2.516a.493.493 0 0 1 -.247.071z" fill="#9ea5b2"/><path d="m30.061 55.471a.5.5 0 0 1 -.268-.923l4.214-2.664-6.097 3.516a.5.5 0 0 1 -.524-.85l9.841-6.47-12.68 7.32a.5.5 0 0 1 -.517-.855l3.206-2.019-4.978 2.874a.5.5 0 0 1 -.519-.854l5.31-3.376-7.327 4.23a.5.5 0 0 1 -.518-.854l5.096-3.231-7.086 4.085a.5.5 0 0 1 -.528-.847l11.273-7.545-14.538 8.392a.5.5 0 0 1 -.518-.854l5-3.174-6.978 4.028a.5.5 0 0 1 -.525-.85l9.529-6.244-12.289 7.094a.5.5 0 0 1 -.517-.855l3.094-1.945-4.855 2.8a.5.5 0 0 1 -.517-.854l4.842-3.071-6.687 3.861a.5.5 0 0 1 -.524-.851l9.43-6.18-10.392 6a.5.5 0 0 1 -.514-.857l.522-.328-.243.141a.5.5 0 0 1 -.524-.851l6.258-4.1-5.733 3.309a.5.5 0 0 1 -.523-.851l3.143-2.046-2.617 1.51a.5.5 0 0 1 -.549-.832l7.238-5.29-6.693 3.86a.5.5 0 0 1 -.56-.824l5.381-4.261-4.821 2.784a.5.5 0 0 1 -.568-.818l2.907-2.4-2.339 1.349a.5.5 0 0 1 -.569-.82l.682-.565-.113.064a.5.5 0 0 1 -.611-.086.5.5 0 0 1 -.06-.616l.837-1.308a.5.5 0 0 1 -.554-.236.5.5 0 0 1 .182-.682l1.627-.94a.5.5 0 0 1 .671.7l-.815 1.275 3.444-1.986a.5.5 0 0 1 .569.817l-.683.567 2.4-1.384a.5.5 0 0 1 .568.818l-2.9 2.4 5.574-3.218a.5.5 0 0 1 .561.824l-5.383 4.259 8.809-5.083a.5.5 0 0 1 .545.836l-7.238 5.29 10.612-6.126a.5.5 0 0 1 .523.851l-3.143 2.049 5.023-2.9a.5.5 0 0 1 .524.85l-6.259 4.1 8.579-4.95a.5.5 0 0 1 .515.856l-.527.33 2.057-1.186a.5.5 0 0 1 .524.85l-9.423 6.175 12.173-7.025a.5.5 0 0 1 .518.854l-4.853 3.078 6.809-3.932a.5.5 0 0 1 .516.855l-3.09 1.945 4.855-2.8a.5.5 0 0 1 .524.85l-9.528 6.244 12.285-7.094a.5.5 0 0 1 .518.854l-5.008 3.176 6.987-4.03a.5.5 0 0 1 .529.847l-11.271 7.54 14.534-8.387a.5.5 0 0 1 .518.854l-5.092 3.234 7.082-4.088a.5.5 0 0 1 .519.854l-5.31 3.376 7.327-4.23a.5.5 0 0 1 .517.855l-3.215 2.025 4.988-2.88a.5.5 0 0 1 .525.85l-9.841 6.47 12.679-7.32a.5.5 0 0 1 .518.855l-4.206 2.659 5.873-3.39a.5.5 0 0 1 .525.85l-9.852 6.489 10.661-6.156a.5.5 0 0 1 .52.854l-4.585 2.939 4.244-2.45a.5.5 0 0 1 .534.845l-8.983 6.192 8.45-4.879a.5.5 0 0 1 .522.852l-1.389.9.867-.5a.5.5 0 0 1 .546.836l-6.139 4.513 5.593-3.229a.5.5 0 0 1 .538.841l-2.045 1.444 1.507-.869a.5.5 0 0 1 .566.821l-2.97 2.425 2.4-1.387a.5.5 0 0 1 .631.756l-1.937 2.281 1.306-.754a.5.5 0 0 1 .5.865l-3.806 2.2a.5.5 0 0 1 -.631-.756l1.937-2.281-5.257 3.034a.5.5 0 0 1 -.566-.82l2.969-2.425-5.622 3.245a.5.5 0 0 1 -.538-.84l2.041-1.442-3.956 2.282a.5.5 0 0 1 -.546-.836l6.142-4.515-9.27 5.351a.5.5 0 0 1 -.522-.851l1.379-.9-3.031 1.751a.5.5 0 0 1 -.534-.844l8.983-6.192-12.189 7.036a.5.5 0 0 1 -.519-.853l4.591-2.942-6.572 3.795a.5.5 0 0 1 -.525-.85l9.854-6.492-12.718 7.342a.5.5 0 0 1 -.25.071z" fill="#b9bfcc"/><path d="m8.946 51.471a.5.5 0 0 1 -.367-.839l1.8-1.946-4.528 2.614a.5.5 0 0 1 -.576-.813l2.617-2.241-2.612 1.504a.5.5 0 0 1 -.574-.812l1.8-1.54-1.229.709a.5.5 0 0 1 -.7-.641l.594-1.291a.509.509 0 0 1 -.486-.247.5.5 0 0 1 .182-.683l1.133-.655a.5.5 0 0 1 .7.641l-.563 1.225 4.586-2.647a.5.5 0 0 1 .574.812l-1.8 1.54 2.564-1.48a.5.5 0 0 1 .576.812l-2.615 2.24 2.7-1.556a.5.5 0 0 1 .617.771l-1.795 1.946 1.179-.68a.5.5 0 0 1 .693.663l-.492.946a.5.5 0 0 1 .213.933l-1.123.647a.5.5 0 0 1 -.694-.664l.417-.8-2.537 1.461a.49.49 0 0 1 -.254.071z" fill="#79808f"/><path d="m7.114 44.181a.5.5 0 0 1 -.25-.934l1.128-.65a.5.5 0 1 1 .5.867l-1.128.65a.5.5 0 0 1 -.25.067z" fill="#79808f"/><path d="m23.3 51.471a.5.5 0 0 1 -.384-.821l1.867-2.24-4.979 2.875a.5.5 0 0 1 -.568-.819l2.211-1.813-2.17 1.252a.5.5 0 0 1 -.594-.794l2.876-2.747-2.283 1.319a.5.5 0 0 1 -.688-.673l.458-.836a.5.5 0 0 1 -.184-.929l1.138-.655a.5.5 0 0 1 .688.673l-.362.661 4.352-2.512a.5.5 0 0 1 .594.794l-2.872 2.746 3.845-2.22a.5.5 0 0 1 .568.82l-2.213 1.812 2.12-1.224a.5.5 0 0 1 .634.753l-1.868 2.239 1.235-.712a.494.494 0 0 1 .6.078.5.5 0 0 1 .082.6l-.419.732a.5.5 0 0 1 .149.923l-1.123.647a.5.5 0 0 1 -.685-.681l.293-.512-2.065 1.193a.49.49 0 0 1 -.253.071z" fill="#79808f"/><path d="m21.114 44.181a.5.5 0 0 1 -.25-.934l1.128-.65a.5.5 0 1 1 .5.867l-1.128.65a.5.5 0 0 1 -.25.067z" fill="#79808f"/><path d="m34.211 51.471a.5.5 0 0 1 -.321-.884l2.161-1.808-2.771 1.6a.5.5 0 0 1 -.556-.827l.553-.43a.5.5 0 0 1 -.555-.828l.434-.341a.5.5 0 0 1 -.574-.707l.533-1.068a.5.5 0 0 1 -.25-.933l1.135-.655a.5.5 0 0 1 .7.656l-.478.96 4.5-2.6a.5.5 0 0 1 .557.827l-.336.263.173-.1a.5.5 0 0 1 .557.827l-.554.43 1.426-.823a.5.5 0 0 1 .571.817l-2.162 1.808 1.768-1.02a.5.5 0 0 1 .617.771l-1.37 1.484.753-.435a.5.5 0 0 1 .682.684l-.4.7a.5.5 0 0 1 .136.92l-1.123.647a.5.5 0 0 1 -.683-.684l.267-.459-1.987 1.137a.5.5 0 0 1 -.614-.769l1.37-1.483-3.909 2.252a.493.493 0 0 1 -.25.071z" fill="#79808f"/><path d="m35.114 44.181a.5.5 0 0 1 -.25-.934l1.128-.65a.5.5 0 1 1 .5.867l-1.128.65a.5.5 0 0 1 -.25.067z" fill="#79808f"/><path d="m50.374 51.471a.5.5 0 0 1 -.351-.857l1.783-1.749-4.089 2.361a.5.5 0 0 1 -.559-.827l1.579-1.241-1.457.842a.5.5 0 0 1 -.584-.8l2.39-2.147-1.807 1.037a.5.5 0 0 1 -.7-.643l.59-1.271a.505.505 0 0 1 -.482-.248.5.5 0 0 1 .182-.683l1.131-.655a.5.5 0 0 1 .7.642l-.558 1.2 4.581-2.644a.5.5 0 0 1 .584.8l-2.388 2.145 3.378-1.95a.5.5 0 0 1 .558.826l-1.578 1.251 1.443-.832a.5.5 0 0 1 .6.789l-1.782 1.749 1.183-.682a.5.5 0 0 1 .636.75l-.482.587a.507.507 0 0 1 .528.241.5.5 0 0 1 -.182.683l-2.18 1.255a.5.5 0 0 1 -.637-.75l.433-.526-2.213 1.276a.49.49 0 0 1 -.25.071z" fill="#79808f"/><path d="m49.114 44.181a.5.5 0 0 1 -.25-.934l1.128-.65a.5.5 0 1 1 .5.867l-1.128.65a.5.5 0 0 1 -.25.067z" fill="#79808f"/><path d="m29.153 20.243a.5.5 0 0 1 -.38-.825l.539-.627-.809.466a.5.5 0 0 1 -.677-.694l.685-1.116a.5.5 0 0 1 -.438-.9l1.637-.947a.5.5 0 0 1 .677.7l-.679 1.108 1.636-.945a.5.5 0 0 1 .63.758l-.538.628.246-.142a.5.5 0 0 1 .5.866l-2.779 1.6a.5.5 0 0 1 -.25.07z" fill="#346d92"/><g fill="#262626"><path d="m54.265 38.7h-39.383c-3.672 0-7.737-.486-11.388 0-4.439.592-3.218 5.042-3.218 8.494 0 3.807-.93 7.452 3 8.03.01 4.157 1.867 4.08 5.275 4.08h44.981a.688.688 0 0 0 .077-.013 1.372 1.372 0 0 0 .454-.056c2.311-.625 2.622-1.793 2.655-3.952a1.591 1.591 0 0 0 .343-.057c4.524-1.226 2.856-9.273 2.663-12.906-.203-3.843-2.247-3.62-5.459-3.62zm-.189 20h-41.551c-3.511 0-7.486 1.047-7.773-3.379 4.58.173 9.207.005 13.791-.013h29.6c.1 0 .208-.005.311-.007h5.254c.034 0 .07 0 .1.007a1.8 1.8 0 0 0 .277-.007h1.105c.008 0 .023 0 .031.007.651.336-.44 2.908-1.145 3.392zm3.013-4h-.559a.419.419 0 0 0 -.062-.007h-52a2.919 2.919 0 0 0 -.448.046c-.054-.016-.116-.022-.169-.039-2.408-.789-2.127-2.246-2.127-4.161 0-2.844-.426-6.038 0-8.847.547-3.6 3.89-2.4 6.944-2.4h35.174c3.434 0 9-1.083 12.307 0 2.839.932 2.127 3.607 2.127 5.93 0 1.65 1.024 8.557-1.187 9.478z"/><path d="m11.726 44.659c.009-.742.058-1.535-.749-1.889a5.835 5.835 0 0 0 -2.244-.109 3.078 3.078 0 0 0 -1.846.464 1.709 1.709 0 0 0 -.616 1.561 2.008 2.008 0 0 0 -1.911 1.038c-.37.9-.084 2.306-.084 3.241 0 1.2-.051 2.258 1.423 2.374.987.078 2.01 0 3 0 1.578 0 4.871.582 5.025-1.729a17.545 17.545 0 0 0 0-3.68c-.191-1.196-1.024-1.271-1.998-1.271zm.55 5.5c-.085.641.061.4-.449.5a13.93 13.93 0 0 1 -2.526 0c-1.325 0-3.487.564-3.577-1.218-.044-.892 0-1.8 0-2.692a4.287 4.287 0 0 1 0-.913c.157-.656.312-.5.975-.5.278 0 1.025-.154 1.025-.533 0-.276-.136-1.327.031-1.467.145-.121 1.045 0 1.24 0 1.257 0 1.281.813 1.281 1.855 0 .11.175.15.4.143h.025c.94 0 1.526.211 1.577 1.218.044.892 0 1.8 0 2.692a7.319 7.319 0 0 1 -.002.918z"/><path d="m25.726 44.7c.008-.745.078-1.562-.743-1.905a6.026 6.026 0 0 0 -2.308-.1 3.145 3.145 0 0 0 -1.78.461 1.671 1.671 0 0 0 -.623 1.555 2.264 2.264 0 0 0 -1.695.706c-.617.775-.3 2.347-.3 3.247 0 1.177-.232 2.428 1.257 2.641a21.923 21.923 0 0 0 3 0c1.571 0 4.838.586 5.191-1.577a17.708 17.708 0 0 0 0-3.654c-.078-1.282-.959-1.374-1.999-1.374zm-2.259 6a23.389 23.389 0 0 1 -2.526 0 1.192 1.192 0 0 1 -1.217-1.346c-.032-.95 0-1.907 0-2.858a5.094 5.094 0 0 1 .035-.829c.072-.438-.237-.2.126-.357a2.071 2.071 0 0 1 .648 0c.27 0 1.191-.1 1.191-.5a4.629 4.629 0 0 1 .07-1.32.162.162 0 0 0 0-.147 1.719 1.719 0 0 0 .175-.034 3.234 3.234 0 0 1 .716 0c.645 0 1.268-.09 1.555.694a3.856 3.856 0 0 1 .04 1.2c0 .035.031.059.078.076a.308.308 0 0 0 .179.035c1.045 0 1.706.265 1.743 1.346.032.95 0 1.907 0 2.858 0 .282-.009.551-.035.829-.02.208.029.291.071.323a.848.848 0 0 0 -.237.034 11.968 11.968 0 0 1 -2.612-.004z"/><path d="m39.726 44.708c.007-.746.084-1.568-.741-1.908a6.062 6.062 0 0 0 -2.307-.093 3.214 3.214 0 0 0 -1.78.46 1.657 1.657 0 0 0 -.626 1.557 2.29 2.29 0 0 0 -1.693.7c-.621.768-.3 2.35-.3 3.243 0 1.178-.234 2.421 1.254 2.629a22.247 22.247 0 0 0 3 0c1.558 0 4.84.582 5.194-1.565a17.569 17.569 0 0 0 0-3.654c-.08-1.286-.962-1.364-2.001-1.369zm.352 6a11.844 11.844 0 0 1 -2.608 0 23.136 23.136 0 0 1 -2.526 0 1.2 1.2 0 0 1 -1.22-1.358c-.032-.95 0-1.907 0-2.858a5.234 5.234 0 0 1 .035-.831c.069-.441-.24-.207.123-.367a2.1 2.1 0 0 1 .648 0c.257 0 1.194-.11 1.194-.487a4.733 4.733 0 0 1 .069-1.324.174.174 0 0 0 0-.153 1.753 1.753 0 0 0 .173-.036 3.175 3.175 0 0 1 .716 0c.65 0 1.271-.088 1.558.706a3.887 3.887 0 0 1 .04 1.2c0 .031.032.053.08.068a.322.322 0 0 0 .174.031c1.048 0 1.708.276 1.746 1.358.032.95 0 1.907 0 2.858 0 .275-.039.561-.035.831 0 .215.057.3.095.333a.773.773 0 0 0 -.262.028z"/><path d="m53.739 44.521a1.91 1.91 0 0 0 -.467-1.622c-.612-.531-1.561-.385-2.306-.385-1.687 0-2.513.519-2.665 2.017a1.917 1.917 0 0 0 -1.953 1.148 11.411 11.411 0 0 0 -.079 3.444c0 1.16.04 2.2 1.469 2.363a26.337 26.337 0 0 0 3 0c1.779 0 4.85.6 4.993-1.916a23.464 23.464 0 0 0 0-3.606c-.131-1.214-1.003-1.411-1.992-1.443zm.516 5.77c-.186.347-.025.142-.467.223a14.7 14.7 0 0 1 -2.526 0c-1.329 0-3.531.577-3.531-1.267v-2.63a2.755 2.755 0 0 1 0-.685c.183-.6.4-.446 1.007-.446.285 0 .993-.13.993-.554a4.922 4.922 0 0 1 0-.948c.139-.669.19-.5.859-.5a3.768 3.768 0 0 1 1.092 0c.666.266.587 1.03.587 1.582a.361.361 0 0 0 .039.134c-.024.149.081.263.382.277a1.034 1.034 0 0 0 .113.009c1.025.015 1.466.358 1.466 1.4 0 .871.007 1.742 0 2.614a2.642 2.642 0 0 1 -.014.791z"/><path d="m27.264 18.048c-.055 3.4 5.3 3.147 5.472-.1a2.573 2.573 0 0 0 -2.679-2.51 2.8 2.8 0 0 0 -2.793 2.61zm4 0c-.037.688-.435 1.451-1.238 1.389a1.52 1.52 0 0 1 -1.29-1.485 1.288 1.288 0 0 1 1.113-1.386 1.492 1.492 0 0 1 1.415 1.482z"/><path d="m6.73 25.456h44.99l-3.29 2.467c-.624.468.819.4 1.14.154l4-3c.086-.065.246-.241.107-.345l-4-3c-.367-.275-1.676.294-1.354.536l3.035 2.276h-44.088c-.604 0-1.516.912-.54.912z"/><path d="m10.437 35.4c.474.355 1.766-.32 1.126-.8l-3.05-2.287h44.022c.33 0 1.647-.626.93-.626h-45a.985.985 0 0 0 -.25.055l3.257-2.442c.786-.589-.4-1-.944-.6l-4 3c-.243.182-.377.484-.091.7z"/><path d="m33.321 13.26c.272.306 1.642-.2 1.358-.521-2.606-2.931-6.825-2.543-9.342.289-.341.384 1.064.238 1.326-.056 2.026-2.28 4.789-1.814 6.658.288z"/><path d="m37.681 8.748c-4.447-4.224-10.987-3.837-15.339.3-.319.3 1.05.163 1.316-.09 3.759-3.571 9.095-3.09 12.661.3.281.264 1.608-.276 1.362-.51z"/><path d="m20.6 5.189a13.868 13.868 0 0 1 18.734.121c.458.4 1.823-.185 1.332-.62a15.711 15.711 0 0 0 -21.266.121c-.659.583.755.771 1.2.378z"/></g></svg>