<svg id="Icons" height="512" viewBox="0 0 60 60" width="512" xmlns="http://www.w3.org/2000/svg"><path d="m47.635 33.253a.5.5 0 0 1 -.412-.782l1.039-1.519-1.658.956a.5.5 0 0 1 -.604-.781l.259-.267-.443.256a.5.5 0 0 1 -.662-.718l1.028-1.478-1.627.938a.5.5 0 0 1 -.64-.746l.827-1.026-1.245.718a.5.5 0 0 1 -.634-.753l.751-.9-1.123.648a.5.5 0 0 1 -.659-.72l1.019-1.456-1.609.929a.5.5 0 0 1 -.642-.752l.78-.947-1.17.675a.5.5 0 0 1 -.669-.705l1.075-1.652-1.754 1.013a.5.5 0 0 1 -.614-.09.5.5 0 0 1 -.053-.618l1.068-1.619-1.731 1a.5.5 0 0 1 -.616-.772l.443-.478-.681.393a.5.5 0 0 1 -.678-.691l1.107-1.809-1.862 1.075a.5.5 0 0 1 -.676-.7l1.1-1.786-1.846 1.065a.5.5 0 0 1 -.673-.7l1.095-1.742-1.816 1.048a.5.5 0 0 1 -.669-.706l1.075-1.65-1.753 1.012a.5.5 0 0 1 -.663-.715l1.04-1.519-1.658.957a.5.5 0 0 1 -.634-.753l.755-.907-1.13.653a.5.5 0 0 1 -.66-.718l1.5-2.165a.449.449 0 0 1 -.089-.113.5.5 0 0 1 .182-.683l.867-.5a.5.5 0 0 1 .66.718l-1.027 1.476 1.625-.937a.5.5 0 0 1 .634.753l-.754.9 1.129-.651a.5.5 0 0 1 .663.715l-1.041 1.52 1.659-.957a.5.5 0 0 1 .669.706l-1.075 1.649 1.753-1.011a.5.5 0 0 1 .673.7l-1.095 1.742 1.817-1.048a.5.5 0 0 1 .608.084.5.5 0 0 1 .067.612l-1.1 1.785 1.846-1.066a.5.5 0 0 1 .676.694l-1.106 1.811 1.867-1.068a.5.5 0 0 1 .616.773l-.443.477.685-.394a.5.5 0 0 1 .667.708l-1.065 1.618 1.731-1a.5.5 0 0 1 .669.705l-1.076 1.652 1.754-1.013a.5.5 0 0 1 .636.751l-.779.946 1.168-.674a.5.5 0 0 1 .659.72l-1.02 1.456 1.611-.929a.5.5 0 0 1 .634.753l-.751.9 1.123-.647a.5.5 0 0 1 .639.746l-.827 1.026 1.245-.717a.5.5 0 0 1 .661.717l-1.027 1.479 1.627-.939a.5.5 0 0 1 .608.782l-.258.266.443-.256a.5.5 0 0 1 .662.715l-1.2 1.747a.509.509 0 0 1 .342.242.5.5 0 0 1 -.183.683l-1.408.813a.5.5 0 0 1 -.248.067z" fill="#ccd0da"/><path d="m27.657 35.326a.5.5 0 0 1 -.312-.89l1.611-1.29-2.011 1.161a.5.5 0 0 1 -.571-.816l2.255-1.891-2.793 1.612a.5.5 0 0 1 -.588-.8l2.972-2.718-3.607 2.076a.5.5 0 0 1 -.592-.8l5.133-4.827a.5.5 0 0 1 .242-.526l.867-.5a.5.5 0 0 1 .592.8l-3.011 2.833 3.843-2.219a.5.5 0 0 1 .588.8l-2.975 2.721 3.752-2.166a.5.5 0 0 1 .571.815l-2.248 1.899 2.79-1.612a.5.5 0 0 1 .563.824l-2.939 2.351a.5.5 0 0 1 -.006.863l-3.876 2.238a.491.491 0 0 1 -.25.062z" fill="#ccd0da"/><path d="m14.437 47.232a.5.5 0 0 1 -.338-.868l2.533-2.325-3.232 1.861a.5.5 0 0 1 -.577-.81l2.1-1.816-.987.57a.5.5 0 0 1 -.591-.8l3.5-3.256a.5.5 0 0 1 .244-.511l.849-.489a.5.5 0 0 1 .59.8l-1.274 1.185 1.7-.981a.5.5 0 0 1 .577.81l-2.094 1.818 2.636-1.52a.5.5 0 0 1 .588.8l-2.7 2.482a.493.493 0 0 1 .468.249.5.5 0 0 1 -.183.682l-3.555 2.053a.494.494 0 0 1 -.254.066z" fill="#ccd0da"/><path d="m26.439 49.622a.5.5 0 0 1 -.355-.851l1.3-1.312-1.784 1.03a.5.5 0 0 1 -.591-.8l2.475-2.3-3.162 1.825a.5.5 0 0 1 -.549-.833l.343-.257-.56.323a.5.5 0 0 1 -.57-.817l3.29-2.728-3.976 2.291a.5.5 0 0 1 -.562-.823l3.592-2.865-4.26 2.459a.5.5 0 0 1 -.564-.821l4.457-3.6-5.271 3.043a.5.5 0 0 1 -.559-.825l4.537-3.579-5.315 3.068a.5.5 0 0 1 -.549-.833l3.65-2.732-4.226 2.439a.5.5 0 0 1 -.546-.835l3.261-2.4-3.773 2.178a.5.5 0 0 1 -.538-.841l1.524-1.074-1.839 1.062a.5.5 0 0 1 -.538-.842l1.389-.978-1.693.977a.5.5 0 0 1 -.55-.833l3.013-2.254-3.519 2.032a.5.5 0 0 1 -.537-.841l.233-.164-.445.256a.5.5 0 0 1 -.572-.815l3.292-2.773-4 2.308a.5.5 0 0 1 -.614-.776l1.922-2.024-.956.552a.5.5 0 0 1 -.5-.865l3.932-2.274a.5.5 0 0 1 .613.777l-1.917 2.023 5.908-3.41a.5.5 0 0 1 .573.815l-3.292 2.774 5.383-3.107a.5.5 0 0 1 .537.841l-.225.159.985-.569a.5.5 0 0 1 .55.833l-3.02 2.258 3.98-2.3a.5.5 0 0 1 .538.842l-1.384.975 1.875-1.081a.5.5 0 0 1 .538.842l-1.518 1.071 1.947-1.124a.5.5 0 0 1 .547.835l-3.271 2.406 3.706-2.139a.5.5 0 0 1 .549.833l-3.645 2.728 4.03-2.327a.5.5 0 0 1 .56.826l-4.539 3.581 4.831-2.789a.5.5 0 0 1 .564.821l-4.459 3.606 4.485-2.589a.5.5 0 0 1 .562.823l-3.589 2.862 3.322-1.919a.5.5 0 0 1 .569.818l-3.29 2.728 2.745-1.585a.5.5 0 0 1 .55.833l-.521.389a.5.5 0 0 1 .44.856l-2.475 2.3 1.189-.686a.5.5 0 0 1 .605.785l-1.718 1.735a.5.5 0 0 1 .108.912l-2.413 1.393a.489.489 0 0 1 -.25.067z" fill="#b9bfcc"/><path d="m37.148 33.456a.5.5 0 0 1 -.325-.88l3.871-3.318-5.6 3.235a.5.5 0 0 1 -.533-.845l3.549-2.448-4 2.311a.5.5 0 0 1 -.525-.85l4.549-3-4.993 2.882a.5.5 0 0 1 -.52-.855l4.051-2.588-4.426 2.554a.5.5 0 0 1 -.514-.857l.164-.1-.388.224a.5.5 0 0 1 -.522-.853l10.781-6.962-11.461 6.619a.5.5 0 0 1 -.523-.852l12.045-7.82-12.806 7.392a.5.5 0 0 1 -.523-.851l12.694-8.282-13.422 7.749a.5.5 0 0 1 -.522-.853l11.351-7.34-11.415 6.593a.5.5 0 0 1 -.521-.854l9.883-6.352-8.278 4.779a.5.5 0 0 1 -.52-.853l7.315-4.691-2.935 1.695a.5.5 0 0 1 -.521-.854l3.574-2.3a.5.5 0 0 1 -.356-.911l3.255-2.13a.5.5 0 0 1 -.228-.9l5.312-3.953a.5.5 0 0 1 -.495-.854l3.188-2.638-.006-.011a.5.5 0 0 1 .182-.683l2.237-1.284a.5.5 0 0 1 .569.818l-.945.783 2.167-1.251a.5.5 0 0 1 .548.834l-5.266 3.919 6.156-3.552a.5.5 0 0 1 .524.85l-1.647 1.077 1.934-1.117a.5.5 0 0 1 .52.854l-3.016 1.937 3.354-1.935a.5.5 0 0 1 .519.853l-7.311 4.689 7.823-4.516a.5.5 0 0 1 .521.854l-9.873 6.345 10.5-6.059a.5.5 0 0 1 .521.852l-11.369 7.344 12.07-6.969a.5.5 0 0 1 .524.852l-12.694 8.285 13.5-7.792a.5.5 0 0 1 .522.852l-12.041 7.815 12.255-7.075a.5.5 0 0 1 .521.852l-10.779 6.962 9.674-5.585a.5.5 0 0 1 .513.858l-2.728 1.699a.507.507 0 0 1 .371.237.5.5 0 0 1 -.158.682l-4.062 2.594.2-.115a.5.5 0 0 1 .526.849l-4.547 3 .382-.221a.5.5 0 0 1 .533.845l-4.019 2.766a.517.517 0 0 1 .458.209.5.5 0 0 1 -.083.669l-5.3 4.543a.474.474 0 0 1 .1.12.5.5 0 0 1 -.182.682l-2.656 1.529a.489.489 0 0 1 -.252.067z" fill="#b9bfcc"/><path d="m36.079 28.178a.5.5 0 0 1 -.308-.894l2.679-2.1-3.2 1.848a.5.5 0 0 1 -.545-.837l6.935-5.058-7.789 4.5a.5.5 0 0 1 -.53-.848l8.271-5.57-8.98 5.181a.5.5 0 0 1 -.533-.845l10.275-7.071-9.143 5.278a.5.5 0 0 1 -.534-.844l8.523-5.892-2.982 1.724a.5.5 0 0 1 -.543-.838l4.725-3.412a.5.5 0 0 1 -.469-.854l5.059-4.546a.5.5 0 0 1 .189-.673l1.61-.93a.5.5 0 0 1 .584.805l-3.227 2.898 4.146-2.393a.5.5 0 0 1 .543.837l-4.6 3.321 5.208-3.005a.5.5 0 0 1 .535.844l-8.525 5.884 9.332-5.388a.5.5 0 0 1 .533.845l-10.275 7.073 10.568-6.1a.5.5 0 0 1 .53.848l-8.266 5.567 3.374-1.948a.5.5 0 0 1 .545.837l-6.94 5.063 1.173-.677a.5.5 0 0 1 .559.826l-4.086 3.21a.5.5 0 0 1 -.005.863l-4.162 2.4a.493.493 0 0 1 -.254.071z" fill="#618593"/><path d="m27.015 14.378a.5.5 0 0 1 -.359-.849l1.989-2.039-3.135 1.81a.5.5 0 0 1 -.565-.821l.9-.728-1.193.688a.5.5 0 0 1 -.571-.816l1.333-1.114-1.708.985a.5.5 0 0 1 -.589-.8l2.178-2-2.788 1.606a.5.5 0 0 1 -.582-.807l1.91-1.7-2.429 1.407a.5.5 0 0 1 -.591-.8l2.25-2.1-2.886 1.67a.5.5 0 0 1 -.588-.8l2.138-1.956-2.6 1.5a.5.5 0 0 1 -.562-.823l.539-.43-.067.038a.5.5 0 0 1 -.588-.8l2.412-2.217a.474.474 0 0 1 -.056-.08.5.5 0 0 1 .182-.682l1.942-1.12a.5.5 0 0 1 .588.8l-1.049.964 1.917-1.106a.5.5 0 0 1 .561.823l-.54.431.786-.453a.5.5 0 0 1 .588.8l-2.138 1.955 2.733-1.577a.5.5 0 0 1 .591.8l-2.248 2.093 2.88-1.666a.5.5 0 0 1 .583.807l-1.913 1.7 2.431-1.4a.5.5 0 0 1 .589.8l-2.178 2 2.788-1.609a.5.5 0 0 1 .572.816l-1.332 1.114 1.68-.969a.5.5 0 0 1 .565.821l-.9.726.79-.457a.5.5 0 0 1 .609.782l-2.5 2.562a.5.5 0 0 1 .056.894l-2.182 1.26a.5.5 0 0 1 -.243.067z" fill="#b9bfcc"/><path d="m53.73 41.63a.5.5 0 0 1 -.359-.847l2.538-2.632-3.517 2.031a.5.5 0 0 1 -.607-.784l2.65-2.687-3.5 2.018a.5.5 0 0 1 -.577-.81l1.7-1.473-2.158 1.246a.5.5 0 0 1 -.556-.827l.179-.139-.375.215a.5.5 0 0 1 -.559-.825l.495-.39-.731.42a.5.5 0 0 1 -.569-.817l1.208-1-1.557.9a.5.5 0 0 1 -.6-.789l2.548-2.515-2.969 1.713a.5.5 0 0 1 -.617-.772l2.636-2.853a.5.5 0 0 1 -.053-.892l1.948-1.126a.5.5 0 0 1 .617.772l-2.178 2.358 3.485-2.012a.5.5 0 0 1 .6.788l-2.548 2.516 3.331-1.917a.5.5 0 0 1 .569.818l-1.208 1 1.558-.9a.5.5 0 0 1 .559.825l-.495.391.731-.421a.5.5 0 0 1 .556.827l-.179.14.375-.216a.5.5 0 0 1 .577.811l-1.7 1.472 2.159-1.247a.5.5 0 0 1 .606.783l-2.649 2.687 3.39-1.957a.5.5 0 0 1 .611.779l-2.538 2.632 1.063-.614a.5.5 0 1 1 .5.865l-4.14 2.391a.5.5 0 0 1 -.25.064z" fill="#b9bfcc"/><path d="m12.575 51.091a.5.5 0 0 1 -.372-.834l.5-.555-1.673.966a.5.5 0 0 1 -.621-.768l1.7-1.88-2.326 1.337a.5.5 0 0 1 -.587-.8l.704-.647-.411.237a.5.5 0 0 1 -.623-.765l.874-.981a.493.493 0 0 1 -.289-.228.5.5 0 0 1 .183-.683l1.966-1.134a.5.5 0 0 1 .623.766l-.541.607 1.732-1a.5.5 0 0 1 .587.8l-.707.644 1.042-.6a.5.5 0 0 1 .621.768l-1.694 1.881 1.664-.96a.5.5 0 0 1 .622.766l-.862.959a.5.5 0 0 1 .091.907l-1.954 1.128a.49.49 0 0 1 -.249.069z" fill="#b9bfcc"/><g fill="#262626"><path d="m46.051 1.918a101.329 101.329 0 0 0 -11.488 11.187l-2.6-2.6c.724-1.443-.012-2.537-1.17-3.694l-4.66-4.66c-1.125-1.125-2.273-2.16-3.993-1.445a10.669 10.669 0 0 0 -3.49 3.158c-1.275 1.716-.46 2.965.832 4.256l4.655 4.656c1.121 1.12 2.265 2.149 3.973 1.451l2.779 2.773c-.45.464-.9.931-1.35 1.382-1.564 1.558-4.084 3.324-3.156 5.876a8.507 8.507 0 0 0 1.716 2.6l-2.744 2.742c-.046-.023-.085-.053-.131-.076a13.078 13.078 0 0 0 -9.875-.663c-1.811.592-6.426 2.459-5.224 4.982.592 1.244 2.532 2.532 3.481 3.481l2.773 2.774-4.254 4.254a4.267 4.267 0 0 0 -2.238.816 3.263 3.263 0 0 0 -.474 4.92 4.047 4.047 0 0 0 5.119.134 3.3 3.3 0 0 0 1.356-2.78l3.918-3.917.672.672c1.268 1.267 5.5 7.424 7.874 5.051a12.861 12.861 0 0 0 2.036-14.783l2.912-2.918c.08.069.163.14.238.206 3.591 3.186 6.756.338 9.476-2.618l2.657 2.658a2.571 2.571 0 0 0 -.311.854c-.237 1.68 1.553 2.9 2.592 3.941 2.021 2.022 5.267 7.051 8.5 4.421 1.051-.854 2.927-2.4 3.211-3.794.339-1.669-1.222-2.75-2.258-3.786-1.915-1.914-4.744-6.258-7.776-5.254l-2.929-2.928 9.643-9.613c2.081-2.074 4.5-3.87 2.444-6.949-3.164-3.16-7.757-10.646-12.736-6.767zm-21.369 9.435c-1.322-1.322-6.168-4.621-4.817-7.05a8.556 8.556 0 0 1 2.313-2.313c1.526-.728 2.327.5 3.271 1.445.059.059.136.13.217.2q-.624.623-1.246 1.246c-.217.217-.161.431.136.51a1.244 1.244 0 0 0 1.025-.275l.83-.831c.7.6 1.6 1.383 2.406 2.22l-1.393 1.395c-.211.211-.171.4.128.477a1.289 1.289 0 0 0 1.024-.277l.881-.882c1.01 1.213 1.626 2.465.948 3.4-.678.678-1.532 1.956-2.381 2.381-1.513.763-2.455-.759-3.342-1.646zm4.6 2.13a20 20 0 0 0 1.846-1.9l2.513 2.517q-.906.972-1.812 1.924zm-15.172 35.763a2.033 2.033 0 0 1 -3.346.293 2.854 2.854 0 0 1 -.455-3.4c.8-1.36 2.277-1.28 3.346-.293a2.875 2.875 0 0 1 .455 3.4zm4.625-5.85-3.035 3.037a3.408 3.408 0 0 0 -.691-1.136 3.655 3.655 0 0 0 -1.751-.883l3.721-3.722 1.883 1.883q.062.064.123.123l.254.253c-.145.163-.426.367-.504.449zm8.445 5.57c-.006 0-12.9-12.9-14.035-14.029-.588-.589-1.672-1.286-1.711-2.162-.091-2.021 4.466-3.351 6.021-3.57a11.134 11.134 0 0 1 6.624 1.045 11.88 11.88 0 0 1 3.101 18.716zm2.672-15.381a11.82 11.82 0 0 0 -3.6-3.47l2.539-2.538c1.2 1.211 2.609 2.363 3.752 3.321zm14.077-5.456c.212-.235.422-.467.629-.692q.6-.6 1.21-1.21l2.661 2.661c-.549.527-1.3 1.134-1.935 1.806zm8.826 2.342-1.355 1.352a.361.361 0 0 0 .168.629 1.08 1.08 0 0 0 1.025-.274l.952-.952c.837.842 1.614 1.754 2.176 2.405l-1.39 1.39c-.244.244.211.33.367.329a1.428 1.428 0 0 0 .963-.37l.668-.668.029.031a7.754 7.754 0 0 1 1.142 1.142 3.41 3.41 0 0 1 .255 2.6c-.424 1-2.242 2.4-3.214 2.36-1.254-.058-1.881-1.105-2.753-1.978q-1.607-1.606-3.212-3.212a6.962 6.962 0 0 1 -1.076-1.082 3.881 3.881 0 0 1 -.188-2.529c.341-.807 1.62-1.676 2.324-2.333.774-.556 1.951.127 3.119 1.16zm4.687-21.239c2.338 3.51-3.422 7.394-5.345 9.311l-6.626 6.605a.986.986 0 0 0 -.165.111q-1.414 1.416-2.83 2.83a.6.6 0 0 0 -.117.167c-2.072 2.119-3.8 5.115-7.118 3.3a5.777 5.777 0 0 1 -1.129-.854.205.205 0 0 0 -.017-.266q-1.267-1.269-2.536-2.536c-.075-.08-.152-.166-.226-.239s-.138-.131-.209-.2l-1.272-1.271a.528.528 0 0 0 -.323-.135 5.414 5.414 0 0 1 -1.084-1.276c-1.605-3.022 1.155-5.561 3.443-7.562a1.117 1.117 0 0 0 .412-.217l2.83-2.82a.609.609 0 0 0 .114-.157l7.568-7.544c1.906-1.9 4.409-5.943 7.607-4.241 2.518 1.333 4.996 4.974 7.023 6.994z"/><path d="m44.749 8.745-13.256 13.255a.47.47 0 0 0 -.167.191c0 .01 0 .02-.009.03a.256.256 0 0 0 -.037.123c-.638 1.975 2.158 3.892 3.527 5.07 1.229 1.056 1.9 1.609 3.449.634 1.467-.921 2.782-2.782 3.991-3.991l7.553-7.557c1.283-1.282 3.591-2.842 4.457-4.456 1.006-1.875-.649-2.742-1.971-4.064-1.247-1.247-2.263-2.96-4.151-2.32-1.319.449-2.445 2.145-3.386 3.085zm-7.417 18.732c-.926.158-5.144-3.79-4.647-5.171l2.848-2.849 5.052 5.052c-1.101 1.328-2.419 2.825-3.253 2.968zm4.829-4.829c-.19.19-.446.49-.742.847l-4.961-4.962q1.782-1.782 3.565-3.565l4.909 4.909zm3.716-3.716-4.909-4.909 2.622-2.623c.216-.215.515-.571.86-.989l4.981 4.981c-.1.09-.191.176-.27.255zm7.172-7.789c.014 1.044-1.39 2.329-2.587 3.357l-5.14-5.14c1.055-1.258 2.277-2.6 3.1-2.788.837-.189 4.612 3.451 4.627 4.571z"/><path d="m15.973 54.494c.91-.431.074-.871-.565-.568-6.057 2.869-11.527-4.162-8.894-9.7.194-.409-1.23-.266-1.447.189-3.307 6.956 4.457 13.135 10.906 10.079z"/><path d="m16.159 58.686c.926-.371.1-1.059-.619-.77-7.633 3.058-16.11-6.336-13.154-13.695.3-.736-1.154-.667-1.374-.122-3.522 8.77 6.671 17.982 15.147 14.587z"/></g></svg>