<svg id="Icons" height="512" viewBox="0 0 60 60" width="512" xmlns="http://www.w3.org/2000/svg"><path d="m54.673 59.24a.5.5 0 0 1 -.326-.879l.159-.136-.42.242a.5.5 0 0 1 -.617-.772l1.8-1.944-2.473 1.428a.5.5 0 0 1 -.615-.775l1.757-1.874-2.407 1.389a.5.5 0 0 1 -.57-.816l.1-.084-.275.158a.5.5 0 0 1 -.613-.777l1.727-1.824-2.358 1.362a.5.5 0 0 1 -.6-.792l1.37-1.327-1.835 1.059a.5.5 0 0 1 -.622-.768l1.87-2.07-2.594 1.5a.5.5 0 0 1 -.574-.813l.384-.328-.6.349a.5.5 0 0 1 -.606-.785l1.562-1.573-2.1 1.215a.5.5 0 0 1 -.621-.769l1.866-2.06-2.586 1.494a.5.5 0 0 1 -.624-.765l3.028-3.411a.5.5 0 0 1 .2-.658l.866-.5a.5.5 0 0 1 .625.764l-1.918 2.16 2.674-1.544a.5.5 0 0 1 .62.769l-1.865 2.059 2.568-1.494a.5.5 0 0 1 .606.786l-1.562 1.573 2.1-1.213a.5.5 0 0 1 .574.813l-.389.331.609-.35a.5.5 0 0 1 .621.767l-1.868 2.069 2.589-1.494a.5.5 0 0 1 .6.792l-1.37 1.328 1.834-1.059a.5.5 0 0 1 .613.777l-1.727 1.822 2.353-1.359a.5.5 0 0 1 .571.817l-.1.085.274-.158a.5.5 0 0 1 .616.774l-1.758 1.875 2.4-1.388a.5.5 0 0 1 .617.772l-1.8 1.942 2.215-1.278a.5.5 0 0 1 .576.811l-.429.369a.5.5 0 0 1 .25.933l-4.133 2.386a.491.491 0 0 1 -.239.067z" fill="#8f6151"/><path d="m27.1 53.468a.5.5 0 0 1 -.274-.918l8.982-5.891-11.403 6.585a.5.5 0 0 1 -.517-.855l5.822-3.673-7.32 4.225a.5.5 0 0 1 -.523-.851l14.538-9.468-16.726 9.656a.5.5 0 0 1 -.517-.855l12.28-7.767-13.733 7.93a.5.5 0 0 1 -.517-.856l14.073-8.884-15.437 8.912a.5.5 0 0 1 -.512-.859l6.024-3.7-6.759 3.9a.5.5 0 0 1 -.515-.857l13.934-8.694-14.945 8.628a.5.5 0 0 1 -.512-.859l8.426-5.172-9.069 5.234a.5.5 0 0 1 -.511-.859l8.317-5.1-8.876 5.13a.5.5 0 0 1 -.511-.86l7.094-4.331-7.552 4.36a.5.5 0 0 1 -.513-.859l13.9-8.586-14.5 8.372a.5.5 0 0 1 -.513-.857l15.735-9.753-16.321 9.423a.5.5 0 0 1 -.515-.856l19.526-12.213-20.171 11.644a.5.5 0 0 1 -.512-.858l14.667-9.045-15.024 8.674a.5.5 0 0 1 -.509-.861l5.125-3.109-5.224 3.016a.5.5 0 0 1 -.512-.859l14.172-8.726-14.382 8.302a.5.5 0 0 1 -.509-.86l5.477-3.324-5.482 3.164a.5.5 0 0 1 -.509-.86l4.261-2.588-4.21 2.43a.5.5 0 0 1 -.51-.859l10.158-6.214-10.128 5.852a.5.5 0 0 1 -.516-.857l19.746-12.379-19.804 11.434a.5.5 0 0 1 -.513-.859l13.381-8.255-13.239 7.643a.5.5 0 0 1 -.517-.855l19.424-12.238-19.262 11.121a.5.5 0 0 1 -.517-.855l19.006-12.017-18.697 10.794a.5.5 0 0 1 -.517-.855l17.387-10.99-16.907 9.759a.5.5 0 0 1 -.519-.853l17.654-11.28-16.988 9.807a.5.5 0 0 1 -.512-.858l3.7-2.276-3 1.731a.5.5 0 0 1 -.512-.858l2.273-1.4-1.49.859a.5.5 0 0 1 -.519-.854l11.862-7.567-10.742 6.209a.5.5 0 0 1 -.52-.86l8.666-5.518-7.372 4.26a.5.5 0 0 1 -.515-.856l1.641-1.024-.343.2a.5.5 0 0 1 -.519-.854l3.853-2.466-2.177 1.251a.5.5 0 0 1 -.521-.852l1.9-1.229a.5.5 0 0 1 -.452-.876l4.909-3.725a.5.5 0 0 1 -.251-.933l6.217-3.589a.5.5 0 0 1 .552.831l-4.484 3.405 10.204-5.891a.5.5 0 0 1 .521.853l-1.709 1.105 3.76-2.172a.5.5 0 0 1 .52.854l-3.842 2.459 5.7-3.29a.5.5 0 0 1 .515.856l-1.647 1.029 2.967-1.712a.5.5 0 0 1 .518.855l-8.664 5.517 10.373-5.988a.5.5 0 0 1 .518.855l-11.86 7.566 13.573-7.836a.5.5 0 0 1 .512.859l-2.267 1.392 3.1-1.787a.5.5 0 0 1 .512.858l-3.7 2.274 4.5-2.6a.5.5 0 0 1 .519.854l-17.654 11.28 19.223-11.1a.5.5 0 0 1 .518.856l-17.4 11 18.664-10.771a.5.5 0 0 1 .517.856l-19 12.014 20.173-11.652a.5.5 0 0 1 .517.856l-19.415 12.226 20.43-11.8a.5.5 0 0 1 .513.859l-13.413 8.284 13.986-8.074a.5.5 0 0 1 .516.856l-19.724 12.364 20.476-11.821a.5.5 0 0 1 .511.86l-10.195 6.235 10.507-6.063a.5.5 0 0 1 .509.861l-4.249 2.576 4.391-2.537a.5.5 0 0 1 .51.86l-5.472 3.32 5.591-3.227a.5.5 0 0 1 .512.858l-14.167 8.724 14.405-8.316a.5.5 0 0 1 .51.86l-5.136 3.121 5.151-2.974a.5.5 0 0 1 .512.859l-14.674 9.044 14.8-8.542a.5.5 0 0 1 .516.856l-19.52 12.21 19.654-11.353a.5.5 0 0 1 .513.857l-15.75 9.759 15.717-9.07a.5.5 0 0 1 .513.859l-13.893 8.582 13.75-7.938a.5.5 0 0 1 .511.86l-7.075 4.32 6.8-3.925a.5.5 0 0 1 .511.86l-8.321 5.1 7.991-4.613a.5.5 0 0 1 .512.858l-8.426 5.173 8.029-4.634a.5.5 0 0 1 .514.856l-13.93 8.696 13.445-7.762a.5.5 0 0 1 .512.858l-6.026 3.7 5.455-3.149a.5.5 0 0 1 .517.855l-14.069 8.876 13.334-7.7a.5.5 0 0 1 .518.855l-12.289 7.776 11.383-6.571a.5.5 0 0 1 .522.851l-14.541 9.47 13.247-7.648a.5.5 0 0 1 .517.856l-5.81 3.665 4.548-2.625a.5.5 0 0 1 .525.85l-8.981 5.891 7.113-4.106a.5.5 0 0 1 .522.852l-3.468 2.249 1.472-.849a.5.5 0 0 1 .53.846l-3.042 2.06.077-.044a.5.5 0 1 1 .5.865l-12.071 6.97a.5.5 0 0 1 -.53-.847l3.047-2.065-6.187 3.571a.5.5 0 0 1 -.522-.853l3.458-2.243-5.618 3.246a.5.5 0 0 1 -.254.068z" fill="#e3ebf4"/><path d="m26.174 49.449a.5.5 0 0 1 -.279-.915l9.6-6.47-12.115 6.992a.5.5 0 0 1 -.523-.852l10.163-6.645-12.02 6.941a.5.5 0 0 1 -.523-.851l12.853-8.4-14.611 8.436a.5.5 0 0 1 -.522-.853l14.057-9.1-15.548 8.974a.5.5 0 0 1 -.52-.853l14.21-9.1-15.416 8.9a.5.5 0 0 1 -.516-.856l11.136-6.997-11.936 6.893a.5.5 0 0 1 -.52-.853l17.006-10.913-18.04 10.415a.5.5 0 0 1 -.518-.855l16.763-10.687-17.586 10.154a.5.5 0 0 1 -.514-.857l11.5-7.165-11.921 6.882a.5.5 0 0 1 -.519-.854l17.531-11.16-18.117 10.454a.5.5 0 0 1 -.518-.855l16.97-10.77-17.372 10.029a.5.5 0 0 1 -.509-.858l11.8-7.346-11.932 6.884a.5.5 0 0 1 -.519-.855l17.68-11.283-17.874 10.318a.5.5 0 0 1 -.514-.858l9.94-6.173-9.837 5.679a.5.5 0 0 1 -.51-.859l.366-.224-.107.062a.5.5 0 0 1 -.51-.86l1.048-.64-.746.43a.5.5 0 0 1 -.516-.856l11.3-7.088-10.987 6.342a.5.5 0 0 1 -.514-.858l7.608-4.732-7.176 4.143a.5.5 0 0 1 -.521-.852l14.435-9.307-13.873 8.008a.5.5 0 0 1 -.522-.853l12.765-8.25-11.984 6.916a.5.5 0 0 1 -.514-.856l3.314-2.069-2.488 1.437a.5.5 0 0 1 -.522-.851l9.259-6.016-8.075 4.667a.5.5 0 0 1 -.524-.851l6.85-4.476-5.4 3.115a.5.5 0 0 1 -.519-.854l1.25-.8a.5.5 0 0 1 -.31-.916l2-1.325a.5.5 0 0 1 -.51-.855l3.694-2.738a.5.5 0 0 1 -.065-.9l5.684-3.281a.5.5 0 0 1 .548.834l-2.367 1.762 6.74-3.891a.5.5 0 0 1 .526.85l-1.983 1.312 4.112-2.376a.5.5 0 0 1 .519.855l-.279.177 1.712-.988a.5.5 0 0 1 .523.852l-6.849 4.47 8.71-5.029a.5.5 0 0 1 .522.852l-9.258 6.016 10.987-6.342a.5.5 0 0 1 .514.856l-3.301 2.063 4.24-2.448a.5.5 0 0 1 .521.853l-12.773 8.255 14.277-8.242a.5.5 0 0 1 .521.852l-14.432 9.305 15.792-9.117a.5.5 0 0 1 .514.857l-7.612 4.735 8.31-4.8a.5.5 0 0 1 .516.856l-11.294 7.089 12.052-6.958a.5.5 0 0 1 .511.859l-1.049.641 1.363-.786a.5.5 0 0 1 .51.859l-.352.215.6-.349a.5.5 0 0 1 .514.858l-9.962 6.186 10.413-6.012a.5.5 0 0 1 .519.854l-17.674 11.285 18.375-10.61a.5.5 0 0 1 .515.857l-11.778 7.336 12.093-6.981a.5.5 0 0 1 .518.854l-16.975 10.775 17.37-10.029a.5.5 0 0 1 .519.855l-17.537 11.17 17.83-10.294a.5.5 0 0 1 .514.857l-11.485 7.155 11.484-6.63a.5.5 0 0 1 .519.854l-16.765 10.692 16.784-9.69a.5.5 0 0 1 .521.854l-17.008 10.908 16.87-9.739a.5.5 0 0 1 .516.856l-11.14 6.993 10.8-6.233a.5.5 0 0 1 .52.853l-14.209 9.1 13.733-7.929a.5.5 0 0 1 .522.853l-14.053 9.1 13.367-7.716a.5.5 0 0 1 .523.851l-12.856 8.4 11.9-6.873a.5.5 0 0 1 .524.852l-10.16 6.647 8.944-5.165a.5.5 0 0 1 .529.848l-9.595 6.47 7.82-4.515a.5.5 0 0 1 .536.843l-6.862 4.78 4.309-2.488a.5.5 0 0 1 .536.843l-2.693 1.878a.5.5 0 0 1 .12.915l-8.331 4.809a.5.5 0 0 1 -.536-.842l1.277-.892-4.39 2.536a.5.5 0 0 1 -.536-.843l6.865-4.781-10.045 5.8a.494.494 0 0 1 -.25.066z" fill="#295e75"/><path d="m26.32 15.387a.5.5 0 0 1 -.35-.858l.749-.732-1.453.838a.5.5 0 0 1 -.574-.814l.287-.244-.366.211a.5.5 0 0 1 -.584-.8l.713-.64-.45.26a.5.5 0 0 1 -.633-.755l.936-1.112a.5.5 0 0 1 -.231-.932l2.051-1.189a.5.5 0 0 1 .632.755l-.79.938 2.12-1.223a.5.5 0 0 1 .585.8l-.713.64.994-.573a.5.5 0 0 1 .573.813l-.288.246.121-.07a.5.5 0 0 1 .6.79l-.745.729.088-.05a.5.5 0 1 1 .5.865l-3.522 2.039a.493.493 0 0 1 -.25.068z" fill="#e5bf45"/><path d="m12.336 30.447a.5.5 0 0 1 -.4-.8l1.16-1.575-2.778 1.6a.5.5 0 0 1 -.578-.81l.5-.438-.626.361a.5.5 0 0 1 -.583-.806l.676-.605-.416.24a.5.5 0 0 1 -.633-.753l.946-1.132a.5.5 0 0 1 -.241-.932l2.051-1.184a.5.5 0 0 1 .633.753l-.812.972 2.158-1.238a.5.5 0 0 1 .583.8l-.677.606.946-.546a.5.5 0 0 1 .578.809l-.505.439.345-.2a.5.5 0 0 1 .652.729l-1.16 1.576a.5.5 0 0 1 .481.876l-2.05 1.184a.491.491 0 0 1 -.25.074z" fill="#e5bf45"/><path d="m27.336 45.447a.5.5 0 0 1 -.391-.812l.959-1.2-2.404 1.39a.5.5 0 0 1 -.578-.809l.452-.393-.643.37a.5.5 0 0 1 -.583-.8l.742-.663-.575.331a.5.5 0 0 1 -.645-.738l1.08-1.4a.5.5 0 0 1 -.382-.915l2.051-1.184a.5.5 0 0 1 .645.738l-1.055 1.367 2.581-1.49a.5.5 0 0 1 .583.806l-.739.66.932-.538a.5.5 0 0 1 .578.81l-.451.392.209-.12a.5.5 0 0 1 .641.745l-1.022 1.279a.49.49 0 0 1 .5.245.5.5 0 0 1 -.183.682l-2.05 1.184a.491.491 0 0 1 -.252.063z" fill="#e5bf45"/><path d="m42.336 30.447a.5.5 0 0 1 -.4-.8l1.052-1.361-2.575 1.487a.5.5 0 0 1 -.578-.81l.513-.447-.681.392a.5.5 0 0 1 -.6-.791l1.237-1.2-1.025.591a.5.5 0 0 1 -.627-.761l.881-1.012a.5.5 0 0 1 -.174-.926l2.05-1.184a.5.5 0 0 1 .627.761l-.66.758 1.924-1.11a.5.5 0 0 1 .6.791l-1.235 1.2 1.655-.955a.5.5 0 0 1 .579.81l-.512.446.308-.178a.5.5 0 0 1 .646.739l-1.085 1.393a.507.507 0 0 1 .562.234.5.5 0 0 1 -.182.682l-2.05 1.184a.489.489 0 0 1 -.25.067z" fill="#e5bf45"/><path d="m28.433 30.47a.5.5 0 0 1 -.448-.722l.8-1.629-3.854 2.226a.5.5 0 0 1 -.579-.81l1.366-1.187-1.443.833a.5.5 0 0 1 -.563-.824l.5-.4a.5.5 0 0 1 -.55-.806l.942-1.006-.327.188a.5.5 0 0 1 -.67-.7l.3-.46a.5.5 0 0 1 -.076-.9l1.169-.673a.5.5 0 0 1 .669.706l-.081.125 1.439-.83a.5.5 0 0 1 .615.774l-.941 1 2.68-1.547a.5.5 0 0 1 .563.823l-.473.379.254-.146a.5.5 0 0 1 .578.809l-1.363 1.186.785-.453a.5.5 0 0 1 .7.654l-.8 1.63.1-.056a.5.5 0 1 1 .5.865l-1.527.881a.49.49 0 0 1 -.265.07z" fill="#83de92"/><path d="m16.99 20.47a.5.5 0 0 1 -.368-.839l.754-.818-2.567 1.487a.5.5 0 0 1 -.6-.792l2.426-2.343-2.355 1.356a.5.5 0 0 1 -.57-.818l.448-.372a.5.5 0 0 1 -.587-.682l.631-1.463a.5.5 0 0 1 -.369-.919l1.167-.667a.5.5 0 0 1 .709.632l-.618 1.431 3.569-2.063a.5.5 0 0 1 .569.817l-.367.306.8-.463a.5.5 0 0 1 .6.792l-2.426 2.343 1.885-1.088a.5.5 0 0 1 .618.771l-.756.82.138-.08a.5.5 0 1 1 .5.866l-2.982 1.716a.489.489 0 0 1 -.249.07z" fill="#78dbdd"/><path d="m35.556 20.47a.5.5 0 0 1 -.354-.854l1.735-1.737-2.657 1.534a.5.5 0 0 1 -.6-.785l2.272-2.285-1.668.963a.5.5 0 0 1 -.71-.629l.638-1.492a.505.505 0 0 1 -.558-.235.5.5 0 0 1 .183-.682l1.161-.67a.5.5 0 0 1 .71.629l-.625 1.463 3.617-2.09a.5.5 0 0 1 .6.785l-2.273 2.284 2.684-1.549a.5.5 0 0 1 .6.786l-1.736 1.739 1.133-.654a.5.5 0 0 1 .613.777l-.3.319a.5.5 0 0 1 .189.929l-2.397 1.384a.5.5 0 0 1 -.613-.776l.059-.063-1.453.839a.49.49 0 0 1 -.25.07z" fill="#78dbdd"/><path d="m15.249 40.47a.5.5 0 0 1 -.351-.858l1.891-1.85-2.509 1.448a.5.5 0 0 1 -.6-.785l2.074-2.089-1.469.848a.5.5 0 0 1 -.707-.637l.606-1.356a.5.5 0 0 1 -.346-.924l1.162-.667a.5.5 0 0 1 .706.637l-.586 1.313 3.372-1.95a.5.5 0 0 1 .605.785l-2.074 2.089 2.7-1.557a.5.5 0 0 1 .6.79l-1.892 1.853 1.292-.746a.5.5 0 0 1 .707.635l-.61 1.361a.505.505 0 0 1 .53.241.5.5 0 0 1 -.183.683l-1.16.668a.5.5 0 0 1 -.707-.635l.588-1.321-3.388 1.954a.494.494 0 0 1 -.251.07z" fill="#78dbdd"/><path d="m37.953 40.47a.5.5 0 0 1 -.42-.773l.886-1.364-3.484 2.011a.5.5 0 0 1 -.587-.8l1.883-1.72-1.951 1.124a.5.5 0 0 1 -.592-.8l1.636-1.541-1.044.6a.5.5 0 0 1 -.707-.635l.613-1.389a.5.5 0 0 1 -.353-.921l1.161-.67a.5.5 0 0 1 .707.634l-.6 1.35 3.44-1.984a.5.5 0 0 1 .593.8l-1.634 1.541 2.216-1.28a.5.5 0 0 1 .587.8l-1.886 1.722 1.3-.749a.5.5 0 0 1 .67.705l-.887 1.369.216-.124a.5.5 0 0 1 .5.865l-2.016 1.159a.49.49 0 0 1 -.247.07z" fill="#78dbdd"/><g fill="#262626"><path d="m53.984 48.759-5.825-5.826c20.608-27.59-19.414-58.633-41.688-32.805-19.929 24.177 11.569 56.513 36.444 38.012q5.234 5.236 10.47 10.471c2.014 2.079 4.465.173 5.843-1.634 1.912-3.477-3.528-5.757-5.244-8.218zm-46.458-5.621c-15.188-17.408 1.824-46.593 24.536-41.105 43.574 13.661 7.891 73.945-24.536 41.105zm50.125 13.778c-.747.86-1.886 2.25-2.968 1.02-3.609-3.5-7.088-7.143-10.672-10.672a27.236 27.236 0 0 0 3.271-3.235c1.942 3.158 12.535 9.63 10.369 12.887z"/><path d="m24.062 10.12a3.13 3.13 0 0 0 -.559 3.2l-2.811 1.4c-.207-1.992-6.535-1.78-7.276-.278-.008 1.788-1.1 5.343 1.106 6.059l-1.567 3.139c-5.8-1.186-6.125 8.128-.135 6.643l1.789 3.579c-2.066.338-1.555 4.766-.945 6.136 2.021.4 5.121.834 6.848-.542l3.009 1.5c-2.023 6.053 9.039 5.352 6.941-.336l2.823-1.411c.1 1.866 7.179 1.648 7.42-.165-.3-1.646 1.068-5.177-1.363-5.386l1.62-3.239c5.93 1.44 6.232-8.312.154-6.835l-1.659-3.318c2.229-.7.951-3.689 1.268-5.436-.056-1.994-6.616-1.689-7.312-.241l-2.987-1.489c1.714-3.94-4.088-5.855-6.364-2.98zm-4.945 9.337h-.013s.007 0 .03-.013a.1.1 0 0 0 -.017.013zm-4.243-4.911h.01c-.022.014-.045.015-.01 0zm-.139 3.988c.112-1.287-.234-2.787.156-3.987 1.318.009 2.747-.006 4.011.006.791 1.184.311 3.425.247 4.87.032-.047-.043.02-.045.032-1.315-.013-2.632 0-3.948 0 .043.015-.174 0-.051 0-.398-.136-.388-.581-.37-.921zm-2.389 11.036c-2.85.168-3.643-4.545-.812-5.125 2.76-.29 3.842 4.134 1.173 5.06 0 .005-.284.058-.281.055-.049.005-.065.008-.08.01zm1.987.452-.173-.345a3.3 3.3 0 0 0 .007-5.561l1.783-3.567a22.124 22.124 0 0 0 3.562-.111l4.017 4.018a12.25 12.25 0 0 0 -.074 5.29l-3.98 3.98h-3.29q-.927-1.851-1.852-3.704zm14.3-5.683a.631.631 0 0 0 .092.02c1.1 1.165.523 3.785.376 5.3-5.248.529-4.666-.756-4.209-5.322zm-3.717-.034c.051-.067.05-.041 0 0zm-.14.034h.084a.322.322 0 0 1 -.089 0zm-10.223 9.935h.217a1.255 1.255 0 0 1 -.246 0zm1.057 5.452c-1.659-.449-.793-4.069-.715-5.435 5.467-.508 4.58.7 4.2 5.435zm12.127 4.887c-.026.009-.027.011-.027.013-2.965.488-4.161-4.284-1.368-5.259 2.817-.449 4.115 4.186 1.395 5.246zm.7-5.8a4.409 4.409 0 0 0 -4.212 1.1l-3.5-1.75c-.114-1.275.254-2.7-.186-3.9l3.942-3.942a40.8 40.8 0 0 0 4.822-.068l4.217 4.216c-.559 1.223-.088 2.719-.258 4.047l-3.107 1.553a3.191 3.191 0 0 0 -1.718-1.254zm7 .847c-1.419-.85-.618-3.84-.541-5.324 1.271-.016 2.61.02 3.833.021 1.1 1.165.523 3.785.375 5.3zm6.1-15.091c2.68-.45 3.809 3.827 1.269 4.766-2.866.976-4.366-3.851-1.48-4.714.067-.021.152-.035.212-.05zm-1.871-.593.121.241a3.457 3.457 0 0 0 .061 5.736l-1.854 3.707a22.461 22.461 0 0 0 -3.293.091l-4.214-4.214a11.285 11.285 0 0 0 -.019-5.391l3.813-3.813c1.183.155 2.4.028 3.6.067q.892 1.79 1.786 3.578zm-4.942-7.876c.005-.413-.007-.917 0-1.276a.744.744 0 0 1 .163-.422c5.429-.367 4.563.3 4.234 5.2-3.493-.002-4.908.798-4.397-3.502zm-1.845-.548.4.2c.135 1.336-.317 2.877.245 4.112q-1.924 1.916-3.839 3.836a34.629 34.629 0 0 0 -5 .059l-4.138-4.139c.438-1.266.077-2.727.188-4.059l3.148-1.574c1.38 1.876 4.391 1.519 5.905.02zm-3.6-3.358c-.755 5.941-7.5-.243-3.122-2.841 0 0 .119-.052.052-.025a.29.29 0 0 1 .116-.035 2.883 2.883 0 0 1 2.951 2.901z"/><path d="m27.659 44.633h.021z"/><path d="m15.105 19.447a.173.173 0 0 0 .051 0 .142.142 0 0 0 -.051 0z"/><path d="m49.7 27.97a22.58 22.58 0 0 0 -17.029-22.777c-.531-.134-1.711.655-.866.869 18.148 3.938 22.355 30.161 6.209 39.446-32.554 15.017-47.399-34.754-10.745-40.967-19.307-.682-30.706 24.394-16.721 38.083 12.952 14.1 38.752 4.564 39.152-14.654z"/></g></svg>