<svg id="Icons" height="512" viewBox="0 0 60 60" width="512" xmlns="http://www.w3.org/2000/svg"><path d="m30.5 46.463a.5.5 0 0 1 -.336-.87l3.258-2.96-5.595 3.229a.5.5 0 0 1 -.542-.839l4.484-3.22-4.969 2.866a.5.5 0 0 1 -.528-.849l3.36-2.242-3.667 2.116a.5.5 0 0 1 -.528-.848l7.163-4.778-7.664 4.425a.5.5 0 0 1 -.527-.849l10.891-7.224-11.565 6.68a.5.5 0 0 1 -.518-.855l5.972-3.8-6.319 3.642a.5.5 0 0 1 -.521-.853l9.98-6.465-10.524 6.076a.5.5 0 0 1 -.523-.853l11.236-7.287-11.834 6.832a.5.5 0 0 1 -.524-.851l13.25-8.65-13.962 8.064a.5.5 0 0 1 -.522-.852l13.868-9.013-14.585 8.42a.5.5 0 0 1 -.515-.856l6.437-4.019-6.757 3.9a.5.5 0 0 1 -.515-.858l6.495-4.045-6.812 3.933a.5.5 0 0 1 -.52-.854l13.855-8.848-14.484 8.36a.5.5 0 0 1 -.514-.857l6.365-3.943-6.667 3.849a.5.5 0 0 1 -.514-.857l7.523-4.66-7.855 4.535a.5.5 0 0 1 -.514-.858l9.865-6.138-10.268 5.922a.5.5 0 0 1 -.515-.856l11.812-7.405-12.3 7.1a.5.5 0 0 1 -.511-.858l2.577-1.584-2.6 1.5a.5.5 0 0 1 -.519-.854l12.532-8.022-12.01 6.933a.5.5 0 0 1 -.524-.85l12.419-8.134-11.895 6.869a.5.5 0 0 1 -.516-.855l3.27-2.063-2.754 1.588a.5.5 0 0 1 -.528-.849l8.918-5.96-8.39 4.839a.5.5 0 0 1 -.525-.849l4.878-3.219-4.353 2.517a.5.5 0 0 1 -.528-.848l3.754-2.513-3.226 1.862a.5.5 0 0 1 -.531-.85l2.491-1.691-1.96 1.131a.5.5 0 0 1 -.564-.821l4.933-4-4.369 2.527a.5.5 0 0 1 -.578-.811l2.62-2.275-2.042 1.178a.5.5 0 0 1 -.6-.786l1.091-1.09-.488.282a.5.5 0 0 1 -.547-.031.5.5 0 0 1 -.19-.513l.3-1.318a.488.488 0 0 1 -.247-.214.5.5 0 0 1 .182-.682l.5-.289a.5.5 0 0 1 .738.544l-.246 1.059 2.79-1.6a.5.5 0 0 1 .6.786l-1.085 1.083 3.251-1.877a.5.5 0 0 1 .578.81l-2.62 2.276 5.349-3.088a.5.5 0 0 1 .564.821l-4.934 4 8.356-4.824a.5.5 0 0 1 .531.847l-2.493 1.691 4.4-2.54a.5.5 0 0 1 .528.848l-3.739 2.505 5.811-3.356a.5.5 0 0 1 .526.85l-4.886 3.223 7.059-4.075a.5.5 0 0 1 .529.849l-8.915 5.959 11.8-6.811a.5.5 0 0 1 .516.856l-3.289 2.072 5.073-2.929a.5.5 0 0 1 .525.851l-12.419 8.133 15.565-8.987a.5.5 0 0 1 .52.854l-12.528 8.017 15.37-8.874a.5.5 0 0 1 .512.859l-2.575 1.582 4.231-2.443a.5.5 0 0 1 .516.857l-11.823 7.416 12.754-7.363a.5.5 0 0 1 .514.857l-9.862 6.138 9.348-5.4a.5.5 0 0 1 .513.858l-7.514 4.661 7-4.042a.5.5 0 0 1 .513.857l-6.363 3.942 5.85-3.377a.5.5 0 0 1 .519.854l-13.852 8.848 13.336-7.7a.5.5 0 0 1 .514.857l-6.489 4.042 5.976-3.45a.5.5 0 0 1 .514.856l-6.438 4.021 5.928-3.422a.5.5 0 0 1 .522.851l-13.871 9.016 13.346-7.705a.5.5 0 0 1 .523.852l-13.248 8.65 12.73-7.349a.5.5 0 0 1 .522.853l-11.232 7.282 10.706-6.181a.5.5 0 0 1 .521.853l-9.986 6.47 9.466-5.465a.5.5 0 0 1 .518.854l-5.974 3.8 5.457-3.149a.5.5 0 0 1 .526.849l-10.891 7.227 7.12-4.11a.5.5 0 0 1 .528.848l-7.16 4.776 3.589-2.073a.5.5 0 0 1 .528.849l-3.354 2.238.359-.206a.5.5 0 0 1 .542.839l-4.483 3.221.918-.531a.5.5 0 0 1 .586.8l-3.918 3.563a.491.491 0 0 1 .25.216.5.5 0 0 1 -.182.682l-2.94 1.7a.5.5 0 0 1 -.246.065z" fill="#184759"/><g fill="#295e75"><path d="m30.433 11.466a.5.5 0 0 1 -.282-.913l1.554-1.06-3.266 1.885a.5.5 0 0 1 -.546-.835l5.115-3.772-7.718 4.457a.5.5 0 0 1 -.534-.845l3.093-2.131-4.809 2.776a.5.5 0 0 1 -.538-.841l4.145-2.92-5.982 3.454a.5.5 0 0 1 -.534-.844l3.156-2.184-4.626 2.671a.5.5 0 0 1 -.539-.841l3.772-2.672-5.259 3.036a.5.5 0 0 1 -.529-.848l.223-.149-1.029.594a.5.5 0 0 1 -.539-.84l2.313-1.636-3.274 1.892a.5.5 0 0 1 -.553-.83l3.034-2.31-3.967 2.286a.5.5 0 0 1 -.552-.83l1.355-1.034-1.642.948a.5.5 0 0 1 -.607-.783l1.032-1.047-.218.126a.5.5 0 1 1 -.5-.865l3.418-1.978a.5.5 0 0 1 .606.783l-1.035 1.053 5.215-3.01a.5.5 0 0 1 .552.83l-1.353 1.032 3.989-2.3a.5.5 0 0 1 .553.83l-3.034 2.31 5.907-3.411a.5.5 0 0 1 .539.841l-2.308 1.631 4.441-2.564a.5.5 0 0 1 .528.848l-.226.152 1.734-1a.5.5 0 0 1 .539.841l-3.772 2.672 5.936-3.427a.5.5 0 0 1 .534.844l-3.154 2.182 4.967-2.867a.5.5 0 0 1 .538.841l-4.147 2.92 6.051-3.495a.5.5 0 0 1 .534.845l-3.092 2.13 4.61-2.661a.5.5 0 0 1 .547.835l-5.112 3.771 7.071-4.082a.5.5 0 0 1 .531.846l-1.55 1.057 2.561-1.475a.5.5 0 0 1 .533.844l-1.25.859 2.1-1.212a.5.5 0 0 1 .551.832l-3.25 2.444 4.3-2.481a.5.5 0 0 1 .574.814l-2.899 2.445 3.566-2.059a.5.5 0 0 1 .607.783l-1.032 1.046.216-.125a.5.5 0 1 1 .5.865l-3.416 1.977a.5.5 0 0 1 -.606-.783l1.035-1.05-5.209 3.007a.5.5 0 0 1 -.573-.815l2.891-2.445-6.6 3.809a.5.5 0 0 1 -.551-.832l3.253-2.445-6.04 3.485a.5.5 0 0 1 -.533-.845l1.249-.857-3.033 1.754a.5.5 0 0 1 -.25.066z"/><path d="m48.806 19.265a.5.5 0 0 1 -.25-.933l.164-.1a.5.5 0 0 1 .5.866l-.164.094a.5.5 0 0 1 -.25.073z"/><path d="m29.56 34.465a.5.5 0 0 1 -.282-.913l8.35-5.692-11.154 6.44a.5.5 0 0 1 -.536-.844l8.141-5.638-10.8 6.234a.5.5 0 0 1 -.525-.85l3.34-2.202-4.858 2.8a.5.5 0 0 1 -.523-.852l1.224-.8-2.393 1.381a.5.5 0 0 1 -.529-.847l3.218-2.169-4.561 2.632a.5.5 0 0 1 -.538-.841l4.639-3.263-6.143 3.55a.5.5 0 0 1 -.542-.839l4.612-3.318-5.959 3.44a.5.5 0 0 1 -.536-.843l2.713-1.894-3.474 2a.5.5 0 0 1 -.534-.844l1.448-1-1.772 1.023a.5.5 0 0 1 -.538-.84l1.478-1.045-1.247.719a.5.5 0 0 1 -.66-.147.5.5 0 0 1 .092-.671l3.4-2.814-2.831 1.637a.5.5 0 0 1 -.6-.787l2.534-2.515-1.934 1.115a.5.5 0 0 1 -.6-.785l.922-.928-.317.182a.5.5 0 0 1 -.642-.743l.519-.658a.5.5 0 0 1 -.445-.1.5.5 0 0 1 -.154-.548l.358-1.038a.507.507 0 0 1 -.385-.522l.07-1.014a.446.446 0 0 1 .18-.579l.085-.049a.508.508 0 0 1 .514.01.5.5 0 0 1 .234.458l-.021.316a.5.5 0 0 1 .638.634l-.291.844.948-.547a.5.5 0 0 1 .642.743l-.49.62 1.3-.747a.5.5 0 0 1 .6.785l-.921.928 2.026-1.17a.5.5 0 0 1 .6.787l-2.535 2.516 4.654-2.686a.5.5 0 0 1 .569.818l-3.4 2.815 5.562-3.21a.5.5 0 0 1 .538.84l-1.476 1.043 2.895-1.671a.5.5 0 0 1 .534.844l-1.455 1.007 2.94-1.7a.5.5 0 0 1 .536.843l-2.712 1.894 4.554-2.63a.5.5 0 0 1 .542.839l-4.615 3.32 7.18-4.145a.5.5 0 0 1 .538.842l-4.641 3.262 7.327-4.229a.5.5 0 0 1 .53.848l-3.215 2.167 5.671-3.274a.5.5 0 0 1 .523.852l-1.226.8 3.554-2.052a.5.5 0 0 1 .526.849l-3.348 2.21 6.911-3.989a.5.5 0 0 1 .535.844l-8.136 5.635 12.21-7.049a.5.5 0 0 1 .531.845l-8.354 5.7 7.823-4.516a.5.5 0 0 1 .524.851l-2.634 1.729 2.11-1.218a.5.5 0 0 1 .544.837l-5.542 4.034 5-2.886a.5.5 0 0 1 .567.819l-3.869 3.171 3.3-1.905a.5.5 0 0 1 .6.787l-1.08 1.074.074-.043a.5.5 0 1 1 .5.865l-3.414 1.973a.5.5 0 0 1 -.6-.787l1.083-1.074-5.26 3.034a.5.5 0 0 1 -.567-.819l3.868-3.171-7.91 4.566a.5.5 0 0 1 -.544-.837l5.545-4.035-8.8 5.079a.5.5 0 0 1 -.525-.851l2.635-1.733-4.515 2.611a.5.5 0 0 1 -.25.065z"/></g><path d="m14.558 59.47a.5.5 0 0 1 -.3-.9l6.264-4.626-9.222 5.325a.5.5 0 0 1 -.532-.846l6-4.095-8.053 4.65a.5.5 0 0 1 -.529-.848l7.427-5-9.328 5.385a.5.5 0 0 1 -.529-.848l9.733-6.54-11.549 6.673a.5.5 0 0 1 -.528-.849l11.7-7.83-13.126 7.579a.5.5 0 0 1 -.526-.849l12.662-8.391-12.842 7.414a.5.5 0 0 1 -.52-.853l9.8-6.322-9.28 5.361a.5.5 0 0 1 -.518-.855l7.454-4.745-6.936 4a.5.5 0 0 1 -.521-.853l10.463-6.773-9.942 5.743a.5.5 0 0 1 -.514-.857l1.505-.937-.991.571a.5.5 0 0 1 -.518-.854l7.6-4.839-7.082 4.086a.5.5 0 0 1 -.526-.85l11.108-7.361-10.582 6.109a.5.5 0 0 1 -.532-.845l9.992-6.84-9.46 5.461a.5.5 0 0 1 -.532-.846l6.638-4.534-6.106 3.524a.5.5 0 0 1 -.669-.159.5.5 0 0 1 .123-.677l6.408-4.7-5.862 3.388a.5.5 0 0 1 -.534-.845l1.254-.863-.72.415a.5.5 0 0 1 -.573-.814l3.627-3.072-3.054 1.762a.5.5 0 0 1 -.619-.771l1.97-2.153-1.351.779a.5.5 0 0 1 -.739-.535l.32-1.532a.5.5 0 0 1 -.081-.9l.5-.289a.5.5 0 0 1 .74.535l-.272 1.3 3.186-1.839a.5.5 0 0 1 .619.77l-1.97 2.154 5.072-2.928a.5.5 0 0 1 .573.814l-3.628 3.07 6.738-3.89a.5.5 0 0 1 .534.845l-1.251.861 2.961-1.709a.5.5 0 0 1 .546.836l-6.406 4.7 9.587-5.535a.5.5 0 0 1 .533.846l-6.638 4.534 9.326-5.384a.5.5 0 0 1 .532.846l-9.992 6.839 13.322-7.694a.5.5 0 0 1 .526.85l-11.1 7.359 12.902-7.451a.5.5 0 0 1 .518.855l-7.6 4.838 7.078-4.085a.5.5 0 0 1 .514.857l-1.505.936.991-.571a.5.5 0 0 1 .521.853l-10.459 6.773 9.942-5.739a.5.5 0 0 1 .518.854l-7.454 4.746 6.936-4a.5.5 0 0 1 .52.852l-9.8 6.322 9.285-5.36a.5.5 0 0 1 .526.85l-12.671 8.384 12.14-7.007a.5.5 0 0 1 .528.848l-11.7 7.829 11.172-6.451a.5.5 0 0 1 .529.848l-9.732 6.54 9.2-5.314a.5.5 0 0 1 .529.848l-7.421 4.992 6.892-3.978a.5.5 0 0 1 .532.845l-6 4.1 5.472-3.158a.5.5 0 0 1 .547.835l-6.262 4.624 5.715-3.3a.5.5 0 0 1 .545.836l-2.993 2.19 2.448-1.412a.5.5 0 0 1 .555.828l-1.486 1.147.93-.536a.5.5 0 0 1 .6.789l-.723.711a.49.49 0 0 1 .494.246.5.5 0 0 1 -.183.682l-3.1 1.792a.5.5 0 0 1 -.6-.789l.611-.6-3.968 2.291a.5.5 0 0 1 -.556-.828l1.485-1.148-3.991 2.3a.5.5 0 0 1 -.545-.836l2.989-2.19-5.425 3.133a.5.5 0 0 1 -.25.07z" fill="#326f84"/><path d="m14.591 34.469a.5.5 0 0 1 -.288-.909l.443-.312-1.924 1.11a.5.5 0 0 1 -.556-.827l3.543-2.75-5.827 3.364a.5.5 0 0 1 -.554-.83l3.6-2.764-5.566 3.215a.5.5 0 0 1 -.534-.844l.313-.217-1.271.733a.5.5 0 0 1 -.556-.828l3.107-2.395-4.513 2.605a.5.5 0 0 1 -.558-.826l2.41-1.886-3.381 1.953a.5.5 0 0 1 -.567-.82l1.58-1.293-2.009 1.159a.5.5 0 0 1 -.608-.781l.712-.732a.5.5 0 0 1 -.495-.869l3.1-1.792a.5.5 0 0 1 .609.781l-.711.732 4.229-2.441a.5.5 0 0 1 .567.819l-1.575 1.292 4.217-2.434a.5.5 0 0 1 .558.826l-2.408 1.884 4.835-2.792a.5.5 0 0 1 .555.828l-3.108 2.4 5.4-3.117a.5.5 0 0 1 .535.844l-.316.218 1.56-.9a.5.5 0 0 1 .554.829l-3.605 2.767 5.56-3.21a.5.5 0 0 1 .557.827l-3.541 2.748 5.241-3.025a.5.5 0 0 1 .538.841l-.443.309 1.206-.7a.5.5 0 0 1 .583.8l-3.183 2.839 4.449-2.567a.5.5 0 0 1 .626.763l-1.618 1.841 1.554-.9a.5.5 0 1 1 .5.865l-4.18 2.414a.5.5 0 0 1 -.626-.763l1.618-1.842-6.034 3.483a.5.5 0 0 1 -.583-.806l3.182-2.838-6.653 3.852a.5.5 0 0 1 -.25.069z" fill="#418699"/><path d="m27.79 39.254a.5.5 0 0 1 -.25-.934l.18-.1a.5.5 0 0 1 .5.867l-.18.1a.514.514 0 0 1 -.25.067z" fill="#418699"/><path d="m12.933 51.44a.5.5 0 0 1 -.283-.913l4.113-2.807-6.057 3.5a.5.5 0 0 1 -.528-.848l5.278-3.546-7.1 4.1a.5.5 0 0 1 -.542-.839l4.218-3.034-5.932 3.42a.5.5 0 0 1 -.558-.827l4.672-3.655-6.457 3.729a.5.5 0 0 1 -.541-.839l1.884-1.347-2.63 1.518a.5.5 0 0 1 -.547-.835l1.864-1.372-2.271 1.31a.5.5 0 0 1 -.543-.838l.386-.279-.074.042a.5.5 0 0 1 -.594-.8l2.593-2.472-2 1.155a.5.5 0 0 1 -.584-.807l.359-.309a.507.507 0 0 1 -.424-.188.5.5 0 0 1 .025-.652l.481-.517a.5.5 0 0 1 -.585-.654l.472-1.328a.636.636 0 0 1 -.265-.075.5.5 0 0 1 -.236-.457l.07-1.07a.5.5 0 0 1 .181-.683l.091-.053a.5.5 0 0 1 .75.465l-.031.477.087-.049a.5.5 0 0 1 .72.6l-.438 1.232 1.526-.881a.5.5 0 0 1 .617.773l-.432.463 1.3-.748a.5.5 0 0 1 .576.812l-.151.13 1.016-.586a.5.5 0 0 1 .591.79l-2.593 2.472 4.863-2.807a.5.5 0 0 1 .542.838l-.392.285 1.651-.954a.5.5 0 0 1 .547.835l-1.857 1.368 3.635-2.1a.5.5 0 0 1 .541.839l-1.879 1.347 3.825-2.208a.5.5 0 0 1 .557.827l-4.672 3.655 8.411-4.856a.5.5 0 0 1 .542.839l-4.221 3.035 11.22-6.475a.5.5 0 0 1 .528.848l-5.281 3.546 4.753-2.743a.5.5 0 0 1 .532.846l-4.105 2.8 3.573-2.063a.5.5 0 0 1 .553.83l-5.173 3.957 4.621-2.668a.5.5 0 0 1 .555.829l-2.219 1.715 1.664-.961a.5.5 0 0 1 .616.773l-1.154 1.244.226-.131a.5.5 0 1 1 .5.865l-3.1 1.792a.5.5 0 0 1 -.617-.772l1.156-1.244-5.236 3.019a.5.5 0 0 1 -.555-.828l2.219-1.715-4.889 2.823a.5.5 0 0 1 -.554-.83l5.172-3.953-8.322 4.806a.494.494 0 0 1 -.25.067z" fill="#418699"/><path d="m44.492 59.457a.5.5 0 0 1 -.278-.916l1.91-1.277-3.511 2.026a.5.5 0 0 1 -.541-.84l8.221-5.875-10.981 6.34a.5.5 0 0 1 -.527-.85l6.407-4.246-8.069 4.659a.5.5 0 0 1 -.525-.85l7.982-5.262-9.5 5.483a.5.5 0 0 1 -.52-.854l6.1-3.912-7.04 4.066a.5.5 0 0 1 -.515-.857l.261-.162-.607.35a.5.5 0 0 1 -.514-.857l.56-.349-.509.294a.5.5 0 0 1 -.525-.85l12.681-8.349-12.172 7.031a.5.5 0 0 1 -.517-.854l6.49-4.113-5.973 3.443a.5.5 0 0 1 -.517-.855l6.774-4.3-6.257 3.613a.5.5 0 0 1 -.526-.85l13.252-8.767-12.726 7.346a.5.5 0 0 1 -.522-.852l10.7-6.937-10.178 5.875a.5.5 0 0 1 -.529-.846l11.438-7.718-10.909 6.3a.5.5 0 0 1 -.535-.843l9.586-6.671-9.051 5.229a.5.5 0 0 1 -.538-.842l6.769-4.769-6.231 3.6a.5.5 0 0 1 -.53-.847l1.97-1.342-1.44.831a.5.5 0 0 1 -.552-.83l3.953-3.007-3.4 1.962a.5.5 0 0 1 -.552-.831l1.482-1.125-.931.538a.5.5 0 0 1 -.624-.765l1.924-2.173-1.3.75a.5.5 0 0 1 -.738-.54l.312-1.424a.486.486 0 0 1 -.256-.218.5.5 0 0 1 .182-.682l.5-.289a.5.5 0 0 1 .739.54l-.259 1.181 2.989-1.725a.5.5 0 0 1 .624.764l-1.925 2.169 5.09-2.937a.5.5 0 0 1 .553.831l-1.481 1.126 3.4-1.96a.5.5 0 0 1 .553.83l-3.963 3.009 6.657-3.843a.5.5 0 0 1 .53.847l-1.975 1.338 3.788-2.187a.5.5 0 0 1 .539.842l-6.768 4.767 9.729-5.613a.5.5 0 0 1 .535.843l-9.585 6.669 13.019-7.517a.5.5 0 0 1 .53.847l-11.435 7.716 14.556-8.405a.5.5 0 0 1 .522.853l-10.707 6.942 10.185-5.879a.5.5 0 0 1 .526.849l-13.252 8.768 12.726-7.347a.5.5 0 0 1 .517.855l-6.774 4.3 6.257-3.612a.5.5 0 0 1 .517.855l-6.49 4.113 5.973-3.447a.5.5 0 0 1 .525.85l-12.68 8.348 12.155-7.019a.5.5 0 0 1 .513.858l-.567.352.054-.03a.5.5 0 0 1 .514.857l-.437.273a.5.5 0 0 1 .442.889l-6.093 3.909 5.574-3.218a.5.5 0 0 1 .525.849l-7.986 5.265 7.461-4.308a.5.5 0 0 1 .526.85l-6.408 4.247 5.882-3.4a.5.5 0 0 1 .541.84l-8.221 5.88 7.68-4.434a.5.5 0 0 1 .528.849l-1.9 1.273 1.376-.794a.5.5 0 0 1 .54.84l-3.226 2.3 2.686-1.55a.5.5 0 0 1 .552.831l-2.254 1.714 1.7-.98a.5.5 0 0 1 .639.12.5.5 0 0 1 -.019.65l-1.423 1.562.548-.316a.5.5 0 0 1 .5.865l-3.333 1.925a.5.5 0 0 1 -.62-.769l1.424-1.564-5.784 3.339a.5.5 0 0 1 -.554-.832l2.25-1.708-4.807 2.774a.5.5 0 0 1 -.54-.84l3.22-2.3-5.481 3.164a.494.494 0 0 1 -.25.067z" fill="#326f84"/><path d="m47.388 34.427a.5.5 0 0 1 -.327-.878l3.767-3.261-7.048 4.068a.5.5 0 0 1 -.535-.842l.349-.243-1.673.965a.5.5 0 0 1 -.564-.822l4.194-3.375-6.613 3.817a.5.5 0 0 1 -.552-.831l3.307-2.512-4.958 2.862a.5.5 0 0 1 -.566-.82l3.661-2.99-5.3 3.057a.5.5 0 0 1 -.581-.808l2.974-2.624-4.093 2.363a.5.5 0 0 1 -.648-.736l1.352-1.773-.947.546a.5.5 0 1 1 -.5-.865l3.1-1.792a.5.5 0 0 1 .648.735l-1.351 1.773 6.262-3.614a.5.5 0 0 1 .581.808l-2.972 2.622 6.335-3.657a.5.5 0 0 1 .567.821l-3.657 2.994 6.457-3.727a.5.5 0 0 1 .552.831l-3.309 2.512 5.362-3.095a.5.5 0 0 1 .564.822l-4.194 3.375 6.423-3.708a.5.5 0 0 1 .535.843l-.349.243 1.239-.715a.5.5 0 0 1 .577.81l-3.767 3.261 5.462-3.153a.5.5 0 0 1 .583.806l-2.458 2.19 3.219-1.858a.5.5 0 0 1 .612.777l-.8.84.1-.059a.5.5 0 1 1 .5.865l-3.1 1.792a.5.5 0 0 1 -.613-.777l.8-.839-4.44 2.565a.5.5 0 0 1 -.583-.806l2.459-2.191-5.787 3.34a.49.49 0 0 1 -.256.068z" fill="#418699"/><path d="m58.79 39.254a.5.5 0 0 1 -.25-.934l.18-.1a.5.5 0 0 1 .5.867l-.18.1a.514.514 0 0 1 -.25.067z" fill="#418699"/><path d="m45.208 51.466a.5.5 0 0 1 -.3-.9l6.444-4.735-9.377 5.414a.5.5 0 0 1 -.528-.848l4.07-2.707-5.723 3.3a.5.5 0 0 1 -.552-.831l5.369-4.059-7.55 4.359a.5.5 0 0 1 -.548-.834l3.888-2.89-5.358 3.094a.5.5 0 0 1 -.56-.825l3.917-3.075-5.154 2.971a.5.5 0 0 1 -.562-.823l3.166-2.537-3.55 2.051a.5.5 0 0 1 -.59-.8l2.941-2.721-2.371 1.368a.5.5 0 0 1 -.611-.779l1.541-1.612-.93.536a.5.5 0 0 1 -.612-.776l.376-.4a.587.587 0 0 1 -.372-.151.5.5 0 0 1 -.068-.611l.381-.621a.477.477 0 0 1 -.214-.071.5.5 0 0 1 -.24-.45l.074-1.59-.005-.013a.5.5 0 0 1 .181-.683l.091-.053a.5.5 0 0 1 .75.456l-.048 1.016.521-.3a.5.5 0 0 1 .608.084.5.5 0 0 1 .068.61l-.281.457.9-.516a.5.5 0 0 1 .612.776l-.231.244.968-.558a.5.5 0 0 1 .612.778l-1.551 1.616 3.214-1.855a.5.5 0 0 1 .589.8l-2.941 2.722 5.367-3.1a.5.5 0 0 1 .563.823l-3.164 2.536 5.5-3.177a.5.5 0 0 1 .559.825l-3.913 3.08 6.826-3.937a.5.5 0 0 1 .548.834l-3.888 2.889 7.04-4.067a.5.5 0 0 1 .551.831l-5.364 4.056 12.433-7.175a.5.5 0 0 1 .527.849l-4.077 2.711 3.55-2.049a.5.5 0 0 1 .546.836l-6.445 4.734 5.9-3.405a.5.5 0 0 1 .555.829l-4.207 3.241 3.652-2.107a.5.5 0 0 1 .57.816l-2.02 1.687 1.45-.837a.5.5 0 0 1 .5.865l-6.477 3.739a.5.5 0 0 1 -.57-.816l2.019-1.686-5.125 2.959a.5.5 0 0 1 -.555-.829l4.21-3.244-7.265 4.195a.493.493 0 0 1 -.25.066z" fill="#418699"/><path d="m4.684 58.329c7.157 1.671 15.323 1.924 22.138-1.121 3.617-2.038 1.286-7.31 1.909-10.745.848.012 1.7.016 2.545 0 .351 3.172-.767 6.88.487 9.81 7.331 4.45 18.4 4 26.173.67 3.894-2.571.884-14.215 1.8-18.991.537-9.633.162-11.249-10-12.149-.006-6.623.011-13.252-.006-19.873-4.342-6.92-17.776-5.1-25.142-5.212-20.909 1.114-12.827 9.169-14.312 24.928-3.389.641-8.7.754-10.007 4.421v22.239c-.794 3.24 1.261 5.541 4.415 6.023zm-2.953-13.658v-4.524a33.2 33.2 0 0 0 25.538-.19c-.184 3.908 1.471 9.5-4.115 9.79-5.168.927-22.207 3.013-21.423-5.076zm25.538-6.586c-4.309 5.164-15.579 3.524-21.725 2.353-4.716-.412-3.844-4.848-3.813-8.338a32.636 32.636 0 0 0 25.538-.148zm0 16.98c-4.147 4.87-13.162 3.345-19.063 2.948-6.573-.718-6.924-2.884-6.475-8.9a33.737 33.737 0 0 0 25.538-.259c-.076 2.053.179 4.165 0 6.211zm3.813-9.565c-.838.013-1.541 0-2.351-.014v-11.133c.848.011 1.7.018 2.545 0q0 5.574 0 11.147zm27.194-2.809c1.956 8.389-7.462 7.581-13.21 7.864-8.945-.876-13.61.435-12.342-10.4a32.722 32.722 0 0 0 25.552-.115zm0-4.68c-4.3 5.051-15.322 3.5-21.429 2.444-5.286-.554-4.053-4.446-4.123-8.414a33.04 33.04 0 0 0 25.552-.217zm0 17.177c-4.251 5.153-13.776 3.412-19.868 2.812-6.119-.671-6.007-3.637-5.684-8.867a33.294 33.294 0 0 0 25.552-.21c-.076 2.077.175 4.203 0 6.268zm-2.926-27.4c7.692 2.94-2.173 5.741-5.643 5.668-2.94.886-22.954-.485-14.906-5.536 4.12-1.722 9.186-1.769 13.573-1.437 2.177.349 4.788.383 6.976 1.306zm-43.626-19.488v-.1a48.549 48.549 0 0 0 36.54-.095v10.16c-5.964 4.042-13.582 3.972-19.217 4.408-5.253-.631-12.35-1.485-17.323-4.866zm2.776-4.682c8.176-2.5 27.972-4.365 33.769 2.48-.634 7.02-47.415 5.032-33.769-2.48zm-2.776 16.569c11.23 4.485 25.407 4.635 36.54-.271v5.772c-5.954.008-18.529-.92-16.988 7.9-.849.011-1.7.018-2.545 0 1.706-9.185-10.877-7.835-17.007-8.062zm-7.889 7.857c6.211-2.014 18.958-3.263 23.424 2.075-.759 5.509-33.17 3.881-23.424-2.075z" fill="#262626"/></svg>