<svg id="Capa_1" enable-background="new 0 0 187.883 187.883" height="512" viewBox="0 0 187.883 187.883" width="512" xmlns="http://www.w3.org/2000/svg"><path d="m67.122 185.688c-.863 0-1.563-.699-1.563-1.562 0-.543.282-1.048.745-1.332l22.502-13.848-28.631 16.52c-.766.398-1.709.101-2.108-.665-.368-.707-.145-1.577.517-2.02l9.626-5.86-14.804 8.544c-.765.399-1.709.101-2.108-.664-.366-.703-.148-1.569.508-2.014l45.207-27.977-53.13 30.665c-.755.418-1.706.144-2.124-.611-.399-.722-.169-1.629.527-2.073l33.615-20.53-40.191 23.205c-.756.416-1.706.141-2.123-.615-.395-.717-.17-1.617.516-2.063l71.281-44.419-81.594 47.097c-.758.412-1.707.132-2.119-.626-.391-.72-.161-1.619.529-2.062l33.003-19.983-39.066 22.555c-.763.402-1.709.11-2.111-.654-.373-.708-.151-1.583.514-2.028l68.384-41.916-73.36 42.354c-.744.438-1.702.191-2.141-.553-.438-.744-.191-1.702.553-2.141l19.064-11.435-20.042 11.564c-.752.424-1.705.158-2.128-.594-.408-.725-.177-1.642.525-2.087l85.992-52.989-86.636 50.003c-.744.438-1.702.191-2.141-.553s-.191-1.702.553-2.141l37.566-22.633-36.287 20.952c-.763.402-1.709.11-2.111-.654-.373-.708-.151-1.583.514-2.028l83.282-51.158-81.685 47.161c-.75.427-1.704.166-2.131-.584-.417-.732-.179-1.662.537-2.104l72.913-44.523-71.319 41.17c-.758.412-1.707.132-2.119-.626-.391-.719-.161-1.619.529-2.062l49.007-29.631-47.417 27.372c-.777.376-1.711.052-2.088-.725-.333-.688-.12-1.515.503-1.957l20.224-12.132-18.639 10.751c-.763.402-1.709.11-2.111-.654-.373-.708-.151-1.583.514-2.028l81.57-50.045-79.973 46.164c-.777.376-1.711.052-2.088-.725-.333-.688-.12-1.515.503-1.957l11.835-7.094-10.251 5.913c-.754.42-1.706.149-2.126-.605-.405-.728-.169-1.645.538-2.086l30.731-18.48-29.142 16.827c-.745.438-1.703.188-2.141-.556s-.188-1.703.556-2.141l2.072-1.231-.488.278c-.746.439-1.706.191-2.145-.555s-.191-1.706.555-2.145l47.595-28.753-46.004 26.565c-.766.398-1.709.101-2.108-.665-.368-.707-.145-1.577.517-2.02l66.99-40.813-65.399 37.757c-.758.412-1.707.132-2.119-.626-.391-.72-.161-1.619.529-2.062l44.266-26.737-42.676 24.637c-.761.408-1.708.121-2.115-.64-.384-.718-.153-1.61.531-2.051l5.772-3.457-4.188 2.419c-.744.438-1.702.191-2.141-.553-.438-.744-.191-1.702.553-2.141l18.949-11.376-17.361 10.023c-.741.442-1.701.199-2.142-.542-.442-.741-.199-1.701.542-2.142l74.147-45.698-72.547 41.885c-.755.418-1.706.144-2.124-.611-.399-.722-.168-1.629.527-2.073l62.212-38.303-60.615 34.995c-.748.431-1.703.175-2.134-.573-.42-.729-.188-1.659.525-2.105l70.572-44.207-68.963 39.813c-.743.439-1.702.193-2.141-.55s-.193-1.702.55-2.141l1.931-1.163-.344.197c-.758.412-1.707.132-2.119-.626-.391-.72-.161-1.619.529-2.062l11.032-6.7-9.438 5.447c-.758.412-1.707.132-2.119-.626-.391-.72-.161-1.619.529-2.062l2.4-1.456-.809.466c-.755.418-1.706.144-2.124-.612-.399-.722-.168-1.629.527-2.073l18.298-11.232-16.705 9.642c-.748.431-1.703.175-2.134-.573-.42-.729-.188-1.659.525-2.105l35.34-22.162-33.731 19.474c-.753.421-1.705.152-2.126-.602-.4-.715-.179-1.617.504-2.067l38.772-24.768-37.15 21.449c-.747.433-1.703.179-2.136-.568-.415-.716-.2-1.633.492-2.088l42.288-27.977-40.629 23.466c-.734.455-1.697.229-2.152-.505s-.229-1.697.505-2.152l32.815-21.83-31.183 17.996c-.752.423-1.705.156-2.128-.596-.394-.701-.192-1.588.468-2.048l27.574-18.752-25.914 14.964c-.731.46-1.696.24-2.156-.491s-.24-1.696.491-2.156l20.002-13.751-18.337 10.588c-.751.426-1.704.163-2.13-.588-.395-.696-.2-1.579.452-2.043l14.323-10.051-12.645 7.301c-.754.419-1.706.148-2.125-.606-.388-.697-.188-1.574.462-2.035l3.078-2.113-1.416.819c-.751.425-1.705.16-2.129-.592-.377-.668-.214-1.511.385-1.99l9.582-7.529-7.838 4.525c-.755.417-1.706.143-2.124-.612-.361-.653-.21-1.47.361-1.951l3.632-2.935-1.628.938c-.749.429-1.704.169-2.132-.58-.34-.594-.254-1.341.214-1.842l3.563-3.791c-.849-.155-1.411-.97-1.254-1.819.083-.451.36-.842.757-1.071l7.216-4.172c.749-.429 1.704-.169 2.132.58.34.594.254 1.341-.214 1.842l-2.672 2.85 9.754-5.625c.749-.429 1.704-.17 2.133.578.38.663.225 1.504-.367 1.987l-3.638 2.941 9.539-5.506c.748-.431 1.703-.174 2.134.574.387.672.222 1.527-.387 2.007l-9.582 7.516 17.507-10.097c.754-.419 1.706-.148 2.125.606.388.697.188 1.574-.462 2.035l-3.1 2.11 8.257-4.75c.751-.426 1.704-.163 2.13.588.395.696.2 1.579-.452 2.043l-14.311 10.041 21.952-12.673c.749-.428 1.704-.168 2.132.581.402.704.2 1.598-.466 2.06l-20.002 13.751 28.403-16.392c.752-.423 1.705-.156 2.128.596.394.701.192 1.588-.468 2.048l-27.572 18.752 37.05-21.396c.742-.441 1.701-.197 2.142.545.428.721.211 1.651-.491 2.108l-32.815 21.83 42.403-24.483c.747-.433 1.703-.179 2.136.568.415.716.2 1.633-.492 2.088l-42.288 27.972 53.06-30.628c.753-.421 1.705-.152 2.126.602.4.715.179 1.617-.504 2.067l-38.753 24.765 47.514-27.434c.74-.445 1.7-.207 2.146.533.445.74.207 1.7-.533 2.145l-35.366 22.152 43.035-24.83c.755-.418 1.706-.144 2.124.611.399.722.169 1.629-.527 2.073l-18.314 11.251 24.124-13.935c.758-.412 1.707-.132 2.119.626.391.719.161 1.619-.529 2.061l-2.4 1.456 7.182-4.144c.758-.412 1.707-.132 2.119.626.391.719.161 1.619-.529 2.061l-11.023 6.688 16.252-9.374c.743-.439 1.702-.193 2.141.55s.193 1.702-.55 2.141l-1.875 1.131 6.626-3.822c.748-.431 1.703-.174 2.134.573.42.729.188 1.659-.525 2.105l-70.569 44.201 81.204-46.879c.755-.418 1.706-.144 2.124.611.399.722.169 1.629-.527 2.073l-62.218 38.298 71-40.982c.741-.443 1.701-.201 2.144.541.443.741.201 1.701-.541 2.144l-74.156 45.691 80.682-46.582c.744-.438 1.702-.191 2.141.553.438.744.191 1.702-.553 2.141l-18.992 11.404 20.314-11.732c.744-.438 1.702-.189 2.139.555.438.744.189 1.702-.555 2.139l-5.65 3.382 5.894-3.4c.743-.439 1.702-.193 2.141.55s.193 1.702-.55 2.141l-44.301 26.755 43.951-25.374c.743-.439 1.702-.193 2.141.55s.193 1.702-.55 2.141l-66.969 40.781 65.631-37.885c.743-.439 1.702-.193 2.141.55s.193 1.702-.55 2.141l-47.607 28.777 46.016-26.565c.744-.438 1.702-.189 2.139.555.438.744.189 1.702-.555 2.139l-2.069 1.234.484-.278c.744-.438 1.702-.191 2.141.553.438.744.191 1.702-.553 2.141l-30.853 18.539 29.253-16.876c.745-.438 1.703-.188 2.141.556.438.745.188 1.703-.556 2.141l-11.701 7.001 10.117-5.851c.755-.418 1.706-.144 2.124.611.399.722.169 1.629-.527 2.073l-81.554 50.045 79.957-46.167c.744-.438 1.702-.189 2.139.555.438.744.189 1.702-.555 2.139l-20.224 12.129 18.639-10.76c.743-.439 1.702-.193 2.141.55s.193 1.702-.55 2.141l-49.092 29.687 47.504-27.424c.75-.427 1.704-.166 2.131.584.417.732.179 1.662-.537 2.104l-72.85 44.485 71.256-41.138c.755-.418 1.706-.144 2.124.611.399.722.169 1.629-.527 2.073l-83.285 51.158 81.685-47.163c.744-.438 1.702-.191 2.141.553.438.744.191 1.702-.553 2.141l-37.669 22.696 36.081-20.83c.741-.442 1.701-.199 2.142.542.442.741.199 1.701-.542 2.142l-85.964 52.98 84.364-48.704c.754-.42 1.706-.149 2.126.605.405.728.169 1.645-.538 2.086l-19.064 11.445 17.48-10.091c.742-.441 1.701-.197 2.142.545s.197 1.701-.545 2.142l-68.378 41.919 66.778-38.556c.743-.439 1.702-.193 2.141.55s.193 1.702-.55 2.141l-33.012 20.002 31.421-18.158c.74-.444 1.7-.203 2.144.538.444.74.203 1.7-.538 2.144l-71.278 44.426 69.675-40.225c.75-.427 1.704-.166 2.131.584.417.732.179 1.662-.537 2.104l-33.6 20.521 32.006-18.477c.765-.399 1.709-.101 2.108.664.366.703.148 1.569-.508 2.014l-45.201 27.981 43.601-25.174c.766-.398 1.709-.101 2.107.665.368.707.145 1.577-.517 2.02l-9.66 5.882 8.069-4.657c.763-.402 1.709-.11 2.111.654.373.708.151 1.583-.514 2.028l-22.502 13.851 20.914-12.07c.758-.412 1.707-.131 2.119.628.382.704.17 1.582-.491 2.035l-52.545 33.937 50.908-29.393c.756-.416 1.706-.141 2.123.615.395.717.17 1.617-.516 2.063l-19.064 11.876 17.461-10.079c.756-.416 1.706-.141 2.123.615.395.717.17 1.617-.516 2.063l-10.757 6.701 9.151-5.285c.75-.427 1.704-.165 2.131.585.408.718.188 1.629-.503 2.081l-28.659 18.536 27.03-15.604c.749-.428 1.704-.168 2.132.581.413.722.187 1.642-.513 2.091l-11.564 7.357 9.954-5.744c.739-.446 1.699-.209 2.145.53s.209 1.699-.53 2.145l-1.763 1.113.147-.081c.753-.421 1.705-.151 2.126.602.397.711.182 1.608-.495 2.061l-10.148 6.616 8.504-4.922c.758-.412 1.707-.132 2.119.626.381.701.174 1.576-.482 2.031l-6.063 3.978 4.425-2.556c.747-.433 1.703-.179 2.136.568.404.696.213 1.585-.442 2.054l-16.448 11.845 14.767-8.523c.753-.421 1.705-.151 2.126.602.388.694.192 1.57-.454 2.033l-3.75 2.603 2.085-1.2c.755-.417 1.706-.143 2.123.612.369.668.202 1.504-.395 1.979l-7.251 5.538 5.504-3.172c.748-.431 1.703-.175 2.134.573.356.617.249 1.397-.259 1.896l-6.654 6.522 4.163-2.4c.728-.463 1.694-.248 2.157.48s.248 1.694-.48 2.157c-.037.024-.075.046-.114.066l-14.848 8.566c-.748.431-1.703.175-2.134-.573-.356-.617-.249-1.397.259-1.896l6.647-6.519-15.573 8.988c-.755.417-1.706.143-2.123-.612-.369-.668-.202-1.504.395-1.979l7.232-5.535-14.095 8.126c-.753.421-1.705.151-2.126-.602-.388-.694-.192-1.57.454-2.033l3.75-2.606-9.073 5.241c-.747.433-1.703.179-2.136-.568-.404-.696-.213-1.585.442-2.054l16.451-11.826-25.03 14.448c-.758.412-1.707.132-2.119-.626-.381-.701-.174-1.576.482-2.031l6.085-3.994-11.52 6.651c-.76.408-1.708.123-2.116-.638-.375-.699-.167-1.569.484-2.022l10.132-6.597-16.039 9.257c-.756.416-1.706.14-2.122-.616-.392-.713-.172-1.607.506-2.056l1.738-1.1-6.538 3.772c-.759.411-1.707.129-2.118-.629-.383-.707-.167-1.59.5-2.04l11.573-7.357-17.377 10.026c-.758.412-1.707.131-2.119-.628-.382-.704-.17-1.582.491-2.035l28.693-18.545-36.763 21.208c-.748.431-1.703.174-2.134-.573-.42-.729-.188-1.659.525-2.105l10.71-6.666-16.192 9.345c-.763.403-1.709.11-2.111-.653-.371-.704-.154-1.575.505-2.022l19.042-11.876-25.208 14.551c-.758.412-1.707.131-2.119-.628-.382-.704-.17-1.582.491-2.035l52.533-33.925-63.39 36.588c-.236.138-.505.214-.781.218z" fill="#346d92"/><g fill="#f0f2f5"><path d="m145.226 37.228c-.863.001-1.564-.697-1.565-1.56-.001-.376.135-.74.381-1.024l2.131-2.469-2.841 1.641c-.745.436-1.702.185-2.138-.56-.312-.534-.28-1.201.081-1.703l3.219-4.497-4.488 2.591c-.598.344-1.352.256-1.853-.219-.497-.476-.624-1.221-.313-1.835l2.463-4.922-.506.291c-.745.436-1.702.187-2.138-.558s-.187-1.702.558-2.138c.006-.003.012-.007.018-.01l5-2.891c.743-.439 1.701-.192 2.14.551.271.46.289 1.026.048 1.502l-2.469 4.919 6.229-3.594c.747-.433 1.703-.178 2.135.569.308.532.276 1.195-.082 1.694l-3.219 4.494 4.585-2.647c.746-.434 1.702-.181 2.137.565.336.578.268 1.306-.171 1.811l-2.131 2.472 2.841-1.641c.75-.427 1.704-.164 2.131.586.423.743.169 1.688-.568 2.12l-10.832 6.251c-.239.137-.508.21-.783.211z"/><path d="m144.467 69.856c-.863 0-1.563-.7-1.562-1.563 0-.413.164-.81.456-1.103l8.316-8.298-12.329 7.119c-.749.429-1.704.17-2.133-.579-.375-.655-.229-1.485.348-1.971l13.439-11.251-8.548 4.935c-.747.432-1.703.176-2.135-.571-.393-.68-.22-1.545.403-2.023l4.222-3.228c-.519-.013-1.005-.261-1.319-.675-.464-.668-.337-1.58.291-2.097l1.947-1.597-7.188 4.16c-.744.438-1.701.191-2.14-.553-.375-.637-.253-1.449.293-1.947l9.716-9.063-20.002 11.564c-.743.439-1.701.192-2.14-.552-.393-.667-.24-1.521.362-2.008l.566-.466-5.241 3.025c-.748.431-1.703.175-2.134-.573-.35-.607-.253-1.373.237-1.874l4.094-4.188-11.523 6.601c-.745.436-1.702.186-2.138-.559-.321-.547-.278-1.234.107-1.738l4.666-6.141-14.667 8.438c-.75.427-1.704.166-2.131-.584-.371-.651-.228-1.473.341-1.96l1.341-1.141-6.382 3.685c-.747.432-1.703.176-2.135-.571-.308-.532-.275-1.196.085-1.695l4.619-6.401-15.001 8.666c-.747.432-1.703.178-2.135-.569-.346-.597-.259-1.35.213-1.853l4.335-4.622-12.214 7.044c-.746.434-1.703.181-2.136-.565-.387-.665-.232-1.512.364-1.997l.231-.188-4.763 2.75c-.75.427-1.704.165-2.131-.585-.349-.613-.244-1.384.256-1.881l3.775-3.716-10.707 6.182c-.748.43-1.703.173-2.134-.575-.326-.568-.264-1.279.155-1.781l4.641-5.55-13.698 7.906c-.746.433-1.703.18-2.136-.567-.368-.633-.246-1.437.292-1.934l3.066-2.835-9.241 5.338c-.744.437-1.702.188-2.139-.556-.385-.656-.242-1.494.339-1.985l1.631-1.4-6.563 3.782c-.748.431-1.703.174-2.134-.574-.338-.586-.26-1.324.193-1.826l4.344-4.822-7.188 4.157c-.747.431-1.703.175-2.135-.572-.279-.483-.279-1.079 0-1.562l2.306-4.01-.053.031c-.748.432-1.705.175-2.136-.573-.432-.748-.175-1.705.573-2.136l5.091-2.922c.747-.433 1.703-.178 2.135.569.28.483.281 1.079.002 1.562l-2.306 4.013 10.71-6.188c.748-.431 1.703-.174 2.134.574.338.586.26 1.324-.193 1.826l-4.341 4.822 12.501-7.222c.744-.437 1.702-.188 2.139.556.385.656.242 1.494-.339 1.985l-1.631 1.394 6.829-3.925c.746-.433 1.703-.18 2.136.567.368.633.246 1.437-.292 1.934l-3.069 2.838 9.245-5.338c.746-.434 1.703-.18 2.136.566.331.57.269 1.286-.155 1.791l-4.641 5.55 13.695-7.907c.748-.431 1.703-.175 2.134.573.356.617.249 1.397-.259 1.896l-3.775 3.713 10.704-6.182c.746-.434 1.703-.181 2.136.565.387.665.232 1.512-.364 1.997l-.238.194 4.775-2.756c.747-.432 1.703-.178 2.135.569.346.597.259 1.35-.213 1.853l-4.332 4.622 12.189-7.044c.746-.434 1.702-.181 2.136.565.311.535.277 1.203-.086 1.704l-4.619 6.401 15.001-8.67c.75-.427 1.704-.166 2.131.584.371.651.228 1.473-.341 1.96l-1.344 1.144 6.385-3.688c.745-.436 1.702-.186 2.138.559.321.547.278 1.234-.107 1.738l-4.66 6.169 14.679-8.466c.748-.431 1.703-.175 2.134.573.35.607.253 1.373-.237 1.874l-4.088 4.185 11.485-6.632c.743-.439 1.701-.192 2.14.552.393.667.24 1.521-.362 2.008l-.572.469 15.826-9.145c.744-.438 1.701-.191 2.14.553.375.637.253 1.449-.293 1.947l-9.723 9.063 11.82-6.822c.746-.434 1.703-.181 2.136.565.387.665.232 1.512-.364 1.997l-1.944 1.594 2.453-1.416c.747-.432 1.703-.176 2.135.571.393.68.22 1.545-.403 2.023l-3.05 2.331 3.144-1.816c.745-.436 1.702-.185 2.138.559.387.661.237 1.506-.353 1.994l-13.439 11.251 7.141-4.122c.754-.419 1.706-.148 2.125.607.336.605.234 1.359-.25 1.853l-11.357 11.342c.112.105.208.226.284.359.431.747.175 1.703-.572 2.135l-5.407 3.125c-.225.129-.485.197-.75.199z"/><path d="m144.885 136.806c-.863 0-1.563-.7-1.563-1.563 0-.338.11-.667.313-.938l2.907-3.788-4.028 2.328c-.747.432-1.703.177-2.135-.569-.323-.557-.27-1.256.132-1.759l2.675-3.338-3.438 1.981c-.748.43-1.703.172-2.134-.576-.272-.474-.277-1.055-.014-1.534l2.31-4.166-.137.078c-.748.432-1.705.175-2.136-.573-.432-.748-.175-1.705.573-2.136l5-2.891c.746-.434 1.702-.181 2.137.565.278.477.283 1.066.014 1.548l-2.306 4.163 5.751-3.316c.749-.429 1.704-.17 2.133.579.318.555.266 1.249-.133 1.75l-2.669 3.332 3.638-2.1c.748-.431 1.703-.174 2.134.574.316.548.27 1.232-.115 1.733l-2.906 3.791 4.028-2.328c.75-.427 1.704-.164 2.131.586.423.743.17 1.688-.568 2.121l-10.832 6.251c-.234.128-.496.196-.762.195z"/><path d="m141.132 169.018c-.863.001-1.564-.698-1.565-1.561-.001-.478.218-.93.593-1.227l3.653-2.903-4.482 2.588c-.747.433-1.703.178-2.135-.569-.384-.662-.231-1.505.36-1.991l12.735-10.495-8.307 4.791c-.75.426-1.704.163-2.13-.587-.377-.664-.219-1.504.374-1.985l6.285-5.035-1.781 1.028c-.752.423-1.705.156-2.128-.596-.365-.649-.221-1.466.343-1.951l3.341-2.813-9.273 5.375c-.751.426-1.704.162-2.13-.588-.372-.656-.223-1.484.355-1.968l7.285-6.007-14.826 8.563c-.739.445-1.7.207-2.145-.533-.38-.631-.268-1.442.27-1.946l3.519-3.378-10.142 5.857c-.75.427-1.704.165-2.131-.585-.349-.613-.244-1.384.256-1.881l3.769-3.703-10.682 6.169c-.67.386-1.522.224-2.003-.381-.481-.606-.446-1.472.081-2.038l4.344-4.644-12.239 7.063c-.75.427-1.704.166-2.131-.584-.365-.64-.233-1.447.316-1.938l2.281-2.019-7.866 4.541c-.747.432-1.703.177-2.135-.57-.346-.598-.258-1.353.216-1.855l4.288-4.535-12.06 6.96c-.749.429-1.704.169-2.132-.58-.315-.55-.266-1.236.123-1.736l4.688-5.938-14.339 8.254c-.749.429-1.704.17-2.133-.579-.34-.593-.255-1.339.211-1.84l4.322-4.607-12.173 7.026c-.751.426-1.704.162-2.13-.588-.372-.656-.223-1.484.355-1.968l.375-.313-4.969 2.866c-.747.432-1.703.176-2.135-.572-.377-.652-.235-1.48.338-1.969l1.353-1.147-6.394 3.691c-.753.422-1.705.154-2.127-.598-.363-.647-.221-1.46.34-1.946l1.147-.972-6.094 3.516c-.758.412-1.707.131-2.119-.627-.336-.619-.217-1.385.291-1.873l2.663-2.403-8.513 4.904c-.739.445-1.7.207-2.145-.533-.38-.631-.268-1.442.27-1.946l3.494-3.332-8.995 5.185c-.75.427-1.704.166-2.131-.584-.345-.606-.247-1.367.24-1.866l3.407-3.438-4.75 2.741c-.747.432-1.703.177-2.135-.57-.291-.503-.279-1.126.032-1.618l2.041-3.238c-.826.25-1.698-.218-1.948-1.044-.21-.695.087-1.444.716-1.806l5.085-2.953c.747-.432 1.703-.177 2.135.57.291.503.279 1.126-.032 1.618l-1.991 3.163 9.345-5.391c.76-.409 1.708-.124 2.116.636.319.593.222 1.325-.241 1.814l-3.407 3.438 10.217-5.897c.736-.45 1.698-.219 2.149.517.389.636.275 1.459-.273 1.964l-3.475 3.316 10.048-5.797c.758-.412 1.707-.131 2.119.627.336.619.217 1.385-.291 1.873l-2.663 2.397 8.51-4.91c.753-.422 1.705-.154 2.127.598.363.647.221 1.46-.34 1.946l-1.156.978 6.104-3.522c.747-.432 1.703-.176 2.135.572.377.652.235 1.48-.338 1.969l-1.356 1.15 6.401-3.691c.754-.421 1.705-.151 2.126.603.364.652.216 1.471-.354 1.954l-.375.313 4.972-2.869c.751-.425 1.704-.161 2.13.59.335.591.249 1.33-.211 1.829l-4.322 4.607 12.189-7.026c.749-.429 1.704-.169 2.132.58.315.55.266 1.236-.123 1.736l-4.672 5.938 14.298-8.219c.747-.432 1.703-.177 2.135.57.346.598.258 1.353-.216 1.855l-4.288 4.535 12.057-6.96c.75-.427 1.704-.166 2.131.584.365.64.233 1.447-.316 1.938l-2.285 2.019 7.869-4.541c.749-.429 1.704-.17 2.133.579.34.593.255 1.339-.211 1.84l-4.322 4.644 12.232-7.063c.75-.427 1.704-.165 2.131.585.349.613.244 1.384-.256 1.881l-3.769 3.703 10.688-6.169c.736-.45 1.698-.219 2.149.517.389.636.275 1.459-.273 1.964l-3.525 3.375 19.927-11.507c.747-.433 1.703-.178 2.135.569.384.662.231 1.505-.36 1.991l-7.294 6.004 8.541-4.929c.749-.429 1.704-.17 2.133.579.375.655.229 1.485-.348 1.972l-3.347 2.813 4.063-2.347c.747-.432 1.703-.177 2.135.57.387.668.227 1.519-.376 2.002l-6.291 5.038 6.772-3.91c.751-.426 1.704-.162 2.13.588.372.656.223 1.484-.355 1.968l-12.732 10.495 6.482-3.75c.749-.429 1.704-.17 2.133.579.384.669.221 1.519-.383 1.999l-7.319 5.813c.775.379 1.097 1.315.718 2.09-.136.279-.353.511-.621.667l-13.161 7.598c-.239.135-.508.208-.781.21z"/><path d="m43.258 101.284c-.863 0-1.563-.7-1.563-1.563 0-.558.298-1.074.781-1.353l21.33-12.317c.743-.439 1.701-.192 2.14.552.393.667.24 1.521-.362 2.008l-.541.447 5.207-3.007c.747-.432 1.703-.176 2.135.572.37.641.24 1.454-.313 1.947l-2.447 2.188 8.141-4.688c.737-.448 1.699-.214 2.147.523.391.644.268 1.475-.294 1.977l-3.291 3.091 9.682-5.61c.747-.432 1.703-.177 2.135.571.347.599.257 1.356-.219 1.858l-4.275 4.51 12.017-6.938c.746-.433 1.703-.18 2.136.567.368.633.246 1.437-.292 1.934l-3.1 2.875 9.307-5.375c.737-.448 1.699-.214 2.147.523.391.644.268 1.475-.294 1.977l-3.316 3.125 9.723-5.625c.746-.434 1.702-.182 2.137.564.378.649.241 1.476-.327 1.968l-1.978 1.725 7.369-4.257c.747-.432 1.703-.176 2.135.571.347.601.257 1.358-.222 1.86l-4.247 4.457 11.932-6.891c.745-.436 1.702-.186 2.138.558.351.6.264 1.359-.213 1.864l-4.332 4.619 12.189-7.041c.746-.435 1.702-.182 2.137.563.317.544.277 1.225-.102 1.728l-4.66 6.213 14.723-8.504c.747-.432 1.703-.177 2.135.571.327.565.268 1.273-.147 1.776l-4.657 5.647 12.957-7.482c.748-.431 1.703-.175 2.134.573.356.617.249 1.397-.259 1.896l-3.25 3.194 4.875-2.813c.748-.431 1.703-.174 2.134.574.316.548.27 1.232-.115 1.733l-2.081 2.703.269-.156c.75-.426 1.704-.164 2.131.586.422.743.169 1.688-.568 2.12l-7.101 4.113c-.747.432-1.703.176-2.135-.572-.316-.547-.271-1.23.113-1.732l2.085-2.706-8.679 5c-.75.427-1.704.165-2.131-.585-.349-.613-.244-1.384.256-1.881l3.25-3.194-9.81 5.669c-.751.426-1.704.163-2.13-.587-.318-.56-.26-1.257.146-1.757l4.657-5.647-13.848 7.991c-.749.429-1.704.17-2.133-.578-.309-.539-.269-1.21.101-1.709l4.657-6.21-14.72 8.498c-.749.429-1.704.17-2.133-.579-.34-.593-.255-1.339.211-1.84l4.332-4.616-12.189 7.035c-.749.428-1.704.168-2.132-.581-.341-.597-.252-1.347.219-1.847l4.247-4.46-11.932 6.876c-.752.424-1.705.158-2.129-.594-.361-.64-.227-1.445.322-1.934l1.978-1.725-7.376 4.266c-.737.448-1.699.214-2.147-.523-.391-.644-.268-1.475.294-1.977l3.316-3.125-9.723 5.625c-.746.433-1.703.18-2.136-.567-.368-.633-.246-1.437.292-1.934l3.097-2.878-9.304 5.379c-.747.432-1.703.177-2.135-.57-.346-.598-.258-1.353.216-1.855l4.278-4.522-12.017 6.947c-.737.448-1.699.214-2.147-.523-.391-.644-.268-1.475.294-1.977l3.291-3.094-9.673 5.594c-.763.404-1.708.114-2.113-.649-.325-.613-.207-1.367.291-1.852l2.447-2.188-8.141 4.688c-.748.431-1.703.175-2.134-.573-.381-.66-.23-1.498.356-1.984l.544-.447-5.21 3.003c-.241.135-.514.204-.79.2z"/><path d="m41.495 119.395c-.863 0-1.563-.699-1.563-1.562 0-.397.151-.78.423-1.07l.741-.788-1.506.866c-.749.428-1.704.168-2.132-.581-.327-.571-.26-1.286.166-1.788l2.16-2.5-2.875 1.656c-.749.429-1.704.171-2.133-.578-.288-.501-.275-1.121.033-1.61l3.525-5.563-5.313 3.072c-.745.435-1.702.183-2.137-.562-.405-.694-.217-1.583.434-2.054l3.935-2.866-4.591 2.65c-.751.424-1.705.159-2.129-.592-.354-.627-.234-1.415.291-1.908l8.413-7.698-10.182 5.876c-.751.424-1.705.159-2.129-.592-.354-.627-.234-1.415.291-1.908l9.138-8.394-10.655 6.12c-.743.439-1.701.192-2.14-.552-.412-.699-.221-1.597.44-2.067l2.985-2.163-1.403.809c-.775.38-1.711.06-2.091-.715-.314-.64-.154-1.412.388-1.876l5.857-4.275c-.852-.138-1.431-.94-1.294-1.792.053-.328.21-.631.447-.865l10.56-10.388c-.111-.105-.206-.226-.281-.359-.431-.747-.175-1.703.572-2.135l5.607-3.235c.75-.427 1.704-.165 2.131.585.349.613.244 1.384-.256 1.881l-7.404 7.269 11.007-6.357c.745-.435 1.702-.183 2.137.562.405.694.217 1.582-.434 2.053l-3.207 2.335 2.056-1.188c.743-.439 1.701-.192 2.14.552.412.699.221 1.597-.44 2.067l-5.116 3.71c.861.066 1.505.816 1.439 1.677-.03.395-.21.765-.502 1.033l-9.141 8.394 10.273-5.938c.751-.424 1.705-.159 2.129.592.354.627.234 1.415-.291 1.908l-8.407 7.698 17.67-10.204c.736-.451 1.698-.22 2.149.516.434.708.238 1.631-.445 2.103l-16.389 11.964c.258.496.232 1.092-.069 1.563l-3.528 5.557 5.335-3.075c.748-.431 1.703-.174 2.134.573.331.575.264 1.296-.168 1.799l-2.153 2.5 2.697-1.563c.747-.432 1.703-.178 2.135.569.346.597.259 1.35-.213 1.853l-.834.891c.823-.259 1.701.198 1.96 1.022.22.699-.075 1.456-.709 1.822l-8.751 5.047c-.24.142-.511.217-.787.217z"/></g><path d="m14.596 185.122c24.543 3.338 51.842 0 76.569 0h79.694.056c.331.002.662-.026.988-.084 21.205-3.419 15.192-29.065 15.192-45.091v-97.693c0-14.614 5.272-39.116-15.283-40.21-26.252-1.4-52.973 0-79.263 0-24.549 0-49.782-1.725-74.278 0-19.298 1.356-16.967 17.673-16.967 32.315v96.046c0 14.589-7.457 51.898 13.292 54.717zm-8.767-169.549c3.654-12.31 9.351-11.717 18.677-11.717h121.348c7.899-.459 15.818-.459 23.718 0 11.607 1.394 12.845 9.301 12.998 18.411.475 28.621 0 57.292 0 85.917v45.835c0 8.038 3.222 26.862-9.451 29.29h-138.299c-6.435 0-14.492 1.331-20.596-1.138-9.823-3.969-8.391-13.126-8.391-21.786v-122.86c-.004-6.329-1.822-15.823-.004-21.952z" fill="#262626"/><path d="m40.151 51.054h52.676c15.467 0 30.987.378 46.451 0 1.492-.192 3-.232 4.5-.119-.504.237-.928.615-1.222 1.088-3.85 5.454-9.563 9.26-4.454 15.989.164.18.385.298.625.334 6.279 3.153 10.788-.078 14.851-4.932 4.26-5.094 12.36-11.548 14.417-18.039 2.094-6.601-7.719-14.458-11.335-18.799-4.854-5.822-8.254-10.938-16.47-8.019-.838.313-1.194.625-1.272.913-5.847 6.435-1 11.429 3.66 16.636h-72.49c-7.063 0-50.032-6.307-50.032 8.082 2.478 9.17 12.529 6.866 20.095 6.866zm46.482-12.501h58.961c.725 0 4.063-.838 3.007-2.091-3.416-4.094-10.738-10.145-6.01-16.323 4.538-.653 9.607 7.894 11.623 10.313 3.347 4.016 9.538 8.976 8.791 14.376-.625 4.585-4.785 7.938-7.682 11.413-2.697 3.238-7.641 12.501-13.067 9.935-4.547-6.16 3.022-12.367 6.322-16.348.694-.831-.603-1.25-1.2-1.25h-98.89c-6.313 0-21.521 3.191-23.908-5.625.001-8.872 55.934-4.4 62.053-4.4z" fill="#262626"/><path d="m38.001 151.541h52.448c16.251 0 33.365 1.563 49.545 0 1.204-.136 2.414-.204 3.625-.203-.481.313-1.225.897-2.581 2.013-4.688 3.869-6.604 9.338-3.185 14.323.055.357.292.66.625.8.063.031.116.044.178.075.093.05.19.092.291.125 6.497 3.216 10.667-.05 14.898-5.129 4.132-4.96 12.126-11.417 14.117-17.814 2.128-6.835-7.013-14.114-10.773-18.627-4.538-5.444-8.498-12.189-16.564-9.326-.276.1-.536.24-.772.416-.264.115-.502.282-.7.491-5.957 6.488-1.728 11.617 2.91 16.901h-106.993c-6.951 0-12.46.047-14.804 7.351-.155.23-.24.501-.244.778-.081.26-.059.541.063.784.671 8.602 11.95 7.042 17.916 7.042zm8.232-12.501h100.077c1.103 0 3.353-1.419 2.25-2.741-3.153-3.778-10.395-9.788-6.135-15.492 5.397-.769 10.404 8.073 13.048 11.251 3.125 3.75 7.16 6.76 7.132 11.735-.028 5.157-4.413 8.526-7.676 12.442-2.5 2.997-7.576 12.189-12.814 9.629-4.035-5.766 3.172-11.589 6.288-15.314 1.169-1.4-.397-2.441-1.725-2.441h-58.963c-5.979 0-63.099 4.572-63.099-4.688 1.965-7.266 16.523-4.381 21.617-4.381z" fill="#262626"/><path d="m168.344 92.958c-2.431-8.991-11.657-6.876-19.102-6.876h-97.693c-1.838 0-5.544-.256-7.11-.05 2.144-2.038 8.276-11.16 7.441-14.917-.019-.088-.094-.134-.138-.203 0-.022 0-.044-.019-.066s-.091-.1-.131-.153l-.022-.025c-4.535-5.769-11.363-2.957-15.52 1.597-3.378 3.703-6.454 7.744-9.663 11.595-2.444 2.263-4.467 4.942-5.972 7.913-2.113 6.738 8.223 15.073 11.901 19.489 5.107 6.126 8.976 10.938 17.267 6.513.625-.334.856-.625.869-.853 4.425-6.122-.288-11.079-4.585-15.848h72.45c7.098-.015 50.027 6.307 50.027-8.116zm-125.546 5.625c-.741 0-4.063.844-2.997 2.119 3.26 3.907 10.51 10.001 6.563 15.964-4.657 1.775-10.17-7.544-12.123-9.885-2.553-3.063-8.213-7.691-9.31-11.71-1.4-5.116 5.266-10.698 8.019-14.001 2.641-3.169 9.429-14.842 14.404-8.635 1.334 6.36-4.016 10.626-7.56 14.867-.697.838.606 1.272 1.209 1.272h98.912c6.285 0 21.521-3.185 23.902 5.625 0 8.848-55.967 4.397-62.059 4.397z" fill="#262626"/></svg>