<svg height="512" viewBox="0 0 60 60" width="512" xmlns="http://www.w3.org/2000/svg"><g id="014---Fox" fill="none"><path id="Path" d="m54.012 3.337c-.226294-.00000996-.4243705-.15200579-.4829405-.37058883-.0585699-.21858305.0369699-.4492542.2329405-.56241117l3.06-1.766c.1549945-.09852969.351531-.10415386.5119064-.01464894s.2587712.25972968.2562855.44337398c-.0024857.18364429-.1054527.35114353-.2681919.43627496l-3.06 1.767c-.0760084.0438886-.1622305.06699614-.25.067z" fill="#f37a42"/><path id="Path" d="m8.842 40.8c-.22456718.0002302-.42173906-.1492881-.48210755-.3655891-.06036849-.2163009.03087782-.4463152.22310755-.5624109l5.59-3.381-7.344 4.243c-.23560872.1297647-.5316571.04988-.67000668-.1807924-.13834959-.2306723-.06941665-.5294607.15600668-.6762076l23.118-14.33-22.912 13.227c-.23596019.1244074-.52802952.041678-.66369597-.1879935-.13566644-.2296716-.06715011-.5253981.15569597-.6720065l9.509-5.754-9.138 5.276c-.23701856.1320316-.53608427.0509486-.6739531-.1827228-.13786884-.2336714-.06422739-.5346559.1659531-.6782772l6.489-3.912-6.048 3.491c-.23583577.1260453-.52910097.0442222-.66561588-.1857118-.13651492-.2299339-.06795177-.5265795.15561588-.6732882l17.507-10.681-16.964 9.794c-.23560872.1297647-.5316571.04988-.67000668-.1807924-.13834959-.2306723-.06941665-.5294607.15600668-.6762076l25.439-15.781-24.765 14.297c-.23541159.1379583-.53795774.061708-.67986369-.1713453-.14190596-.2330532-.07076502-.5368414.15986369-.6826547l12.76-8.148-11.814 6.821c-.23470287.1405531-.53878699.0663884-.6824238-.1664401-.14363681-.2328284-.07348967-.5378644.1574238-.6845599l13.85-9.078-12.6 7.273c-.233204.1287421-.52639387.0520483-.66668716-.1743946-.1402933-.226443-.07842312-.5231151.14068716-.6746054l11.565-7.671-10.6 6.12c-.23377341.1287456-.52745054.051198-.66718798-.1761759-.13973743-.2273739-.07626999-.5244122.14418798-.6748241l6.451-4.2-6.775 3.91c-.23081697.1267753-.52040052.0527915-.66212318-.1691615-.14172267-.221953-.08699929-.5157856.12512318-.6718385l8.761-6.16-9.243 5.336c-.23081697.1267753-.52040052.0527915-.66212318-.1691615-.14172267-.221953-.08699929-.5157856.12512318-.6718385l4.571-3.2-4.715 2.723c-.22914324.1380567-.52635802.0712921-.6744416-.1515028-.14808359-.2227948-.09456637-.5226782.1214416-.6804972l6.421-4.842-6.537 3.776c-.23240668.1328499-.52821577.0590851-.67103328-.1673329s-.08196881-.5251514.13803328-.6776671l1.933-1.328-1.717.991c-.22665062.1274915-.51319057.0599635-.65906069-.1553189-.14587011-.2152823-.1023667-.5064398.10006069-.6696811l5.361-4.229-5.2 3c-.2263606.1309251-.51537208.0653166-.66301624-.1505114-.14764415-.2158279-.10404667-.5089685.10001624-.6724886l4.174-3.334-3.811 2.2c-.22334212.1266456-.50630579.0635478-.65468337-.1459871-.14837758-.209535-.11393727-.4973954.07968337-.6660129l3.645-3.124-3.239 1.87c-.22089529.136633-.50962303.0813788-.66446245-.1271591-.15483942-.208538-.12422149-.5009064.07046245-.6728409l2.984-2.814-2.79 1.61c-.22011911.12110787-.49592482.06006935-.64438682-.14260915s-.1234717-.4840501.05838682-.65739085l1.661-1.5-1.523.879c-.22011911.12110787-.49592482.06006935-.64438682-.14260915s-.1234717-.4840501.05838682-.65739085l1-.906-.863.5c-.21570545.12306449-.48904459.06915822-.64187637-.12658691-.15283178-.19574514-.13883158-.47399712.03287637-.65341309l1.129-1.186-1.032.6c-.21459408.12282353-.486738.07035061-.64028186-.12345476-.15354386-.19380536-.14237308-.47073665.02628186-.65154524l.67-.714-.5.291c-.19373601.11122317-.43774549.08043712-.59778454-.07542094s-.19727226-.39896729-.09121546-.59557906l.7-1.3c-.24383372.13116763-.54783237.03983372-.679-.204s-.03983372-.54783237.204-.679l1.506-.873c.19373601-.11122317.43774549-.08043712.59778454.07542094s.19727226.39896729.09121546.59557906l-.7 1.3 1.9-1.1c.214298-.12137086.48506269-.06861695.63812174.1243272.15305905.19294414.14282383.46861013-.02412174.6496728l-.671.716 1.18-.68c.21570545-.12306449.48904459-.06915822.64187637.12658691.15283178.19574514.13883158.47399712-.03287637.65341309l-1.134 1.178 1.81-1.044c.22011911-.12110787.49592482-.06006935.64438682.14260915s.1234717.4840501-.05838682.65739085l-.994.905 1.568-.906c.22011911-.12110787.49592482-.06006935.64438682.14260915s.1234717.4840501-.05838682.65739085l-1.661 1.5 2.415-1.385c.22081444-.13428088.50757574-.07815609.6614736.1294633.1538979.2076194.1242133.49830972-.0684736.6705367l-2.979 2.813 4.2-2.428c.2237424-.12922782.5090949-.06669716.6582921.14425468s.1130922.50083558-.0832921.66874532l-3.644 3.126 4.894-2.826c.2268311-.13463929.5192384-.06990751.6680488.14788958s.1028302.51373298-.1050488.67611042l-4.174 3.334 5.452-3.148c.2268147-.12994997.5154475-.06325566.6622581.15302785.1468106.2162835.1022433.50914993-.1022581.67197215l-5.363 4.231 6.8-3.927c.2324067-.13284986.5282158-.05908515.6710333.16733285s.0819688.52515145-.1380333.67766715l-1.935 1.329 2.522-1.456c.2287194-.13104292.5198877-.0620127.6654353.1577616.1455476.2197742.0954752.5147944-.1144353.6742384l-6.423 4.843 7.605-4.39c.232192-.1378754.5319082-.0664712.6769921.1612862.1450839.2277573.0831069.529564-.1399921.6817138l-4.564 3.192 9-5.193c.2317427-.1353654.5290201-.0636298.6735243.1625272.1445041.2261571.084687.5260601-.1355243.6794728l-8.767 6.163 13.191-7.623c.2347034-.13648675.5354374-.06073246.6774741.17065437.1420368.23138683.073465.53383943-.1544741.68134563l-6.449 4.2 8.459-4.883c.2340569-.1357068.5336008-.06062069.6759704.16944421.1423696.23006489.0759129.53164079-.1499704.68055579l-11.568 7.675 13.9-8.026c.2333291-.1269664.5252099-.0493179.6646076.1768043.1393976.2261221.0776459.5217747-.1406076.6731957l-13.843 9.076 15.884-9.171c.152731-.0928891.3434161-.097241.5002259-.0114166s.2559212.2487865.26.4275c.0040787.1787135-.0874949.3460275-.2402259.4389166l-12.76 8.147 32.767-18.917c.2362075-.13307102.5354329-.05365088.6745599.17904108.1391271.23269196.0674613.53386873-.1615599.67895892l-25.447 15.784 25.4-14.664c.2358358-.12604535.529101-.04422219.6656159.18571176.1365149.22993394.0679517.52657952-.1556159.67328824l-17.51 10.682 16.179-9.34c.2370186-.13203157.5360843-.0509486.6739531.18272279s.0642274.53465591-.1659531.67827721l-6.452 3.889 5.315-3.068c.2363825-.12854979.5321069-.0469768.6691568.18458103.1370499.23155784.0662709.53004973-.1601568.67541897l-9.522 5.763 8.45-4.879c.2352087-.12562801.5276152-.04456942.664573.18422757.1369579.22879699.070267.52481121-.151573.67277243l-23.111 14.33 22.168-12.8c.2363825-.1285498.5321069-.0469768.6691568.184581.1370499.2315579.0662709.5300498-.1601568.675419l-5.608 3.393 4.99-2.881c.2362075-.133071.5354329-.0536509.6745599.1790411.1391271.2326919.0674613.5338687-.1615599.6789589l-15.681 9.686 15-8.66c.1534456-.09146.3440284-.0941103.4999579-.0069525s.2535161.2508822.256.4295-.0905123.3449925-.2439579.4364525l-10.222 6.277 9.424-5.44c.2347345-.1238045.5252986-.0426548.6619149.1848618.1366163.2275167.0716853.5221296-.1479149.6711382l-13.378 8.348 12.314-7.11c.2374824-.1411088.5443912-.0629824.6855.1745s.0629824.5443912-.1745.6855l-.993.606c.2394301-.1093283.5226213-.0143136.6476607.2172994.1250393.231613.0491058.520506-.1736607.6607006l-9.568 6.01 7.89-4.556c.2369302-.1419372.5440628-.0649302.686.172s.0649302.5440628-.172.686l-2.946 1.833.852-.492c.1530883-.0932463.3442941-.0977378.5015919-.0117826s.2567905.2492984.261.4285c.0042095.1792015-.0875036.3470363-.2405919.4402826l-8.74 5.7 8.557-4.94c.2335451-.1328438.5303244-.0573638.6720248.1709163s.0776546.5277351-.1450248.6780837l-7.844 5.2 7.855-4.536c.2328603-.1351428.5309189-.0616362.6742423.1662803.1433233.2279164.080443.5283964-.1422423.6797197l-7.447 5.086 7.317-4.224c.2314518-.1313128.5252013-.0583356.6682918.1660259.1430904.2243616.0853808.5214879-.1312918.6759741l-6.244 4.383 6.065-3.5c.2309306-.1317312.5245674-.0597083.6683337.1639283.1437664.2236366.0873821.520673-.1283337.6760717l-4.289 3.054 3.9-2.253c.2292016-.1303039.5201978-.0602449.6649792.1600976s.0935911.5152436-.1169792.6739024l-3.093 2.291 2.654-1.532c.2227723-.1294397.5074311-.0684047.6575526.1409889s.1165485.4985799-.0775526.6680111l-2.928 2.568 2.317-1.337c.2151838-.125925.4902542-.0740804.6448345.1215368.1545804.1956172.1414272.4752214-.0308345.6554632l-1.3 1.375.541-.312c.1913695-.1129952.4343534-.0861158.5963984.0659751.162045.1520908.2042543.3928854.1036016.5910249l-.453.908c.0874817.0447767.1598283.1143408.208.2.0666188.1149293.0847639.2516448.0504306.3799727-.0343334.1283278-.1183225.2377179-.2334306.3040273l-.782.45c-.1913695.1129952-.4343534.0861158-.5963984-.0659751-.162045-.1520908-.2042543-.3928854-.1036016-.5910249l.27-.54-2.076 1.2c-.2148145.122858-.4871855.0700952-.640583-.1240916-.1533976-.1941868-.1416695-.4713733.027583-.6519084l1.3-1.375-3.73 2.153c-.2227723.1294397-.5074311.0684047-.6575526-.1409889s-.1165485-.4985799.0775526-.6680111l2.928-2.569-5.854 3.38c-.2292016.1303039-.5201978.0602449-.6649792-.1600976s-.0935911-.5152436.1169792-.6739024l3.092-2.291-5.416 3.119c-.2309306.1317312-.5245674.0597083-.6683337-.1639283-.1437664-.2236366-.0873821-.520673.1283337-.6760717l4.29-3.054-6.747 3.895c-.2314518.1313128-.5252013.0583356-.6682918-.1660259-.1430904-.2243616-.0853808-.5214879.1312918-.6759741l6.243-4.379-9.052 5.226c-.2328603.1351428-.5309189.0616362-.6742423-.1662803-.1433233-.2279164-.080443-.5283964.1422423-.6797197l7.45-5.083-10.273 5.928c-.2340569.1357068-.5336008.0606207-.6759704-.1694442s-.0759129-.5316408.1499704-.6805558l7.843-5.2-10.487 6.052c-.2347034.1364868-.5354374.0607325-.6774741-.1706544-.1420368-.2313868-.073465-.5338394.1544741-.6813456l8.737-5.7-11.353 6.554c-.2369302.1419372-.5440628.0649301-.686-.172-.1419371-.2369302-.0649301-.5440628.172-.686l2.941-1.829-4.656 2.687c-.2350866.127347-.5287583.0472199-.6665908-.1818764-.1378325-.2290964-.071048-.5260868.1515908-.6741236l9.589-6.022-11.922 6.879c-.2362845.1306359-.5336041.0500916-.6716393-.181948s-.0669238-.5317553.1606393-.677052l.879-.537-2.422 1.4c-.2350866.127347-.5287583.0472199-.6665908-.1818764-.1378325-.2290964-.071048-.5260868.1515908-.6741236l13.391-8.359-15.958 9.214c-.2357179.1278172-.530297.0469384-.667702-.1833224-.137405-.2302607-.0687118-.5279174.155702-.6746776l10.194-6.262-12.336 7.122c-.2357179.1278172-.530297.0469384-.667702-.1833224-.137405-.2302607-.0687118-.5279174.155702-.6746776l15.7-9.7-18.284 10.559c-.07629753.0428415-.16250213.0649098-.25.064z" fill="#f37a42"/><path id="Path" d="m17.707 37.411c-.2011266-.0004305-.3824169-.1213306-.4601142-.3068439-.0776974-.1855134-.0366752-.3995231.1041142-.5431561l1.585-1.609-2.821 1.628c-.2253165.1265297-.5099298.0605202-.6565485-.1522715-.1466186-.2127916-.1069324-.5022515.0915485-.6677285l1.17-.953-1.452.838c-.2271272.1307942-.5167067.0640046-.6636035-.1530559-.1468968-.2170604-.1012506-.5107158.1046035-.6729441l1.087-.855-1.073.619c-.2238916.1275836-.5080784.0641108-.6564103-.1466086-.148332-.2107193-.1122202-.4996603.0834103-.6673914l2.15-1.817-1.94 1.119c-.2248836.1275609-.509928.0626394-.65739-.1497267-.1474621-.2123662-.1087026-.5021295.08939-.6682733l1.263-1.041-.669.386c-.2100901.1220992-.4775473.0754755-.6339316-.1105084s-.1564132-.4574745-.0000684-.6434916l1.648-1.962c-.2358357.0279237-.4587757-.1138955-.533438-.3393367-.0746622-.2254412.0195552-.4722975.225438-.5906633l2.181-1.259c.2100291-.1208078.4764517-.0736423.6322418.1119276.1557901.18557.1561096.4561351.0007582.6420724l-1.567 1.87 3.425-1.976c.2248836-.1275609.509928-.0626394.65739.1497267.1474621.2123662.1087026.5021295-.08939.6682733l-1.266 1.041 1.6-.925c.2241703-.1280952.5090066-.0644456.6573283.1468868.1483216.2113324.1113468.5008421-.0853283.6681132l-2.148 1.817 2.264-1.307c.2264876-.1252235.5111005-.0569226.656093.157448s.1024398.5039544-.098093.667552l-1.086.855.8-.461c.2257586-.1294404.5130594-.0640705.6605892.1503047.1475298.2143751.1059565.5060712-.0955892.6706953l-1.168.952.613-.354c.2163843-.1232964.4905169-.0685506.6429461.1284.1524291.1969505.1366764.476052-.0369461.6546l-1.586 1.61.323-.186c.23893-.1358451.5427102-.0533708.6801373.1846528.137427.2380237.0569695.5423443-.1801373.6813472l-3.52 2.032c-.0762873.0450804-.1633904.0685844-.252.068z" fill="#fff"/><path id="Path" d="m42.485 37.373c-.201814-.0000404-.3838177-.1214024-.4614385-.3076923s-.0356386-.4009794.1064385-.5443077l.651-.656-1.992 1.15c-.2240205.1297641-.5100442.0670649-.6592395-.1445117s-.1122125-.502047.0852395-.6694883l1.26-1.073-1.792 1.034c-.226507.1291681-.5142486.0625855-.6609917-.1529516-.1467432-.2155372-.103215-.5076567.0999917-.6710484l1.06-.842-1.206.7c-.2231941.1282474-.5072862.0660776-.6565145-.1436697s-.1148202-.4985197.0795145-.6673303l2.465-2.12-2.426 1.4c-.2208953.136633-.509623.0813788-.6644625-.1271591-.1548394-.208538-.1242214-.5009064.0704625-.6728409l2.72-2.585-2.164 1.253c-.2104359.1206411-.4771079.0728408-.6325393-.1133813-.1554313-.186222-.1547824-.4571434.0015393-.6426187l1.607-1.893c-.1904763.0156499-.3724422-.0817899-.465-.249-.1380647-.2391402-.0561341-.5449248.183-.683l2.181-1.259c.2103697-.1193703.4760224-.0710392.6308685.1147762.1548462.1858154.1544805.4558286-.0008685.6412238l-1.507 1.777 3.319-1.916c.2189627-.1248229.4965995-.0671571.6477436.1345378.1511442.2016949.1285371.4843546-.0527436.6594622l-2.72 2.584 3.4-1.963c.2230711-.126215.5054574-.0633143.6538691.1456472.1484117.2089616.1147824.4963073-.0778691.6653528l-2.468 2.119 2.446-1.412c.2263468-.1267998.5120755-.0594093.6579064.1551704.1458308.2145797.1033101.5050523-.0979064.6688296l-1.06.842.666-.384c.2240205-.1297641.5100442-.0670649.6592395.1445117s.1122125.502047-.0852395.6694883l-1.256 1.072.489-.281c.216926-.1250668.492915-.0703862.6457677.1279434.1528528.1983296.1354294.4791432-.0407677.6570566l-1.246 1.256c.0892441.0437255.1631544.1134522.212.2.1380647.2391402.0561341.5449248-.183.683l-2.172 1.254c-.0760009.0436831-.1623469.0661331-.25.065z" fill="#fff"/><path id="Path" d="m56.657 49.625c-.1852647.0001599-.3554318-.1021332-.4422016-.2658221s-.0759173-.3619385.0282016-.5151779l.361-.531-1.36.785c-.1998601.1154319-.4527607.0790671-.612-.088-.1593106-.1672814-.1832866-.4219221-.058-.616l1.189-1.838-4.3 2.485c-.1549945.0985297-.351531.1041539-.5119064.0146489-.1603754-.0895049-.2587712-.2597296-.2562855-.4433739s.1054527-.3511436.2681919-.436275l6.1-3.523c.1990398-.1123116.4488979-.0753715.6069237.0897301.1580259.1651017.1839931.4163373.0630763.6102699l-1.193 1.847 1.453-.839c.201913-.1170084.457915-.0787812.6168379.0921088.1589228.1708899.1784962.4289891.0471621.6218912l-.357.525.223-.128c.2374252-.1242009.5305531-.0391619.6646466.1928199.1340935.2319817.0614797.5284321-.1646466.6721801l-2.112 1.219c-.0767692.045782-.1646183.0696465-.254.069z" fill="#f8e6bf"/><path id="Path" d="m41.518 54.408c-.2173194-.0001878-.4096325-.1407301-.4758165-.3477263s.0089184-.4330406.1858165-.5592737l6.217-4.435-8.271 4.775c-.1549945.0985297-.351531.1041539-.5119064.0146489-.1603754-.0895049-.2587712-.2597296-.2562855-.4433739s.1054527-.3511436.2681919-.436275l17.284-9.976c.2309306-.1317312.5245674-.0597083.6683337.1639283.1437664.2236366.0873821.520673-.1283337.6760717l-6.219 4.435 6.653-3.839c.2374252-.1242009.5305531-.0391619.6646466.1928199.1340935.2319817.0614797.5284321-.1646466.6721801l-15.664 9.04c-.0758978.0441549-.1621931.067282-.25.067z" fill="#f8e6bf"/><path id="Path" d="m30.364 59.417c-.2227823.0001822-.4188095-.1470511-.4807165-.3610592-.0619071-.2140082.0252425-.4431572.2137165-.5619408l4.753-3.01-6.331 3.656c-.2363779.1433179-.5441821.0678779-.6875-.1685s-.0678779-.5441821.1685-.6875l4.485-2.823-5.344 3.086c-.2355494.1441463-.5433537.0700494-.6875-.1655s-.0700494-.5433537.1655-.6875l10.205-6.6-11.174 6.456c-.2355125.13196-.5332497.0531389-.6726204-.1780652-.1393708-.2312042-.0700423-.5312938.1566204-.6779348l5.106-3.213-5.545 3.2c-.2350866.127347-.5287583.0472199-.6665908-.1818764-.1378325-.2290964-.071048-.5260868.1515908-.6741236l4.74-2.98-5.09 2.938c-.2343611.1288923-.5286543.0505227-.6678755-.1778537-.1392213-.2283764-.0740613-.5258734.1478755-.6751463l8.752-5.619-9.2 5.31c-.234481.1270728-.5274228.0477401-.6657366-.1802909-.1383139-.2280309-.0733058-.5244809.1477366-.6737091l6.577-4.191-7.4 4.271c-.2307283.1102239-.5074396.0286022-.6414107-.1891972-.133971-.2177994-.0820246-.5015825.1204107-.6578028l10.74-7.1-14.51 8.373c-.2335877.1237383-.5231326.0442789-.6608429-.1813541s-.0760007-.5194731.1408429-.6706459l8.6-5.547-10.052 5.8c-.2347713.1336383-.5332399.0566316-.6740509-.1739091-.1408109-.2305408-.0730402-.5312411.1530509-.6790909l6.811-4.391-7.576 4.38c-.2335451.1328438-.5303244.0573638-.6720248-.1709163s-.0776546-.5277351.1450248-.6780837l10.516-6.99-11.285 6.514c-.2341443.133112-.5316521.0568382-.672871-.1725078-.1412189-.2293459-.075396-.5293391.148871-.6784922l8.248-5.385-8.816 5.089c-.2335451.1328438-.5303244.0573638-.6720248-.1709163s-.0776546-.5277351.1450248-.6780837l9.117-6.071-10.238 5.908c-.23336809.1382671-.53441937.0652417-.67850035-.1645824s-.07863493-.5326135.14750035-.6824176l8.795-5.944-10.955 6.322c-.23184122.125947-.52164614.0500755-.66202867-.1733204-.14038253-.223396-.08302436-.5174256.13102867-.6716796l8.4-5.726-13.177 7.606c-.233204.1287421-.52639387.0520483-.66668716-.1743946-.1402933-.226443-.07842312-.5231151.14068716-.6746054l4.577-3.043-4.631 2.673c-.2328603.1351428-.53091891.0616362-.67424226-.1662803-.14332335-.2279164-.08044309-.5283964.14224226-.6797197l5.305-3.627-3.63 2.1c-.23265.1288599-.5254615.0530472-.66634439-.1725252s-.08052968-.5219566.13734439-.6744748l1.529-1.037c-.22201127.0296164-.43663273-.0920227-.52528302-.29771s-.02969877-.4452352.14428302-.58629l3.269-2.66c-.19540939-.052226-.34010439-.2170402-.36659311-.4175663-.02648871-.2005261.07044736-.3972589.24559311-.4984337l4.32-2.494c.2253165-.1265297.5099298-.0605202.6565485.1522715.1466186.2127916.1069324.5022515-.0915485.6677285l-2.552 2.079 6.358-3.671c.23265-.1288599.5254615-.0530472.6663444.1725252s.0805297.5219566-.1373444.6744748l-1.076.727 2.53-1.464c.2324067-.1328499.5282158-.0590851.6710333.1673329s.0819688.5251514-.1380333.6776671l-5.306 3.631 7.045-4.067c.233204-.1287421.5263939-.0520483.6666872.1743946.1402933.226443.0784231.5231151-.1406872.6746054l-4.577 3.042 11.02-6.363c.2325262-.1307666.5267591-.0559509.6685809.1700024s.0812744.5234503-.1375809.6759976l-8.395 5.727 11.576-6.683c.2329673-.1327691.5291919-.0581284.6714287.1691822.1422368.2273105.0798406.5263539-.1414287.6778178l-8.792 5.945 11.594-6.693c.2327769-.1270897.524286-.0503218.6642741.174934.139988.2252559.0797468.5206233-.1372741.673066l-9.121 6.073 10.959-6.326c.2347034-.1364868.5354374-.0607325.6774741.1706544.1420368.2313868.073465.5338394-.1544741.6813456l-8.245 5.387 9.321-5.381c.2327769-.1270897.524286-.0503218.6642741.174934.139988.2252559.0797468.5206233-.1372741.673066l-10.509 6.986 11.51-6.645c.2343611-.1288923.5286543-.0505227.6678755.1778537.1392213.2283764.0740613.5258734-.1478755.6751463l-6.813 4.393 10.06-5.808c.2338963-.1269547.5262491-.04845.6650871.1785941.1388379.227044.0755015.5230536-.1440871.6734059l-8.6 5.547 11.128-6.424c.2340569-.1357068.5336008-.0606207.6759704.1694442s.0759129.5316408-.1499704.6805558l-10.741 7.1 12.93-7.463c.2348642-.1312813.531504-.0531604.6712412.1767732.1397372.2299337.0724576.5292187-.1522412.6772268l-6.58 4.192 7.712-4.456c.2358256-.1438702.5436298-.0693256.6875.1665s.0693256.5436298-.1665.6875l-8.754 5.62 9.815-5.666c.2346058-.1253855.5263122-.0451285.6637604.18262.1374483.2277485.0725112.523243-.1477604.67238l-4.728 2.973 5.283-3.05c.2355125-.13196.5332497-.0531389.6726204.1780652.1393708.2312042.0700423.5312938-.1566204.6779348l-5.106 3.213 5.6-3.231c.2347713-.1336383.5332399-.0566316.6740509.1739091.1408109.2305408.0730402.5312411-.1530509.6790909l-10.206 6.6 10.857-6.268c.2349709-.1292146.5300387-.050062.6687925.179405.1387537.2294671.0717837.5275361-.1517925.675595l-4.5 2.83 4.766-2.752c.2363779-.1427656.5437344-.0668779.6865.1695s.0668779.5437344-.1695.6865l-19.227 12.173c.0218202.1972725-.0751081.3887745-.247.488l-5.947 3.433c-.0758978.0441549-.1621931.067282-.25.067z" fill="#f8e6bf"/><path id="Path" d="m29.861 37.444c-.198649.0001864-.3785669-.1172419-.4583598-.299161s-.0443244-.3938197.0903598-.539839l1.416-1.538-2.234 1.29c-.2058129.1237425-.4708001.0815471-.628-.1-.157165-.1812409-.1634598-.4485623-.015-.637l1.362-1.729-2.314 1.33c-.194106.111509-.4386752.0804127-.5987-.0761232s-.1965039-.4003603-.0893-.5968768l.541-.985-.48.276c-.2374252.1242009-.5305531.0391619-.6646466-.1928199-.1340935-.2319817-.0614797-.5284321.1646466-.6721801l2.029-1.174c.1941537-.1124089.4394114-.0817355.599901.0750271.1604895.1567626.1969159.4012321.089099.5979729l-.542.986 3.013-1.738c.2074647-.1185083.4697832-.073677.626115.1070056s.162987.4467211.015885.6349944l-1.36 1.728 2.821-1.629c.2140094-.1242074.4866819-.073198.6413187.1199729.1546367.1931709.1447222.4703962-.0233187.6520271l-2.063 2.248c.0605389.0414501.1108161.0961737.147.16.1382327.2388784.0567713.5445824-.182.683l-1.649.952c-.0772625.0452591-.1654689.0684349-.255.067z" fill="#8e2b2b"/><g fill="#262626"><path id="Shape" d="m54.19 40.144c.6128141-3.2266066.6601856-6.5351712.14-9.778-.33-1.907-1.143-3.6-.895-5.526.233-1.809 1.408-3.19 2.1-4.868 1.865-4.567 1.465-9.536 3.197-14.172.724-1.937 1.851-5.183-1.475-5.2-1.671-.011-3.31 1.7-4.519 2.548-2.5379781 1.81334614-5.169979 3.49135099-7.885 5.027-1.346.749-3.863 3.161-5.342 3.405-.567.094-2.663-1.08-3.277-1.239-3.9789092-1.04165396-8.1598938-1.0340741-12.135.022-.905.236-2.561 1.2-3.526 1.067-.509-.069-1.735-1.285-2.119-1.539-2.44-1.614-5.1-2.854-7.554-4.461-2.034-1.341-4.223-3.638-6.472-4.485-2.346-.883-4.228.36-3.995 2.89.139 1.489 1.255 3.156 1.713 4.579.955 2.977.684 6.1 1.437 9.123 1 4.02 3.393 6.306 2.646 10.553-.89050716 4.0596524-1.03014304 8.2480511-.412 12.358-2.6 2.23-6.766 6.911-4.792 9.279.3.358.817-.062 1.164.015 2.492.551 6.023-1.087 8.3.339 1.991 1.249 2.56 3.251 5.073 3.931 2.8.758 4.425-.147 7.333 1.652 2.352 1.454 3.493 3.524 6.569 3.609 4.616.128 6.819-4.373 11.133-5.089 3.194-.53 4.418-.7 7.146-2.6.162-.113.231-.349.391-.465 7.1-5.12 4.438-1.6 8.853-1.384.2484915.0267891.4989924.0294682.748.008.73-.087 1.448-.153 1.847-.9.838-1.565-2.314-5.365-3.228-6.488-.6538264-.8001737-1.3780572-1.5401342-2.164-2.211zm-49.808-27.588c-.249-2.727-1.982-5.515-2.124-8.104-.088-1.563.272-2.239 2.442-1.795 1.591.325 3.644 2.574 5.054 3.5 3.132 2.054 6.607 3.576 9.534 5.923-.8956997.4508558-1.7638888.9544054-2.6 1.508-2.853-1.934-6-3.439-8.875-5.354-.323-.215-1.518.378-1.37.476.292.2.6.369.9.555-.18798012 2.3223119-.01936061 4.6597155.5 6.931.111.478 1.564.109 1.449-.388-.42590697-1.8599197-.61075761-3.7669062-.55-5.674 2.42 1.421 4.922 2.713 7.2 4.337.0282509.0725565.0764369.135649.139.182.3341764.1741269.739139.1378092 1.037-.093 1.124346-.7848314 2.3156126-1.4691405 3.56-2.045.1084087-.0474441.2055399-.1173104.285-.205 5.8025023-2.42805924 12.3467545-2.37095155 18.106.158.0644924.0237911.1316614.0395758.2.047 1.1872041.5662739 2.3265954 1.2277696 3.407 1.978.1491424.0665712.3176711.0754786.473.025.272102.0128919.54299-.0439016.787-.165 2.3-1.646 4.848-2.944 7.3-4.388.1139516 2.0675751-.0614088 4.1409339-.521 6.16-.08.345 1.344.133 1.432-.246.5124548-2.2279006.6864061-4.5202823.516-6.8.217-.138.441-.263.655-.4.813-.541-.442-.71-.894-.41-2.892 1.925-6.04 3.45-8.913 5.386-.9418103-.625964-1.9258298-1.1859697-2.945-1.676 2.753-2.219 6.008-3.649 8.97-5.56 1.49-.961 3.478-2.976 5.174-3.541.8-.267 3.05-.839 3.444.749.077.308-.392.779-.413 1.106-.16 2.486-1.86 5.033-2.107 7.644-.44 4.662-1.4 8.607-4.412 12.376-.046214.0652312-.0625701.1470119-.045.225 1.8072275 4.4925558 2.4014259 9.3813293 1.723 14.176-2.2876261-1.6241908-5.0642258-2.4122593-7.864-2.232 2.7-3.269 2.027-11.209-3.512-10.3-4.317.706-5.247 6.4-3.153 9.717-1.4639687-.6313747-2.9804316-1.1332931-4.532-1.5.4540231-.2355166.7771439-.6637711.879-1.165 0-.011-.008-.016-.008-.026s.017-.035.014-.053c-.341-2.277-4.7-2.054-6.256-1.747-1.265.25-4.64 1.693-2.493 3.164-1.0638237.1828925-2.0948957.5215289-3.06 1.005-.6028184.3256352-1.2437151.5752087-1.908.743 2.7-3.114 2.269-10.108-2.7-10.063-5.072.046-6.234 6.78-3.574 10.177-2.7020956.1601939-5.31252707 1.0383925-7.562 2.544-.7947967-4.9653526-.22231211-10.0534131 1.656-14.718.0164232-.0746279-.00446383-.1525813-.056-.209-2.898-3.628-3.98-7.441-4.389-11.935zm36.381 24.418c-2.553-2.153-3.214-8.992.975-9.226 4.461-.249 4.045 7 1.854 9.207-.014.013-.013.023-.025.036-.436.026-.877.052-1.332.073-.4924093.016659-.985288-.0134763-1.472-.09zm-11.224-.795c-.605-.376-1-1.009-1.67-1.388-1.124-.64-1.681-1.688.184-2.277 1.238-.391 4.917-.393 5.218 1.453-.113.635-.111.582-.472.748-.2219076.0326703-.4266502.1382077-.582.3-.2906633.1387526-.5667063.3062544-.824.5-.622.485-1.001 1.195-1.854.664zm-13.038.67c-1.3250412-1.3822912-1.9663722-3.2824632-1.75-5.185.186-2.067 1.7-5.488 4.327-3.855 2.892 1.8 2.861 6.81.585 9.143-.9414188.0143353-1.8829593-.0190408-2.821-.1-.114-.003-.227.002-.342-.003zm41.685 11.484c-.506 1.189-3.6-.167-4.211-.2-2.3447105-.1545542-4.6498568.661558-6.375 2.257-2.93 2.575-.815 2.154-7.38 2.866-.477.052-1.056-.191-1.5-.015-.7225124.2114881-1.3940008.5688439-1.973 1.05-2.9 2.185-2.511 6.184-8.853 3.8-2.155-.809-2.75-2.959-4.591-4.085-1.451-.888-1.186-.429-2.783-.726-2.022-.376-3.927.429-5.638-.721-1.032-.693-1.59-1.757-2.511-2.544-1.4301012-1.3182154-3.33178273-2.0033111-5.274-1.9-1.679.059-4.675 2.033-4.857-1.086-.108-1.857 2.293-4.508 4.372-6.307.337-.083.642-.288.652-.544.52313712-.4336995 1.075436-.8309671 1.653-1.189 5.312-3.113 7.016-.268 11.505-.955 2.448-.375 3.322-2.176 6.155-2.684l.039.02c.6086263.4376446 1.1753832.9307532 1.693 1.473.2773832.2206548.6070076.3660064.957.422-.01 1.247-.1 2.567.015 3.826-.011.169-.014.341-.032.509-.5 4.62-6.149 5.116-8.109 1.2-.248-.493-1.659-.029-1.449.388.9385364 1.8797385 2.8256733 3.0997678 4.925 3.184.753 2.474 2.223 7.353 5.486 6.916 3-.4 4.34-4.21 5.154-6.838 2.143817-.1937138 4.0376101-1.4756312 5.014-3.394.351-.7-1.11-.652-1.374-.124-.8365817 1.7558844-2.7538502 2.7247842-4.6637219 2.3568316-1.9098717-.3679527-3.3299347-1.979817-3.4542781-3.9208316-.029-.252-.041-.507-.055-.761.085-1.134.018-2.315 0-3.452v-.046c.3486731-.1228948.669768-.3131733.945-.56.246-.227.643-.851 1.033-1.167 2.478.491 4.09 1.891 6.325 2.718 3.04 1.123 6.94-1.155 10.356.326 1.2203215.5376468 2.3534906 1.2545566 3.362 2.127.0325493.0625988.0870168.1110144.153.136 1.4368607 1.283291 2.6696894 2.7781296 3.656 4.433.216.352 1.847 2.704 1.633 3.211zm-28.266-4.752c.3063069.6293092.7445807 1.1852519 1.285 1.63.772747.6403204 1.7068905 1.0554953 2.7 1.2-.569 1.874-2.139 6.856-4.189 6.027-1.951-.789-2.959-4.144-3.571-6.188.9637138-.2041563 1.8622285-.6427662 2.616-1.277.4670231-.3904032.8596636-.8619783 1.159-1.392z"/><path id="Path" d="m18.726 32.915v-1c0-.629-1.452-.336-1.452.17v1c0 .629 1.452.335 1.452-.17z"/><path id="Path" d="m42.724 32.806v-1c0-.381-1.448-.13-1.448.388v1c0 .381 1.448.13 1.448-.388z"/><path id="Path" d="m15.591 24.156c.911-1.141 3.849-.974 4.74.141.347.435 1.739-.092 1.338-.594-1.425-1.785-5.861-1.609-7.26.141-.55.688.836.745 1.182.312z"/><path id="Path" d="m39.671 24c.9-1.122 3.782-.816 4.654.275.289.361 1.683-.135 1.35-.552-1.455-1.823-5.945-1.477-7.346.277-.377.471 1.063.35 1.342 0z"/></g></g></svg>