<?xml version="1.0" encoding="UTF-8"?>
<svg xmlns="http://www.w3.org/2000/svg" id="icons" viewBox="0 0 60 60" width="512" height="512"><path d="M4.49,16.5a.5.5,0,0,1-.285-.911l9.571-6.641-10.5,6.06a.5.5,0,0,1-.527-.849l7.04-4.684L3.28,13.234a.5.5,0,0,1-.525-.851l3.462-2.275L3.28,11.8a.5.5,0,0,1-.537-.843l5.39-3.773L3.4,9.921a.5.5,0,0,1-.544-.837l4-2.919-2.9,1.677a.5.5,0,0,1-.591-.8L6.516,4.1l-.031.017a.5.5,0,1,1-.5-.866l3.827-2.21a.5.5,0,0,1,.591.8L7.25,4.784,14.5.6a.5.5,0,0,1,.545.837L11.042,4.353,17.548.6a.5.5,0,0,1,.536.842l-5.39,3.775,8-4.617a.5.5,0,0,1,.525.851L17.755,3.722,22.931.734a.5.5,0,0,1,.527.849L16.413,6.27l7.3-4.213a.5.5,0,0,1,.536.843L14.676,9.541,23.2,4.62a.5.5,0,0,1,.523.852l-1.111.722,2.152-1.242A.5.5,0,0,1,25.3,5.8L19.8,9.617l6.565-3.79a.5.5,0,0,1,.54.84l-5.124,3.65L27.529,7a.5.5,0,0,1,.53.848l-.885.6.919-.53a.5.5,0,0,1,.536.843l-1.514,1.06,1.394-.8a.5.5,0,0,1,.557.827l-2.7,2.111,2.359-1.363a.5.5,0,0,1,.585.805l-1.982,1.79,1.408-.813a.5.5,0,0,1,.663.715l-.926,1.36.275-.159a.5.5,0,1,1,.5.866l-2.172,1.254a.5.5,0,0,1-.663-.715l.927-1.36-3.6,2.079a.5.5,0,0,1-.585-.8l1.982-1.791-4.5,2.6a.5.5,0,0,1-.557-.827l2.7-2.11-5.092,2.941a.5.5,0,0,1-.537-.843l1.515-1.06-3.3,1.905a.5.5,0,0,1-.53-.848l.887-.6-2.51,1.449a.5.5,0,0,1-.54-.84l5.123-3.649-7.783,4.493a.5.5,0,0,1-.535-.843l5.494-3.821L6.885,16.429a.5.5,0,0,1-.523-.852l1.111-.723L4.74,16.432A.5.5,0,0,1,4.49,16.5Z" fill="#5e4636"/><path d="M9.021,54.47a.5.5,0,0,1-.268-.922l.474-.3-2,1.155a.5.5,0,0,1-.525-.85l7.814-5.143L4.146,54.4a.5.5,0,0,1-.521-.854l6.507-4.188L2.444,53.792a.5.5,0,0,1-.522-.853l7.531-4.872L1.537,52.638a.5.5,0,0,1-.528-.849l9.7-6.461L1.28,50.771a.5.5,0,0,1-.522-.853l4.3-2.789L1.28,49.311a.5.5,0,0,1-.537-.842l7.563-5.3L1.28,47.226a.5.5,0,0,1-.545-.837l5.789-4.218L1.28,45.2a.5.5,0,0,1-.565-.821l4.6-3.718-3.793,2.19a.5.5,0,0,1-.588-.8l2.288-2.106a.487.487,0,0,1-.5-.245.5.5,0,0,1,.183-.682l3.607-2.082a.5.5,0,0,1,.589.8l-2.162,1.99L10.352,36.6a.5.5,0,0,1,.564.821l-4.6,3.718L14.179,36.6a.5.5,0,0,1,.545.837L8.938,41.65,17.689,36.6a.5.5,0,0,1,.538.841l-7.565,5.3L21.3,36.6a.5.5,0,0,1,.522.852l-4.3,2.784,6.182-3.568a.5.5,0,0,1,.527.849l-9.7,6.461,11.514-6.648a.5.5,0,0,1,.522.853l-7.53,4.871,8.478-4.9a.5.5,0,0,1,.521.854L21.535,43.2l7.291-4.209a.5.5,0,0,1,.525.851l-7.815,5.142,8.186-4.725a.5.5,0,0,1,.517.854l-.491.313a.5.5,0,0,1,.512.855l-7.75,5.405,7.219-4.167a.5.5,0,0,1,.545.836l-6.259,4.586,5.718-3.3a.5.5,0,0,1,.542.838l-2.841,2.042,2.3-1.329a.5.5,0,0,1,.543.838l-.89.645.35-.2a.5.5,0,0,1,.557.828l-.736.57.182-.1a.5.5,0,0,1,.587.8l-.733.67.149-.086a.5.5,0,0,1,.634.753l-.347.417a.505.505,0,0,1,.4.249.5.5,0,0,1-.183.683L28.261,54.4a.5.5,0,0,1-.632-.11.5.5,0,0,1,0-.643l.19-.227-1.7.98a.5.5,0,0,1-.587-.8l.732-.669L23.714,54.4a.5.5,0,0,1-.557-.828l.734-.568-2.42,1.4a.5.5,0,0,1-.543-.838l.894-.646L19.25,54.4a.5.5,0,0,1-.542-.839l2.84-2.041L16.559,54.4a.5.5,0,0,1-.545-.836l6.259-4.586L12.88,54.4a.5.5,0,0,1-.536-.842L20.1,48.154,9.271,54.4A.5.5,0,0,1,9.021,54.47Z" fill="#35718a"/><path d="M15.9,54.446a.5.5,0,0,1-.331-.875L16.219,53l-1.49.859a.5.5,0,0,1-.558-.827l1.293-1.008-1.619.935a.5.5,0,0,1-.559-.826l3.276-2.575-3.751,2.166a.5.5,0,0,1-.556-.829l4.478-3.458-4.927,2.845a.5.5,0,0,1-.534-.845l1.2-.823-1.221.705a.5.5,0,0,1-.544-.838L15.1,45.3l-4.542,2.622a.5.5,0,0,1-.549-.834L15.9,42.71,9.9,46.169a.5.5,0,0,1-.539-.84l3.623-2.577-3.467,2a.5.5,0,0,1-.564-.822l4.018-3.239-3.793,2.19a.5.5,0,0,1-.6-.787l2.726-2.717-2.28,1.316a.5.5,0,0,1-.619-.769l.769-.842-.109.063a.5.5,0,0,1-.711-.626l.32-.762a.484.484,0,0,1-.142-.156.5.5,0,0,1,.183-.684l.557-.321a.5.5,0,0,1,.711.627l-.132.313,1.626-.937a.5.5,0,0,1,.619.769l-.769.842L14.116,36.6a.5.5,0,0,1,.6.787L11.994,40.1l6.063-3.5a.5.5,0,0,1,.564.823L14.6,40.665l7.031-4.059a.5.5,0,0,1,.54.84l-3.622,2.576,4.316-2.491a.5.5,0,0,1,.548.834l-5.883,4.374L22.979,39.6a.5.5,0,0,1,.543.838l-4.4,3.185,3.759-2.17a.5.5,0,0,1,.534.845l-1.2.823.47-.271a.5.5,0,0,1,.556.828l-4.481,3.46L22.125,45.2a.5.5,0,0,1,.559.826L19.41,48.6l1.8-1.038a.5.5,0,0,1,.558.827L20.25,49.565a.5.5,0,0,1,.394.872l-1.868,1.645a.5.5,0,0,1-.066.82l-2.556,1.477A.494.494,0,0,1,15.9,54.446Z" fill="#fff"/><path d="M15.229,54.333a.5.5,0,0,1-.345-.863l.348-.329-.787.454a.5.5,0,0,1-.613-.777l1.922-2.029L13.5,52.09a.5.5,0,0,1-.576-.812l1.059-.911-.346.2a.5.5,0,0,1-.609-.78l2.3-2.379-1.485.857a.5.5,0,0,1-.615-.774l2.1-2.246-1.276.736a.5.5,0,0,1-.73-.572l.471-1.62a.492.492,0,0,1-.225-.2.5.5,0,0,1,.183-.684l.534-.307a.5.5,0,0,1,.73.573l-.386,1.327,3.1-1.792a.5.5,0,0,1,.615.774l-2.1,2.245,1.668-.963a.5.5,0,0,1,.61.78l-2.3,2.381,1.881-1.086a.5.5,0,0,1,.577.812l-1.059.911.607-.351a.5.5,0,0,1,.613.776l-1.922,2.029,1.486-.858a.5.5,0,0,1,.594.8l-.385.365a.5.5,0,0,1,.4.909l-3.542,2.045A.493.493,0,0,1,15.229,54.333Z" fill="#cd4c60"/><path d="M14.843,43.481a.5.5,0,0,1-.377-.828l1.279-1.467-2.08,1.2a.5.5,0,0,1-.585-.8l.4-.358-.373.214a.5.5,0,0,1-.625-.762l2.469-2.806a.5.5,0,0,1,.21-.629l.769-.443a.5.5,0,0,1,.625.763l-1.31,1.489L17.064,38a.5.5,0,0,1,.585.8l-.4.36.593-.342a.5.5,0,0,1,.627.761l-1.279,1.467,1.786-1.03a.5.5,0,0,1,.662.715L18.625,42.21a.482.482,0,0,1,.056.078.5.5,0,0,1-.183.683l-.751.433a.5.5,0,0,1-.663-.716l.482-.7-2.473,1.428A.491.491,0,0,1,14.843,43.481Z" fill="#a53c50"/><path d="M42.78,59.438a.5.5,0,0,1-.287-.909l4.858-3.4L40.993,58.8a.5.5,0,0,1-.526-.85l2.572-1.7-3.634,2.1a.5.5,0,0,1-.534-.845l7.5-5.168L37.1,57.683a.5.5,0,0,1-.519-.855l.635-.4-1.5.864a.5.5,0,0,1-.524-.851l6.147-4.01-7.5,4.327a.5.5,0,0,1-.519-.855l3.588-2.281L32.263,56.3a.5.5,0,0,1-.517-.856l2.432-1.533-3.4,1.965a.5.5,0,0,1-.521-.853l6.906-4.459-7.8,4.506a.5.5,0,0,1-.516-.856l.724-.454-.284.164a.5.5,0,0,1-.523-.852L35.015,49l-5.735,3.31a.5.5,0,0,1-.531-.845l8.4-5.71L29.28,50.3a.5.5,0,0,1-.54-.84l8.271-5.872L29.28,48.05a.5.5,0,0,1-.539-.841l5.878-4.163L29.28,46.128a.5.5,0,0,1-.533-.845L30,44.42l-.722.417a.5.5,0,0,1-.555-.829l1.246-.958-.691.4a.5.5,0,0,1-.718-.609l.478-1.268a.5.5,0,0,1-.26-.932l.936-.54a.5.5,0,0,1,.718.609l-.443,1.176,6.026-3.479a.5.5,0,0,1,.554.829l-1.242.955,5.189-2.995a.5.5,0,0,1,.533.845l-1.263.868,3.671-2.119a.5.5,0,0,1,.539.841l-5.88,4.164,7.618-4.4a.5.5,0,0,1,.539.839l-8.267,5.87,10.391-6a.5.5,0,0,1,.532.846l-8.4,5.712,10.255-5.92a.5.5,0,0,1,.523.852l-6.246,4.063L52.7,39.253a.5.5,0,0,1,.516.856l-.726.455,1.619-.934a.5.5,0,0,1,.522.852L47.72,44.941l8.31-4.8a.5.5,0,0,1,.517.855l-2.432,1.533,2.6-1.5a.5.5,0,0,1,.518.855l-3.586,2.279,3.068-1.77a.5.5,0,0,1,.523.851l-6.152,4.014,5.629-3.249a.5.5,0,0,1,.518.854l-.629.4.111-.064a.5.5,0,0,1,.534.845l-7.5,5.168L56.72,47.19a.5.5,0,0,1,.526.85l-2.564,1.7,2.038-1.175a.5.5,0,0,1,.537.841L52.4,52.81l4.324-2.5a.5.5,0,0,1,.58.808l-3.408,3,2.828-1.633a.5.5,0,0,1,.674.7l-.566.907a.5.5,0,0,1,.338.925l-1.537.887a.5.5,0,0,1-.674-.7l.531-.854L50.033,57.5a.5.5,0,0,1-.58-.808l3.408-3L43.03,59.371A.491.491,0,0,1,42.78,59.438Z" fill="#ba8a5a"/><path d="M46.972,44.045a.5.5,0,0,1-.3-.9l3.287-2.405-4.2,2.427a.5.5,0,0,1-.544-.837l3.949-2.875-4.123,2.38a.5.5,0,0,1-.537-.842l1.275-.9-1.26.727a.5.5,0,0,1-.56-.825l2.647-2.088-2.768,1.6a.5.5,0,0,1-.552-.832l.23-.172-.153.087a.5.5,0,0,1-.5-.865l7.171-4.141a.5.5,0,0,1,.552.832l-.23.173L52.1,33.583a.5.5,0,0,1,.559.825L50.011,36.5l5.053-2.917a.5.5,0,0,1,.538.842l-1.275.894,2.527-1.458a.5.5,0,0,1,.543.837l-3.949,2.875L57.5,35.235a.5.5,0,0,1,.545.836l-3.285,2.4L58.1,36.54a.5.5,0,0,1,.584.806l-2.01,1.793L58.7,37.974a.5.5,0,1,1,.5.865l-6.231,3.6a.5.5,0,0,1-.583-.806l2.01-1.792-7.17,4.139A.5.5,0,0,1,46.972,44.045Z" fill="#d39f71"/><path d="M37.544,43.77a.5.5,0,0,1-.345-.863l2.28-2.171-3.965,2.289a.5.5,0,0,1-.539-.84l3.345-2.372-4.627,2.67a.5.5,0,0,1-.561-.823l4.857-3.876-6.835,3.945a.5.5,0,0,1-.564-.821l4.065-3.3-5.9,3.408a.5.5,0,0,1-.579-.809L31.831,37l-4.488,2.591a.5.5,0,0,1-.573-.815l1.8-1.52-.824.475a.5.5,0,0,1-.676-.7l1.4-2.266a.511.511,0,0,1-.071-.1.5.5,0,0,1,.183-.683l.685-.395a.494.494,0,0,1,.608.085.5.5,0,0,1,.067.611l-.979,1.579L32.911,33.6a.5.5,0,0,1,.573.814l-1.8,1.521,4.048-2.337a.5.5,0,0,1,.579.808l-3.658,3.207,6.959-4.017a.5.5,0,0,1,.566.821l-4.067,3.3,7.144-4.124a.5.5,0,0,1,.561.823l-4.856,3.875,8.143-4.7a.5.5,0,0,1,.54.841l-4.652,3.3a.491.491,0,0,1,.267.181.5.5,0,0,1-.056.662l-2.281,2.172.215-.123a.5.5,0,0,1,.5.865L37.794,43.7A.49.49,0,0,1,37.544,43.77Z" fill="#d39f71"/><path d="M42.823,38.418a.5.5,0,0,1-.3-.9l.921-.688L41.56,37.918A.5.5,0,0,1,41,37.094l2.086-1.656-3.379,1.951a.5.5,0,0,1-.586-.8l3.255-2.96-5.243,3.027a.5.5,0,0,1-.583-.8L39.733,33l-5.092,2.94a.5.5,0,0,1-.589-.8l1.524-1.4-2.862,1.653a.5.5,0,0,1-.615-.775l.2-.208-1,.577a.5.5,0,0,1-.588-.064l-.654-.6-.358.207a.5.5,0,1,1-.5-.865l.676-.391a.5.5,0,0,1,.588.065l.653.6L34.7,31.863a.5.5,0,0,1,.615.775l-.2.209,3.872-2.236a.5.5,0,0,1,.589.8l-1.524,1.4,5.37-3.1a.5.5,0,0,1,.583.806l-3.185,2.847L45.9,30.435a.5.5,0,0,1,.586.8L43.233,34.2l5.226-3.016a.5.5,0,0,1,.561.824l-2.089,1.658,3.37-1.945a.5.5,0,0,1,.549.833l-.922.688,1.877-1.083a.5.5,0,0,1,.567.82l-.5.412,1.4-.806a.5.5,0,0,1,.72.6l-.319.89,1.582-.913a.5.5,0,1,1,.5.865l-2.764,1.595a.5.5,0,0,1-.72-.6l.319-.89-5.516,3.184a.5.5,0,0,1-.567-.819l.506-.414-3.933,2.27A.5.5,0,0,1,42.823,38.418Z" fill="#a5754a"/><path d="M19.755,41.408a.5.5,0,0,1-.374-.832l.31-.348-.507.292a.5.5,0,0,1-.6-.794l.594-.568-.835.482a.5.5,0,0,1-.6-.788l.614-.608-.864.5a.5.5,0,0,1-.634-.754l1.063-1.266-1.519.876a.5.5,0,0,1-.5-.866l3.972-2.293a.5.5,0,0,1,.633.754l-1.063,1.268,1.776-1.024a.494.494,0,0,1,.647.129.5.5,0,0,1-.046.659l-.613.606,1.064-.614a.5.5,0,0,1,.6.794l-.768.734a.518.518,0,0,1,.407.185.5.5,0,0,1-.014.647L21.125,40.12a.5.5,0,0,1-.184.682l-.937.54A.5.5,0,0,1,19.755,41.408Z" fill="#e1efff"/><path d="M11.337,40.911A.5.5,0,0,1,11,40.039l3.557-3.2-4.1,2.364a.5.5,0,0,1-.562-.823l.726-.579-.806.465a.5.5,0,0,1-.6-.792L11.06,35.7a.5.5,0,0,1,.028-.848L13.261,33.6a.5.5,0,0,1,.6.792l-1.007.972,3.062-1.767a.5.5,0,0,1,.561.823l-.725.578,2.432-1.4a.5.5,0,0,1,.584.8L14.6,38.146a.507.507,0,0,1,.271.224.5.5,0,0,1-.183.683l-3.1,1.791A.488.488,0,0,1,11.337,40.911Z" fill="#e1efff"/><path d="M15.214,36.675a.5.5,0,0,1-.336-.871l.259-.234-.453.261a.5.5,0,0,1-.576-.811l.49-.422-.729.421a.5.5,0,0,1-.591-.8l.627-.585L13.28,34a.5.5,0,0,1-.74-.53l.332-1.673a.5.5,0,0,1-.092-.908l.5-.291a.5.5,0,0,1,.74.531l-.289,1.454,3.472-2a.5.5,0,0,1,.59.8l-.628.586,1.553-.9a.5.5,0,0,1,.576.812l-.508.437a.5.5,0,0,1,.52.835l-.424.384a.518.518,0,0,1,.476.248.5.5,0,0,1-.183.683l-3.716,2.145A.489.489,0,0,1,15.214,36.675Z" fill="#a5754a"/><path d="M25.316,15.488a.5.5,0,0,1-.25-.933l1.656-.956a.5.5,0,1,1,.5.866l-1.656.956A.5.5,0,0,1,25.316,15.488Z" fill="#ba8a5a"/><path d="M7.048,16.2a.5.5,0,0,1-.36-.847l.815-.845a.493.493,0,0,1-.244-.213.5.5,0,0,1,.183-.683L9.594,12.37a.5.5,0,0,1,.61.78l-.327.339,5.9-3.405a.5.5,0,1,1,.5.867L7.3,16.133A.5.5,0,0,1,7.048,16.2Z" fill="#ba8a5a"/><path d="M16.565,32.447a.5.5,0,0,1-.311-.891L19.97,28.6l-6.09,3.515a.5.5,0,0,1-.548-.833L18.815,27.2,11.7,31.305a.5.5,0,0,1-.53-.847L17.015,26.5l-6.751,3.9a.5.5,0,0,1-.521-.853l2.347-1.518L9.344,29.616a.5.5,0,0,1-.523-.852L13.1,25.977,8.466,28.652a.5.5,0,0,1-.524-.851l5.5-3.6L7.683,27.524a.5.5,0,0,1-.538-.841l8.291-5.845L6.865,25.787a.5.5,0,0,1-.523-.852L8.1,23.793l-1.556.9a.5.5,0,0,1-.537-.843l6.88-4.819-6.6,3.811a.5.5,0,0,1-.524-.851l.037-.025-.485.281a.5.5,0,0,1-.541-.84l5.514-3.96-6.442,3.72a.5.5,0,0,1-.543-.838l5.553-4.023L3.286,19.52a.5.5,0,0,1-.621-.769l1.547-1.715-.932.538a.5.5,0,0,1-.674-.7l.887-1.42a.5.5,0,0,1-.427-.9L4.722,13.6a.5.5,0,0,1,.674.7l-.88,1.409,1.938-1.119a.5.5,0,0,1,.621.768L5.527,17.07,16.73,10.6a.5.5,0,0,1,.544.837L11.72,15.463l6.791-3.921a.5.5,0,0,1,.542.84l-5.514,3.959,7.217-4.167a.5.5,0,0,1,.524.852l-.04.026,1.045-.6a.5.5,0,0,1,.537.843L15.941,18.11l8.016-4.628a.5.5,0,0,1,.522.852l-1.748,1.137,1.781-1.028a.5.5,0,0,1,.538.842L16.757,21.13l11.6-6.7a.5.5,0,0,1,.524.851l-5.508,3.607L28.72,15.8a.5.5,0,0,1,.523.852l-4.277,2.786,3.754-2.168a.5.5,0,0,1,.522.853L26.9,19.643l1.82-1.051a.5.5,0,0,1,.531.847L23.4,23.393l2.3-1.327a.5.5,0,0,1,.549.834l-5.485,4.09,4.551-2.628a.5.5,0,0,1,.561.825L22.16,28.14l1.925-1.112a.5.5,0,0,1,.5.867l-7.77,4.485A.494.494,0,0,1,16.565,32.447Z" fill="#ba8a5a"/><path d="M3.217,54.332c8.329.187,16.71-.072,25.059.025.281,2.272,11.383,3.88,14.014,5.032,4.135-.247,8.06-2.324,12.148-3.171,1.248-.356,3.164-.549,3.29-2.15.188-4.384-.094-8.809,0-13.2,2.2-.622,2.386-2.82,1.2-4.472-.585-.816-.667-2.4-1.614-2.751-3.974-1.158-12.81-4.089-14.4-4.089-3.47,0-8.37,2.082-13.439,3.655-1.071.332-1.881,3.025-2.815,4.12a9.719,9.719,0,0,0-3.1-.664l-3.833-2.874V31.784a10.681,10.681,0,0,0,6.98-9.342c3.127-.569,3.278-3.948,3.027-6.492.632-4.773-.241-11.379-6.325-11.458C28.1-.336,19.461.342,16.623.452,10.808-.254,4.26,2.1,2.657,8.267c-.732,2.614-.356,5.543-.391,8.216-.3,2.416.047,5.643,3.022,6a10.505,10.505,0,0,0,6.988,9.4v2.182l-3.5,2.622c-4.561.232-8.978,3.866-8.5,8.7C.584,48.423-1.054,53.658,3.217,54.332ZM9.44,38.918c.792.88,1.205,2.816,2.715,2.356.367.626.736,1.277,1.1,1.9q-.322,3.525-.644,7.049A18.55,18.55,0,0,1,9.44,38.918Zm3.3-4.24,2.478,2.478c-1.048,1.045-1.974,2.255-3.093,3.21-.81-1.137-1.542-2.327-2.34-3.472Zm6.167.007,3.341,2.5-2.16,3.2c-1.107-1.184-2.222-2.369-3.331-3.554Zm2.7,11.325a17.907,17.907,0,0,1-2.181,4.444q-.345-3.768-.689-7.536c.348-.525.639-1.091.965-1.63,1.524-.006,2-1.6,2.793-2.613A18.369,18.369,0,0,1,21.605,46.01Zm-5.742-8.184c.911.977,1.82,1.957,2.741,2.925l-1.045,1.8H14.578q-.6-1.034-1.2-2.067ZM13.912,51.908q.387-4.227.773-8.455H17.3c.284,2.912.5,5.856.819,8.753-1.232,1.98-3.091,1.525-4.222-.256C13.9,51.935,13.911,51.923,13.912,51.908Zm3.99,1.735c4.575-3.822,6.719-10.3,5.936-16.16a8.953,8.953,0,0,1,2.47.858c-.306,1.591.748,2.333,1.964,2.8-.006,4.167.011,8.333-.006,12.5Zm10.75-17.3.821-1.76c4.221,1.142,8.468,2.551,12.711,3.551-1.339,2.138-1.969,6.267-5.281,4.346L31.227,40.79C28.357,40.259,26.637,39.269,28.652,36.34Zm3.817,19.138c-1.016-.362-2.939-.306-2.741-1.82V41.612c4.142.68,10.68,5.437,12.542-.74v17.4Zm23.8-1.134c-.081.675-.535.613-1.12.78-3.814,1.115-7.634,2.113-11.422,3.319V41.035c1.965,5.861,8.481.724,12.542.281C56.258,45.657,56.293,50.009,56.272,54.344ZM58.142,38.2a1.666,1.666,0,0,1-.767,2.126c-4.294.576-9.714,3.56-11.355,1.919-1.125-1.125-1.476-2.834-2.2-4.251,4.19-1.182,8.374-2.392,12.561-3.584C56.973,35.657,57.655,36.9,58.142,38.2Zm-17.35-7.4a5.491,5.491,0,0,1,3.2-.134c3.93,1.2,7.888,2.3,11.832,3.45-4.155,1.132-8.141,2.449-12.347,3.435-4.476-.89-8.869-2.5-13.311-3.654ZM3.735,10.99C3.61,5.18,8.9.9,14.531,1.548c2.432.391,12.638-1.607,7.03,3.066-4.033-.258-4.569,1.106-.114.772,5.02-.109,7.5,3.511,6.832,8.329a2.856,2.856,0,0,0-3.018.436c-1.646-2.906-5.833-1.569-8.067-3.848a2.11,2.11,0,0,0-2.581.31c-2.252,1.84-6.035.983-7.754,3.5a2.789,2.789,0,0,0-3.131-.289C3.724,12.879,3.723,11.934,3.735,10.99Zm3,10.956c0-.377-.35-.48-.671-.48C3.2,21.339,3.807,17.887,3.735,15.94c.188-2.034,2.4-1.5,2.541.254.05.625,1.458.336,1.458-.248a2.771,2.771,0,0,1,1.011-2.192c1.509-.871,3.489-.639,5.059-1.474.35-.146,1.992-1.306,2.274-1.136,1.961,1.859,4.856,1.565,7.1,2.7a2.87,2.87,0,0,1,1.088,2.214c0,.761,1.415.549,1.468-.108.151-1.865,2.285-1.652,2.524.028-.072,1.924.649,5.372-2.2,5.492-.285,0-.8.247-.8.588C25.16,34.457,6.846,34.192,6.734,21.946Zm9.2,10.588a11.116,11.116,0,0,0,2.335-.3c.009.63-.017,1.266.009,1.893l-2.106,2.107-2.451-2.45V32.3A10.722,10.722,0,0,0,15.937,32.534ZM1.724,43.908a7.065,7.065,0,0,1,6.511-6.517c-.981,5.762,1.073,12.442,5.558,16.252C3.474,53.221.833,56.552,1.724,43.908Z" fill="#262626"/><path d="M20.672,25c-.615-2.094-3.687,4.829-8-.282C7.972,24.4,16.821,30.536,20.672,25Z" fill="#262626"/></svg>
