<svg height="512" viewBox="0 0 48 60" width="512" xmlns="http://www.w3.org/2000/svg"><g id="034---Zebra" fill="none"><path id="Path" d="m22.187 13.54c-.2066302-.0004952-.3916707-.128044-.4656538-.320976-.0739831-.1929321-.0216668-.4114994.1316538-.550024l3.268-2.946-5.841 3.377c-.2317427.1353654-.5290201.0636298-.6735243-.1625272-.1445041-.2261571-.084687-.5260601.1355243-.6794728l.849-.6-.311.179c-.2298251.1278768-.5194281.0558458-.6625685-.1647961s-.0908781-.5144564.1195685-.6722039l2.134-1.55-1.592.919c-.2300482.1308569-.5222207.059778-.6664488-.1621318-.1442281-.22190986-.0905463-.51777335.1224488-.6748682l2.214-1.611-1.67.964c-.227731.12816214-.5157443.059345-.6609391-.15792306-.1451949-.21726806-.0985947-.50969906.1069391-.67107694l3.064-2.351-2.51 1.448c-.226507.12916814-.5142486.06258554-.6609917-.15295162-.1467432-.21553715-.103215-.50765663.0999917-.67104838l1.882-1.492-1.318.76c-.2247363.12921654-.510959.06523842-.6592891-.14736806s-.1095663-.50331938.0892891-.66963194l.525-.439c-.2040772.09204877-.4444683.0372221-.5884527-.13421001-.1439844-.1714321-.1564634-.41768027-.0305473-.60278999l.762-1.123c-.2333604.02198269-.4506691-.12109353-.5226987-.34414519s.020556-.46620141.2226987-.58485481l1.627-.943c.2014682-.11682992.4569181-.07909301.616.091.1587216.17053837.1786294.42809634.048.621l-.706 1.041 3.061-1.762c.2243164-.12648954.5080183-.06191323.6554889.14920259.1474706.21111583.1104702.49971211-.0854889.66679741l-.515.43 2.16-1.246c.2266681-.13175582.5166136-.0660514.6643416.15054615.1477279.21659755.1030619.51052002-.1023416.67345385l-1.879 1.489 3.276-1.89c.228437-.13504779.5225838-.06811251.6700912.15248419s.0969864.51800267-.1150912.67751581l-3.064 2.347 3.261-1.883c.2300482-.13085689.5222207-.05977797.6664488.16213184.1442281.22190982.0905463.51777331-.1224488.67486816l-2.215 1.614 1.743-1c.2304184-.13223644.5240189-.06118928.6684864.16176419.1444674.22295348.0893536.51995759-.1254864.67623581l-2.133 1.54 1.594-.919c.2310609-.12980827.523268-.05677568.6660866.16647793.1428185.2232536.086628.51916126-.1280866.67452207l-.851.6.316-.183c.220007-.11952609.4945025-.05789392.6422936.14421346.147791.20210737.1233056.48236936-.0572936.65578654l-3.269 2.946 2.691-1.552c.2113234-.12167321.4795951-.07316036.6349231.11481618.155328.18797653.1524028.46058365-.0069231.64518382l-1.445 1.664.823-.474c.17411-.10075.3916429-.0873499.5520709.0340079s.2325077.3270387.1829291.5219921l-.279 1.089c.0964382.0432331.1768824.1156329.23.207.1380647.2391402.0561341.5449248-.183.683l-.5.29c-.1740589.1000931-.3911093.0863566-.5511607-.0348813-.1600515-.1212379-.2320547-.3264576-.1828393-.5211187l.205-.808-2.378 1.373c-.2115954.1229666-.4811022.0747006-.6368709-.1140573-.1557686-.1887578-.1520147-.4625268.0088709-.6469427l1.445-1.665-4.22 2.436c-.0758031.044382-.1621615.067526-.25.067z" fill="#636c76"/><path id="Path" d="m33.455 12.772c-.2189527-.0001291-.4123522-.1427006-.4772424-.3518168-.0648902-.2091161.0138253-.4361269.1942424-.5601832l1.606-1.1-.254.146c-.2319831.1309881-.5259285.0570795-.6683699-.1680527-.1424414-.2251321-.0833463-.52241.1343699-.6759473l.743-.512c-.1951335.02912752-.3896419-.05645616-.5-.22-.1459084-.22197999-.0927676-.51930477.121-.677l2.069-1.527-1.244.718c-.2256098.13119678-.5141774.06680355-.6626093-.14785982-.1484318-.21466336-.1067938-.50738169.0956093-.67214018l2.5-2.039-1.775 1.024c-.2115312.12161827-.4799523.07279453-.6351088-.11552142s-.1517294-.46111972.0081088-.64547858l1.866-2.148c-.2413017.12534205-.5385351.0348713-.6690845-.2036533s-.0465507-.53765148.1890845-.6733467l2.563-1.479c.2115954-.12296659.4811022-.07470058.6368709.11405728.1557686.18875786.1520147.46252683-.0088709.64694272l-1.864 2.144 4.577-2.639c.2256098-.13119678.5141774-.06680355.6626093.14785982.1484318.21466336.1067938.50738169-.0956093.67214018l-2.5 2.041 3.558-2.054c.2295527-.13149209.521805-.0614183.6667704.15987256.1449654.22129087.0924688.51720615-.1197704.67512744l-2.072 1.529 2.61-1.507c.2327682-.13793867.5330334-.06569054.677577.16303478s.0809181.53093515-.143577.68196522l-.4.274.507-.292c.2324067-.13284986.5282158-.05908515.6710333.16733285s.0819688.52515148-.1380333.67766715l-1.609 1.1 1.681-.971c.23893-.13584515.5427102-.05337078.6801373.18465285.137427.23802363.0569695.54234426-.1801373.68134715l-12.751 7.364c-.0758978.0441549-.1621931.067282-.25.067z" fill="#d3d9dc"/><path id="Path" d="m11.007 23.962c-.2152152 0-.4062846-.137715-.4743416-.3418861-.0680571-.2041711.0021694-.4289848.1743416-.5581139l5.7-4.351-8.449 4.878c-.23093065.1317312-.52456739.0597083-.66833375-.1639283s-.0873821-.520673.12833375-.6760717l3.754-2.673-4.917 2.838c-.22871944.1310429-.51988771.0620127-.66543532-.1577616-.14554761-.2197742-.09547523-.5147944.11443532-.6742384l4.143-3.112-5.157 2.975c-.2313261.1333882-.5266402.061466-.67072696-.1633522-.14408676-.2248181-.08608875-.5231794.13172696-.6776478l2.242-1.583-2.668 1.54c-.22914324.1380567-.52635802.0712921-.6744416-.1515028-.14808359-.2227948-.09456637-.5226782.1214416-.6804972l4.708-3.575-5.243 3.027c-.23055066.1302945-.52270695.0582293-.66621925-.1643342-.14351231-.2225634-.08860007-.5184238.12521925-.6746658l3.158-2.259-3.254 1.878c-.227731.1281621-.51574432.059345-.66093914-.1579231-.14519482-.217268-.09859462-.509699.10693914-.6710769l5.51-4.221-5.526 3.189c-.23004825.1308569-.52222067.059778-.6664488-.1621318-.14422813-.2219099-.09054634-.5177734.1224488-.6748682l4.206-3.058-3.812 2.2c-.22961117.1324477-.52268204.0626898-.668-.159-.14526378-.2217771-.09217342-.5183811.121-.676l4.7-3.468-4.153 2.398c-.22920156.1303039-.52019781.0602449-.66497921-.1600976-.14478139-.2203425-.09359105-.5152436.11697921-.6739024l4.5-3.337-3.952 2.284c-.23018285.1290216-.52100516.0569569-.66431246-.1646141-.1433073-.2215711-.08976142-.5163656.12231246-.6733859l2.792-2.014-2.251 1.3c-.2314518.13131281-.52520132.05833565-.66829177-.16602591s-.08538078-.52148787.13129177-.67597409l.833-.586-.275.159c-.22758907.12988968-.51685108.06203201-.66293484-.15551719-.14608376-.21754919-.09942429-.51097732.10693484-.67248281l2.614-2.023-1.786 1.032c-.21842027.12768021-.49779411.07208516-.65069351-.12948722-.15289941-.20157238-.13113426-.48559145.05069351-.66151278l2.146-2.092c-.20055748.02355654-.3962774-.07273766-.5-.246-.13823272-.23887839-.05677133-.54458242.182-.683l3.163-1.824c.21842027-.12768021.49779411-.07208516.65069351.12948722.15289941.20157238.13113426.48559145-.05069351.66151278l-2.036 1.984 4.759-2.747c.22758907-.12988968.51685108-.06203201.66293484.15551719.14608376.21754919.09942426.51097732-.10693484.67248281l-2.615 2.022 3.546-2.047c.2317427-.13536544.5290201-.06362981.6735243.16252724.1445041.22615705.084687.52606004-.1355243.67947276l-.834.587 1.106-.639c.2301828-.12902161.5210052-.05695693.6643125.16461413.1433073.22157107.0897614.51636553-.1223125.67338587l-2.786 2.01 2.936-1.7c.2292016-.13030393.5201978-.0602449.6649792.1600976.1447814.22034249.0935911.51524355-.1169792.6739024l-4.5 3.34 4.357-2.511c.2295527-.13149209.521805-.0614183.6667704.15987256.1449654.22129087.0924688.51720615-.1197704.67512744l-4.7 3.467 4.312-2.488c.2300482-.13085689.5222207-.05977797.6664488.16213184.1442281.22190982.0905463.51777331-.1224488.67486816l-4.2 3.057 3.933-2.271c.227731-.12816214.5157443-.059345.6609391.15792306.1451949.21726806.0985947.50969906-.1069391.67107694l-5.512 4.223 5.514-3.183c.2305507-.1302945.5227069-.0582293.6662193.1643342.1435123.2225634.0886.5184238-.1252193.6746658l-3.151 2.254 3.191-1.843c.2285788-.1329729.5211739-.064966.667677.1551861.1465031.220152.0962484.5163129-.114677.6758139l-4.709 3.577 5.245-3.028c.2313261-.1333882.5266402-.061466.670727.1633522.1440867.2248181.0860887.5231794-.131727.6776478l-2.237 1.581 2.876-1.66c.2287194-.1310429.5198877-.0620127.6654353.1577616.1455476.2197742.0954752.5147944-.1144353.6742384l-4.146 3.114 6.838-3.947c.2309306-.1317312.5245674-.0597083.6683337.1639283.1437664.2236366.0873821.520673-.1283337.6760717l-3.758 2.675 6.093-3.516c.228242-.1318458.5196375-.063862.6659708.1553737.1463332.2192358.0973404.5144185-.1119708.6746263l-5.7 4.349 8.975-5.181c.2287194-.1310429.5198877-.0620127.6654353.1577616.1455476.2197742.0954752.5147944-.1144353.6742384l-5.47 4.113 8.57-4.947c.2314518-.1313128.5252013-.0583356.6682918.1660259.1430904.2243616.0853808.5214879-.1312918.6759741l-3.613 2.533 19.479-11.25c.2356087-.12976469.5316571-.04987998.6700067.18079237.1383496.23067236.0694166.52946069-.1560067.67620763l-.62.385.253-.145c.2322377-.12731148.5234633-.05144622.664069.17299225.1406056.22443847.0818101.51958413-.134069.67300775l-11.727 7.926 11.249-6.495c.2343611-.12889229.5286543-.05052268.6678755.17785371.1392213.22837639.0740613.52587339-.1478755.67514629l-3.777 2.433 3.257-1.88c.2340569-.1357068.5336008-.0606207.6759704.1694442s.0759129.5316408-.1499704.6805558l-5 3.32 4.475-2.583c.2314518-.1313128.5252013-.0583356.6682918.1660259.1430904.2243616.0853808.5214879-.1312918.6759741l-5.84 4.1 5.3-3.06c.2310609-.1298083.523268-.0567757.6660866.1664779.1428185.2232536.086628.5191613-.1280866.6745221l-3.317 2.34 2.565-1.481c.2236156-.1271011.5071788-.0638125.6555296.1463081s.1130835.4985123-.0815296.6666919l-4.042 3.452 2.145-1.237c.2374252-.1242009.5305531-.0391619.6646466.1928199.1340935.2319817.0614797.5284321-.1646466.6721801l-6.868 3.965c-.2236156.1271011-.5071788.0638125-.6555296-.1463081s-.1130835-.4985123.0815296-.6666919l4.044-3.452-7.383 4.265c-.2310609.1298083-.523268.0567757-.6660866-.1664779-.1428185-.2232536-.086628-.5191613.1280866-.6745221l3.319-2.341-5.512 3.182c-.2314518.1313128-.5252013.0583356-.6682918-.1660259-.1430904-.2243616-.0853808-.5214879.1312918-.6759741l5.834-4.1-8.566 4.943c-.2340569.1357068-.5336008.0606207-.6759704-.1694442s-.0759129-.5316408.1499704-.6805558l5-3.322-7.227 4.172c-.2343611.1288923-.5286543.0505227-.6678755-.1778537-.1392213-.2283764-.0740613-.5258734.1478755-.6751463l3.777-2.434-5.684 3.287c-.2333681.1382671-.5344194.0652417-.6785003-.1645824-.144081-.2298241-.078635-.5326135.1475003-.6824176l11.731-7.927-15.2 8.774c-.2369302.1419372-.5440628.0649302-.686-.172s-.0649302-.5440628.172-.686l.631-.391-2.164 1.249c-.2314518.1313128-.5252013.0583356-.6682918-.1660259-.1430904-.2243616-.0853808-.5214879.1312918-.6759741l3.615-2.534-5.849 3.376c-.2287194.1310429-.5198877.0620127-.6654353-.1577616-.1455476-.2197742-.0954752-.5147944.1144353-.6742384l5.468-4.113-8.562 4.951c-.0764888.0421448-.1626821.0635207-.25.062z" fill="#d3d9dc"/><path id="Path" d="m13.55 53.437c-.223241.000448-.4197315-.1471482-.4814898-.3616772-.0617583-.2145289.0261806-.4440064.2154898-.5623228l5.343-3.343-5.927 3.43c-.2361735.1361818-.537908.0580681-.6783318-.1756081-.1404239-.2336761-.0677709-.5367718.1633318-.6813919l6.825-4.276-7.369 4.254c-.2347713.1336383-.5332399.0566316-.6740509-.1739091-.1408109-.2305408-.0730402-.5312411.1530509-.6790909l13.634-8.782-14.393 8.302c-.2347713.1336383-.53323995.0566316-.67405087-.1739091-.14081092-.2305408-.07304023-.5312411.15305087-.6790909l14.927-9.642-15.66 9.04c-.23543794.13455-.53521485.0569022-.67572813-.1750261s-.0705395-.5335888.15772813-.6799739l13.158-8.384-13.517 7.806c-.23473446.1238045-.5252986.0426548-.6619149-.1848618-.13661629-.2275167-.07168534-.5221296.1479149-.6711382l7.8-4.866-7.971 4.6c-.15290967.0923532-.34347386.0961147-.49990887.0098676-.15643502-.0862471-.25497466-.2493998-.2585-.428-.00352534-.1786003.0884992-.3455144.24140887-.4378676l10.833-6.822-10.91 6.3c-.23620749.133071-.53543293.0536509-.67455995-.1790411-.13912701-.2326919-.06746125-.5338687.16155995-.6789589l3.662-2.257-3.575 2.063c-.23448097.1270728-.52742279.0477401-.66573664-.1802909-.13831386-.2280309-.07330581-.5244809.14773664-.6737091l12.923-8.214-12.887 7.439c-.23424781.1308833-.53004345.0535271-.67022619-.1752769-.14018273-.228804-.07476503-.527467.14822619-.6767231l15.179-9.795-15.022 8.675c-.15308831.0921745-.34372226.0956757-.50009189.0091846s-.25471867-.2498344-.258-.4285c-.00328132-.1786657.08900358-.3455101.24209189-.4376846l8.565-5.37-8.314 4.8c-.23637787.1427656-.54373437.0668778-.68649997-.1695-.1427656-.2363779-.06687788-.5437344.16949997-.6865l10.009-6.326-9.618 5.552c-.23460579.1253855-.5263122.0451285-.66376043-.18262s-.07251115-.523243.14776043-.67238l7.954-5-7.343 4.235c-.23560872.1297647-.5316571.04988-.67000668-.1807924-.13834959-.2306723-.06941665-.5294607.15600668-.6762076l2.178-1.35-1.57.906c-.2341443.133112-.53165209.0568382-.67287099-.1725078-.1412189-.2293459-.07539606-.5293391.14887099-.6784922l12.589-8.218-11.654 6.732c-.23497088.1292146-.53003872.050062-.66879247-.179405-.13875376-.2294671-.07178369-.5275361.15179247-.675595l4.36-2.745-3.507 2.025c-.23472102.145527-.54297296.073221-.68849999-.1615s-.07322102-.542973.16149999-.6885l11.016-7.3-9.632 5.56c-.2327769.1270897-.52428602.0503218-.66427406-.174934-.13998804-.2252559-.07974688-.5206233.13727406-.673066l8.62-5.734-7 4.042c-.23389628.1269547-.52624912.04845-.66508708-.1785941-.13883795-.227044-.07550148-.5230536.14408708-.6734059l1.935-1.246-.493.284c-.23210925.1290838-.52463723.0541763-.66613933-.170578-.1415021-.2247542-.08259625-.5209195.13413933-.674422l5.379-3.688-3.141 1.81c-.225024.1298327-.5119893.0657046-.6603401-.147566-.14835085-.2132706-.108657-.5046224.0913401-.670434l4.781-3.941c-.2230621-.0068474-.4145793-.1606898-.4693604-.3770289-.0547812-.2163391.0404389-.4427888.2333604-.5549711l4.6-2.654c.2253151-.1304911.5130605-.0662242.6614447.1477312.1483843.2139555.1077334.5059746-.0934447.6712688l-4.43 3.653 9.137-5.275c.2314574-.1247242.5199691-.0488817.6601699.1735422.1402009.2224239.0841872.5154316-.1281699.6704578l-5.383 3.691 7.148-4.127c.2338963-.1269547.5262491-.04845.6650871.1785941.1388379.227044.0755015.5230536-.1440871.6734059l-1.926 1.242 2.807-1.624c.2327769-.1270897.524286-.0503218.6642741.174934.139988.2252559.0797468.5206233-.1372741.673066l-8.621 5.732 9.927-5.731c.2340569-.1357068.5336008-.0606207.6759704.1694442s.0759129.5316408-.1499704.6805558l-11.017 7.3 12.23-7.059c.2346058-.1253855.5263122-.0451285.6637604.18262.1374483.2277485.0725112.523243-.1477604.67238l-4.36 2.744 4.846-2.8c.2337734-.1287456.5274505-.051198.667188.1761759.1397374.2273739.07627.5244122-.144188.6748241l-12.59 8.214 13.455-7.768c.2369302-.1419372.5440628-.0649302.686.172s.0649302.5440628-.172.686l-2.157 1.337 2.4-1.387c.2349709-.1292146.5300387-.050062.6687925.179405.1387537.2294671.0717837.5275361-.1517925.675595l-7.976 5.029 8.416-4.858c.2354379-.13455.5352149-.0569022.6757281.1750261.1405133.2319283.0705395.5335888-.1577281.6799739l-10 6.318 10.39-6c.2361735-.1361818.537908-.0580681.6783318.1756081.1404239.2336761.0677709.5367718-.1633318.6813919l-8.564 5.37 8.856-5.112c.2342478-.1308833.5300435-.0535271.6702262.1752769s.074765.527467-.1482262.6767231l-15.184 9.8 15.637-9.03c.234481-.1270728.5274228-.0477401.6657366.1802909.1383139.2280309.0733058.5244809-.1477366.6737091l-12.911 8.21 13.168-7.6c.2333322-.1115276.5132082-.0267177.6453857.1955691.1321776.2222868.073033.5086872-.1363857.6604309l-3.68 2.271 3.651-2.107c.2355125-.13196.5332497-.0531389.6726204.1780652.1393708.2312042.0700423.5312938-.1566204.6779348l-10.836 6.822 10.955-6.324c.2350866-.127347.5287583-.0472199.6665908.1818764.1378325.2290964.071048.5260868-.1515908.6741236l-7.808 4.867 7.732-4.461c.2354379-.13455.5352149-.0569022.6757281.1750261.1405133.2319283.0705395.5335888-.1577281.6799739l-13.163 8.385 13.192-7.616c.2347713-.1336383.5332399-.0566316.6740509.1739091.1408109.2305408.0730402.5312411-.1530509.6790909l-14.913 9.637 14.866-8.582c.2335877-.1237383.5231326-.0442789.6608429.1813541s.0760007.5194731-.1408429.6706459l-13.633 8.779 13.492-7.79c.236654-.1424895.5440105-.066154.6865.1705s.066154.5440105-.1705.6865l-6.842 4.287 6.452-3.725c.236654-.1424895.5440105-.066154.6865.1705s.066154.5440105-.1705.6865l-5.342 3.342 4.926-2.844c.2333291-.1269664.5252099-.0493179.6646076.1768043.1393976.2261221.0776459.5217747-.1406076.6731957l-11.127 7.3 10.6-6.121c.2329673-.1327691.5291919-.0581284.6714287.1691822.1422368.2273105.0798406.5263539-.1414287.6778178l-10.573 7.169 9.592-5.538c.2329061-.1254293.5232086-.0477402.6623373.1772508s.0789338.5194187-.1373373.6717492l-5.063 3.348 4.21-2.43c.2296891-.1296297.5205695-.0585592.6646041.1623819s.0916869.5157667-.1196041.6736181l-7.134 5.224 5.532-3.193c.2279124-.1308241.5182022-.0628918.6643976.1554793.1461953.2183711.0983971.512647-.1093976.6735207l-4.159 3.2 1.972-1.14c.2254634-.1287726.5119753-.0635416.6594703.1501437.1474949.2136853.1068861.5047094-.0934703.6698563l-2.3 1.867c.0848055.0456538.1543462.1151945.2.2.1380647.2391402.0561341.5449248-.183.683l-3.846 2.221c-.2254634.1287726-.5119753.0635416-.6594703-.1501437-.1474949-.2136853-.1068861-.5047094.0934703-.6698563l1.181-.96-3.086 1.781c-.2279124.1308241-.5182022.0628918-.6643976-.1554793-.1461953-.2183711-.0983971-.512647.1093976-.6735207l4.159-3.2-6.97 4.025c-.2296891.1296297-.5205695.0585592-.6646041-.1623819s-.0916869-.5157667.1196041-.6736181l7.138-5.223-10.5 6.06c-.233204.1287421-.5263939.0520483-.6666872-.1743946-.1402933-.226443-.0784231-.5231151.1406872-.6746054l5.065-3.35-7.275 4.2c-.2322377.1273115-.5234633.0514462-.664069-.1729923-.1406056-.2244384-.0818101-.5195841.134069-.6730077l10.579-7.174-13.896 8.021c-.2336556.130691-.5287926.0541466-.6694787-.1736308-.140686-.2277774-.0769932-.5259521.1444787-.6763692l11.129-7.3-14.114 8.151c-.0759114.0442382-.1621395.0676923-.25.068z" fill="#d3d9dc"/><g fill="#636c76"><path id="Path" d="m25.53 59.341c-.2122369.0000468-.4013779-.1339006-.471791-.3341167-.0704131-.2002162-.0067538-.4230698.158791-.5558833l4.372-3.525-7.446 4.3c-.2290632.1321979-.5214568.063148-.6671806-.1575572-.1457237-.2207053-.094369-.5167199.1171806-.6754428l6.071-4.538-8.206 4.738c-.2312043.1356861-.5282776.0648879-.6734329-.160492-.1451554-.2253799-.0867349-.525133.1324329-.679508l6.489-4.636-7.906 4.566c-.2340569.1357068-.5336008.0606207-.6759704-.1694442s-.0759129-.5316408.1499704-.6805558l2.562-1.7-3.1 1.791c-.2333482.1425022-.537887.0711396-.6836338-.1601958-.1457468-.2313355-.0786439-.5368412.1506338-.6858042l5.85-4-6.524 3.767c-.2313521.120722-.5166391.0432221-.6551097-.1779645-.1384706-.2211865-.0835524-.5116669.1261097-.6670355l3.2-2.1-3.49 2.008c-.2327769.1270897-.524286.0503218-.6642741-.174934-.139988-.2252559-.0797468-.5206233.1372741-.673066l5.632-3.76-5.743 3.314c-.2330829.1306613-.5277074.0549657-.6689423-.1718661-.1412349-.2268319-.0791592-.5246238.1409423-.6761339l5.674-3.794-5.513 3.182c-.2309306.1317312-.5245674.0597083-.6683337-.1639283-.1437664-.2236366-.0873821-.520673.1283337-.6760717l7.835-5.577-7.237 4.179c-.23265.1288599-.5254615.0530472-.6663444-.1725252s-.0805297-.5219566.1373444-.6744748l.843-.57c-.1957861.02875-.3905711-.058124-.5-.223-.1439982-.223286-.0882171-.5201997.127-.676l1.587-1.146c-.2237448.0880863-.478503.0044315-.6064739-.1991474s-.0929064-.4694179.0834739-.6328526l2.387-2.193-1.318.76c-.2046772.1209079-.4664445.0788906-.623-.1-.1578197-.177067-.1695159-.4406502-.028-.631l1.256-1.7c-.241441.1144677-.5302142.0188738-.6556644-.2170475s-.043238-.5287852.1866644-.6649525l2.054-1.176c.2052485-.117948.4650826-.0757972.6225191.1009864.1574365.1767835.1693242.4397458.0284809.6300136l-1.253 1.689 3.167-1.829c.2203354-.1244491.4989119-.0646624.6487785.1392378.1498666.2039001.1237692.4876223-.0607785.6607622l-2.391 2.2 4.49-2.592c.2304184-.1322364.5240189-.0611893.6684864.1617642.1444674.2229535.0893536.5199576-.1254864.6762358l-1.543 1.114 3.227-1.863c.23265-.1288599.5254615-.0530472.6663444.1725252s.0805297.5219566-.1373444.6744748l-.443.3 4.021-2.322c.2312043-.1356861.5282776-.0648879.6734329.160492.1451554.2253799.0867349.525133-.1324329.679508l-7.839 5.579 9.551-5.513c.2334461-.1352991.5321345-.0609722.6749447.1679561.1428102.2289282.0782242.5298733-.1459447.6800439l-5.667 3.789 5.886-3.4c.2340027-.1389988.5362016-.0652981.6799386.1658244s.0762078.5347601-.1519386.6831756l-5.632 3.758 5.25-3.03c.2341443-.133112.5316521-.0568382.672871.1725078.1412189.2293459.075396.5293391-.148871.6784922l-3.212 2.109 2.786-1.607c.2321092-.1290838.5246372-.0541763.6661393.170578.1415021.2247542.0825963.5209195-.1341393.674422l-5.85 4 6-3.466c.2340569-.1357068.5336008-.0606207.6759704.1694442s.0759129.5316408-.1499704.6805558l-2.553 1.689 2.634-1.52c.2308197-.1331701.5255201-.0619142.67.162.144878.2242014.0880899.5226686-.129.678l-6.488 4.639 6.581-3.8c.2288588-.1292299.518701-.0592157.6633326.1602346.1446317.2194502.0946742.513414-.1143326.6727654l-6.068 4.535 5.7-3.291c.2260575-.1301558.5141897-.0646595.6617686.1504288.1475789.2150884.1050107.5074886-.0977686.6715712l-4.373 3.525 3.038-1.752c.2374252-.1242009.5305531-.0391619.6646466.1928199.1340935.2319817.0614797.5284321-.1646466.6721801l-8.611 4.973c-.0757806.0445497-.1620945.0680271-.25.068z"/><path id="Path" d="m29.021 20.29c-.2007448.0004069-.3822695-.1192858-.4609783-.3039573-.0787089-.1846715-.0393393-.3985116.0999783-.5430427l1.6-1.664-1.072.618c-.2081694.1205179-.4726501.07573-.6295333-.1066069-.1568831-.1823369-.1617005-.4505398-.0114667-.6383931l1.064-1.328-.61.352c-.1793821.1039944-.4043369.0864832-.5654652-.0440174-.1611284-.1305007-.2249927-.3469092-.1605348-.5439826l.518-1.583-.107.061c-.1565653.0904633-.3497742.0893458-.5052826-.0029225-.1555085-.0922684-.249083-.261309-.2447174-.4420775l.017-.675c-.0643038-.0420163-.1174842-.0989708-.155-.166-.1373847-.2389169-.0555349-.543953.183-.682l.236-.137c.1565653-.0904633.3497742-.0893458.5052826.0029225.1555085.0922684.249083.261309.2447174.4420775l-.009.349.466-.269c.1793334-.1032852.4037628-.0854174.5644948.0449417.160732.1303592.224545.346266.1605052.5430583l-.517 1.583 1.781-1.028c.2081694-.1205179.4726501-.07573.6295333.1066069.1568831.1823369.1617005.4505398.0114667.6383931l-1.067 1.326 1.818-1.049c.2157843-.1245835.4903641-.0712785.6438596.1249944s.1390557.4756061-.0338596.6550056l-1.6 1.665.931-.537c.1549945-.0985297.351531-.1041539.5119064-.0146489.1603754.0895049.2587712.2597296.2562855.4433739s-.1054527.3511436-.2681919.436275l-3.977 2.3c-.0754089.0434634-.1609626.0662317-.248.066z"/><path id="Path" d="m35.337 24.326c-.1825255-.0001724-.3504538-.0997918-.4381045-.2598947-.0876506-.1601029-.0810943-.3552464.0171045-.5091053l1.061-1.657-2.308 1.331c-.2145165.1213913-.4854956.0683443-.6384044-.1249743s-.1421256-.4692305.0254044-.6500257l2.667-2.829c-.0113789-.1890345.0850161-.3682751.249-.463l.476-.275c.2145941-.1228235.486738-.0703506.6402819.1234548.1535438.1938053.142373.4707366-.0262819.6515452l-.94 1 1.136-.655c.1991787-.1171939.4529887-.0806386.611.088.1589285.1664654.1836957.4199166.06.614l-1.061 1.652 1.416-.816c.1598241-.0923202.3575096-.0890835.5142257.0084195.1567161.0975029.2469712.2734121.2347743.4575805l-.054.806.062-.035c.1549945-.0985297.351531-.1041539.5119064-.0146489.1603754.0895049.2587712.2597296.2562855.4433739s-.1054527.3511436-.2681919.436275l-.873.5c-.1598241.0923202-.3575096.0890835-.5142257-.0084195-.1567161-.0975029-.2469712-.2734121-.2347743-.4575805l.054-.806-2.386 1.377c-.0753031.0461342-.161694.0710148-.25.072z"/><path id="Path" d="m18.621 20.369c-.1501613.0000306-.2923859-.0674279-.3873681-.1837327-.0949823-.1163048-.1326642-.2691398-.1026319-.4162673l.16-.8-1.043.6c-.2100901.1220992-.4775473.0754755-.6339316-.1105084s-.1564132-.4574745-.0000684-.6434916l.352-.422-.79.457c-.2117396.1215681-.4803142.0724346-.6353005-.1162229-.1549864-.1886576-.1510546-.4616611.0093005-.6457771l1.542-1.761-2.15 1.241c-.2230711.126215-.5054574.0633143-.6538691-.1456472-.1484117-.2089616-.1147824-.4963073.0778691-.6653528l1.029-.885-.208.128c-.1549945.0985297-.351531.1041539-.5119064.0146489-.1603754-.0895049-.2587712-.2597296-.2562855-.4433739s.1054527-.3511436.2681919-.436275l4.818-2.781c.2230711-.126215.5054574-.0633143.6538691.1456472.1484117.2089616.1147824.4963073-.0778691.6653528l-1.025.883.156-.09c.2117396-.1215681.4803142-.0724346.6353005.1162229.1549864.1886576.1510546.4616611-.0093005.6457771l-1.538 1.756.608-.351c.2098266-.1208975.4761297-.0740509.632101.1111958.1559714.1852467.1567714.4556378.001899.6418042l-.508.608c.144846.0086239.2788015.0797461.3670865.1949004.0882849.1151542.1221905.2629814.0929135.4050996l-.239 1.193c.0558288.0406041.1022214.0927958.136.153.1370499.2394402.0542615.5446384-.185.682l-.331.191c-.077475.0435258-.1651504.0656173-.254.064z"/><path id="Path" d="m11.78 24.429c-.1714087.0000379-.33089-.0877307-.4225737-.2325584-.0916836-.1448277-.1027892-.326526-.0294263-.4814416l.562-1.185-2.613 1.508c-.22063558.1300292-.50385102.072325-.65602439-.1336626-.15217338-.2059876-.12410138-.4936554.06502439-.6663374l.476-.445c-.11999443-.0167575-.2299928-.0760147-.31-.167-.15726601-.179929-.1652269-.4459901-.019-.635l1.718-2.219c-.0738407-.2248402.0200611-.4706545.225-.589l.5-.289c.2069406-.1201272.4699834-.0768007.6274641.1033514s.1652513.446626.0185359.6356486l-.743.959.922-.531c.2206356-.1300292.503851-.072325.6560244.1336626s.1241014.4936554-.0650244.6663374l-.141.133.224-.13c.1893664-.1078239.426756-.0805881.586782.0673217.160026.1479097.2058297.3824254.113218.5796783l-.561 1.184 1.073-.619c.1549945-.0985297.351531-.1041539.5119064-.0146489.1603754.0895049.2587712.2597296.2562855.4433739s-.1054527.3511436-.2681919.436275l-2.457 1.42c-.0759114.0442382-.1621395.0676923-.25.068z"/><path id="Path" d="m41.736 43.07c-.1697185-.0002009-.3277477-.0864811-.4196877-.2291396-.09194-.1426586-.1052365-.3222156-.0353123-.4768604l.154-.339-1.121.647c-.2135054.1227461-.4845965.071745-.6388985-.1201978-.1543021-.1919428-.1458589-.4676604.0198985-.6498022l.521-.57-1.927 1.112c-.2115312.1216183-.4799523.0727945-.6351088-.1155214-.1551565-.188316-.1517294-.4611197.0081088-.6454786l1.183-1.354-.376.217c-.1549945.0985297-.351531.1041539-.5119064.0146489-.1603754-.0895049-.2587712-.2597296-.2562855-.4433739s.1054527-.3511436.2681919-.436275l2.981-1.721c.2118048-.1229211.4814696-.0743461.6370693.114756.1555997.189102.1513375.4630737-.0100693.647244l-1.177 1.351 2.118-1.222c.2132183-.1213577.4829881-.0700899.6368234.1210238.1538354.1911136.146285.465608-.0178234.6479762l-.634.694c.1756833-.0119498.3447005.0693945.4449642.2141516.1002638.144757.1169905.3315829.0440358.4918484l-.437.965c.0215681.0250983.040657.0522247.057.081.1382327.2388784.0567713.5445824-.182.683l-.44.254c-.0771818.0445726-.1648751.0677043-.254.067z"/><path id="Path" d="m5.974 43.164c-.19777635-.000109-.37690198-.1167863-.45694546-.2976414-.08004349-.180855-.0459603-.3918951.08694546-.5383586l.8-.886-.558.323c-.20777572.1207758-.47208458.0766448-.62935231-.1050814-.15726773-.1817261-.16299935-.4496326-.01364769-.6379186l.449-.57-.063.036c-.15950516.0920706-.35671092.0890014-.51327374-.0079881s-.2471316-.2721946-.23572626-.4560119l.076-1.213c-.10129015-.0416036-.18576645-.1158723-.24-.211-.13823272-.2388784-.05677133-.5445824.182-.683l.35-.2c.15950516-.0920706.35671092-.0890014.51327374.0079881s.2471316.2721946.23572626.4560119l-.062.977 1.509-.87c.20752372-.1196981.47078779-.075377.62768014.1056714s.16331787.4479398.01531986.6363286l-.45.572 1.085-.626c.2130048-.1213721.48259035-.0704054.63658568.1203501.15399532.1907555.14697151.4650266-.01658568.6476499l-.806.886 1.243-.717c.18524871-.1065815.417758-.0836357.5785995.0571006s.2144482.3681421.1334005.5658994l-.151.364.106-.06c.1549945-.0985297.351531-.1041539.5119064-.0146489.1603754.0895049.2587712.2597296.2562855.4433739s-.1054527.3511436-.2681919.436275l-1.379.8c-.18524871.1065815-.41775796.0836357-.57859946-.0571006-.16084149-.1407363-.21444829-.3681421-.13340054-.5658994l.153-.369-2.744 1.587c-.07609927.0433341-.1624393.0654371-.25.064z"/></g><path id="Path" d="m19.227 51.115c-.2010582-.0000197-.382547-.1204677-.4606666-.3057289-.0781196-.1852613-.037672-.3992938.1026666-.5432711l.076-.078-.161.092c-.2112567.1203598-.4784718.0713026-.6332004-.1162472s-.152112-.4592181.0062004-.6437528l.7-.8-.508.293c-.2026867.1171972-.4595583.0780518-.618135-.0941995-.1585768-.1722513-.1763897-.4314772-.042865-.6238005l.624-.9c-.2080873-.0347362-.3719827-.1963421-.4096427-.4039201-.0376599-.2075781.0590198-.4164589.2416427-.5220799l1.445-.834c.2026867-.1171972.4595583-.0780518.618135.0941995.1585768.1722513.1763897.4314772.042865.6238005l-.472.68 1.165-.672c.2115312-.1216183.4799523-.0727945.6351088.1155214.1551565.188316.1517294.4611197-.0081088.6454786l-.7.8.712-.41c.216157-.1232114.4900183-.0687436.6425795.1278015.1525612.196545.1373975.4753583-.0355795.6541985l-.251.258c.2250515.0021191.4209513.1543379.478607.371889.0576557.2175512-.0371439.4468115-.231607.560111l-2.709 1.565c-.0757024.043634-.1616237.0664083-.249.066z" fill="#505860"/><path id="Path" d="m26.641 50.911c-.2031097-.0000296-.3860195-.122924-.4628124-.310957s-.0322079-.4038366.1128124-.546043l.313-.308-.209.121c-.1991965.1152477-.4513319.0796452-.6108298-.0862515-.1594978-.1658967-.1851601-.4192369-.0621702-.6137485l1.039-1.642c-.2151924.0498099-.4378276-.0457209-.55-.236-.1380647-.2391402-.0561341-.5449248.183-.683l1.6-.924c.1991965-.1152477.4513319-.0796452.6108298.0862515.1594978.1658967.1851601.4192369.0621702.6137485l-1.016 1.605 1.872-1.081c.2180963-.1257781.4956948-.0697764.6479698.1307191.1522751.2004955.1317242.4829397-.0479698.6592809l-.367.361c.2417131-.0612351.4915976.0649789.5857642.2958633s.0038289.4958587-.2117642.6211367l-3.24 1.87c-.0755486.0441181-.1615132.0672491-.249.067z" fill="#505860"/><path id="Path" d="m8.146 23.813c-.19200843-.0007329-.36663645-.1113547-.44933682-.2846418-.08270037-.1732872-.05886273-.3786256.06133682-.5283582l.177-.217-.87.5c-.21896266.1248229-.49659946.0671571-.64774363-.1345378s-.12853712-.4843546.05274363-.6594622l2.122-2.025-3.282 1.893c-.22620357.1284409-.51310281.0619842-.65979477-.1528333-.14669196-.2148176-.10416776-.5062269.09779477-.6701667l.792-.631-1.22.7c-.22000702.1195261-.49450254.0578939-.64229356-.1442135-.14779102-.2021073-.1233056-.4823693.05729356-.6557865l2.621-2.369-3.256 1.878c-.22906317.1321979-.52145682.063148-.66718057-.1575572-.14572375-.2207053-.09436905-.5167199.11718057-.6754428l.275-.207-.324.187c-.22292368.1277986-.50642231.0658196-.65567843-.1433455-.14925611-.2091652-.11566994-.4974096.07767843-.6666545l3.156-2.75-3.315 1.916c-.22906317.1321979-.52145682.063148-.66718057-.1575572-.14572375-.2207053-.09436905-.5167199.11718057-.6754428l.84-.628-.6.348c-.22991383.1328235-.52355008.0627731-.66874271-.1595365-.14519264-.2223096-.09129791-.5193359.12274271-.6764635l.4-.29-.015.008c-.23004825.1308569-.52222067.059778-.6664488-.1621318-.14422813-.2219099-.09054634-.5177734.1224488-.6748682l.39-.284c-.22486345.0471093-.45289234-.0650813-.55278709-.2719724-.09989476-.206891-.04594409-.455232.13078709-.6020276l2.848-2.36-2.285 1.315c-.22620357.1284409-.51310281.0619842-.65979477-.1528333-.14669196-.2148176-.10416776-.5062269.09779477-.6701667l1.514-1.21-.952.55c-.22473633.1292165-.51095901.0652384-.65928911-.1473681-.1483301-.2126064-.10956628-.5033193.08928911-.6696319l1.233-1.029-.663.385c-.21286205.1227709-.48338312.07266974-.63816022-.11818884s-.14792666-.46589466.01616022-.64881116l1.532-1.7-.833.48c-.2043611.12000268-.4648943.08005552-.62391284-.09566359-.15901853-.17571911-.17283505-.43893467-.03308716-.63033641l.435-.618c-.07100525-.04321326-.12985052-.10377914-.171-.176-.13806467-.23914015-.05613408-.54492481.183-.683l1.09-.63c.20310221-.11785576.46085236-.07849754.6195261.09460108.15867373.17309862.17551266.43329213.0404739.62539892l-.077.108 1.6-.921c.21258013-.12141683.48181099-.07105633.63613087.11899034.15431988.19004666.14833924.46388178-.01413087.64700966l-1.537 1.706 2.974-1.717c.22473633-.12921654.51095901-.06523842.65928911.14736806s.10956628.50331938-.08928911.66963194l-1.234 1.029 1.666-.962c.2263606-.13092511.51537208-.06531659.66301624.15051137.14764415.21582796.10404667.5089685-.10001624.67248863l-1.517 1.211 1.66-.958c.22516323-.13229253.51421232-.06902009.66351512.14524252s.10856452.50733798-.09351512.67275748l-2.847 2.358 2.734-1.578c.22982507-.12787678.51942806-.05584584.6625685.16479606.14314045.2206419.09087809.51445645-.1195685.67220394l-.327.238c.2329988-.0660339.47982583.0444041.58586066.2621323.10603483.2177281.04079099.4801465-.15486066.6228677l-.4.295c.23134192-.1087294.50744079-.0254582.64008814.19305.13264734.2185083.07912254.5018804-.12408814.65695l-.842.63.491-.283c.22292368-.1277986.50642231-.0658196.65567843.1433455.14925611.2091652.11566994.4974096-.07767843.6666545l-3.154 2.748 3.055-1.764c.22906317-.1321979.5214568-.063148.6671806.1575572.1457237.2207053.094369.5167199-.1171806.6754428l-.274.205.131-.075c.220007-.1195261.4945025-.0578939.6422936.1442135.147791.2021073.1233056.4823693-.0572936.6557865l-2.627 2.375 2.929-1.691c.2266681-.1317558.5166136-.0660514.6643416.1505461.1477279.2165976.1030619.5105201-.1023416.6734539l-.79.629 1.1-.635c.219385-.1342545.5048344-.0801688.6599003.1250351.1550659.2052038.1291551.4945743-.0599003.6689649l-2.288 2.184c.1562288-.01238.3085096.053097.407.175.1564564.1836971.1594011.4529248.007.64l-1.068 1.311c.13653855.2389539.05430049.5433242-.184.681l-.779.45c-.07589781.0441549-.1621931.067282-.25.067z" fill="#fc6c83"/><path id="Path" d="m40.348 23.656c-.209847.0005092-.3976837-.1300699-.470312-.3269485-.0726283-.1968785-.0145925-.4181597.145312-.5540515l1.634-1.391-2.569 1.483c-.2237606.125536-.506225.0613343-.6537387-.148589s-.1121964-.4974311.0817387-.665411l3.78-3.191-4.173 2.409c-.2305507.1302945-.5227069.0582293-.6662193-.1643342-.1435123-.2225634-.0886-.5184238.1252193-.6746658l.846-.607-.974.562c-.228242.1318458-.5196375.063862-.6659708-.1553737-.1463332-.2192358-.0973404-.5144185.1119708-.6746263l3.657-2.8-4.1 2.367c-.2319831.1309881-.5259285.0570795-.6683699-.1680527-.1424414-.2251321-.0833463-.52241.1343699-.6759473l1.161-.8c-.1826536.0124487-.3585603-.0713344-.464-.221-.1465655-.219318-.0975424-.5147696.112-.675l3.817-2.92-2 1.153c-.224319.1229862-.5052882.0568141-.651145-.1533534-.1458568-.2101676-.1095482-.4965313.084145-.6636466l3.847-3.147-2.729 1.571c-.2269587.1282325-.5143539.0605795-.6602778-.1554298-.145924-.2160093-.1014061-.5078844.1022778-.6705702l2.132-1.666-1.4.809c-.2245986.1270093-.5089574.0622563-.656419-.1494768-.1474617-.2117332-.109592-.5009023.087419-.6675232l1.7-1.418-.917.529c-.2206356.13002916-.503851.07232504-.6560244-.1336626-.1521734-.20598765-.1241014-.49365536.0650244-.6663374l1.218-1.135c-.0842226-.04643313-.1535669-.11577738-.2-.2-.0662182-.11496067-.0840333-.25152534-.049523-.37962624.0345104-.1281009.1185167-.23723492.233523-.30337376l2.566-1.481c.2206356-.13002916.503851-.07232504.6560244.1336626.1521734.20598765.1241014.49365536-.0650244.6663374l-.466.436 2.193-1.266c.2245986-.12700926.5089574-.06225633.656419.14947682.1474617.21173315.109592.50090228-.087419.66752318l-1.7 1.415 2.529-1.46c.227445-.13171071.5180356-.06484496.6650404.15302777s.1002333.51236608-.1070404.67397223l-2.139 1.676 1.862-1.075c.2256098-.13119678.5141774-.06680355.6626093.14785982.1484318.21466336.1067938.50738169-.0956093.67214018l-3.847 3.147 3.338-1.929c.2280542-.12904158.517047-.0601323.6623353.15793143.1452882.21806373.0975826.5113034-.1093353.67206857l-3.813 2.918 3.26-1.881c.2313246-.1263251.5209869-.0513891.6620294.1712679.1410425.2226569.0850249.5165645-.1280294.6717321l-.711.492.177-.1c.2280542-.1290416.517047-.0601323.6623353.1579314.1452882.2180638.0975826.5113034-.1093353.6720686l-3.655 2.8 3.1-1.791c.2305507-.1302945.5227069-.0582293.6662193.1643342.1435123.2225634.0886.5184238-.1252193.6746658l-.85.609.253-.145c.2237606-.125536.506225-.0613343.6537387.148589s.1121964.4974311-.0817387.665411l-3.782 3.192 2.454-1.416c.2240205-.1297641.5100442-.0670649.6592395.1445117s.1122125.502047-.0852395.6694883l-2.19 1.864c.2011142.0449164.354073.2086167.3852577.4123123.0311847.2036957-.065793.4056599-.2442577.5086877l-3.831 2.212c-.076426.0446377-.1634966.0677874-.252.067z" fill="#fc6c83"/><path id="Path" d="m12.927 37.276c-.2077527-.0010695-.3931982-.1304983-.4658538-.3251351-.0726555-.1946368-.017381-.4139233.1388538-.5508649l.784-.664-1.443.832c-.2248836.1275609-.509928.0626394-.65739-.1497267-.1474621-.2123662-.1087026-.5021295.08939-.6682733l1.427-1.178-1.749 1.009c-.2208953.136633-.509623.0813788-.6644625-.1271591-.1548394-.208538-.1242214-.5009064.0704625-.6728409l2.933-2.77-3 1.729c-.2174475.1222843-.49176288.0655717-.64289368-.1329134-.15113079-.1984852-.13282855-.4780031.04289368-.6550866l2.35-2.324-1.674.966c-.2206356.1300292-.50385102.072325-.65602439-.1336626-.15217338-.2059876-.12410138-.4936554.06502439-.6663374l.976-.911c-.0617868-.042171-.1130978-.097929-.15-.163-.1380647-.2391402-.0561341-.5449248.183-.683l2.34-1.352c.2206356-.1300292.503851-.072325.6560244.1336626s.1241014.4936554-.0650244.6663374l-.054.052 1.239-.711c.2174475-.1222843.4917629-.0655717.6428937.1329134.1511308.1984852.1328285.4780031-.0428937.6550866l-2.349 2.324 3.331-1.922c.2208953-.136633.509623-.0813788.6644625.1271591.1548394.208538.1242214.5009064-.0704625.6728409l-2.935 2.771 3.276-1.891c.2254575-.1330437.5153687-.0696598.6647344.1453323.1493656.2149921.1076129.5087994-.0957344.6736677l-1.426 1.174 1.054-.608c.2243015-.1303348.511027-.0674761.6602307.1447421.1492038.2122182.1113211.5032983-.0872307.6702579l-.787.665c.241441-.1144677.5302142-.0188738.6556644.2170475s.043238.5287852-.1866644.6649525l-4.8 2.77c-.0738775.0415341-.157248.063238-.242.063z" fill="#fff"/><path id="Path" d="m33.838 37.441c-.199173-.000295-.3791752-.1187725-.4582095-.3015935-.0790343-.1828211-.0420252-.3951134.0942095-.5404065l1.776-1.884-3.257 1.885c-.220439.1262233-.5004889.0670999-.6510942-.1374575-.1506054-.2045574-.1238973-.4895314.0620942-.6625425l2.557-2.357-3.083 1.779c-.220439.1262233-.5004889.0670999-.6510942-.1374575-.1506054-.2045574-.1238973-.4895314.0620942-.6625425l2.7-2.487-2.641 1.524c-.2262036.1284409-.5131028.0619842-.6597948-.1528333-.1466919-.2148176-.1041677-.5062269.0977948-.6701667l.478-.381c-.2143168.0576453-.440984-.0328802-.5566272-.2223039-.1156433-.1894236-.0925838-.4324075.0566272-.5966961l1.336-1.461c-.2192445-.0156325-.4025689-.1726125-.4517582-.3868388s.0472935-.4354539.2377582-.5451612l2.341-1.352c.2137214-.1227494.4850125-.071451.6391595.1208586.1541469.1923095.1451658.4682619-.0211595.6501414l-1.145 1.243 2.775-1.6c.226047-.126152.5110038-.0589101.6568083.1549885.1458046.2138986.1042381.5037159-.0958083.6680115l-.4.318.757-.437c.220439-.1262233.5004889-.0670999.6510942.1374575.1506054.2045574.1238973.4895314-.0620942.6625425l-2.7 2.488 3.073-1.775c.220439-.1262233.5004889-.0670999.6510942.1374575.1506054.2045574.1238973.4895314-.0620942.6625425l-2.556 2.358 2.312-1.335c.2145941-.1228235.486738-.0703506.6402819.1234548.1535438.1938053.142373.4707366-.0262819.6515452l-1.772 1.88.492-.284c.1549945-.0985297.351531-.1041539.5119064-.0146489.1603754.0895049.2587712.2597296.2562855.4433739s-.1054527.3511436-.2681919.436275l-3.446 1.99c-.0755041.0454325-.1618817.0696182-.25.07z" fill="#fff"/><path id="Shape" d="m19.024 45.663c-3.281 1.159-1.511 6.615 1.858 5.708.0406187-.0143035.0803549-.0309994.119-.05.023-.008.046-.008.069-.018s.051-.031.08-.045l.017-.009c3.016-1.421 1.151-6.749-2.143-5.586zm.452.882c.838-.221 1.516 1.006 1.687 1.65.2.749.141 1.862-.62 2.274-1.627.283-2.638-3.508-1.067-3.924z" fill="#262626"/><path id="Shape" d="m29.172 45.576c-3.163-1.153-5.411 4.132-2.6 5.7.0702989.0733368.160789.1241505.26.146.0876938.0360552.1823213.0521112.277.047 1.4349007.2184615 2.8273388-.5954959 3.341-1.953.572-1.386.3-3.365-1.278-3.94zm-1.519 4.829c-1.49-.634-1-4.23.694-3.81 1.64.405.922 4.245-.694 3.81z" fill="#262626"/><path id="Shape" d="m47.123 5.4c.1-.158.074-.3-.15-.352-1.692-3.581-5.888-5.9-9.8-3.7-4.572 2.564-1.944 8.887-5.6 12.289-.5973072-.3552999-1.2173086-.6709795-1.856-.945 0-2.983.054-5.97 0-8.952-.017-1.568-.33-2.74-2.117-3.009-1.4977852-.1121328-3.0017313-.1154749-4.5-.01-2.524 0-4.743.257-4.828 3.267-.084 2.93-.01 5.872 0 8.805-.5561025.2498022-1.0979333.5302322-1.623.84-3.862-3.09-1.384-8.847-4.983-11.941-.011-.01-.03-.013-.043-.022s-.028-.043-.058-.064c-2.915-1.978-6.665-1.006-9.111 1.27-.68273324.80578914-1.21365894 1.72872571-1.567 2.724-.084.067-.116.124-.05.154-1.02 2.93-.791 6.406-.563 9.434.332 4.417 3.385 7.278 7.393 8.6-.62190943 1.1930912-1.16799224 2.424199-1.635 3.686-1.25805528 3.3544167-1.79637844 6.9359694-1.58 10.512-.172.207-.21.423.043.506.1272587 1.388848.38949689 2.7619982.783 4.1-.08198995.1678158-.02366104.3704548.135.469 1.3074783 4.0881653 3.85670093 7.6671439 7.293 10.239.5114511 1.2735395 1.3371226 2.3967968 2.4 3.265 3.137 2.646 7.766 3.293 11.693 2.52 3.342-.659 7.113-2.552 8.447-5.9 3.490943-2.6246051 6.0707003-6.2780955 7.376-10.446.156-.117.224-.241.1-.334.4211942-1.4201841.6956299-2.87982.819-4.356.158-.141.21-.282.015-.342.2093565-3.521112-.3206765-7.0470576-1.556-10.351-.4718796-1.2801438-1.0246609-2.5289954-1.655-3.739 7.17-2.576 7.942-8.806 7.378-15.811-.0723815-.82853691-.2748646-1.64049397-.6-2.406zm-11.6 2.728c.0806503-1.14842112.2538796-2.2884573.518-3.409 1.182-3.61 7.074-3.284 9.092-.335.087.127.159.252.233.377-.4288627-.13325991-.8749283-.20299977-1.324-.207-.7997053.02264221-1.5880413.1953027-2.324.509-1.5233911.62446522-2.7017626 1.87796666-3.231 3.437-.971 3.029-.171 6.323-2.521 8.79-1.0560271-1.1551071-2.2372936-2.1891346-3.522-3.083 1.7349805-1.5831079 2.831447-3.7458107 3.083-6.081zm.765 11.7c.7855226 1.0506288 1.4991483 2.1531405 2.136 3.3-1.0548544.5515949-2.2878088.6536499-3.419.283-.257-.072-1.168-.256-1.318-.513.135.232 1.719-1.756 1.913-2.028.246-.336.475-.686.692-1.042zm-6.586-.643c-.0637385-1.8331044-.2622745-3.6590342-.594-5.463 1.3499393.6296261 2.6072887 1.4411666 3.737 2.412-.6714518 1.3425302-1.7779249 2.417984-3.139 3.051zm-9.978-16.379c.486-2.161 2.563-1.527 4.276-1.527 1.769 0 3.868-.363 4.28 1.915.0710014.8448442.0710014 1.6941558 0 2.539v6.407c-1.2886148-.4133974-2.6317952-.6318117-3.985-.648-.0444535-.0054015-.0892257-.0077403-.134-.007-.03 0-.059 0-.09 0h-.065c-1.4548319.0208554-2.8973794.2698846-4.275.738v-6.671c-.0948291-.91276052-.0971743-1.83276787-.007-2.746zm-1.41 16.388c-1.3741898-.7131246-2.485044-1.8460487-3.171-3.234.5335205-.4519111 1.0942385-.8706963 1.679-1.254.1026373-.0449731.1980143-.1049628.283-.178.6013791-.3756485 1.2297661-.7062201 1.88-.989-.3662957 1.8653278-.5906055 3.7557482-.671 5.655zm-7.904-16.822c2.087 1.858 1.684 4.06 2.152 6.511.2795659 2.1309927 1.3180606 4.0897534 2.925 5.517-1.1906608.8488238-2.2913877 1.8171954-3.285 2.89-2.033-2.117-2.161-5.058-2.51-7.885-.19213017-2.04385544-1.57135787-3.78219984-3.518-4.434-1.362-.447-2.495.026-3.68.162.28337289-.68912717.67199953-1.33009124 1.152-1.9 1.75796341-1.86896692 4.59387655-2.22995468 6.764-.861zm1.14 17.477c.6967866 1.1786637 1.5243559 2.2749331 2.467 3.268-.2651637.1105537-.537851.2021178-.816.274-1.2204641.2960116-2.5082774.1036829-3.589-.536.5843972-1.0404015 1.2315944-2.0442586 1.938-3.006zm-9.82-4.978c-.255-2.749-.439-6.33.54-9.161 1.653-.135 3.215-.335 4.588 1 1.242 1.208 1.322 2.7 1.455 4.283.227 2.667.93 5.466 3.029 7.255-1.1845257 1.4110106-2.23412073 2.9299939-3.135 4.537-3.618-1.304-6.107-3.947-6.477-7.914zm4.242 23.811c1.7049891.3179131 3.1847015 1.3677486 4.048 2.872-1.13810572.0717556-2.26887376.2322431-3.382.48-.31423093-1.0970134-.53699353-2.2181849-.666-3.352zm.947 4.25c1.31493187-.2826162 2.65509913-.4313748 4-.444.3 0 .905-.289.8-.682-.638-2.408-3.45-3.99-5.853-4.222-.15349631-2.5177099.10318255-5.0436325.76-7.479.58390783-2.1505422 1.39479828-4.2329116 2.419-6.212 2.0947604.8453363 4.4634302.6690718 6.41-.477.16-.09.389-.372.209-.552-1.2432634-1.2335872-2.2964195-2.6449849-3.125-4.188-.01-.019-.03-.028-.043-.044.4834205-.5800726.9957355-1.1354421 1.535-1.664.9791482 1.6320766 2.5449293 2.8283234 4.377 3.344.329.086 1.306-.034 1.311-.506.0391733-2.2876493.2946444-4.566465.763-6.806.9063668-.2661069 1.841376-.4225572 2.785-.466v28.2c-.093.008-.186.008-.278.018-.4182318.1216311-.8490602.1947779-1.284.218-.2-.07-.714-.742-1.034-.908-.5883454-.279296-1.2298036-.4290037-1.881-.439-.072022-.0030587-.1441067.0043519-.214.022-2.017.137-4.034 1.432-4.1 3.625 0 .015.011.022.012.036s-.016.037-.014.058c.258 2.665-2.244 5.007-2.2 7.758v.039c-2.44652189-2.2507956-4.28795379-5.0805142-5.355-8.229zm14.824 15.453c-3.087-.585-6.567-2.473-7.66-5.606-.0050449-.0209547-.0120767-.0413805-.021-.061-.1107905-.3174803-.195079-.6435965-.252-.975-.55-3.383 2.4-5.458 2.116-8.72-.0523466-1.3446113.9460027-2.4998815 2.284-2.643.8078716.0686131 1.5633494.428229 2.126 1.012.312.265.235.338.629.413.5223627-.0216303 1.0389376-.1179408 1.534-.286.3134641-.0404846.628969-.0631876.945-.068.2742279.1544557.6071522.1630691.889.023.405.029.811.074 1.217.144.609.133 1.229.345 1.774-.1.329-.268.515-.649.9-.873.6791743-.3416239 1.4812997-.3352962 2.155.017 1.72 1.3 1.078 2.812 1.645 4.45.576 1.663 1.843 2.994 2.131 4.771.1675613.9865722.1031966 1.9986045-.188 2.956-.0464894.0641986-.0681586.1430603-.061.222-1.506 4.339-7.767 6.157-12.163 5.324zm19.669-16.321c-1.1846268-.2385769-2.3871733-.3773965-3.595-.415.7536218-1.7346742 2.3649326-2.9443922 4.241-3.184-.1090685 1.2163307-.32524 2.4206667-.646 3.599zm.7-4.293c-2.438.39-5.194 1.933-5.83 4.332-.062.232.283.267.428.267 1.4941462.0197428 2.9813946.2065713 4.434.557-1.0515227 3.2459562-2.9366753 6.159029-5.467 8.448.0458428-1.5495871-.3071004-3.084976-1.025-4.459l-1.175-2.191c.0173333-.584.034-1.168.05-1.752-.443-1.451-.5-1.913-1.849-2.9-.011-.008-.03-.009-.042-.016s-.023-.03-.052-.043c-1.7072012-.7290156-3.6842426-.3754815-5.033.9-.034-.006-.064-.023-.1-.027-.5679672-.0954243-1.1414848-.1542124-1.717-.176v-28.147c.072.006.143.006.215.013.8579029.0887554 1.7043745.2656901 2.526.528.4880297 2.2845846.7529409 4.6111808.791 6.947.005.453.509.552.871.457 1.9417227-.5373831 3.6143712-1.7773456 4.693-3.479.418.4.824.824 1.212 1.264.0205794.1092123.0998472.1980999.206.231.1.119.2.244.3.365-.0325768.0253761-.0609282.0557525-.084.09-.827884 1.547318-1.8814226 2.962821-3.126 4.2-.05.05-.1.193-.013.243 1.9791072 1.0983826 4.3588808 1.2046357 6.428.287.9092538 1.7071983 1.6613517 3.4935564 2.247 5.337.9001535 2.8156907 1.2760435 5.7726466 1.109 8.724zm-2.165-14.907c-.9390206-1.7125781-2.0465013-3.3272354-3.306-4.82 1.5902311-1.5816229 2.5925579-3.6589548 2.841-5.888.118-.729.115-1.463.2-2.19.0229602-1.2411201.494729-2.43190999 1.328-3.352 3.724-3.672 3.1-1.021 4.881-.721.2540358.87745566.3823137 1.78651169.381 2.7.246 6.075.42 11.897-6.325 14.271z" fill="#262626"/><path id="Shape" d="m18.733 32.442c-.133-2.6-1.849-5.008-4.666-4.962-2.6999701.137863-4.81420736 2.3745499-4.8 5.078-.10152411 2.630674 1.9427758 4.8484242 4.573 4.961 2.7329859-.0965086 4.8973993-2.3423142 4.893-5.077zm-8 0c-.019-1.888 1.3-4.177 3.48-3.895 1.955.255 2.963 2.243 3.054 4.011-.1 1.875-1.207 4.19-3.48 3.894-1.898-.246-3.036-2.246-3.054-4.01z" fill="#262626"/><path id="Shape" d="m33.634 27.637c-2.5005564.3432692-4.3624364 2.481996-4.358 5.006-.0410794 1.2501195.4286828 2.4630658 1.3010666 3.3594099s2.0721599 1.3987907 3.3229334 1.3915901c2.6752684-.122143 4.791239-2.3091576 4.825-4.987 0-.019-.012-.03-.014-.048s.015-.034.014-.053c-.141-2.741-2.209-5.04-5.091-4.669zm-.405 8.754c-1.5649993-.720697-2.542652-2.312243-2.478-4.034 0-2.234 1.734-4.669 4.226-3.651 1.549.634 2.2 2.4 2.294 3.943-.127 2.031-1.55 4.698-4.042 3.742z" fill="#262626"/><path id="Path" d="m14.724 32.806v-1c0-.369-1.448-.122-1.448.388v1c0 .369 1.448.122 1.448-.388z" fill="#262626"/><path id="Path" d="m33.265 32.05v1c0 .779 1.47.581 1.47-.1v-1c0-.779-1.47-.581-1.47.1z" fill="#262626"/></g></svg>