<svg xmlns="http://www.w3.org/2000/svg" height="511pt" version="1.1" viewBox="1 -39 511.99998 511" width="511pt">
<g id="surface1">
<path d="M 457.1875 80.90625 L 262.398438 80.90625 L 213.589844 20.769531 C 203.167969 8.085938 187.878906 0.5 171.460938 0.5 L 54.699219 0.5 C 24.6875 0.5 0 25.414062 0 55.425781 L 0 378.296875 C 0 408.195312 24.6875 433.113281 54.699219 433.113281 L 457.300781 433.113281 C 487.3125 433.113281 512 408.195312 512 378.183594 L 512 135.152344 C 511.886719 105.140625 487.199219 80.90625 457.1875 80.90625 Z M 22.648438 378.183594 L 22.648438 55.425781 C 22.648438 37.871094 37.144531 23.148438 54.699219 23.148438 L 171.460938 23.148438 C 180.972656 23.148438 190.03125 27.679688 196.035156 35.152344 L 233.066406 80.90625 L 112.570312 80.90625 C 82.671875 80.90625 57.757812 105.140625 57.757812 135.152344 L 57.757812 410.460938 L 54.699219 410.460938 C 37.144531 410.460938 22.648438 395.738281 22.648438 378.183594 Z M 489.238281 378.183594 C 489.238281 395.625 474.742188 410.460938 457.1875 410.460938 L 80.40625 410.460938 L 80.40625 135.152344 C 80.40625 117.710938 95.128906 103.554688 112.570312 103.554688 L 457.1875 103.554688 C 474.628906 103.554688 489.238281 117.710938 489.238281 135.152344 Z M 489.238281 378.183594 " style=" stroke:none;fill-rule:nonzero;fill:rgb(0%,0%,0%);fill-opacity:1;" />
<path d="M 327.402344 246.25 L 292.183594 246.25 L 292.183594 211.257812 C 292.183594 205.027344 287.085938 199.933594 280.859375 199.933594 C 274.628906 199.933594 269.53125 205.027344 269.53125 211.257812 L 269.53125 246.25 L 234.878906 246.25 C 228.648438 246.25 223.550781 251.347656 223.550781 257.574219 C 223.550781 263.804688 228.648438 268.902344 234.878906 268.902344 L 269.53125 268.902344 L 269.53125 303.894531 C 269.53125 310.125 274.628906 315.21875 280.859375 315.21875 C 287.085938 315.21875 292.183594 310.125 292.183594 303.894531 L 292.183594 268.902344 L 327.402344 268.902344 C 333.632812 268.902344 338.730469 263.804688 338.730469 257.574219 C 338.730469 251.347656 333.632812 246.25 327.402344 246.25 Z M 327.402344 246.25 " style=" stroke:none;fill-rule:nonzero;fill:rgb(0%,0%,0%);fill-opacity:1;" />
<path d="M 281.199219 142.175781 C 217.550781 142.175781 165.796875 193.929688 165.796875 257.574219 C 165.796875 321.222656 217.550781 372.976562 281.199219 372.976562 C 344.84375 372.976562 396.597656 321.222656 396.597656 257.574219 C 396.597656 193.929688 344.84375 142.175781 281.199219 142.175781 Z M 281.199219 350.328125 C 230.007812 350.328125 188.445312 308.765625 188.445312 257.574219 C 188.445312 206.386719 230.007812 164.824219 281.199219 164.824219 C 332.386719 164.824219 373.949219 206.386719 373.949219 257.574219 C 373.949219 308.765625 332.273438 350.328125 281.199219 350.328125 Z M 281.199219 350.328125 " style=" stroke:none;fill-rule:nonzero;fill:rgb(0%,0%,0%);fill-opacity:1;" />
</g>
</svg>