<svg height="472pt" viewBox="0 -40 472 472" width="472pt" xmlns="http://www.w3.org/2000/svg"><path d="m472 92.199219v-84.65625c0-4.417969-3.585938-7.542969-8-7.542969h-456c-4.417969 0-8 3.125-8 7.542969v376.914062c0 4.417969 3.582031 7.542969 8 7.542969h456c4.417969 0 8-3.125 8-7.542969v-292.105469c0-.027343 0-.050781 0-.078124 0-.027344 0-.050782 0-.074219zm-16-76.199219v68h-440v-68zm-440 360v-276h440v276zm0 0"/><path d="m103.308594 75.144531c13.402344 0 24.308594-11.261719 24.308594-25.105469s-10.902344-25.101562-24.308594-25.101562-24.308594 11.261719-24.308594 25.101562c0 13.835938 10.90625 25.105469 24.308594 25.105469zm0-34.210937c4.582031 0 8.308594 4.082031 8.308594 9.097656 0 5.019531-3.726563 9.109375-8.308594 9.109375-4.578125 0-8.308594-4.082031-8.308594-9.101563 0-5.023437 3.730469-9.105468 8.308594-9.105468zm0 0"/><path d="m156.300781 75.144531c13.398438 0 24.304688-11.261719 24.304688-25.105469s-10.898438-25.101562-24.304688-25.101562-24.300781 11.261719-24.300781 25.101562c0 13.835938 10.898438 25.105469 24.300781 25.105469zm0-34.210937c4.578125 0 8.304688 4.082031 8.304688 9.097656 0 5.019531-3.726563 9.109375-8.304688 9.109375-4.582031 0-8.300781-4.082031-8.300781-9.101563 0-5.023437 3.722656-9.105468 8.300781-9.105468zm0 0"/><path d="m50.316406 75.144531c13.398438 0 24.304688-11.261719 24.304688-25.105469s-10.898438-25.101562-24.304688-25.101562-24.300781 11.261719-24.300781 25.101562c0 13.835938 10.898437 25.105469 24.300781 25.105469zm0-34.210937c4.578125 0 8.304688 4.082031 8.304688 9.097656 0 5.019531-3.726563 9.109375-8.304688 9.109375-4.582031 0-8.300781-4.085937-8.300781-9.109375 0-5.019531 3.71875-9.097656 8.300781-9.097656zm0 0"/><path d="m301.800781 215h-1.800781v-30.445312c-.003906-16.753907-6.988281-32.75-19.273438-44.140626-11.851562-11.21875-27.558593-17.457031-43.875-17.429687-.300781 0-.628906 0-.925781.007813-35.242187.03125-63.925781 27.636718-63.925781 61.5625v30.445312h-1.800781c-17.148438 0-31.199219 13.042969-31.199219 29.558594v88.28125c0 16.511718 14.046875 30.160156 31.199219 30.160156h131.601562c17.148438 0 31.199219-13.648438 31.199219-30.160156v-88.28125c0-16.515625-14.046875-29.558594-31.199219-29.558594zm-113.800781-30.445312c0-25.125 21.558594-45.554688 48-45.554688h.117188c12.472656-.125 24.511718 4.554688 33.632812 13.0625 9.0625 8.375 14.230469 20.148438 14.25 32.492188v30.445312h-96zm129 148.285156c0 7.691406-6.867188 14.160156-15.199219 14.160156h-131.601562c-8.328125 0-15.199219-6.46875-15.199219-14.160156v-88.28125c0-7.691406 6.867188-13.558594 15.199219-13.558594h131.601562c8.328125 0 15.199219 5.867188 15.199219 13.558594zm0 0"/><path d="m236 269.15625c-12.375 0-22.441406 9.742188-22.441406 21.71875 0 9.25 6.441406 17.160156 14.441406 20.285156v12.675782c0 4.417968 3.582031 8 8 8s8-3.582032 8-8v-12.675782c8-3.125 14.441406-11.035156 14.441406-20.285156 0-11.976562-10.070312-21.71875-22.441406-21.71875zm0 16c3.550781 0 6.441406 2.566406 6.441406 5.71875s-2.890625 5.71875-6.441406 5.71875-6.441406-2.566406-6.441406-5.71875 2.886718-5.71875 6.441406-5.71875zm0 0"/></svg>