<?xml version="1.0" encoding="UTF-8"?>
<svg xmlns="http://www.w3.org/2000/svg" viewBox="0 0 60 60" width="512" height="512"><g id="websites_colour" data-name="websites colour"><path d="M27.786,59.47a.5.5,0,0,1-.264-.925L31.3,56.2l-5.543,3.2a.5.5,0,0,1-.518-.855l12.891-8.165L22.509,59.4a.5.5,0,0,1-.518-.855L38.073,48.363,18.951,59.4a.5.5,0,0,1-.515-.856L35.86,47.605,15.427,59.4a.5.5,0,0,1-.509-.86L17.1,57.224,13.322,59.4a.5.5,0,0,1-.512-.858l16.176-9.967L10.234,59.4a.5.5,0,0,1-.512-.858l19.6-12.084L6.9,59.4a.5.5,0,0,1-.51-.859L25,47.159,3.845,59.375a.5.5,0,0,1-.51-.859L21.5,47.466,2.219,58.6a.5.5,0,0,1-.507-.862l3.152-1.887L1.587,57.738a.5.5,0,0,1-.509-.86l16.838-10.2L1.28,56.284a.5.5,0,0,1-.507-.861L4.326,53.3,1.279,55.055a.5.5,0,0,1-.508-.861L18.884,43.211,1.279,53.375a.5.5,0,0,1-.508-.86l16.6-10.047L1.279,51.757A.5.5,0,0,1,.772,50.9l3.093-1.851L1.279,50.537a.5.5,0,0,1-.508-.86L18.548,38.9l-17.27,9.97a.5.5,0,0,1-.507-.861L6.378,44.65l-5.1,2.944a.5.5,0,0,1-.509-.86L21.338,34.223,1.278,45.8a.5.5,0,0,1-.509-.86L22.381,31.779,1.277,43.963A.5.5,0,0,1,.765,43.1l28.5-17.6L1.277,41.66A.5.5,0,0,1,.771,40.8l.5-.3a.5.5,0,0,1-.507-.862l25.56-15.893L1.276,38.205a.5.5,0,0,1-.511-.858l17-10.437L1.276,36.427a.5.5,0,0,1-.509-.861l6.55-3.972L1.276,35.081a.5.5,0,0,1-.512-.858L15.048,25.4,1.275,33.355A.5.5,0,0,1,.76,32.5L17.614,21.915,1.275,31.348a.5.5,0,0,1-.512-.859l7.825-4.826L1.275,29.885a.5.5,0,0,1-.516-.856L12.65,21.544,1.274,28.111a.5.5,0,0,1-.515-.856L8.7,22.276,1.274,26.565a.5.5,0,0,1-.521-.852l11.058-7.135L1.274,24.661a.5.5,0,0,1-.514-.856L2.4,22.783l-1.122.647a.5.5,0,0,1-.523-.852L8.2,17.721l-6.93,4a.5.5,0,0,1-.525-.85l6.35-4.2L1.273,20.033a.5.5,0,0,1-.521-.852l1.174-.759-.654.377a.5.5,0,0,1-.532-.845l4.4-3.016L1.272,17.171a.5.5,0,0,1-.544-.837L5.082,13.16l-3.81,2.2A.5.5,0,0,1,.7,14.544l3.854-3.238L1.271,13.2a.5.5,0,0,1-.621-.767L2.8,10.049l-1.532.884a.5.5,0,0,1-.607-.083.5.5,0,0,1-.07-.609L1.222,9.2A.5.5,0,0,1,.9,8.963a.5.5,0,0,1,.183-.684L2.263,7.6a.5.5,0,0,1,.677.692L2.453,9.1l2.6-1.5a.5.5,0,0,1,.621.767L3.517,10.75,8.98,7.6a.5.5,0,0,1,.572.815L5.7,11.647,12.721,7.6a.5.5,0,0,1,.545.837L8.915,11.6,15.858,7.6a.5.5,0,0,1,.533.844l-4.408,3.022L18.68,7.6a.5.5,0,0,1,.521.852l-1.185.767L20.82,7.6a.5.5,0,0,1,.526.849l-6.339,4.194,8.737-5.044a.5.5,0,0,1,.524.851L16.8,13.311l9.9-5.717a.5.5,0,0,1,.515.856l-1.6,1,3.222-1.859a.5.5,0,0,1,.521.852L18.3,15.585,32.138,7.593a.5.5,0,0,1,.515.856l-7.939,4.976,10.1-5.833a.5.5,0,0,1,.517.855l-11.89,7.485,14.446-8.34a.5.5,0,0,1,.512.858L30.55,13.292l9.875-5.7a.5.5,0,0,1,.515.856L24.092,19.028,43.9,7.591a.5.5,0,0,1,.513.858L30.153,17.254,46.893,7.59a.5.5,0,0,1,.509.86l-6.571,3.986L49.225,7.59a.5.5,0,0,1,.511.858L32.723,18.9,52.307,7.59a.5.5,0,0,1,.513.857L27.275,24.33l29-16.741a.5.5,0,0,1,.507.861l-.507.3,1.664-.96a.5.5,0,0,1,.512.858L29.934,26.265,58.72,9.646a.5.5,0,0,1,.509.859L37.648,23.65,58.72,11.485a.5.5,0,0,1,.509.86L38.66,24.856,58.72,13.275a.5.5,0,0,1,.507.862L53.58,17.521l5.14-2.966a.5.5,0,0,1,.509.86L41.465,26.182,58.72,16.22a.5.5,0,0,1,.507.861l-3.092,1.851,2.585-1.493a.5.5,0,0,1,.509.861l-16.6,10.047L58.72,19.058a.5.5,0,0,1,.509.86l-18.137,11L58.72,20.738a.5.5,0,0,1,.507.862L55.7,23.712l3.021-1.744a.5.5,0,0,1,.509.86L42.4,33.021,58.72,23.6a.5.5,0,0,1,.507.861l-3.172,1.9,2.665-1.538a.5.5,0,0,1,.509.86L41.073,36.727,58.72,26.539a.5.5,0,0,1,.51.859L40.619,38.781l18.1-10.45a.5.5,0,0,1,.512.858l-19.6,12.089L58.72,30.256a.5.5,0,0,1,.512.858L43.065,41.076,58.72,32.038a.5.5,0,0,1,.509.86l-2.207,1.335,1.7-.979a.5.5,0,0,1,.515.856L41.817,45.046l16.9-9.758a.5.5,0,0,1,.517.856L43.158,46.326,58.72,37.342a.5.5,0,0,1,.517.855L46.343,46.365,58.72,39.22a.5.5,0,0,1,.513.857l-3.776,2.34,3.263-1.884a.5.5,0,0,1,.522.852l-11.7,7.6L58.72,42.529a.5.5,0,0,1,.52.854l-7,4.494,6.484-3.743a.5.5,0,0,1,.516.855l-1.174.74.658-.378a.5.5,0,0,1,.536.842L49.9,52.726l8.819-5.091a.5.5,0,0,1,.521.852l-.468.3a.5.5,0,0,1,.495.861L53.141,54.2l5.579-3.221a.5.5,0,0,1,.565.821l-4.444,3.623,3.879-2.239a.5.5,0,0,1,.563.822L57.66,55.316l1.06-.611a.5.5,0,0,1,.6.786l-1.141,1.14.422-.243a.5.5,0,0,1,.5.865L55.381,59.4a.5.5,0,0,1-.6-.786l1.142-1.139L52.583,59.4a.5.5,0,0,1-.563-.822l1.625-1.31L49.95,59.4a.5.5,0,0,1-.565-.82l4.443-3.622L46.133,59.4a.5.5,0,0,1-.548-.834l6.127-4.55L42.385,59.4a.5.5,0,0,1-.522-.852l.405-.262L40.337,59.4a.5.5,0,0,1-.536-.842l9.356-6.535L36.38,59.4a.5.5,0,0,1-.517-.855l1.172-.739L34.272,59.4a.5.5,0,0,1-.52-.853l7-4.495L31.493,59.4a.5.5,0,0,1-.522-.851l11.7-7.6L28.036,59.4A.5.5,0,0,1,27.786,59.47Z" fill="#e1efff"/><path d="M4.5,9.5a.5.5,0,0,1-.309-.893L8.865,4.911,1.28,9.29a.5.5,0,0,1-.541-.84L3.3,6.619,1.28,7.786A.5.5,0,0,1,.71,6.97L3.836,4.359,1.28,5.834a.5.5,0,0,1-.575-.813l1.007-.863-.43.248A.5.5,0,0,1,.66,3.639l.828-.919A.5.5,0,0,1,1.363,1.8L3.411.62a.5.5,0,0,1,.622.768l-.519.576L5.881.6a.5.5,0,0,1,.575.812l-1.007.862L8.352.6a.5.5,0,0,1,.57.816L5.8,4.024,11.732.6a.5.5,0,0,1,.541.84L9.709,3.27,14.338.6a.5.5,0,0,1,.559.825L10.218,5.117,18.048.6a.5.5,0,0,1,.549.833L14.722,4.324,21.178.6a.5.5,0,0,1,.54.84L19.152,3.261,23.766.6a.5.5,0,0,1,.536.842L22.534,2.671,26.127.6a.5.5,0,0,1,.561.824L21.937,5.2,29.916.6a.5.5,0,0,1,.553.83L26.245,4.647,33.261.6a.5.5,0,0,1,.56.824L29.108,5.161,37.013.6a.5.5,0,0,1,.561.823L32.823,5.207,40.807.6a.5.5,0,0,1,.562.823L36.593,5.237,44.63.6a.5.5,0,0,1,.537.841L43.026,2.944,47.092.6a.5.5,0,0,1,.539.84L45.256,3.117,49.622.6a.5.5,0,0,1,.55.833L46.255,4.365,52.781.6a.5.5,0,0,1,.554.829L49.05,4.711,56.131.623a.5.5,0,0,1,.543.838l-3.047,2.2,4.06-2.344a.5.5,0,0,1,.538.841l-1.26.89,1.43-.825a.5.5,0,0,1,.565.82L56.062,5.4l2.66-1.536a.5.5,0,0,1,.606.783L57.313,6.7l1.421-.819a.5.5,0,0,1,.613.777L59.014,7a.492.492,0,0,1,.294.112.5.5,0,0,1,.158.545l-.2.6a.5.5,0,0,1-.018.855l-.5.288a.5.5,0,0,1-.725-.59L58.1,8.6,56.7,9.4a.5.5,0,0,1-.612-.777l.14-.147-1.6.925a.5.5,0,0,1-.606-.783l2.013-2.046-4.9,2.831a.5.5,0,0,1-.565-.82l2.9-2.36L47.951,9.408a.5.5,0,0,1-.538-.841l1.254-.885L45.675,9.409a.5.5,0,0,1-.543-.838l3.05-2.2L42.907,9.411a.5.5,0,0,1-.553-.829L46.638,5.3,39.511,9.413a.5.5,0,0,1-.55-.833l3.92-2.936-6.532,3.77a.5.5,0,0,1-.539-.841L38.18,6.9,33.816,9.416a.5.5,0,0,1-.537-.842l2.142-1.506L31.353,9.417a.5.5,0,0,1-.563-.823l4.776-3.817-8.04,4.642a.5.5,0,0,1-.561-.823L31.717,4.81,23.729,9.421a.5.5,0,0,1-.561-.824l4.713-3.739L19.974,9.423a.5.5,0,0,1-.553-.83l4.225-3.221L16.625,9.425a.5.5,0,0,1-.562-.824l4.751-3.782L12.833,9.427a.5.5,0,0,1-.536-.843l1.767-1.231L10.47,9.428a.5.5,0,0,1-.54-.84l2.564-1.822L7.879,9.43A.5.5,0,0,1,7.33,8.6l3.877-2.9L4.746,9.431A.491.491,0,0,1,4.5,9.5Z" fill="#5a6277"/></g><g id="Colour"><path d="M31.361,54.42a.5.5,0,0,1-.288-.909l7.849-5.526-10.9,6.292a.5.5,0,0,1-.529-.847l9.417-6.339L25.319,53.782a.5.5,0,0,1-.521-.852l7.631-4.924-9,5.2a.5.5,0,0,1-.514-.857l.566-.352-1.254.724a.5.5,0,0,1-.516-.857l4.649-2.914-5.435,3.138a.5.5,0,0,1-.525-.851L34.937,41.7,18.979,50.911a.5.5,0,0,1-.518-.855L28.9,43.446,17.661,49.932a.5.5,0,0,1-.518-.855L30.114,40.8,16.339,48.752a.5.5,0,0,1-.512-.858l1.359-.834-1.6.921a.5.5,0,0,1-.522-.852L31.445,36.538,14.3,46.438a.5.5,0,0,1-.513-.858l5.864-3.628L13.6,45.446a.5.5,0,0,1-.522-.852L29.552,33.968,12.6,43.758a.5.5,0,0,1-.522-.853L28.588,32.243,11.754,41.962a.5.5,0,0,1-.515-.857L19.7,35.831l-8.409,4.855a.5.5,0,0,1-.516-.856L21.9,32.811,10.854,39.188a.5.5,0,0,1-.517-.855l11.957-7.595L10.526,37.532a.5.5,0,0,1-.516-.855l8.754-5.508-8.413,4.857a.5.5,0,0,1-.523-.851l13.714-8.926L10.3,33.9a.5.5,0,0,1-.516-.856L14,30.4,10.381,32.49a.5.5,0,0,1-.525-.85l11.631-7.652L10.738,30.193a.5.5,0,0,1-.519-.853l5.622-3.6-4.629,2.672a.5.5,0,0,1-.525-.85l6.865-4.523-5.5,3.173a.5.5,0,0,1-.536-.843l7.173-5-4.967,2.868a.5.5,0,0,1-.561-.824l4.314-3.424A.512.512,0,0,1,17,18.733a.5.5,0,0,1,.183-.682L22.6,14.926a.5.5,0,0,1,.56.824l-4.065,3.227,9.221-5.323a.5.5,0,0,1,.536.843l-7.171,5,10.045-5.8a.5.5,0,0,1,.525.851l-6.868,4.525,8.674-5.008a.5.5,0,0,1,.519.854l-5.625,3.6,6.889-3.976a.5.5,0,0,1,.524.85L24.735,23.048l13.271-7.661a.5.5,0,0,1,.515.856L34.3,18.884l4.971-2.869a.5.5,0,0,1,.522.851L26.077,25.793,41.082,17.13a.5.5,0,0,1,.517.855l-8.747,5.5L42.3,18.034a.5.5,0,0,1,.517.855l-11.961,7.6L43.56,19.151a.5.5,0,0,1,.516.856L32.947,27.026l11.7-6.755a.5.5,0,0,1,.515.856l-8.45,5.27,8.8-5.081a.5.5,0,0,1,.521.853L29.524,32.828l17.132-9.89a.5.5,0,0,1,.521.852L30.694,34.421l16.925-9.772a.5.5,0,0,1,.513.858L42.26,29.141l5.871-3.39a.5.5,0,0,1,.521.853L32.277,37.191l16.543-9.55a.5.5,0,0,1,.512.858l-1.371.842,1.149-.663a.5.5,0,0,1,.519.854L36.662,37.807l12.8-7.392a.5.5,0,0,1,.517.856L39.542,37.885l10.114-5.839a.5.5,0,0,1,.525.85L35.645,42.43,49.7,34.316a.5.5,0,0,1,.516.857l-4.648,2.913L49.6,35.759a.5.5,0,0,1,.513.857l-.646.4a.5.5,0,0,1,.475.876l-7.628,4.921,6.662-3.844a.5.5,0,0,1,.529.847l-9.419,6.34,7.967-4.6a.5.5,0,0,1,.538.841l-7.847,5.524,5.575-3.218a.5.5,0,0,1,.529.848l-1.782,1.193a.5.5,0,0,1,.319.236.5.5,0,0,1-.183.683L34.241,54a.5.5,0,0,1-.528-.848l.082-.054-2.184,1.26A.5.5,0,0,1,31.361,54.42Z" fill="#a53c50"/><path d="M29.037,50.44a.5.5,0,0,1-.283-.912l5.58-3.829-7.5,4.33a.5.5,0,0,1-.522-.851l3.413-2.223-4.538,2.619a.5.5,0,0,1-.521-.852l4.615-2.991-5.615,3.242a.5.5,0,0,1-.524-.851l8.264-5.439L22.015,48.1a.5.5,0,0,1-.521-.853l6.658-4.284-7.413,4.279a.5.5,0,0,1-.522-.851l9.032-5.864-9.792,5.653a.5.5,0,0,1-.516-.857l2.627-1.645-2.93,1.691a.5.5,0,0,1-.516-.855l3.984-2.505-4.258,2.458a.5.5,0,0,1-.523-.853l10.417-6.755L16.874,43.138a.5.5,0,0,1-.514-.858l.47-.291-.485.28a.5.5,0,0,1-.518-.856L22,37.507l-6.246,3.605a.5.5,0,0,1-.522-.852L25.35,33.707,15.141,39.6a.5.5,0,0,1-.518-.855l5.845-3.706-5.7,3.29a.5.5,0,0,1-.524-.851l10.191-6.665-10.01,5.78a.5.5,0,0,1-.523-.852l8.54-5.56-8.148,4.7a.5.5,0,0,1-.516-.857l.594-.373L14.3,33.7a.5.5,0,0,1-.518-.854l1.678-1.064-1.047.6a.5.5,0,0,1-.521-.853l3.944-2.552L14.7,30.789a.5.5,0,0,1-.524-.851l3.956-2.6-2.9,1.676a.5.5,0,0,1-.53-.848l3.633-2.446-2.2,1.269a.5.5,0,0,1-.528-.847l1.331-.892a.5.5,0,0,1-.243-.894L19.521,22.2a.489.489,0,0,1-.194-.189.5.5,0,0,1,.183-.683l4.816-2.78a.5.5,0,0,1,.553.83l-1.318,1,4.7-2.711a.5.5,0,0,1,.528.847l-.072.049,1.656-.956a.5.5,0,0,1,.529.848l-3.64,2.451,5.312-3.066a.5.5,0,0,1,.525.85l-3.958,2.6,5.231-3.02a.5.5,0,0,1,.522.853l-3.938,2.549,4.943-2.854a.5.5,0,0,1,.517.855l-1.674,1.061,2.347-1.354a.5.5,0,0,1,.516.856l-.611.383,1.128-.65a.5.5,0,0,1,.523.851L30.1,26.39l9.424-5.442a.5.5,0,0,1,.524.852L29.86,28.463l11-6.35a.5.5,0,0,1,.518.855l-5.845,3.706,6.242-3.6a.5.5,0,0,1,.522.853L32.177,30.477l10.6-6.122a.5.5,0,0,1,.518.856l-6.181,3.911,6.375-3.68a.5.5,0,0,1,.514.858l-.458.284.435-.251a.5.5,0,0,1,.523.853l-10.42,6.756,10.565-6.1a.5.5,0,0,1,.516.855l-3.979,2.5,3.852-2.223a.5.5,0,0,1,.516.856l-2.623,1.644,2.4-1.386a.5.5,0,0,1,.522.851l-9.029,5.863,8.782-5.071a.5.5,0,0,1,.521.854l-6.665,4.289,6.247-3.606a.5.5,0,0,1,.524.85l-8.264,5.44,7.668-4.427a.5.5,0,0,1,.521.852l-4.617,2.992,3.852-2.223a.5.5,0,0,1,.522.851l-3.409,2.22,2.457-1.418a.5.5,0,0,1,.533.845l-5.581,3.829,4.118-2.377a.5.5,0,0,1,.547.835l-4.452,3.277,1.954-1.128a.5.5,0,0,1,.5.866L32.83,50.186a.5.5,0,0,1-.547-.835l4.453-3.279-7.449,4.3A.494.494,0,0,1,29.037,50.44Z" fill="#cd4c60"/><path d="M35.315,42.34a.5.5,0,0,1-.369-.838l.272-.3-.618.357a.5.5,0,0,1-.621-.768l.508-.563-.777.449a.5.5,0,0,1-.648-.736l.9-1.18-1.38.8a.5.5,0,0,1-.641-.745l.829-1.041-1.257.726a.5.5,0,0,1-.644-.74l.866-1.11-1.32.762a.5.5,0,1,1-.5-.865L33.461,34.5a.5.5,0,0,1,.643.74l-.867,1.111,1.316-.759a.5.5,0,0,1,.64.744l-.828,1.041,1.25-.722a.5.5,0,0,1,.625.1.5.5,0,0,1,.023.633l-.9,1.18,1.375-.793a.5.5,0,0,1,.621.768l-.506.559.67-.386a.5.5,0,0,1,.62.77l-.319.348a.5.5,0,0,1,.369.918l-2.629,1.517A.49.49,0,0,1,35.315,42.34Z" fill="#fff"/><path d="M30.7,31.019a.5.5,0,0,1-.324-.881l3.292-2.8a.5.5,0,0,1,.193-.664L35.733,25.6a.5.5,0,0,1,.575.813l-1.085.923,1.943-1.122a.5.5,0,1,1,.5.865l-6.712,3.876A.49.49,0,0,1,30.7,31.019Z" fill="#fff"/><path d="M22.959,42.16a.5.5,0,0,1-.3-.9l3.669-2.794-4.012,2.316a.5.5,0,0,1-.529-.847l1.278-.86-.437.252a.5.5,0,0,1-.542-.838l7.536-5.432-2.231,1.288a.5.5,0,0,1-.68-.689L27.813,31.8l-1.885,1.088a.5.5,0,0,1-.609-.782l.235-.241-.411.238a.5.5,0,0,1-.669-.706l1.056-1.623-1.721.995a.5.5,0,0,1-.615-.775l.379-.405-.6.346a.5.5,0,0,1-.63-.757l.662-.777-.691.4a.5.5,0,0,1-.636-.75l.48-.585a.5.5,0,0,1-.092-.907l1.665-.962a.5.5,0,0,1,.637.75l-.178.216.833-.481a.5.5,0,0,1,.63.757l-.662.777L26,27.033a.5.5,0,0,1,.614.775l-.379.405.6-.349a.5.5,0,0,1,.669.7l-1.057,1.622,1.73-1a.5.5,0,0,1,.608.782l-.236.243.418-.241a.493.493,0,0,1,.605.081.5.5,0,0,1,.074.607l-1.105,1.859,9.147-5.281a.5.5,0,0,1,.542.838L30.7,33.515l4.494-2.595a.5.5,0,0,1,.53.848l-2.746,1.846a.5.5,0,0,1,.21.889l-4.925,3.75a.5.5,0,0,1,.053.893l-5.105,2.947A.491.491,0,0,1,22.959,42.16Z" fill="#fff"/></g><g id="Lines"><path d="M.443,53.034C.394,55.95.245,58.889,3.822,59.5H53.691c5.64,0,5.866-3.161,5.866-8.02V7.755c0-1.856.489-4.721-.935-6.207S54.454.5,52.6.5H8.6C3.9.5.611.446.443,6.014.087,21.674.585,37.368.443,53.034Zm53.6,5.467H4.222c-3.588-.8-2.665-5.19-2.665-7.627-.024-13.8.048-27.609-.025-41.414H58.443V46.818C58.443,51.112,60.2,58.5,54.047,58.5ZM1.557,4C2.488.872,5.3,1.5,7.674,1.5H34.3c6.935.3,14.151-.516,21.016,0,3.914,1.108,3.012,4.061,3.126,7.041H1.468A13.848,13.848,0,0,1,1.557,4Z" fill="#262626"/><path d="M5.1,5.591c1.016.323,2.076-.7.794-1.182C4.881,4.086,3.821,5.109,5.1,5.591Z" fill="#262626"/><path d="M9.938,5.588c.858.29,2.307-.572,1.124-1.176C10.2,4.122,8.755,4.983,9.938,5.588Z" fill="#262626"/><path d="M15,5.45c.514-.069,1.462.248,1.6-.453C16.388,3.865,13.073,4.877,15,5.45Z" fill="#262626"/><path d="M48.879,5.516c1.017-.255,8.1.8,6.242-1.032C54.1,4.739,47.022,3.687,48.879,5.516Z" fill="#262626"/><path d="M29.956,13.411c-26.051.534-27.126,38.862-1.28,41.132C56.349,55.69,57.506,14.115,29.956,13.411Zm1.369,39.954C5.281,54.493,3.413,16.184,29.361,14.612,54.478,14.164,56.25,51.17,31.325,53.365Z" fill="#262626"/><path d="M46.53,32.673C44.651,12.2,13.557,13.252,13.411,33.95,14.032,56.258,47.808,55.092,46.53,32.673ZM45.3,35.251c-1.619,19.221-30.648,18.173-30.713-1.2C15.178,12.953,46.537,14.046,45.3,35.251Z" fill="#262626"/><path d="M37.662,29.837a2.667,2.667,0,0,0,.144-3.639c-3.08-2.662-5.524,2.658-7.759,4.237-2.233-1.581-4.684-6.9-7.766-4.229-2.558,3.205,2.467,5.592,4.154,7.841-1.649,2.227-6.476,4.458-4.316,7.673,3.043,2.857,5.605-2.563,7.834-4.155,2.24,1.615,4.863,7.1,7.9,4.086,2.227-3.233-2.625-5.455-4.285-7.7C34.924,32.576,36.325,31.23,37.662,29.837Zm-.617,11.225c-2.781,1.206-4.607-3.363-6.706-4.694-1.91.364-3.418,3.3-5.142,4.556-1.366,1.238-3.643-.44-2.317-1.925,1.264-1.821,4.492-3.306,4.64-5.451-1.216-2.031-6.082-4.03-4.6-6.585,2.771-1.323,4.637,3.352,6.739,4.669,2.565-.121,4.254-6.334,7.331-4.655,2.138,2.952-4.79,4.738-4.511,7.475C33.685,36.479,38.63,38.522,37.045,41.062Z" fill="#262626"/></g></svg>
