<svg id="&#x421;&#x43B;&#x43E;&#x439;_1" height="512" viewBox="0 0 128 128" width="512" xmlns="http://www.w3.org/2000/svg"><path d="m42.5 52h14a2 2 0 0 0 2-2v-6.65a2 2 0 0 0 -2-2h-14a2 2 0 0 0 -2 2v6.65a2 2 0 0 0 2 2zm2-6.65h10v2.65h-10z"/><path d="m98.5 41.35a2 2 0 0 0 -2 2v6.65a2 2 0 0 0 2 2h14a2 2 0 0 0 2-2v-6.65a2 2 0 0 0 -2-2zm12 6.65h-10v-2.65h10z"/><path d="m56.5 97.35h-14a2 2 0 0 0 -2 2v6.65a2 2 0 0 0 2 2h14a2 2 0 0 0 2-2v-6.65a2 2 0 0 0 -2-2zm-2 6.65h-10v-2.65h10z"/><path d="m112.5 97.35h-14a2 2 0 0 0 -2 2v6.65a2 2 0 0 0 2 2h14a2 2 0 0 0 2-2v-6.65a2 2 0 0 0 -2-2zm-2 6.65h-10v-2.65h10z"/><path d="m126 112h-3.5v-110a2 2 0 0 0 -2-2h-36-.16-.16-55.68-.16-.16-19.68a2 2 0 0 0 -2 2v110h-4.5a2 2 0 0 0 -2 2v8a2 2 0 0 0 2 2h4.5v2a2 2 0 0 0 2 2h12a2 2 0 0 0 2-2v-2h34v2a2 2 0 0 0 2 2h12a2 2 0 0 0 2-2v-2h33v2a2 2 0 0 0 2 2h12a2 2 0 0 0 2-2v-2h4.5a2 2 0 0 0 2-2v-8a2 2 0 0 0 -2-2zm-59.5-52h16v28a2 2 0 0 0 1.13 1.8 2 2 0 0 0 2.12-.23l6.75-5.38 6.75 5.38a2.08 2.08 0 0 0 1.25.43 2 2 0 0 0 .87-.2 2 2 0 0 0 1.13-1.8v-28h16v52h-52zm20 0h12v23.85l-4.75-3.78a2 2 0 0 0 -2.5 0l-4.75 3.78zm32-4h-52v-52h16v28a2 2 0 0 0 1.13 1.8 2 2 0 0 0 2.12-.23l6.75-5.38 6.75 5.38a2.08 2.08 0 0 0 1.25.43 2 2 0 0 0 .87-.2 2 2 0 0 0 1.13-1.8v-28h16zm-32-52h12v23.85l-4.75-3.78a2 2 0 0 0 -2.5 0l-4.75 3.78zm-56 0h12v23.85l-4.75-3.78a2 2 0 0 0 -2.5 0l-4.75 3.78zm-20 0h16v28a2 2 0 0 0 1.13 1.8 2 2 0 0 0 2.12-.23l6.75-5.38 6.75 5.38a2.08 2.08 0 0 0 1.25.43 2 2 0 0 0 .87-.2 2 2 0 0 0 1.13-1.8v-28h16v52h-52zm20 56h12v23.85l-4.75-3.78a2 2 0 0 0 -2.5 0l-4.75 3.78zm-20 0h16v28a2 2 0 0 0 1.13 1.8 2 2 0 0 0 2.12-.23l6.75-5.38 6.75 5.38a2.08 2.08 0 0 0 1.25.43 2 2 0 0 0 .87-.2 2 2 0 0 0 1.13-1.8v-28h16v52h-52zm113.5 60h-4.5a2 2 0 0 0 -2 2v2h-8v-2a2 2 0 0 0 -2-2h-37a2 2 0 0 0 -2 2v2h-8v-2a2 2 0 0 0 -2-2h-38a2 2 0 0 0 -2 2v2h-8v-2a2 2 0 0 0 -2-2h-4.5v-4h120z"/></svg>