<svg id="Icons" height="512" viewBox="0 0 60 60" width="512" xmlns="http://www.w3.org/2000/svg"><path d="m7.419 59.47a.5.5 0 0 1 -.268-.923l2.81-1.778-4.561 2.631a.5.5 0 0 1 -.525-.849l8.912-5.9-11.01 6.361a.5.5 0 0 1 -.524-.851l7.441-4.878-8.019 4.63a.5.5 0 0 1 -.526-.85l6.323-4.163-6.19 3.573a.5.5 0 0 1 -.539-.841l8.217-5.832-7.68 4.431a.5.5 0 0 1 -.542-.838l5.4-3.874-4.859 2.8a.5.5 0 0 1 -.543-.838l2.991-2.164-2.447 1.417a.5.5 0 0 1 -.578-.81l3.284-2.846-2.706 1.563a.5.5 0 0 1 -.634-.754l2.9-3.457a.5.5 0 0 1 .238-.544l.5-.289a.5.5 0 0 1 .633.111.5.5 0 0 1 0 .643l-1.687 2.009 4.791-2.76a.5.5 0 0 1 .577.81l-3.284 2.841 6.337-3.658a.5.5 0 0 1 .543.838l-2.994 2.163 5.2-3a.5.5 0 0 1 .541.839l-5.4 3.875 8.168-4.716a.5.5 0 0 1 .54.841l-8.219 5.831 11.57-6.677a.5.5 0 0 1 .525.85l-6.319 4.163 8.686-5.015a.5.5 0 0 1 .524.851l-7.45 4.882 9.934-5.734a.5.5 0 0 1 .526.85l-8.917 5.9 11.691-6.752a.5.5 0 0 1 .517.856l-2.794 1.767 4.547-2.625a.5.5 0 0 1 .522.853l-6.322 4.083 8.551-4.937a.5.5 0 0 1 .52.854l-4.829 3.088 6.832-3.944a.5.5 0 0 1 .516.856l-2.26 1.427 3.957-2.284a.5.5 0 0 1 .518.855l-4.072 2.592 5.973-3.448a.5.5 0 0 1 .524.852l-7.6 4.957 10.065-5.811a.5.5 0 0 1 .526.85l-9.133 6.056 11.967-6.908a.5.5 0 0 1 .522.853l-6.667 4.317 8.958-5.172a.5.5 0 0 1 .53.847l-10.605 7.193 13.662-7.886a.5.5 0 0 1 .515.856l-.1.062.024-.014a.5.5 0 0 1 .519.854l-2.373 1.512 3.175-1.833a.5.5 0 0 1 .523.852l-4.608 2.988 4.951-2.858a.5.5 0 0 1 .534.844l-7.619 5.245 7.451-4.3a.5.5 0 0 1 .542.838l-6.615 4.754 6.073-3.5a.5.5 0 0 1 .533.844l-1.85 1.271 1.321-.762a.5.5 0 0 1 .553.83l-3.184 2.429 2.631-1.519a.5.5 0 0 1 .557.826l-1.311 1.026.754-.435a.5.5 0 0 1 .582.807l-.821.726.214-.123a.5.5 0 1 1 .5.866l-4.496 2.591a.5.5 0 0 1 -.582-.806l.818-.725-2.652 1.531a.5.5 0 0 1 -.557-.826l1.308-1.023-3.2 1.849a.5.5 0 0 1 -.554-.83l3.188-2.43-5.65 3.26a.5.5 0 0 1 -.533-.844l1.853-1.273-3.671 2.117a.5.5 0 0 1 -.542-.839l6.613-4.753-9.687 5.592a.5.5 0 0 1 -.534-.844l7.619-5.245-10.547 6.089a.5.5 0 0 1 -.523-.851l4.606-2.991-6.658 3.842a.5.5 0 0 1 -.518-.854l2.378-1.514-4.1 2.368a.5.5 0 0 1 -.515-.856l.093-.059-1.585.915a.5.5 0 0 1 -.531-.846l10.613-7.195-13.931 8.041a.5.5 0 0 1 -.522-.852l6.67-4.319-8.958 5.171a.5.5 0 0 1 -.526-.849l9.133-6.051-11.964 6.9a.5.5 0 0 1 -.523-.851l7.6-4.957-10.066 5.808a.5.5 0 0 1 -.518-.854l4.07-2.592-5.969 3.446a.5.5 0 0 1 -.518-.855l2.256-1.424-3.948 2.279a.5.5 0 0 1 -.519-.853l4.832-3.091-6.832 3.944a.5.5 0 0 1 -.517-.85l6.315-4.078-8.547 4.928a.489.489 0 0 1 -.249.07z" fill="#35718a"/><path d="m8.256 45.47a.5.5 0 0 1 -.268-.923l1.388-.879-3 1.734a.5.5 0 0 1 -.527-.849l7.607-5.053-10.019 5.788a.5.5 0 0 1 -.529-.848l8.384-5.634-9.4 5.428a.5.5 0 0 1 -.535-.843l8.4-5.815-8.475 4.893a.5.5 0 0 1 -.526-.85l3.154-2.091-2.63 1.518a.5.5 0 0 1 -.528-.846l1.569-1.05-1.041.6a.5.5 0 0 1 -.551-.832l4.416-3.318-3.865 2.233a.5.5 0 0 1 -.559-.826l2.6-2.043-2.041 1.178a.5.5 0 0 1 -.566-.821l.916-.747-.35.2a.5.5 0 0 1 -.64-.745l1.039-1.3a.491.491 0 0 1 -.5-.246.5.5 0 0 1 .183-.682l2.05-1.184a.5.5 0 0 1 .64.745l-.972 1.221 3.439-1.983a.5.5 0 0 1 .565.82l-.918.749 2.719-1.569a.5.5 0 0 1 .559.826l-2.6 2.042 4.97-2.868a.5.5 0 0 1 .55.832l-4.415 3.315 7.187-4.147a.5.5 0 0 1 .528.848l-1.564 1.04 3.275-1.89a.5.5 0 0 1 .526.849l-3.16 2.1 5.1-2.945a.5.5 0 0 1 .535.843l-8.4 5.812 11.534-6.657a.5.5 0 0 1 .529.847l-8.387 5.636 11.231-6.483a.5.5 0 0 1 .526.849l-7.609 5.051 10.219-5.9a.5.5 0 0 1 .518.855l-1.393.882 3.006-1.737a.5.5 0 0 1 .525.85l-6.816 4.48 9.241-5.33a.5.5 0 0 1 .533.844l-9.785 6.723 13.105-7.567a.5.5 0 0 1 .534.843l-9.955 6.868 13.357-7.711a.5.5 0 0 1 .526.849l-7.395 4.892 9.948-5.741a.5.5 0 0 1 .531.845l-9.294 6.324 12.418-7.169a.5.5 0 0 1 .529.846l-8.821 5.954 11.778-6.8a.5.5 0 0 1 .533.845l-9.469 6.464 12.435-7.179a.5.5 0 0 1 .523.851l-5.539 3.607 6.319-3.649a.5.5 0 0 1 .522.853l-3.662 2.371 3.775-2.179a.5.5 0 0 1 .536.843l-7.5 5.222 7.135-4.119a.5.5 0 0 1 .525.85l-1.169.771.644-.371a.5.5 0 0 1 .539.841l-3.618 2.567 3.079-1.778a.5.5 0 0 1 .539.841l-1.294.917.755-.436a.5.5 0 0 1 .578.811l-2.758 2.4 2.18-1.258a.5.5 0 0 1 .581.807l-.633.559.011-.006a.5.5 0 0 1 .5.865l-4.326 2.49a.5.5 0 0 1 -.581-.807l.632-.559-2.367 1.366a.5.5 0 0 1 -.578-.81l2.757-2.39-5.551 3.2a.5.5 0 0 1 -.539-.84l1.289-.915-3.039 1.755a.5.5 0 0 1 -.539-.84l3.619-2.568-5.903 3.408a.5.5 0 0 1 -.526-.849l1.175-.776-2.815 1.625a.5.5 0 0 1 -.536-.842l7.5-5.223-10.509 6.065a.5.5 0 0 1 -.522-.852l3.66-2.37-5.577 3.222a.5.5 0 0 1 -.523-.851l5.546-3.611-7.735 4.462a.5.5 0 0 1 -.532-.845l9.469-6.463-12.66 7.308a.5.5 0 0 1 -.53-.846l8.822-5.954-11.778 6.8a.5.5 0 0 1 -.532-.845l9.295-6.325-12.419 7.17a.5.5 0 0 1 -.526-.849l7.4-4.894-9.953 5.743a.5.5 0 0 1 -.534-.843l9.954-6.867-13.355 7.71a.5.5 0 0 1 -.534-.844l9.786-6.724-13.11 7.568a.5.5 0 0 1 -.525-.85l6.816-4.482-9.237 5.332a.489.489 0 0 1 -.249.07z" fill="#4184a9"/><path d="m7.443 41.411a.5.5 0 0 1 -.354-.853l.778-.778-1.553.9a.5.5 0 0 1 -.578-.811l.484-.419-.6.348a.5.5 0 0 1 -.594-.8l1.048-.99-.789.455a.5.5 0 0 1 -.625-.764l.86-.973a.5.5 0 0 1 -.153-.923l2.05-1.184a.5.5 0 0 1 .625.764l-.6.681 1.826-1.053a.5.5 0 0 1 .593.8l-1.047.99 1.439-.83a.5.5 0 0 1 .577.81l-.485.421.323-.186a.5.5 0 0 1 .6.786l-.778.776.062-.035a.5.5 0 1 1 .5.865l-3.359 1.936a.491.491 0 0 1 -.25.067z" fill="#86fdaa"/><path d="m18.336 41.447a.5.5 0 0 1 -.376-.83l.62-.7-1.851 1.068a.5.5 0 0 1 -.589-.8l.876-.809-1.229.709a.5.5 0 0 1 -.573-.814l.251-.212-.1.057a.5.5 0 0 1 -.659-.719l1.247-1.776-.088.051a.5.5 0 1 1 -.5-.865l2.05-1.184a.5.5 0 0 1 .659.72l-1.247 1.775 2.957-1.707a.5.5 0 0 1 .573.815l-.25.211.3-.175a.5.5 0 0 1 .589.8l-.878.81.6-.344a.5.5 0 0 1 .637.117.5.5 0 0 1 -.011.646l-.866.984a.5.5 0 0 1 .159.924l-2.05 1.184a.491.491 0 0 1 -.251.064z" fill="#86fdaa"/><path d="m7.349 55.393a.5.5 0 0 1 -.392-.81l1.7-2.154-2.869 1.655a.5.5 0 0 1 -.613-.776l1.625-1.716-1.515.874a.5.5 0 0 1 -.625-.764l.862-.974a.5.5 0 0 1 -.338-.242.5.5 0 0 1 .183-.682l2.05-1.184a.5.5 0 0 1 .637.116.5.5 0 0 1 -.012.648l-.606.685 1.831-1.056a.5.5 0 0 1 .613.776l-1.625 1.717 2.156-1.245a.5.5 0 0 1 .643.742l-1.7 2.154 1.228-.708a.5.5 0 1 1 .5.865l-3.482 2.011a.49.49 0 0 1 -.251.068z" fill="#6de08e"/><path d="m16.96 55.276a.5.5 0 0 1 -.365-.841l1.432-1.526-2.182 1.259a.5.5 0 0 1 -.573-.814l.261-.221-.148.085a.5.5 0 0 1 -.664-.713l1.308-1.931-.165.095a.5.5 0 1 1 -.5-.865l2.05-1.184a.5.5 0 0 1 .664.713l-1.308 1.932 3.091-1.785a.5.5 0 0 1 .574.815l-.259.219.281-.162a.5.5 0 0 1 .615.774l-1.433 1.527 1.037-.6a.5.5 0 1 1 .5.865l-3.967 2.289a.488.488 0 0 1 -.249.069z" fill="#6de08e"/><path d="m14.822 25.434a.5.5 0 0 1 -.263-.926l2.689-1.657-3.282 1.894a.5.5 0 0 1 -.516-.856l8.9-5.585-9.975 5.759a.5.5 0 0 1 -.523-.852l15.461-10.062-17.859 10.311a.5.5 0 0 1 -.52-.854l13.723-8.8-17.073 9.861a.5.5 0 0 1 -.516-.855l12.075-7.62-15.718 9.075a.5.5 0 0 1 -.519-.855l15.653-9.969-15.279 8.822a.5.5 0 0 1 -.516-.856l10.436-6.565-9.822 5.67a.5.5 0 0 1 -.514-.858l4.936-3.073-4.184 2.417a.5.5 0 0 1 -.521-.853l10.476-6.778-9.271 5.355a.5.5 0 0 1 -.52-.854l5.345-3.428-3.889 2.244a.5.5 0 0 1 -.526-.85l5.236-3.477-3.009 1.741a.5.5 0 0 1 -.545-.836l4.2-3.076a.506.506 0 0 1 -.316-.237.5.5 0 0 1 .184-.682l6.555-3.785a.5.5 0 0 1 .545.836l-3.17 2.319 8.91-5.139a.5.5 0 0 1 .526.85l-5.242 3.48 8.6-4.97a.5.5 0 0 1 .52.854l-5.345 3.428 7.815-4.512a.5.5 0 0 1 .521.852l-10.48 6.781 13.213-7.628a.5.5 0 0 1 .514.857l-4.942 3.076 6.56-3.787a.5.5 0 0 1 .516.856l-10.424 6.556 12.32-7.112a.5.5 0 0 1 .518.855l-15.664 9.975 17.854-10.311a.5.5 0 0 1 .516.856l-12.06 7.609 13.688-7.9a.5.5 0 0 1 .52.854l-13.726 8.8 15.432-8.91a.5.5 0 0 1 .522.852l-15.463 10.063 17.252-9.96a.5.5 0 0 1 .516.857l-8.893 5.579 9.879-5.7a.5.5 0 0 1 .513.858l-2.685 1.652 3.288-1.9a.5.5 0 0 1 .525.85l-12.104 7.968 13.341-7.7a.5.5 0 0 1 .523.853l-8.974 5.819 9.829-5.675a.5.5 0 0 1 .525.851l-9.763 6.414 10.6-6.118a.5.5 0 0 1 .527.848l-10.834 7.237 11.68-6.744a.5.5 0 0 1 .527.849l-6.634 4.429 7.116-4.109a.5.5 0 0 1 .525.851l-2.843 1.867 3.043-1.757a.5.5 0 0 1 .545.837l-7.54 5.5 8.061-4.654a.5.5 0 0 1 .541.839l-5.679 4.064 5.893-3.4a.5.5 0 0 1 .529.848l-1.152.772 1.03-.595a.5.5 0 0 1 .538.842l-.787.555.585-.338a.5.5 0 0 1 .6.785l-2.7 2.716 2.517-1.454a.5.5 0 0 1 .655.725l-1.444 1.999.94-.542a.5.5 0 0 1 .646.738l-.331.429a.5.5 0 0 1 .185.929l-1.7.983a.5.5 0 0 1 -.647-.737l.164-.214-.784.453a.5.5 0 0 1 -.655-.725l1.453-2-3.734 2.155a.5.5 0 0 1 -.6-.785l2.7-2.717-6.932 4a.5.5 0 0 1 -.538-.842l.79-.555-4.37 2.521a.5.5 0 0 1 -.528-.847l1.14-.765-1.83 1.057a.5.5 0 0 1 -.541-.839l5.681-4.066-7.3 4.215a.5.5 0 0 1 -.545-.837l7.541-5.5-10.264 5.916a.5.5 0 0 1 -.525-.85l2.843-1.859-5.106 2.949a.5.5 0 0 1 -.528-.849l6.636-4.43-11.591 6.687a.5.5 0 0 1 -.528-.849l10.836-7.24-12.387 7.151a.5.5 0 0 1 -.525-.85l9.756-6.41-11.594 6.694a.5.5 0 0 1 -.522-.853l8.983-5.823-11.351 6.553a.5.5 0 0 1 -.525-.851l12.1-7.962-18.622 10.749a.489.489 0 0 1 -.249.068z" fill="#d4893b"/><path d="m26.474 2.047a.5.5 0 0 1 -.251-.933l.715-.414a.5.5 0 1 1 .5.865l-.715.413a.489.489 0 0 1 -.249.069z" fill="#e69b45"/><path d="m13.722 24.817a.5.5 0 0 1 -.46-.7l.667-1.559-2.242 1.293a.5.5 0 0 1 -.649-.131.5.5 0 0 1 .05-.661l.689-.667-1.908 1.108a.5.5 0 0 1 -.586-.8l2.146-1.949-4.763 2.749a.5.5 0 0 1 -.554-.83l2.948-2.255-7.3 4.214a.5.5 0 0 1 -.532-.846l3.578-2.445-3.526 2.036a.5.5 0 0 1 -.539-.841l6.819-4.814-6.25 3.608a.5.5 0 0 1 -.535-.844l6.806-4.7-6.01 3.47a.5.5 0 0 1 -.522-.853l1.188-.767-.31.179a.5.5 0 0 1 -.523-.852l9.074-5.9-7.643 4.412a.5.5 0 0 1 -.536-.843l9.131-6.371-6.36 3.672a.5.5 0 0 1 -.544-.837l4.021-2.921a.5.5 0 0 1 -.09-.906l6.554-3.785a.5.5 0 0 1 .544.837l-2.709 1.968 8.193-4.729a.5.5 0 0 1 .536.842l-9.129 6.37 13.909-8.031a.5.5 0 0 1 .523.852l-9.067 5.9 1.182-.69a.5.5 0 0 1 .522.852l-1.588 1.029a.512.512 0 0 1 .529.221.5.5 0 0 1 -.139.679l-6.811 4.705 5.047-2.913a.5.5 0 0 1 .538.841l-6.82 4.815 5.439-3.139a.5.5 0 0 1 .532.845l-3.574 2.443 2.615-1.51a.5.5 0 0 1 .554.83l-2.943 2.247 2.073-1.2a.5.5 0 0 1 .586.8l-2.147 1.955 1.375-.794a.5.5 0 0 1 .6.792l-.69.668.039-.022a.5.5 0 0 1 .71.629l-.667 1.562a.5.5 0 0 1 .469.882l-1.268.731a.5.5 0 0 1 -.252.069z" fill="#e69b45"/><path d="m44.623 25.4a.5.5 0 0 1 -.284-.088.5.5 0 0 1 -.209-.493l.186-1.134-1.337.771a.5.5 0 0 1 -.664-.714l.994-1.462-2.576 1.487a.5.5 0 0 1 -.62-.769l2.164-2.387-4.839 2.789a.5.5 0 0 1 -.555-.828l1.583-1.226-4.24 2.454a.5.5 0 0 1 -.538-.842l1.112-.779-4.52 2.609a.5.5 0 0 1 -.531-.846l2.89-1.966-2.359 1.359a.5.5 0 0 1 -.529-.849l1.221-.816-.692.4a.5.5 0 0 1 -.542-.839l4.981-3.57-4.439 2.562a.5.5 0 0 1 -.532-.846l1.728-1.177-1.2.691a.5.5 0 0 1 -.539-.841l3.363-2.379-2.82 1.629a.5.5 0 0 1 -.541-.84l3.161-2.26-2.62 1.513a.5.5 0 0 1 -.559-.826l4.948-3.878-4.389 2.534a.5.5 0 0 1 -.54-.84l1.186-.844-.646.373a.5.5 0 0 1 -.552-.831l2.463-1.865-1.911 1.1a.5.5 0 0 1 -.58-.809l3.568-3.127-2.988 1.724a.5.5 0 0 1 -.584-.806l2.291-2.048-1.707.986a.5.5 0 0 1 -.608-.782l1.636-1.674-1.028.592a.5.5 0 0 1 -.627-.761l.575-.656a.509.509 0 0 1 -.5-.062.5.5 0 0 1 -.18-.525l.246-.924a.5.5 0 0 1 -.013-.872l.468-.271a.5.5 0 0 1 .734.561l-.159.6 1.51-.882a.5.5 0 0 1 .626.762l-.566.648 1.547-.893a.5.5 0 0 1 .609.781l-1.637 1.683 2.764-1.595a.5.5 0 0 1 .583.806l-2.29 2.048 3.181-1.84a.5.5 0 0 1 .58.808l-3.566 3.134 4.482-2.588a.5.5 0 0 1 .552.831l-2.467 1.868 2.859-1.653a.5.5 0 0 1 .54.84l-1.186.843 1.351-.78a.5.5 0 0 1 .558.827l-4.949 3.879 5.42-3.129a.5.5 0 0 1 .541.839l-3.159 2.261 3.281-1.894a.5.5 0 0 1 .539.841l-3.365 2.38 3.418-1.972a.5.5 0 0 1 .531.845l-1.724 1.176 1.631-.941a.5.5 0 0 1 .541.839l-4.981 3.57 4.971-2.869a.5.5 0 0 1 .528.849l-1.221.816 1-.574a.5.5 0 0 1 .531.845l-2.887 1.961 2.646-1.527a.5.5 0 0 1 .538.842l-1.117.783.79-.456a.5.5 0 0 1 .556.828l-1.583 1.227 1.212-.7a.5.5 0 0 1 .62.769l-2.162 2.382 1.7-.98a.5.5 0 0 1 .664.714l-.997 1.466.363-.209a.5.5 0 0 1 .744.514l-.237 1.437a.506.506 0 0 1 .2.191.5.5 0 0 1 -.183.682l-.377.218a.5.5 0 0 1 -.254.067z" fill="#e69b45"/><g fill="#262626"><path d="m8.053 41.51c4.589-.256 4.517-7.382-.27-7.011-4.398.428-4.345 7.176.27 7.011zm.192-5.955a2.683 2.683 0 0 1 2.215 2.615c-.177 3.3-4.923 2.729-4.92-.34a2.329 2.329 0 0 1 2.705-2.275z"/><path d="m17.936 41.6c4.676-.026 4.532-7.488-.2-7.176-4.242.321-4.106 7.141.2 7.176zm2.6-3.562c-.256 3.069-5.11 3.076-5.074-.067.038-3.185 4.83-2.98 5.078.064z"/><path d="m57.558 44.979c3-1.141 2.618-9.543 1.806-12.163-1.191-2.776-4.237-2.266-6.69-2.266h-37.368c-9.443-.012-16.838-2.968-14.906 10.216.126 2.422.9 3.628 2.342 4.2-3.174 1.463-2.328 5.614-2.328 9.034 0 3.9 1.374 5.358 5.152 5.463 5.137.142 10.3 0 15.437 0q17.493-.007 34.99 0c4.756-.96 4.254-7.686 3.593-11.541a3.541 3.541 0 0 0 -2.028-2.943zm-55.958-9.745c.9-4.765 4.367-3.784 8.079-3.784 14.911.241 29.924-.391 44.8 0 2 .267 3.273.372 3.917 3.16.556 2.407.655 9.212-2.511 9.941-16.947.041-33.926-.1-50.847-.107-3.858-.944-4.151-5.461-3.438-9.21zm54.42 23.3c-16.571-.5-33.421 1.053-49.946 0-4.89 1.105-5.153-6.166-4.488-9.363.57-3 2.1-3.752 4.149-3.721 11.6.12 23.214-.04 34.816.017 4.456-.021 8.92-.04 13.375 0 2.239.232 3.553.261 4.488 3.2.691 2.176.521 9.255-2.394 9.866z"/><path d="m11.441 51.862a3.445 3.445 0 1 0 -6.886.2c.11 4.762 6.987 4.517 6.886-.2zm-5.964 0c.2-3.117 4.792-2.79 5.065.167-.228 3.154-5.266 3.016-5.065-.166z"/><path d="m21.423 51.676c-.386-4.55-6.859-4.078-6.882.382.159 4.948 7.125 4.41 6.882-.382zm-5.964.267c-.022-3.168 4.917-2.956 5.082.114-.169 3.143-5.062 2.979-5.082-.114z"/><path d="m15.446 25.151c6.541-2.028 7.608-2.2 14.1.056.035.559.594.37.823-.033 5.568-2.52 8.572-1.917 14.13.183.148.2.526.135.794-.057 2.732-.347 5.1-2.127 8.265-1.705 3.481.464 6.014 2.745 6.014-2.031-.796-14.297-16.567-21.043-29.229-21.064a.336.336 0 0 0 -.375 0c-12.054-.046-26.374 5.752-29.258 18.458-.4 2.119-1.165 5.655 1.684 5.791 1.2.057 3.415-.945 4.669-1.026 2.983-.227 4.654.81 7.367 1.4-.03.53.716.407 1.016.028zm11.829-1.938c-3.9-1.564-7.895-.12-11.692.68.186-8.637 3.541-22.874 13.951-22.373v22.24a10.742 10.742 0 0 1 -2.259-.547zm11.876-.594c-2.89-.561-5.986.7-8.685 1.157v-22.241c10.889.724 13.841 13.248 13.947 22.291-1.713-.188-3.28-.976-5.262-1.207zm19.281-.728c0 2.54-4.4.642-6.2.63-2.529-.072-4.283 1.043-6.671 1.336-.185-7.464-2.446-17.783-9.061-21.727 10.786 1.87 21.492 8.103 21.932 19.761zm-45.866 1.357a16.216 16.216 0 0 0 -6.337-.6c-2.682.362-4.929 1.62-4.622-2.098 1.059-11.095 12.612-17.357 22.693-18.665-7.411 3.675-9.627 13.949-9.851 21.881-.534-.124-1.087-.319-1.883-.518z"/><path d="m29.868 38.576h24c.573 0 .895-1.152.264-1.152h-24c-.573 0-.895 1.152-.264 1.152z"/><path d="m53.9 51.548h-24c-.788 0-.476.9.2.9h24c.787.004.475-.9-.2-.9z"/></g></svg>