<svg id="Icons" height="512" viewBox="0 0 60 60" width="512" xmlns="http://www.w3.org/2000/svg"><path d="m6.063 44.5a.5.5 0 0 1 -.308-.894l3.276-2.556-5.751 3.318a.5.5 0 0 1 -.554-.829l2.95-2.264-2.4 1.383a.5.5 0 0 1 -.588-.8l2.3-2.095-1.708.985a.5.5 0 0 1 -.611-.779l.713-.741-.1.058a.5.5 0 0 1 -.732-.565l.261-.952a.5.5 0 0 1 -.029-.881l.5-.289a.5.5 0 0 1 .732.565l-.178.648 2.1-1.214a.5.5 0 0 1 .61.779l-.712.74 2.637-1.521a.5.5 0 0 1 .587.8l-2.3 2.1 5.023-2.9a.5.5 0 0 1 .554.829l-2.95 2.264 5.361-3.095a.5.5 0 0 1 .558.827l-3.276 2.556 5.872-3.388a.5.5 0 0 1 .571.815l-3.94 3.306 7.142-4.123a.5.5 0 0 1 .571.815l-3.932 3.3 7.129-4.115a.5.5 0 0 1 .555.829l-3.055 2.347 5.505-3.178a.5.5 0 0 1 .575.813l-4.032 3.445 7.379-4.26a.5.5 0 0 1 .558.827l-3.27 2.549 5.853-3.378a.5.5 0 0 1 .545.836l-2.088 1.529 4.1-2.366a.5.5 0 0 1 .536.843l-.264.183 1.782-1.028a.5.5 0 0 1 .562.824l-3.513 2.8 6.272-3.621a.5.5 0 0 1 .553.831l-2.869 2.178 5.217-3.011a.5.5 0 0 1 .574.813l-4.025 3.435 7.363-4.25a.5.5 0 0 1 .549.834l-2.5 1.866 4.68-2.7a.5.5 0 0 1 .553.83l-2.983 2.282 5.392-3.114a.5.5 0 0 1 .545.836l-2.09 1.523 2.33-1.345a.5.5 0 0 1 .569.817l-2.633 2.185 2.071-1.2a.5.5 0 0 1 .586.8l-1.123 1.021.535-.309a.5.5 0 0 1 .65.734l-.532.707a.5.5 0 0 1 .389.913l-1.983 1.143a.5.5 0 0 1 -.65-.733l.508-.677-2.445 1.412a.5.5 0 0 1 -.586-.8l1.114-1.015-3.152 1.819a.5.5 0 0 1 -.57-.817l2.632-2.184-5.2 3a.5.5 0 0 1 -.545-.836l2.084-1.526-4.1 2.364a.5.5 0 0 1 -.553-.83l2.992-2.277-5.395 3.114a.5.5 0 0 1 -.549-.834l2.5-1.865-4.68 2.7a.5.5 0 0 1 -.574-.812l4.025-3.437-7.364 4.251a.5.5 0 0 1 -.553-.831l2.867-2.177-5.214 3.01a.5.5 0 0 1 -.561-.824l3.511-2.8-6.271 3.621a.5.5 0 0 1 -.53-.84l.269-.187-1.789 1.031a.5.5 0 0 1 -.545-.836l2.09-1.53-4.1 2.367a.5.5 0 0 1 -.557-.827l3.268-2.548-5.85 3.377a.5.5 0 0 1 -.575-.813l4.032-3.445-7.38 4.26a.5.5 0 0 1 -.555-.829l3.055-2.347-5.5 3.178a.5.5 0 0 1 -.571-.816l3.932-3.3-7.129 4.116a.5.5 0 0 1 -.571-.816l3.937-3.3-7.148 4.12a.494.494 0 0 1 -.25.069z" fill="#296172"/><path d="m5.086 23.5a.5.5 0 0 1 -.316-.887l3.742-3.055-5.232 3.02a.5.5 0 0 1 -.59-.8l3.334-3.083-2.744 1.584a.5.5 0 0 1 -.594-.8l.946-.894-.352.2a.5.5 0 0 1 -.739-.539l.315-1.465a.494.494 0 0 1 -.259-.219.5.5 0 0 1 .183-.683l.5-.289a.5.5 0 0 1 .739.538l-.264 1.227 3.062-1.755a.5.5 0 0 1 .594.8l-.946.894 2.935-1.701a.5.5 0 0 1 .589.8l-3.338 3.084 6.73-3.886a.5.5 0 0 1 .566.82l-3.741 3.054 6.713-3.876a.5.5 0 0 1 .563.823l-3.582 2.874 6.406-3.7a.5.5 0 0 1 .547.835l-2.3 1.7 4.391-2.536a.5.5 0 0 1 .577.812l-4.071 3.509 7.487-4.323a.5.5 0 0 1 .539.842l-1.036.732 2.729-1.575a.5.5 0 0 1 .542.839l-1.611 1.158 3.46-2a.5.5 0 0 1 .552.831l-2.9 2.21 5.269-3.043a.5.5 0 0 1 .568.82l-3.78 3.1 6.793-3.923a.5.5 0 0 1 .537.843l-.571.4 2.153-1.243a.5.5 0 0 1 .564.822l-3.662 2.961 6.556-3.785a.5.5 0 0 1 .561.825l-3.492 2.774 6.237-3.6a.5.5 0 0 1 .546.837l-2.136 1.567 4.165-2.4a.5.5 0 0 1 .553.83l-2.963 2.257 5.357-3.093a.5.5 0 0 1 .559.826l-3.4 2.68 6.074-3.508a.5.5 0 0 1 .547.836l-2.31 1.706 2.787-1.609a.5.5 0 0 1 .571.816l-2.814 2.359 2.251-1.3a.5.5 0 0 1 .644.741l-1.669 2.134 1.035-.6a.5.5 0 0 1 .734.56l-.265 1.016a.5.5 0 0 1 .038.886l-.5.288a.5.5 0 0 1 -.553-.035.5.5 0 0 1 -.18-.524l.189-.726-2.229 1.287a.5.5 0 0 1 -.644-.741l1.668-2.131-4.984 2.877a.5.5 0 0 1 -.572-.816l2.812-2.357-5.5 3.175a.5.5 0 0 1 -.547-.835l2.311-1.708-4.407 2.545a.5.5 0 0 1 -.559-.826l3.4-2.681-6.076 3.508a.5.5 0 0 1 -.554-.83l2.959-2.26-5.354 3.092a.5.5 0 0 1 -.546-.836l2.14-1.571-4.17 2.408a.5.5 0 0 1 -.561-.825l3.491-2.773-6.235 3.6a.5.5 0 0 1 -.565-.822l3.663-2.962-6.557 3.786a.5.5 0 0 1 -.536-.843l.563-.394-2.14 1.238a.5.5 0 0 1 -.567-.819l3.78-3.1-6.789 3.921a.5.5 0 0 1 -.553-.831l2.906-2.212-5.272 3.045a.5.5 0 0 1 -.542-.839l1.605-1.156-3.457 2a.5.5 0 0 1 -.539-.841l1.038-.735-2.731 1.577a.5.5 0 0 1 -.577-.812l4.07-3.508-7.486 4.323a.5.5 0 0 1 -.547-.836l2.3-1.7-4.395 2.533a.5.5 0 0 1 -.563-.823l3.584-2.874-6.406 3.7a.488.488 0 0 1 -.249.067z" fill="#296172"/><path d="m12.572 38.47a.5.5 0 0 1 -.266-.924l1.777-1.112-3.411 1.966a.5.5 0 0 1 -.526-.849l10.642-7.062-13.704 7.911a.5.5 0 0 1 -.517-.855l4.51-2.856-6.428 3.711a.5.5 0 0 1 -.523-.851l8.739-5.686-10.724 6.194a.5.5 0 0 1 -.523-.852l8.705-5.688-9.023 5.207a.5.5 0 0 1 -.52-.854l3.92-2.51-3.42 1.977a.5.5 0 0 1 -.518-.855l.519-.33a.5.5 0 0 1 -.523-.852l1.53-.99-1.008.582a.5.5 0 0 1 -.543-.838l6.439-4.641-5.9 3.4a.5.5 0 0 1 -.558-.827l5.063-3.957-4.5 2.6a.5.5 0 0 1 -.581-.803l3.26-2.886-2.68 1.546a.5.5 0 0 1 -.6-.788l1.315-1.3-.713.412a.5.5 0 0 1 -.635-.753l.5-.6a.5.5 0 0 1 -.075-.9l1.65-.957a.5.5 0 0 1 .634.753l-.161.194 1.644-.947a.5.5 0 0 1 .6.788l-1.315 1.3 3.625-2.088a.5.5 0 0 1 .581.807l-3.26 2.884 6.4-3.694a.5.5 0 0 1 .558.827l-5.064 3.956 8.285-4.78a.5.5 0 0 1 .543.839l-6.44 4.641 9.492-5.48a.5.5 0 0 1 .521.853l-1.526.987 3.188-1.84a.5.5 0 0 1 .518.855l-.524.333 2.058-1.188a.5.5 0 0 1 .52.854l-3.916 2.507 5.817-3.361a.5.5 0 0 1 .524.851l-8.7 5.689 11.326-6.54a.5.5 0 0 1 .523.852l-8.743 5.685 11.328-6.537a.5.5 0 0 1 .517.855l-4.51 2.856 6.428-3.711a.5.5 0 0 1 .527.849l-10.644 7.06 13.7-7.912a.5.5 0 0 1 .516.857l-1.772 1.112 3.411-1.966a.5.5 0 0 1 .516.856l-3.819 2.41 5.658-3.266a.5.5 0 0 1 .517.856l-3.481 2.193 5.278-3.049a.5.5 0 0 1 .527.85l-10.434 6.904 13.438-7.754a.5.5 0 0 1 .528.848l-11.3 7.564 14.574-8.412a.5.5 0 0 1 .525.85l-10.048 6.618 12.941-7.468a.5.5 0 0 1 .521.852l-8.272 5.359 10.212-5.9a.5.5 0 0 1 .528.849l-10.632 7.1 11.007-6.355a.5.5 0 0 1 .528.849l-8.358 5.59 7.835-4.524a.5.5 0 0 1 .519.854l-.836.536.317-.183a.5.5 0 0 1 .537.843l-6.2 4.344 5.667-3.271a.5.5 0 0 1 .551.832l-5.425 4.094 4.874-2.814a.5.5 0 0 1 .536.843l-.459.32a.5.5 0 0 1 .48.865l-1.614 1.258 1.057-.609a.5.5 0 0 1 .605.785l-1.537 1.549.932-.537a.5.5 0 0 1 .638.747l-.529.655a.5.5 0 0 1 .1.911l-1.655.956a.5.5 0 0 1 -.638-.747l.254-.314-1.842 1.063a.5.5 0 0 1 -.606-.785l1.537-1.549-4.044 2.334a.5.5 0 0 1 -.557-.827l1.618-1.257-3.618 2.084a.5.5 0 0 1 -.536-.842l.387-.271-1.933 1.113a.5.5 0 0 1 -.551-.832l5.426-4.093-8.529 4.925a.5.5 0 0 1 -.538-.841l6.205-4.346-8.986 5.187a.5.5 0 0 1 -.519-.853l.83-.532-2.4 1.385a.5.5 0 0 1 -.528-.848l8.359-5.59-11.154 6.438a.5.5 0 0 1 -.527-.848l10.633-7.1-13.768 7.948a.5.5 0 0 1 -.522-.852l8.269-5.358-10.758 6.21a.5.5 0 0 1 -.525-.85l10.05-6.622-12.944 7.472a.5.5 0 0 1 -.528-.847l11.3-7.563-14.573 8.41a.5.5 0 0 1 -.526-.849l10.439-6.909-13.435 7.758a.5.5 0 0 1 -.516-.855l3.476-2.192-5.283 3.047a.5.5 0 0 1 -.517-.855l3.824-2.413-5.663 3.268a.489.489 0 0 1 -.249.07z" fill="#4184a9"/><path d="m30.125 59.47a.5.5 0 0 1 -.266-.924l2.031-1.273-3.69 2.127a.5.5 0 0 1 -.53-.846l11.81-7.973-15.274 8.819a.5.5 0 0 1 -.527-.849l10.652-7.069-13.716 7.918a.5.5 0 0 1 -.529-.847l11.473-7.7-14.809 8.547a.5.5 0 0 1 -.519-.854l5.561-3.54-7.612 4.394a.5.5 0 0 1 -.517-.855l4.166-2.634-6.044 3.489a.5.5 0 0 1 -.524-.85l9.687-6.359-12.488 7.209a.5.5 0 0 1 -.52-.853l6.909-4.433-9.158 5.286a.5.5 0 0 1 -.527-.848l10.961-7.3-13.758 7.94a.5.5 0 0 1 -.527-.848l10.66-7.104-11.2 6.46a.5.5 0 0 1 -.523-.851l6.45-4.207-5.947 3.437a.5.5 0 0 1 -.537-.843l8.605-6.018-8.068 4.657a.5.5 0 0 1 -.523-.852l.417-.271a.5.5 0 0 1 -.432-.888l4.058-2.864-3.52 2.037a.5.5 0 0 1 -.534-.844l.836-.578-.3.174a.5.5 0 0 1 -.546-.836l1.185-.866-.639.368a.5.5 0 0 1 -.6-.785l2.313-2.321-1.709.986a.5.5 0 0 1 -.664-.713l.77-1.139a.5.5 0 0 1 -.32-.927l1.65-.956a.5.5 0 0 1 .664.713l-.725 1.071 3.1-1.786a.5.5 0 0 1 .6.785l-2.313 2.317 5.379-3.1a.5.5 0 0 1 .546.836l-1.184.864 2.949-1.7a.5.5 0 0 1 .534.843l-.837.58 2.465-1.423a.5.5 0 0 1 .538.841l-4.059 2.859 6.411-3.7a.5.5 0 0 1 .522.851l-.2.133 1.706-.984a.5.5 0 0 1 .537.842l-8.606 6.02 11.884-6.862a.5.5 0 0 1 .523.851l-6.446 4.203 8.759-5.054a.5.5 0 0 1 .527.848l-10.66 7.105 13.776-7.953a.5.5 0 0 1 .528.848l-10.964 7.304 14.124-8.152a.5.5 0 0 1 .52.853l-6.9 4.431 9.149-5.284a.5.5 0 0 1 .525.85l-9.694 6.359 12.5-7.209a.5.5 0 0 1 .517.855l-4.163 2.631 6.04-3.486a.5.5 0 0 1 .519.854l-5.565 3.542 7.616-4.4a.5.5 0 0 1 .529.847l-11.472 7.7 14.804-8.543a.5.5 0 0 1 .526.849l-10.651 7.066 13.714-7.915a.5.5 0 0 1 .53.846l-11.812 7.972 15.28-8.82a.5.5 0 0 1 .515.856l-2.016 1.264 3.518-2.031a.5.5 0 0 1 .524.851l-9.124 5.962 9.838-5.68a.5.5 0 0 1 .52.854l-4.752 3.046 4.385-2.532a.5.5 0 0 1 .524.851l-5.772 3.791 5.248-3.03a.5.5 0 0 1 .528.848l-4.963 3.32 4.435-2.56a.5.5 0 0 1 .527.849l-2.39 1.6 1.863-1.076a.5.5 0 0 1 .549.834l-4.876 3.625 4.327-2.5a.5.5 0 0 1 .549.833l-2.282 1.7 1.733-1a.5.5 0 0 1 .58.809l-2.2 1.929 1.615-.932a.5.5 0 0 1 .677.691l-1.084 1.789.2-.112a.5.5 0 0 1 .5.865l-1.88 1.088a.5.5 0 0 1 -.678-.691l1.083-1.789-4.3 2.48a.5.5 0 0 1 -.58-.808l2.194-1.928-4.737 2.736a.5.5 0 0 1 -.548-.833l2.282-1.7-4.393 2.533a.5.5 0 0 1 -.549-.834l4.878-3.63-7.733 4.464a.5.5 0 0 1 -.527-.848l2.387-1.594-4.231 2.442a.5.5 0 0 1 -.529-.848l4.96-3.318-7.216 4.166a.5.5 0 0 1 -.525-.85l5.779-3.794-8.045 4.644a.5.5 0 0 1 -.52-.853l4.758-3.047-6.761 3.9a.5.5 0 0 1 -.523-.851l9.116-5.958-11.795 6.809a.5.5 0 0 1 -.25.07z" fill="#4184a9"/><path d="m32.5 17.47a.5.5 0 0 1 -.27-.921l6.253-4-8.4 4.852a.5.5 0 0 1 -.518-.855l4.268-2.7-6.157 3.554a.5.5 0 0 1 -.525-.851l9.814-6.449-12.646 7.3a.5.5 0 0 1 -.527-.849l11.02-7.349-14.2 8.2a.5.5 0 0 1 -.529-.848l11.473-7.7-14.809 8.546a.5.5 0 0 1 -.52-.854l6.954-4.464-9.21 5.318a.5.5 0 0 1 -.53-.848l11.606-7.804-14.992 8.652a.5.5 0 0 1 -.526-.85l10.454-6.918-13.459 7.768a.5.5 0 0 1 -.519-.854l5.816-3.708-7.902 4.562a.5.5 0 0 1 -.529-.848l11.441-7.674-13.223 7.635a.5.5 0 0 1 -.522-.853l6.754-4.372-6.56 3.788a.5.5 0 0 1 -.525-.851l6.379-4.2-5.854 3.383a.5.5 0 0 1 -.524-.852l3.236-2.117-2.712 1.566a.5.5 0 0 1 -.534-.844l5.026-3.468-4.492 2.6a.5.5 0 0 1 -.558-.833l5.645-4.4-5.087 2.934a.5.5 0 0 1 -.58-.81l3.606-3.141-3.026 1.748a.5.5 0 0 1 -.58-.813l.967-.83-.391.226a.5.5 0 0 1 -.666-.711l.79-1.183a.5.5 0 0 1 -.52-.242.5.5 0 0 1 .183-.683l1.659-.955a.5.5 0 0 1 .666.711l-.753 1.126 3.187-1.837a.5.5 0 0 1 .575.812l-.967.828 2.845-1.64a.5.5 0 0 1 .579.81l-3.6 3.14 6.838-3.95a.5.5 0 0 1 .558.827l-5.644 4.4 9.058-5.227a.5.5 0 0 1 .534.844l-5.027 3.465 7.469-4.309a.5.5 0 0 1 .524.851l-3.238 2.115 5.143-2.966a.5.5 0 0 1 .525.85l-6.375 4.2 8.738-5.05a.5.5 0 0 1 .522.853l-6.756 4.37 9.052-5.223a.5.5 0 0 1 .529.848l-11.441 7.674 14.765-8.522a.5.5 0 0 1 .519.854l-5.813 3.703 7.899-4.557a.5.5 0 0 1 .526.85l-10.454 6.918 13.459-7.768a.5.5 0 0 1 .529.848l-11.607 7.805 14.994-8.653a.5.5 0 0 1 .521.854l-6.955 4.461 9.21-5.315a.5.5 0 0 1 .529.848l-11.472 7.7 14.809-8.548a.5.5 0 0 1 .527.849l-11.02 7.351 14.2-8.2a.5.5 0 0 1 .524.851l-9.813 6.449 12.645-7.3a.5.5 0 0 1 .518.855l-4.274 2.7 6.095-3.519a.5.5 0 0 1 .52.855l-6.25 3.995 6.979-4.029a.5.5 0 0 1 .527.843l-10.537 7.119 10.357-5.979a.5.5 0 0 1 .525.85l-5.951 3.931 5.426-3.133a.5.5 0 0 1 .526.85l-3.631 2.4 3.1-1.793a.5.5 0 0 1 .537.843l-4.87 3.412 4.338-2.5a.5.5 0 0 1 .538.842l-2.658 1.873 2.12-1.224a.5.5 0 0 1 .555.828l-2.841 2.2 2.286-1.319a.5.5 0 0 1 .571.816l-1.629 1.367 1.058-.611a.5.5 0 0 1 .645.739l-1.131 1.46.428-.247a.5.5 0 0 1 .5.866l-2.63 1.51a.5.5 0 0 1 -.645-.739l1.13-1.459-3.807 2.198a.5.5 0 0 1 -.571-.816l1.63-1.368-3.783 2.184a.5.5 0 0 1 -.555-.828l2.841-2.2-5.237 3.028a.5.5 0 0 1 -.535-.838l2.659-1.875-4.7 2.716a.5.5 0 0 1 -.537-.842l4.876-3.414-7.379 4.253a.5.5 0 0 1 -.526-.85l3.628-2.4-5.63 3.25a.5.5 0 0 1 -.526-.85l5.953-3.932-8.283 4.782a.5.5 0 0 1 -.529-.847l10.54-7.113-13.793 7.96a.494.494 0 0 1 -.253.07z" fill="#4184a9"/><path d="m7.978 12.468a.5.5 0 0 1 -.391-.811l1.267-1.592-2.641 1.524a.5.5 0 0 1 -.58-.808l.64-.562-.733.423a.5.5 0 0 1 -.6-.794l1.06-1.012-.7.407a.5.5 0 0 1 -.612-.778l.733-.771a.493.493 0 0 1 -.233-.208.5.5 0 0 1 .176-.686l2.05-1.18a.5.5 0 0 1 .612.777l-.237.25 1.276-.737a.5.5 0 0 1 .6.794l-1.059 1.013 1.545-.892a.5.5 0 0 1 .58.809l-.639.561.543-.314a.5.5 0 0 1 .641.745l-1.267 1.592.323-.186a.5.5 0 0 1 .5.866l-2.6 1.5a.5.5 0 0 1 -.254.07z" fill="#86fdaa"/><path d="m18.336 12.447a.5.5 0 0 1 -.358-.848l.108-.112-1.094.632a.5.5 0 0 1 -.593-.8l.884-.831-1.36.785a.5.5 0 0 1 -.625-.763l1.845-2.094-1.859 1.075a.5.5 0 0 1 -.627-.762l.875-1a.5.5 0 0 1 -.168-.926l2.05-1.183a.5.5 0 0 1 .627.762l-.643.734 1.887-1.09a.5.5 0 0 1 .625.764l-1.845 2.093 2.443-1.41a.5.5 0 0 1 .593.8l-.885.833.487-.282a.5.5 0 0 1 .609.782l-.7.717a.5.5 0 0 1 .021.877l-2.05 1.183a.5.5 0 0 1 -.247.064z" fill="#86fdaa"/><path d="m36.347 11.47a.5.5 0 0 1 -.356-.851l1.28-1.294-3.6 2.078a.5.5 0 0 1 -.637-.749l1.491-1.823-4.454 2.569a.5.5 0 0 1 -.6-.79l1.2-1.183-3.161 1.825a.5.5 0 0 1 -.627-.762l1.333-1.526-1.846 1.066a.5.5 0 0 1 -.656-.725l.59-.82a.5.5 0 0 1 -.243-.933l1.661-.952a.5.5 0 0 1 .655.725l-.489.681 2.439-1.406a.5.5 0 0 1 .626.762l-1.332 1.523 3.962-2.285a.5.5 0 0 1 .6.79l-1.2 1.183 3.417-1.973a.5.5 0 0 1 .636.749l-1.495 1.82 4.459-2.569a.5.5 0 0 1 .606.784l-1.281 1.3 3.268-1.887a.5.5 0 0 1 .645.739l-1.349 1.727 1.8-1.04a.5.5 0 0 1 .636.752l-.469.567a.492.492 0 0 1 .261.22.5.5 0 0 1 -.182.683l-1.655.956a.5.5 0 0 1 -.635-.752l.143-.173-1.606.927a.5.5 0 0 1 -.646-.739l1.346-1.735-4.282 2.471a.5.5 0 0 1 -.253.07z" fill="#35718a"/><path d="m8.2 33.457a.5.5 0 0 1 -.368-.84l.531-.573-1.628.939a.5.5 0 0 1 -.607-.782l1.492-1.527-1.991 1.146a.5.5 0 0 1 -.577-.81l.391-.338-.141.081a.5.5 0 0 1 -.641-.745l1.021-1.276a.5.5 0 0 1 -.318-.929l2.05-1.183a.5.5 0 0 1 .641.745l-.957 1.2 2.4-1.389a.5.5 0 0 1 .578.812l-.39.337.573-.331a.5.5 0 0 1 .607.782l-1.487 1.524 1.338-.773a.5.5 0 0 1 .617.772l-.789.853a.5.5 0 0 1 .17.926l-2.271 1.312a.488.488 0 0 1 -.244.067z" fill="#86fdaa"/><path d="m17.845 33.46a.5.5 0 0 1 -.368-.839l.873-.946-1.918 1.106a.5.5 0 0 1 -.572-.815l.111-.093-.235.135a.5.5 0 0 1 -.59-.8l1.053-.983-.9.518a.5.5 0 0 1 -.64-.746l1.015-1.267a.494.494 0 0 1 -.5-.246.5.5 0 0 1 .183-.683l2.05-1.183a.5.5 0 0 1 .64.746l-.949 1.183 2.391-1.38a.5.5 0 0 1 .59.8l-1.051.98 1.335-.77a.5.5 0 0 1 .572.815l-.157.132a.5.5 0 0 1 .526.813l-.877.952a.5.5 0 0 1 .459.886l-2.8 1.617a.5.5 0 0 1 -.241.068z" fill="#86fdaa"/><path d="m34.038 32.47a.5.5 0 0 1 -.336-.87l.882-.8-2.777 1.6a.5.5 0 0 1 -.592-.8l1.024-.957-3.039 1.757a.5.5 0 0 1 -.607-.782l1.307-1.337-2.895 1.671a.5.5 0 0 1 -.6-.786l.8-.8-.872.5a.5.5 0 0 1 -.643-.742l.511-.649a.5.5 0 0 1 -.135-.92l1.656-.956a.5.5 0 0 1 .643.742l-.284.361 1.919-1.102a.5.5 0 0 1 .6.786l-.8.8 2.754-1.59a.5.5 0 0 1 .607.782l-1.309 1.34 3.671-2.118a.5.5 0 0 1 .592.8l-1.024.957 3.04-1.755a.5.5 0 0 1 .586.8l-.883.8 2.779-1.6a.5.5 0 0 1 .639.747l-1.493 1.847 3.421-1.974a.5.5 0 0 1 .654.727l-1.029 1.415.893-.516a.5.5 0 0 1 .5.866l-2.933 1.686a.5.5 0 0 1 -.655-.726l1.03-1.415-3.711 2.141a.5.5 0 0 1 -.639-.747l1.493-1.847-4.5 2.594a.49.49 0 0 1 -.245.07z" fill="#35718a"/><path d="m8.305 54.449a.5.5 0 0 1 -.376-.83l.652-.741-1.881 1.085a.5.5 0 0 1 -.586-.8l.761-.691-1.082.624a.5.5 0 0 1 -.631-.756l1.83-2.154-1.7.977a.5.5 0 0 1 -.607-.782l.686-.7a.506.506 0 0 1 -.2-.191.5.5 0 0 1 .183-.682l2.05-1.184a.5.5 0 0 1 .607.782l-.07.073 1.041-.6a.5.5 0 0 1 .631.756l-1.83 2.154 2.624-1.513a.5.5 0 0 1 .585.8l-.763.694.476-.275a.5.5 0 0 1 .625.763l-.869.988a.5.5 0 0 1 .182.928l-2.1 1.211a.494.494 0 0 1 -.238.064z" fill="#86fdaa"/><path d="m18.167 54.459a.5.5 0 0 1 -.4-.8l1.308-1.788-2.9 1.674a.5.5 0 0 1 -.619-.77l1.823-2-2.04 1.178a.5.5 0 0 1 -.652-.731l1.144-1.54a.5.5 0 0 1 -.461-.885l2.05-1.184a.5.5 0 0 1 .651.731l-1.141 1.536 2.741-1.582a.5.5 0 0 1 .62.769l-1.824 2 2.163-1.248a.5.5 0 0 1 .653.728l-1.313 1.793.261-.151a.5.5 0 1 1 .5.866l-2.314 1.337a.494.494 0 0 1 -.25.067z" fill="#86fdaa"/><path d="m28.7 53.47a.5.5 0 0 1 -.325-.881l.445-.379-1.578.911a.5.5 0 0 1 -.613-.777l1.1-1.154-1.367.789a.5.5 0 0 1 -.652-.729l.564-.764a.5.5 0 0 1 -.208-.93l1.656-.956a.5.5 0 0 1 .652.729l-.432.583 2.278-1.312a.5.5 0 0 1 .613.777l-1.1 1.154 3.35-1.931a.5.5 0 0 1 .574.813l-.444.378 2.064-1.191a.5.5 0 0 1 .61.78l-1.329 1.373 3.731-2.153a.5.5 0 0 1 .63.757l-1.474 1.722 4.3-2.479a.5.5 0 0 1 .623.765l-1.448 1.615 2.5-1.444a.5.5 0 0 1 .63.758l-.672.786.31-.179a.5.5 0 0 1 .5.866l-2.831 1.633a.5.5 0 0 1 -.629-.757l.671-.787-2.674 1.544a.5.5 0 0 1 -.623-.765l1.443-1.618-4.129 2.383a.5.5 0 0 1 -.63-.757l1.475-1.722-4.3 2.479a.5.5 0 0 1 -.61-.78l1.33-1.373-3.728 2.153a.489.489 0 0 1 -.253.07z" fill="#35718a"/><g fill="#262626"><path d="m.4 32.869c0 2.787 0 4.646 2.126 5.317v4.485c-3.462 1.464-2.034 7.378-2.034 10.448 0 3.43-.534 6.2 3.5 6.433 5.057.289 10.218 0 15.281 0 12.6-.055 25.24.1 37.817-.055 4.292-1.284 2.554-9.78 2.422-13.134-.089-2.273-.749-3.227-1.989-3.628v-4.419c1.571-.533 1.945-1.432 2.081-3.185-.156-3.19 1.553-12.186-2.009-13.336v-4.495c1.868-.637 1.906-1.867 2.006-3.76.164-3.1.556-7.006 0-10.074-.601-3.323-2.914-2.914-5.691-2.914h-39.285c-11.218-.108-16.064-3.107-14.225 11.282 0 2.855.113 4.627 2.144 5.308v4.583c-3.719 1.375-2.144 7.941-2.144 11.144zm58.092 16.316c0 1.932 1.145 8.472-1.447 9.263h-42.745c-3.993-.323-13.233 2.752-12.792-3.863-.061-6.974-2.491-12.524 7.367-11.033h34.725c3.741 0 9.057-.978 12.7 0 2.839.763 2.192 3.298 2.192 5.633zm-4.021-6.737c-16.975.241-34.07-.357-51-.04v-4.016c17.645.354 35.344-.113 53.007.058v4.077a18.738 18.738 0 0 0 -2.007-.079zm2.408-4.9c-17.711-.284-35.664.435-53.286 0-3.147-.914-2.6-9.835-1.993-12.639.769-3.559 4.429-2.459 7.386-2.459h34.723c3.669 0 9.144-1.035 12.7 0 2.633.766 1.993 3.343 1.993 5.563-.002 1.91 1.144 8.769-1.523 9.537zm-55.279-25.604c-.347-7.368-2.048-11.884 7.691-10.496h42.909c5.9-.828 6.758.8 6.2 6.5 0 1.949 1.136 7.74-1.587 8.6h-42.6c-4.324-.191-13.964 2.913-12.613-4.604zm2.8 5.5c17.325.167 34.676-.1 52.009 0v4.145c-17.622.083-35.367-.3-52.956-.094v-4.144a8.936 8.936 0 0 0 .947.097z"/><path d="m11.6 9.064c-.1-4.5-7.025-4.666-7.194-.128-.05 4.473 6.95 4.598 7.194.128zm-4.052-2.545c3.252-.675 3.866 4.673.666 5.015-3.004.286-3.549-4.422-.666-5.015z"/><path d="m18.15 12.52c4.547-.377 4.32-7.489-.43-7.031-4.385.525-4.186 7.311.43 7.031zm.25-5.911a2.673 2.673 0 0 1 2.074 2.534c-.217 3.246-5.005 2.8-4.939-.311a2.32 2.32 0 0 1 2.865-2.223z"/><path d="m28.689 11.462c4.321.2 8.7.005 13.023 0 1.683-.1 3.483-1.525 2.7-3.426-.6-1.487-1.971-1.448-3.281-1.5-4.108-.165-8.979-.644-13.038 0-3.91.623-2.983 4.764.596 4.926zm-1.457-3.262c1.507-1.672 6.143-.738 8.3-.738h4.845c1.57 0 5.312 2.334 1.648 3.075h-7.554c-.981 0-9.887.6-7.239-2.337z"/><path d="m11.418 29.652c-.416-4.539-6.911-4.036-6.873.432.226 4.945 7.141 4.371 6.873-.432zm-5.963.264c.036-3.173 4.926-2.886 5.09.168-.169 3.146-5.126 2.916-5.09-.168z"/><path d="m17.742 26.422c-4.242.318-4.119 7.138.189 7.174 4.675-.02 4.544-7.482-.189-7.174zm-2.276 3.549c.027-3.183 4.83-2.984 5.073.065-.26 3.064-5.1 3.078-5.073-.065z"/><path d="m41.023 27.542c-4.089-.152-9.012-.688-13.042.009-3.911.684-3.072 5.352.818 4.907 4.439.149 8.947.071 13.38-.042 3.937-.985 2.711-5.373-1.156-4.874zm.953 4h-11.985c-1.339 0-4.651-.172-2.7-2.318 1.513-1.667 5.859-.766 8-.766 2.08.044 4.2-.068 6.259 0 1.26.327 3.389 2.442.426 3.084z"/><path d="m41.023 48.542c-4.089-.152-9.012-.688-13.042.009-3.911.684-3.072 5.352.818 4.907 4.439.149 8.947.071 13.38-.042 3.937-.985 2.711-5.373-1.156-4.874zm.953 4h-11.985c-1.339 0-4.651-.172-2.7-2.318 1.513-1.667 5.859-.766 8-.766 2.08.044 4.2-.068 6.259 0 1.26.327 3.389 2.442.426 3.084z"/><path d="m7.842 47.515c-4.431.348-4.475 7.064.153 6.979 4.618-.152 4.644-7.28-.153-6.979zm-2.286 3.378c0-3.326 4.723-2.863 4.889.214-.178 3.293-4.893 2.893-4.889-.214z"/><path d="m21.422 50.836a3.439 3.439 0 0 0 -6.877.081 3.439 3.439 0 1 0 6.877-.081zm-5.967.248c-.035-3.084 4.921-3.316 5.09-.168-.164 3.055-5.054 3.338-5.09.168z"/><path d="m48.9 7.482c.563-.045 1.456.213 1.668-.5.026-.732-1-.383-1.462-.461-.619-.052-1.014.953-.206.961z"/><path d="m53.915 7.559h1c.566 0 .867-1.118.17-1.118h-1c-.566 0-.867 1.118-.17 1.118z"/><path d="m50.1 10.409c-.537.055-1.432-.243-1.545.515-.028.21.039.667.343.667.537-.055 1.432.243 1.545-.515.029-.21-.038-.667-.343-.667z"/><path d="m54.952 10.411h-1c-.643 0-.477 1.178.1 1.178h1c.639 0 .473-1.178-.1-1.178z"/><path d="m48.885 28.518c.578-.031 1.458.2 1.644-.553.077-.755-.954-.408-1.414-.483-.571-.029-.997 1.018-.23 1.036z"/><path d="m54.929 27.543c-.481.072-1.48-.259-1.52.46.212.689 1.12.391 1.662.454.805-.004.541-.979-.142-.914z"/><path d="m49.922 31.544c-.48.07-1.483-.256-1.513.468.221.681 1.126.379 1.668.444.805-.014.523-.986-.155-.912z"/><path d="m54.933 31.413h-1c-.641 0-.441 1.174.134 1.174h1c.641 0 .441-1.174-.134-1.174z"/><path d="m49.915 48.415h-1c-.638 0-.406 1.17.17 1.17h1c.638 0 .406-1.17-.17-1.17z"/><path d="m53.912 49.523h1c.584 0 .924-1.046.176-1.046h-1c-.588 0-.924 1.046-.176 1.046z"/><path d="m50.044 52.411h-1c-.571 0-.733 1.178-.088 1.178h1c.571 0 .733-1.178.088-1.178z"/><path d="m54.986 52.55c-.51.065-1.471-.244-1.586.468.159.687 1.1.356 1.614.432.773-.008.745-.935-.028-.9z"/></g></svg>