<?xml version="1.0" encoding="UTF-8"?>
<svg xmlns="http://www.w3.org/2000/svg" id="Icons" viewBox="0 0 60 60" width="512" height="512"><defs><style>.cls-1{fill:#f77754;}.cls-2{fill:#d33957;}.cls-3{fill:#efc929;}.cls-4{fill:#262626;}</style></defs><path class="cls-1" d="M9.226,49.47a.5.5,0,0,1-.258-.929l.269-.162L7.464,49.4a.5.5,0,0,1-.514-.857L27.435,35.852,3.963,49.4a.5.5,0,0,1-.51-.859l13.817-8.4L2.007,48.951a.5.5,0,0,1-.512-.858L23.422,34.624,1.28,47.407a.5.5,0,0,1-.512-.858l24.651-15.2L1.28,45.281a.5.5,0,0,1-.512-.858l25.5-15.758L1.28,43.092a.5.5,0,0,1-.513-.858l26.266-16.26L1.28,40.842a.5.5,0,0,1-.512-.859L25.9,24.47,1.28,38.681a.5.5,0,0,1-.509-.861l14.281-8.66L1.28,37.11a.5.5,0,0,1-.51-.859l19.544-11.94L1.28,35.3a.5.5,0,0,1-.512-.859L25.776,18.99,1.28,33.133a.5.5,0,0,1-.513-.858L25,17.244,1.28,30.936a.5.5,0,0,1-.508-.861l2.24-1.349-1.732,1a.5.5,0,0,1-.51-.86l10.755-6.558L1.28,28.223a.5.5,0,0,1-.509-.861l1.369-.827-.86.5a.5.5,0,0,1-.516-.856L19,14.709,1.28,24.938a.5.5,0,0,1-.519-.854L18.7,12.626,1.28,22.684a.5.5,0,0,1-.515-.857l10.256-6.422L1.28,21.029a.5.5,0,0,1-.517-.856l10.7-6.793L1.28,19.261a.5.5,0,0,1-.519-.855l9.313-5.957L1.28,17.526a.5.5,0,0,1-.521-.853l8.11-5.241L1.28,15.813a.5.5,0,0,1-.519-.854l4.192-2.687L1.28,14.393a.5.5,0,0,1-.528-.849L7.6,8.953,1.28,12.6a.5.5,0,0,1-.535-.843L7.012,7.4,1.28,10.711a.5.5,0,0,1-.535-.844l3.363-2.33L1.28,9.17a.5.5,0,0,1-.536-.843l1.381-.962-.845.488A.5.5,0,0,1,.7,7.042L4.135,4.057,1.28,5.706a.5.5,0,0,1-.606-.784L2.266,3.3l-.986.569a.5.5,0,0,1-.638-.748l.531-.657a.494.494,0,0,1-.288-.229.5.5,0,0,1,.182-.683L2.726.6a.5.5,0,0,1,.638.747l-.255.315L4.953.6a.5.5,0,0,1,.607.783L3.968,3,8.128.6a.5.5,0,0,1,.578.81L5.272,4.393,11.848.6a.5.5,0,0,1,.536.843L11,2.4,14.129.6a.5.5,0,0,1,.535.844L11.3,3.769,16.8.6a.5.5,0,0,1,.535.843L11.063,5.8,20.077.6a.5.5,0,0,1,.528.848L13.753,6.037,23.175.6a.5.5,0,0,1,.519.854l-4.2,2.69L25.635.6a.5.5,0,0,1,.521.853l-8.11,5.241L28.6.6a.5.5,0,0,1,.519.854L19.808,7.409,31.606.6a.5.5,0,0,1,.518.855l-10.7,6.794L34.669.6a.5.5,0,0,1,.516.857L24.935,7.872,37.535.6a.5.5,0,0,1,.52.854L20.108,12.913,41.441.6a.5.5,0,0,1,.517.856L23.729,12.916,45.065.6a.5.5,0,0,1,.509.861l-1.367.826L47.129.6a.5.5,0,0,1,.511.86L36.89,8.012,49.732.6a.5.5,0,0,1,.508.861L47.979,2.819,51.829.6a.5.5,0,0,1,.514.858L28.12,16.482,54.3,1.365a.5.5,0,0,1,.512.858L29.807,17.675,54.721,3.291a.5.5,0,0,1,.51.86L35.676,16.1l19.046-11a.5.5,0,0,1,.509.86l-14.27,8.655L54.723,6.671a.5.5,0,0,1,.512.858L30.107,23.044,54.724,8.832a.5.5,0,0,1,.513.858L28.976,25.947,54.725,11.081a.5.5,0,0,1,.512.858L29.729,27.7l25-14.432a.5.5,0,0,1,.512.859l-24.653,15.2L54.727,15.4a.5.5,0,0,1,.511.859L33.312,29.723,54.728,17.358a.5.5,0,0,1,.509.861L41.406,26.631l13.323-7.692a.5.5,0,0,1,.513.858L34.76,32.489l19.969-11.53a.5.5,0,0,1,.508.862l-.449.27a.5.5,0,0,1,.455.888L42,31.14l12.729-7.35a.5.5,0,0,1,.515.857l-14.261,8.88L54.732,25.59a.5.5,0,0,1,.512.859l-5.41,3.319,4.9-2.829a.5.5,0,0,1,.512.859L50.9,30.47l3.835-2.214a.5.5,0,0,1,.512.859l-1.426.875.914-.528a.5.5,0,0,1,.523.852L42.021,38.922l12.714-7.34a.5.5,0,0,1,.541.839l-6.088,4.357,5.549-3.2a.5.5,0,0,1,.654.728l-.721.988.067-.039a.5.5,0,1,1,.5.865L53.119,37.34a.5.5,0,0,1-.653-.728l.722-.989L40.81,42.77a.5.5,0,0,1-.541-.839l6.088-4.358L26.186,49.22a.5.5,0,0,1-.523-.852l13.242-8.612L22.2,49.4a.5.5,0,0,1-.511-.858l1.44-.884L20.105,49.4a.5.5,0,0,1-.511-.858l4.336-2.666L17.824,49.4a.5.5,0,0,1-.512-.858l5.4-3.313L15.487,49.4a.5.5,0,0,1-.514-.857L29.24,39.662,12.368,49.4a.5.5,0,0,1-.513-.858l13.233-8.155L9.476,49.4A.5.5,0,0,1,9.226,49.47Z"/><path class="cls-2" d="M53.444,33.255a.5.5,0,0,1-.418-.776l.953-1.444a.49.49,0,0,1-.12-.139.5.5,0,0,1,.183-.683l.873-.5a.5.5,0,0,1,.668.708l-.56.849.724-.418a.5.5,0,0,1,.5.866l-2.553,1.474A.5.5,0,0,1,53.444,33.255Z"/><path class="cls-2" d="M42.215,59.45a.5.5,0,0,1-.29-.907L49.146,53.4,39.1,59.2a.5.5,0,0,1-.529-.848l7.222-4.834-9,5.194a.5.5,0,0,1-.523-.851l7.419-4.857-8.766,5.06a.5.5,0,0,1-.678-.173.5.5,0,0,1,.16-.682l3.674-2.326-4.463,2.576a.5.5,0,0,1-.526-.85L45.039,48.7,31.752,56.367a.5.5,0,0,1-.515-.857l1.681-1.046-2.111,1.219a.5.5,0,0,1-.516-.857l4.9-3.078-5.379,3.106A.5.5,0,0,1,29.3,54l8.573-5.445-9.116,5.262a.5.5,0,0,1-.514-.857l1.994-1.236-2.2,1.27a.5.5,0,0,1-.517-.855l8.6-5.439-8.935,5.158A.5.5,0,0,1,26.667,51l6.7-4.2L26.5,50.766a.5.5,0,0,1-.521-.853l9.244-5.982-9.442,5.45a.5.5,0,0,1-.52-.854l8.258-5.3-8.3,4.789a.5.5,0,0,1-.519-.855l6.492-4.129-6.374,3.68a.5.5,0,0,1-.519-.854l7.99-5.123-7.786,4.5a.5.5,0,0,1-.523-.852l10.044-6.536-9.716,5.609a.5.5,0,0,1-.515-.856l.888-.555-.395.228a.5.5,0,0,1-.516-.856l3.668-2.316-3.1,1.79a.5.5,0,0,1-.615-.775l1.316-1.4-.531.306a.5.5,0,0,1-.666-.71L25,36.558l-.124.071a.5.5,0,0,1-.677-.693l.551-.9a.5.5,0,0,1,0-.863l.917-.529a.5.5,0,0,1,.677.693l-.274.447.278-.16a.5.5,0,0,1,.667.71l-1.163,1.741,1.6-.921a.5.5,0,0,1,.615.775l-1.316,1.405,21.994-12.7a.5.5,0,0,1,.517.856l-3.677,2.323,3.724-2.15a.5.5,0,0,1,.514.857l-.878.548.821-.474a.5.5,0,0,1,.522.852l-10.05,6.54,10.167-5.869a.5.5,0,0,1,.52.854l-7.989,5.121L50.892,30.5a.5.5,0,0,1,.518.855l-6.48,4.121,6.331-3.655a.5.5,0,0,1,.52.854l-8.264,5.309,8.241-4.757a.5.5,0,0,1,.521.852l-9.24,5.981,13.466-7.775a.5.5,0,0,1,.516.857l-6.7,4.2,6.715-3.876a.5.5,0,0,1,.518.855l-8.6,5.438,8.585-4.956a.5.5,0,0,1,.514.857l-2.012,1.246,1.83-1.055a.5.5,0,0,1,.518.854L49.82,42.15l8.416-4.858a.5.5,0,0,1,.516.856l-4.9,3.077,4.624-2.669a.5.5,0,0,1,.514.857l-1.678,1.045,1.312-.758a.5.5,0,0,1,.526.85L47.191,48.47l11.526-6.654a.5.5,0,0,1,.517.856L55.557,45l3.087-1.781a.5.5,0,0,1,.523.85l-7.421,4.859,6.609-3.816a.5.5,0,0,1,.529.848l-7.211,4.826,6.061-3.5a.5.5,0,0,1,.54.84l-7.221,5.144,5.261-3.039a.5.5,0,0,1,.562.825l-3.962,3.148.077-.044a.5.5,0,1,1,.5.865l-5.917,3.416a.5.5,0,0,1-.561-.824l3.96-3.147-8.508,4.912A.491.491,0,0,1,42.215,59.45Z"/><path class="cls-2" d="M29.241,36.166a.5.5,0,0,1-.273-.918l3.167-2.072-2.382,1.375a.5.5,0,0,1-.53-.847l5.528-3.747-4.072,2.351a.5.5,0,0,1-.535-.844l5.173-3.592-2.1,1.211a.5.5,0,0,1-.544-.837l3.862-2.81a.5.5,0,0,1-.431-.876l1.9-1.529a.5.5,0,0,1-.47-.822l1.735-1.961-.374.215a.5.5,0,0,1-.715-.614l.68-1.746a.5.5,0,0,1-.217-.932l.9-.52a.5.5,0,0,1,.716.615l-.632,1.62,1.8-1.039a.5.5,0,0,1,.624.764l-1.735,1.961,2.683-1.549a.5.5,0,0,1,.563.823L41.8,21.265l2.284-1.319a.5.5,0,0,1,.544.837l-3.7,2.7L45.2,21.009a.5.5,0,0,1,.535.844l-5.176,3.593,5.7-3.288a.5.5,0,0,1,.53.847L41.264,26.75,47.2,23.322a.5.5,0,0,1,.524.851l-3.17,2.074L47.91,24.31a.5.5,0,1,1,.5.866L29.491,36.1A.494.494,0,0,1,29.241,36.166Z"/><path class="cls-3" d="M49.655,45.139a.5.5,0,0,1-.412-.785l.857-1.241a.372.372,0,0,1-.046-.066.5.5,0,0,1,.182-.683l.729-.421a.5.5,0,0,1,.662.717l-.3.439.273-.158a.5.5,0,0,1,.5.866l-2.192,1.264A.49.49,0,0,1,49.655,45.139Z"/><path class="cls-3" d="M41.633,59.459a.5.5,0,0,1-.3-.9L45.7,55.282l-6.575,3.8a.5.5,0,0,1-.537-.842l4.661-3.261L37.2,58.461a.5.5,0,0,1-.541-.839l7.563-5.409-8.963,5.175a.5.5,0,0,1-.539-.841L43.34,50.44l-9.657,5.576a.5.5,0,0,1-.531-.847l3.724-2.522-4.029,2.326a.5.5,0,0,1-.523-.852l.162-.105-.162.092a.5.5,0,0,1-.538-.84l7.074-5-7.213,4.165a.5.5,0,0,1-.524-.851L33.2,50.224l-1.807,1.043a.5.5,0,0,1-.537-.842L37.732,45.6l-6.44,3.717a.5.5,0,0,1-.539-.84l6.78-4.8-6.009,3.468A.5.5,0,0,1,31,46.3l1.58-1.05-.656.378a.5.5,0,0,1-.536-.843L35.6,41.832l-2.566,1.481a.5.5,0,0,1-.534-.843l2.452-1.7a.5.5,0,0,1-.324-.88l4.232-3.608a.5.5,0,0,1-.486-.806l1.4-1.7a.511.511,0,0,1-.447-.109.5.5,0,0,1-.134-.565l.462-1.134a.5.5,0,0,1-.05-.891l.689-.4a.5.5,0,0,1,.713.621l-.337.828.938-.541a.5.5,0,0,1,.637.749l-1.357,1.658,2.106-1.216a.5.5,0,0,1,.574.814L39.444,37.1l4.926-2.843a.5.5,0,0,1,.534.843l-1.781,1.234L45.087,35.2a.5.5,0,0,1,.536.843L41.405,39l4.46-2.574a.5.5,0,0,1,.527.849l-1.585,1.053,1.589-.917a.5.5,0,0,1,.539.841l-6.781,4.8,6.936-4a.5.5,0,0,1,.537.842L40.745,44.71l6.861-3.961a.5.5,0,0,1,.525.851l-2.067,1.358,1.79-1.032a.5.5,0,0,1,.538.841l-7.077,5,6.773-3.909a.5.5,0,0,1,.522.851l-.166.108a.5.5,0,0,1,.523.852l-3.721,2.521,6.9-3.985a.5.5,0,0,1,.54.841l-8.616,6.1,8.555-4.938a.5.5,0,0,1,.541.839L45.6,52.458l7.086-4.092a.5.5,0,0,1,.538.842l-4.66,3.261,3.8-2.193a.5.5,0,0,1,.55.832l-4.361,3.278,2.8-1.616a.5.5,0,0,1,.565.82l-2.4,1.953a.5.5,0,0,1,.072.9L45.5,58.808a.5.5,0,0,1-.565-.821l1.5-1.221-4.55,2.626A.491.491,0,0,1,41.633,59.459Z"/><path class="cls-4" d="M.276,43.057C.069,46.846-.2,50.02,4.683,49.288H24.849c12.472,23.261,47.035,2,30.875-19.477C53.648-3.319,65.73.523,30.674.712-11.788,1.345,2.763-7.44.276,43.057Zm42.987-29.5v5.107c-6.85-5.754-4.109,2.448-7.221,5.867-6.435-.014-12.852,0-19.307,0V13.558Zm5.037,0h5.976V24.689H49.018a24.147,24.147,0,0,0-4.281-4.821v-6.31Zm4.113,19.1A20.932,20.932,0,0,0,49.4,25.311h4.88v4.671c-1.185.555-.973,2.188-1.718,3.133C52.185,33.684,52.452,33.1,52.413,32.654ZM28.61,34.88a4.318,4.318,0,0,0-.117,1.533c-.291-.337-.956-1.242-.967-1.259-1.008-2.909-3.807-.933-3.756,1.4H1.724V25.468c9.2,0,18.343,0,27.54,0,.021,2.432-.039,4.88.021,7.3A9,9,0,0,0,28.61,34.88ZM30.736,25.9v-.43h4.585c-1.443,1.726-3.2,3.188-4.585,4.961ZM15.265,23.565v.967H1.724V13.558H15.265ZM3.645,48.712C-.15,47.759,2.45,40.53,1.724,37.446H15.276V48.712C11.406,48.627,7.506,48.892,3.645,48.712Zm13.079,0V37.446h6.881c-.567,3.829-.563,7.727,1,11.266ZM40.305,33.477a11.039,11.039,0,0,0,.226-1.64c4.8,2.981,6.671,8.447,7.421,13.651,1.444.986,2.653-1.044,3.06-2.2,8.094,17.425-23.7,21.331-18.756,2.181C33.668,40.621,39.277,38.493,40.305,33.477Zm16.683,1.629c3.27,7.947.122,18.237-7.874,21.779,7.313-3.441,4.223-21.253.025-12.776-.5-5.074-3.875-13.177-9.529-13.324-1.113,1.757-.586,4.371-2.263,6.049C31.929,41.626,26.7,50.2,33.232,56.367c-7.767-4.131-10-13.708-7.592-21.7.625,1.241,1.492,3.1,3.159,2.534,1.769-.565.889-2.937,1.751-4.238,2.345-5.432,9.9-8.662,8.9-15.466A24.318,24.318,0,0,1,50.718,32.056c.377,4.03,3.938,1.244,4.176-1.262A22.249,22.249,0,0,1,56.988,35.106Zm-5.3-33.818c4.793-.066,1.8,8.046,2.584,11.154H30.724V1.288ZM1.816,2.239c.306-.939.632-.951,1.349-.951H29.276V12.442H1.724C1.8,9.049,1.565,5.607,1.816,2.239Z"/></svg>
