<svg id="Icons" height="512" viewBox="0 0 60 60" width="512" xmlns="http://www.w3.org/2000/svg"><path d="m3.919 57.47a.5.5 0 0 1 -.3-.9l.178-.134-1.652.954a.5.5 0 0 1 -.558-.828l.621-.483-.9.523a.5.5 0 0 1 -.585-.8l1.064-.959-.5.29a.5.5 0 0 1 -.686-.676l.692-1.243a.5.5 0 0 1 -.2-.932l1.17-.682a.5.5 0 0 1 .686.676l-.6 1.085 3.051-1.761a.5.5 0 0 1 .585.8l-1.067.961 3.055-1.761a.5.5 0 0 1 .557.827l-.615.478 2.264-1.305a.5.5 0 0 1 .552.831l-.183.138 1.681-.969a.5.5 0 0 1 .617.772l-2.33 2.516 5.7-3.289a.5.5 0 0 1 .6.788l-2.237 2.211 5.2-3a.5.5 0 0 1 .6.786l-2.255 2.253 5.266-3.04a.5.5 0 0 1 .593.8l-2.133 2.016 4.872-2.812a.5.5 0 0 1 .588.8l-2.033 1.864 4.619-2.666a.5.5 0 0 1 .59.8l-2.096 1.947 4.769-2.753a.5.5 0 0 1 .588.8l-2.032 1.863 4.617-2.665a.5.5 0 0 1 .56.825l-.836.659 2.572-1.484a.5.5 0 0 1 .589.8l-2.051 1.889 4.66-2.689a.5.5 0 0 1 .6.791l-2.208 2.146 5.089-2.937a.5.5 0 0 1 .581.806l-1.874 1.66 4.273-2.467a.5.5 0 0 1 .616.773l-2.334 2.509 5.688-3.282a.5.5 0 0 1 .552.831l-.112.084 1.588-.916a.5.5 0 0 1 .568.819l-1.3 1.069 3.271-1.888a.5.5 0 0 1 .568.819l-1.333 1.1 2.282-1.317a.5.5 0 0 1 .6.789l-1.624 1.595 1.408-.812a.5.5 0 0 1 .624.763l-.475.537a.5.5 0 0 1 .533.24.5.5 0 0 1 -.182.682l-2.466 1.415a.5.5 0 0 1 -.624-.763l.421-.476-2.148 1.239a.5.5 0 0 1 -.6-.789l1.625-1.6-4.133 2.389a.5.5 0 0 1 -.568-.819l1.333-1.1-3.318 1.919a.5.5 0 0 1 -.567-.819l1.3-1.067-3.266 1.886a.5.5 0 0 1 -.552-.831l.115-.088-1.591.919a.5.5 0 0 1 -.617-.773l2.331-2.507-5.683 3.28a.5.5 0 0 1 -.581-.806l1.874-1.659-4.273 2.465a.5.5 0 0 1 -.6-.791l2.208-2.146-5.087 2.937a.5.5 0 0 1 -.589-.8l2.051-1.888-4.658 2.688a.5.5 0 0 1 -.56-.825l.834-.658-2.569 1.483a.5.5 0 0 1 -.588-.8l2.033-1.865-4.618 2.665a.5.5 0 0 1 -.591-.8l2.097-1.95-4.77 2.75a.5.5 0 0 1 -.588-.8l2.033-1.866-4.619 2.666a.5.5 0 0 1 -.594-.8l2.138-2.009-4.875 2.809a.5.5 0 0 1 -.6-.786l2.256-2.253-5.269 3.039a.5.5 0 0 1 -.6-.788l2.236-2.212-5.2 3a.5.5 0 0 1 -.617-.772l2.33-2.516-5.692 3.288a.493.493 0 0 1 -.25.07z" fill="#aec7d3"/><path d="m8.438 44.5a.5.5 0 0 1 -.263-.925l19.517-12.136-21.412 12.361a.5.5 0 0 1 -.512-.859l18.517-11.416-18 10.4a.5.5 0 0 1 -.512-.858l19.401-11.994-18.894 10.907a.5.5 0 0 1 -.509-.86l4.375-2.641-3.866 2.231a.5.5 0 0 1 -.51-.859l14.892-9.12-14.382 8.304a.5.5 0 0 1 -.511-.858l17.519-10.777-17.008 9.816a.5.5 0 0 1 -.512-.859l18.377-11.327-17.865 10.314a.5.5 0 0 1 -.511-.859l15.4-9.442-14.889 8.593a.5.5 0 0 1 -.51-.86l11.5-7.022-10.99 6.346a.5.5 0 0 1 -.516-.856l20.119-12.664-19.603 11.32a.5.5 0 0 1 -.51-.859l7.117-4.36-6.607 3.811a.5.5 0 0 1 -.513-.857l9.727-6.026-9.214 5.32a.5.5 0 0 1 -.52-.854l15.775-10.14-15.255 8.806a.5.5 0 0 1 -.523-.85l14.466-9.465-13.943 8.049a.5.5 0 0 1 -.522-.852l10.444-6.8-9.922 5.73a.5.5 0 0 1 -.515-.857l.449-.281a.5.5 0 0 1 -.455-.885l4.666-3.012-4.145 2.392a.5.5 0 0 1 -.522-.851l3.249-2.113-2.727 1.575a.5.5 0 0 1 -.541-.84l7.073-5.052-6.532 3.771a.5.5 0 0 1 -.543-.837l4.425-3.2-3.882 2.243a.5.5 0 0 1 -.538-.84l1.158-.821-.623.36a.5.5 0 0 1 -.548-.834l.871-.643-.319.184a.5.5 0 0 1 -.594-.8l1.73-1.64-1.137.657a.5.5 0 0 1 -.659-.721l.718-1.019a.54.54 0 0 1 -.454-.25.5.5 0 0 1 .182-.682l1.659-.957a.5.5 0 0 1 .659.72l-.64.909 2.824-1.629a.5.5 0 0 1 .595.8l-1.733 1.639 4.229-2.439a.5.5 0 0 1 .548.834l-.859.637 2.551-1.471a.5.5 0 0 1 .539.84l-1.163.822 2.876-1.662a.5.5 0 0 1 .543.838l-4.427 3.2 6.991-4.038a.5.5 0 0 1 .541.84l-7.072 5.049 10.205-5.889a.5.5 0 0 1 .522.851l-3.255 2.112 5.14-2.963a.5.5 0 0 1 .521.852l-4.661 3.011 6.7-3.865a.5.5 0 0 1 .515.856l-.321.2 1.823-1.054a.5.5 0 0 1 .522.851l-10.439 6.794 13.245-7.645a.5.5 0 0 1 .524.85l-14.469 9.463 17.871-10.313a.5.5 0 0 1 .52.853l-15.776 10.14 19.045-10.993a.5.5 0 0 1 .514.857l-9.728 6.023 11.922-6.88a.5.5 0 0 1 .511.859l-7.125 4.362 9.046-5.221a.5.5 0 0 1 .516.855l-20.116 12.661 23.4-13.507a.5.5 0 0 1 .51.86l-11.499 7.018 12.374-7.143a.5.5 0 0 1 .515.856l-15.375 9.43 15.295-8.83a.5.5 0 0 1 .512.858l-18.378 11.329 17.868-10.316a.5.5 0 0 1 .511.858l-17.511 10.776 17-9.816a.5.5 0 0 1 .51.86l-14.915 9.132 14.408-8.317a.5.5 0 0 1 .508.86l-4.393 2.654 3.886-2.243a.5.5 0 0 1 .512.858l-19.4 11.985 18.889-10.9a.5.5 0 0 1 .512.858l-18.52 11.414 18.01-10.4a.5.5 0 0 1 .513.857l-19.515 12.136 19-10.971a.5.5 0 0 1 .517.856l-19.95 12.578 19.437-11.222a.5.5 0 0 1 .517.856l-16.348 10.304 15.833-9.144a.5.5 0 0 1 .511.859l-1.136.694.626-.362a.5.5 0 0 1 .517.856l-11.741 7.416 11.225-6.481a.5.5 0 0 1 .521.854l-11.995 7.707 11.476-6.625a.5.5 0 0 1 .521.853l-8.932 5.738 8.412-4.857a.5.5 0 0 1 .52.855l-5.237 3.343 4.718-2.724a.5.5 0 0 1 .532.847l-9.162 6.219 8.632-4.983a.5.5 0 0 1 .536.843l-7.431 5.19 6.9-3.981a.5.5 0 0 1 .549.833l-6.288 4.686 5.737-3.312a.5.5 0 0 1 .532.845l-.416.285a.5.5 0 0 1 .447.872l-2.8 2.237 2.244-1.3a.5.5 0 0 1 .593.8l-1.794 1.693 1.2-.692a.5.5 0 0 1 .618.772l-.459.5a.5.5 0 0 1 .567.648l-.211.634a.5.5 0 0 1 -.013.858l-.5.289a.5.5 0 0 1 -.725-.59l.086-.257-1.471.848a.5.5 0 0 1 -.618-.771l.395-.429-2.082 1.2a.5.5 0 0 1 -.593-.8l1.789-1.684-4.3 2.483a.5.5 0 0 1 -.562-.823l2.808-2.24-5.311 3.065a.5.5 0 0 1 -.532-.846l.236-.161-1.748 1.009a.5.5 0 0 1 -.549-.833l6.286-4.687-9.571 5.52a.5.5 0 0 1 -.536-.843l7.433-5.19-10.456 6.035a.5.5 0 0 1 -.673-.167.5.5 0 0 1 .142-.68l9.156-6.215-12.238 7.065a.5.5 0 0 1 -.519-.855l5.241-3.345-7.278 4.2a.5.5 0 0 1 -.52-.854l8.934-5.738-11.422 6.595a.5.5 0 0 1 -.521-.854l12-7.709-14.833 8.565a.5.5 0 0 1 -.516-.856l11.739-7.414-14.332 8.272a.5.5 0 0 1 -.511-.86l1.126-.687-2.683 1.549a.5.5 0 0 1 -.516-.856l16.349-10.3-19.331 11.158a.5.5 0 0 1 -.516-.856l19.955-12.58-23.276 13.438a.494.494 0 0 1 -.25.069z" fill="#154182"/><path d="m33.063 53.47a.5.5 0 0 1 -.272-.919l.987-.643-2.588 1.492a.5.5 0 0 1 -.544-.837l7.431-5.416-10.832 6.253a.5.5 0 0 1 -.537-.841l6.328-4.44-9.147 5.281a.5.5 0 0 1 -.523-.852l.661-.428-2.218 1.28a.5.5 0 0 1 -.532-.845l4.892-3.328-7.23 4.173a.5.5 0 0 1 -.543-.838l7.275-5.262-10.571 6.1a.5.5 0 0 1 -.533-.845l5.17-3.535-7.591 4.38a.5.5 0 0 1 -.526-.849l2.858-1.89-4.747 2.739a.5.5 0 0 1 -.534-.843l5.618-3.875-8.174 4.718a.5.5 0 0 1 -.542-.839l7.04-5.051-10.203 5.89a.5.5 0 0 1 -.54-.839l6.835-4.871-7.239 4.181a.5.5 0 0 1 -.54-.84l4.591-3.261-2.964 1.71a.5.5 0 0 1 -.574-.812l4.079-3.481-2.105 1.213a.5.5 0 0 1 -.584-.8l1.164-1.049a.508.508 0 0 1 -.328-.16.5.5 0 0 1 -.04-.625l.741-1.055c-.008-.012-.016-.023-.023-.036a.5.5 0 0 1 .183-.683l.678-.392a.5.5 0 0 1 .659.719l-.118.168 1.541-.887a.5.5 0 0 1 .585.8l-.843.76 2.706-1.56a.5.5 0 0 1 .574.812l-4.074 3.477 7.439-4.3a.5.5 0 0 1 .54.84l-4.593 3.271 7.111-4.1a.5.5 0 0 1 .54.84l-6.837 4.86 9.892-5.71a.5.5 0 0 1 .669.161.5.5 0 0 1 -.128.678l-7.033 5.052 10.2-5.891a.5.5 0 0 1 .534.844l-5.616 3.876 8.176-4.721a.494.494 0 0 1 .675.17.5.5 0 0 1 -.148.679l-2.859 1.891 4.749-2.741a.5.5 0 0 1 .533.846l-5.171 3.535 7.589-4.382a.5.5 0 0 1 .543.838l-7.275 5.267 10.578-6.106a.5.5 0 0 1 .531.846l-4.892 3.328 7.232-4.175a.5.5 0 0 1 .523.853l-.656.424 2.214-1.278a.5.5 0 0 1 .537.842l-6.331 4.441 9.154-5.284a.5.5 0 0 1 .545.837l-7.43 5.414 10.832-6.253a.5.5 0 0 1 .522.852l-.982.639 2.584-1.492a.5.5 0 0 1 .533.845l-5.509 3.79 7.141-4.122a.5.5 0 0 1 .54.84l-6.117 4.356 6.289-3.631a.5.5 0 0 1 .526.849l-.092.062a.5.5 0 0 1 .531.844l-3.605 2.658 3.68-2.124a.5.5 0 0 1 .566.821l-3.274 2.673 3.4-1.964a.5.5 0 0 1 .563.823l-1.191.954 1.137-.656a.5.5 0 0 1 .605.786l-1.263 1.265 1.261-.727a.492.492 0 0 1 .556.038.5.5 0 0 1 .175.529l-.4 1.435.46-.266a.5.5 0 0 1 .5.865l-1.523.877a.5.5 0 0 1 -.731-.567l.4-1.434-3.467 2a.5.5 0 0 1 -.6-.785l1.263-1.266-3.557 2.052a.5.5 0 0 1 -.563-.823l1.19-.953-3.077 1.776a.5.5 0 0 1 -.567-.82l3.275-2.674-6.052 3.494a.5.5 0 0 1 -.547-.835l3.6-2.657-6.047 3.492a.5.5 0 0 1 -.527-.848l.091-.061-1.576.909a.5.5 0 0 1 -.54-.839l6.116-4.356-9 5.2a.5.5 0 0 1 -.533-.844l5.508-3.79-8.026 4.629a.5.5 0 0 1 -.25.07z" fill="#d0e6f4"/><path d="m19.583 53.509a.5.5 0 0 1 -.307-.9l1.962-1.527-1.455.84a.5.5 0 0 1 -.562-.823l.808-.646a.5.5 0 0 1 -.4-.773l1-1.527a.5.5 0 0 1 -.065-.9l1.149-.663a.5.5 0 0 1 .669.706l-.768 1.174 3.258-1.88a.5.5 0 0 1 .563.823l-.415.332 2-1.155a.5.5 0 0 1 .556.827l-1.961 1.526 4.073-2.343a.5.5 0 0 1 .583.8l-3.071 2.743 6.145-3.543a.5.5 0 0 1 .548.834l-1.1.817 2.86-1.651a.5.5 0 0 1 .58.808l-2.986 2.622 5.453-3.148a.5.5 0 0 1 .589.8l-2.839 2.618 2.954-1.7a.5.5 0 0 1 .59.8l-.989.914.822-.475a.5.5 0 0 1 .7.649l-.6 1.248.457-.263a.5.5 0 0 1 .5.865l-1.861 1.074a.5.5 0 0 1 -.7-.649l.6-1.248-3.3 1.9a.5.5 0 0 1 -.59-.8l.991-.915-2.978 1.719a.5.5 0 0 1 -.589-.8l2.843-2.619-5.931 3.424a.5.5 0 0 1 -.58-.809l2.988-2.624-5.959 3.44a.5.5 0 0 1 -.547-.834l1.1-.818-2.871 1.656a.5.5 0 0 1 -.583-.806l3.067-2.739-6.152 3.551a.493.493 0 0 1 -.249.068z" fill="#c1d8e5"/><path d="m13.714 38.47a.5.5 0 0 1 -.264-.925l9.627-5.976-11.834 6.831a.5.5 0 0 1 -.512-.858l6.713-4.116-7.15 4.128a.5.5 0 0 1 -.51-.86l2.616-1.594-2.12 1.227a.5.5 0 0 1 -.514-.856l15.025-9.371-14.511 8.377a.5.5 0 0 1 -.514-.857l15.17-9.466-14.656 8.461a.5.5 0 0 1 -.514-.856l15.522-9.7-15.008 8.661a.5.5 0 0 1 -.51-.86l4.53-2.768-4.02 2.317a.5.5 0 0 1 -.511-.858l4.372-2.686-3.861 2.229a.5.5 0 0 1 -.51-.86l.425-.26a.5.5 0 0 1 -.43-.9l8.323-5.228-7.808 4.51a.5.5 0 0 1 -.522-.851l11.617-7.55-11.095 6.405a.5.5 0 0 1 -.527-.848l10.768-7.163-10.241 5.912a.5.5 0 0 1 -.533-.845l9.566-6.571-9.033 5.215a.5.5 0 0 1 -.53-.847l5.422-3.662-4.892 2.823a.5.5 0 0 1 -.527-.849l1.974-1.315-1.447.834a.5.5 0 0 1 -.545-.836l4.265-3.119-3.72 2.146a.5.5 0 0 1 -.579-.809l3.891-3.4-3.312 1.913a.5.5 0 0 1 -.58-.809l1.259-1.1-.68.392a.5.5 0 0 1 -.712-.622l.667-1.624a.5.5 0 0 1 -.4-.91l1.166-.666a.5.5 0 0 1 .713.623l-.659 1.6 3.855-2.223a.5.5 0 0 1 .579.809l-1.257 1.091 3.3-1.906a.5.5 0 0 1 .579.809l-3.891 3.4 7.292-4.203a.5.5 0 0 1 .545.836l-4.263 3.119 6.851-3.955a.5.5 0 0 1 .527.848l-1.971 1.314 3.747-2.162a.5.5 0 0 1 .531.846l-5.423 3.663 7.812-4.509a.5.5 0 0 1 .533.844l-9.563 6.57 12.842-7.414a.5.5 0 0 1 .527.848l-10.769 7.162 13.878-8.01a.5.5 0 0 1 .523.851l-11.616 7.549 14.55-8.4a.5.5 0 0 1 .516.856l-8.323 5.23 10.541-6.086a.5.5 0 0 1 .511.859l-.153.093 1.651-.952a.5.5 0 0 1 .511.858l-4.357 2.677 6.123-3.535a.5.5 0 0 1 .511.859l-4.518 2.764 5.694-3.287a.5.5 0 0 1 .515.856l-15.535 9.708 15.261-8.809a.5.5 0 0 1 .514.857l-15.156 9.457 14.642-8.453a.5.5 0 0 1 .514.856l-15.034 9.38 14.52-8.388a.5.5 0 0 1 .509.86l-2.611 1.589 2.1-1.213a.5.5 0 0 1 .511.858l-6.709 4.114 6.2-3.578a.5.5 0 0 1 .513.858l-9.633 5.983 9.122-5.266a.5.5 0 0 1 .51.86l-1.193.73.683-.393a.5.5 0 0 1 .518.854l-11.514 7.329 10.994-6.347a.5.5 0 0 1 .516.855l-6.351 4 5.835-3.368a.5.5 0 0 1 .52.853l-8.325 5.368 7.805-4.506a.5.5 0 0 1 .518.854l-3.611 2.3 3.093-1.785a.5.5 0 0 1 .527.849l-7.2 4.809 6.676-3.853a.5.5 0 0 1 .534.843l-6.547 4.522 6.01-3.47a.5.5 0 0 1 .548.834l-5.957 4.413 5.409-3.122a.5.5 0 0 1 .535.844l-.942.653.407-.234a.5.5 0 0 1 .568.818l-2.938 2.426 2.37-1.368a.5.5 0 0 1 .624.765l-1.826 2.062 1.2-.693a.5.5 0 0 1 .689.672l-.45.827a.5.5 0 0 1 .207.93l-1.161.67a.5.5 0 0 1 -.69-.672l.368-.674-2.331 1.34a.5.5 0 0 1 -.624-.764l1.825-2.059-4.89 2.823a.5.5 0 0 1 -.568-.818l2.939-2.427-5.621 3.245a.5.5 0 0 1 -.535-.843l.939-.652-2.59 1.5a.5.5 0 0 1 -.548-.834l5.957-4.414-9.09 5.243a.5.5 0 0 1 -.534-.843l6.543-4.523-9.295 5.366a.5.5 0 0 1 -.528-.848l7.205-4.811-9.8 5.659a.5.5 0 0 1 -.519-.854l3.615-2.3-5.469 3.154a.5.5 0 0 1 -.521-.852l8.328-5.37-10.778 6.222a.5.5 0 0 1 -.517-.855l6.35-4-8.407 4.855a.5.5 0 0 1 -.519-.854l11.517-7.331-14.179 8.185a.5.5 0 0 1 -.511-.859l1.2-.732-2.761 1.591a.5.5 0 0 1 -.25.07z" fill="#164993"/><path d="m28.772 34.426a.5.5 0 0 1 -.307-.9l5.358-4.182-7.79 4.5a.5.5 0 0 1 -.564-.822l3.287-2.656-4.631 2.673a.5.5 0 0 1 -.551-.832l.9-.681-1.4.806a.5.5 0 0 1 -.6-.8l2.157-2.032-2.749 1.587a.5.5 0 0 1 -.606-.784l1.32-1.331-1.481.854a.5.5 0 0 1 -.662-.715l1.047-1.523-.965.557a.5.5 0 0 1 -.557-.039.5.5 0 0 1 -.173-.532l.417-1.458a.5.5 0 0 1 -.405-.908l.972-.562a.5.5 0 0 1 .731.571l-.42 1.443 1.8-1.039a.5.5 0 0 1 .662.715l-1.04 1.524 2.808-1.62a.5.5 0 0 1 .606.784l-1.319 1.33 3.158-1.823a.5.5 0 0 1 .6.8l-2.143 2.038 4.845-2.8a.5.5 0 0 1 .551.832l-.905.682 3.074-1.774a.5.5 0 0 1 .564.821l-3.291 2.653 8.462-4.883a.5.5 0 0 1 .558.828l-5.361 4.182 4.765-2.751a.5.5 0 0 1 .572.816l-3.066 2.58 1.471-.849a.5.5 0 0 1 .5.865l-6.366 3.675a.5.5 0 0 1 -.572-.815l3.064-2.58-6.078 3.507a.493.493 0 0 1 -.247.068z" fill="#0f2659"/><path d="m22.752 21.453a.5.5 0 0 1 -.378-.173.5.5 0 0 1 -.015-.637l1.718-2.171-3.709 2.14a.5.5 0 0 1 -.582-.806l1.061-.944-1.613.931a.5.5 0 0 1 -.61-.779l1.752-1.82-2.213 1.278a.5.5 0 0 1 -.622-.767l1.531-1.705-1.575.909a.5.5 0 0 1 -.634-.753l1.007-1.207-.585.337a.5.5 0 0 1 -.7-.66l.729-1.43a.5.5 0 0 1 -.128-.918l.974-.562a.5.5 0 0 1 .7.66l-.612 1.2 1.556-.9a.5.5 0 0 1 .633.753l-1.006 1.208 1.855-1.072a.5.5 0 0 1 .622.767l-1.532 1.71 2.566-1.481a.5.5 0 0 1 .611.779l-1.753 1.816 2.787-1.608a.5.5 0 0 1 .582.806l-1.063.945 1.733-1a.5.5 0 0 1 .642.743l-1.716 2.17 2.884-1.665a.5.5 0 1 1 .5.865l-5.149 2.974a.489.489 0 0 1 -.248.067z" fill="#0f2659"/><path d="m35.775 21.361a.5.5 0 0 1 -.314-.888l2.227-1.8-3.44 1.986a.5.5 0 0 1 -.55-.833l2.109-1.578-2.731 1.576a.5.5 0 0 1 -.558-.824l3.69-2.9-3.791 2.188a.5.5 0 1 1 -.5-.865l9.883-5.708a.5.5 0 0 1 .558.826l-3.69 2.9 3.906-2.255a.5.5 0 0 1 .55.833l-2.108 1.581 1.7-.981a.5.5 0 0 1 .564.822l-2.226 1.8 1.321-.762a.5.5 0 0 1 .586.8l-1.471 1.33a.491.491 0 0 1 .252.216.5.5 0 0 1 -.182.683l-2.984 1.722a.5.5 0 0 1 -.586-.8l.813-.735-2.777 1.6a.491.491 0 0 1 -.251.066z" fill="#0f2659"/><g fill="#262626"><path d="m9.276 32.756c-.331 4.342-.479 6.359 4.732 5.56h30.881c1.775.03 6.4.826 5.835-2.287-.076-9.273.161-18.557 0-27.828a1.347 1.347 0 0 0 -1.418-1.517h-37.091c-1.225 0-2.853.072-2.939 1.647-.052 8.136.033 16.285 0 24.425zm1.424-25.44c12.522-.019 25.249.014 37.841 0 1.237.2.74 3.443.74 4.254.013 8.688-.033 17.459.026 26.114-12.466-.021-25.1.051-37.6 0-1.308-.086-.977-1.793-.977-2.756-.03-9.19.05-18.447-.03-27.612z"/><path d="m59.724 52.806c-8.722-14.467-3.756-31.842-5-47.945.708-4.768-33.924-1.13-39.455-2.207-3.417.388-10.516-1.763-9.993 3.746-1.047 15.641 3.481 32.445-4.914 46.461-1.987 6.8 5.544 4.11 9.564 4.6h47.116c2.895.506 2.969-2.561 2.682-4.655zm-53-47.687c.135-2.968 4-1.4 5.91-1.775h31.621c3.336.456 10.125-1.938 9.02 3.693q0 17.253 0 34.5h-46.551c.029-12.137-.047-24.279 0-36.418zm-3.776 45.139q1.773-3.9 3.545-7.8h46.907q2.316 5.1 4.633 10.193h-16.359c-1.572-4.726-1.033-6.891-6.926-6.134-4.5.1-9.06-.192-13.524.1-2.023 1.106-1.847 4.12-2.815 6.03h-16.532c.347-.842.706-1.567 1.071-2.389zm37.152 2.394h-20.277c1.909-4.606.013-5.6 5.81-5.169 4.129.028 8.314-.041 12.412 0 1.3 1.13 1.281 3.642 2.055 5.169zm18.15 3.889c-15.034.007-30.2 0-45.28 0-3.516-.12-7.125.2-10.613 0-1.133-.5-.483-2.181-.659-3.194h16.656c7.26.026 14.714-.019 22.031 0 5.819.059 11.961-.042 17.887 0-.084.971.162 2.286-.027 3.194z"/><path d="m21.238 24.544c-2.776-.257-2.044 3.213-1.252 4.778 3.884 8.409 20.768 6.52 20.737-3.6-.067-3.438-10.184 4.323-19.485-1.178zm14.336 2.323a13.168 13.168 0 0 0 3.505-1.356c.132-.1.144-.078.037.072 1.243 11.1-19.541 10.129-18.183.1 4.467 2.171 9.827 2.196 14.641 1.184z"/><path d="m22.872 21.3c1.713.051 7.012-1.705 5.44-3.923-4.432-2.605-14.935-10.845-11.267.693a6.432 6.432 0 0 0 5.827 3.23zm-4.962-8.058a5.463 5.463 0 0 1 .217-.667l8.82 5.293c1.009.733-.656 1.876-1.262 2.236-4.172 2.343-9.103-2.554-7.775-6.862z"/><path d="m31.76 17.666c-1.661 1.934 2.735 3.58 4.294 3.6 4.752.538 9.56-4.668 7.012-9.186-3.754-.571-7.736 4.144-11.306 5.586zm9.715-5.176.064-.039c2.797 4.092-2.339 10.549-6.908 7.549-.6-.33-2.625-1.641-1.636-2.418z"/><path d="m26.816 13.864c.408.566 1.686.5 1.869-.1-1.472-.906-2.782-2.49-4.363-3.025-2.555.361 1.778 2.245 2.494 3.125z"/><path d="m32.474 14.305c.728-.638 6.559-4.306 3.052-3.611-.726.639-6.559 4.306-3.052 3.611z"/></g></svg>