<svg id="Icons" height="512" viewBox="0 0 60 60" width="512" xmlns="http://www.w3.org/2000/svg"><path d="m4.186 59.47a.5.5 0 0 1 -.258-.929l7.805-4.7-8.955 5.17a.5.5 0 0 1 -.508-.861l15.993-9.69-16.53 9.545a.5.5 0 0 1 -.506-.861l6.443-3.867-6.342 3.661a.5.5 0 0 1 -.509-.86l17.221-10.431-16.761 9.676a.5.5 0 0 1 -.51-.859l24.865-15.224-24.355 14.06a.5.5 0 0 1 -.509-.86l21.072-12.825-20.563 11.871a.5.5 0 0 1 -.509-.86l19.876-12.077-19.368 11.18a.5.5 0 0 1 -.508-.86l16.069-9.721-15.561 8.984a.5.5 0 0 1 -.512-.859l28.855-17.805-28.343 16.364a.5.5 0 0 1 -.511-.858l27.356-16.828-26.846 15.5a.5.5 0 0 1 -.51-.86l21.863-13.336-21.353 12.327a.5.5 0 0 1 -.513-.857l26.636-16.515-26.124 15.084a.5.5 0 0 1 -.512-.858l21.813-13.48-21.3 12.3a.5.5 0 0 1 -.507-.86l3.493-2.109-2.987 1.718a.5.5 0 0 1 -.515-.856l20.76-13-20.246 11.687a.5.5 0 0 1 -.515-.856l17.993-11.3-17.478 10.088a.5.5 0 0 1 -.518-.855l17.434-11.1-16.916 9.769a.5.5 0 0 1 -.516-.856l12.115-7.64-11.6 6.7a.5.5 0 0 1 -.515-.857l7.619-4.774-7.1 4.1a.5.5 0 0 1 -.527-.85l12.272-8.012-11.749 6.783a.5.5 0 0 1 -.528-.849l11.316-7.583-10.789 6.228a.5.5 0 0 1 -.517-.855l1.144-.726-.628.363a.5.5 0 0 1 -.518-.849l1.246-.8-.727.42a.5.5 0 0 1 -.522-.853l1.437-.934-.916.529a.5.5 0 0 1 -.544-.837l6.12-4.462-5.576 3.215a.5.5 0 0 1 -.532-.846l.609-.414-.077.044a.5.5 0 0 1 -.56-.825l3.133-2.487-2.574 1.486a.5.5 0 0 1 -.615-.774l2.262-2.419-1.647.951a.5.5 0 0 1 -.684-.68l.683-1.2a.5.5 0 0 1 -.191-.929l1.184-.685a.5.5 0 0 1 .684.679l-.585 1.03 2.967-1.709a.5.5 0 0 1 .615.775l-2.261 2.414 5.531-3.189a.5.5 0 0 1 .56.824l-3.132 2.483 5.736-3.307a.5.5 0 0 1 .532.846l-.6.412 2.175-1.258a.5.5 0 0 1 .545.837l-6.122 4.463 9.181-5.3a.5.5 0 0 1 .522.853l-1.432.931 3.09-1.784a.5.5 0 0 1 .519.854l-1.257.8 2.874-1.659a.5.5 0 0 1 .518.855l-1.141.723 2.735-1.579a.5.5 0 0 1 .528.849l-11.315 7.581 14.6-8.431a.5.5 0 0 1 .523.851l-12.271 8.014 15.356-8.866a.5.5 0 0 1 .516.857l-7.613 4.768 9.744-5.625a.5.5 0 0 1 .517.856l-12.114 7.638 14.712-8.495a.5.5 0 0 1 .519.855l-17.44 11.1 20.711-11.955a.5.5 0 0 1 .516.856l-18 11.3 21.068-12.157a.5.5 0 0 1 .516.857l-20.75 13 24-13.855a.5.5 0 0 1 .508.862l-3.506 2.115 5.155-2.977a.5.5 0 0 1 .513.859l-21.819 13.479 24.84-14.342a.5.5 0 0 1 .514.858l-26.636 16.512 29.6-17.091a.5.5 0 0 1 .51.86l-21.862 13.337 22.063-12.737a.5.5 0 0 1 .511.859l-27.347 16.821 26.836-15.494a.5.5 0 0 1 .512.859l-28.868 17.813 28.356-16.371a.5.5 0 0 1 .509.861l-16.07 9.725 15.561-8.988a.5.5 0 0 1 .509.86l-19.874 12.077 19.365-11.18a.5.5 0 0 1 .509.86l-21.062 12.82 20.553-11.866a.5.5 0 0 1 .51.859l-24.873 15.229 24.363-14.065a.5.5 0 0 1 .509.861l-17.2 10.418 16.691-9.637a.5.5 0 0 1 .507.862l-6.479 3.89 5.972-3.45a.5.5 0 0 1 .509.861l-15.975 9.678 15.466-8.929a.5.5 0 0 1 .508.861l-7.828 4.714 7.324-4.228a.5.5 0 0 1 .51.86l-16.558 10.1 16.044-9.267a.5.5 0 0 1 .511.859l-17.166 10.541 16.655-9.615a.5.5 0 0 1 .509.861l-8.054 4.893 7.545-4.356a.5.5 0 0 1 .509.861l-4.242 2.571 3.733-2.154a.5.5 0 0 1 .516.855l-18.859 11.9 18.343-10.589a.5.5 0 0 1 .514.857l-11.961 7.446 11.447-6.607a.5.5 0 0 1 .518.854l-14.216 9.037 13.7-7.908a.5.5 0 0 1 .52.853l-13.151 8.468 12.629-7.291a.5.5 0 0 1 .516.855l-6.319 3.986 5.8-3.349a.5.5 0 0 1 .515.856l-2.418 1.516 1.906-1.1a.5.5 0 0 1 .528.849l-9.531 6.37 9-5.2a.5.5 0 0 1 .529.846l-7.188 4.854 6.662-3.839a.5.5 0 0 1 .533.845l-5.553 3.822 5.018-2.9a.5.5 0 0 1 .536.842l-3.543 2.469 3.007-1.735a.5.5 0 0 1 .551.831l-3.652 2.765 3.1-1.79a.5.5 0 0 1 .595.794l-3.063 2.937 2.471-1.426a.5.5 0 0 1 .648.735l-1.153 1.531a.5.5 0 0 1 .422.9l-2.048 1.18a.5.5 0 0 1 -.649-.734l1.143-1.513-3.931 2.267a.5.5 0 0 1 -.595-.794l3.065-2.932-6.454 3.726a.5.5 0 0 1 -.552-.831l3.654-2.766-6.232 3.6a.5.5 0 0 1 -.536-.842l3.544-2.47-5.738 3.309a.5.5 0 0 1 -.534-.844l5.55-3.822-8.083 4.666a.5.5 0 0 1 -.529-.846l7.188-4.854-9.876 5.7a.5.5 0 0 1 -.528-.848l9.526-6.367-12.497 7.215a.5.5 0 0 1 -.515-.856l2.437-1.528-4.131 2.384a.5.5 0 0 1 -.516-.855l6.306-3.979-8.373 4.834a.5.5 0 0 1 -.52-.852l13.153-8.47-16.148 9.322a.5.5 0 0 1 -.519-.854l14.217-9.037-17.134 9.891a.5.5 0 0 1 -.514-.857l11.956-7.443-14.379 8.3a.5.5 0 0 1 -.517-.855l18.861-11.9-22.096 12.755a.5.5 0 0 1 -.509-.86l4.249-2.576-5.953 3.436a.5.5 0 0 1 -.51-.86l8.046-4.888-9.956 5.748a.5.5 0 0 1 -.512-.858l17.164-10.535-19.738 11.393a.5.5 0 0 1 -.511-.859l16.564-10.1-18.991 10.959a.5.5 0 0 1 -.25.07z" fill="#4d5baf"/><path d="m1.978 9.5a.5.5 0 0 1 -.315-.889l4.9-3.971-5.283 3.052a.5.5 0 0 1 -.549-.834l1.489-1.108-.94.542a.5.5 0 0 1 -.563-.822l.925-.742-.362.208a.5.5 0 0 1 -.647-.736l1.135-1.489a.5.5 0 0 1 -.4-.909l2.043-1.182a.5.5 0 0 1 .648.736l-1.119 1.467 3.86-2.223a.5.5 0 0 1 .563.822l-.925.744 2.707-1.566a.5.5 0 0 1 .548.834l-1.493 1.106 3.369-1.94a.5.5 0 0 1 .565.821l-4.905 3.969 8.302-4.79a.5.5 0 0 1 .531.846l-.371.252 1.9-1.1a.5.5 0 0 1 .548.834l-3.751 2.785 6.271-3.617a.5.5 0 0 1 .562.824l-4.763 3.8 8-4.619a.5.5 0 0 1 .542.83l-3.169 2.3 5.43-3.135a.5.5 0 0 1 .565.821l-4.906 3.979 8.314-4.8a.5.5 0 0 1 .553.831l-4.159 3.154 6.908-3.985a.5.5 0 0 1 .536.843l-1.8 1.257 3.634-2.1a.5.5 0 0 1 .562.824l-4.741 3.769 7.961-4.593a.5.5 0 0 1 .554.83l-4.276 3.27 7.106-4.1a.5.5 0 0 1 .531.847l-.079.053 1.559-.9a.5.5 0 0 1 .531.846l-.553.377 2.119-1.223a.5.5 0 0 1 .548.835l-3.695 2.734 6.187-3.569a.5.5 0 0 1 .534.844l-1.214.837 2.911-1.681a.5.5 0 0 1 .549.833l-3.451 2.53 5.734-3.313a.5.5 0 0 1 .546.836l-3.418 2.514 4.418-2.551a.5.5 0 0 1 .574.813l-4.159 3.538 4.456-2.568a.5.5 0 0 1 .557.829l-1.065.826.538-.31a.5.5 0 0 1 .589.8l-1.019.941.434-.251a.5.5 0 0 1 .644.742l-.425.544a.505.505 0 0 1 .472.248.5.5 0 0 1 -.183.683l-1.942 1.116a.5.5 0 0 1 -.644-.741l.346-.443-2.049 1.184a.5.5 0 0 1 -.59-.8l1.015-.94-3.018 1.747a.5.5 0 0 1 -.556-.828l1.061-.825-2.865 1.654a.5.5 0 0 1 -.574-.814l4.161-3.544-7.552 4.36a.5.5 0 0 1 -.546-.836l3.417-2.51-5.8 3.348a.5.5 0 0 1 -.546-.837l3.452-2.53-5.83 3.368a.5.5 0 0 1 -.535-.845l1.215-.837-2.914 1.683a.5.5 0 0 1 -.548-.835l3.7-2.738-6.195 3.575a.5.5 0 0 1 -.531-.847l.551-.375-2.118 1.223a.5.5 0 0 1 -.531-.847l.075-.05-1.556.9a.5.5 0 0 1 -.554-.83l4.279-3.277-7.113 4.106a.5.5 0 0 1 -.561-.824l4.74-3.772-7.964 4.6a.5.5 0 0 1 -.536-.843l1.8-1.254-3.634 2.1a.5.5 0 0 1 -.553-.832l4.16-3.157-6.912 3.99a.5.5 0 0 1 -.567-.827l4.906-3.979-8.318 4.8a.5.5 0 0 1 -.543-.838l3.167-2.3-5.429 3.145a.5.5 0 0 1 -.563-.828l4.764-3.8-8.005 4.63a.5.5 0 0 1 -.547-.83l3.752-2.79-6.272 3.622a.5.5 0 0 1 -.531-.847l.373-.253-1.906 1.1a.507.507 0 0 1 -.25.068z" fill="#bddadc"/><g fill="#262626"><path d="m.277 55.864a3.461 3.461 0 0 0 3.445 3.554h48.148c6.532.694 8.717-1.3 7.856-7.931-.147-16.193.287-32.479-.152-48.629-.943-2.83-4.408-2.275-6.737-2.275h-42.222c-4.651-.059-11.549-1.098-10.338 5.852.043 16.476-.077 32.954 0 49.429zm58-9.55c-.755 3.478 2.392 13.163-3.433 12.269h-50.562c-3.268-.176-2.555-4.454-2.555-6.663-.011-14.186.021-28.373-.012-42.559h56.562zm-56.55-42.288c.105-3.126 2.885-2.608 5.053-2.608h26.8c7.258 0 14.532-.139 21.789 0 3.985.182 2.662 4.582 2.908 7.222h-56.568c-.017-1.54-.034-3.08.018-4.614z"/><path d="m4.415 5.31c.635.011 2.216.274 2.266-.572-.463-.176-2.745-.196-2.266.572z"/><path d="m9.411 5.3c.448.23 3.293-.243 1.9-.615-.494-.004-2.271-.095-1.9.615z"/><path d="m14.578 5.467c.686.016 1.854.293 2.156-.53-.067-.974-3.434-.389-2.156.53z"/><path d="m48.7 5.338c2.256-.243 4.9.522 6.965-.365.2-.264-.177-.31-.361-.31h-5.257c-.47-.188-2.671.384-1.347.675z"/><path d="m34.5 12.928c-14.96-3.396-29.32 11.448-24.346 26.272.165.623 1.615.238 1.448-.389-6.589-31.618 38.442-34.304 38.675-2.528.045.606 1.5.272 1.449-.389-.235-10.36-6.389-21.075-17.226-22.966z"/><path d="m43.847 23.532c-4.522-6.426-12.955-8.391-20.11-5.532-.948.379-.067.678.53.439 11.554-4.7 22.008 6.1 21.867 17.447a35.55 35.55 0 0 1 -1.021 12.026c-.1.4 1.331.191 1.438-.225 1.912-7.916 1.811-17.119-2.704-24.155z"/><path d="m15.635 39.973c.168-6.718-1.836-13.884 4.358-18.892.6-.526-.832-.432-1.142-.161-5.237 4.324-5.667 11.361-4.433 17.562.031 2.437-1.453 4.294-3.307 5.7-.624.474.818.405 1.141.16a8.732 8.732 0 0 0 3.383-4.369z"/><path d="m37.862 23.049c-7.577-5.583-19.176-.74-20.3 8.647-.522 2.756.869 5.328.668 8.062-.379 3.06-2.761 5.618-4.982 7.56-.594.519.836.409 1.137.145 3.307-2.891 6.161-6.549 5.039-11.169-3.21-9.838 8.298-19.294 16.936-12.818 8.25 6.928 6.689 20.14 2.9 29.112-.155.351 1.253.207 1.439-.216 3.815-9.032 5.355-22.272-2.837-29.323z"/><path d="m33.926 25.322c-.441-.21-1.763.425-1.148.717 9.122 5.99 5.558 20.456 1 28.458-.349.6 1.1.477 1.353.047 4.728-8.252 8.284-23.126-1.205-29.222z"/><path d="m23.042 31.522a7.546 7.546 0 0 1 4.238-5.615c.919-.419.072-.819-.556-.533-11.22 5.783 1.723 15.191-10.647 24.75-.607.541.823.483 1.15.192 7.146-6.046 6.673-10.39 5.815-18.794z"/><path d="m34.759 32.074c-.79-3.555-5.341-4.409-7.86-2.078-3.17 3.134.5 7.746-.87 11.571-.833 4.253-3.417 8.026-6.338 11.138-.33.352 1.061.2 1.322-.073 4.62-4.923 7.877-11.177 6.237-18.063-1.769-5.531 4.724-7.384 6.153-1.793 2.258 7.634-.059 15.93-4.612 22.261-.3.426 1.1.236 1.322-.073 4.659-6.596 7.077-14.964 4.646-22.89z"/><path d="m31.678 37.313c-.053-1.246-.534-6.564-2.4-4.119 2.69 7.094-.339 15.182-4.949 20.792 2.806 2.332 8.656-13.779 7.349-16.673z"/></g></svg>