<svg id="Icons" enable-background="new 0 0 60 60" height="512" viewBox="0 0 60 60" width="512" xmlns="http://www.w3.org/2000/svg"><path d="m16.354 59.471c-.276 0-.5-.225-.499-.501 0-.173.09-.334.238-.425l11.17-6.859-13.363 7.714c-.243.132-.546.041-.678-.201-.123-.227-.053-.511.163-.655l21.273-13.305-24.532 14.161c-.242.134-.546.046-.68-.196-.128-.231-.054-.521.169-.663l13.345-8.133-15.58 8.992c-.24.137-.545.053-.682-.187-.133-.234-.057-.532.172-.673l13.13-7.967-15.178 8.761c-.241.134-.546.048-.68-.193-.13-.233-.054-.526.172-.668l8.076-4.864-9.076 5.24c-.24.137-.545.053-.682-.187-.133-.234-.057-.532.172-.673l20.584-12.556-21.351 12.326c-.237.141-.544.063-.686-.175-.141-.237-.063-.544.175-.686l23.449-14.34-23.575 13.612c-.244.13-.546.038-.677-.205-.122-.228-.05-.512.167-.654l24.136-14.763-23.746 13.709c-.249.12-.548.015-.667-.234-.105-.219-.038-.482.159-.623l11.084-6.672-10.576 6.101c-.244.129-.547.035-.675-.209-.119-.226-.048-.507.164-.649l26.257-16.117-25.746 14.864c-.24.137-.545.053-.682-.187-.133-.234-.057-.532.172-.673l22.3-13.6-21.79 12.583c-.238.14-.545.061-.685-.177s-.061-.545.177-.685l11.434-6.879-10.926 6.3c-.243.132-.546.042-.678-.201-.124-.229-.052-.514.166-.657l28-17.248-27.488 15.874c-.245.127-.547.032-.674-.213-.118-.226-.046-.504.165-.646l21.868-13.327-21.359 12.331c-.241.134-.546.048-.68-.193-.13-.233-.054-.526.172-.668l11.084-6.672-10.576 6.106c-.238.14-.545.061-.685-.177s-.061-.545.177-.685l10.335-6.216-9.827 5.672c-.243.132-.546.042-.678-.2-.125-.23-.051-.518.169-.66l13.544-8.172-13.035 7.526c-.238.14-.545.06-.685-.178s-.06-.545.178-.685l.47-.28c-.251.116-.548.007-.664-.244-.106-.23-.024-.502.191-.635l23.014-14.068-22.504 12.992c-.243.132-.546.042-.678-.201-.124-.229-.052-.514.166-.657l25.987-16.025-25.475 14.707c-.243.132-.546.042-.678-.2-.125-.23-.051-.518.169-.66l11.207-6.777-10.698 6.175c-.243.132-.546.042-.678-.201-.124-.229-.052-.514.166-.657l20.5-12.639-19.988 11.539c-.243.132-.546.042-.678-.2-.125-.23-.051-.518.169-.66l11.151-6.8-10.642 6.149c-.241.136-.546.05-.681-.19-.131-.232-.057-.525.168-.668l17.584-10.921-17.072 9.856c-.241.134-.546.048-.68-.193-.13-.233-.054-.526.172-.668l2.129-1.285-1.617.933c-.242.133-.546.045-.679-.197-.126-.229-.054-.517.165-.66l13.344-8.31-12.834 7.404c-.24.137-.545.054-.682-.186-.132-.231-.06-.525.164-.669l15.411-9.793-14.893 8.598c-.237.141-.544.063-.686-.174-.141-.237-.063-.544.175-.686l.722-.442-.211.122c-.238.14-.545.06-.684-.179-.136-.233-.064-.531.164-.675l12.205-7.846-11.685 6.747c-.237.142-.544.066-.687-.17s-.066-.544.171-.687l5.061-3.184-4.545 2.625c-.239.139-.545.058-.684-.181-.134-.231-.063-.526.161-.671l8.969-5.857-8.446 4.876c-.239.138-.545.057-.683-.182-.132-.228-.065-.519.154-.666l8.866-5.983-8.337 4.814c-.24.136-.545.052-.682-.188-.126-.223-.064-.505.145-.654l7.8-5.473-7.263 4.194c-.24.137-.545.055-.683-.185-.127-.221-.067-.503.14-.653l5.732-4.15-5.189 3c-.24.136-.545.051-.681-.189-.125-.221-.064-.5.14-.65l2.662-1.919-2.121 1.226c-.24.137-.545.054-.682-.186-.118-.206-.075-.466.103-.623l3.388-2.971-2.809 1.62c-.239.138-.545.056-.683-.183-.103-.179-.086-.403.044-.564l1.575-1.956c-.241.136-.546.051-.682-.19s-.051-.546.19-.681l2.309-1.333c.239-.138.545-.056.683.183.103.179.086.402-.043.563l-1.572 1.956 4.879-2.815c.239-.139.545-.058.684.181.12.207.077.47-.104.628l-3.39 2.971 6.553-3.78c.24-.136.545-.051.681.189.125.221.064.5-.14.65l-2.663 1.907 4.759-2.746c.24-.137.545-.055.683.185.127.221.067.503-.14.653l-5.73 4.146 8.639-4.984c.24-.136.545-.052.682.188.126.223.064.505-.145.654l-7.795 5.47 10.938-6.312c.24-.137.545-.053.682.187.129.226.063.513-.152.66l-8.868 5.98 11.831-6.827c.24-.136.545-.053.682.188.13.228.061.518-.158.663l-8.968 5.854 11.619-6.705c.236-.143.544-.067.687.169s.067.544-.17.687l-5.057 3.178 6.992-4.034c.24-.137.545-.053.682.187.131.23.06.521-.161.666l-12.205 7.847 15.067-8.7c.237-.141.544-.064.686.173s.064.544-.174.686l-.735.45 2.268-1.309c.236-.143.544-.068.687.168s.068.544-.168.687l-15.414 9.8 18.447-10.655c.242-.133.546-.045.679.197.126.229.054.517-.165.66l-13.341 8.305 15.874-9.162c.241-.134.546-.048.68.193.13.233.054.526-.172.668l-2.119 1.282 3.717-2.143c.237-.142.544-.065.686.172s.065.544-.172.686l-17.582 10.917 20.4-11.775c.24-.137.545-.053.682.187.133.234.057.532-.172.673l-11.145 6.787 13.251-7.647c.237-.142.544-.064.686.173s.064.544-.173.686l-20.505 12.641 23.386-13.5c.238-.141.544-.062.685.176s.062.544-.176.685l-11.19 6.764 12.738-7.354c.243-.132.546-.042.678.201.124.229.052.514-.166.657l-25.993 16.029 27.152-15.676c.242-.134.546-.046.68.196.128.231.054.521-.169.663l-23.017 14.07 23.254-13.425c.242-.133.546-.044.679.199.127.232.051.523-.173.663l-.348.208c.238-.141.545-.062.686.177.141.238.062.545-.177.685l-13.529 8.163 13.02-7.518c.241-.134.546-.048.68.193.13.233.054.526-.172.668l-10.352 6.227 9.844-5.683c.238-.14.545-.061.685.177s.061.545-.177.685l-11.084 6.67 10.576-6.1c.243-.132.546-.042.678.2.125.23.051.518-.169.66l-21.858 13.316 21.349-12.326c.237-.141.544-.064.686.173.141.237.064.544-.174.686l-28 17.248 27.488-15.873c.238-.14.545-.061.685.177s.061.545-.177.685l-11.45 6.9 10.942-6.323c.24-.137.545-.053.682.187.133.234.057.532-.172.673l-22.3 13.6 21.79-12.583c.237-.141.544-.063.686.174s.063.544-.174.686l-26.25 16.112 25.738-14.861c.238-.14.545-.061.685.177s.061.545-.177.685l-11.117 6.691 10.609-6.124c.24-.137.545-.053.682.187.133.234.057.532-.172.673l-24.122 14.753 23.612-13.632c.24-.137.545-.053.682.187.133.234.057.532-.172.673l-23.457 14.346 22.947-13.249c.24-.137.545-.053.682.187.133.234.057.532-.172.673l-20.58 12.555 20.07-11.587c.241-.134.546-.048.68.193.13.233.054.526-.172.668l-8.061 4.855 7.553-4.361c.243-.132.546-.042.678.2.125.23.051.518-.169.66l-13.135 7.979 12.626-7.29c.24-.137.545-.053.682.187.133.234.057.532-.172.673l-13.33 8.13 12.823-7.4c.237-.142.544-.065.686.172s.065.544-.172.686l-21.292 13.305 20.776-11.994c.242-.134.546-.046.68.196.128.231.054.521-.169.663l-11.168 6.857 10.657-6.151c.243-.132.546-.042.678.2.125.23.051.518-.169.66l-2.437 1.48 1.928-1.112c.243-.132.546-.042.678.201.124.229.052.514-.166.657l-10.052 6.223 9.54-5.508c.24-.137.545-.053.682.187.133.234.057.532-.172.673l-2.092 1.28 1.582-.913c.243-.132.546-.041.678.201.123.226.053.509-.16.653l-12.639 8.035 12.117-7c.241-.136.546-.05.681.19.131.232.057.525-.168.668l-2.709 1.691 2.2-1.271c.244-.13.546-.038.677.205.121.227.05.509-.164.652l-2 1.244 1.487-.858c.24-.136.545-.053.682.188.13.228.061.518-.158.663l-9.829 6.438 9.305-5.372c.239-.138.545-.057.683.182.132.228.065.519-.154.666l-9.165 6.163 8.636-4.986c.237-.141.544-.063.685.175.137.231.068.528-.157.674l-5.672 3.794 5.144-2.97c.24-.137.545-.053.682.187.127.222.065.504-.142.653l-6.255 4.453 5.715-3.3c.239-.138.545-.056.683.183.128.221.069.502-.137.653l-4.273 3.132 3.727-2.148c.24-.137.545-.053.682.187.122.213.07.483-.121.637l-3.2 2.549 2.644-1.526c.239-.138.545-.056.683.183.122.211.074.479-.114.635l-1.347 1.117.676-.39c.238-.139.545-.059.684.18.114.195.083.443-.076.603l-1.043 1.068c.262.086.405.369.319.631-.038.117-.118.215-.225.277l-2.309 1.333c-.239.138-.545.056-.683-.183-.112-.194-.081-.438.075-.599l.615-.629-2.652 1.527c-.24.136-.545.051-.681-.189-.118-.209-.071-.473.112-.628l1.349-1.119-3.356 1.936c-.239.139-.545.058-.684-.181-.125-.215-.073-.489.122-.643l3.2-2.546-5.836 3.37c-.239.138-.545.056-.683-.183-.128-.221-.069-.502.137-.653l4.272-3.131-6.873 3.967c-.242.134-.546.046-.679-.196-.121-.219-.061-.494.139-.643l6.255-4.454-9.169 5.293c-.241.135-.546.049-.681-.192-.126-.225-.06-.51.153-.656l5.674-3.791-8.043 4.639c-.24.137-.545.053-.682-.187-.129-.226-.063-.513.152-.66l9.165-6.172-12.159 7.019c-.243.132-.546.042-.678-.2-.122-.224-.056-.504.154-.65l9.829-6.438-12.625 7.288c-.242.133-.546.045-.679-.197-.126-.229-.054-.517.165-.66l2.012-1.251-3.652 2.108c-.242.133-.546.045-.679-.197-.126-.229-.054-.517.165-.66l2.683-1.661-4.366 2.518c-.243.132-.546.041-.678-.201-.123-.226-.053-.509.16-.653l12.633-8.033-15.394 8.887c-.242.134-.546.046-.68-.196-.128-.231-.054-.521.169-.663l2.116-1.295-3.731 2.154c-.244.13-.546.038-.677-.205-.121-.227-.05-.509.164-.652l10.04-6.216-12.251 7.073c-.243.132-.546.042-.678-.2-.125-.23-.051-.518.169-.66l2.456-1.492-4.08 2.352c-.074.045-.159.069-.246.071z" fill="#346d92"/><g fill="#f0f2f5"><path d="m12.011 38.415c-.276 0-.5-.224-.5-.5 0-.116.04-.228.113-.317l.123-.15-.74.427c-.239.139-.545.059-.684-.18-.094-.162-.09-.362.01-.52l1.067-1.7-1.674.966c-.239.138-.545.056-.683-.183-.112-.194-.081-.438.075-.599l.181-.184-.256.147c-.239.138-.545.056-.683-.184-.1-.174-.087-.39.034-.55l.918-1.214-1.279.737c-.24.136-.545.053-.682-.188-.124-.218-.067-.495.134-.646l1.024-.76-1.219.7c-.24.137-.545.053-.682-.187-.113-.199-.077-.448.087-.607l2.25-2.148-2.772 1.6c-.239.138-.545.055-.683-.184-.121-.21-.073-.477.113-.633l2.668-2.232-2.909 1.68c-.241.135-.546.049-.681-.191-.121-.216-.066-.489.131-.641l2.277-1.719-1.069.618c-.238.141-.544.062-.685-.176-.131-.221-.073-.505.134-.657l2.271-1.71c-.09-.034-.168-.093-.224-.17-.151-.204-.126-.489.06-.663l2.235-2.087c-.012-.017-.024-.034-.034-.052-.138-.239-.056-.545.183-.683l1.717-.991c.238-.14.544-.061.685.177.12.204.081.464-.094.623l-.813.76 1.687-.974c.239-.138.545-.056.683.183.126.219.069.498-.133.65l-1.069.8 1.015-.586c.241-.135.546-.049.681.191.121.216.066.489-.131.641l-2.276 1.718.858-.5c.239-.138.545-.055.683.184.121.21.073.477-.113.633l-2.669 2.232 1.393-.8c.221-.165.534-.12.7.101.165.221.121.534-.1.699l-2.25 2.147 5.122-2.963c.238-.14.545-.06.684.178.13.222.071.506-.136.657l-4.459 3.31c.106.175.094.397-.029.56l-.918 1.214 1.279-.739c.24-.137.545-.053.682.187.11.193.079.436-.075.595l-.181.186.258-.148c.239-.138.545-.057.683.182.093.161.089.36-.01.518l-1.067 1.705 1.381-.8c.239-.138.545-.057.683.182.105.18.086.407-.046.568l-.431.523c.262.089.402.372.313.634-.039.115-.119.212-.224.273l-1.662.96c-.076.045-.162.07-.25.07z"/><path d="m33.629 47.948c-.276-.001-.499-.226-.498-.502.001-.177.095-.341.248-.43l2.36-1.364c.24-.137.545-.053.682.187.135.238.054.54-.182.679l-2.36 1.363c-.076.044-.162.067-.25.067z"/><path d="m29.9 55.391c-.276 0-.5-.224-.5-.5 0-.157.074-.306.2-.4l.651-.491-1.389.8c-.239.138-.545.055-.683-.184-.123-.213-.072-.484.119-.638l4.118-3.337-5.049 2.919c-.24.137-.545.053-.682-.187-.112-.196-.078-.443.082-.602l2.021-1.987-2.808 1.616c-.24.136-.545.052-.682-.188-.121-.213-.07-.481.12-.635l1.089-.872-1.514.873c-.24.137-.545.055-.682-.185-.089-.155-.088-.346.001-.5l1.036-1.771-1.948 1.13c-.243.132-.546.042-.678-.201-.104-.191-.072-.427.078-.584l.1-.1-.2.111c-.237.142-.544.064-.686-.173-.089-.149-.094-.333-.014-.487l.763-1.47-.113.064c-.245.128-.547.033-.675-.211-.12-.23-.044-.514.175-.654l1.594-.92c.24-.137.545-.054.682.185.084.147.088.327.011.478l-.762 1.471 1.972-1.139c.239-.138.545-.056.683.183.113.195.081.441-.078.602l-.1.1.324-.187c.239-.138.545-.056.683.183.09.155.089.347-.001.502l-1.036 1.772 5.563-3.21c.239-.138.545-.057.683.182.124.214.073.486-.12.641l-1.087.871.524-.3c.24-.137.545-.053.682.187.112.196.078.443-.082.602l-2.015 1.979 7.13-4.115c.238-.14.545-.06.684.178.126.214.075.489-.119.644l-4.118 3.337 3.3-1.9c.24-.136.545-.053.682.188.124.218.067.495-.134.646l-4.5 3.357c.099.232.008.502-.21.628l-2.833 1.635c-.077.043-.164.066-.252.064z"/><path d="m33.03 40.979c-.276-.001-.499-.226-.498-.502.001-.177.095-.341.248-.43l4.6-2.655c.233-.148.542-.079.69.154s.079.542-.154.69c-.012.008-.024.015-.036.021l-4.6 2.655c-.076.044-.162.067-.25.067z"/><path d="m48.346 27.946c-.276 0-.5-.224-.5-.5 0-.108.035-.213.1-.3l.919-1.218-1.281.74c-.24.137-.545.053-.682-.187-.091-.16-.087-.357.011-.513l1.087-1.711-1.535.886c-.239.138-.545.056-.683-.184-.095-.166-.088-.371.019-.529l.6-.892c-.273.044-.529-.141-.573-.414-.033-.205.064-.409.244-.513l1.662-.959c.239-.138.545-.056.683.184.095.166.088.371-.019.529l-.558.829 1.433-.828c.24-.137.545-.053.682.187.091.16.087.357-.011.513l-1.091 1.709 1.64-.947c.239-.138.545-.056.683.184.1.174.087.39-.034.55l-.919 1.219 1.282-.741c.239-.138.545-.056.683.184.138.239.056.545-.183.684l-3.405 1.971c-.077.045-.165.068-.254.067z"/><path d="m47.265 38.226c-.276 0-.5-.223-.501-.499 0-.149.066-.29.18-.385l1.594-1.333-2.059 1.191c-.242.134-.546.046-.679-.196-.12-.217-.062-.49.135-.64l1.191-.872-.73.421c-.24.137-.545.053-.682-.187-.125-.22-.066-.499.138-.65l1.848-1.349c-.273-.044-.458-.301-.414-.573.019-.119.081-.227.174-.305l1.658-1.378-1.578.91c-.236.144-.543.07-.687-.165-.125-.204-.088-.467.087-.629l2.5-2.389-5.55 3.202c-.24.137-.545.053-.682-.187-.117-.205-.075-.463.101-.62l.7-.616-2.489 1.436c-.233.148-.542.079-.69-.154s-.079-.542.154-.69c.012-.008.024-.015.036-.021l6.791-3.921c.239-.139.545-.057.683.182.12.206.077.469-.102.626l-.7.615 4.832-2.789c.236-.144.543-.07.687.165.125.204.088.467-.087.629l-2.494 2.389 3.07-1.775c.238-.14.544-.06.684.178.125.212.076.484-.114.64l-1.662 1.382 1.868-1.078c.24-.136.545-.051.681.19.124.219.065.496-.136.646l-.987.719.608-.35c.24-.136.545-.051.681.19.124.219.065.496-.136.646l-1.858 1.359c.275.022.48.264.458.539-.011.134-.075.257-.178.343l-2.6 2.172c.088.045.161.114.209.2.138.239.056.545-.183.683l-3.522 2.033c-.075.043-.161.066-.248.065z"/><path d="m35 35.473c-.276.003-.503-.218-.506-.494-.002-.16.072-.31.2-.406l3.031-2.338-.851.491c-.24.137-.545.054-.682-.185-.109-.19-.081-.428.067-.589l1.841-1.97-.8.46c-.218.126-.497.07-.649-.131s-.131-.483.049-.659l.523-.513-.087.051c-.238.139-.545.059-.684-.18-.114-.195-.083-.443.076-.603l.547-.558-.26.149c-.24.137-.545.053-.682-.186-.1-.175-.085-.392.037-.552l1.095-1.419-1.19.687c-.239.138-.545.056-.683-.183-.103-.179-.086-.403.044-.564l.817-1.012-1.079.623c-.239.139-.545.058-.683-.181-.11-.189-.084-.429.064-.59l.416-.452-.791.457c-.239.138-.545.057-.683-.182-.096-.165-.089-.37.017-.529l.989-1.482-2.2 1.269c-.239.139-.545.058-.683-.181-.091-.156-.09-.349.001-.505l1.053-1.794-4.106 2.378c-.24.136-.545.052-.682-.188-.135-.238-.054-.54.182-.678l5.753-3.321c.239-.139.545-.058.683.181.091.156.09.349-.001.505l-1.053 1.795 2.413-1.394c.239-.138.545-.057.683.182.096.165.089.37-.017.529l-.989 1.483 1.76-1.017c.239-.139.545-.057.683.181.11.19.084.429-.065.591l-.414.451.582-.337c.239-.139.545-.058.684.181.105.18.087.406-.045.567l-.817 1.011 1.06-.612c.239-.138.545-.055.683.184.101.175.086.395-.038.555l-1.1 1.42 1.222-.706c.238-.139.545-.059.684.18.114.195.083.443-.076.603l-.543.554.353-.2c.218-.126.497-.07.649.131s.131.483-.049.659l-.524.514.281-.162c.24-.137.545-.054.682.185.109.19.081.428-.067.589l-1.841 1.971 4.431-2.559c.239-.137.545-.055.683.185.124.216.07.491-.128.644l-3.033 2.343 5.491-3.17c.24-.136.545-.052.682.188.135.238.054.54-.182.678l-11.974 6.909c-.077.045-.165.069-.254.068z"/><path d="m28.056 48.548c-.276 0-.5-.224-.5-.5 0-.129.05-.254.14-.347l1.419-1.472-.815.471c-.238.139-.545.059-.684-.179-.116-.199-.082-.451.084-.612l1.035-1.009-.447.258c-.239.138-.545.056-.683-.183-.126-.218-.07-.494.129-.647l4.408-3.362-3.865 2.23c-.239.138-.545.056-.683-.183-.128-.221-.069-.502.137-.653l4.918-3.615-4.381 2.529c-.239.139-.545.058-.684-.181-.11-.189-.084-.427.063-.588l1.483-1.628-2.96 1.709c-.239.138-.545.056-.683-.183-.104-.181-.085-.408.048-.569l.937-1.13-1.854 1.069c-.205.121-.466.079-.623-.1-.158-.177-.17-.441-.028-.631l.887-1.192-1.6.925c-.24.137-.545.055-.682-.185-.089-.155-.088-.346.001-.5l1.028-1.75-1.755 1.013c-.238.139-.545.059-.684-.18-.114-.196-.082-.445.078-.605l.136-.136-.194.111c-.239.138-.545.056-.683-.183-.111-.193-.082-.436.072-.596l.373-.389-.3.175c-.239.138-.545.057-.683-.182-.101-.175-.087-.393.035-.554l1.23-1.614-1.3.752c-.239.138-.545.057-.683-.182-.103-.178-.087-.402.042-.563l1.708-2.138-2.263 1.307c-.24.137-.545.053-.682-.187-.114-.199-.077-.45.088-.608l2.117-2.009-4.858 2.8c-.239.138-.545.055-.683-.184-.104-.182-.085-.409.05-.57l1.466-1.747-4.333 2.5c-.233.148-.542.079-.69-.154s-.079-.542.154-.69c.012-.008.024-.015.036-.021l6.788-3.92c.24-.137.545-.053.682.187.103.181.083.407-.05.567l-1.468 1.75 6.062-3.5c.235-.145.543-.073.688.162.128.207.088.477-.094.638l-2.116 2.008.9-.519c.238-.139.545-.059.684.18.105.179.088.405-.043.566l-1.708 2.138 1.178-.68c.24-.137.545-.054.682.185.1.174.086.391-.035.551l-1.238 1.611 1.187-.686c.24-.137.545-.053.682.186.109.192.08.433-.072.593l-.375.391.37-.213c.24-.137.545-.053.682.187.11.194.079.437-.077.597l-.136.137.169-.1c.239-.138.545-.056.683.184.09.156.089.347-.002.502l-1.027 1.75 2.058-1.189c.238-.139.545-.059.684.18.102.174.089.392-.032.552l-.888 1.199 2.172-1.253c.239-.138.545-.056.683.183.104.181.085.408-.048.569l-.936 1.129 3.33-1.923c.239-.139.545-.058.684.181.11.189.084.428-.064.589l-1.484 1.625 9.437-5.448c.241-.135.546-.049.681.192.122.218.065.493-.135.643l-4.918 3.613 2.774-1.6c.24-.136.545-.051.681.189.122.216.068.489-.128.641l-6.655 5.08c.019.018.037.038.052.059.152.201.131.484-.049.66l-1.04 1.014.44-.254c.239-.138.545-.056.683.183.111.193.082.437-.073.597l-1.418 1.469.808-.466c.233-.148.542-.079.69.154s.079.542-.154.69c-.012.008-.024.015-.036.021l-3.884 2.243c-.076.045-.162.068-.25.068z"/><path d="m19.414 27.91c-.276 0-.5-.224-.5-.5 0-.16.077-.311.207-.405l4.717-3.415-3.291 1.9c-.239.138-.545.056-.683-.183-.121-.209-.075-.474.108-.63l2.7-2.319c-.273-.043-.46-.298-.417-.571.023-.149.113-.28.244-.356l3.87-2.234c.24-.136.545-.052.682.188.117.207.073.468-.107.624l-2.244 1.929 7.029-4.059c.241-.135.546-.049.681.192.123.22.064.496-.139.646l-4.715 3.415 5.231-3.02c.238-.14.545-.06.684.178.14.238.06.545-.178.684-.002.001-.004.002-.006.003l-13.623 7.865c-.076.045-.162.068-.25.068z"/><path d="m36.005 14.44c-.276 0-.5-.224-.5-.5 0-.102.031-.202.09-.286l.538-.775-1.406.813c-.239.139-.545.058-.684-.181-.101-.174-.088-.392.034-.553l.867-1.155-1.466.847c-.239.139-.545.057-.683-.182-.106-.183-.086-.412.05-.573l.67-.8-1.12.647c-.238.14-.545.06-.684-.178-.14-.238-.06-.545.178-.684l.006-.003 3.584-2.066c.239-.138.545-.055.683.185.104.182.084.41-.051.57l-.67.8 1.122-.648c.239-.139.545-.058.684.181.101.174.088.392-.034.553l-.867 1.148 1.225-.708c.239-.138.545-.056.683.183.097.168.088.377-.023.536l-.63.907c.276.001.499.226.498.502-.001.178-.096.342-.25.431l-1.594.92c-.076.045-.162.068-.25.069z"/><path d="m28.06 18.4c-.276 0-.5-.224-.5-.5 0-.127.048-.249.134-.341l1.606-1.717-.989.571c-.239.138-.545.056-.683-.183-.114-.197-.08-.447.083-.607l1.1-1.08-.5.287c-.237.141-.544.064-.685-.174-.128-.215-.078-.492.118-.647l2.222-1.817-1.655.956c-.238.14-.544.06-.684-.178-.127-.217-.074-.494.124-.648l.644-.507-.084.048c-.24.136-.545.053-.682-.188-.135-.238-.054-.54.182-.678l6.08-3.51c.239-.138.545-.056.683.184.124.215.071.489-.124.642l-.644.507 1-.574c.24-.137.545-.054.682.186.121.211.072.479-.116.634l-3.222 2.634c.076.034.143.087.193.154.152.2.132.482-.047.659l-1.1 1.08.5-.292c.239-.138.545-.057.683.182.111.191.083.432-.068.593l-1.6 1.717 1-.577c.239-.138.545-.056.684.184.138.239.056.545-.184.683l-3.9 2.253c-.077.043-.163.065-.251.064z"/><path d="m23.665 14.386c-.276 0-.5-.224-.5-.5 0-.161.077-.312.208-.406l1.415-1.02-2.048 1.183c-.239.139-.545.058-.684-.181-.128-.22-.07-.502.135-.653l2.668-1.991-2.541 1.468c-.239.138-.545.056-.683-.183-.121-.209-.075-.474.108-.63l5.5-4.7c-.018-.022-.033-.045-.047-.069-.138-.239-.056-.545.183-.683l2.321-1.344c.239-.138.545-.056.683.183.121.209.075.474-.108.63l-3.77 3.224 5.231-3.021c.239-.139.545-.058.684.181.128.22.07.502-.135.653l-2.668 1.991 3.254-1.879c.239-.139.545-.057.683.182.129.223.068.507-.141.657l-5.707 4.112c.117.237.029.524-.2.655l-3.593 2.074c-.075.044-.161.067-.248.067z"/></g><path d="m4.533 59.3c2.54.169 5.089.169 7.629 0h42.38c.109.004.218-.004.326-.023 6.761-1.091 4.856-9.348 4.856-14.448v-31.253c0-4.676 1.686-12.524-4.894-12.876-8.4-.46-16.951 0-25.362 0-7.857 0-15.925-.544-23.768 0-6.157.419-5.424 5.688-5.424 10.35v30.732c0 4.674-2.386 16.607 4.257 17.518zm-2.809-54.261c1.295-6.112 12.498-3.739 17.126-3.739h27.682c2.528-.145 5.061-.146 7.589 0 3.714.441 4.106 2.964 4.155 5.877.152 9.158 0 18.332 0 27.491v14.67c0 2.843 1.026 8.6-3.047 9.358h-44.229c-2.056 0-4.635.426-6.588-.359-3.142-1.263-2.683-4.191-2.683-6.962v-39.312c-.005-2.163-.456-4.891-.005-7.024z" fill="#262626"/><path d="m29.749 37.526c.021 0 .042-.007.063-.007.041.006.082.01.124.011 4.128-.223 7.759-3.242 7.8-7.585-.052-4.146-3.43-7.478-7.576-7.473-3.959-.02-7.319 2.899-7.851 6.822-.495 4.511 3.118 7.999 7.44 8.232zm.093-13.957c8.025.064 8.508 12.359.31 12.892-3.016-.099-5.588-2.215-6.266-5.155-.777-3.41 1.357-6.805 4.767-7.582.39-.089.789-.141 1.189-.155z" fill="#262626"/><path d="m13.605 37.983c.026-.014.038-.031.061-.045.055-.031.106-.069.151-.113.013-.012.032-.023.043-.035s.021-.015.029-.025c1.622-2.021.22-3.638-1.195-5.219h4.934c2.032 0 .786.323 1.631 2.2.631 1.403 1.538 2.663 2.668 3.707 1.103 1.095 2.447 1.917 3.924 2.4 1.455.338 1.24-.078 1.414 1.264.151 1.696.163 3.402.037 5.1-1.614-1.387-3.2-2.46-5.326-.844-.101.07-.18.169-.225.284-1.357 2.586 1.212 3.973 2.964 5.434 1.51 1.258 3.538 3.815 5.758 3.36 2.126-.435 4.21-3 5.8-4.324 1.709-1.424 3.593-3.2 1.416-5.166-.031-.045-.071-.082-.117-.11l-.014-.013c-.026-.016-.053-.03-.081-.04-.019-.013-.039-.024-.06-.034h-.018c-.04-.015-.082-.027-.125-.034-1.887-.555-3.214.425-4.537 1.589v-2.595c-.087-.984-.087-1.973 0-2.957.245-1.252-.32-.32.71-.768 4.009-1.744 6.777-4.2 7.937-8.453h6.06c-1.411 1.561-2.9 3.158-1.472 5.185.023.105.095.192.194.235.022.012.042.02.064.031s.034.018.052.025c2.224 1.123 3.54-.121 4.949-1.813 1.3-1.554 4.116-3.808 4.446-5.924s-2.7-4.564-3.889-5.987c-1.517-1.822-2.826-3.653-5.391-2.281-.026.014-.038.031-.061.045-.055.031-.105.069-.15.113-.013.012-.033.023-.044.035s-.022.015-.029.025c-1.622 2.021-.22 3.638 1.2 5.219h-4.941c-2.032 0-.786-.323-1.631-2.2-.631-1.403-1.538-2.663-2.668-3.707-1.103-1.095-2.447-1.917-3.924-2.4-1.455-.338-1.24.078-1.414-1.264-.151-1.696-.163-3.402-.037-5.1 1.614 1.386 3.2 2.46 5.326.844.101-.071.179-.169.225-.284 1.314-2.5-1.031-3.823-2.745-5.251-1.404-1.173-3.479-3.74-5.543-3.619-2.08.122-4.159 2.671-5.613 3.882-1.718 1.432-3.81 2.7-2.609 5.122.007.018.015.036.025.053.013.025.02.048.034.073.052.09.135.159.234.193 1.961 1.463 3.663.246 5.233-1.119v2.6c.087.984.087 1.973 0 2.957-.245 1.252.32.32-.71.768-4.009 1.744-6.777 4.2-7.937 8.453h-6.06c1.411-1.561 2.895-3.158 1.472-5.185-.023-.105-.095-.193-.194-.235-.022-.012-.042-.02-.064-.032l-.052-.025c-2.224-1.122-3.54.122-4.949 1.814-1.3 1.554-4.116 3.808-4.446 5.924s2.7 4.564 3.889 5.987c1.517 1.82 2.826 3.652 5.391 2.28zm-5.222-11.813c.809-.972 2.588-4.129 4.287-3.3 1.311 1.866-.991 3.689-2.009 4.909-.374.447.126.771.549.771h7.91c.369-.001.692-.246.795-.6.847-4.147 4.079-7.392 8.222-8.256.232-.053.6-.283.6-.564v-7.91c0-.607-.869-.586-1.219-.294-1.048.875-2.825 3.129-4.413 1.986-1.037-2.045 1.927-3.628 3.1-4.606 1.136-.947 2.811-3.133 4.52-2.419 1.019.651 1.951 1.428 2.775 2.313 1.219 1.016 4.324 2.732 3.415 4.821-1.531.944-3.37-1.352-4.359-2.177-.347-.29-1.291-.048-1.291.477v7.91c0 .306.221.429.488.49 4.226.902 7.508 4.234 8.347 8.473.065.291.421.352.664.352h7.91c.349 0 1.073-.449.722-.869-.936-1.123-3.369-3.08-2.157-4.85 1.712-.646 3.349 2.264 4.143 3.216.95.896 1.79 1.904 2.5 3 .846 1.91-1.208 3.524-2.261 4.787-.809.972-2.588 4.129-4.288 3.3-1.31-1.866.992-3.689 2.01-4.909.374-.447-.126-.771-.549-.771h-7.914c-.371-.001-.697.244-.8.6-.847 4.147-4.079 7.392-8.222 8.256-.232.053-.6.283-.6.564v7.91c0 .607.869.586 1.219.294 1-.832 2.519-2.731 4.012-2.33 2.133 1.893-1.7 4.12-2.7 4.95-1.136.946-2.811 3.133-4.52 2.419-1.017-.652-1.947-1.429-2.769-2.313-1.219-1.016-4.324-2.732-3.415-4.821 1.532-.944 3.37 1.352 4.359 2.177.347.29 1.291.048 1.291-.477v-7.91c0-.306-.221-.429-.488-.49-4.226-.902-7.508-4.234-8.347-8.473-.065-.291-.421-.352-.664-.352h-7.906c-.349 0-1.073.449-.722.869.936 1.122 3.369 3.08 2.157 4.85-1.712.646-3.349-2.264-4.143-3.217-.951-.896-1.79-1.903-2.5-3-.846-1.909 1.208-3.523 2.261-4.786z" fill="#262626"/></svg>