<svg id="Icons" height="512" viewBox="0 0 60 60" width="512" xmlns="http://www.w3.org/2000/svg"><path d="m8.783 21.321a.5.5 0 0 1 -.383-.821l1.33-1.61-2.28 1.317a.5.5 0 0 1 -.606-.783l1.987-2.024-2.519 1.456a.5.5 0 0 1 -.586-.8l2.174-1.979-1.478.854a.5.5 0 0 1 -.572-.816l1.065-.895-.411.237a.5.5 0 0 1 -.6-.788l2.473-2.451-1.753 1.009a.5.5 0 0 1 -.588-.8l1.65-1.514-.964.556a.5.5 0 0 1 -.574-.815l.6-.507a.5.5 0 0 1 -.563-.8l2.266-2.393-1.527.881a.5.5 0 0 1 -.583-.806l.8-.711-.141.082a.5.5 0 0 1 -.589-.8l.767-.707-.1.055a.5.5 0 0 1 -.68-.688l1.085-1.812a.5.5 0 0 1 -.5-.865l1.664-.961a.5.5 0 0 1 .607.078.5.5 0 0 1 .073.607l-1.079 1.811 2.329-1.345a.5.5 0 0 1 .589.8l-.768.708.458-.263a.5.5 0 0 1 .583.805l-.8.712.292-.168a.5.5 0 0 1 .613.777l-2.265 2.39 1.775-1.024a.5.5 0 0 1 .573.814l-.584.494.082-.047a.5.5 0 0 1 .588.8l-1.649 1.513 1.154-.665a.5.5 0 0 1 .6.788l-2.47 2.452 1.988-1.148a.5.5 0 0 1 .572.815l-1.067.9.573-.331a.5.5 0 0 1 .587.8l-2.171 1.976 1.687-.974a.5.5 0 0 1 .606.783l-1.987 2.02 1.49-.86a.5.5 0 0 1 .636.751l-1.33 1.609.8-.462a.5.5 0 1 1 .5.865l-3.2 1.848a.489.489 0 0 1 -.249.07z" fill="#b9bfcc"/><path d="m32.091 20.863a.5.5 0 0 1 -.367-.839l1.509-1.635-2.421 1.4a.5.5 0 0 1 -.578-.809l1.282-1.116-1.187.685a.5.5 0 0 1 -.587-.8l2.158-1.978-1.467.847a.5.5 0 0 1 -.572-.815l1.018-.856-.365.211a.5.5 0 0 1 -.563-.823l.393-.314a.5.5 0 0 1 -.335-.883l.683-.572-.036.021a.5.5 0 0 1 -.6-.788l2.154-2.127-1.435.828a.5.5 0 0 1 -.587-.8l1.291-1.175-.613.353a.5.5 0 0 1 -.607-.782l1.97-2.018-1.248.722a.5.5 0 0 1 -.605-.785l1.472-1.484-.765.442a.5.5 0 0 1 -.68-.688l1.09-1.84-.014.008a.5.5 0 0 1 -.5-.865l1.668-.966a.5.5 0 0 1 .68.688l-1.09 1.839 2.347-1.349a.5.5 0 0 1 .6.785l-1.466 1.478 1.16-.669a.5.5 0 0 1 .607.782l-1.969 2.015 1.471-.849a.5.5 0 0 1 .587.8l-1.292 1.179.792-.457a.5.5 0 0 1 .6.788l-2.151 2.127 1.662-.958a.5.5 0 0 1 .571.817l-.683.57.184-.105a.5.5 0 0 1 .562.823l-.3.241a.5.5 0 0 1 .374.88l-1.017.853.522-.3a.5.5 0 0 1 .587.8l-2.165 1.977 1.68-.97a.5.5 0 0 1 .578.81l-1.278 1.113.784-.452a.5.5 0 0 1 .617.771l-1.51 1.635 1-.574a.5.5 0 0 1 .5.865l-3.85 2.225a.489.489 0 0 1 -.25.063z" fill="#b9bfcc"/><path d="m14.475 41.471a.5.5 0 0 1 -.265-.924l.229-.144-1.733 1a.5.5 0 0 1 -.524-.85l11.5-7.54-14.533 8.387a.5.5 0 0 1 -.523-.85l14.8-9.687-18.226 10.526a.5.5 0 0 1 -.513-.858l6.458-4-7.289 4.205a.5.5 0 0 1 -.517-.854l13.428-8.527-13.487 7.787a.5.5 0 0 1 -.517-.855l10.944-6.949-10.427 6.019a.5.5 0 0 1 -.518-.854l8.861-5.649-8.343 4.817a.5.5 0 0 1 -.525-.85l10.7-7.067-10.176 5.872a.5.5 0 0 1 -.531-.847l9.515-6.46-8.984 5.187a.5.5 0 0 1 -.526-.85l4.672-3.095-4.146 2.392a.5.5 0 0 1 -.542-.838l6.537-4.715-5.995 3.461a.5.5 0 0 1 -.529-.847l.45-.3a.5.5 0 0 1 -.482-.861l3.8-3.024-3.239 1.871a.5.5 0 0 1 -.593-.8l2.449-2.321-1.856 1.07a.5.5 0 0 1 -.677-.692l.919-1.513a.5.5 0 0 1 -.446-.892l1.632-.943a.5.5 0 0 1 .678.693l-.915 1.507 3.83-2.209a.5.5 0 0 1 .594.8l-2.449 2.32 5.4-3.117a.5.5 0 0 1 .561.824l-3.8 3.023 6.665-3.85a.5.5 0 0 1 .529.847l-.354.238 1.88-1.085a.5.5 0 0 1 .542.838l-6.541 4.717 9.624-5.555a.5.5 0 0 1 .527.849l-4.667 3.093 6.829-3.942a.5.5 0 0 1 .531.846l-9.517 6.454 12.658-7.3a.5.5 0 0 1 .526.849l-10.692 7.063 13.708-7.912a.5.5 0 0 1 .519.854l-8.866 5.646 11.269-6.5a.5.5 0 0 1 .518.854l-10.942 6.946 13.477-7.78a.5.5 0 0 1 .518.855l-13.431 8.525 14.478-8.358a.5.5 0 0 1 .513.857l-6.447 4 5.957-3.439a.5.5 0 0 1 .523.85l-14.801 9.69 14.317-8.266a.5.5 0 0 1 .524.851l-11.508 7.54 11.019-6.362a.5.5 0 0 1 .515.857l-.412.258a.5.5 0 0 1 .435.893l-2.537 1.615 2.04-1.177a.5.5 0 0 1 .526.85l-5.156 3.4 4.658-2.689a.5.5 0 0 1 .536.843l-6.496 4.535 5.991-3.459a.5.5 0 0 1 .543.838l-4.927 3.573 4.417-2.549a.5.5 0 0 1 .549.833l-3.073 2.289 2.552-1.473a.5.5 0 0 1 .585.8l-2.849 2.574 2.3-1.327a.5.5 0 0 1 .613.775l-1.139 1.208.554-.319a.5.5 0 0 1 .73.572l-.3 1.052a.5.5 0 0 1 .1.911l-.617.356a.5.5 0 0 1 -.731-.572l.241-.83-2.439 1.4a.5.5 0 0 1 -.613-.775l1.136-1.2-3.423 1.975a.5.5 0 0 1 -.585-.8l2.849-2.575-5.853 3.375a.5.5 0 0 1 -.549-.833l3.08-2.3-5.423 3.133a.5.5 0 0 1 -.543-.838l4.924-3.562-7.627 4.4a.5.5 0 0 1 -.536-.842l6.5-4.542-9.328 5.384a.5.5 0 0 1 -.525-.85l5.156-3.4-7.357 4.25a.5.5 0 0 1 -.518-.854l2.535-1.609-4.275 2.463a.5.5 0 0 1 -.25.071z" fill="#9ea5b2"/><path d="m16.777 37.471a.5.5 0 0 1 -.269-.921l3.425-2.193-5.277 3.043a.5.5 0 0 1 -.521-.852l4.99-3.229-7.068 4.081a.5.5 0 0 1 -.523-.851l5.416-3.516-7.564 4.367a.5.5 0 0 1 -.526-.849l7.2-4.755-9.705 5.604a.5.5 0 0 1 -.529-.847l8.584-5.768-11.362 6.563a.5.5 0 0 1 -.527-.849l7.639-5.074-8.616 4.975a.5.5 0 0 1 -.524-.85l5.236-3.441-4.976 2.871a.5.5 0 0 1 -.54-.839l7.688-5.484-7.149 4.127a.5.5 0 0 1 -.547-.835l5.429-4-4.882 2.822a.5.5 0 0 1 -.571-.817l4.326-3.621-3.755 2.167a.5.5 0 0 1 -.609-.78l2.394-2.479-1.785 1.03a.5.5 0 0 1 -.662-.716l.739-1.072a.5.5 0 0 1 -.281-.931l1.632-.943a.5.5 0 0 1 .662.717l-.669.974 2.948-1.7a.5.5 0 0 1 .61.78l-2.4 2.479 5.653-3.262a.5.5 0 0 1 .571.816l-4.324 3.617 7.694-4.441a.5.5 0 0 1 .547.835l-5.428 4 8.373-4.834a.5.5 0 0 1 .54.84l-7.684 5.478 10.956-6.325a.5.5 0 0 1 .524.851l-5.236 3.44 7.437-4.293a.5.5 0 0 1 .526.85l-7.641 5.069 10.264-5.922a.5.5 0 0 1 .529.848l-8.589 5.774 11.469-6.621a.5.5 0 0 1 .525.85l-7.2 4.752 9.708-5.6a.5.5 0 0 1 .523.852l-5.419 3.517 7.571-4.371a.5.5 0 0 1 .522.853l-4.988 3.218 7.07-4.081a.5.5 0 0 1 .519.854l-3.424 2.191 5.274-3.044a.5.5 0 0 1 .527.849l-7.921 5.273 7.408-4.277a.5.5 0 0 1 .531.847l-6.417 4.349 5.9-3.406a.5.5 0 0 1 .548.834l-6.906 5.116 6.377-3.68a.5.5 0 0 1 .549.833l-4.034 3.016 3.5-2.019a.5.5 0 0 1 .573.814l-3.1 2.621 2.545-1.468a.5.5 0 0 1 .627.761l-1.748 2.01 1.137-.656a.5.5 0 0 1 .6.071.5.5 0 0 1 .1.592l-.4.771a.5.5 0 0 1 .218.933l-1.134.646a.5.5 0 0 1 -.694-.664l.328-.633-2.246 1.3a.5.5 0 0 1 -.627-.76l1.747-2.009-4.8 2.769a.5.5 0 0 1 -.573-.814l3.1-2.619-5.95 3.43a.5.5 0 0 1 -.549-.833l4.036-3.018-6.672 3.851a.5.5 0 0 1 -.548-.834l6.908-5.117-10.309 5.951a.5.5 0 0 1 -.531-.846l6.408-4.343-8.99 5.189a.5.5 0 0 1 -.527-.848l7.927-5.277-10.611 6.125a.5.5 0 0 1 -.25.071z" fill="#b9bfcc"/><path d="m21.389 33.393a.5.5 0 0 1 -.4-.8l1.058-1.429-2.655 1.536a.5.5 0 0 1 -.595-.8l1.154-1.1-1.417.818a.5.5 0 0 1 -.593-.8l.926-.872-.555.319a.5.5 0 0 1 -.612-.765l.769-.822a.5.5 0 0 1 -.036-.885l1.937-1.118a.5.5 0 0 1 .615.774l-.263.282 1.358-.784a.5.5 0 0 1 .593.8l-.924.871 1.352-.78a.5.5 0 0 1 .594.8l-1.155 1.1 1.089-.628a.5.5 0 0 1 .652.73l-1.085 1.465a.5.5 0 0 1 .375.917l-1.929 1.114a.49.49 0 0 1 -.253.057z" fill="#79808f"/><path d="m30.528 59.471a.5.5 0 0 1 -.266-.923l6.608-4.165-8.354 4.823a.5.5 0 0 1 -.523-.852l15.058-9.8-15.719 9.071a.5.5 0 0 1 -.512-.858l1.054-.648-.594.342a.5.5 0 0 1 -.513-.857l6.184-3.848-5.671 3.273a.5.5 0 0 1 -.514-.856l6.984-4.361-6.47 3.735a.5.5 0 0 1 -.513-.858l4.269-2.652-3.757 2.168a.5.5 0 0 1 -.515-.856l4.91-3.078-4.395 2.538a.5.5 0 0 1 -.527-.849l11.5-7.653-10.973 6.333a.5.5 0 0 1 -.527-.849l8.394-5.6-7.867 4.541a.5.5 0 0 1 -.54-.839l8.64-6.143-8.1 4.676a.5.5 0 0 1 -.524-.851l.509-.334a.5.5 0 0 1 -.541-.836l5.54-4.308-4.984 2.877a.5.5 0 0 1 -.55-.832l2.07-1.557-1.52.877a.5.5 0 0 1 -.575-.813l1.741-1.492-1.166.673a.5.5 0 0 1 -.683-.681l1-1.747-.023.013a.5.5 0 0 1 -.5-.865l1.627-.94a.5.5 0 0 1 .6.078.5.5 0 0 1 .081.6l-1 1.747 4.23-2.441a.5.5 0 0 1 .575.812l-1.736 1.494 3.991-2.3a.5.5 0 0 1 .551.832l-2.067 1.554 4.134-2.386a.5.5 0 0 1 .556.827l-5.542 4.31 8.9-5.137a.5.5 0 0 1 .524.85l-.5.328 2.042-1.178a.5.5 0 0 1 .54.84l-8.641 6.14 12.1-6.983a.5.5 0 0 1 .527.848l-8.393 5.6 11.165-6.445a.5.5 0 0 1 .527.848l-11.497 7.652 14.727-8.5a.5.5 0 0 1 .515.856l-4.915 3.079 6.576-3.795a.5.5 0 0 1 .513.858l-4.226 2.626 4.784-2.762a.5.5 0 0 1 .514.856l-7 4.372 6.866-3.963a.5.5 0 0 1 .513.857l-6.167 3.837 5.654-3.264a.5.5 0 0 1 .511.859l-1.063.654.552-.318a.5.5 0 0 1 .522.851l-15.064 9.806 14.542-8.4a.5.5 0 0 1 .516.856l-6.612 4.168 6.1-3.52a.5.5 0 0 1 .516.856l-4.41 2.782 3.894-2.248a.5.5 0 0 1 .516.855l-1.533.965 1.017-.587a.5.5 0 0 1 .522.852l-5.607 3.653 5.085-2.935a.5.5 0 0 1 .525.849l-4.521 2.985 3.992-2.3a.5.5 0 0 1 .522.852l-.8.52.278-.159a.5.5 0 0 1 .539.841l-4.61 3.265 4.071-2.349a.5.5 0 0 1 .541.839l-2.515 1.8 1.974-1.139a.5.5 0 0 1 .544.837l-.839.609.295-.17a.5.5 0 0 1 .576.812l-1.719 1.479 1.143-.659a.5.5 0 0 1 .676.692l-1 1.652.073-.042a.5.5 0 0 1 .5.865l-1.77 1.015a.5.5 0 0 1 -.677-.692l1.005-1.651-4.062 2.343a.5.5 0 0 1 -.576-.811l1.715-1.478-3.965 2.289a.5.5 0 0 1 -.544-.837l.841-.61-2.508 1.447a.5.5 0 0 1 -.541-.839l2.518-1.8-4.58 2.639a.5.5 0 0 1 -.539-.84l4.613-3.26-7.117 4.1a.5.5 0 0 1 -.522-.851l.8-.52-2.378 1.371a.5.5 0 0 1 -.526-.849l4.525-2.986-6.643 3.835a.5.5 0 0 1 -.522-.851l5.6-3.652-7.8 4.5a.5.5 0 0 1 -.516-.855l1.537-.967-3.153 1.825a.5.5 0 0 1 -.517-.855l4.4-2.777-6.29 3.632a.5.5 0 0 1 -.25.071z" fill="#d75a4a"/><path d="m42.112 34.351a.5.5 0 0 1 -.323-.881l3.611-3.062-5.437 3.139a.5.5 0 0 1 -.551-.832l3.47-2.609-4.282 2.47a.5.5 0 0 1 -.539-.84l2.316-1.645-2.635 1.52a.5.5 0 0 1 -.534-.843l1.142-.789-1.229.709a.5.5 0 0 1 -.542-.839l2.844-2.041-2.829 1.632a.5.5 0 0 1 -.556-.828l4.35-3.362-4.088 2.358a.5.5 0 0 1 -.568-.819l4.312-3.533-3.464 2a.5.5 0 0 1 -.569-.818l3.156-2.624-1.626.939a.5.5 0 0 1 -.589-.8l2.628-2.424-.074.042a.5.5 0 0 1 -.607-.783l2.785-2.827a.5.5 0 0 1 .23-.576l.847-.489a.5.5 0 0 1 .606.783l-1.162 1.179.771-.445a.5.5 0 0 1 .589.8l-2.625 2.425 2.813-1.624a.5.5 0 0 1 .569.817l-3.156 2.625 3.687-2.129a.5.5 0 0 1 .567.819l-4.314 3.535 5.216-3.011a.5.5 0 0 1 .556.828l-4.351 3.362 5.13-2.961a.5.5 0 0 1 .542.839l-2.842 2.04 3.177-1.834a.5.5 0 0 1 .534.844l-1.144.791 1.168-.674a.5.5 0 0 1 .539.84l-2.314 1.644 2.208-1.275a.5.5 0 0 1 .551.832l-3.47 2.609 3.086-1.782a.5.5 0 0 1 .574.814l-3.608 3.061 2.476-1.428a.5.5 0 0 1 .582.806l-1.591 1.411a.5.5 0 0 1 .073.9l-3.162 1.825a.5.5 0 0 1 -.582-.807l.9-.8-3 1.729a.493.493 0 0 1 -.242.067z" fill="#ec3a48"/><path d="m43.313 34.4a.5.5 0 0 1 -.36-.846l.081-.084-1.029.594a.5.5 0 0 1 -.614-.776l1.719-1.829-2.31 1.333a.5.5 0 0 1 -.576-.812l.891-.767-.717.414a.5.5 0 0 1 -.575-.814l.734-.623-.2.117a.5.5 0 0 1 -.624-.765l3.344-3.763a.5.5 0 0 1 .231-.571l.636-.367a.5.5 0 0 1 .624.765l-2.04 2.294 2.3-1.326a.5.5 0 0 1 .574.814l-.73.62.559-.322a.5.5 0 0 1 .577.811l-.892.768.633-.365a.5.5 0 0 1 .614.775l-1.722 1.825 1.152-.664a.5.5 0 0 1 .61.779l-.75.78a.486.486 0 0 1 .165.172.5.5 0 0 1 -.182.683l-1.873 1.081a.489.489 0 0 1 -.25.069z" fill="#fccb55"/><g fill="#262626"><path d="m24.724 29.806c-.24-4.455-7.461-3.782-7.448.388.014 4.506 7.224 3.727 7.448-.388zm-3.03-2.221a3 3 0 0 1 1.582 2.609c-.085 1.564-1.405 3.13-3.108 2.15a2.951 2.951 0 0 1 -1.444-2.538c.001-1.514 1.384-3.03 2.97-2.221z"/><path d="m59.724 37.464c-.123-2.751-.729-3.683-3.532-3.852-2.289-.139-4.6-.143-6.915-.114a1.047 1.047 0 0 0 -.285 0q-1.429.02-2.856.05a7.207 7.207 0 0 0 4.56-7.193c-.39-5.1-6.646-6.327-6.972-11.55-.028-.453-1.137-.043-1.3.1a27.9 27.9 0 0 0 -3.854 4.095 4.911 4.911 0 0 0 -1.865-.552l-.597-10.748c-.122-2.179.558-7.165-2.844-7.165a.77.77 0 0 0 -.146.025 1.08 1.08 0 0 0 -.235.016c-3.525.685-2.839 4.6-3 7.393q-.291 5.247-.583 10.492h-11.711c-1.613 0-3.249-.052-4.889-.091q-.3-5.5-.611-11c-.128-2.3.504-6.86-2.989-6.738-3.643.127-3.048 4.528-3.187 7.035l-.6 10.855c-2.463.348-3.013 1.642-3.044 4.278a2.576 2.576 0 0 0 -1.719 1.285c-1.25 2.229-.659 8.315-.274 10.623.283 1.7.956 2.289 2 2.516 0 2.166-.023 3.535 2.311 4.087 1.88.444 4.456 0 6.365 0h15.248c-.041 3.942.081 7.9.081 11.834 0 2.75-.708 5.633 2.621 6.243 4.606.846 10.142 0 14.814 0h4.715a.936.936 0 0 0 1.012 0h7.274c.015 0 .033-.006.048-.007a1.211 1.211 0 0 0 .33-.045c3.324-.9 2.634-3.722 2.634-6.579-.005-5.081.224-10.218-.005-15.293zm-2.713 21.148h-7.276v-4.339h3.593c.2.314.856.256 1.2 0h4a.527.527 0 0 0 .068-.011c-.111 2.146-.52 3.953-1.585 4.35zm-19.328-4.885c-.117-.154-.56-.138-.924 0h-4.035v-4.283h3.77a1.012 1.012 0 0 0 .8 0h4.979v4.283zm-10.207 0a.749.749 0 0 0 -.131.02c0-1.411.148-2.929.262-4.3h3.669v4.283zm-.01-13.038h-.1c-.014-.445-.015-.882-.008-1.316h3.913v4.11h-3.75c-.061-.82-.112-1.65-.145-2.476.29-.158.453-.318.09-.318zm13.44-11.376c.474-1.254 1.768-2.335 2.862-3.369a12.749 12.749 0 0 1 1.357 3.468c.24 1.18.176 3.405-1.118 4.092-.194.033-.391.062-.6.084h-.31c-.107-.01-.206-.029-.311-.043a3.374 3.374 0 0 1 -1.88-4.232zm-3.173 19.243v-4.039h10.536v4.039zm-10.06 0c.03-.45.051-.881.051-1.267 0-.853-.057-1.794-.127-2.772h8.67v4.039zm8.962-9.183h.124 5.512v4.11h-5a1.057 1.057 0 0 0 -.292 0h-4.248v-4.11zm13.1 5.144h8.63c-.049.63-.085 1.206-.085 1.686 0 .438.073 1.3.152 2.353h-4a1.058 1.058 0 0 0 -.567 0h-4.134zm8.76 4.927c.09 1.328.164 2.85.125 4.283h-3.89v-4.283zm-.046-5.961h-3.725v-4.11h3.9a37.473 37.473 0 0 1 -.179 4.11zm-5.169 0h-9.551v-4.11h4.7a.969.969 0 0 0 .973 0h3.879zm-5.008-4.856h-4.712a1.012 1.012 0 0 0 -.892 0h-4.944v-4.239h10.544zm-11.992 0h-3.711a.985.985 0 0 0 -.937 0h-4.255a13.557 13.557 0 0 1 .187-1.627c.122-.125.155-.245.063-.323.035-.164.055-.339.1-.5.778-2.9 4.957-1.8 7.375-1.8h1.177zm7.448 10.817h4.822a1.048 1.048 0 0 0 .651 0h4.069v4.283h-3.593c-.2-.384-.939-.325-1.257 0h-4.7zm13.742-14.153a5.546 5.546 0 0 1 1.116 3.336h-8.854v-4.289c2.575-.174 6.231-.669 7.738.953zm-15.062-19.091c.474 2.441 2.053 3.792 3.966 5.549 3.555 3.263 3.928 9.362-.724 11.3a3.593 3.593 0 0 0 .683-.965c1.145-2.361-.365-5.245-1.528-7.277-.189-.33-1.2.034-1.381.247-1.28 1.519-3.8 3.085-4.114 5.177a3.544 3.544 0 0 0 .367 2.219c-3.335-2.241-3.4-7.2-1.306-10.979.238-.429.51-.844.779-1.26a.56.56 0 0 0 .234-.379 24.336 24.336 0 0 1 3.024-3.632zm-11.215-5.631c.09-1.613-.63-8.233 1.714-9.07 2.414.377 1.834 8.081 1.9 9.339q.21 3.771.419 7.543c-.831.015-1.666.081-2.439.081h-2.033q.221-3.946.439-7.893zm-24.007-.025c.03-.535-.275-10.481 2.593-8.692 1.564.975.936 7.246 1.013 8.633q.217 3.928.436 7.857c-1.5-.024-3-.015-4.479.067q.219-3.933.437-7.865zm1.34 8.994h22.641c1.177 0 2.8-.227 4.271-.128a.8.8 0 0 0 .477.046 4.283 4.283 0 0 1 1.878.644 17.5 17.5 0 0 0 -1.387 2.494h-20.606c-3.725 0-7.5-.167-11.219 0-.276.013-.556.02-.836.03.107-3.409 1.899-3.086 4.781-3.086zm-6.286 4.631c1.228-1.411 4.082-.763 5.965-.763h27.849a12.988 12.988 0 0 0 -.434 1.34 7.31 7.31 0 0 0 3.965 8.834c-3.384-.106-6.986-.434-10.25.032-2.231.318-2.789 1.338-2.974 2.982h-17.725c-2.6 0-6.087.9-6.912-2.274-.507-1.953-.803-8.635.516-10.151zm12.35 16.52c-3.872 0-10.347 1.578-10.82-3.314.232.01.472.019.725.031 7.235.327 14.553.014 21.8 0q-.012.216-.021.444c-.04.944-.053 1.89-.067 2.837zm13.134 16.057a8.459 8.459 0 0 1 -.372-2.473h3.974a1.086 1.086 0 0 0 .784 0h4.166v4.339h-.165c-2.411 0-7.332 1.143-8.387-1.866zm10 1.866v-4.339h4.6c.117.14.535.125.892 0h5.054v4.339z"/><path d="m13.721 29.9c.028-.524-1.419-.223-1.442.206-.078 1.452-1.128 2.991-2.79 2.36a2.885 2.885 0 0 1 -1.765-2.657c-.021-.395-1.476-.119-1.448.388.241 4.484 7.224 3.903 7.445-.297z"/><path d="m10.724 28.806v-2c0-.3-1.448-.078-1.448.388v2c0 .306 1.448.078 1.448-.388z"/></g></svg>