<svg id="Icons" height="512" viewBox="0 0 60 60" width="512" xmlns="http://www.w3.org/2000/svg"><path d="m29.116 59.254a.5.5 0 0 1 -.278-.915l10.534-7.06-11.756 6.787a.5.5 0 0 1 -.519-.853l7.174-4.6-7.962 4.6a.5.5 0 0 1 -.523-.852l10.981-7.134-12.043 6.952a.5.5 0 0 1 -.52-.854l10.296-6.595-11.246 6.491a.5.5 0 0 1 -.517-.856l8.8-5.559-9.609 5.548a.5.5 0 0 1 -.521-.854l13.38-8.586-14.5 8.37a.5.5 0 0 1 -.519-.853l14.3-9.141-15.44 8.91a.5.5 0 0 1 -.513-.857l6.685-4.133-7.334 4.233a.5.5 0 0 1 -.519-.854l16.57-10.563-17.801 10.274a.5.5 0 0 1 -.513-.859l8.861-5.472-9.578 5.531a.5.5 0 0 1 -.512-.857l10.906-6.75-11.7 6.754a.5.5 0 0 1 -.512-.858l9.226-5.672-9.934 5.735a.5.5 0 0 1 -.51-.861l3.369-2.047-3.861 2.229a.5.5 0 0 1 -.511-.86l9.409-5.762-9.931 5.733a.5.5 0 0 1 -.512-.858l13.3-8.189-13.737 7.929a.5.5 0 0 1 -.514-.857l17.391-10.788-17.712 10.225a.5.5 0 0 1 -.513-.858l16.287-10.057-16.322 9.424a.5.5 0 0 1 -.515-.857l20.529-12.798-20.307 11.727a.5.5 0 0 1 -.515-.857l20.564-12.81-20.069 11.586a.5.5 0 0 1 -.515-.856l22.1-13.838-21.585 12.463a.5.5 0 0 1 -.512-.859l15.367-9.471-14.855 8.576a.5.5 0 0 1 -.516-.856l20.693-13.029-20.177 11.648a.5.5 0 0 1 -.513-.857l14.2-8.814-13.687 7.9a.5.5 0 0 1 -.677-.174.5.5 0 0 1 .16-.682l17.609-11.146-17.092 9.867a.5.5 0 0 1 -.512-.858l8.2-5.069-7.69 4.44a.5.5 0 0 1 -.512-.858l7.25-4.488-6.736 3.89a.5.5 0 0 1 -.517-.856l12.094-7.652-11.577 6.684a.5.5 0 0 1 -.516-.856l9.716-6.137-9.2 5.312a.5.5 0 0 1 -.514-.857l4.588-2.862-4.074 2.349a.5.5 0 0 1 -.524-.851l12.649-8.32-12.125 7a.5.5 0 0 1 -.519-.854l6.756-4.322-6.237 3.6a.5.5 0 0 1 -.527-.849l9.74-6.5-9.213 5.324a.5.5 0 0 1 -.537-.841l6.428-4.513-5.891 3.4a.5.5 0 0 1 -.549-.833l2.874-2.141-2.325 1.337a.5.5 0 0 1 -.638-.749l1.149-1.415a.5.5 0 0 1 -.435-.9l2.267-1.305a.5.5 0 0 1 .639.748l-1.139 1.4 7.324-4.226a.5.5 0 0 1 .553.833l-2.877 2.147 8.325-4.807a.5.5 0 0 1 .537.842l-6.428 4.514 12.806-7.394a.5.5 0 0 1 .528.849l-9.74 6.5 11.856-6.847a.5.5 0 0 1 .519.853l-6.744 4.32 8.011-4.625a.5.5 0 0 1 .524.85l-12.653 8.319 14.591-8.424a.5.5 0 0 1 .515.856l-4.593 2.866 5.628-3.249a.5.5 0 0 1 .516.855l-9.721 6.137 11.111-6.412a.5.5 0 0 1 .518.855l-12.1 7.655 13.651-7.883a.5.5 0 0 1 .513.857l-7.244 4.487 8.382-4.839a.5.5 0 0 1 .512.859l-8.2 5.069 9.378-5.414a.5.5 0 0 1 .518.856l-17.6 11.142 19.499-11.262a.5.5 0 0 1 .514.858l-14.215 8.825 15.711-9.07a.5.5 0 0 1 .516.855l-20.682 13.023 22.361-12.91a.5.5 0 0 1 .513.858l-15.365 9.471 15.677-9.052a.5.5 0 0 1 .516.856l-22.107 13.841 21.743-12.553a.5.5 0 0 1 .514.858l-20.568 12.811 20.054-11.578a.5.5 0 0 1 .514.857l-20.529 12.795 20.015-11.553a.5.5 0 0 1 .512.858l-16.289 10.058 15.777-9.109a.5.5 0 0 1 .513.858l-17.38 10.782 16.867-9.738a.5.5 0 0 1 .511.858l-13.31 8.2 12.8-7.389a.5.5 0 0 1 .51.859l-9.39 5.752 8.88-5.127a.5.5 0 0 1 .509.861l-3.386 2.058 2.877-1.661a.5.5 0 0 1 .511.858l-9.222 5.671 8.711-5.029a.5.5 0 0 1 .512.857l-10.916 6.753 10.4-6.005a.5.5 0 0 1 .512.859l-8.844 5.463 8.332-4.811a.5.5 0 0 1 .518.855l-16.571 10.562 16.056-9.265a.5.5 0 0 1 .512.857l-6.659 4.121 6.147-3.549a.5.5 0 0 1 .519.854l-14.311 9.149 13.792-7.962a.5.5 0 0 1 .52.854l-13.377 8.584 12.857-7.422a.5.5 0 0 1 .516.855l-8.795 5.558 8.279-4.779a.5.5 0 0 1 .519.853l-10.293 6.592 9.774-5.642a.5.5 0 0 1 .522.852l-10.986 7.14 10.259-5.92a.5.5 0 0 1 .519.853l-7.165 4.59 5.966-3.443a.5.5 0 0 1 .528.847l-10.532 7.059 2.688-1.552a.5.5 0 0 1 .5.865l-15.653 9.038a.5.5 0 0 1 -.25.067z" fill="#cddcea"/><path d="m29.266 54.6a.5.5 0 0 1 -.276-.917l5.33-3.517-6.1 3.522a.5.5 0 0 1 -.518-.855l.922-.586-1.386.8a.5.5 0 0 1 -.53-.847l10.409-7.05-11.659 6.732a.5.5 0 0 1 -.523-.852l8.606-5.624-9.554 5.516a.5.5 0 0 1 -.515-.857l1.273-.8-1.745 1.012a.5.5 0 0 1 -.52-.853l8.443-5.424-9.309 5.374a.5.5 0 0 1 -.519-.853l9.194-5.885-10.082 5.82a.5.5 0 0 1 -.514-.857l1.707-1.059-2.192 1.266a.5.5 0 0 1 -.523-.852l14.577-9.506-15.877 9.167a.5.5 0 0 1 -.521-.852l14.671-9.457-15.89 9.173a.5.5 0 0 1 -.516-.856l10.419-6.535-11.265 6.5a.5.5 0 0 1 -.513-.858l8.715-5.416-9.415 5.44a.5.5 0 0 1 -.513-.858l8.526-5.279-8.909 5.144a.5.5 0 0 1 -.511-.86l3.151-1.926-3.16 1.825a.5.5 0 0 1 -.511-.859l7.3-4.5-7.122 4.112a.5.5 0 0 1 -.518-.855l18.497-11.775-18.02 10.404a.5.5 0 0 1 -.516-.855l15.9-10.016-15.384 8.884a.5.5 0 0 1 -.517-.855l17.464-11.068-16.947 9.783a.5.5 0 0 1 -.51-.859l2.265-1.382-1.755 1.014a.5.5 0 0 1 -.515-.857l11.835-7.406-11.32 6.537a.5.5 0 0 1 -.514-.857l8.785-5.475-8.271 4.775a.5.5 0 0 1 -.515-.856l9.206-5.777-8.691 5.016a.5.5 0 0 1 -.514-.856l5.781-3.608-5.267 3.04a.5.5 0 0 1 -.517-.855l7.813-4.941-7.3 4.211a.5.5 0 0 1 -.525-.849l12.483-8.253-11.958 6.9a.5.5 0 0 1 -.516-.855l2.986-1.883-2.47 1.426a.5.5 0 0 1 -.515-.857l.8-.505-.287.166a.5.5 0 0 1 -.531-.845l9.841-6.7-9.31 5.374a.5.5 0 0 1 -.521-.853l2.707-1.75-2.18 1.262a.5.5 0 0 1 -.544-.837l5.5-4-4.956 2.865a.5.5 0 0 1 -.576-.811l2.444-2.1-1.868 1.075a.5.5 0 0 1 -.655-.725l.408-.566a.5.5 0 0 1 -.382-.247.5.5 0 0 1 .183-.683l1.586-.913a.5.5 0 0 1 .621.1.5.5 0 0 1 .034.628l-.275.372 4.469-2.58a.5.5 0 0 1 .577.811l-2.445 2.1 8.599-4.96a.5.5 0 0 1 .544.837l-5.5 4 11.163-6.447a.5.5 0 0 1 .522.852l-2.707 1.749 3.706-2.138a.5.5 0 0 1 .531.845l-9.84 6.7 11.774-6.8a.5.5 0 0 1 .516.856l-.792.5 1.632-.941a.5.5 0 0 1 .516.855l-2.993 1.891 3.966-2.29a.5.5 0 0 1 .525.849l-12.483 8.253 14.451-8.342a.5.5 0 0 1 .518.855l-7.813 4.945 9.093-5.25a.5.5 0 0 1 .515.85l-5.8 3.617 6.9-3.981a.5.5 0 0 1 .516.856l-9.189 5.767 10.506-6.059a.5.5 0 0 1 .515.858l-8.792 5.473 10.04-5.8a.5.5 0 0 1 .516.857l-11.848 7.412 13.181-7.6a.5.5 0 0 1 .51.859l-2.229 1.354 2.05-1.182a.5.5 0 0 1 .517.854l-17.464 11.069 16.947-9.785a.5.5 0 0 1 .516.856l-15.903 10.015 15.387-8.883a.5.5 0 0 1 .518.854l-18.498 11.781 17.98-10.38a.5.5 0 0 1 .511.858l-7.313 4.5 6.8-3.927a.5.5 0 0 1 .51.859l-3.173 1.941 2.663-1.537a.5.5 0 0 1 .513.857l-8.508 5.268 7.995-4.615a.5.5 0 0 1 .513.857l-8.7 5.4 8.185-4.724a.5.5 0 0 1 .515.856l-10.444 6.559 9.933-5.734a.5.5 0 0 1 .52.853l-14.656 9.447 14.136-8.161a.5.5 0 0 1 .523.852l-14.581 9.508 14.058-8.116a.5.5 0 0 1 .513.858l-1.706 1.057 1.193-.688a.5.5 0 0 1 .519.853l-9.194 5.885 8.675-5.008a.5.5 0 0 1 .52.854l-8.454 5.43 7.934-4.581a.5.5 0 0 1 .515.857l-1.276.8.761-.44a.5.5 0 0 1 .523.852l-8.6 5.621 8.077-4.663a.5.5 0 0 1 .53.847l-10.406 7.042 9.856-5.689a.5.5 0 0 1 .518.854l-.93.591.08-.046a.5.5 0 0 1 .526.85l-6.8 4.483a.5.5 0 0 1 .181.928l-12.76 7.368a.5.5 0 0 1 -.249.072z" fill="#184759"/><g fill="#8feeff"><path d="m23.047 37.221a.5.5 0 0 1 -.412-.783l.964-1.4-1.287.742a.5.5 0 0 1 -.635-.751l.469-.568a.5.5 0 0 1 -.081-.9l1.658-.956a.5.5 0 0 1 .635.751l-.146.176.8-.463a.5.5 0 0 1 .662.716l-.964 1.4 1-.579a.5.5 0 0 1 .5.865l-2.91 1.682a.49.49 0 0 1 -.253.068z"/><path d="m18.028 32.468a.5.5 0 0 1 -.433-.748l.761-1.33-1.8 1.039a.5.5 0 0 1 -.686-.678l.773-1.374-.078.044a.5.5 0 0 1 -.5-.865l1.658-.956a.5.5 0 0 1 .685.677l-.772 1.373 1.825-1.05a.5.5 0 0 1 .684.68l-.761 1.329.05-.028a.5.5 0 0 1 .5.865l-1.656.956a.49.49 0 0 1 -.25.066z"/><path d="m21.906 26.133a.5.5 0 0 1 -.4-.8l.874-1.152-1.067.615a.5.5 0 0 1 -.636-.749l.476-.583a.489.489 0 0 1 -.272-.224.5.5 0 0 1 .182-.682l1.658-.956a.5.5 0 0 1 .636.749l-.172.211.84-.485a.5.5 0 0 1 .649.735l-.874 1.149.907-.523a.5.5 0 1 1 .5.865l-3.054 1.762a.49.49 0 0 1 -.247.068z"/><path d="m29.216 30.3a.5.5 0 0 1 -.426-.762l1-1.632-1.485.857a.5.5 0 0 1 -.635-.753l.464-.556a.492.492 0 0 1 -.255-.218.5.5 0 0 1 .182-.682l1.658-.956a.5.5 0 0 1 .634.753l-.122.145.769-.441a.5.5 0 0 1 .608.084.5.5 0 0 1 .068.61l-1 1.632 1.025-.592a.5.5 0 1 1 .5.865l-2.736 1.58a.49.49 0 0 1 -.249.066z"/><path d="m29.279 20.328a.5.5 0 0 1 -.425-.764l.988-1.587-1.513.873a.5.5 0 0 1 -.642-.744l.5-.633a.5.5 0 0 1 -.125-.917l1.658-.956a.5.5 0 0 1 .641.743l-.26.327.967-.558a.5.5 0 0 1 .675.7l-.985 1.588.939-.542a.5.5 0 1 1 .5.866l-2.668 1.54a.489.489 0 0 1 -.25.064z"/><path d="m41.906 32.463a.5.5 0 0 1 -.442-.733l.854-1.629-1.882 1.087a.5.5 0 0 1 -.668-.708l.659-1a.5.5 0 0 1 -.362-.92l1.658-.956a.5.5 0 0 1 .613.089.5.5 0 0 1 .055.618l-.632.963 1.554-.9a.5.5 0 0 1 .693.665l-.855 1.63.354-.2a.5.5 0 0 1 .5.865l-1.849 1.066a.5.5 0 0 1 -.25.063z"/><path d="m36.132 26.266a.5.5 0 0 1 -.379-.828l.556-.642-.835.481a.5.5 0 0 1 -.675-.7l.7-1.128a.5.5 0 0 1 -.617-.215.5.5 0 0 1 .182-.682l1.658-.956a.5.5 0 0 1 .674.7l-.696 1.117 1.666-.962a.5.5 0 0 1 .629.76l-.557.644.268-.154a.5.5 0 1 1 .5.865l-2.824 1.634a.49.49 0 0 1 -.25.066z"/><path d="m35.018 37.2a.5.5 0 0 1 -.385-.819l.7-.841-.937.541a.5.5 0 0 1 -.661-.719l.614-.877a.5.5 0 0 1 -.28-.931l1.658-.956a.5.5 0 0 1 .66.718l-.54.773 1.395-.806a.5.5 0 0 1 .635.752l-.7.84.542-.313a.5.5 0 0 1 .5.866l-2.952 1.7a.491.491 0 0 1 -.249.072z"/></g><path d="m53.724 9.9c-.472-4.9-17.483-6.84-22.119-9.074-8.094.677-16.6 4.192-24.247 6.985-2.799 8.236-.258 18.309-1.084 27.129-.274 4.51-.161 9.742 4.152 12.388 5.988 2.67 15.033 12.743 21.1 11.519 6.8-5.191 15.567-8.451 21.048-15.066 2.749-10.844.439-22.696 1.15-33.881zm-1.448 29.58c-1.334 10.257-14.723 12.858-21.62 19.027-7.045-3.23-14.139-8.55-20.6-13.175-4.881-7.995-1.28-18.61-2.333-27.61.577-3.217-1.478-8.072 1.52-10.222 21.557-7.177 19.436-7.184 41.032.018 4.36 1.682 1.011 26.071 2.001 31.961z" fill="#262626"/><path d="m49.726 11.606c-1.6-3.14-14.855-5.048-18.979-6.9a116.527 116.527 0 0 0 -20.229 6.22c.266 6.465-2.5 30.592 2.2 33.15 19.445 11.286 11.9 15.2 31.607 1.729 4.021-1.8 6.222-5.269 5.4-9.7-.112-8.161.261-16.348.001-24.499zm-18.872 7.535a.969.969 0 0 1 -1.533.008 1.922 1.922 0 0 1 -.57-1.649c.279-1.515 2.092-1.07 2.441.157a1.647 1.647 0 0 1 -.338 1.484zm-7.448 14.249c2.573-.767 2.843 2.941 1.176 3.23-1.87.325-2.505-2.294-1.176-3.23zm5.832-6.682c1.105-.838 2.434.866 1.934 1.983-.858 2.094-3.366-.339-2.119-1.791-.06.078.131-.147.185-.192zm6.871 9.852a1.738 1.738 0 0 1 -1.009-2.76 1.171 1.171 0 0 1 1.483-.07 1.762 1.762 0 0 1 .11 2.666.79.79 0 0 1 -.584.164zm-.279-.067c-.07-.02-.021-.008 0 0zm9.864 7.344-1.97 1.285c.538-12.034-2.194-8.082-1.448.945l-5.552 3.622v-12.413c2.778-.586 2.512-4.764-.449-4.711-3.007-.285-4.3 4.254-1 4.81v13.259c-1.588 1.063-3.007 1.874-4.552 3.084v-23.377c2.859-.639 2.451-4.973-.556-4.815-3.007-.251-4.09 4.33-.892 4.907v22.986c-1.5-1.029-3.036-1.982-4.552-2.987v-13.31c2.648-.5 2.582-4.437-.256-4.424-3-.411-4.659 4.06-1.192 4.585v12.2l-5.552-3.622c.773-8.979-1.857-12.646-1.448-.945-6.261-2.473-4.275-9.207-4.549-14.516h3.564c.321 2.582 4.256 2.313 5.229.33 1.363-3.424-4.3-4.039-5.151-1.138h-3.642c.054-6.114-.1-12.3.046-18.374 1.093-.961 3.12-.987 4.5-1.6 1.041 4.31-3.125 15.823 4.026 14.845.406 2.514 4.253 2.2 5.221.261 1.355-3.4-4.232-4-5.134-1.175-5.086.678-1.762-11-2.655-14.374l5.547-1.689c-.656 14.278 2.157 12.212 1.448-.442 1.519-.451 3.028-.944 4.552-1.373v10.044c-2.78.581-2.511 4.779.451 4.729 3.011.29 4.3-4.264 1-4.824v-9.884c1.5.5 3.029.99 4.552 1.439-.758 12.536 2.026 14.334 1.448.441l5.552 1.69c-.826 3.2 2.435 15.369-2.56 14.354-.338-3.269-5.915-2.32-5.417.837.477 2.729 4.8 2.35 5.371-.133 7.131.5 3.038-10.236 4.054-14.617 1.278.456 2.685.675 3.93 1.2 1.739 5.5.054 12.6.62 18.583h-3.592c-.518-3.257-5.933-2.184-5.383 1 .479 2.7 4.767 2.475 5.341-.051h3.63c-.543 4.394 1.739 10.432-2.58 13.358zm-28.153-15.537c-.033.017.04-.008.03 0a1.891 1.891 0 0 1 .943 3.38c-.013.014-.091.024-.057.032a1.882 1.882 0 0 1 -.916-3.412zm5-6.014c.033 0 .206.018.192.016a1.916 1.916 0 0 1 .786 3.388c-1.707.141-2.481-2.548-.979-3.409zm.946 3.438c.028-.017.043-.024-.001-.005zm13.92-.146c-1.368.151-2.17-1.746-1.333-2.754.006-.094.543-.431.375-.335 1.412-.435 2.471 1.792 1.472 2.808a1.076 1.076 0 0 1 -.515.276zm5.355 5.718c-1.105.837-2.433-.864-1.933-1.981.858-2.093 3.366.337 2.119 1.789.059-.083-.132.143-.187.187z" fill="#262626"/></svg>