<svg height="506pt" viewBox="0 -1 506.8529 506" width="506pt" xmlns="http://www.w3.org/2000/svg"><path d="m387.753906 249.679688c-1.441406 0-2.785156-.722657-3.574218-1.929688-.789063-1.203125-.917969-2.726562-.34375-4.042969l4.71875-10.992187-27.304688 15.761718c-1.882812 1.109376-4.300781.617188-5.597656-1.140624-1.300782-1.757813-1.0625-4.214844.554687-5.6875l7.679688-7.152344-11.265625 6.503906c-1.882813 1.144531-4.332032.667969-5.644532-1.105469-1.3125-1.769531-1.058593-4.25.585938-5.722656l11.03125-10.382813-14.914062 8.609376c-1.816407.960937-4.054688.492187-5.335938-1.113282-1.277344-1.605468-1.230469-3.894531.113281-5.449218l18.464844-19.625-26.394531 15.230468c-1.902344 1.089844-4.320313.5625-5.59375-1.222656-1.273438-1.785156-.988282-4.246094.664062-5.6875l11.75-10.242188-16.71875 9.652344c-1.917968 1.109375-4.367187.558594-5.632812-1.257812-1.265625-1.820313-.929688-4.308594.777344-5.722656l10.328124-8.535157-14.890624 8.59375c-1.90625 1.109375-4.339844.585938-5.621094-1.203125-1.28125-1.792968-.988282-4.265625.679687-5.707031l17.40625-15.105469-24.082031 13.902344c-1.898438 1.074219-4.304688.539062-5.570312-1.242188-1.269532-1.777343-.988282-4.226562.648437-5.671874l20.128906-17.390626-27.542969 15.914063c-1.933593 1.082031-4.371093.507813-5.617187-1.324219-1.242187-1.828125-.878906-4.308594.835937-5.707031l13.808594-10.9375-19.378906 11.1875c-1.921875 1.09375-4.359375.535156-5.621094-1.28125-1.257812-1.816406-.917968-4.296875.78125-5.707031l21.050782-17.265625-28.472657 16.425781c-1.921875 1.125-4.378906.585938-5.652343-1.238281-1.273438-1.820313-.9375-4.316407.777343-5.730469l25.769531-21.460938-34.488281 19.914063c-1.945312 1.117187-4.421875.539063-5.671875-1.324219-1.246094-1.863281-.839844-4.375.933594-5.75l18.535156-14.265625-25.054687 14.453125c-1.949219 1.082032-4.40625.476563-5.628907-1.386718-1.226562-1.863282-.8125-4.355469.953126-5.71875l15.214843-11.375-20.992187 12.117187c-1.957032 1.136719-4.464844.546875-5.710938-1.34375-1.242187-1.890625-.792968-4.425781 1.027344-5.773437l16.519531-12.253907-22.535156 13.003907c-1.964844 1.101562-4.445313.484374-5.667969-1.40625-1.226562-1.890626-.769531-4.40625 1.042969-5.746094l10-7.210938-15.035156 8.664063c-1.953125 1.117187-4.4375.527343-5.679688-1.347657-1.242187-1.875-.8125-4.390624.976563-5.753906l23.628906-17.824218-31 17.917968c-1.925781 1.085938-4.359375.519532-5.613281-1.300781-1.25-1.820313-.902344-4.296875.800781-5.703125l36.28125-29.414062-47.238281 27.304687c-1.957031 1.074219-4.410157.460937-5.628907-1.40625s-.792968-4.359375.976563-5.71875l21.855469-16.09375-28.757813 16.597656c-1.945312 1.117188-4.421875.535157-5.671875-1.328125-1.246094-1.863281-.839844-4.375.933594-5.746094l32.597656-25.0625-41.863281 24.167969c-1.960937 1.074219-4.421875.453125-5.636719-1.425781-1.214844-1.882812-.769531-4.382812 1.019532-5.726562l17.066406-12.21875-23.132813 13.34375c-1.972656 1.078124-4.445312.441406-5.648437-1.460938-1.203125-1.898438-.726563-4.40625 1.089844-5.730469l3.644531-2.519531-8.046875 4.644531c-1.949219 1.117188-4.433594.527344-5.675782-1.347656-1.242187-1.875-.816406-4.390625.976563-5.753906l29.292969-22.023438-37.625 21.707031c-1.921875 1.085938-4.359375.523438-5.609375-1.300781-1.25-1.820312-.90625-4.296875.796875-5.703125l37.753906-30.542968-45.816406 26.453124c-1.949219 1.097657-4.414063.5-5.648438-1.367187-1.230468-1.863281-.816406-4.367187.953125-5.730469l22.640625-17.066406-15.1875 8.761719c-1.921875 1.125-4.378906.585937-5.652344-1.238281-1.273437-1.820313-.9375-4.316407.777344-5.730469l18.664063-15.523438-15.898438 9.171875c-1.835937 1.0625-4.171875.613282-5.484375-1.050781-1.316406-1.664063-1.207031-4.039063.253906-5.578125l14.804688-15.609375-13.457031 7.765625c-1.714844.992188-3.886719.671875-5.242188-.769531-1.355469-1.441407-1.542969-3.628907-.449219-5.277344l5.734376-8.65625c-1.757813.296875-3.511719-.53125-4.402344-2.070313-1.175782-2.039062-.480469-4.640624 1.550781-5.820312l13.996094-8.089844c1.714843-.992187 3.886719-.671875 5.242187.769532 1.355469 1.441406 1.542969 3.628906.449219 5.28125l-5.417969 8.164062 23.253906-13.398438c1.835938-1.058593 4.175782-.609374 5.488282 1.058594 1.3125 1.667969 1.199218 4.046875-.265625 5.582032l-14.78125 15.582031 33.648437-19.429688c1.921875-1.152343 4.40625-.621093 5.691406 1.21875 1.28125 1.835938.925782 4.351563-.820312 5.761719l-18.671875 15.53125 32.0625-18.511719c1.949219-1.117187 4.433594-.527343 5.675781 1.347657 1.242188 1.875.816406 4.394531-.976562 5.753906l-22.636719 17.066406 32.894531-18.996094c1.929688-1.109375 4.386719-.550781 5.648438 1.285156 1.257812 1.835938.894531 4.328126-.835938 5.730469l-37.777344 30.550781 51.429688-29.679687c1.953125-1.121094 4.4375-.53125 5.679688 1.34375 1.242187 1.875.816406 4.394531-.976563 5.753906l-29.335937 22.035157 38.074218-21.984376c1.980469-1.117187 4.488282-.484374 5.703125 1.433594 1.214844 1.921875.710938 4.460938-1.144531 5.769532l-3.609375 2.492187 8.070313-4.652344c1.949218-1 4.339843-.359375 5.53125 1.476563 1.1875 1.839844.796874 4.28125-.914063 5.652344l-17.066406 12.234374 21.894531-12.644531c1.945312-1.117187 4.421875-.539062 5.671875 1.324219 1.246094 1.863281.839844 4.375-.933594 5.75l-32.625 25.09375 40.109375-23.148438c1.960938-1.132812 4.464844-.535156 5.707032 1.359376 1.238281 1.898437.777343 4.433593-1.050782 5.773437l-21.894531 16.066406 26.871094-15.496093c1.925781-1.082032 4.359375-.519532 5.609375 1.300781 1.253906 1.824219.90625 4.296875-.796875 5.707031l-36.265625 29.378906 44.160156-25.496094c1.957031-1.160156 4.476562-.578124 5.730469 1.316407 1.253906 1.898437.800781 4.445312-1.03125 5.792969l-23.636719 17.824218 28.355469-16.367187c1.964843-1.101563 4.449219-.484375 5.671875 1.40625s.765625 4.40625-1.046875 5.746093l-9.957031 7.175782 12.730468-7.339844c1.957032-1.109375 4.441406-.511719 5.675782 1.367188 1.234374 1.878906.800781 4.398437-.996094 5.75l-16.488282 12.261718 19.832032-11.449218c1.953125-1.105469 4.425781-.507813 5.660156 1.367187 1.234375 1.871094.808594 4.378906-.976562 5.738281l-15.222657 11.386719 18.21875-10.550781c1.945313-1.113282 4.421875-.535156 5.667969 1.328125 1.25 1.863281.839844 4.375-.933594 5.746093l-18.523437 14.261719 21.929687-12.65625c1.914063-1.097656 4.351563-.554687 5.617188 1.257813 1.265625 1.808594.941406 4.28125-.746094 5.707031l-25.761719 21.46875 30.507813-17.613281c1.925781-1.140625 4.40625-.601563 5.683594 1.242187 1.273437 1.839844.910156 4.355469-.835938 5.753907l-21.0625 17.273437 24.75-14.257813c1.929688-1.082031 4.367188-.507812 5.613281 1.324219 1.242188 1.828125.878907 4.308594-.835937 5.707031l-13.808594 10.9375 15.984375-9.222656c1.902344-1.074218 4.304687-.539062 5.574219 1.238282 1.265625 1.777343.984375 4.226562-.652344 5.671874l-20.144531 17.375 23.617187-13.652343c1.902344-1.09375 4.324219-.5625 5.597656 1.222656 1.273438 1.785156.988282 4.242187-.664062 5.6875l-17.382812 15.097656 19.839843-11.460937c1.917969-1.105469 4.363281-.558594 5.628907 1.257812 1.265624 1.8125.933593 4.292969-.765626 5.710938l-10.375 8.621094 11.683594-6.742188c1.902344-1.089844 4.320313-.5625 5.59375 1.222656 1.273438 1.785156.988282 4.246094-.664062 5.691406l-11.757813 10.238282 13.132813-7.578125c1.835937-1.074219 4.179687-.632813 5.5 1.03125 1.320312 1.667969 1.214844 4.050781-.25 5.589843l-18.46875 19.628907 21.53125-12.425781c1.882812-1.144532 4.332031-.667969 5.644531 1.105468 1.3125 1.769532 1.058594 4.25-.585937 5.722656l-11.03125 10.390626 12.097656-7.105469c1.882812-1.109375 4.300781-.617188 5.597656 1.140625 1.300781 1.757812 1.0625 4.210937-.554688 5.683594l-7.679687 7.136718 5.804687-3.347656c1.589844-.914062 3.589844-.707031 4.960938.511719s1.808594 3.179687 1.089844 4.867187l-4.730469 11.007813c2.066406-1.011719 4.5625-.207031 5.644531 1.824219 1.078125 2.027343.359375 4.550781-1.632812 5.699218l-10.863282 6.265625c-.636718.375-1.359374.582031-2.097656.597657zm0 0" fill="#424852"/><path d="m268.105469 503.273438c-1.773438 0-3.363281-1.097657-3.992188-2.757813-.628906-1.660156-.160156-3.535156 1.167969-4.710937l7.679688-6.824219-21.867188 12.636719c-1.921875 1.121093-4.378906.582031-5.652344-1.238282-1.273437-1.824218-.9375-4.316406.777344-5.734375l24.535156-20.417969-32.890625 18.992188c-1.953125 1.113281-4.4375.515625-5.671875-1.363281-1.234375-1.882813-.800781-4.398438.996094-5.753907l19.933594-14.769531-22.671875 13.082031c-1.949219 1.109376-4.421875.519532-5.664063-1.347656-1.242187-1.867187-.824218-4.378906.953125-5.742187l37.019531-28.066407-40.515624 23.386719c-1.976563 1.078125-4.449219.441407-5.652344-1.460937-1.203125-1.898438-.722656-4.40625 1.09375-5.730469l15.566406-10.753906-16.496094 9.507812c-1.988281 1.148438-4.53125.519531-5.75-1.425781-1.222656-1.949219-.679687-4.515625 1.226563-5.800781l13.046875-8.84375-13.40625 7.734375c-1.957032 1.066406-4.410156.445312-5.621094-1.429688-1.214844-1.871094-.777344-4.363281.996094-5.714844l51.765625-37.339843-54.699219 31.570312c-1.980469 1.121094-4.488281.488281-5.703125-1.433593-1.214844-1.921876-.710937-4.457032 1.144531-5.765626l45.476563-31.445312-46.933594 27.109375c-1.972656 1.105469-4.464844.484375-5.683594-1.421875-1.21875-1.902344-.742187-4.429688 1.09375-5.753906l65.542969-46.140625-68.265625 39.40625c-1.984375 1.132812-4.507813.503906-5.726563-1.425781-1.21875-1.933594-.699218-4.484376 1.175782-5.785157l65.347656-44.996093-67.257812 38.828124c-1.980469 1.117188-4.488282.484376-5.703126-1.433593-1.214843-1.921875-.710937-4.460938 1.144532-5.769531l78.148437-53.894532-80.554687 46.503906c-1.984375 1.152344-4.527344.527344-5.753906-1.417968-1.222657-1.945313-.683594-4.507813 1.214843-5.800782l82.152344-55.902343-84.199219 48.640625c-1.992187 1.15625-4.542968.519531-5.761718-1.433594-1.214844-1.953125-.664063-4.519531 1.246093-5.800781l84.660157-56.910157-86.492188 49.917969c-2 1.160157-4.554688.519531-5.769531-1.445312-1.214844-1.960938-.648438-4.535157 1.28125-5.804688l69.339843-45.910156-70.21875 40.566406c-1.980468 1.0625-4.445312.40625-5.636718-1.496093-1.1875-1.90625-.699219-4.40625 1.121094-5.722657l79.992187-54.015625-81.496094 47.050782c-1.984375 1.085937-4.472656.429687-5.667969-1.492188-1.191406-1.921875-.679687-4.441406 1.171876-5.742188l66.21875-44.101562-67.105469 38.742188c-2.039063 1.160156-4.632813.457031-5.804688-1.574219s-.484375-4.628907 1.539063-5.816407l182.75-105.539062c1.992187-1.132812 4.523437-.488281 5.734375 1.457031 1.207031 1.949219.660156 4.503907-1.238281 5.789063l-66.183594 44.082031 71.046875-41.027344c1.984375-1.101562 4.484375-.453125 5.6875 1.472657 1.203125 1.921874.6875 4.453124-1.171875 5.753906l-80.035156 54.03125 85.777343-49.492188c1.996094-1.15625 4.554688-.515625 5.769531 1.445313 1.214844 1.964843.644532 4.539062-1.28125 5.808593l-69.339843 45.875 73.980469-42.667968c1.988281-1.132813 4.515624-.496094 5.730468 1.445312 1.214844 1.9375.683594 4.492188-1.207031 5.785156l-84.691406 56.933594 75.878906-43.800781c1.980469-1.101563 4.476563-.464844 5.683594 1.453125s.703125 4.445312-1.144531 5.757812l-82.125 55.890626 72.789062-42.027344c1.980469-1.117188 4.488281-.484375 5.703125 1.4375 1.214844 1.917968.710937 4.457031-1.148437 5.765625l-78.171876 53.914062 68.734376-39.746093c1.988281-1.179688 4.550781-.5625 5.785156 1.390624 1.230468 1.949219.6875 4.53125-1.226563 5.816407l-65.332031 44.957031 56.320312-32.503906c1.972657-1.109375 4.464844-.484375 5.683594 1.417968 1.21875 1.90625.738282 4.429688-1.09375 5.757813l-65.527344 46.191406 56.167969-32.425781c1.980469-1.15625 4.519531-.535156 5.75 1.402344 1.226563 1.9375.703125 4.496094-1.183593 5.796875l-45.492188 31.445312 37-21.332031c1.964844-1.101562 4.445312-.484375 5.667969 1.40625 1.222656 1.890625.765625 4.40625-1.042969 5.746094l-51.804688 37.332031 42.664063-24.617187c1.992187-1.183594 4.5625-.558594 5.792969 1.402343 1.226562 1.960938.667968 4.546875-1.261719 5.824219l-13.027344 8.824219 5.578125-3.21875c1.984375-1.152344 4.523438-.535157 5.75 1.402343 1.226563 1.9375.707032 4.5-1.183594 5.800782l-15.515624 10.707031 7.921874-4.5625c1.949219-1.109375 4.421876-.523437 5.664063 1.347656 1.242187 1.867188.824219 4.375-.953125 5.742188l-37.035156 28.074219 27.996094-16.160157c1.957031-1.113281 4.441406-.515625 5.675781 1.363281 1.234375 1.882813.796875 4.398438-1 5.753907l-19.914063 14.785156 11.808594-6.824219c1.914062-1.082031 4.335938-.53125 5.59375 1.273438 1.257812 1.800781.941406 4.261718-.730469 5.6875l-24.542969 20.402344 15.445313-8.914063c1.898437-1.082031 4.300781-.558594 5.578125 1.210937 1.273438 1.773438 1.007812 4.21875-.617188 5.675782l-7.808593 6.902344c1.996093-.9375 4.378906-.199219 5.496093 1.707031 1.179688 2.039062.484376 4.644531-1.554687 5.828125l-36.367187 21.007812c-.648438.382813-1.382813.582032-2.136719.582032zm0 0" fill="#937661"/><path d="m143.5625 69.871094c-1.761719.003906-3.34375-1.078125-3.980469-2.71875-.640625-1.640625-.203125-3.507813 1.097657-4.695313l10.53125-9.625-.667969.375c-1.808594 1.035157-4.101563.613281-5.421875-.996093-1.320313-1.613282-1.285156-3.945313.089844-5.515626l13.191406-14.992187-2.746094 1.585937c-1.753906 1-3.960938.632813-5.300781-.871093-1.339844-1.507813-1.441407-3.742188-.246094-5.367188l9.054687-12.148437c-1.222656-.824219-1.933593-2.21875-1.882812-3.691406.054688-1.472657.859375-2.8125 2.136719-3.546876l9.796875-5.65625c1.75-.996093 3.960937-.632812 5.300781.871094 1.335937 1.507813 1.441406 3.742188.246094 5.367188l-5.4375 7.304687 7.289062-4.207031c1.804688-1.027344 4.089844-.601562 5.40625 1.003906 1.316407 1.605469 1.285157 3.925782-.074219 5.496094l-13.175781 14.984375 12.023438-6.9375c1.882812-1.0625 4.257812-.550781 5.539062 1.1875 1.277344 1.742187 1.054688 4.164063-.519531 5.640625l-10.539062 9.652344 8.941406-5.121094c2.027344-1.058594 4.527344-.335938 5.671875 1.644531s.527343 4.511719-1.402344 5.738281l-42.789063 24.746094c-.652343.351563-1.390624.523438-2.132812.492188zm0 0" fill="#937661"/><path d="m57.136719 415.8125c-1.734375-.003906-3.292969-1.054688-3.945313-2.660156-.648437-1.609375-.265625-3.449219.976563-4.660156l5.332031-5.1875-15.308594 8.832031c-1.910156 1.089843-4.335937.546875-5.601562-1.25-1.265625-1.800781-.957032-4.265625.714844-5.695313l23.398437-19.730468-31.269531 18.046874c-2.011719 1.222657-4.636719.582032-5.859375-1.433593-1.222657-2.011719-.582031-4.636719 1.433593-5.859375l129.039063-82.042969-136.53125 78.839844c-2 1.070312-4.484375.394531-5.660156-1.542969-1.175781-1.933594-.636719-4.453125 1.230469-5.734375l143.316406-91.851563-147.625 85.210938c-2.007813 1.105469-4.523438.429688-5.707032-1.53125-1.183593-1.957031-.613281-4.5 1.292969-5.761719l106.113281-66.714843-104.105468 60.101562c-2.011719 1.175781-4.59375.523438-5.804688-1.464844-1.210937-1.988281-.601562-4.578125 1.367188-5.824218l137.863281-88.636719-128.621094 74.242187c-2 1.097656-4.511719.429688-5.699219-1.519531-1.191406-1.949219-.632812-4.488281 1.261719-5.761719l119.363281-76.585937-103.375 59.699219c-2.003906 1.121093-4.535156.453124-5.726562-1.507813s-.617188-4.515625 1.300781-5.78125l96.5625-61.941406-83.746093 48.375c-1.996094 1.097656-4.5.4375-5.695313-1.503907-1.191406-1.941406-.648437-4.472656 1.230469-5.757812l97.023437-63.148438-86.03125 49.699219c-1.988281 1.085938-4.472656.429688-5.667969-1.492187-1.195312-1.921875-.679687-4.441406 1.171876-5.742188l103.515624-69.070312-94.609374 54.613281c-1.996094 1.117187-4.523438.457031-5.71875-1.496094-1.195313-1.953125-.636719-4.5 1.265624-5.773437l59.734376-38.671875-53.929688 31.085937c-1.988281 1.082032-4.476562.429688-5.671875-1.492187-1.191406-1.921875-.679687-4.445313 1.171875-5.746094l77.945312-52.050781-74 42.714844c-1.300781.800781-2.925781.847656-4.269531.121093-1.339843-.726562-2.191406-2.113281-2.234375-3.636719-.042968-1.523437.730469-2.953124 2.03125-3.753906l45.773438-29.816406-42.882813 24.75c-1.992187 1.097656-4.5.433594-5.691406-1.503906-1.191406-1.941406-.652344-4.476563 1.230469-5.757813l40.730468-26.625-38.308593 22.1875c-1.992188 1.113281-4.511719.460938-5.710938-1.484375-1.203125-1.941406-.65625-4.488281 1.230469-5.769531l45.332031-29.945313-43.09375 24.875c-1.996093 1.097657-4.5.4375-5.695312-1.503906-1.191407-1.9375-.648438-4.472656 1.230469-5.757812l28.492187-18.601563-25.46875 14.667969c-1.992187 1.265625-4.628906.679688-5.894531-1.308594-1.265625-1.988281-.679688-4.628906 1.308594-5.894531l71.886718-49.84375-66.636718 38.480469c-1.988282 1.132812-4.515626.496094-5.730469-1.445313-1.214844-1.941406-.679688-4.492187 1.207031-5.785156l54.511719-36.871094-43.476563 25.054688c-1.957031 1.125-4.449218.539062-5.695312-1.347657-1.242188-1.882812-.804688-4.40625 1-5.761718l24.234375-18.132813-5.160157 2.976563c-1.925781 1.105468-4.378906.546875-5.636718-1.28125-1.261719-1.828125-.90625-4.320313.8125-5.722656l12.800781-10.351563c-1.589844.3125-3.21875-.300781-4.207031-1.585937-1.300782-1.695313-1.148438-4.09375.359375-5.609376l13.472656-13.601562-15.972656 9.214844c-1.816407 1.039062-4.117188.601562-5.433594-1.023438-1.3125-1.628906-1.253906-3.96875.144531-5.527344l16.160156-17.777343-18.117187 10.445312c-1.851563 1.082031-4.222656.621094-5.53125-1.082031-1.308594-1.699219-1.152344-4.109375.371094-5.625l10.453125-10.4375-9.660156 5.574219c-1.867188 1.105469-4.265626.636719-5.578126-1.09375-1.308593-1.730469-1.113281-4.167969.457032-5.664063l5.4375-5.257812-2.953125 1.707031c-1.753907 1.003906-3.972657.636719-5.3125-.875-1.339844-1.511719-1.433594-3.757813-.226563-5.378906l9.089844-12.050781-4.011719 2.320312c-1.714843.984375-3.878906.664062-5.230469-.773438-1.355468-1.4375-1.546874-3.617187-.460937-5.265624l4.625-7c-1.425781-.683594-2.355469-2.097657-2.417969-3.675782s.753906-3.0625 2.117188-3.855468l9.386718-5.4375c1.714844-.984376 3.878907-.664063 5.230469.773437 1.355469 1.4375 1.546875 3.617187.460938 5.269531l-2.328125 3.53125 6.417968-3.710937c1.753907-1.015625 3.980469-.652344 5.324219.863281s1.4375 3.769531.222657 5.390625l-9.054688 12.066406 14.8125-8.535156c1.867188-1.105469 4.269531-.632813 5.578125 1.09375 1.308594 1.730469 1.113281 4.167969-.457031 5.667969l-5.46875 5.238281 7.867187-4.539063c1.847657-1.019531 4.164063-.527343 5.445313 1.148438 1.28125 1.679688 1.140625 4.042969-.324219 5.558594l-10.429687 10.417968 13.652343-7.875c1.820313-1.046874 4.132813-.617187 5.449219 1.019532 1.320312 1.632812 1.253906 3.984375-.15625 5.542968l-16.121094 17.773438 19.941406-11.511719c1.851563-1.066406 4.207032-.601562 5.511719 1.09375 1.304688 1.691407 1.15625 4.085938-.347656 5.605469l-13.5 13.617188 16.84375-9.726563c1.929687-1.105469 4.378906-.546875 5.636719 1.28125 1.261718 1.832031.90625 4.320313-.8125 5.726563l-11.65625 9.445312 20.238281-11.683594c1.957031-1.128906 4.449219-.539062 5.695313 1.34375 1.242187 1.886719.804687 4.410156-1 5.765625l-24.210938 18.125 84.480469-48.792969c1.988281-1.132812 4.515625-.496093 5.730469 1.441407 1.214843 1.941406.679687 4.492187-1.207032 5.785156l-54.511718 36.914063 52.90625-30.515626c1.976562-1.101562 4.472656-.472656 5.683593 1.441407 1.214844 1.910156.722657 4.4375-1.117187 5.753906l-71.902344 49.835937 70.953125-40.960937c2.003906-1.164063 4.570313-.519531 5.78125 1.457031 1.214844 1.972656.628906 4.554688-1.316406 5.8125l-28.484375 18.59375 31.316406-18.074218c1.992188-1.097657 4.492188-.441407 5.691406 1.488281 1.195313 1.933593.667969 4.464843-1.203125 5.757812l-45.226562 29.867188 50.152343-28.945313c1.992188-1.097656 4.5-.4375 5.691407 1.503906 1.195312 1.941407.652343 4.472657-1.230469 5.757813l-40.761719 26.605469 45.0625-26.015625c1.996094-1.097657 4.503907-.4375 5.695313 1.503906 1.191406 1.9375.648437 4.472656-1.230469 5.757813l-45.832031 29.867187 50.199218-29.015625c1.988282-1.082031 4.476563-.429688 5.667969 1.492188 1.195313 1.921874.683594 4.445312-1.167969 5.746093l-77.886718 52.050781 84.636718-48.867187c2-1.140625 4.546876-.484375 5.75 1.480469 1.203126 1.96875.625 4.535156-1.304687 5.796875l-59.734375 38.679687 64.382812-37.160156c1.988282-1.085938 4.476563-.429688 5.667969 1.492188 1.195313 1.921874.683594 4.441406-1.171875 5.742187l-103.515625 69.121094 111.488281-64.359375c1.992188-1.066406 4.472657-.398438 5.652344 1.53125 1.183594 1.925781.65625 4.441406-1.199218 5.730468l-97.015626 63.148438 103.304688-59.632812c1.996094-1.066407 4.480469-.390626 5.660156 1.546874 1.175782 1.933594.636719 4.453126-1.230468 5.734376l-96.597657 61.941406 102.304688-59.066406c2.011719-1.175782 4.59375-.527344 5.804687 1.460937 1.210938 1.988281.601563 4.582031-1.367187 5.828125l-119.335938 76.515625 125.824219-72.625c2-1.140625 4.546875-.484375 5.75 1.484375 1.203125 1.964844.625 4.53125-1.304688 5.792969l-137.960937 88.671875 145.179687-83.816406c2.007813-1.125 4.550782-.453126 5.738282 1.519531 1.191406 1.972656.597656 4.535156-1.335938 5.785156l-106.050781 66.679687 111-64.078124c2-1.097657 4.511719-.429688 5.699219 1.519531s.632812 4.488281-1.261719 5.761719l-143.273437 91.851562 150.1875-86.742188c2.003906-1.121093 4.535156-.453124 5.726562 1.507813 1.191406 1.964844.617188 4.519531-1.300781 5.78125l-223.121094 141.859375c.746094 1.722656.273437 3.734375-1.160156 4.949219l-23.398438 19.746093 3.363281-1.945312c1.863282-1.089844 4.246094-.617188 5.550782 1.101562 1.304687 1.722657 1.121094 4.144532-.429688 5.644532l-13.550781 13.160156c.382813.316406.703125.699219.945313 1.136719 1.179687 2.039062.480468 4.648437-1.5625 5.828125l-16.597657 9.589844c-.644531.378906-1.382812.578124-2.132812.570312zm0 0" fill="#937661"/><path d="m149.390625 196.710938c-1.613281 0-3.09375-.910157-3.816406-2.355469-.722657-1.449219-.566407-3.175781.402343-4.46875l4.875-6.597657-11.589843 6.683594c-1.621094.929688-3.660157.699219-5.03125-.574218-1.371094-1.273438-1.75-3.289063-.941407-4.972657l7.132813-14.753906-4 2.3125c-2.027344 1.058594-4.527344.332031-5.671875-1.648437-1.144531-1.976563-.523438-4.507813 1.402344-5.734376l16.011718-9.214843c1.621094-.933594 3.660157-.703125 5.03125.570312 1.367188 1.273438 1.75 3.289063.941407 4.976563l-7.132813 14.753906 17.269532-9.96875c1.75-1 3.957031-.640625 5.300781.859375 1.339843 1.5 1.453125 3.734375.261719 5.363281l-5.230469 7.097656c2.042969-.375 4.058593.769532 4.777343 2.714844.71875 1.945313-.0625 4.128906-1.859374 5.171875l-15.980469 9.222657c-.652344.378906-1.398438.574218-2.152344.5625zm0 0" fill="#fff"/><path d="m373.554688 504.046875c-1.835938 0-3.46875-1.171875-4.046876-2.914063-.582031-1.742187.015626-3.664062 1.484376-4.765624l57.3125-42.085938-80.257813 46.335938c-1.988281 1.15625-4.53125.527343-5.753906-1.417969-1.222657-1.945313-.683594-4.507813 1.214843-5.800781l60.210938-41.191407-74.332031 42.90625c-1.992188 1.070313-4.472657.398438-5.65625-1.527343-1.183594-1.925782-.65625-4.441407 1.199219-5.734376l34.765624-22.570312-42.035156 24.269531c-1.996094 1.136719-4.535156.484375-5.742187-1.472656-1.203125-1.957031-.644531-4.515625 1.269531-5.789063l61.195312-40.234374-69.855468 40.328124c-1.996094 1.136719-4.535156.484376-5.742188-1.472656-1.203125-1.957031-.644531-4.515625 1.269532-5.789062l73.25-48.179688-80.773438 46.636719c-1.992188 1.097656-4.492188.441406-5.691406-1.488281-1.195313-1.933594-.667969-4.464844 1.203125-5.757813l90.921875-60.441406-97.914063 56.515625c-2 1.101562-4.507812.429688-5.699219-1.519531-1.1875-1.945313-.628906-4.484375 1.261719-5.757813l61.742188-39.714844-64.855469 37.441407c-2.003906 1.089843-4.511719.40625-5.6875-1.550781-1.175781-1.953126-.605469-4.488282 1.292969-5.753907l3.492187-2.183593-4.335937 2.5c-1.992188 1.136718-4.527344.492187-5.734375-1.457032-1.210938-1.949218-.664063-4.503906 1.238281-5.785156l101.835937-67.859375-105.257812 60.765625c-2.019531 1.222656-4.644531.574219-5.863281-1.441406-1.222657-2.015625-.574219-4.640625 1.441406-5.863282l36.285156-22.953124-36.464843 21.050781c-1.996094 1.25-4.628907.640625-5.878907-1.355469-1.25-2-.640625-4.632812 1.355469-5.878906l103.125-69.34375-103.472656 59.734375c-1.992188 1.070312-4.472656.398437-5.65625-1.527344-1.183594-1.929687-.65625-4.445313 1.199218-5.734375l65.589844-42.605469-63.445312 36.625c-2.003906 1.117188-4.535156.453125-5.730469-1.511719-1.191406-1.960937-.617187-4.515624 1.300781-5.777343l27.238282-17.324219-23.832032 13.757812c-1.984375 1.113282-4.496094.476563-5.707031-1.453124-1.210937-1.925782-.695313-4.464844 1.175781-5.765626l83.769532-56.996093-78.839844 45.515625c-1.992188 1.15625-4.539063.523437-5.757813-1.429688-1.21875-1.957031-.667969-4.523437 1.246094-5.804687l56.761719-38.058594-49.023438 28.289063c-1.988281 1.132812-4.515625.496093-5.730468-1.445313-1.210938-1.9375-.679688-4.492187 1.207031-5.785156l40.105469-26.996094-30.375 17.5c-1.960938 1.105469-4.445313.5-5.671876-1.386719-1.230468-1.882812-.785156-4.398437 1.019532-5.746094l45.96875-33.605468-28.347656 16.382812c-1.9375 1.117188-4.410157.546875-5.664063-1.304687-1.253906-1.851563-.863281-4.359375.894531-5.742188l23.894532-18.773437c-.882813-.351563-1.621094-.992188-2.09375-1.816406-1.179688-2.039063-.484376-4.648438 1.554687-5.828126l39.210937-22.632812c1.9375-1.113281 4.410157-.546875 5.664063 1.308594 1.25 1.851562.863281 4.355468-.894531 5.742187l-14.78125 11.621094 44.851562-25.890625c1.960938-1.105469 4.445313-.5 5.671875 1.386719 1.230469 1.886719.78125 4.402343-1.019531 5.746093l-45.976562 33.621094 68.265624-39.421875c1.992188-1.15625 4.539063-.519531 5.757813 1.433594s.667969 4.519531-1.242187 5.800781l-39.996094 26.949219 52.65625-30.394531c1.984375-1.074219 4.460937-.417969 5.652344 1.496094 1.191406 1.914062.691406 4.421874-1.144532 5.730468l-56.78125 38.066406 68.761719-39.6875c1.984375-1.117187 4.496094-.476562 5.703125 1.449219 1.210938 1.929688.695312 4.46875-1.171875 5.769531l-83.789063 56.976563 95.667969-55.226563c2.003907-1.121093 4.535157-.453124 5.726563 1.507813 1.191406 1.964844.617187 4.515625-1.296875 5.78125l-27.308594 17.382813 31.667969-18.273438c1.992187-1.066406 4.472656-.398438 5.652344 1.53125 1.183593 1.925781.65625 4.441406-1.199219 5.730469l-65.527344 42.589843 71.46875-41.257812c1.996094-1.246094 4.628906-.640625 5.878906 1.359375 1.246094 1.996094.640625 4.628906-1.359375 5.878906l-103.148437 69.339844 110.15625-63.597656c2.003906-1.101563 4.523437-.425781 5.707031 1.53125s.613281 4.5-1.296875 5.765625l-36.308594 22.980468 38.519531-22.246093c1.996094-1.1875 4.574219-.558594 5.800782 1.414062 1.226562 1.972657.652344 4.5625-1.292969 5.828125l-101.777344 67.832032 105.101563-60.679688c2.007812-1.085938 4.515625-.402344 5.691406 1.550781 1.175781 1.957031.605469 4.488281-1.292969 5.753907l-3.652343 2.253906 3.351562-1.9375c2.007812-1.179688 4.589844-.527344 5.800781 1.460937 1.210938 1.988281.605469 4.582031-1.363281 5.824219l-61.738281 39.699219 60.960937-35.191407c1.992188-1.132812 4.527344-.492187 5.734375 1.457032 1.210938 1.949218.664063 4.503906-1.238281 5.785156l-90.886719 60.417969 90.453125-52.214844c1.992188-1.085937 4.480469-.421875 5.671875 1.507813 1.1875 1.929687.664063 4.453124-1.199219 5.746093l-73.242187 48.246094 70.304687-40.59375c2-1.136719 4.539063-.484375 5.742188 1.472656 1.207031 1.957031.644531 4.515625-1.269531 5.789063l-61.183594 40.21875 56.695313-32.726563c2-1.117187 4.523437-.457031 5.71875 1.496094 1.195312 1.953125.636718 4.5-1.265626 5.773437l-34.816406 22.589844 29.015625-16.75c1.980469-1.101562 4.476563-.464844 5.683594 1.453125s.703125 4.445313-1.144531 5.757813l-60.160156 41.164062 50.773437-29.320312c1.960937-1.136719 4.46875-.535156 5.707031 1.359375 1.238282 1.898437.777344 4.433593-1.046875 5.773437l-57.320312 42.09375 41.175781-23.78125c1.957031-1.140625 4.460938-.550781 5.707031 1.339844 1.246094 1.894531.796875 4.429688-1.023437 5.777344l-20.832032 15.496094c2.0625-.523438 4.195313.554687 5 2.523437.804688 1.972656.03125 4.230469-1.808593 5.300781l-61.523438 35.515625c-1.957031 1.140625-4.464843.550781-5.710937-1.339843-1.246094-1.894532-.792969-4.429688 1.027344-5.777344l19.726562-14.652344-44.671875 25.789062c-.652344.382813-1.394531.578126-2.148437.570313zm0 0" fill="#e2ac40"/><path d="m361.941406 468.78125c-1.871094 0-3.519531-1.21875-4.074218-3.003906-.554688-1.785156.117187-3.71875 1.65625-4.78125l12-8.25-22.1875 12.800781c-1.953126 1.085937-4.417969.480469-5.644532-1.386719-1.226562-1.871094-.800781-4.371094.976563-5.730468l58.640625-43.425782-73.554688 42.460938c-1.984375 1.140625-4.511718.515625-5.734375-1.417969-1.230469-1.9375-.703125-4.503906 1.191407-5.800781l44.996093-30.769532-52.519531 30.308594c-1.992188 1.15625-4.542969.519532-5.761719-1.433594-1.21875-1.953124-.667969-4.519531 1.246094-5.800781l43.914063-29.542969-48.640626 28.074219c-1.984374 1.132813-4.507812.503907-5.726562-1.429687-1.21875-1.929688-.699219-4.480469 1.175781-5.78125l62.523438-43.035156-67.574219 39.015624c-1.984375 1.097657-4.484375.453126-5.683594-1.472656-1.203125-1.925781-.6875-4.453125 1.171875-5.753906l53.554688-36.15625-56.058594 32.359375c-1.996094 1.132813-4.535156.484375-5.738281-1.472656-1.207032-1.957031-.644532-4.519531 1.269531-5.792969l31.382813-20.613281-31 17.917969c-2.007813 1.230468-4.636719.597656-5.867188-1.410157-1.230469-2.011719-.597656-4.636719 1.414062-5.867187l9.085938-5.863282-7.746094 4.464844c-1.984375 1.132813-4.507812.503906-5.726562-1.429687-1.21875-1.933594-.699219-4.480469 1.175781-5.78125l54.539063-37.402344-52.351563 30.207031c-1.984375 1.117188-4.496094.476563-5.707031-1.449218-1.210938-1.929688-.691406-4.46875 1.175781-5.769532l39.824219-27.066406-36.035156 20.800781c-1.96875 1.113281-4.460938.5-5.6875-1.402343-1.222657-1.898438-.753907-4.421876 1.070312-5.753907l49.253906-35.3125-42.582031 24.574219c-1.972656 1.160156-4.507813.554688-5.746094-1.367188-1.238281-1.921874-.742187-4.480468 1.128907-5.800781l28.007812-19.992187-17.230469 9.941406c-1.875 1.007812-4.207031.476562-5.460937-1.242188-1.257813-1.722656-1.050782-4.105468.476562-5.585937l26.214844-23.542969c-1.621094.097656-3.164062-.722656-3.992188-2.125-1.179687-2.035156-.484374-4.644531 1.554688-5.828125l32.050781-18.507812c1.875-1.007813 4.207031-.476563 5.460938 1.246093 1.257812 1.71875 1.050781 4.101563-.480469 5.582032l-24.703125 22.1875 58.136719-33.5625c1.976562-1.160156 4.511718-.554688 5.75 1.367187 1.238281 1.925781.738281 4.484375-1.132813 5.800781l-27.960937 19.976563 41.292968-23.835937c1.960938-1.097657 4.445313-.484376 5.667969 1.40625 1.222657 1.890624.765625 4.40625-1.042969 5.746093l-49.238281 35.300781 61.730469-35.625c1.984375-1.152343 4.53125-.527343 5.753906 1.417969 1.222656 1.945313.683594 4.511719-1.214844 5.800781l-39.886718 27.109376 46.78125-27.039063c1.984375-1.136719 4.507812-.503906 5.726562 1.425781 1.21875 1.933594.699219 4.480469-1.179687 5.785156l-54.535157 37.398438 60.773438-35.078125c2.003906-1.140625 4.550781-.484375 5.753906 1.484375 1.199219 1.964844.621094 4.53125-1.308594 5.792969l-9.0625 5.847656 11.257813-6.496094c2.003906-1.199219 4.597656-.566406 5.824219 1.421875 1.222656 1.984375.625 4.589844-1.34375 5.839844l-31.292969 20.589844 32.726563-18.875c1.984374-1.097656 4.484374-.453125 5.683593 1.472656 1.203125 1.925781.6875 4.453125-1.171875 5.757812l-53.554687 36.164063 55.578125-32.085937c1.976562-1.089844 4.460937-.449219 5.667968 1.457031 1.203126 1.910156.714844 4.425781-1.121093 5.742187l-62.53125 43.042969 62.96875-36.351563c1.992187-1.152343 4.539062-.519531 5.757812 1.433594s.667969 4.523438-1.246093 5.804688l-43.902344 29.539062 41.695312-24.0625c1.980469-1.101562 4.476563-.460937 5.683594 1.457032 1.207031 1.917968.703125 4.445312-1.144531 5.753906l-44.980469 30.738281 41.644531-24.046875c1.953125-1.113281 4.4375-.515625 5.671875 1.363281 1.238282 1.882813.800782 4.398438-.996094 5.753907l-58.640624 43.46875 51.199218-29.578126c1.984375-1.132812 4.507813-.503906 5.726563 1.429688 1.21875 1.929688.699219 4.480469-1.179688 5.78125l-11.945312 8.199219 2.347656-1.347657c1.929687-1.117187 4.394531-.558593 5.65625 1.285157 1.261719 1.839843.886719 4.34375-.851563 5.738281l-24.449218 19.523438 5.214844-3.003907c2.023437-1.058593 4.527343-.332031 5.671874 1.644531 1.140626 1.980469.523438 4.511719-1.40625 5.738282l-54.265624 31.324218c-1.929688 1.097657-4.375.53125-5.628907-1.304687-1.25-1.832031-.886719-4.316406.835938-5.71875l24.421875-19.515625-47.191406 27.238281c-.640626.375-1.371094.574219-2.113282.574219zm0 0" fill="#fdcd56"/><path d="m115.4375 334.175781c-1.550781 0-2.980469-.84375-3.730469-2.199219-.753906-1.355468-.710937-3.011718.113281-4.328124l9.761719-15.652344-14.660156 8.457031c-1.691406.972656-3.824219.675781-5.183594-.71875-1.359375-1.398437-1.601562-3.539063-.585937-5.203125l9.863281-16.035156-17.730469 10.242187c-1.75 1.007813-3.964844.65625-5.3125-.847656s-1.457031-3.746094-.261718-5.375l9.804687-13.242187-17.621094 10.15625c-1.734375.988281-3.929687.640624-5.273437-.839844-1.34375-1.480469-1.476563-3.699219-.324219-5.332032l10.515625-14.683593-21.078125 12.160156c-1.828125 1.058594-4.152344.621094-5.472656-1.027344-1.320313-1.648437-1.234375-4.011719.199219-5.5625l8.242187-8.933593-18.652344 10.734374c-1.761719 1.019532-3.996093.652344-5.339843-.875-1.34375-1.523437-1.425782-3.789062-.191407-5.40625l12.699219-16.578124-13.925781 8.027343c-1.839844 1.0625-4.183594.609375-5.492188-1.058593-1.3125-1.671876-1.195312-4.054688.277344-5.585938l4.265625-4.386719c-.511719-.15625-.992188-.398437-1.417969-.726562-1.367187-1.070313-1.949219-2.859375-1.472656-4.53125l2.824219-9.933594c-.34375-.304687-.632813-.664063-.855469-1.066406-1.175781-2.039063-.476563-4.648438 1.5625-5.828125l3.019531-1.75c1.503906-.867188 3.382813-.734375 4.753906.328125 1.371094 1.066406 1.957032 2.859375 1.484376 4.527343l-1.707032 5.972657 10.402344-5.972657c1.839844-1.0625 4.179688-.609374 5.492188 1.0625 1.3125 1.671876 1.191406 4.050782-.277344 5.585938l-.855469.90625 6.214844-3.585938c1.761719-1.015624 3.996093-.648437 5.339843.878907 1.34375 1.53125 1.417969 3.792969.179688 5.410156l-12.746094 16.554687 24.4375-14.113281c1.824219-1.035156 4.128906-.59375 5.4375 1.042969 1.3125 1.636719 1.238282 3.984375-.171875 5.535156l-8.253906 8.945313 13.886719-8.007813c1.738281-1 3.9375-.652344 5.285156.828125 1.347656 1.484375 1.480469 3.707031.320312 5.34375l-10.53125 14.683594 18.289063-10.546875c1.746094-1 3.957031-.640625 5.296875.859375 1.34375 1.5 1.453125 3.738281.265625 5.363281l-9.78125 13.21875 14.585937-8.414062c1.6875-.964844 3.816407-.664063 5.171876.730468 1.355468 1.394532 1.597656 3.527344.585937 5.191407l-9.855469 16.035156 14.847656-8.578125c1.703126-.992188 3.859376-.691406 5.226563.726562 1.363281 1.417969 1.582031 3.585938.527344 5.246094l-9.753907 15.660156 13.25-7.679687c1.324219-.839844 3-.890625 4.371094-.125 1.367188.761719 2.207032 2.214844 2.1875 3.78125-.023437 1.570313-.902344 2.996094-2.289062 3.722656l-28.050782 16.214844c-.644531.386719-1.382812.59375-2.132812.597656zm0 0" fill="#9ed26a"/><path d="m66.140625 250.105469c-1.480469 0-2.851563-.765625-3.628906-2.027344-.777344-1.257813-.847657-2.828125-.1875-4.152344l4.269531-8.589843-15.113281 8.796874c-1.839844 1.050782-4.171875.589844-5.476563-1.082031-1.304687-1.667969-1.1875-4.042969.28125-5.574219l5.03125-5.214843-5.902344 3.414062c-1.886718 1.144531-4.332031.667969-5.644531-1.105469-1.316406-1.769531-1.0625-4.25.582031-5.722656l3.636719-3.414062c-1.785156.554687-3.722656-.117188-4.78125-1.65625-1.058593-1.539063-.992187-3.589844.164063-5.058594l13.105468-16.808594-9.914062 5.726563c-1.785156 1.03125-4.054688.640625-5.390625-.933594-1.335937-1.570313-1.355469-3.875-.042969-5.46875l12.976563-15.8125-10.53125 6.078125c-1.855469 1.042969-4.195313.558594-5.484375-1.136719-1.289063-1.691406-1.132813-4.078125.367187-5.589843l11.09375-10.90625-7.816406 4.507812c-1.929687 1.089844-4.371094.523438-5.621094-1.304688-1.253906-1.828124-.898437-4.308593.816407-5.710937l2.847656-2.296875c-1.609375.246094-3.214844-.476562-4.101563-1.839844-1.253906-1.855468-.859375-4.363281.902344-5.746094l24.507813-19.164062-17.390626 10.019531c-1.828124 1.035157-4.136718.585938-5.441406-1.058593-1.308594-1.640626-1.226562-3.992188.195313-5.539063l17.730469-19.019531c-1.828126.925781-4.058594.421875-5.308594-1.199219-1.253906-1.625-1.171875-3.910156.1875-5.441406l13.289062-14.695313c-.34375-1.78125.480469-3.585937 2.054688-4.496094l4.820312-2.78125c1.820313-1.035156 4.121094-.601562 5.433594 1.027344 1.3125 1.625 1.253906 3.96875-.140625 5.527344l-.855469.980469 1.042969-.597657c1.828125-1.046874 4.148437-.601562 5.460937 1.046876 1.3125 1.652343 1.21875 4.011718-.214843 5.558593l-17.765625 18.992188 45.3125-26.160157c1.9375-1.09375 4.390625-.519531 5.632812 1.324219 1.246094 1.84375.867188 4.335938-.871094 5.722657l-29.320312 22.945312c1.703125.207031 3.117188 1.414062 3.585938 3.066406.472656 1.648438-.089844 3.421875-1.425782 4.496094l-9.386718 7.515625c.734374.285156 1.378906.769531 1.851562 1.402344 1.296875 1.703125 1.128906 4.105469-.394531 5.613281l-11.03125 10.914062 1.996093-1.152343c1.785157-1.035157 4.054688-.640625 5.390626.929687 1.335937 1.574219 1.355468 3.875.042968 5.472656l-13.003906 15.8125 8.535156-4.949218c1.769532-1.035156 4.023438-.664063 5.367188.882812 1.34375 1.542969 1.402344 3.828125.136718 5.4375l-13.117187 16.8125 11.726563-6.769531c1.882812-1.144531 4.328124-.664063 5.644531 1.105469 1.3125 1.773437 1.058593 4.253906-.585938 5.722656l-3.277343 3.070312.367187-.203124c1.839844-1.0625 4.183594-.609376 5.496094 1.066406 1.308593 1.675781 1.183593 4.058594-.289063 5.589844l-5.035156 5.214843 1.066406-.625c1.632813-.964843 3.707032-.734375 5.089844.5625 1.382812 1.300781 1.742188 3.355469.882812 5.046875l-4.597656 9.25c1.980469-.148437 3.800782 1.09375 4.390625 2.992188.585938 1.898437-.214843 3.953125-1.933593 4.949218l-10.15625 5.871094c-.652344.363282-1.386719.550782-2.132813.539063zm0 0" fill="#89c053"/><g fill="#262626"><path d="m130.875 188.476562c4.703125 4.9375 11.386719 7.492188 18.183594 6.945313 11.972656-1.878906 22.332031-9.359375 27.878906-20.136719.148438-.148437.261719-.328125.332031-.527344.070313-.214843.179688-.4375.070313-.625-5.914063-10.34375-15.539063-19.738281-28.28125-17.824218-6.820313 1.144531-13.121094 4.382812-18.023438 9.265625-2.183594 2.109375-8.660156 8.097656-8.703125 11.554687-.015625 3.242188 6.519531 9.402344 8.542969 11.347656zm7.789062-19.574218c3.414063-4.265625 6.691407-8.617188 12.433594-6.085938 5.886719 3.324219 10.660156 8.308594 13.722656 14.335938-3.285156 5.691406-9.207031 14.652344-16.265624 11.546875-3.832032-1.707031-13.652344-10.28125-13.832032-14.277344 1.058594-2.007813 2.386719-3.867187 3.941406-5.519531zm0 0"/><path d="m7.125 386.636719c11.382812 18.03125 37.179688 35.988281 58.621094 27.070312 11.742187-4.890625 17.835937-15.4375 24.535156-25.824219 15.667969-24.285156 29.304688-45.617187 51.3125-63.308593 21.238281 52.824219 43.6875 111.171875 78.503906 156.246093 25.804688 33.417969 53.085938 23.730469 83.628906 5.0625 20.613282 12.457032 44.253907 19.015626 68.34375 18.960938 73.410157-.917969 132.953126-59.726562 134.78125-133.121094-1.441406-60.757812-43.007812-113.183594-101.835937-128.445312 1.210937-60.484375-64.484375-122.382813-106.128906-160.621094-31.710938-30.273438-69.636719-53.277344-111.136719-67.414062-1.429688-5.019532-4.566406-9.382813-8.867188-12.339844-3.480468-2.328125-7.789062-3.058594-11.839843-2.003906-4.050781 1.054687-7.457031 3.796874-9.355469 7.527343-17.066406-2.5625-42.539062-7.058593-54.792969 6.125-5.207031 5.6875-7.078125 13.671875-4.941406 21.078125.734375 3.308594 1.605469 6.597656 2.472656 9.882813-11.722656-15.644531-24.164062-38.605469-46.128906-36.046875-22.382813 2.558594-18.332031 35.710937-13.996094 50.808594 2.542969 8.796874 22.289063 33.671874 21.726563 40.5-.28125 3.488281-14.925782 16.339843-17.5 20.09375-6.140625 8.496093-10.78125 17.984374-13.714844 28.050781-9.738281 37.289062 10.554688 75.730469 3.097656 114.34375-7.238281 37.371093-50.730468 85.464843-26.785156 123.375zm71.96875-1.183594c-11.996094 14.414063-23.355469 21.894531-43.476562 12.277344-31.121094-14.847657-22-49.707031-10.539063-74.238281 6.105469-12.886719 11.320313-26.179688 15.605469-39.78125 30.441406 7.320312 56.519531 26.867187 72.082031 54.03125.261719.386718.613281.707031 1.023437.929687-11.851562 14.472656-20.929687 30.199219-34.695312 46.753906zm42.804688-55.988281c-17.757813-28.058594-46.355469-47.496094-78.976563-53.683594 2.75-10.03125 4.628906-20.28125 5.613281-30.632812 37.59375 11.328124 69.4375 36.589843 89.019532 70.621093-5.570313 4.144531-10.808594 8.722657-15.65625 13.695313zm372.410156 43.109375c-3.003906 66.945312-52.285156 123.050781-122.027344 122.207031-34.246094-.746094-66.65625-15.625-89.550781-41.109375-22.890625-25.480469-34.226563-59.296875-31.3125-93.425781 6.019531-66.460938 64.210937-115.824219 130.761719-110.933594 64.863281 6.324219 109.289062 60.003906 112.128906 123.238281zm-207-285.457031c40.6875 37.300781 102.449218 95.472656 105.199218 153.738281-6.167968-.910157-12.390624-1.386719-18.621093-1.433594-4.140625 0-8.25.214844-12.332031.589844-34.296876-40.628907-70.9375-79.21875-109.738282-115.566407-24.21875-22.855468-44.132812-37.703124-55.160156-70.734374-2.0625-6.222657-3.410156-17.871094-5.972656-28.578126 35.835937 14.367188 68.625 35.402344 96.625 61.984376zm-134.726563-69.460938c-2.175781 4.632812-4.019531 9.3125-5.871093 12.714844-12.859376 23.707031-22.238282 30.5-30.351563 28.707031-1.808594-9.8125-5.359375-19.226563-6.425781-29.105469-2.058594-19.167968 27.195312-14.757812 42.648437-12.316406zm-78.703125 83.429688c.746094-.84375 1.121094-1.949219 1.042969-3.070313 2.617187-2.765625 5.265625-5.496094 7.953125-8.191406 1.894531-1.902344-1.707031-1.835938-2.84375-1.707031-2.992188.09375-5.886719 1.097656-8.292969 2.875-.324219.324218-.632812.65625-.957031.980468-11.363281-15.238281-30.652344-47.582031-20.84375-61.703125 15.359375-22.101562 41.769531 28.039063 55.394531 42.136719.449219.933594 1.238281 1.65625 2.203125 2.023438.472656.390624.980469.742187 1.519532 1.039062 20.035156 10.566406 34.882812-1.378906 43.648437-18.164062 4.769531-9.140626-.289063-34.136719 10.53125-37.761719 5.21875-1.765625 9.15625 1.542969 12.167969 6.828125 4.710937 19.035156 7.578125 38.875 16.871094 55.226562.390624.726563.808593 1.449219 1.234374 2.160156.710938 1.140626 1.425782 2.292969 2.210938 3.410157.785156 1.121093 1.707031 2.210937 2.652344 3.304687.949218 1.089844 1.707031 2.378906 2.785156 3.472656 16.460938 17.246094 35.4375 32.554688 52.972656 48.921876 8.210938 7.882812 16.320313 15.875 24.328125 23.96875 2.5625 2.5625 5.121094 5.121093 7.613281 7.679687 14.847657 15.265625 29.199219 30.996094 43.261719 46.933594 5 7.457031 10.589844 14.496093 16.71875 21.054687-57.71875 12.039063-101.054687 59.976563-107.230469 118.613282-3.824218 46.972656 17.664063 92.429687 56.390626 119.292968-21.503907 12.9375-40.910157 19.335938-63.804688-5.015625-12.398438-13.191406-21.335938-33.699219-29.714844-49.621093-18.425781-35.707032-35.050781-72.316407-49.808594-109.6875 54.042969-40.757813 83.816407-99.839844 59.613282-167.5625-1.765625-4.949219-14.0625-1.449219-12.363282 3.3125 22.253907 62.292968-2.3125 117.8125-51.515624 156.773437-15.683594-26.210937-38.679688-47.269531-66.167969-60.585937 3.335937-21.914063-.699219-38.128907-5.070313-59.417969-6.996094-34.074219 13.730469-57.558594 37.308594-80.214844 5.121094-4.871094-7.054688-4.417969-9.839844-1.746094-19.027344 18.257813-41.410156 40.164063-41.898437 68.460938-.417969 24.175781 9.277343 43.519531 7.785156 67.78125-6.78125-2.742188-13.714844-5.082031-20.773437-7.007813.21875-5.976562.058593-11.960937-.476563-17.917968-4.890625-50.628907-11.757813-74.351563 25.394531-116.875zm0 0"/><path d="m273.925781 357.828125c-9.929687 60.171875 36.574219 106.789063 93.6875 111.132813.804688.257812 1.652344.347656 2.492188.253906 49.964843-2.695313 96.265625-34.789063 101.957031-87.695313 2.589844-27.300781-6.460938-54.429687-24.929688-74.703125-18.46875-20.273437-44.636718-31.808594-72.058593-31.769531-49.261719-.390625-91.789063 34.417969-101.148438 82.78125zm101.148438 104.960937c-109.382813-5.914062-123.15625-179.789062-4.96875-181.296874 110.703125-1.417969 121.949219 174.964843 4.96875 181.289062zm0 0"/><path d="m350.582031 354.101562c-5.050781 5.042969 7.039063 4.777344 9.882813 1.929688l5.972656-5.976562v51.585937h-10.386719c-7.097656 0-9.445312 9.179687-1.058593 9.179687h34.136718c7.097656 0 9.445313-9.179687 1.054688-9.179687h-11.417969v-65.296875c0-3.996094-9.777344-.65625-11.089844.691406-5.707031 5.683594-11.40625 11.371094-17.09375 17.066406zm0 0"/><path d="m46.785156 337.058594c-1.808594 1.808594-1.449218 3.484375 1.09375 4.105468 3.113282.523438 6.300782-.320312 8.746094-2.3125 1.894531-1.894531 4.121094-.777343 6.390625 1.492188 2.910156 2.910156 14.59375-1.652344 11.511719-4.734375-8.292969-6.566406-20.175782-5.945313-27.742188 1.449219zm0 0"/></g></svg>