<svg id="Icons" height="512" viewBox="0 0 60 60" width="512" xmlns="http://www.w3.org/2000/svg"><path d="m58.65 33.335a.522.522 0 0 1 -.19-.037.5.5 0 0 1 -.292-.331l-.112-.411-.455.262a.5.5 0 0 1 -.742-.527l.162-.834-2.008 1.159a.5.5 0 1 1 -.5-.865l2.957-1.707a.5.5 0 0 1 .741.527l-.161.834.067-.039a.5.5 0 0 1 .733.3l.165.6a.5.5 0 0 1 .061.895l-.176.1a.493.493 0 0 1 -.25.074z" fill="#45738a"/><path d="m50.554 37.138a.5.5 0 0 1 -.431-.755l.489-.826-1.375.794a.5.5 0 0 1 -.55-.832l1.713-1.291-3.632 2.1a.5.5 0 1 1 -.5-.865l10.752-6.208a.5.5 0 0 1 .55.832l-5.115 3.85a.5.5 0 0 1 -.01.491l-.966 1.629a.236.236 0 0 1 .023.035.5.5 0 0 1 -.183.682l-.516.3a.5.5 0 0 1 -.249.064z" fill="#45738a"/><path d="m42.714 40.336a.5.5 0 0 1 -.455-.708l.123-.268-.664.383a.5.5 0 0 1 -.674-.167.5.5 0 0 1 .143-.68l3.856-2.614-5.226 3.018a.5.5 0 0 1 -.522-.852l.715-.465-2.379 1.373a.5.5 0 1 1 -.5-.865l18.815-10.864a.5.5 0 0 1 .523.852l-.722.469.776-.448a.5.5 0 0 1 .531.847l-13.072 8.863a.5.5 0 0 1 -.041.144l-.494 1.081a.5.5 0 0 1 -.192.666l-.291.168a.509.509 0 0 1 -.25.067z" fill="#45738a"/><path d="m35.669 20.46a.5.5 0 0 1 -.25-.933l5.356-3.091a.5.5 0 1 1 .5.865l-5.356 3.092a.5.5 0 0 1 -.25.067z" fill="#45738a"/><path d="m28.942 54.177a.5.5 0 0 1 -.344-.862l.661-.631-1.023.589a.5.5 0 0 1 -.594-.794l1.839-1.75-1.687.973a.5.5 0 0 1 -.576-.811l1.5-1.287-1.134.654a.5.5 0 0 1 -.568-.819l1.395-1.151-1 .575a.5.5 0 0 1 -.579-.808l2.934-2.572-2.6 1.5a.5.5 0 0 1 -.555-.829l2.215-1.7-1.889 1.09a.5.5 0 0 1 -.517-.855l7.709-4.876-7.476 4.316a.5.5 0 0 1 -.518-.855l8.942-5.706-8.832 5.1a.5.5 0 0 1 -.519-.854l7.417-4.714-7.478 4.316a.5.5 0 0 1 -.522-.852l10.417-6.77-10.937 6.314a.5.5 0 0 1 -.522-.851l9.621-6.244-10.962 6.328a.5.5 0 0 1 -.518-.856l5.192-3.285-7.177 4.144a.5.5 0 0 1 -.519-.855l6.645-4.219-9.227 5.33a.5.5 0 0 1 -.516-.856l5.289-3.329-5.245 3.027a.5.5 0 0 1 -.522-.852l7.318-4.73-7.709 4.452a.5.5 0 0 1 -.534-.845l7.963-5.467-9.283 5.359a.5.5 0 0 1 -.529-.847l7.945-5.346-12.084 6.98a.5.5 0 0 1 -.519-.854l6.177-3.925-6.018 3.475a.5.5 0 0 1 -.527-.85l3.531-2.344-3.593 2.072a.5.5 0 0 1 -.537-.842l5.975-4.2-6.482 3.744a.5.5 0 0 1 -.525-.851l.336-.22-.767.449a.5.5 0 0 1 -.535-.843l4.276-2.972-6.375 3.674a.5.5 0 0 1 -.543-.838l6.164-4.458-7 4.041a.5.5 0 0 1 -.531-.845l2.182-1.488-.431.249a.5.5 0 0 1 -.568-.818l3.429-2.82a.5.5 0 0 1 -.187-.929l4.457-2.573a.5.5 0 0 1 .567.818l-2.949 2.427 6.819-3.938a.5.5 0 0 1 .531.846l-2.184 1.488 3.8-2.194a.5.5 0 0 1 .543.838l-6.165 4.458 8.28-4.78a.5.5 0 0 1 .535.842l-4.276 2.972 5.594-3.229a.5.5 0 0 1 .525.85l-.338.222 1.034-.6a.5.5 0 0 1 .537.842l-5.977 4.2 7.7-4.445a.5.5 0 0 1 .526.849l-3.523 2.34 12.588-7.267a.5.5 0 0 1 .518.854l-6.172 3.927 4.291-2.477a.5.5 0 0 1 .53.848l-7.95 5.349 7.832-4.52a.5.5 0 0 1 .534.845l-7.968 5.464 13.934-8.044a.5.5 0 0 1 .522.852l-7.316 4.725 10.515-6.07a.5.5 0 0 1 .517.855l-5.281 3.324 7.061-4.076a.5.5 0 0 1 .519.855l-6.634 4.213 8.074-4.662a.5.5 0 0 1 .518.856l-5.2 3.291 6.2-3.58a.5.5 0 0 1 .522.851l-9.615 6.241 10.761-6.213a.5.5 0 0 1 .522.851l-10.427 6.776 11.378-6.569a.5.5 0 0 1 .519.855l-7.409 4.708 7.99-4.613a.5.5 0 0 1 .518.854l-8.93 5.7 9.412-5.433a.5.5 0 0 1 .517.855l-20 12.647a.5.5 0 0 1 -.165.568l-2.211 1.7.436-.251a.5.5 0 0 1 .579.809l-2.934 2.57 1.785-1.03a.5.5 0 0 1 .569.818l-1.4 1.152.561-.324a.5.5 0 0 1 .576.812l-1.5 1.29.7-.406a.5.5 0 0 1 .595.8l-1.839 1.749 1-.577a.5.5 0 0 1 .595.794l-.707.676a.5.5 0 0 1 .568.232.5.5 0 0 1 -.183.682l-3.455 2a.49.49 0 0 1 -.235.055z" fill="#45738a"/><path d="m33.1 13.831a.5.5 0 0 1 -.41-.215.5.5 0 0 1 .092-.671l2.709-2.24-1.822 1.052a.5.5 0 0 1 -.558-.827l.915-.714a.491.491 0 0 1 -.486-.193.5.5 0 0 1 .056-.662l2.078-1.978a.5.5 0 0 1 .005-.863l2.339-1.351a.5.5 0 0 1 .595.8l-1.289 1.231 2.259-1.3a.5.5 0 0 1 .558.827l-.739.575.754-.435a.5.5 0 0 1 .569.819l-2.709 2.24 2.781-1.6a.5.5 0 0 1 .5.865l-7.943 4.586a.491.491 0 0 1 -.254.054z" fill="#45738a"/><path d="m26.79 23.867a.5.5 0 0 1 -.279-.914l3.242-2.187-3.443 1.987a.5.5 0 0 1 -.534-.845l5.405-3.721-5.724 3.3a.5.5 0 0 1 -.539-.841l7.407-5.246-8.535 4.925a.5.5 0 0 1 -.566-.819l3.295-2.7-4.919 2.842a.5.5 0 0 1 -.6-.792l2.658-2.568-3.724 2.15a.5.5 0 0 1 -.579-.809l3.157-2.761-3.5 2.021a.5.5 0 0 1 -.558-.827l1.908-1.489-1.778 1.027a.5.5 0 0 1 -.584-.807l3.623-3.254-3.29 1.9a.5.5 0 0 1 -.551-.833l.441-.333a.5.5 0 0 1 -.458-.862l1.64-1.4-.672.387a.5.5 0 0 1 -.572-.814l.791-.669a.506.506 0 0 1 -.3-.175.5.5 0 0 1 .014-.648l1.034-1.16a.505.505 0 0 1 -.161-.17.5.5 0 0 1 .183-.683l1.58-.913a.5.5 0 0 1 .624.765l-.462.52 1.321-.763a.5.5 0 0 1 .572.815l-.268.227.57-.329a.5.5 0 0 1 .574.814l-1.642 1.4 2.058-1.188a.5.5 0 0 1 .551.832l-.339.256.4-.232a.5.5 0 0 1 .584.8l-3.624 3.255 3.846-2.22a.5.5 0 0 1 .558.827l-1.9 1.487 1.716-.992a.5.5 0 0 1 .579.809l-3.158 2.762 2.814-1.624a.5.5 0 0 1 .6.792l-2.656 2.567 6.711-3.875a.5.5 0 0 1 .567.819l-3.3 2.7 12.518-7.222a.5.5 0 0 1 .539.841l-7.409 5.253 7.318-4.225a.5.5 0 0 1 .534.845l-5.398 3.718 4.942-2.853a.5.5 0 0 1 .529.847l-3.25 2.193 2.543-1.468a.5.5 0 0 1 .5.866l-14.924 8.615a.494.494 0 0 1 -.25.067z" fill="#45738a"/><g fill="#262626"><path d="m1.269 33.257a4.853 4.853 0 0 1 7.007 3.96c.023.326 1.135.154 1.395-.215 2.443-2.339 6.551.064 6.605 3.216 0 .251.726.2 1.148-.031h.011c1.974-1.1 6.318-.434 7.477 1.431a7.959 7.959 0 0 1 .705 2.059c.6 2.215.615 4.526 1.015 6.772.4 2.221 1.136 4.42 3.875 3.815 6.429-1.42-.049-20.591 11.908-13.918.327.183 1.287-.086 1.309-.512.115-2.222 4.886-4.058 6.6-2.541a.332.332 0 0 0 .153.068l.013.006h.005c.4.1 1.2-.141 1.226-.448.176-2.471 4.727-4.484 6.7-3.576.224.1 1.49-.112 1.309-.512-2.623-5.793-6.797-10.761-13.501-11.291a18.756 18.756 0 0 0 -5.543.46c-1.826.409-5.285 2.614-6.887.949a4.321 4.321 0 0 0 1.968-2.649c2.519-.264 4.931-1.224 6.1-3.68a10.74 10.74 0 0 0 -1.114-10.332c-1.346-1.688-3.183-1.162-4.688-.039a9.549 9.549 0 0 0 -3.671 6.745 6.413 6.413 0 0 0 -4.754.205c-.294-2.743-1.154-5.207-3.406-6.97-1.369-1.072-3.041-1.526-4.509-.254-2.515 2.18-2.925 7.325-1.9 10.225a5.7 5.7 0 0 0 2.875 3.369c.881.439 3.392.442 3.574 1.249a4.131 4.131 0 0 0 1.937 2.388c-.831 1.091-6.226-1.225-7.3-1.415a17.25 17.25 0 0 0 -6.438.02c-6.043 1.237-9.76 5.936-12.193 11.319-.18.389.884.176.989.127zm1.8-3.046c2.38-3.328 4.283-6.4 8.566-7.571 4.648-1.273 7.807.8 12.038 1.746 1.548.344 3.274.175 4.045-1.477.027-.057 0-.1-.052-.127a.2.2 0 0 0 -.083-.082 3.751 3.751 0 0 1 -1.861-2.27 3.161 3.161 0 0 1 -.12-.608c-.02-.163-.325-.157-.427-.161-3.386-.131-5.615-1.884-6.26-5.189-.347-1.777-.169-5.8 1.321-7.3 3.621-3.649 5.877 5.191 6.018 7.036.013.18.357.206.706.133.694-.127 1.08-.7 1.874-.879a4.016 4.016 0 0 1 3.467.818.291.291 0 0 0 .083.04.261.261 0 0 0 .044.02.518.518 0 0 0 .117.021 1.135 1.135 0 0 0 .128.007h.027a.879.879 0 0 0 .226-.039c.421-.1.843-.347.746-.537a.093.093 0 0 0 -.014-.036v-.009a3.022 3.022 0 0 0 -.267-.193c.406-.673 1.557-4.743 2.056-5.43.661-.913 2.18-2.678 3.507-1.856 1.35.838 2.143 4.565 2.261 5.937.324 3.751-1.334 7.253-5.775 7.451-.42-.013-1.029.2-1.049.467a3.422 3.422 0 0 1 -1.253 2.332 1.113 1.113 0 0 0 -.459.1l-.02.01a.6.6 0 0 0 -.38.629v.006a.241.241 0 0 0 .032.089c.006.01 0 .02.009.03s.009 0 .012.009l.017.032c.007.015.025.02.035.033s0 .027.012.039c2.385 2.665 6.229-.449 9.04-.957 7.734-1.4 13.07 3.193 16.305 9.621-3.142-.667-6.43.476-7.266 3.871-2.976-1.419-7.12-.026-8.016 3.211-2.151-.864-4.911-1.159-6.866.078a6.757 6.757 0 0 0 -2.632 4.254c-.461 1.68-.162 7.278-1.278 8.46-3.784 4.01-4.159-6.525-4.363-7.525-.4-1.953-.943-4.279-2.79-5.378-1.946-1.157-4.728-.65-6.854.262-.447-3.712-5.025-4.724-8.061-3.184a5.134 5.134 0 0 0 -5.7-4.3 21.226 21.226 0 0 1 -2.154.531 6.76 6.76 0 0 0 -.8.307 4.753 4.753 0 0 0 2.11-2.472z"/><path d="m22.83 10.512c.017-.121-1.389-.029-1.449.388-.21 1.448-.484 4.092.987 5 .337.207 1.516-.389 1.369-.479-1.4-.864-1.107-3.53-.907-4.909z"/><path d="m37.549 15.66c1.577-.973 1.351-3.571 1.123-5.148-.035-.242-1.5.054-1.449.388.177 1.221.5 3.975-.772 4.76-.281.173-.135.209.074.275a1.741 1.741 0 0 0 1.024-.275z"/><path d="m11.9 31.665a8.879 8.879 0 0 1 5.963-5.394c.567-.126 1.279-.767.268-.542a10.533 10.533 0 0 0 -7.66 6.19c-.096.256 1.287.122 1.429-.254z"/><path d="m23.9 28.49c.18-.1.361-.2.546-.3.22-.112.408-.375.136-.533a1.241 1.241 0 0 0 -1.024.145c-.185.094-.366.192-.546.295-.211.121-.416.371-.136.533a1.226 1.226 0 0 0 1.024-.14z"/><path d="m19.717 33.883a9.189 9.189 0 0 1 1.439-2.917c.3-.431-1.1-.244-1.323.068a9.662 9.662 0 0 0 -1.55 3.083c-.096.373 1.331.167 1.434-.234z"/><path d="m41.548 26.362a9.388 9.388 0 0 1 6.539 5.624c.175.454 1.606.018 1.449-.388a9.958 9.958 0 0 0 -7.084-5.96c-.412-.092-1.692.548-.904.724z"/><path d="m35.865 28.547a1.233 1.233 0 0 0 .936-.07c.073-.027.659-.3.427-.433q-.27-.155-.547-.3a1.261 1.261 0 0 0 -.936.07c-.066.024-.664.311-.426.432.181.1.366.198.546.301z"/><path d="m40.276 34.194c.151.59 1.6.207 1.448-.388a9.789 9.789 0 0 0 -1.551-3.106c-.33-.468-1.726.051-1.335.6a9.061 9.061 0 0 1 1.438 2.894z"/></g></svg>