<svg height="505pt" viewBox="-90 0 505 505.29666" width="505pt" xmlns="http://www.w3.org/2000/svg"><path d="m159.410156 177.277344c-1.839844 0-3.46875-1.175782-4.050781-2.917969-.578125-1.742187.019531-3.660156 1.488281-4.761719l24.925782-18.355468-38.9375 22.476562c-1.976563 1.15625-4.511719.542969-5.746094-1.386719-1.234375-1.929687-.722656-4.488281 1.15625-5.796875l29.867187-21.054687-39.851562 23.042969c-1.984375 1.207031-4.574219.601562-5.820313-1.359376-1.246094-1.960937-.691406-4.5625 1.246094-5.84375l37.0625-25.703124-44.160156 25.496093c-1.984375 1.136719-4.507813.503907-5.726563-1.425781-1.21875-1.933594-.699219-4.480469 1.175781-5.785156l41.429688-28.449219-46.933594 27.085937c-1.996094 1.1875-4.574218.558594-5.800781-1.414062s-.652344-4.566406 1.296875-5.832031l27.851562-18.566407-30.992187 17.917969c-1.972656 1.109375-4.464844.484375-5.683594-1.417969-1.21875-1.90625-.738281-4.433593 1.09375-5.757812l61.4375-43.339844-65.089843 37.546875c-1.972657 1.140625-4.488282.535157-5.726563-1.378906-1.234375-1.910156-.75-4.457031 1.101563-5.78125l66.636718-47.882813-68.183594 39.375c-1.996093 1.1875-4.574218.558594-5.800781-1.414062-1.226562-1.972656-.652343-4.566406 1.296875-5.832031l26.382813-17.628907-24.191407 13.960938c-1.964843 1.128906-4.46875.523438-5.703124-1.382812-1.234376-1.902344-.761719-4.433594 1.070312-5.769532l55.296875-40.027344-51.585937 29.761719c-1.988282 1.132813-4.515626.496094-5.726563-1.441406-1.214844-1.941406-.683594-4.492187 1.207031-5.785156l13.652344-9.242188-7.722656 4.464844c-1.953125 1.101563-4.425782.503906-5.660156-1.367187-1.234376-1.875-.808594-4.382813.972656-5.742188l32.597656-24.335938-21.980469 12.679688c-1.894531 1.097656-4.316406.578125-5.597656-1.199219-1.28125-1.777343-1.007813-4.234375.632813-5.6875l22.664062-20.085937c-1.820312-.226563-3.292969-1.589844-3.65625-3.386719-.367188-1.796875.457031-3.625 2.042969-4.542969l30.71875-17.707031c1.894531-1.078125 4.292969-.554687 5.570312 1.210937 1.273438 1.765626 1.015625 4.210938-.601562 5.667969l-19.5 17.246094 48.308593-27.886719c1.949219-1.082031 4.402344-.4765622 5.628907 1.386719 1.226562 1.863281.808593 4.355469-.953125 5.722656l-32.625 24.351563 47.421875-27.375c1.980469-1.085938 4.464843-.4375 5.664062 1.476562 1.203125 1.914063.699219 4.433594-1.144531 5.742188l-13.652344 9.242187 20.726563-11.945312c1.96875-1.128907 4.472656-.523438 5.707031 1.378906 1.230469 1.902344.761719 4.4375-1.070312 5.769531l-55.273438 40.015625 65.375-37.734375c1.988281-1.085937 4.472656-.429687 5.667969 1.492188 1.195312 1.921875.679687 4.441406-1.171875 5.742187l-26.359375 17.621094 29.621093-17.066406c1.96875-1.140625 4.488282-.535157 5.722657 1.375 1.234375 1.914062.753906 4.460937-1.097657 5.785156l-66.644531 47.871094 72.351563-41.769531c1.972656-1.109376 4.464844-.484376 5.683594 1.421874 1.21875 1.902344.742187 4.429688-1.089844 5.753907l-61.5 43.339843 63.929687-36.90625c1.992188-1.132812 4.527344-.488281 5.734375 1.460938 1.210938 1.945312.664063 4.503906-1.238281 5.785156l-27.765625 18.566406 26.929688-15.554687c1.984374-1.132813 4.507812-.503906 5.726562 1.429687 1.21875 1.929688.699219 4.480469-1.175781 5.78125l-41.421875 28.398438 38.816406-22.40625c1.984375-1.15625 4.523438-.535156 5.75 1.402344 1.230469 1.9375.707031 4.496094-1.183594 5.796875l-37.085937 25.710937 32.761719-18.898437c1.96875-1.109375 4.464843-.484375 5.683593 1.417969 1.21875 1.90625.738281 4.429687-1.09375 5.757812l-29.925781 21.078125 23.296875-13.457031c1.957031-1.125 4.449219-.527344 5.6875 1.363281 1.238281 1.886719.789063 4.414063-1.023437 5.761719l-24.839844 18.300781 13.707031-7.898437c1.949219-1.109376 4.421875-.523438 5.664063 1.34375 1.238281 1.871093.824218 4.378906-.953126 5.746093l-13.824218 10.480469c1.613281.507812 2.773437 1.921875 2.960937 3.601562.183594 1.683594-.644531 3.316407-2.109375 4.160157l-46.609375 26.914062c-1.949219 1.136719-4.445312.554688-5.695312-1.324219-1.253907-1.875-.824219-4.402343.976562-5.765624l5.027344-3.8125-21.335937 12.335937c-.640626.375-1.371094.574219-2.113282.574219zm0 0" fill="#efc7a4"/><path d="m190.34375 502.292969c-1.839844 0-3.46875-1.171875-4.050781-2.917969-.578125-1.742188.019531-3.660156 1.488281-4.761719l62.652344-45.789062-82.578125 47.691406c-1.992188 1.058594-4.460938.378906-5.636719-1.546875s-.648438-4.433594 1.199219-5.722656l7.785156-5.023438c-2.039063.605469-4.214844-.378906-5.101563-2.308594-.886718-1.933593-.214843-4.226562 1.574219-5.375l53.171875-36.246093-42.066406 24.285156c-1.980469 1.152344-4.515625.542969-5.75-1.386719-1.230469-1.929687-.722656-4.492187 1.15625-5.800781l62.234375-43.765625-50.097656 28.9375c-1.972657 1.105469-4.464844.484375-5.683594-1.421875s-.742187-4.429687 1.089844-5.757813l56.183593-39.628906-44.304687 25.601563c-1.992187 1.132812-4.523437.488281-5.734375-1.457031-1.207031-1.949219-.660156-4.503907 1.238281-5.789063l14.207031-9.46875-4.964843 2.867187c-1.960938 1.148438-4.480469.5625-5.726563-1.339843-1.25-1.902344-.785156-4.445313 1.050782-5.789063l57.171874-42.304687-44.332031 25.597656c-1.964843 1.113281-4.457031.496094-5.683593-1.402344-1.222657-1.898437-.753907-4.421875 1.070312-5.757812l34.464844-24.746094-23.59375 13.652344c-1.96875 1.128906-4.472656.523437-5.707032-1.378907-1.230468-1.902343-.761718-4.4375 1.074219-5.769531l26.671875-19.242187-16.210937 9.386718c-1.972657 1.15625-4.507813.550782-5.746094-1.371093s-.742187-4.480469 1.128906-5.796875l11.707031-8.347656-2.203124 1.261718c-1.960938 1.117188-4.453126.511719-5.683594-1.382812-1.230469-1.890625-.773438-4.417969 1.042968-5.757813l8.753907-6.367187c-1.945313.746094-4.144531-.023438-5.199219-1.820313s-.660156-4.09375.933594-5.429687l23.800781-20.175782-11.988281 6.929688c-1.910156 1.097656-4.339844.566406-5.613282-1.226562-1.269531-1.796876-.96875-4.265626.695313-5.703126l10.042969-8.53125c-1.792969.914063-3.988282.449219-5.253906-1.121093-1.269532-1.566407-1.265626-3.808594.007812-5.375l12.800781-15.769531c-1.632812.761718-3.566406.417968-4.835937-.859376-1.265625-1.277343-1.597656-3.214843-.824219-4.839843l5.976563-12.585938-.085938-.144531c-1.179688-2.039062-.484375-4.648438 1.550781-5.828125l3.046875-1.757813c1.617188-.921874 3.640625-.6875 5.007813.574219 1.367187 1.261719 1.757812 3.261719.964843 4.945313l-2.882812 6.074218 7.679688-4.445312c1.78125-1.023438 4.039062-.636719 5.375.921875 1.335937 1.5625 1.367187 3.855469.078124 5.453125l-12.75 15.734375 20.351563-11.738281c1.910156-1.085938 4.328125-.546875 5.59375 1.246094 1.269531 1.792968.964844 4.253906-.695313 5.691406l-10.007812 8.53125 12.902344-7.441406c1.914062-1.09375 4.34375-.550782 5.609375 1.253906 1.265625 1.804687.949219 4.273437-.730469 5.703125l-23.761719 20.042969 27.730469-16.007813c1.964844-1.117187 4.457031-.511719 5.6875 1.382813 1.230469 1.894531.773438 4.417968-1.042969 5.757812l-8.304687 6.042969 8.722656-5.035157c1.96875-1.125 4.476562-.507812 5.703125 1.398438 1.226563 1.910156.746094 4.445312-1.097656 5.769531l-11.714844 8.371094 12.261719-7.074219c1.96875-1.128906 4.472656-.523437 5.703125 1.378906 1.234375 1.90625.765625 4.4375-1.070313 5.773438l-26.65625 19.234375 26-15.011719c1.96875-1.113281 4.460938-.496094 5.6875 1.402344 1.222656 1.898438.753906 4.425781-1.070312 5.757812l-34.476563 24.746094 34.136719-19.703125c1.960938-1.152343 4.480469-.5625 5.726562 1.339844 1.246094 1.898437.785157 4.445313-1.050781 5.785156l-57.175781 42.292969 54.675781-31.574219c1.984375-1.085937 4.472657-.429687 5.667969 1.492188s.679688 4.441406-1.171875 5.742187l-14.277344 9.523438 10.878907-6.28125c1.972656-1.105469 4.46875-.484375 5.6875 1.421875s.738281 4.429687-1.09375 5.757812l-56.140626 39.617188 51.546876-29.761719c1.980468-1.15625 4.515624-.542969 5.75 1.386719 1.230468 1.929687.722656 4.488281-1.15625 5.796875l-62.292969 43.777344 57.675781-33.28125c1.980469-1.101563 4.476562-.460938 5.683594 1.457031 1.207031 1.917969.707031 4.445312-1.144532 5.753906l-53.164062 36.265625 48.640625-28.066406c2-1.097656 4.511719-.429688 5.699219 1.519531s.632812 4.488281-1.261719 5.761719l-5.460937 3.523437 1.023437-.582031c1.960937-1.105469 4.441406-.496094 5.671875 1.386719 1.230469 1.886719.78125 4.402343-1.019531 5.75l-62.636719 45.773437 58.019531-33.496094c1.964844-1.128906 4.472657-.519531 5.703125 1.382813 1.234375 1.902344.765625 4.4375-1.070312 5.769531l-33.144532 23.894532 28.511719-16.460938c1.949219-1.109375 4.425781-.523438 5.664063 1.347656 1.242187 1.867188.824218 4.375-.953125 5.742188l-23.183594 17.628906 18.472656-10.664062c1.957031-1.113282 4.4375-.515626 5.675781 1.363281 1.234376 1.882812.796876 4.398437-1 5.75l-2.945312 2.1875c1.480469-.121094 2.914062.523437 3.808594 1.707031 1.292968 1.71875 1.101562 4.132812-.445313 5.628906l-10.65625 10.308594 5.5625-3.207031c1.765625-1.015625 4.003907-.636719 5.339844.898437 1.339844 1.539063 1.402344 3.804688.15625 5.417969l-3.414063 4.394531h.058594c1.925782.003906 3.609375 1.300782 4.109375 3.160156.496094 1.859376-.3125 3.820313-1.976562 4.792969l-15.964844 9.171875c-1.765625 1.023438-4.011719.652344-5.355469-.890625-1.339844-1.539062-1.402344-3.8125-.148437-5.425781l2.5625-3.242188-16.640625 9.609376c-1.867188 1.105468-4.269532.636718-5.578125-1.09375-1.3125-1.730469-1.113281-4.167969.457031-5.664063l10.617188-10.273437-29.671876 17.125c-1.957031 1.113281-4.4375.515624-5.675781-1.367188-1.234375-1.878906-.796875-4.394531 1-5.75l.203125-.160156-12.671875 7.320312c-1.949219 1.132813-4.445312.554688-5.695312-1.324218-1.25-1.878907-.824219-4.40625.976562-5.765626l23.210938-17.648437-42.929688 24.746094c-1.96875 1.128906-4.472656.523437-5.707031-1.378907-1.230469-1.902343-.761719-4.4375 1.070312-5.769531l33.136719-23.894531-53.921875 31.128906c-.640625.367188-1.363281.566406-2.097656.570313zm0 0" fill="#457393"/><path d="m23.105469 502.046875c-1.859375 0-3.507813-1.203125-4.070313-2.976563-.5625-1.777343.089844-3.710937 1.613282-4.78125l35.421874-24.925781-43.289062 24.976563c-1.980469 1.078125-4.453125.429687-5.648438-1.476563-1.199218-1.90625-.710937-4.417969 1.117188-5.734375l26.070312-17.722656-21.855468 12.605469c-1.992188 1.152343-4.539063.519531-5.757813-1.433594s-.667969-4.523437 1.242188-5.804687l16.257812-10.9375-11.742187 6.773437c-1.988282 1.097656-4.492188.445313-5.6875-1.488281-1.199219-1.929688-.671875-4.464844 1.199218-5.753906l3.199219-2.125c-1.992187.433593-4.015625-.597657-4.828125-2.46875-.8125-1.871094-.1875-4.054688 1.492188-5.214844l42.488281-30.574219-37.863281 21.890625c-1.949219 1.085938-4.402344.488281-5.636719-1.371094-1.230469-1.855468-.824219-4.351562.933594-5.722656l51.796875-39.253906-47.09375 27.164062c-1.976563 1.074219-4.453125.425782-5.648438-1.480468-1.199218-1.90625-.710937-4.414063 1.117188-5.730469l7.082031-4.820313-2.558594 1.464844c-1.953125 1.121094-4.4375.53125-5.679687-1.34375-1.242188-1.875-.8125-4.394531.976562-5.753906l42.148438-31.726563-37.4375 21.621094c-1.980469 1.136719-4.5.515625-5.722656-1.410156-1.226563-1.925781-.71875-4.472657 1.148437-5.78125l12.304687-8.535157-7.730468 4.457032c-1.941406 1.085937-4.390625.5-5.628906-1.347656-1.238282-1.847657-.851563-4.335938.894531-5.71875l39.984375-30.96875-35.25 20.316406c-1.976563 1.15625-4.515625.542968-5.746094-1.386719-1.234375-1.929687-.722656-4.488281 1.15625-5.796875l8.480469-5.972656-3.890625 2.242187c-1.972656 1.109375-4.464844.484375-5.683594-1.417969-1.21875-1.90625-.738281-4.429687 1.09375-5.757812l6.765625-4.777344-2.097656 1.210938c-1.933594 1.082031-4.371094.507812-5.617188-1.324219-1.242187-1.832031-.878906-4.308594.835938-5.707031l33.28125-26.453125-26.847657 15.488281c-1.941406 1.109375-4.410156.527344-5.65625-1.328125-1.246093-1.855469-.847656-4.359375.914063-5.738281l23.183594-17.917969-14.308594 8.257813c-1.894531 1.082031-4.300781.558593-5.578125-1.214844-1.273438-1.769532-1.007812-4.214844.621094-5.671875l31.511718-27.917969-15.179687 8.761719c-1.898437 1.101562-4.324219.582031-5.605469-1.199219s-1-4.246094.648438-5.695312l25.308594-22.324219c-.46875-.347657-.859376-.789063-1.152344-1.296875-1.179688-2.039063-.484375-4.644532 1.554687-5.828125l22.621094-13.054688c1.894531-1.082031 4.300781-.558593 5.574219 1.214844 1.273437 1.769531 1.007812 4.214844-.617188 5.671875l-15.566406 13.753906 14.789062-8.53125c1.894532-1.0625 4.28125-.535156 5.550782 1.226563 1.265625 1.757812 1.011718 4.191406-.59375 5.648437l-31.53125 27.949219 32.15625-18.570313c1.941406-1.132812 4.433594-.5625 5.6875 1.304688s.847656 4.386719-.933594 5.761719l-23.195312 17.917969 22.5625-13.019532c1.929687-1.082031 4.371093-.507812 5.613281 1.324219 1.246093 1.832031.882812 4.308594-.835938 5.707031l-33.320312 26.453125 33.40625-19.285156c1.972656-1.109375 4.464843-.484375 5.683593 1.421875 1.21875 1.902344.738282 4.429688-1.09375 5.753906l-6.679687 4.71875 5.121094-2.976562c1.980469-1.207032 4.558593-.609375 5.808593 1.34375s.714844 4.546875-1.210937 5.839844l-8.480469 5.972656 7.003906-4.035156c1.941407-1.085938 4.390626-.5 5.628907 1.347656s.851562 4.335937-.890625 5.71875l-40.015625 30.984375 40.390625-23.269531c1.980468-1.179688 4.539062-.570313 5.777344 1.375 1.238281 1.945312.707031 4.519531-1.195313 5.816406l-12.355469 8.59375 10.996094-6.347656c1.953125-1.117188 4.4375-.53125 5.679688 1.34375 1.242187 1.878906.816406 4.394531-.976563 5.753906l-42.121094 31.703125 42.34375-24.449219c1.988281-1.152344 4.53125-.523438 5.753907 1.417969 1.222656 1.945312.6875 4.511719-1.214844 5.800781l-7.132813 4.847656 5.621094-3.242187c1.949219-1.109375 4.425781-.519531 5.667969 1.347656 1.238281 1.867187.824218 4.378906-.957032 5.742187l-51.761718 39.253907 52.546875-30.335938c1.96875-1.140625 4.488281-.535156 5.726562 1.375 1.234375 1.914063.75 4.460938-1.101562 5.785157l-42.503907 30.574218 42.429688-24.488281c1.996094-1.160156 4.550781-.519531 5.765625 1.445313 1.214844 1.960937.648437 4.535156-1.277344 5.804687l-1.015625.675781c2.027344-.765625 4.304688.113282 5.296875 2.039063.992188 1.925781.382813 4.289062-1.414062 5.496093l-16.214844 10.90625 14.941406-8.644531c1.988281-1.152343 4.53125-.527343 5.753907 1.417969 1.222656 1.945312.6875 4.507812-1.214844 5.800781l-26.035156 17.707031 25.097656-14.507812c1.976562-1.15625 4.515625-.542969 5.746094 1.386719 1.234374 1.929687.722656 4.488281-1.15625 5.800781l-35.464844 24.964844 34.988281-20.214844c1.980469-1.132812 4.5-.511719 5.722656 1.414062 1.226563 1.921876.71875 4.472657-1.148437 5.78125l-14.660156 10.238282 13.414062-7.738282c1.925781-1.136718 4.398438-.59375 5.671875 1.238282 1.273437 1.835937.917969 4.34375-.816406 5.75l-30.875 25.496094 31.054687-17.917969c1.914063-1.09375 4.34375-.550781 5.609375 1.253906 1.265625 1.800781.949219 4.273437-.730469 5.699219l-14.835937 12.535156 13.917969-8.027344c1.742187-1.003906 3.949218-.652344 5.296875.84375 1.347656 1.496094 1.464843 3.730469.28125 5.359375l-11.367188 15.691407 11.1875-6.449219c1.710938-.988281 3.875-.675781 5.234375.757812 1.355469 1.433594 1.554688 3.613281.476563 5.265625l-1.332031 2.03125c2.039062-.355468 4.039062.804688 4.742187 2.75.703125 1.949219-.089844 4.121094-1.882813 5.152344l-13.746093 7.925781c-1.710938.988281-3.875.675781-5.234375-.757812-1.355469-1.433594-1.554688-3.613281-.476563-5.265625l1.015625-1.535156-13.125 7.542968c-1.742187.996094-3.941406.640625-5.285156-.847656-1.34375-1.492188-1.464844-3.71875-.292969-5.347656l11.433594-15.734375-37.992187 21.929687c-1.910157 1.070313-4.320313.523438-5.578126-1.269531-1.257812-1.789063-.957031-4.242187.699219-5.675781l14.855469-12.5625-33.792969 19.507812c-1.917969 1.109375-4.367187.558594-5.632812-1.257812-1.265625-1.820313-.929688-4.308594.777343-5.722656l30.882813-25.445313-56.277344 32.425781c-1.972656 1.09375-4.453125.460938-5.664062-1.441406-1.210938-1.902344-.734375-4.417969 1.089843-5.742188l14.636719-10.242187-30.125 17.425781c-.644531.390625-1.378906.597656-2.132812.605469zm0 0" fill="#457393"/><path d="m150.671875 280.351562c-1.925781-.007812-3.609375-1.300781-4.105469-3.160156-.5-1.859375.308594-3.824218 1.972656-4.792968l37.058594-21.402344c1.648438-.957032 3.734375-.703125 5.105469.621094 1.371094 1.324218 1.699219 3.398437.800781 5.078124l-6.921875 12.980469c1.023438.910157 1.550781 2.261719 1.410157 3.625-.140626 1.363281-.929688 2.578125-2.117188 3.261719l-5.316406 3.0625c-1.652344.953125-3.734375.699219-5.105469-.628906-1.367187-1.324219-1.691406-3.398438-.792969-5.078125l4.265625-8.089844-24.164062 13.949219c-.636719.371094-1.355469.566406-2.089844.574218zm0 0" fill="#f4f6f8"/><path d="m125.769531 390.765625c-1.304687 0-2.539062-.59375-3.347656-1.613281-.8125-1.023438-1.113281-2.359375-.816406-3.628906l2.226562-9.53125-.664062.382812c-1.65625.964844-3.75.703125-5.121094-.632812-1.371094-1.335938-1.683594-3.417969-.765625-5.101563l4.980469-9.144531-3.515625 2.019531c-1.710938.984375-3.875.664063-5.230469-.773437-1.351563-1.4375-1.542969-3.617188-.460937-5.265626l10.515624-15.925781-10.292968 5.972657c-1.8125 1.039062-4.109375.609374-5.429688-1.011719-1.316406-1.625-1.265625-3.960938.121094-5.523438l11-12.238281-10.128906 5.847656c-1.902344 1.09375-4.328125.5625-5.601563-1.226562-1.273437-1.789063-.980469-4.253906.679688-5.695313l1.550781-1.339843c-1.925781.835937-4.175781.140624-5.300781-1.632813-1.121094-1.777344-.785157-4.105469.796875-5.492187l8.789062-7.746094-7.390625 4.265625c-1.941406 1.125-4.421875.554687-5.675781-1.304688s-.855469-4.375.914062-5.753906l44.1875-34.492187-44.828124 25.875c-1.976563 1.136718-4.5.511718-5.722657-1.410157-1.226562-1.925781-.71875-4.472656 1.148438-5.785156l21.222656-14.828125-20.207031 11.664062c-1.980469 1.152344-4.519532.535157-5.75-1.402343-1.226563-1.9375-.703125-4.5 1.1875-5.800781l1.808594-1.246094-.121094.070312c-1.941406 1.132813-4.433594.558594-5.6875-1.304687-1.257813-1.867188-.847656-4.390625.933594-5.761719l18.289062-14.191406-17.382812 10.035156c-1.839844 1.0625-4.179688.609375-5.492188-1.0625s-1.191406-4.050781.277344-5.585938l18.210937-18.96875-18.175781 10.503907c-1.679688.972656-3.800781.691406-5.167969-.6875-1.367187-1.378907-1.628906-3.503907-.644531-5.175781l3.347656-5.65625-1.238281.71875c-1.324219.839843-3 .886718-4.371094.125-1.367187-.765626-2.207031-2.21875-2.183593-3.785157.019531-1.566406.898437-2.996093 2.285156-3.722656l15.3125-8.839844c1.675781-.96875 3.792968-.683593 5.15625.691407 1.363281 1.371093 1.632812 3.492187.652344 5.160156l-3.335938 5.660156 30.269531-17.476562c1.839844-1.078126 4.195313-.628907 5.511719 1.050781 1.3125 1.679687 1.1875 4.074219-.300781 5.605469l-18.21875 18.910156 45.320312-26.164063c1.941407-1.101562 4.402344-.523437 5.648438 1.328125 1.246093 1.847656.855469 4.34375-.894531 5.726563l-18.277344 14.191406 37.007812-21.332031c1.984375-1.152344 4.523438-.535156 5.75 1.402344 1.230469 1.9375.707032 4.5-1.183594 5.800781l-1.816406 1.261719 14.796875-8.53125c1.972657-1.09375 4.453125-.460938 5.664063 1.441406 1.210937 1.902344.734375 4.417968-1.089844 5.742187l-21.222656 14.832031 12.226562-7.050781c1.941406-1.101562 4.398438-.523437 5.644532 1.328125 1.246093 1.847656.859374 4.347656-.890626 5.730469l-49.945312 38.980469c1.605469.292968 2.902344 1.480468 3.339844 3.058594.4375 1.574218-.066406 3.257812-1.292969 4.339843l-8.796875 7.765625 1.398438-.804687c1.902343-1.070313 4.304687-.539063 5.574218 1.242187 1.265625 1.777344.984375 4.226563-.648437 5.671875l-4.464844 3.855469c1.617187.132812 3.015625 1.167969 3.617187 2.671875.601563 1.503906.296876 3.222656-.785156 4.429687l-11.007812 12.246094 2.65625-1.527344c1.710937-.984374 3.875-.664062 5.230468.773438 1.351563 1.4375 1.542969 3.617188.460938 5.265625l-10.488281 15.914063 1.015625-.578126c1.65625-.960937 3.746094-.703124 5.121094.628907 1.382812 1.339843 1.699218 3.433593.773437 5.121093l-5.972656 10.933594c1.125.226563 2.113281.894532 2.738281 1.859375.625.964844.835938 2.136719.582031 3.257813l-3.609375 15.515625c1.023438 2.03125.273438 4.507812-1.707031 5.632812l-1.1875.691407c-.636719.359374-1.355469.550781-2.089844.554687zm0 0" fill="#f4f6f8"/><path d="m162.0625 496.78125c-1.472656.003906-2.84375-.753906-3.625-2.003906s-.863281-2.816406-.214844-4.140625l4.652344-9.503907-3.21875 1.84375c-1.734375.992188-3.929688.644532-5.273438-.832031-1.347656-1.480469-1.484374-3.695312-.332031-5.332031l12.355469-17.382812-12.375 7.136718c-1.875.992188-4.195312.457032-5.445312-1.257812s-1.050782-4.089844.472656-5.570313l3.011718-2.6875-1.09375.632813c-1.859374 1.070312-4.230468.59375-5.527343-1.117188-1.300781-1.710937-1.125-4.121094.410156-5.625l20.476563-20.019531-20.476563 11.800781c-1.949219 1.125-4.4375.546875-5.683594-1.324218-1.25-1.871094-.832031-4.390626.953125-5.757813l1.863282-1.425781c-1.902344 1.085937-4.316407.558594-5.589844-1.21875-1.273438-1.78125-.996094-4.234375.648437-5.683594l25.136719-21.992188-25.121094 14.507813c-1.90625 1.117187-4.351562.59375-5.632812-1.210937-1.28125-1.800782-.972656-4.285157.710937-5.71875l26.035157-22.460938-26.035157 15.019531c-1.941406 1.117188-4.410156.546875-5.664062-1.304687-1.253907-1.851563-.863281-4.359375.890625-5.742188l15.675781-12.367187-14.699219 8.492187c-1.953125 1.117188-4.4375.53125-5.679687-1.347656-1.242188-1.875-.816407-4.390625.976562-5.75l9.453125-7.136719-3.199218 1.84375c-1.902344 1.09375-4.328126.5625-5.601563-1.226562-1.273437-1.789063-.980469-4.253907.679687-5.695313l26.503907-22.902344-18.160157 10.480469c-1.941406 1.109375-4.410156.527344-5.65625-1.328125-1.246093-1.855468-.847656-4.359375.914063-5.738281l5.972656-4.617187c-1.953125.589843-4.046875-.277344-5.003906-2.078126-.957031-1.796874-.511719-4.023437 1.070313-5.3125l11.09375-9.136718-3.78125 2.15625c-1.878907 1.007812-4.207032.476562-5.464844-1.242188-1.253906-1.71875-1.050782-4.101562.480468-5.582031l15.992188-14.363281-8.082031 4.660156c-1.898438 1.09375-4.320313.570312-5.597657-1.210938-1.277343-1.78125-1-4.246093.648438-5.691406l9.0625-7.945312-1.664062.945312c-1.851563 1.03125-4.179688.542969-5.464844-1.140625-1.285156-1.6875-1.140625-4.058593.34375-5.574219l5.070312-5.042968c-1.449218-.042969-2.777344-.816406-3.527344-2.054688-.75-1.242187-.820312-2.777344-.183593-4.082031l2.960937-6.089844c-.335937-.300781-.625-.648437-.855468-1.035156-.566407-.976563-.722657-2.144531-.433594-3.238281.292968-1.097656 1.007812-2.03125 1.988281-2.597656l4.785156-2.773438c1.628907-.929688 3.667969-.699219 5.054688.5625 1.371093 1.28125 1.742187 3.308594.917969 4.992188l-.671876 1.390624 12.238282-7.054687c1.851562-1.03125 4.179687-.542969 5.464844 1.140625 1.285156 1.6875 1.136718 4.058594-.347657 5.574219l-3.308593 3.292969 10.691406-6.167969c1.902344-1.105469 4.328125-.585938 5.609375 1.203125 1.28125 1.785156.996093 4.253906-.660157 5.699218l-9.054687 7.945313 6.109375-3.523437c1.878906-1.007813 4.207031-.476563 5.464844 1.242187 1.253906 1.71875 1.050781 4.101563-.480469 5.582031l-15.972656 14.355469 13.371093-7.734375c1.925782-1.140625 4.40625-.597656 5.683594 1.242188 1.273438 1.839843.910156 4.355468-.835937 5.757812l-11.171875 9.164062 8.34375-4.804687c1.941406-1.085937 4.390625-.5 5.628906 1.347656 1.238281 1.847657.851562 4.335938-.890625 5.71875l-5.300781 4.09375 2.304687-1.320312c1.902344-1.074219 4.304688-.539063 5.574219 1.238281 1.265625 1.777344.984375 4.226562-.648438 5.671875l-26.496093 22.894531 24.359375-14.054687c1.953125-1.117188 4.4375-.527344 5.679687 1.347656 1.242188 1.875.816407 4.394531-.976562 5.753906l-9.488281 7.152344 6.628906-3.824219c1.9375-1.09375 4.390625-.515625 5.636718 1.328125 1.242188 1.839844.863282 4.332031-.875 5.71875l-15.734374 12.367188 13.074218-7.554688c1.902344-1.09375 4.328125-.5625 5.601563 1.226563 1.273437 1.792968.980469 4.253906-.679688 5.695312l-26.027343 22.460938 23.894531-13.773438c1.898437-1.085937 4.316406-.558594 5.589843 1.21875 1.273438 1.78125.992188 4.238282-.648437 5.683594l-25.164063 22.078125 19.15625-11.09375c1.949219-1.125 4.433594-.546875 5.683594 1.324219 1.246094 1.871094.828125 4.390625-.957031 5.757812l-6.570313 5.027344c1.660157.140625 3.089844 1.234375 3.652344 2.804688.566406 1.566406.167969 3.320312-1.023437 4.488281l-20.480469 20.019531 7.679688-4.4375c1.894531-1.09375 4.308593-.578125 5.589843 1.195312 1.285157 1.773438 1.015625 4.226563-.613281 5.683594l-6.65625 5.972656c.929688.167969 1.777344.636719 2.414062 1.332032 1.351563 1.488281 1.484376 3.714844.316407 5.351562l-12.679688 17.824219c1.339844-.246094 2.71875.152344 3.71875 1.078125 1.371094 1.277344 1.746094 3.304688.921875 4.988281l-7.355468 15.0625c.179687.203125.335937.429688.46875.667969 1.179687 2.039062.480468 4.648438-1.5625 5.828125l-4.027344 2.328125c-.636719.363281-1.355469.554688-2.089844.5625zm0 0" fill="#d94452"/><path d="m199.070312 382.675781c-1.105468.003907-2.167968-.425781-2.960937-1.195312-1.371094-1.324219-1.699219-3.398438-.800781-5.078125l7.738281-14.507813-4.914063 2.832031c-1.773437 1.023438-4.019531.640626-5.355468-.90625-1.339844-1.546874-1.390625-3.828124-.121094-5.433593l11.375-14.367188-8.671875 5.007813c-1.824219 1.046875-4.140625.605468-5.457031-1.039063-1.3125-1.640625-1.230469-4 .191406-5.550781l16.480469-17.78125-14.089844 8.132812c-1.921875 1.09375-4.359375.539063-5.617187-1.28125-1.261719-1.816406-.921876-4.292968.777343-5.707031l3.105469-2.5625c-1.945312 1.144531-4.445312.570313-5.699219-1.300781-1.257812-1.875-.839843-4.40625.957031-5.773438l2.78125-2.183593c-1.925781.921875-4.238281.273437-5.410156-1.511719-1.167968-1.785156-.835937-4.164062.777344-5.5625l26.375-23.234375-24.269531 14c-1.917969 1.078125-4.339844.515625-5.59375-1.296875-1.25-1.808594-.917969-4.273438.765625-5.691406l27.453125-22.441406-25.25 14.574218c-1.886719 1.144532-4.332031.667969-5.644531-1.105468-1.316407-1.769532-1.0625-4.25.582031-5.71875l24.746093-23.246094-13.816406 7.96875c-1.878906 1.046875-4.242187.53125-5.515625-1.203125-1.273437-1.734375-1.054687-4.144531.507813-5.621094l6.707031-6.113281c-.875-.144532-1.683594-.550782-2.320313-1.167969-1.378906-1.339844-1.6875-3.4375-.757812-5.121094l5.679688-10.410156c-.199219-.21875-.371094-.464844-.519532-.722656-1.179687-2.039063-.484375-4.648438 1.554688-5.828125l4.761718-2.75c1.652344-.945313 3.734376-.679688 5.097657.652344 1.363281 1.332031 1.679687 3.40625.773437 5.082031l-2.5625 4.726562 14.832032-8.53125c1.878906-1.046875 4.246093-.53125 5.519531 1.203125 1.269531 1.734375 1.054687 4.144532-.511719 5.625l-3.410156 3.121094 11.636718-6.714844c1.886719-1.148437 4.332032-.667968 5.644532 1.105469 1.316406 1.769531 1.0625 4.25-.582032 5.71875l-24.746093 23.246094 38.953125-22.484375c1.921875-1.074219 4.34375-.511719 5.59375 1.296875 1.25 1.808593.921875 4.273437-.765625 5.691406l-27.433594 22.433594 15.703125-9.0625c1.894531-1.078125 4.300781-.554688 5.574219 1.214843 1.273437 1.769532 1.007812 4.21875-.617188 5.671876l-26.375 23.246093 13.8125-7.980469c1.941407-1.140624 4.433594-.578124 5.695313 1.285157 1.261718 1.863281.863281 4.382812-.914063 5.765625l-6.769531 5.332031c1.734375.132813 3.214844 1.308594 3.742188 2.964844.523437 1.660156-.011719 3.46875-1.351563 4.578125l-6.828125 5.605468c1.621094.152344 3.011719 1.210938 3.589844 2.726563.582031 1.519531.246094 3.234375-.859375 4.425781l-16.484375 17.808594 3.558594-2.054688c1.773437-1.023437 4.019531-.640624 5.355468.90625 1.335938 1.546876 1.390625 3.828126.121094 5.433594l-11.699219 14.777344c1.40625-.335938 2.886719.078125 3.917969 1.09375 1.367188 1.324219 1.691406 3.398438.792969 5.078125l-9.71875 18.210937c1.289062.78125 2.070312 2.191407 2.050781 3.699219-.019531 1.507813-.835938 2.894531-2.144531 3.644531l-6.589844 3.789063c-.648437.371094-1.382813.566406-2.132813.566406zm0 0" fill="#f4f6f8"/><path d="m151.285156 280.324219c-1.777344 0-3.363281-1.101563-3.988281-2.765625-.625-1.664063-.15625-3.539063 1.179687-4.707032l8.730469-7.679687-10.972656 6.328125c-1.878906 1.050781-4.246094.535156-5.519531-1.199219-1.273438-1.738281-1.054688-4.148437.507812-5.625l17.921875-16.367187-17.316406 10.019531c-1.75 1.003906-3.96875.640625-5.308594-.871094-1.34375-1.511719-1.441406-3.753906-.234375-5.378906l9.675782-12.890625-8.808594 5.117188c-1.285156.742187-2.863282.761718-4.167969.054687-1.300781-.710937-2.144531-2.042969-2.222656-3.527344l-.496094-9.257812c-1.875-.132813-3.441406-1.472657-3.859375-3.304688-.417969-1.835937.410156-3.726562 2.042969-4.65625l3.617187-2.082031c1.285156-.738281 2.863282-.757812 4.164063-.050781 1.304687.707031 2.148437 2.042969 2.230469 3.523437l.449218 8.429688 20.855469-12.039063c1.757813-1.015625 3.980469-.652343 5.328125.863281 1.34375 1.515626 1.4375 3.769532.21875 5.390626l-9.675781 12.894531 33.417969-19.285157c1.878906-1.046874 4.242187-.53125 5.515624 1.203126 1.273438 1.734374 1.054688 4.144531-.507812 5.625l-17.917969 16.375 14.402344-8.3125c1.898437-1.066407 4.292969-.535157 5.558594 1.234374 1.269531 1.769532 1.003906 4.207032-.617188 5.660157l-9.121093 7.996093c1.496093-.476562 3.136718-.089843 4.265624 1.007813 1.386719 1.332031 1.714844 3.429687.792969 5.117187l-6.757812 12.597657c.996093.914062 1.5 2.25 1.355469 3.597656-.144532 1.347656-.921876 2.546875-2.089844 3.226563l-5.308594 3.066406c-1.648438.945312-3.726562.683594-5.09375-.640625-1.363281-1.324219-1.6875-3.390625-.792969-5.070313l4.085938-7.636718-23.390625 13.449218c-.648438.382813-1.394532.578125-2.148438.570313zm0 0" fill="#eb5463"/><g fill="#262626"><path d="m255.1875 86.773438c-6.179688-115.203126-182.554688-109.78125-183.023438 3.308593-.496093 116.90625 177.023438 108.074219 183.023438-3.308593zm-159.105469-42.53125c12.980469-21.519532 21.1875-21.050782 48.402344-28.253907 26.007813-6.886719 31.804687-11.945312 52.515625-1.195312 27.835938 14.890625 45.390625 43.722656 45.832031 75.289062-.421875 16.375-5.246093 32.332031-13.96875 46.191407-12.800781 19.347656-19.910156 17.691406-45.996093 24.59375-26.28125 6.964843-34.664063 11.835937-56.429688-.851563-40.339844-23.601563-53.925781-75.417969-30.355469-115.773437zm0 0"/><path d="m68.5625 238.042969c-80.511719 48.894531-70.332031 158.421875-64.664062 241.492187 1.851562 27.222656 17.476562 21.941406 41.597656 21.941406h113.347656c1.265625.835938 2.753906 1.261719 4.269531 1.21875h89.179688c14.21875 0 54.058593 8.074219 66.605469-4.222656 12.542968-12.296875 4.648437-50.46875 4.648437-65.316406v-89.164062c-.929687-45.609376-26.136719-87.25-66.117187-109.226563-1.410157-.695313-2.992188-.976563-4.554688-.808594-15.511719-6.542969-32.042969-10.320312-48.855469-11.164062-.066406-.160157-.261719-.238281-.382812-.375-.296875-.851563-1.332031-1.433594-3.558594-1.433594-42.207031 0-84.734375-4.164063-124.226563 12.613281-3.242187-.101562-6.800781 1.519532-7.289062 4.445313zm68.957031 163.976562c-.109375-.402343-.253906-.792969-.367187-1.195312-1.914063-7.457031-2.730469-15.152344-2.429688-22.84375 3.941406-22.339844 7.902344-44.679688 11.886719-67.019531 1.707031-8.03125 6.988281-24.234376 5.289063-29.910157l.15625-.851562h22.714843c.0625 2.882812.640625 5.738281 1.707031 8.421875.222657.578125.382813 1.210937.597657 1.800781.152343 1.347656.1875 2.652344.433593 4.035156 5.636719 31.929688 11.285157 63.859375 16.9375 95.785157-10.160156 29.644531-20.320312 59.289062-30.480468 88.933593-8.8125-25.734375-17.625-51.453125-26.445313-77.15625zm119.953125-154.453125c.222656.101563.367188.203125.617188.304688 34.789062 14.601562 51.199218 63.59375 52.90625 96.984375v80.894531c0 12.851562 7.125 60.246094-4.191406 67.636719-6.109376 3.992187-27.042969 0-33.988282 0h-52.691406c-15.542969-1.089844-31.144531-1.089844-46.6875 0-.964844.144531-1.636719.316406-2.378906.484375l.851562-2.515625c.160156-.265625.324219-.425781.476563-.71875 21.539062-40.15625 31.265625-91.375 46.21875-134.953125l20.324219-59.230469c7.59375-15.722656 13.800781-32.078125 18.542968-48.878906zm-54.722656-19.386718c14.945312 1.511718 29.539062 5.492187 43.1875 11.773437-14.335938 41.773437-28.65625 83.554687-42.957031 125.347656l-12.261719-69.351562c-2.113281-11.90625-1.636719-24.132813 1.398438-35.839844 3.542968-10.644531 7.089843-21.285156 10.632812-31.921875zm-12.28125.75-3.515625 10.539062c-2.804687 7.59375-5.46875 14.941406-7.441406 22.320312l-3.410157 10.359376h-24.066406l-14.472656-43.339844c17.578125-.390625 35.292969.035156 52.90625.128906zm-108.285156 11.640624c1.789062-9.386718 26.691406-10.8125 42.035156-11.386718 5.347656 16.066406 10.699219 32.132812 16.058594 48.199218l-.152344.902344c-4.488281 24.507813-13.425781 52.90625-17.632812 79.769532-10.769532-31.394532-21.539063-62.792969-32.3125-94.191407l-.078126-.195312c-2.644531-7.695313-5.285156-15.394531-7.917968-23.089844zm9.886718 68.265626c9.460938 27.597656 18.921876 55.1875 28.375 82.773437 2.390626 32.578125 23.519532 71.234375 35.226563 102.996094h-78.710937c-21.265626 0-55.296876 9.027343-60.707032-14.0625-7.261718-31.011719 0-73.046875 0-105.019531 0-52.199219 7.757813-98.371094 52.839844-129.46875 2.949219 20.140624 16.75 44.996093 22.976562 62.753906zm0 0"/><path d="m50.386719 368.371094v-8.53125c0-3.679688-12.355469-1.410156-12.355469 3.308594v8.535156c0 3.675781 12.355469 1.398437 12.355469-3.3125zm0 0"/><path d="m65.277344 461.335938c-7.167969 0-13.464844.484374-14.890625-8.183594-.410157-5.308594-.410157-10.636719 0-15.941406v-34.707032c0-2.046875-12.355469-.289062-12.355469 3.3125v40.898438c-.863281 5.175781-.296875 10.488281 1.644531 15.363281 3.859375 5.621094 11.734375 4.382813 17.597657 4.382813 2.679687-.007813 14.003906-5.125 8.003906-5.125zm0 0"/><path d="m91.390625 466.378906h8.53125c3.078125.066406 6.109375-.746094 8.738281-2.347656 1.777344-1.21875 1.871094-2.621094-.699218-2.621094h-8.53125c-3.078126-.066406-6.109376.746094-8.738282 2.347656-1.777344 1.21875-1.871094 2.621094.699219 2.621094zm0 0"/></g></svg>