<svg height="512" viewBox="0 0 60 54" width="512" xmlns="http://www.w3.org/2000/svg"><g id="007---Cat" fill="none"><path id="Path" d="m43.959 5.9c-.226294-.00000996-.4243705-.15200579-.4829405-.37058883-.0585699-.21858305.0369699-.4492542.2329405-.56241117l5.491-3.167c.23893-.13584515.5427102-.05337078.6801373.18465285.137427.23802363.0569695.54234426-.1801373.68134715l-5.491 3.17c-.0761907.04310735-.162468.06519433-.25.064z" fill="#a8bdc6"/><path id="Path" d="m31.774 53.361c-.2200148.0000521-.4142096-.1437206-.4783792-.3541696-.0641697-.210449.0167669-.4381142.1993792-.5608304l12.23-8.216-15.658 9.04c-.2347029.1405531-.538787.0663884-.6824238-.1664401-.1436368-.2328284-.0734897-.5378644.1574238-.6845599l13.408-8.833-16.03 9.255c-.2347034.1364868-.5354374.0607325-.6774741-.1706544-.1420368-.2313868-.073465-.5338394.1544741-.6813456l14.428-9.4-16.553 9.56c-.2346058.1253855-.5263122.0451285-.6637604-.18262-.1374483-.2277485-.0725112-.523243.1477604-.67238l10.017-6.3-11.281 6.506c-.2349709.1292146-.5300387.050062-.6687925-.179405-.1387537-.2294671-.0717837-.5275361.1517925-.675595l13.515-8.58-14.737 8.511c-.2362075.133071-.5354329.0536509-.6745599-.1790411-.1391271-.2326919-.0674613-.5338687.1615599-.6789589l6.781-4.192-7.358 4.248c-.2341527.123715-.5241564.0433988-.6613045-.1831476-.1371481-.2265465-.0738659-.5207372.1443045-.6708524l15.588-9.887-16.54 9.549c-.2346058.1253855-.5263122.0451285-.6637604-.18262-.1374483-.2277485-.0725112-.523243.1477604-.67238l14.744-9.275-16.6 9.581c-.2341527.123715-.5241564.0433988-.6613045-.1831476-.1371481-.2265465-.0738659-.5207372.1443045-.6708524l19.015-12.069-21.36 12.332c-.2362075.133071-.5354329.0536509-.6745599-.1790411-.1391271-.2326919-.0674613-.5338687.1615599-.6789589l11.974-7.379-13.311 7.685c-.23620749.133071-.53543293.0536509-.67455995-.1790411-.13912701-.2326919-.06746125-.5338687.16155995-.6789589l15.687-9.719-17.007 9.818c-.23620749.133071-.53543293.0536509-.67455995-.1790411-.13912701-.2326919-.06746125-.5338687.16155995-.6789589l18.808-11.68-20.08 11.593c-.23620749.133071-.53543293.0536509-.67455995-.1790411-.13912701-.2326919-.06746125-.5338687.16155995-.6789589l23.033-14.307-24.272 14.013c-.23583577.1260453-.52910097.0442222-.66561588-.1857118-.13651492-.2299339-.06795177-.5265795.15561588-.6732882l15.933-9.708-16.62 9.6c-.2372063.1413849-.54411508.0637063-.68549997-.1735s-.06370631-.5441151.17349997-.6855l23.279-14.317-23.937 13.819c-.23638246.1285498-.53210687.0469768-.6691568-.184581-.13704993-.2315579-.06627089-.5300498.1601568-.675419l14.39-8.711-12.78 7.378c-.23748244.1411088-.54439125.0629824-.6855-.1745s-.06298244-.5443912.1745-.6855l21-12.843-18.832 10.872c-.15344557.09146-.34402845.0941103-.49995791.0069525s-.25351611-.2508822-.256-.4295.09051234-.3449925.24395791-.4364525l22.837-14.057-21.182 12.23c-.23486629.1223119-.52436539.0402957-.66017777-.1870309-.13581237-.2273266-.07083392-.5211193.14817777-.6699691l23.966-14.836-22.628 13.062c-.23698876.1350471-.53848394.055235-.67761558-.1793791-.13913163-.2346142-.06455352-.5374465.16761558-.6806209l11.16-6.781-10.2 5.891c-.23497088.1292146-.53003872.050062-.66879247-.179405-.13875376-.2294671-.07178369-.5275361.15179247-.675595l13.941-8.8-13.112 7.571c-.23402298.1252853-.52515789.0458598-.66313509-.1809119-.13797721-.2267718-.07469786-.5218373.14413509-.6720881l14.832-9.495-13.95 8.054c-.23693016.1419372-.54406282.0649302-.686-.172s-.06493016-.5440628.172-.686l4.232-2.623-3.479 2.009c-.23693016.1419372-.54406282.0649302-.686-.172s-.06493016-.5440628.172-.686l3.466-2.153-2.654 1.532c-.23693016.1419372-.5440628.0649301-.68599998-.172-.14193718-.2369302-.06493016-.5440628.17199998-.686l1.291-.8-.349.2c-.23354514.1328438-.53032442.0573638-.6720248-.1709163s-.07765459-.5277351.1450248-.6780837l11.535-7.7-10.818 6.242c-.23610173.1433179-.54368209.0681017-.68699998-.168s-.06810174-.5436821.16799998-.687l2.086-1.325-2.292 1.323c-.23158002.1294027-.52390906.0554223-.6660571-.1685604-.14214803-.2239828-.08462774-.5199909.1310571-.6744396l8.632-6-9.219 5.323c-.23477127.1336383-.53323995.0566316-.67405087-.1739091-.14081092-.2305408-.07304023-.5312411.15305087-.6790909-.23334816.1425022-.53788698.0711396-.6836338-.1601958-.14574682-.2313355-.07864387-.5368412.1506338-.6858042l1.13-.774-1.133.655c-.23041837.1322364-.52401892.0611893-.66848638-.1617642-.14446747-.2229535-.0893536-.5199576.12548638-.6762358l3.321-2.406-3.354 1.935c-.22590421.1277621-.51200417.0614438-.65865933-.152678-.14665516-.2141217-.10510389-.5048532.09565933-.669322l4.868-3.916-4.955 2.862c-.22809892.1338167-.52095467.0668721-.66825828-.1527586-.1473036-.2196308-.09810783-.515985.11225828-.6762414l3.144-2.427-2.99 1.727c-.22530117.13499759-.51664691.07266143-.66698388-.14270746-.15033697-.2153689-.10841017-.51034396.09598388-.67529254l3.143-2.616-2.9 1.673c-.22000702.11952609-.49450254.05789392-.64229356-.14421346-.14779102-.20210737-.1233056-.48236936.05729356-.65578654l2.465-2.234-2.069 1.2c-.21243698.12281516-.48260196.07332062-.63770361-.11682804s-.14929608-.46474858.01370361-.64817196l1.693-1.903-1.11.639c-.19169701.1065957-.4304854.07580822-.58887553-.07592494-.15839014-.15173316-.199396-.38898046-.10112447-.58507506l.573-1.131c-.21626557-.02141496-.39393287-.18007522-.43957751-.39255102-.04564464-.21247579.05118718-.43010471.23957751-.53844898l1.086-.627c.19216511-.11527009.43755508-.08860958.6004816.0652396.16292652.15384919.20359524.39730982.0995184.5957604l-.5.974 2.32-1.34c.21165187-.11638622.47624516-.06482998.62871649.12250597.15247134.18733596.14922388.45688578-.00771649.64049403l-1.687 1.9 3.466-2c.21989257-.1179958.49312141-.05578869.64025961.14577049.14713819.20155917.12312958.48074963-.05625961.65422951l-2.463 2.236 3.879-2.236c.2248726-.13159453.5131068-.06844789.6623629.14511112.149256.21355901.1094985.50593856-.0913629.67188888l-3.142 2.611 4.392-2.534c.2280989-.13381665.5209547-.06687212.6682583.15275862.1473036.21963075.0981078.51598498-.1122583.67624138l-3.146 2.428 4.119-2.378c.2280059-.14272615.5280689-.07948417.6790762.14312366.1510072.22260784.098833.52479192-.1180762.68387634l-4.867 3.91 6.115-3.53c.2304184-.13223644.5240189-.06118928.6684864.16176419.1444674.22295348.0893536.51995759-.1254864.67623581l-3.321 2.4 4.017-2.318c.2321092-.12908381.5246372-.05417632.6661393.17057796s.0825963.52091953-.1341393.67442204l-1.127.772 5.594-3.23c.2347713-.13363828.5332399-.05663158.6740509.17390914.1408109.23054072.0730402.5312411-.1530509.67909086l-.018.013 2.705-1.553c.23158-.12940266.5239091-.05542235.6660571.16856044.142148.2239828.0846277.51999085-.1310571.67443956l-8.629 6 12.428-7.183c.2361017-.14331788.5436821-.06810171.687.16800001s.0681017.54368209-.168.68699999l-2.085 1.324 3.616-2.088c.234721-.14552702.542973-.07322101.6885.16150001.145527.23472101.073221.54297295-.1615.68849999l-11.534 7.699 14.167-8.175c.2356087-.12976469.5316571-.04987998.6700067.18079237.1383496.23067236.0694166.52946069-.1560067.67620763l-1.306.811 2.3-1.33c.2362075-.13307102.5354329-.05365088.6745599.17904108.1391271.23269196.0674613.53386873-.1615599.67895892l-3.449 2.148 4.454-2.569c.2369302-.14193718.5440628-.06493016.686.172s.0649302.54406282-.172.686l-4.226 2.619 5.135-2.965c.2354116-.13795832.5379577-.06170795.6798637.17134529.1419059.23305325.070765.53684142-.1598637.68265471l-14.831 9.489 16.277-9.4c.2363779-.14276561.5437344-.06687787.6865.1695s.0668779.54373439-.1695.6865l-13.95 8.8 26.6-15.355c.2369888-.13504713.5384839-.05523499.6776156.17937913.1391316.23461413.0645535.53744647-.1676156.68062087l-11.158 6.784 12.4-7.16c.2374824-.14248946.5455105-.06548244.688.172s.0654824.54551053-.172.688l-23.963 14.829 23.694-13.68c.2372063-.1413849.5441151-.0637063.6855.1735s.0637063.5441151-.1735.6855l-22.821 14.05 22.254-12.852c.1536242-.09128136.3442768-.09367127.5001409-.00626949s.2532602.25131686.2555.43c.0022399.17868314-.0910167.34498813-.2446409.43626949l-21.019 12.856 20.306-11.722c.2377586-.14055644.5444435-.06175855.685.17600002.1405564.23775857.0617586.5444435-.176.68499998l-14.361 8.689 13.483-7.784c.1534456-.09145999.3440284-.09411027.4999579-.0069525.1559295.08715776.2535161.25088224.256.4295.0024839.17861775-.0905123.34499251-.2439579.4364525l-23.282 14.318 22.043-12.727c.2369888-.1350471.5384839-.055235.6776156.1793791.1391316.2346142.0645535.5374465-.1676156.6806209l-15.929 9.705 14.456-8.346c.2362075-.133071.5354329-.0536509.6745599.1790411.1391271.2326919.0674613.5338687-.1615599.6789589l-23.039 14.307 20.149-11.629c.2362075-.133071.5354329-.0536509.6745599.1790411.1391271.2326919.0674613.5338687-.1615599.6789589l-18.8 11.678 17.9-10.335c.1532669-.0918173.3438754-.094893.5000249-.0080685.1561495.0868244.2541174.2503583.257.429s-.089758.3452512-.2430249.4370685l-15.698 9.723 15.642-9.03c.2372063-.141661.544339-.0642063.686.173s.0642063.544339-.173.686l-11.969 7.375 11.812-6.82c.2363779-.1430418.5439582-.0673779.687.169s.0673779.5439582-.169.687l-19.012 12.068 18.829-10.871c.2363779-.1427656.5437344-.0668778.6865.1695.1427656.2363779.0668779.5437344-.1695.6865l-14.751 9.278 14.514-8.379c.2349709-.1292146.5300387-.050062.6687925.179405.1387537.2294671.0717837.5275361-.1517925.675595l-15.588 9.886 15.357-8.865c.2357179-.1278172.530297-.0469384.667702.1833224.137405.2302607.0687118.5279174-.155702.6746776l-6.8 4.2 6.535-3.772c.2341527-.123715.5241564-.0433988.6613045.1831476.1371481.2265465.0738659.5207372-.1443045.6708524l-13.5 8.572 13.414-7.743c.2363779-.1427656.5437344-.0668779.6865.1695s.0668779.5437344-.1695.6865l-10.025 6.308 9.952-5.745c.2342478-.1308833.5300435-.0535271.6702262.1752769s.074765.527467-.1482262.6767231l-14.429 9.4 14.581-8.421c.2347029-.1405531.538787-.0663884.6824238.1664401.1436368.2328284.0734897.5378644-.1574238.6845599l-13.406 8.831 13.7-7.909c.23265-.1288599.5254615-.0530472.6663444.1725252s.0805297.5219566-.1373444.6744748l-12.228 8.215 12.674-7.316c.2324067-.1328499.5282158-.0590851.6710333.1673329s.0819688.5251514-.1380333.6776671l-9.6 6.583 10.14-5.854c.2325262-.1307666.5267591-.0559509.6685809.1700024s.0812744.5234503-.1375809.6759976l-.265.18.3-.172c.226507-.1291681.5142486-.0625855.6609917.1529516.1467432.2155372.103215.5076567-.0999917.6710484l-1.991 1.577c.2295318-.0080431.4350238.1413196.4982135.3621286s-.0321761.4562693-.2312135.5708714l-5.363 3.1c-.226507.1291681-.5142486.0625855-.6609917-.1529516-.1467432-.2155372-.103215-.5076567.0999917-.6710484l1.678-1.329-6.068 3.5c-.2328603.1351428-.5309189.0616362-.6742423-.1662803-.1433233-.2279164-.080443-.5283964.1422423-.6797197l.263-.18-9.612 5.55c-.2324067.1328499-.5282158.0590851-.6710333-.1673329s-.0819688-.5251514.1380333-.6776671l9.6-6.583-14.258 8.23c-.0758978.0441549-.1621931.067282-.25.067z" fill="#a8bdc6"/><path id="Path" d="m28.32 53.41c-.2200148.0000521-.4142096-.1437206-.4783792-.3541696-.0641697-.210449.0167669-.4381142.1993792-.5608304l6.229-4.19-8.248 4.76c-.2311923.1280141-.5220815.054013-.6639947-.1689178-.1419132-.2229309-.0858401-.5178012.1279947-.6730822l8.6-5.994-10.82 6.248c-.1523738.093425-.3430146.0984627-.5001098.0132156-.1570953-.085247-.2567785-.2478279-.2615-.4265-.0047215-.178672.086236-.3462906.2386098-.4397156l3.083-2-4.075 2.353c-.2319831.1309881-.5259285.0570795-.6683699-.1680527-.1424414-.2251321-.0833463-.52241.1343699-.6759473l7.975-5.523-9.5 5.485c-.2354116.1379583-.5379577.061708-.6798637-.1713453-.1419059-.2330532-.070765-.5368414.1598637-.6826547l.249-.159-.754.435c-.2302873.1343427-.5254749.0643663-.6709518-.1590541-.1454768-.2234204-.0900639-.5216852.1259518-.6779459l7.582-5.529-8.735 5.049c-.2314518.1313128-.5252013.0583356-.6682918-.1660259-.1430904-.2243616-.0853808-.5214879.1312918-.6759741l4.577-3.209-5.494 3.171c-.2292016.1303039-.5201978.0602449-.6649792-.1600976s-.0935911-.5152436.1169792-.6739024l4.952-3.676-7.063 4.077c-.2314518.1313128-.5252013.0583356-.6682918-.1660259-.1430904-.2243616-.0853808-.5214879.1312918-.6759741l2.8-1.965-4.119 2.373c-.2318603.1330617-.527371.0602043-.6708066-.1653857-.1434357-.22559-.0840493-.5240996.1348066-.6776143l1.789-1.246-2.845 1.641c-.23093065.1317312-.52456739.0597083-.66833375-.1639283s-.0873821-.520673.12833375-.6760717l1.8-1.281-2.668 1.544c-.2187434.1297091-.50000209.0745628-.6535686-.128145s-.13051364-.4883932.0535686-.663855l2.651-2.565-4.1 2.367c-.20506065.1181262-.46485129.0763143-.62249336-.1001867-.15764207-.1765011-.16995634-.4393467-.02950664-.6298133l1.245-1.691-2.331 1.344c-.17276442.0993777-.38804874.0866598-.5479108-.032368-.15986206-.1190277-.2337658-.3216291-.1880892-.515632l.323-1.357-1.174.678c-.23616544.1367354-.53834717.0588535-.679-.175l-.647-1.075c-.24257853.0696338-.49902125-.0524256-.5979454-.2846049s-.00931307-.5016811.2089454-.6283951l.32-.186c.23638809-.137406.53930971-.0594483.68.175l.639 1.062 1.755-1.013c.17293849-.0996235.38855784-.0868596.54853505.0324712.15997722.1193309.23366634.3223691.18746495.5165288l-.321 1.356 3.391-1.958c.20511376-.1192627.46580091-.0779483.62398755.0988913s.17030735.4405018.02901245.6311087l-1.245 1.691 5.542-3.2c.2187434-.1297091.5000021-.0745628.6535686.128145s.1305136.4883932-.0535686.663855l-2.65 2.565 8.348-4.82c.2309306-.1317312.5245674-.0597083.6683337.1639283.1437664.2236366.0873821.520673-.1283337.6760717l-1.81 1.286 3.884-2.24c.2311923-.1280141.5220815-.054013.6639947.1689178.1419132.2229309.0858401.5178012-.1279947.6730822l-1.785 1.244 3.613-2.086c.230817-.1267753.5204005-.0527915.6621232.1691615.1417226.221953.0869993.5157856-.1251232.6718385l-2.795 1.959 4.861-2.8c.2292016-.1303039.5201978-.0602449.6649792.1600976s.0935911.5152436-.1169792.6739024l-4.952 3.676 7.814-4.51c.230817-.1267753.5204005-.0527915.6621232.1691615.1417226.221953.0869993.5157856-.1251232.6718385l-4.578 3.21 7.019-4.051c.2302873-.1343427.5254749-.0643663.6709518.1590541.1454768.2234204.0900639.5216852-.1259518.6779459l-7.581 5.528 11.025-6.365c.2347713-.1336383.5332399-.0566316.6740509.1739091.1408109.2305408.0730402.5312411-.1530509.6790909l-.244.156 1.66-.958c.2319831-.1309881.5259285-.0570795.6683699.1680527.1424414.2251321.0833463.52241-.1343699.6759473l-7.976 5.523 10.31-5.953c.2355494-.1444224.5435775-.0705494.688.165.1444224.2355495.0705494.5435775-.165.688l-3.082 2 4.2-2.426c.2318603-.1330617.527371-.0602043.6708066.1653857.1434357.22559.0840493.5240996-.1348066.6776143l-8.6 5.995 10.672-6.161c.2334461-.1352991.5321345-.0609722.6749447.1679561.1428102.2289282.0782242.5298733-.1459447.6800439l-6.225 4.183 7.92-4.572c.2309306-.1317312.5245674-.0597083.6683337.1639283.1437664.2236366.0873821.520673-.1283337.6760717l-7.962 5.667 10.665-6.157c.2333291-.1269664.5252099-.0493179.6646076.1768043.1393976.2261221.0776459.5217747-.1406076.6731957l-2.162 1.422 3.844-2.219c.2260575-.1301558.5141897-.0646595.6617686.1504288.1475789.2150884.1050107.5074886-.0977686.6715712l-2.561 2.067 5.263-3.038c.2238916-.1275836.5080784-.0641108.6564103.1466086.148332.2107193.1122202.4996603-.0834103.6673914l-1.483 1.257.516-.3c.1547852-.0907422.3463247-.0915917.5019087-.0022259.155584.0893657.2513568.2552442.2509624.4346667-.0003945.1794226-.0968957.3448784-.2528711.4335592l-5.363 3.1c-.2238916.1275836-.5080784.0641108-.6564103-.1466086-.148332-.2107193-.1122202-.4996603.0834103-.6673914l1.486-1.257-5.952 3.432c-.2257586.1294404-.5130594.0640705-.6605892-.1503047-.1475298-.2143751-.1059565-.5060712.0955892-.6706953l2.559-2.068-13.423 7.749c-.2341443.133112-.5316521.0568382-.672871-.1725078-.1412189-.2293459-.075396-.5293391.148871-.6784922l2.152-1.413-4.651 2.686c-.2312043.1356861-.5282776.0648879-.6734329-.160492-.1451554-.2253799-.0867349-.525133.1324329-.679508l7.966-5.67-11.417 6.591c-.0758978.0441549-.1621931.067282-.25.067z" fill="#d5e4e8"/><path id="Path" d="m29.49 46.377c-.2064157.0002477-.391767-.1263742-.4665923-.3187506s-.0237427-.41096.1285923-.5502494l.618-.565-1.412.815c-.2256086.1271264-.5109479.0609576-.657579-.1524896-.1466312-.2134471-.106025-.5035297.093579-.6685104l.429-.348-.643.371c-.2203354.1244491-.4989119.0646624-.6487785-.1392378-.1498666-.2039001-.1237692-.4876223.0607785-.6607622l2.808-2.584-3.035 1.752c-.2285788.1329729-.5211739.064966-.667677-.1551861-.1465031-.220152-.0962484-.5163129.114677-.6758139l.625-.475-.11.064c-.227731.1281621-.5157443.059345-.6609391-.1579231-.1451949-.217268-.0985947-.509699.1069391-.6710769l.845-.649-.33.19c-.2078536.1182361-.47033.0727469-.6262743-.1085383-.1559442-.1812852-.1616968-.4476121-.0137257-.6354617l1.525-1.915-.949.548c-.1731127.0998715-.3890689.0870626-.5491621-.0325722-.1600931-.1196349-.2335666-.3231117-.1868379-.5174278l.24-.994c-.1735447-.0749033-.2900154-.2412689-.3010158-.4299677s.0853502-.367471.2490158-.4620323l.5-.286c.1731635-.1005217.3895963-.0880468.5500635.0317049.1604673.1197517.2340209.3236845.1869365.5182951l-.175.723 2.226-1.285c.2083736-.1166767.47017-.0697075.6249871.1121295.154817.181837.1594302.4477734.0110129.6348705l-1.525 1.914 4.631-2.673c.2279124-.1308241.5182022-.0628918.6643976.1554793.1461953.2183711.0983971.512647-.1093976.6735207l-.847.65.413-.238c.2285788-.1329729.5211739-.064966.667677.1551861.1465031.220152.0962484.5163129-.114677.6758139l-.634.48.082-.047c.2203354-.1244491.4989119-.0646624.6487785.1392378.1498666.2039001.1237692.4876223-.0607785.6607622l-2.806 2.58 2.222-1.283c.2257586-.1294404.5130594-.0640705.6605892.1503047.1475298.2143751.1059565.5060712-.0955892.6706953l-.476.385c.2246322-.0783629.4733716.0124061.5947376.2170293.1213661.2046231.0817436.4664253-.0947376.6259707l-.769.7c.1933526-.014092.3781856.0818046.478.248.1382327.2388784.0567713.5445824-.182.683l-3.608 2.087c-.0760084.0438886-.1622305.0669961-.25.067z" fill="#8e234c"/><path id="Path" d="m18.177 32.4c-.2119324.0006938-.4012793-.1322994-.4725318-.3318963s-.0089298-.4224316.1555318-.5561037l1.974-1.612-3.364 1.938c-.2231941.1282474-.5072862.0660776-.6565145-.1436697s-.1148202-.4985197.0795145-.6673303l3.782-3.277-4.908 2.833c-.225024.1298327-.5119893.0657046-.6603401-.147566s-.108657-.5046224.0913401-.670434l3.716-3.065-4.314 2.489c-.2293391.1285228-.5190351.0574922-.6629121-.1625395s-.0927858-.5139004.1169121-.6724605l1.29-.947-1.385.8c-.2283835.1299972-.5184238.0610156-.6638282-.1578813-.1454044-.2188968-.0965443-.5129964.1118282-.6731187l1.732-1.312-1.816 1.048c-.2280542.1290416-.517047.0601323-.6623353-.1579314-.1452882-.2180638-.0975826-.5113034.1093353-.6720686l.991-.753-.965.557c-.2111163.1217329-.4792426.0735321-.6347434-.1141072s-.1530747-.4600529.0057434-.6448928l1.339-1.559-1.184.683c-.23893.1358451-.5427102.0533708-.6801373-.1846528-.137427-.2380237-.0569695-.5423443.1801373-.6813472l3.726-2.151c.2108451-.1204916.4777811-.0720607.6328586.1148212.1550774.1868819.1534499.458171-.0038586.6431788l-1.34 1.561 5.263-3.036c.2283835-.1299972.5184238-.0610156.6638282.1578813.1454044.2188968.0965443.5129964-.1118282.6731187l-.988.751 1.925-1.111c.228924-.1342308.5228351-.0662362.6695479.1548961s.0951128.5183603-.1175479.6771039l-1.741 1.313 2.338-1.35c.2305566-.1387484.5295716-.0701469.6765894.1552266.1470179.2253735.0893046.5266795-.1305894.6817734l-1.284.943 1.615-.933c.2254575-.1330437.5153687-.0696598.6647344.1453323.1493656.2149921.1076129.5087994-.0957344.6736677l-3.718 3.066 4.242-2.449c.2231941-.1282474.5072862-.0660776.6565145.1436697s.1148202.4985197-.0795145.6673303l-3.78 3.277 4.195-2.422c.2256098-.1311968.5141774-.0668035.6626093.1478598.1484318.2146634.1067938.5073817-.0956093.6721402l-1.977 1.612 2.036-1.175c.2174475-.1222843.4917629-.0655717.6428937.1329134.1511308.1984852.1328285.4780031-.0428937.6550866l-.895.889.64-.369c.2374252-.1242009.5305531-.0391619.6646466.1928199.1340935.2319817.0614797.5284321-.1646466.6721801l-3.966 2.289c-.217123.1206668-.4899085.063641-.6405105-.1338986s-.1333491-.4756874.0405105-.6531014l.893-.887-4.071 2.35c-.0752832.0463029-.1616297.071516-.25.073z" fill="#fff"/><path id="Path" d="m42.162 32.365c-.2099802.0001646-.3976912-.1308859-.469899-.3280602-.0722078-.1971744-.013526-.4184572.146899-.5539398l1.219-1.032-2.969 1.714c-.2279124.1308241-.5182022.0628918-.6643976-.1554793-.1461953-.2183711-.0983971-.512647.1093976-.6735207l2.932-2.251-4.343 2.508c-.2319831.1309881-.5259285.0570795-.6683699-.1680527-.1424414-.2251321-.0833463-.52241.1343699-.6759473l.719-.5-1.424.821c-.2319831.1309881-.5259285.0570795-.6683699-.1680527-.1424414-.2251321-.0833463-.52241.1343699-.6759473l.854-.59-1.488.859c-.2299138.1328235-.5235501.0627731-.6687427-.1595365s-.0912979-.5193359.1227427-.6764635l3.284-2.408-4.015 2.317c-.2280542.1290416-.517047.0601323-.6623353-.1579314-.1452882-.2180638-.0975826-.5113034.1093353-.6720686l3.826-2.923-2.717 1.569c-.2296891.1296297-.5205695.0585592-.6646041-.1623819s-.0916869-.5157667.1196041-.6736181l1.239-.908c-.193813-.0278748-.3535186-.1663161-.4086173-.3542113s.0045509-.3906607.1526173-.5187887l1.911-1.657c-.0472278-.0383388-.086904-.0851364-.117-.138-.1382327-.2388784-.0567713-.5445824.182-.683l2.68-1.547c.2231941-.1282474.5072862-.0660776.6565145.1436697s.1148202.4985197-.0795145.6673303l-.629.545 2.353-1.358c.2296891-.1296297.5205695-.0585592.6646041.1623819s.0916869.5157667-.1196041.6736181l-.448.328 1.442-.832c.2280542-.1290416.517047-.0601323.6623353.1579314.1452882.2180638.0975826.5113034-.1093353.6720686l-3.826 2.923 5.222-3.015c.2299138-.1328235.5235501-.0627731.6687427.1595365s.0912979.5193359-.1227427.6764635l-3.282 2.407 4.285-2.474c.2327682-.1379387.5330334-.0656905.677577.1630348s.0809181.5309351-.143577.6819652l-.86.594 1.32-.763c.2327682-.1379387.5330334-.0656905.677577.1630348s.0809181.5309351-.143577.6819652l-.71.491.321-.186c.228437-.1350478.5225838-.0681125.6700912.1524842s.0969864.5180027-.1150912.6775158l-2.931 2.252 1.185-.684c.2243015-.1303348.511027-.0674761.6602307.1447421.1492038.2122182.1113211.5032983-.0872307.6702579l-1.916 1.623c.1191576.0371194.2196604.1183085.281.227.1375532.2386555.0561721.5436114-.182.682l-3.719 2.15c-.0760009.0436831-.1623469.0661331-.25.065z" fill="#fff"/><path id="Path" d="m49.389 14.543c-.1862547-.0000472-.357045-.1036174-.4431857-.2687555-.0861408-.1651381-.073352-.3644684.0331857-.5172445l1.4-2-1.879 1.081c-.2144477.1242599-.4875608.0726667-.6419004-.1212601-.1543397-.1939268-.1433197-.4716518.0259004-.6527399l2.216-2.386-2.887 1.667c-.2277686.1327124-.5194462.0657934-.6665848-.1529333s-.0991876-.5141157.1095848-.6750667l.191-.148-.377.218c-.2235892.1309392-.5101637.0693762-.6602503-.1418375-.1500866-.2112138-.1139527-.5020905.0832503-.6701625l.953-.823-.493.284c-.23893.13584515-.5427102.05337078-.6801373-.18465285-.137427-.23802363-.0569695-.54234426.1801373-.68134715l5.061-2.922c.2235892-.13093921.5101637-.06937616.6602503.14183755s.1139527.50209045-.0832503.67016245l-.952.823 2.127-1.229c.2277686-.13271241.5194462-.06579338.6665848.15293332.1471386.21872669.0991876.51411564-.1095848.67506668l-.518.4c.2028896-.00929414.3912428.10506558.476591.28936501.0853482.18429942.0507314.40191545-.087591.55063499l-2.213 2.388.944-.545c.2028685-.11698449.4597544-.07749208.6181161.09502623.1583617.17251827.1757685.43183857.0418839.62397377l-1.739 2.489c.0753158.0436586.137757.1064448.181.182.1380647.2391402.0561341.5449248-.183.683l-1.1.638c-.0774748.0447454-.1655365.0678832-.255.067z" fill="#e15687"/><path id="Path" d="m9.726 14.2c-.20681281-.0000827-.39223143-.1274826-.46647291-.3205104-.07424147-.1930279-.02198222-.4118423.13147291-.5504896l1.082-.977-1.207.7c-.21496059.1258651-.4897809.0743043-.64450016-.1209187s-.14214014-.4745552.02950016-.6550813l1.808-1.921-1.924 1.113c-.20587111.1185713-.46675133.0759036-.6241207-.1020765-.15736938-.1779802-.16776883-.4421219-.0248793-.6319235l1.536-2.034-1.532.88c-.21631472.12634306-.49273892.07310819-.64665886-.12453613s-.13782208-.47868729.03765886-.65746387l.168-.173c-.20240853.03180694-.40373829-.06309424-.50801762-.23946521-.10427933-.17637096-.09040169-.39851352.03501762-.56053479l.205-.258c-.16194283-.00387034-.31197578-.08595516-.40256332-.22024723-.09058755-.13429206-.11050308-.30414839-.05343668-.45575277l.181-.485c-.1934362-.05605977-.33435619-.22270154-.35750732-.42276225s.07598644-.39448207.25150732-.49323775l.73-.422c.18288012-.10558245.41237456-.08488851.57341712.05170609.16104256.13659459.21890789.35963617.14458288.55729391l-.1.255.682-.392c.20797235-.120645.47236564-.07618507.62944055.10584566.1570749.18203073.16235044.45008421.01255945.63815434l-.081.1.6-.345c.2160105-.1246636.4908577-.07107952.6442199.12559681.1533622.19667632.1383361.47629469-.0352199.65540319l-.086.089.537-.31c.2056252-.11760068.4655534-.07477434.6225815.10257788s.1680579.44055394.0264185.63042212l-1.536 2.04 2.736-1.579c.2149606-.12586506.4897809-.07430432.6445002.12091869.1547192.195223.1421401.4745552-.0295002.65508131l-1.809 1.921 2.363-1.364c.220007-.11952609.4945025-.05789392.6422936.14421346.147791.20210737.1233056.48236936-.0572936.65578654l-2.637 2.381c.0124743.0162111.0238337.0332503.034.051.1380647.2391402.0561341.5449248-.183.683l-1.892 1.097c-.07633116.0425458-.16263416.0639489-.25.062z" fill="#e15687"/><path id="Path" d="m33.187 43.34c-.2014903.0003745-.3835173-.1202295-.4617267-.3059222s-.0373171-.400185.1037267-.5440778l2.088-2.133-3.355 1.937c-.2276588.1408566-.5258695.0774065-.6764647-.1439308-.1505951-.2213374-.1001348-.5220187.1144647-.6820692l.574-.451-.712.411c-.2192049.1250239-.4972153.0671074-.6482603-.1350489-.1510451-.2021563-.1277753-.4851803.0542603-.6599511l2.518-2.4-2.472 1.427c-.2374252.1242009-.5305531.0391619-.6646466-.1928199-.1340935-.2319817-.0614797-.5284321.1646466-.6721801l6.1-3.525c.2209688-.1391878.5118365-.0848763.6676883.1246724.1558519.2095487.1241864.5037444-.0726883.6753276l-2.52 2.4 3.173-1.832c.2271272-.1307942.5167067-.0640046.6636035.1530559.1468968.2170604.1012506.5107158-.1046035.6729441l-.576.451.424-.244c.2162377-.1247517.4913592-.0708905.6445905.1261931.1532312.1970836.1376138.4769924-.0365905.6558069l-2.077 2.129 1.433-.827c.1549945-.0985297.351531-.1041539.5119064-.0146489.1603754.0895049.2587712.2597296.2562855.4433739s-.1054527.3511436-.2681919.436275l-4.592 2.652c-.0770835.0449221-.1647829.0684007-.254.068z" fill="#d5e4e8"/><path id="Path" d="m26.719 43.354c-.1959997.000243-.3740666-.1140547-.4554639-.2923534-.0813972-.1782988-.0511122-.3877137.0774639-.5356466l1.272-1.463-3.191 1.837c-.228242.1318458-.5196375.063862-.6659708-.1553737-.1463332-.2192358-.0973404-.5144185.1119708-.6746263l3.605-2.758-4.373 2.526c-.2256086.1271264-.5109479.0609576-.657579-.1524896-.1466312-.2134471-.106025-.5035297.093579-.6685104l2.941-2.384-3.046 1.759c-.2285788.1329729-.5211739.064966-.667677-.1551861-.1465031-.220152-.0962484-.5163129.114677-.6758139l.3-.232c-.1900589.0503034-.3920508-.0140376-.518-.165-.1551979-.1886239-.1513924-.4617729.009-.646l1.343-1.54c-.1948014.0160304-.381629-.0806849-.481-.249-.1373847-.2389169-.0555349-.543953.183-.682l2.308-1.333c.2115312-.1216183.4799523-.0727945.6351088.1155214.1551565.188316.1517294.4611197-.0081088.6454786l-1.249 1.438 4.016-2.313c.2285788-.1329729.5211739-.064966.667677.1551861.1465031.220152.0962484.5163129-.114677.6758139l-.2.148 1.7-.98c.2256086-.1271264.5109479-.0609576.657579.1524896.1466312.2134471.106025.5035297-.093579.6685104l-2.939 2.38 5.552-3.2c.228242-.1318458.5196375-.063862.6659708.1553737.1463332.2192358.0973404.5144185-.1119708.6746263l-4.2 3.211c.1851215.0199199.3438414.141052.4119027.3143564.0680614.1733044.0341895.3700725-.0879027.5106436l-1.353 1.557c.1967882-.016485.3860325.0794917.489.248.1373847.2389169.0555349.543953-.183.682l-2.309 1.334c-.0755107.0442088-.1615005.0673466-.249.067z" fill="#d5e4e8"/><path id="Path" d="m29.49 39.335c-.192566-.0000411-.3679953-.1106638-.4510261-.2844095s-.0589054-.379733.0620261-.5295905l1.727-2.142-2.635 1.521c-.2130048.1213721-.4825903.0704054-.6365857-.1203501-.1539953-.1907555-.1469715-.4650266.0165857-.6476499l.889-.979-1.6.924c-.2015044.1164107-.4566801.0784121-.6155242-.0916586-.1588441-.1700706-.1793551-.4272434-.0494758-.6203414l.416-.618-.161.093c-.2374252.1242009-.5305531.0391619-.6646466-.1928199-.1340935-.2319817-.0614797-.5284321.1646466-.6721801l2.028-1.175c.2015534-.1174623.4575499-.0799364.616911.0904316.159361.1703679.1797312.4282971.049089.6215684l-.416.616 2.5-1.445c.2130048-.1213721.4825903-.0704054.6365857.1203501.1539953.1907555.1469715.4650266-.0165857.6476499l-.889.98 2.184-1.261c.2083669-.1203944.4729381-.0752795.6296306.1073652.1566924.1826446.1610497.4509994.0103694.6386348l-1.728 2.143 1.867-1.078c.23893-.1358451.5427102-.0533708.6801373.1846528.137427.2380237.0569695.5423443-.1801373.6813472l-4.184 2.421c-.0760084.0438886-.1622305.0669961-.25.067z" fill="#e15687"/><g fill="#262626"><path id="Shape" d="m.564 41.525c.045 0 .09.007.135.012.107.808.88 1.518 2.591 2.713 4.405 3.077 9.868 3.036 14.136 5.968 4.42 3.037 10.685 3.521 15.855 2.87 5.227-.659 8.411-3.62 13.185-5.143 3.922-1.252 7.475-1.855 10.85-4.442.7455891-.4878061 1.3805893-1.1265536 1.864-1.875.543-.227.7-.925.14-1.032-.3719992-.9998859-.8793951-1.9440191-1.508-2.806-3.641-6-3.339-12.9-5.531-19.355 2.6719615-2.8786481 4.4406688-6.4779519 5.087-10.352.266-1.539 1.138-5.734-.068-7.054-1.389-1.521-6.353.209-7.867.782-2.6776867 1.05361501-5.1465078 2.57533801-7.291 4.494-7.541551-3.69228736-16.368674-3.68009928-23.9.033-2.1888041-2.02960711-4.7384417-3.63122861-7.517-4.722-1.753-.652-6.4-2.265-7.987-.428-1.19 1.376-.413 5.224-.171 6.788.59198911 4.0313532 2.39093877 7.7889267 5.16 10.778-2.192 6.457-1.89 13.356-5.527 19.351-.63114898.8794432-1.12760982 1.848098-1.473 2.874-.381.208-.647.493-.163.546zm44.118 6.147c-.9054278.3900963-1.7492695.9098758-2.505 1.543-5.2193815 3.2600115-11.530228 4.2848529-17.513 2.844-2.4545303-.584886-4.7769877-1.6267012-6.846-3.071-2.529-1.684-2.013-1.171-5.367-1.916-2.7-.6-8.362-2.251-9.924-5.059-.05366045-.1035642-.09719578-.2120676-.13-.324 2.51627922.2317662 5.04979745.2022755 7.56-.088 3.856-.5 7.441-2.061 11.348-2.192.0542354 1.0092494.4798807 1.9627661 1.195 2.677.884308.8811015 2.1028888 1.3424812 3.349 1.268.746 1.922 2.183 3.211 4.372 3 1.6831177-.1820225 3.127289-1.2805472 3.752-2.854 1.3055516.0123576 2.5577332-.5174115 3.458-1.463.6509434-.6718924 1.080835-1.5267905 1.232-2.45 3.564.189 6.857 1.52 10.373 2.07 2.9035212.4080261 5.8460735.4590724 8.762.152-.0173498.0975899-.0437986.1933411-.079.286-1.767 4.078-9.819 4.525-13.037 5.577zm-14.8-6.509c.6200592 1.0576837 1.6293321 1.8307896 2.812 2.154-.564 1.419-1.663 2.841-3.436 2.084-.9336233-.4860936-1.6311192-1.3289312-1.934-2.337 1.0277506-.3557591 1.9209324-1.0195349 2.558-1.901zm.872-2.068c.5120089-.2496548.968434-.5999662 1.342-1.03.77-.778 2.34-1.147 2.605-2.346 1.0227165.2904301 1.8597914 1.0268131 2.2782139 2.0041674.4184225.9773542.373518 2.0913281-.1222139 3.0318326-1.696 3.222-5.807 1.401-6.103-1.655zm2.512-3.143c-.173.74-.947.872-1.479 1.28-.312.24-.886.97-1.178 1.094-.95.4-1.046-.2-1.526-.686-.4975725-.3958469-1.0312533-.7440452-1.594-1.04-2.255-1.614 1.38-2.329 2.593-2.258 1.032.063 2.962.328 3.184 1.61zm-7.963.176c.187 1.058 1.912 1.492 2.584 2.227.3484132.4437017.8334857.7600534 1.38.9.0032814 1.5113897-.9680126 2.8526234-2.405 3.321-.1573152-.0100748-.3152021.0064915-.467.049-.1232269.0127822-.2471602.0174589-.371.014-1.2210711-.1568346-2.2866244-.9048537-2.849-2-.5509465-.9662005-.6198058-2.1340604-.1862201-3.1583109.4335856-1.0242504 1.3200143-1.7877179 2.3972201-2.0646891-.0986394.2235535-.1285747.4713897-.086.712zm-16.183-17.482c.06009974-.0497314.09634794-.1225727.09977772-.2005049s-.02627921-.1536763-.08177772-.2084951c-3.438-3.686-6.038-9.537-5.403-14.737.677-5.514 11.2 1.621 13.508 3.743.0612591.05222662.1343974.0886241.213.106.2514438.18234128.5868956.19881961.855.042 7.3020077-3.80944241 16.0056094-3.80645469 23.305.008.431.23 1.389-.227 1.3-.6 1.812075-1.68876442 3.8829787-3.07634415 6.134-4.11 1.66-.727 5.762-2.541 7.136-.565.236.341.087 1.529.09 1.926.1367295 5.35132579-1.8035272 10.547802-5.414 14.5-.017.019-.013.031-.023.048-.0057919.0095841-.0108079.0196161-.015.03-.01025.0196741-.0144266.041949-.012.064 0 .014-.013.028-.008.042 1.637 4.769 1.623 9.834 3.295 14.58.562 1.6 3.227 5.029 3.689 7.385-3.8265298.353223-7.6850672.0786025-11.423-.813-2.503858-.733126-5.0757364-1.2099086-7.676-1.423-.0477654-.5656282-.2096926-1.1157045-.476-1.617-.8567436-1.4940256-2.4632798-2.398446-4.185-2.356-1.763-1.373-6.311-1.138-8.052.21-1.439508.0695799-2.7888437.7215062-3.738 1.806-.499712.6127559-.8149616 1.3549276-.909 2.14-2.136387.1609251-4.2507179.5398963-6.31 1.131-4.1486164 1.0955984-8.45787476 1.4513746-12.73 1.051.1-2.255 2.7-5.392 3.37-7.164 1.851-4.856 1.826-10.097 3.461-15.018z"/><path id="Shape" d="m18.719 20.654c-2.125.021-8.527 1.425-8.367 4.216.091 1.608 2.06 4.051 3.12 5.224 1.1582349 1.4228241 2.8953511 2.2487807 4.73 2.249 2.131.01 8.324-1.362 8.432-4.075.0270989-.0408908.0323347-.0925.014-.138-1.465-3.389-3.736-7.516-7.929-7.476zm2.881 10.414c-2.272.736-4.463.733-6.257-.96-1.076-1.015-3.582-3.945-3.546-5.627.028-1.285 1.99-1.93 2.918-2.308 2.291-.931 4.692-1.128 6.662.476 1.788 1.457 2.92 3.79 3.82 5.869.057 1.443-2.613 2.232-3.597 2.55z"/><path id="Shape" d="m33.368 28.559c.1 3.046 7.176 4.2 9.493 3.645 1.4342274-.3964126 2.7119313-1.2241273 3.66-2.371 1.055-1.175 2.949-3.578 3.126-5.255.317-3.018-6.943-4.245-9.128-3.852-3.66.66-5.72 4.389-7.093 7.53-.0415736.046029-.0671766.1042495-.073.166-.0229003.0445474-.0169971.0984633.015.137zm5.425-6.314c2.142-1.3 4.406-.727 6.536.2.978.425 2.793 1.03 2.872 2.332.094 1.539-2.4 4.554-3.508 5.518-2.1 1.821-4.364 1.334-6.662.424-.913-.361-3.282-1.174-3.232-2.488.824-1.911 2.121-4.852 3.994-5.986z"/><path id="Shape" d="m49.067 14.905c.241.4 1.041.186 1.268-.112 1.9413219-2.5895516 3.1190821-5.67078018 3.4-8.895 0-.028-.011-.045-.012-.07s.009-.042 0-.065-.017-.033-.023-.054c-.0065992-.02051434-.0153126-.04028724-.026-.059-.864-2.65-7.667 2.45-8.741 3.35-.255.215-.355.482-.083.729 1.6500867 1.5109003 3.0707364 3.2546241 4.217 5.176zm3.183-8.777c-.2344313 2.57805695-1.0668042 5.0659306-2.431 7.266-.9949394-1.4925528-2.1552959-2.8679392-3.459-4.1 1.475-1.045 5.598-3.707 5.89-3.166z"/><path id="Shape" d="m10.982 14.455c1.1589107-1.9320193 2.5944709-3.683935 4.261-5.2.059-.054.1-.111.032-.172-1.049-.883-8.22-6.283-8.985-2.991 0 0 .007.008.007.013s-.02.03-.019.046c.26284826 3.12597163 1.39444258 6.1161932 3.267 8.633.22.288 1.278-.067 1.437-.329zm2.447-5.291c.343.745-1.012 1.69-1.545 2.308-.5467849.6459642-1.0556396 1.3231014-1.524 2.028-1.47370011-2.305952-2.3728478-4.9317239-2.622-7.657.231.234 5.328 2.531 5.691 3.321z"/><path id="Path" d="m18.268 25.062v3c0 .729 1.464.491 1.464-.124v-3c0-.729-1.464-.491-1.464.124z"/><path id="Path" d="m41.724 27.806v-3c0-.411-1.448-.151-1.448.388v3c0 .406 1.448.151 1.448-.388z"/><path id="Path" d="m15.139 18.224c2.445-.69 4.988-1.1 7.306.2.575.323 1.829-.455 1.11-.859-2.763-1.551-5.743-1.215-8.694-.383-.892.257-.621 1.296.278 1.042z"/><path id="Path" d="m37.461 18.257c2.239-1.257 4.758-.785 7.105-.123.52.147 1.707-.62.868-.857-3.041-.858-6.06-1.126-8.895.465-.85.477.4.808.922.515z"/></g></g></svg>