<svg height="512" viewBox="0 0 60 60" width="512" xmlns="http://www.w3.org/2000/svg"><g id="036---Hippo" fill="none"><path id="Path" d="m26.22 59.47c-.2219903.0007598-.4179007-.1449384-.4810525-.3577578-.0631519-.2128194.0215783-.4417946.2080525-.5622422l.456-.295-1.988 1.145c-.2309506.1251572-.5193699.0502601-.6602447-.1714532-.1408749-.2217132-.0861633-.5146329.1252447-.6705468l6.239-4.34-8.819 5.095c-.2301828.1290216-.5210052.0569569-.6643125-.1646141-.1433073-.2215711-.0897614-.5163656.1223125-.6733859l7.572-5.456-9.84 5.681c-.2313261.1333882-.5266402.061466-.670727-.1633522-.1440867-.2248181-.0860887-.5231794.131727-.6776478l6.438-4.565-7.555 4.361c-.23171.1276221-.5227312.0526794-.6639792-.1709853s-.08384-.5186462.1309792-.6730147l3.751-2.579-4.151 2.4c-.2329673.1327691-.5291919.0581284-.6714287-.1691822-.1422368-.2273105-.0798406-.5263539.1414287-.6778178l1.277-.863-1.38.8c-.2277686.1327124-.5194462.0657934-.6665848-.1529333s-.0991876-.5141157.1095848-.6750667l4.353-3.372-4.364 2.511c-.229416.1334891-.5231565.0644561-.6690977-.1572468-.1459412-.221703-.0932171-.5188044.1200977-.6767532l1.449-1.079-.968.559c-.217123.1206668-.4899085.063641-.6405105-.1338986s-.1333491-.4756874.0405105-.6531014l2.105-2.092-1.286.742c-.1861158.1071414-.4198611.0834701-.5807182-.0588091-.160857-.1422791-.2128944-.3713847-.1292818-.5691909l.688-1.621c-.1519286-.0912361-.2442115-.2560776-.2425668-.4332883.0016446-.1772108.096971-.340311.2505668-.4287117l.62-.358c.1863091-.1075747.4205437-.083914.5815757.0587468s.212756.3723351.1284243.5702532l-.521 1.227 3.326-1.92c.217123-.1206668.4899085-.063641.6405105.1338986s.1333491.4756874-.0405105.6531014l-2.108 2.094 5.055-2.918c.2292016-.1303039.5201978-.0602449.6649792.1600976s.0935911.5152436-.1169792.6739024l-1.446 1.077 3.323-1.919c.2277686-.1327124.5194462-.0657934.6665848.1529333s.0991876.5141157-.1095848.6750667l-4.356 3.374 7.247-4.184c.2329673-.1327691.5291919-.0581284.6714287.1691822.1422368.2273105.0798406.5263539-.1414287.6778178l-1.276.862 2.91-1.679c.23171-.1276221.5227312-.0526794.6639792.1709853s.08384.5186462-.1309792.6730147l-3.754 2.582 5.827-3.365c.2313261-.1333882.5266402-.061466.670727.1633522.1440867.2248181.0860887.5231794-.131727.6776478l-6.435 4.565 9.152-5.285c.2301828-.1290216.5210052-.0569569.6643125.1646141.1433073.2215711.0897614.5163656-.1223125.6733859l-7.573 5.457 10.528-6.079c.23158-.1294027.5239091-.0554223.6660571.1685604.142148.2239828.0846277.5199909-.1310571.6744396l-6.24 4.34 8.477-4.893c.2355494-.1444225.5435775-.0705494.688.165s.0705494.5435775-.165.688l-.464.3 1.563-.9c.23265-.1288599.5254615-.0530472.6663444.1725252s.0805297.5219566-.1373444.6744748l-3.838 2.589 5.093-2.941c.2318603-.1330617.527371-.0602043.6708066.1653857.1434357.22559.0840493.5240996-.1348066.6776143l-4.954 3.462 5.2-3c.228242-.1318458.5196375-.063862.6659708.1553737.1463332.2192358.0973404.5144185-.1119708.6746263l-5.329 4.062 4.083-2.357c.2256086-.1271264.5109479-.0609576.657579.1524896.1466312.2134471.106025.5035297-.093579.6685104l-2.693 2.184.646-.373c.1549945-.0985297.351531-.1041539.5119064-.0146489.1603754.0895049.2587712.2597296.2562855.4433739s-.1054527.3511436-.2681919.436275l-6.13 3.539c-.2256086.1271264-.5109479.0609576-.657579-.1524896-.1466312-.2134471-.106025-.5035297.093579-.6685104l2.694-2.184-5.34 3.081c-.2280542.1290416-.517047.0601323-.6623353-.1579314-.1452882-.2180638-.0975826-.5113034.1093353-.6720686l5.323-4.06-8.475 4.89c-.2311923.1280141-.5220815.054013-.6639947-.1689178-.1419132-.2229309-.0858401-.5178012.1279947-.6730822l4.953-3.458-7.456 4.3c-.2319734.1243603-.5206385.047588-.6601846-.1755802-.139546-.2231682-.0821857-.5163086.1311846-.6704198l3.847-2.6-5.964 3.446c-.0757164.0449383-.1619569.0690856-.25.07z" fill="#a2a4b0"/><path id="Path" d="m49.355 59.471c-.1951765.0000128-.3725195-.1135449-.4541736-.2908201-.081654-.1772751-.0526911-.3858586.0741736-.5341799l1.2-1.414-3.575 2.068c-.2275891.1298897-.5168511.062032-.6629348-.1555172-.1460838-.2175492-.0994243-.5109773.1069348-.6724828l.307-.237-.8.46c-.2311312.1521544-.5418455.0881311-.694-.143-.1521544-.2311312-.0881311-.5418455.143-.694l.092-.066c-.2259042.1277621-.5120042.0614438-.6586593-.152678-.1466552-.2141217-.1051039-.5048532.0956593-.669322l3.11-2.58-2.788 1.61c-.2205392.1280792-.5021318.0696485-.6535046-.1356028-.1513729-.2052513-.124009-.4915375.0635046-.6643972l1.65-1.53-1.26.726c-.2154812.1230022-.4885691.0693794-.6415393-.1259712-.1529702-.1953505-.1395447-.4733291.0315393-.6530288l.4-.412c-.1678335.0680508-.3593455.0400261-.5006432-.073261s-.2102899-.2941248-.1803568-.472739l.149-.89c-.1848901-.0638134-.3155949-.2295756-.3345246-.4242501s.0773919-.3825122.2465246-.4807499l.469-.27c.1673338-.0963843.3752121-.087793.5340221.0220701.15881.1098632.2401587.3013563.2089779.4919299l-.112.671 2.066-1.192c.2155591-.1245112.4898785-.0714871.6435094.1243861.153631.1958731.1397727.4749262-.0325094.6546139l-.383.4 2.05-1.184c.2205392-.1280792.5021318-.0696485.6535046.1356028.1513729.2052513.124009.4915375-.0635046.6643972l-1.655 1.532 4.052-2.339c.225024-.1298327.5119893-.0657046.6603401.147566s.108657.5046224-.0913401.670434l-3.107 2.579 2.786-1.608c.2299138-.1328235.5235501-.0627731.6687427.1595365s.0912979.5193359-.1227427.6764635l-.481.354c.1758483-.0085569.3435469.0747246.443.22.146588.2183677.098945.5129677-.109.674l-.534.411c.1699909-.0202541.3388568.0457912.45.176.1572116.1862611.1572116.4587389 0 .645l-1.2 1.413.289-.166c.2374252-.1242009.5305531-.0391619.6646466.1928199.1340935.2319817.0614797.5284321-.1646466.6721801l-2.799 1.608c-.0754237.0457373-.1617951.0702668-.25.071z" fill="#e3e7ea"/><path id="Path" d="m10.568 59.471c-.2010582-.0000197-.382547-.1204677-.4606666-.3057289-.0781196-.1852613-.037672-.3992938.1026666-.5432711l2.561-2.632-4.365 2.52c-.22741316.1273482-.51450549.05864-.65962634-.1578646-.14512084-.2165046-.09958382-.5081708.10462634-.6701354l1.756-1.356-1.58.912c-.2296891.1296297-.52056951.0585592-.66460409-.1623819-.14403457-.2209411-.09168688-.5157667.11960409-.6736181l.492-.36-.09.052c-.2263606.1309251-.51537208.0653166-.66301624-.1505114-.14764415-.2158279-.10404667-.5089685.10001624-.6724886l.7-.559-.287.165c-.21481445.122858-.48718546.0700952-.64058305-.1240916-.15339758-.1941868-.14166948-.4713733.02758305-.6519084l.879-.927-.445.257c-.16517071.0956418-.37038225.0889082-.52892788-.0173556s-.24276449-.2935185-.21707212-.4826444l.151-1.142c-.19358117-.0542144-.3358687-.2190923-.36117926-.4185221-.02531057-.1994298.07127845-.3946246.24517926-.4954779l.471-.273c.16517071-.0956418.37038225-.0889082.52892788.0173556s.24276449.2935185.21707212.4826444l-.127.955 2.543-1.468c.2148145-.122858.4871855-.0700952.640583.1240916.1533976.1941868.1416695.4713733-.027583.6519084l-.878.927 2.974-1.717c.2257509-.1255439.5099711-.0584606.655761.1547765.1457898.2132372.1051519.5024254-.093761.6672235l-.7.56 2.412-1.393c.2296891-.1296297.5205695-.0585592.6646041.1623819s.0916869.5157667-.1196041.6736181l-.493.362.077-.044c.2275891-.1298897.5168511-.062032.6629348.1555172.1460838.2175492.0994243.5109773-.1069348.6724828l-1.76 1.354 1.015-.58c.2163147-.1263431.4927389-.0731082.6466589.1245361.1539199.1976444.137822.4786873-.0376589.6574639l-2.562 2.63 1.648-.95c.2052485-.117948.4650826-.0757972.6225191.1009864.1574365.1767835.1693242.4397458.0284809.6300136l-.76 1.022c.2107057.0308888.3787241.191848.4186228.4010348.0398988.2091867-.0570789.4206894-.2416228.5269652l-1.606.927c-.2053026.1190853-.4660343.0774312-.6240153-.0996916-.1579809-.1771228-.1696738-.4409018-.0279847-.6313084l.6-.8-2.687 1.541c-.0754237.0457373-.1617951.0702668-.25.071z" fill="#e3e7ea"/><path id="Path" d="m50.633 12.54c-.226294-.00001-.4243705-.1520058-.4829405-.3705888-.0585699-.2185831.0369699-.4492542.2329405-.5624112l5.258-3.035c.23893-.13584515.5427102-.05337078.6801373.18465285.137427.23802363.0569695.54234426-.1801373.68134715l-5.258 3.035c-.0758978.0441549-.1621931.067282-.25.067z" fill="#a2a4b0"/><path id="Path" d="m46.916 5.37c-.2058444.00017516-.3907608-.12582037-.4659121-.31745605-.0751512-.19163569-.0251778-.40974487.1259121-.54954395l1.515-1.4c-.0767351-.04370851-.1402915-.10726486-.184-.184-.1380647-.23914015-.0561341-.54492481.183-.683l2.546-1.469c.2205392-.12807919.5021318-.06964847.6535046.13560283.1513729.2052513.124009.49153743-.0635046.66439717l-.687.634 2.427-1.401c.2374252-.12420086.5305531-.03916186.6646466.19281988.1340935.23198173.0614797.52843213-.1646466.67218012l-6.3 3.635c-.0755041.04543245-.1618817.0696182-.25.07z" fill="#a2a4b0"/><path id="Path" d="m8.763 31.5c-.22398725.0005517-.42101247-.1479266-.48220856-.3633927s.02837016-.4453414.21920856-.5626073l17.664-10.9-18.874 10.89c-.23520866.125628-.52761522.0445694-.66457305-.1842276-.13695782-.228797-.07026696-.5248112.15157305-.6727724l10.066-6.227-9.535 5.5c-.23448097.1270728-.52742279.0477401-.66573664-.1802909-.13831386-.2280309-.07330581-.5244809.14773664-.6737091l16.11-10.216-15.57 8.99c-.23620749.133071-.53543293.0536509-.67455995-.1790411-.13912701-.2326919-.06746125-.5338687.16155995-.6789589l6.547-4.042-6.045 3.49c-.23460579.1253855-.5263122.0451285-.66376043-.18262s-.07251115-.523243.14776043-.67238l11.531-7.256-11 6.348c-.15273104.0928891-.34341606.097241-.50022586.0114166s-.25592124-.2487865-.26-.4275.08749482-.3460275.24022586-.4389166l13.043-8.326-12.357 7.134c-.15255241.0930677-.34316766.09768-.50004285.0120996-.15687518-.0855804-.25617722-.2483519-.2605-.427-.00432277-.1786481.08699044-.3460319.23954285-.4390996l11.841-7.6-10.953 6.327c-.23620749.133071-.53543293.0536509-.67455995-.1790411-.13912701-.2326919-.06746125-.5338687.16155995-.6789589l1.915-1.19-1.043.6c-.23308287.1306613-.52770735.0549657-.66894229-.1718661-.14123493-.2268319-.07915925-.5246238.14094229-.6761339l11.852-7.91-10.3 5.945c-.23541159.1379583-.53795774.061708-.67986369-.1713453-.14190596-.2330532-.07076502-.5368414.15986369-.6826547l3.412-2.187-2.221 1.283c-.23477127.1336383-.53323995.0566316-.67405087-.1739091-.14081092-.2305408-.07304023-.5312411.15305087-.6790909l.9-.579-.806.464c-.23045189.1256553-.51883648.0517188-.66040358-.1693153-.1415671-.2210342-.08811598-.5139083.12240358-.6706847l5.32-3.756-6.643 3.837c-.22200994.1247109-.50228117.0626525-.65089262-.1441224-.14861146-.2067749-.11808544-.4922068.07089262-.6628776l2.413-2.12-3.522 2.031c-.22200994.1247109-.50228117.0626525-.65089262-.1441224-.14861146-.2067749-.11808544-.4922068.07089262-.6628776l3.309-2.914-4.19 2.419c-.22838347.12999717-.51842376.06101556-.66382816-.15788129-.14540441-.21889685-.09654436-.51299637.11182816-.67311871l1.544-1.173-1.7.98c-.22933911.12852278-.51903511.05749218-.66291212-.1625395-.143877-.22003168-.09278581-.51390037.11691212-.6724605l.571-.417-.354.2c-.22665062.12749151-.51319057.05996349-.65906069-.15531888-.14587011-.21528237-.1023667-.50643977.10006069-.66968112l1.589-1.251-1.141.658c-.21066558.1260173-.48165303.08046477-.63953787-.10750523-.15788485-.18796999-.15596205-.46275269.00453787-.64849477l1.94-2.287-.04.028c-.23892998.13584515-.54271023.05337078-.68013727-.18465285-.13742703-.23802363-.05696954-.54234426.18013727-.68134715l2.54-1.468c.21016698-.1194548.47569639-.07144078.63072206.11404951.15502566.1854903.15514268.45532581.00027794.64095049l-1.941 2.289 4.65-2.685c.2268147-.12994997.5154475-.06325566.6622581.15302785.1468106.2162835.1022433.50914993-.1022581.67197215l-1.589 1.25 2.175-1.255c.2293391-.12852278.5190351-.05749218.6629121.1625395s.0927858.51390037-.1169121.6724605l-.57.42.721-.416c.2285788-.13297291.5211739-.06496595.667677.15518608.1465031.22015204.0962484.51631292-.114677.67581392l-1.542 1.173 1.7-.978c.2220099-.12471092.5022812-.0626525.6508926.1441224.1486115.20677491.1180855.4922068-.0708926.6628776l-3.314 2.912 3.538-2.043c.2227723-.12943972.5074311-.06840472.6575526.14098887s.1165485.49857997-.0775526.66801113l-2.413 2.12 11.783-6.8c.2310609-.12980827.523268-.05677568.6660866.16647793.1428185.2232536.086628.51916126-.1280866.67452207l-5.319 3.754 9.437-5.448c.2347713-.13363828.5332399-.05663158.6740509.17390914.1408109.23054072.0730402.5312411-.1530509.67909086l-.9.578 2.7-1.556c.234023-.12528526.5251579-.04585984.6631351.18091194s.0746978.5218373-.1441351.67208806l-3.4 2.182 5-2.884c.2335451-.1328438.5303244-.05736382.6720248.17091629s.0776546.52773513-.1450248.67808371l-11.867 7.915 14.25-8.227c.1532669-.09181726.3438754-.09489296.5000249-.00806853s.2541174.25035831.257.429-.089758.34525127-.2430249.43706853l-1.908 1.186 2.85-1.645c.2347713-.13363828.5332399-.05663158.6740509.17390914.1408109.23054072.0730402.5312411-.1530509.67909086l-11.839 7.6 13.338-7.7c.2348642-.13128134.531504-.05316042.6712412.17677323.1397372.22993366.0724576.52921865-.1522412.67722677l-13.04 8.325 14.333-8.277c.2349709-.12921461.5300387-.05006202.6687925.17940502.1387537.22946704.0717837.52753611-.1517925.67559498l-11.536 7.259 12.564-7.253c.2372063-.14166104.544339-.0642063.686.173s.0642063.54433896-.173.686l-6.54 4.034 7.1-4.1c.2354379-.13454995.5352149-.05690217.6757281.17502611.1405133.23192829.0705395.53358878-.1577281.67997389l-16.109 10.221 17.28-9.975c.2348663-.12231188.5243654-.04029567.6601778.1870309.1358123.22732657.0708339.52111934-.1481778.6699691l-10.062 6.225 19.667-11.355c.2372063-.14166103.544339-.06420629.686.17300001.141661.23720629.0642063.54433895-.173.68599999l-17.674 10.912 18.2-10.507c.2362845-.13063592.5336041-.05009165.6716393.18194798.1380352.23203962.0669238.53175531-.1606393.67705202l-11.6 7.1 11.579-6.684c.2374824-.14110873.5443912-.06298241.6855.17450002.1411087.23748243.0629824.54439122-.1745.68549998l-9.6 5.878 9.221-5.323c.234481-.12707284.5274228-.04774006.6657366.18029089.1383139.22803094.0733058.52448086-.1477366.67370911l-18.8 11.926 11.246-6.495c.234481-.1270728.5274228-.0477401.6657366.1802909.1383139.2280309.0733058.5244809-.1477366.6737091l-9.622 6.129 9.785-5.648c.234023-.1252853.5251579-.0458598.6631351.1809119.1379772.2267718.0746978.5218373-.1441351.6720881l-8.5 5.445 8.617-4.974c.2334461-.1352991.5321345-.0609722.6749447.1679561.1428102.2289282.0782242.5298733-.1459447.6800439l-11 7.353 11.1-6.408c.2343611-.1288923.5286543-.0505227.6678755.1778537.1392213.2283764.0740613.5258734-.1478755.6751463l-3.523 2.256 3.366-1.943c.2335451-.1328438.5303244-.0573638.6720248.1709163s.0776546.5277351-.1450248.6780837l-5.8 3.845 5.584-3.224c.2328603-.1351428.5309189-.0616362.6742423.1662803.1433233.2279164.080443.5283964-.1422423.6797197l-5.683 3.883 5.431-3.136c.2305507-.1302945.5227069-.0582293.6662193.1643342.1435123.2225634.0886.5184238-.1252193.6746658l-5.287 3.78 4.868-2.81c.2300482-.1308569.5222207-.059778.6664488.1621318.1442281.2219099.0905463.5177734-.1224488.6748682l-3.221 2.34 2.724-1.567c.2253151-.1304911.5130605-.0662242.6614447.1477312.1483843.2139555.1077334.5059746-.0934447.6712688l-3.036 2.5 2.444-1.419c.2174475-.1222843.4917629-.0655717.6428937.1329134.1511308.1984852.1328285.4780031-.0428937.6550866l-1.738 1.722 1.168-.673c.1989828-.111356.4480993-.0739815.6056441.0908637.1575449.1648451.1836047.415398.0633559.6091363l-.564.868c.2413353-.0824132.5060228.030006.6142878.2609028.1082649.2308969.025411.5062744-.1922878.6390972l-1.717.991c-.1989828.111356-.4480993.0739815-.6056441-.0908637-.1575449-.1648451-.1836047-.415398-.0633559-.6091363l.554-.854-2.701 1.563c-.2174475.1222843-.4917629.0655717-.6428937-.1329134-.1511308-.1984852-.1328285-.4780031.0428937-.6550866l1.731-1.717-4.354 2.513c-.2248836.1275609-.509928.0626394-.65739-.1497267-.1474621-.2123662-.1087026-.5021295.08939-.6682733l3.036-2.5-5.745 3.315c-.2300482.1308569-.5222207.059778-.6664488-.1621318-.1442281-.2219099-.0905463-.5177734.1224488-.6748682l3.22-2.339-5.5 3.178c-.2305507.1302945-.5227069.0582293-.6662193-.1643342-.1435123-.2225634-.0886-.5184238.1252193-.6746658l5.29-3.782-8.009 4.623c-.2328603.1351428-.5309189.0616362-.6742423-.1662803-.1433233-.2279164-.080443-.5283964.1422423-.6797197l5.689-3.882-8.195 4.73c-.2340569.1357068-.5336008.0606207-.6759704-.1694442s-.0759129-.5316408.1499704-.6805558l5.8-3.838-8.124 4.69c-.2354116.1379583-.5379577.061708-.6798637-.1713453-.1419059-.2330532-.070765-.5368414.1598637-.6826547l3.522-2.264-5.4 3.116c-.2340027.1389988-.5362016.0652981-.6799386-.1658244s-.0762078-.5347601.1519386-.6831756l10.998-7.348-14.21 8.2c-.2354116.1379583-.5379577.061708-.6798637-.1713453-.1419059-.2330532-.070765-.5368414.1598637-.6826547l8.5-5.445-10.914 6.3c-.2354379.13455-.5352149.0569022-.6757281-.1750261-.1405133-.2319283-.0705395-.5335888.1577281-.6799739l9.615-6.124-12.093 6.985c-.2349709.1292146-.5300387.050062-.6687925-.179405-.1387537-.2294671-.0717837-.5275361.1517925-.675595l18.8-11.931-22.143 12.789c-.2374824.1411087-.5443912.0629824-.6855-.1745-.1411087-.2374824-.0629824-.5443912.1745-.6855l9.611-5.887-11.687 6.748c-.2374824.1411088-.5443912.0629824-.6855-.1745s-.0629824-.5443912.1745-.6855l11.588-7.092-13.777 7.954c-.07579953.0445046-.16210101.0679786-.25.068z" fill="#a2a4b0"/><path id="Path" d="m43.7 25.38c-.226294-.00001-.4243705-.1520058-.4829405-.3705888-.0585699-.2185831.0369699-.4492542.2329405-.5624112l2.868-1.655c.1549945-.0985297.351531-.1041539.5119064-.0146489.1603754.0895049.2587712.2597296.2562855.4433739s-.1054527.3511436-.2681919.436275l-2.868 1.656c-.0760084.0438886-.1622305.0669961-.25.067z" fill="#b6b8c2"/><path id="Path" d="m17.852 53.418c-.2235188.0002724-.4200664-.14784-.4814104-.3627764-.0613441-.2149364.0274191-.4444779.2174104-.5622236l8.7-5.4-10.54 6.092c-.2372063.1413849-.5441151.0637063-.6855-.1735s-.0637063-.5441151.1735-.6855l6.836-4.2-8.355 4.824c-.2315649.1104996-.5091861.027788-.6425196-.1914257s-.0790987-.5037718.1255196-.6585743l13.144-8.15-14.934 8.621c-.2347345.1238045-.5252986.0426548-.6619149-.1848618-.1366163-.2275167-.0716853-.5221296.1479149-.6711382l16.904-10.539-18.732 10.813c-.23583577.1260453-.52910097.0442222-.66561588-.1857118-.13651492-.2299339-.06795177-.5265795.15561588-.6732882l9.63-5.889-10.736 6.2c-.23508655.127347-.52875831.0472199-.66659082-.1818764-.13783251-.2290964-.071048-.5260868.15159082-.6741236l20.419-12.814-21.975 12.687c-.2353357.1240261-.52657993.04207-.66269982-.1864836-.13611989-.2285535-.06945065-.5236725.15169982-.6715164l10.53-6.449-11.255 6.5c-.2353357.1240261-.52657993.04207-.66269982-.1864836-.13611989-.2285535-.06945065-.5236725.15169982-.6715164l5.684-3.493-6.031 3.484c-.23551248.13196-.53324972.0531389-.67262044-.1780652-.13937073-.2312042-.07004227-.5312938.15662044-.6779348l12.768-8.012-13.209 7.626c-.23497088.1292146-.53003872.050062-.66879247-.179405-.13875376-.2294671-.07178369-.5275361.15179247-.675595l12.195-7.678-12.331 7.119c-.23637787.1430418-.54395825.0673779-.687-.169s-.06737787-.5439582.169-.687l11.441-7.234-11.2 6.462c-.23473446.1238045-.5252986.0426548-.6619149-.1848618-.13661629-.2275167-.07168534-.5221296.1479149-.6711382l6.137-3.837-5.693 3.293c-.23377341.1287456-.52745054.051198-.66718797-.1761759-.13973744-.2273739-.07627-.5244122.14418797-.6748241l11.787-7.712-10.966 6.328c-.23252618.1307666-.52675914.0559509-.6685809-.1700024-.14182177-.2259533-.08127436-.5234503.1375809-.6759976l10.531-7.149-8.895 5.135c-.23477127.1336383-.53323995.0566316-.67405087-.1739091-.14081092-.2305408-.07304023-.5312411.15305087-.6790909l1.518-.982c-.23223125.040093-.4609309-.0874186-.54891229-.3060463-.08798138-.2186277-.01135588-.46901.18391229-.6009537l2.613-1.752c-.20380247-.0246776-.37181123-.1714225-.42367612-.370054s.02295463-.4087816.18867612-.529946l2.625-1.893-1.636.944c-.22590421.1277621-.51200417.0614438-.65865933-.152678-.14665516-.2141217-.10510389-.5048532.09565933-.669322l3.8-3.054-3.615 2.083c-.22223957.1285782-.50574389.0679309-.65592975-.1403165s-.11823213-.4963997.07392975-.6666835l3.328-2.94-2.522 1.458c-.22033537.1244491-.49891194.0646624-.64877854-.1392378-.1498666-.2039001-.12376913-.4876223.06077854-.6607622l1.594-1.46c-.16915359-.0783688-.28066015-.2443356-.28927786-.4305622s.08708478-.361782.24827786-.4554378l2.781-1.606c.2203354-.1244491.4989119-.0646624.6487785.1392378.1498666.2039001.1237692.4876223-.0607785.6607622l-.869.8 2.89-1.668c.2221262-.1265945.5039712-.0652242.6533525.1422642.1493814.2074884.1181698.4942439-.0723525.6647358l-3.333 2.942 4.919-2.84c.2259042-.1277621.5120042-.0614438.6586593.152678.1466552.2141217.1051039.5048532-.0956593.669322l-3.8 3.053 4.552-2.628c.2304184-.1322364.5240189-.0611893.6684864.1617642.1444674.2229535.0893536.5199576-.1254864.6762358l-2.628 1.893 2.819-1.626c.23265-.1288599.5254615-.0530472.6663444.1725252s.0805297.5219566-.1373444.6744748l-1.384.929 3.6-2.077c.2338963-.1269547.5262491-.04845.6650871.1785941.1388379.227044.0755015.5230536-.1440871.6734059l-1.027.664 3.633-2.1c.2325262-.1307666.5267591-.0559509.6685809.1700024s.0812744.5234503-.1375809.6759976l-10.529 7.15 14.611-8.432c.2337734-.1287456.5274505-.051198.667188.1761759.1397374.2273739.07627.5244122-.144188.6748241l-11.8 7.717 14.89-8.6c.2350866-.127347.5287583-.0472199.6665908.1818764.1378325.2290964.071048.5260868-.1515908.6741236l-6.127 3.83 7.929-4.578c.2363779-.1430418.5439582-.0673779.687.169s.0673779.5439582-.169.687l-11.434 7.233 13.472-7.777c.2349709-.1292146.5300387-.050062.6687925.179405.1387537.2294671.0717837.5275361-.1517925.675595l-12.2 7.679 14.128-8.156c.2355125-.13196.5332497-.0531389.6726204.1780652.1393708.2312042.0700423.5312938-.1566204.6779348l-12.769 8.014 14.46-8.348c.1534456-.09146.3440284-.0941103.4999579-.0069525s.2535161.2508822.256.4295-.0905123.3449925-.2439579.4364525l-5.684 3.49 13.132-7.581c.2362845-.1306359.5336041-.0500916.6716393.181948s.0669238.5317553-.1606393.677052l-10.525 6.442 11.695-6.752c.2355125-.13196.5332497-.0531389.6726204.1780652.1393708.2312042.0700423.5312938-.1566204.6779348l-20.429 12.817 21.558-12.445c.2369888-.1350471.5384839-.055235.6776156.1793791.1391316.2346142.0645535.5374465-.1676156.6806209l-9.626 5.885 9.9-5.713c.2361735-.1361818.537908-.0580681.6783318.1756081.1404239.2336761.0677709.5367718-.1633318.6813919l-16.913 10.542 17.043-9.839c.2356087-.1297647.5316571-.04988.6700067.1807924.1383496.2306723.0694166.5294607-.1560067.6762076l-13.137 8.143 12.83-7.406c.2357179-.1278172.530297-.0469384.667702.1833224.137405.2302607.0687118.5279174-.155702.6746776l-6.82 4.187 6.045-3.49c.2362075-.133071.5354329-.0536509.6745599.1790411.1391271.2326919.0674613.5338687-.1615599.6789589l-8.7 5.392 7.835-4.524c.2355125-.13196.5332497-.0531389.6726204.1780652.1393708.2312042.0700423.5312938-.1566204.6779348l-9.318 5.847 9.873-5.7c.2361735-.1361818.537908-.0580681.6783318.1756081.1404239.2336761.0677709.5367718-.1633318.6813919l-2.987 1.86 3.3-1.9c.2347034-.1364868.5354374-.0607325.6774741.1706544.1420368.2313868.073465.5338394-.1544741.6813456l-9.266 6.048 9.749-5.628c.2337734-.1287456.5274505-.051198.667188.1761759.1397374.2273739.07627.5244122-.144188.6748241l-7.272 4.719 7.565-4.368c.2347034-.1364868.5354374-.0607325.6774741.1706544.1420368.2313868.073465.5338394-.1544741.6813456l-7.3 4.773 7.494-4.325c.234023-.1252853.5251579-.0458598.6631351.1809119.1379772.2267718.0746978.5218373-.1441351.6720881l-3.7 2.375 3.628-2.094c.23171-.1276221.5227312-.0526794.6639792.1709853s.08384.5186462-.1309792.6730147l-9.034 6.2 9.031-5.213c.2342478-.1308833.5300435-.0535271.6702262.1752769s.074765.527467-.1482262.6767231l-1.758 1.137 1.364-.787c.2304184-.1322364.5240189-.0611893.6684864.1617642.1444674.2229535.0893536.5199576-.1254864.6762358l-6.72 4.854 6.117-3.53c.2309306-.1317312.5245674-.0597083.6683337.1639283.1437664.2236366.0873821.520673-.1283337.6760717l-2.646 1.883 1.678-.969c.226047-.126152.5110038-.0589101.6568083.1549885.1458046.2138986.1042381.5037159-.0958083.6680115l-1.795 1.43c.2245033.0034333.4191868.156099.4760527.3733081s-.0380329.4456882-.2320527.5586919l-5.168 2.984c-.2266681.1317558-.5166136.0660514-.6643416-.1505461-.1477279-.2165976-.1030619-.5105201.1023416-.6734539l1.422-1.132-5.01 2.891c-.2309306.1317312-.5245674.0597083-.6683337-.1639283-.1437664-.2236366-.0873821-.520673.1283337-.6760717l2.65-1.884-5.467 3.155c-.2304184.1322364-.5240189.0611893-.6684864-.1617642-.1444674-.2229535-.0893536-.5199576.1254864-.6762358l6.718-4.853-10.033 5.791c-.2347713.1336383-.5332399.0566316-.6740509-.1739091-.1408109-.2305408-.0730402-.5312411.1530509-.6790909l1.743-1.127-2.988 1.725c-.2324067.1328499-.5282158.0590851-.6710333-.1673329s-.0819688-.5251514.1380333-.6776671l9.04-6.205-11.036 6.371c-.2348642.1312813-.531504.0531604-.6712412-.1767732-.1397372-.2299337-.0724576-.5292187.1522412-.6772268l3.7-2.374-4.612 2.663c-.1521951.0936036-.3427662.0989017-.4999268.0138987-.1571607-.0850031-.2570345-.2473934-.262-.426-.0049655-.1786067.0857317-.3462951.2379268-.4398987l7.3-4.773-8.561 4.944c-.2347034.1364868-.5354374.0607325-.6774741-.1706544-.1420368-.2313868-.073465-.5338394.1544741-.6813456l7.265-4.715-8.876 5.125c-.2341443.133112-.5316521.0568382-.672871-.1725078-.1412189-.2293459-.075396-.5293391.148871-.6784922l9.264-6.05-13.48 7.783c-.2361735.1361818-.537908.0580681-.6783318-.1756081-.1404239-.2336761-.0677709-.5367718.1633318-.6813919l2.989-1.858-7.408 4.277c-.236654.1424895-.5440105.066154-.6865-.1705-.1424894-.236654-.066154-.5440105.1705-.6865l9.317-5.846-11.993 6.92c-.075544.0432534-.1609523.0663274-.248.067z" fill="#b6b8c2"/><path id="Path" d="m12.048 31.46c-.187246-.0016539-.3578731-.1077941-.4421204-.275025s-.0679918-.3675184.0421204-.518975l.407-.562-1.158.668c-.2162377.1247517-.4913592.0708905-.6445905-.1261931-.1532312-.1970836-.1376138-.4769924.0365905-.6558069l.126-.129-.015.008c-.205814.1174316-.46579304.0742687-.62261826-.1033697-.15682523-.1776385-.16742357-.440963-.02538174-.6306303l.5-.658c-.209466-.0326757-.37555575-.1938959-.41444833-.4022971-.03889258-.2084013.05786758-.4186754.24144833-.5247029l1.637-.945c.2060613-.1184061.466996-.0754024.6241634.1028662.1571674.1782685.1671324.4425353.0238366.6321338l-.324.43 1.024-.591c.216157-.1232114.4900183-.0687436.6425795.1278015.1525612.196545.1373975.4753583-.0355795.6541985l-.125.128.045-.026c.2044458-.1175616.4632411-.0762811.6209674.0990507.1577262.1753318.171493.4370369.0330326.6279493l-.532.733c.2194136.0152506.4030956.1720907.452535.386405.0494395.2143143-.046975.435769-.237535.545595l-1.624.938c-.0777676.0449189-.1661981.0680629-.256.067z" fill="#636c76"/><path id="Path" d="m47.4 31.31c-.1764719-.0002238-.3397568-.0934575-.4296439-.2453216s-.0930628-.3398651-.0083561-.4946784l.949-1.739-1.553.9c-.2091618.1199379-.4741262.0735246-.6300667-.1103675s-.1584356-.4528792-.0059333-.6396325l.43-.526c-.1106931-.0394427-.2033917-.1175794-.261-.22-.1375532-.2386555-.0561721-.5436114.182-.682l1.637-.945c.2092222-.121191.4751879-.0753075.6317098.1089805s.1587492.4541733.0052902.6410195l-.11.133.716-.413c.1939449-.1118117.438575-.0810804.5988377.0752281s.1970948.4000947.0901623.5967719l-.95 1.739.924-.533c.1549945-.0985297.351531-.1041539.5119064-.0146489.1603754.0895049.2587712.2597296.2562855.4433739s-.1054527.3511436-.2681919.436275l-2.466 1.421c-.0757231.044686-.162075.0681737-.25.068z" fill="#636c76"/><path id="Path" d="m29.077 55.407c-.1956032-.0000967-.3731881-.1142453-.4545019-.292146-.0813138-.1779008-.0514226-.3868813.0765019-.534854l1.69-1.95-4 2.307c-.2174475.1222843-.4917629.0655717-.6428937-.1329134-.1511308-.1984852-.1328285-.4780031.0428937-.6550866l1.54-1.535-2.938 1.7c-.2056017.1195564-.4669654.0777382-.625-.1l-1.057-1.2-.364.21c-.1547852.0907422-.3463247.0915917-.5019087.0022259-.155584-.0893657-.2513568-.2552442-.2509624-.4346667.0003945-.1794226.0968957-.3448784.2528711-.4335592l.718-.415c.2056017-.1195564.4669654-.0777382.625.1l1.057 1.2 5.891-3.4c.217123-.1206668.4899085-.063641.6405105.1338986s.1333491.4756874-.0405105.6531014l-1.536 1.532 3.264-1.884c.2113234-.1216732.4795951-.0731604.6349231.1148162.155328.1879765.1524028.4605836-.0069231.6451838l-1.692 1.949 3.225-1.861c.1907702-.1113709.4320163-.0843577.5934296.0664485.1614133.1508061.2047372.3896626.1065704.5875515l-.775 1.57 2.421-1.4c.2374252-.1242009.5305531-.0391619.6646466.1928199.1340935.2319817.0614797.5284321-.1646466.6721801l-3.851 2.225c-.1907702.1113709-.4320163.0843577-.5934296-.0664485-.1614133-.1508061-.2047372-.3896626-.1065704-.5875515l.775-1.569-4.37 2.523c-.0752182.0440363-.1608395.0671679-.248.067z" fill="#8e234c"/><path id="Path" d="m39.432 21.388c-.2065219-.0001253-.3917162-.1272105-.4661203-.3198639s-.0227059-.4112281.1301203-.5501361l.768-.7-2.2 1.269c-.227731.1281621-.5157443.059345-.6609391-.1579231-.1451949-.217268-.0985947-.509699.1069391-.6710769l.381-.293-.847.489c-.225024.1298327-.5119893.0657046-.6603401-.147566s-.108657-.5046224.0913401-.670434l2.8-2.312-3.375 1.949c-.2299606.1262156-.518365.0532546-.6606421-.1671302-.1422771-.2203849-.0900471-.5132542.1196421-.6708698l.021-.016c-.2309882.1197827-.5152356.0423865-.6536097-.1779678-.1383742-.2203544-.0846177-.5100041.1236097-.6660322l1.8-1.356-1.733 1c-.2254575.1330437-.5153687.0696598-.6647344-.1453323-.1493656-.2149921-.1076129-.5087994.0957344-.6736677l3.181-2.626-2.847 1.646c-.2280542.1290416-.517047.0601323-.6623353-.1579314-.1452882-.2180638-.0975826-.5113034.1093353-.6720686l.792-.6-.051.03c-.2130757.122757-.4837819.0723545-.6383991-.1188629-.1546171-.1912173-.1472392-.4664769.0173991-.6491371l1.922-2.129c-.2026031.0276114-.4020123-.0689405-.506-.245-.1382327-.2388784-.0567713-.5445824.182-.683l2.49-1.436c.2127921-.1213918.482198-.07072759.6363549.11967227.1541568.19039985.1476562.46445122-.0153549.64732773l-1.844 2.044 4.092-2.37c.227871-.12651469.5147039-.05676597.6590373.16025712.1443334.2170231.0977476.50851535-.1070373.66974288l-.79.6 1.252-.723c.225024-.12983267.5119893-.06570465.6603401.147566.1483508.2132706.108657.5046224-.0913401.670434l-3.181 2.626 3.644-2.1c.2285233-.1282497.5172952-.0583047.6618051.1602995.14451.2186041.095725.5116937-.1118051.6717005l-1.8 1.354 1.754-1.012c.2305507-.1302945.5227069-.0582293.6662193.1643342.1435123.2225634.0886.5184238-.1252193.6746658l-.194.139c.1999346-.0458451.4078227.0330498.527.2.1485511.2135445.1085462.5053198-.092.671l-2.8 2.312 2.287-1.32c.227731-.1281621.5157443-.059345.6609391.1579231.1451949.217268.0985947.509699-.1069391.6710769l-.608.466c.1821483-.023155.3627164.0531952.473.2.1506174.2064694.1212886.4932879-.068.665l-1.3 1.183c.1922147.056069.3324451.2213995.3563954.4201873.0239504.1987878-.0729985.3926941-.2463954.4928127l-3.1 1.792c-.0762802.047489-.1641499.0730888-.254.074z" fill="#fff"/><path id="Path" d="m21.208 21.433c-.2044523.0000409-.3883316-.1243978-.4643012-.3142118-.0759697-.189814-.0287223-.406757.1193012-.5477882l1.537-1.471-3.071 1.772c-.2237606.125536-.506225.0613343-.6537387-.148589s-.1121964-.4974311.0817387-.665411l2.543-2.139-3.321 1.917c-.226507.1291681-.5142486.0625855-.6609917-.1529516-.1467432-.2155372-.103215-.5076567.0999917-.6710484l2.615-2.071-2.926 1.69c-.2304184.1322364-.5240189.0611893-.6684864-.1617642-.1444674-.2229535-.0893536-.5199576.1254864-.6762358l.436-.317-.317.182c-.2257586.1294404-.5130594.0640705-.6605892-.1503047-.1475298-.2143751-.1059565-.5060712.0955892-.6706953l3.061-2.481-2.823 1.629c-.2245986.1270093-.5089574.0622563-.656419-.1494768-.1474617-.2117332-.109592-.5009023.087419-.6675232l2.537-2.109-1.864 1.077c-.2122255.1228453-.4822194.073656-.6374856-.1161414s-.1499782-.4641845.0124856-.6478586l2-2.265c-.2184682.0583521-.4489069-.0371856-.562-.233-.1382327-.2388784-.0567713-.5445824.182-.683l2.489-1.436c.2122255-.12284529.4822194-.073656.6374856.1161414s.1499782.4641845-.0124856.6478586l-1.962 2.224 4.3-2.481c.2247363-.12921654.510959-.06523842.6592891.14736806s.1095663.50331938-.0892891.66963194l-2.538 2.11 3.232-1.865c.2260575-.1301558.5141897-.0646595.6617686.1504288.1475789.2150884.1050107.5074886-.0977686.6715712l-3.058 2.478 3.367-1.943c.2304184-.1322364.5240189-.0611893.6684864.1617642.1444674.2229535.0893536.5199576-.1254864.6762358l-.434.312.311-.179c.2268147-.12995.5154475-.0632557.6622581.1530278.1468106.2162836.1022433.50915-.1022581.6719722l-2.624 2.071 2.278-1.315c.2241703-.1280952.5090066-.0644456.6573283.1468868.1483216.2113324.1113468.5008421-.0853283.6681132l-2.54 2.145 1.8-1.041c.218866-.1231702.4951381-.0648746.6455811.1362227.1504431.2010973.1283693.4825886-.0515811.6577773l-1.573 1.5c.2226963-.0658811.4616151.0286135.579.229.1375532.2386555.0561721.5436114-.182.682l-3.474 2.006c-.074357.0447-.159249.0688563-.246.07z" fill="#fff"/><g fill="#262626"><path id="Shape" d="m57.806 36.442c-.947-1.564-2.7-2.784-3.143-4.524-.6-2.358.127-4.559-1.009-6.488 0-.009.01-.016.01-.024.2088884-4.5323106-.828714-9.0351588-3-13.019 2.0839249-.4170495 4.0043197-1.4235821 5.533-2.9 1.2746374-1.31192531 1.7626928-3.19893054 1.2839786-4.96434304s-1.8531902-3.14736851-3.6159786-3.63565696c-3.038-.787-4.735.827-6.84 2.582-1.194 1-.065 2.151-2.791 1.714-.924-.148-3.154-1.965-4.077-2.383-2.2778661-1.02946265-4.7066025-1.68552201-7.193-1.943-4.3947661-.45394095-8.8312194.26838474-12.855 2.093-2.234 1.01-4.035 3.571-6.341 1.474-1.633-1.486-1.868-3.238-4.538-3.624-2.00670663-.28642654-4.03269068.37486293-5.484 1.79-1.571835 1.62865771-1.90502684 4.08893332-.823 6.077.946 1.707 5.9 3.246 5.941 4.885-1.89222889 3.7602127-2.7649412 7.9510247-2.531 12.154-1.381 2.072-.622 3.379-.717 5.488-.137 3.027-3.595 5.135-4.628 8.048-.97833272 2.4467252-.95894694 5.1794011.054 7.612 1.12364387 2.107318 3.00877355 3.706692 5.271 4.472.23 1.852.431 3.709.7 5.555.289 2.027 1.546 2.66 3.475 2.66 1.864 0 4.52.411 5.355-1.791.034-.09.06-.186.089-.279 1.0985468.9906724 2.4933603 1.5910608 3.968 1.708 3.333.57 6.975.11 10.375.11 3.836 0 8.512.768 12.1-.991.5678933-.264072 1.1031543-.5932828 1.595-.981.0817439.3168314.2012675.622691.356.911 1 1.761 3.687 1.3 5.376 1.263.8226444.0699375 1.6386575-.1954014 2.262843-.7357972.6241854-.5403959 1.0036081-1.3100195 1.052157-2.1342028.254-1.812.457-3.631.682-5.447 3.349-1.655 5.8-4.288 6.017-8.141 0-.014-.01-.021-.012-.034s.018-.034.016-.053c-.0809564-2.2944507-.7392556-4.5314297-1.914-6.504zm-47.5-23.18c0-.009-.008-.015-.009-.023s.018-.027.019-.043c.044-2.632-4.6-2.532-5.947-4.917-1.713-3.032.241-8.556 5.419-6.379 1.828.767 1.868 3.511 3.141 4.279 1.355.818.6.641 2.151.49.2409447-.04726287.4734996-.13017373.69-.246.838-.62466667 1.682-1.24266667 2.532-1.854 1.8344297-1.2733406 3.9568414-2.07027598 6.176-2.319 6.0632754-1.68849602 12.5633367-.59556537 17.741 2.983 1.015.692 2.025 1.966 3.415 1.607.959-.248 1.192-.965 1.732-1.668.4067019-1.02227478 1.0001431-1.95991187 1.75-2.765 2.8633333-1.538 5.034-1.09866667 6.512 1.318 2.01 3.487-1.045 8.232-5.4 8.232-.308 0-1.638.589-.94.589.577 0 2.225 5.807 2.322 6.2.399859 1.6926669.6088289 3.4248026.623 5.164-.07-.052-.13-.105-.2-.156-3.393-2.323-7.931-.839-9.952 2.446-7.16-1.785-13.761-1.49-21.067-.635-4 .469-2.609-.836-5.937-2.349-1.3743649-.5955838-2.9032502-.7357521-4.363-.4-1.07460861.23219-2.08424494.7001202-2.956 1.37-.03195507-3.7925491.84265698-7.5378497 2.551-10.924zm.028 45.2c-1.991-.144-1.879-1.956-2.073-3.5-.128-1.0293333-.25633333-2.0583333-.385-3.087 1.71222964.4815635 3.4585966.8322409 5.224 1.049.643.088 1.287.171 1.932.239-.0639492 1.2364632-.2193742 2.4664932-.465 3.68-.533 1.992-2.547 1.738-4.23 1.616zm23.412.252h-3.6c-3.463 0-8.5.84-11.569-.8-1.629-.87-2.156-1.68-2.246-2.782.052-.626.086-1.252.141-1.846 1.4830864.1143362 2.9743713.0593147 4.445-.164.1-.017.2-.042.3-.062l.007.008c4.847 3.447 12.426 3.391 17.314.032 1.6529833.2633683 3.3267588.3735027 5 .329.072.821.09 1.77.2 2.678-1.031 3.356-6.993 2.604-9.989 2.604zm-5.8-7.645c3.638-.641 4.4.193 7.514 1.258.453.184.908.36 1.366.517-4.2629679 2.2413118-9.362011 2.2131921-13.6-.075 1.568-.543 3.13-1.293 4.725-1.703zm23.8 4.152c-.0472274.6511133-.1283373 1.2993248-.243 1.942-.27 1.158-.892 1.349-1.915 1.349-1.7 0-3.684.391-4.122-1.722-.17502-.9373718-.3001958-1.8833674-.375-2.834-.0146667-.1913333-.034-.3913333-.058-.6 2.4383291-.1580101 4.8412602-.6658756 7.135-1.508-.138 1.1226667-.277 2.246-.417 3.37zm1.45-4.694c-.3462473-.0174308-.6774017.1432432-.878.426-2.3393219.9870641-4.8317023 1.5622028-7.367 1.7v-.015c-.062-.5-1.035-.352-1.347.073-1.334797.0277207-2.6696162-.0542214-3.991-.245-.259-.039-.51-.086-.759-.136-.0916486-.1342136-.2338221-.2255078-.394-.253-2.856-.687-5.4-2.474-8.407-2.447s-5.567 1.787-8.418 2.473c-.1792112.0513859-.338582.1560057-.457.3-1.5627247.2119595-3.1443287.2475162-4.715.106-.166-.259-.647-.265-1.006-.092-.737-.08-1.465-.181-2.17-.3-1.8977423-.2626485-3.76351761-.7193747-5.568-1.363-.073-.255-.359-.333-.665-.282-.89312033-.3812088-1.73337705-.8759519-2.5-1.472-5.583-4.464-2.007-11.859 2.1-15.975.20724782.26135.43317354.5073283.676.736.4.367 1.763-.193 1.342-.584-.40968546-.3747256-.76992317-.8001556-1.072-1.266-.86026542-1.442809-1.07333645-3.1811346-.587-4.789 1.908-5.765 8.159-3.636 9.819-.178.284457.7163628.4336444 1.4792529.44 2.25.006.458 1.457.179 1.448-.388-.0078514-.657252-.1188705-1.3091939-.329-1.932 7.6314963-1.9686277 15.6438288-1.9183137 23.25.146-.2331626.6553661-.360752 1.3436066-.378 2.039-.011.74 1.457.515 1.466-.118.0009962-.7237075.1366378-1.4409125.4-2.115.0207186-.0576484.0298928-.1188099.027-.18 2.875-5.989 8.657-2.934 9.819.78.6950565 2.1179118.0882484 4.4466163-1.552 5.956-.218.2-.169.391.122.457.3646533.0535008.7352099-.0460139 1.024-.275.176-.162.335-.335.494-.509 2.984 2.817 4.951 6.034 5.206 10.261-.215 3.404-2.263 5.725-5.069 7.208z"/><path id="Shape" d="m9.276 29.194c.013 3.179 5.3 2.452 5.448-.388-.169-3.149-5.461-2.487-5.448.388zm2.4 1.287c-.5905917-.3509232-.9515508-.9880217-.949-1.675 0-.811.6-1.791 1.511-1.334.6368659.339311 1.0365124 1.0003977 1.041 1.722-.05.86-.627 1.846-1.606 1.287z"/><path id="Shape" d="m45.276 29.144c-.01 3.241 5.287 2.739 5.448-.238 0-.019-.012-.029-.014-.047s.015-.034.014-.053c-.172-3.206-5.439-2.67-5.448.338zm2.741 1.424c-.7673564-.211904-1.2942189-.9160324-1.281-1.712 0-.757.518-1.659 1.38-1.378.695762.265859 1.1547075.934176 1.153 1.679-.055.685-.424 1.566-1.252 1.411z"/><path id="Shape" d="m20.848 21.548c3.6.033 5.731-3.338 5.887-6.6-.153-3.2-2.095-6.544-5.676-6.5-3.465.04-5.77 3.365-5.794 6.6-.025 3.183 2.171 6.469 5.583 6.5zm.489-11.962c2.619.353 3.816 3.144 3.928 5.463-.119 2.474-1.529 5.78-4.6 5.365-2.543-.343-3.912-3.149-3.928-5.463-.018-2.49 1.639-5.764 4.6-5.365z"/><path id="Shape" d="m38.9 21.387c3.521-.111 5.668-3.191 5.826-6.482 0-.018-.011-.029-.014-.046s.016-.034.015-.053c-.162-3.369-2.5-6.658-6.2-6.153-3.1157043.56378555-5.3471712 3.3264122-5.243 6.491-.019 3.168 2.23 6.356 5.616 6.243zm-3.4-9.626c.4267854-.9137817 1.2012979-1.6189249 2.151001-1.95834606.9497032-.3394212 1.9957083-.28492591 2.904999.15134606 1.9.927 2.614 3.248 2.715 5.2-.0170602.8813799-.1862128 1.7531923-.5 2.577-.6799498 2.0200769-2.8244677 3.1521502-4.876 2.574-2.142-.616-3.136-3.508-3.134-5.451-.0205661-1.0770537.2337756-2.1415716.739-3.093z"/><path id="Path" d="m11.037 8.023c-.4144893-1.01410943-.9339862-1.98204949-1.55-2.888-.81870414-.66431915-2.00231117-.62160508-2.771.1-.234.19-.163.332.106.394.36360629.04017943.72904751-.05760465 1.024-.274-.034.028.263.274.362.4.18509937.24220556.34967007.4994309.492.769.334.613.54 1.282.888 1.887.234.408 1.612-.111 1.449-.388z"/><path id="Path" d="m49.578 8.52c.3285132-.0184684.6336249-.17593367.839-.433.325-.572.522-1.2.83-1.783.1190966-.22831945.2527037-.44877128.4-.66.0509586-.09739626.1186574-.18506625.2-.259.031.03.084.076.186.159.339.275 1.65-.285 1.358-.522-.9120969-.58533596-2.1136852-.42546254-2.841.378-.6345696.9082289-1.1614372 1.88712879-1.57 2.917-.148.256.51.216.598.203z"/><path id="Path" d="m21.724 15.806v-2c0-.365-1.448-.119-1.448.388v2c0 .365 1.448.119 1.448-.388z"/><path id="Path" d="m39.728 15.924v-2c0-.669-1.456-.394-1.456.152v2c0 .669 1.456.394 1.456-.152z"/></g></g></svg>