<svg height="512" viewBox="0 0 60 60" width="512" xmlns="http://www.w3.org/2000/svg"><g id="045---Party" fill="none"><path id="Path" d="m31.153 59.387c-.2213642.000073-.4164276-.1454192-.4794639-.3576185-.0630363-.2121992.0209607-.4405897.2064639-.5613815l10.959-7.168-13.8 7.968c-.2355125.13196-.5332497.0531389-.6726204-.1780652-.1393708-.2312042-.0700423-.5312938.1566204-.6779348l8.873-5.6-10.787 6.224c-.2346058.1253855-.5263122.0451285-.6637604-.18262-.1374483-.2277485-.0725112-.523243.1477604-.67238l11.461-7.23-13.267 7.659c-.2362075.133071-.5354329.0536509-.6745599-.1790411-.1391271-.2326919-.0674613-.5338687.1615599-.6789589l6.6-4.07-7.784 4.494c-.2355125.13196-.5332497.0531389-.6726204-.1780652-.1393708-.2312042-.0700423-.5312938.1566204-.6779348l15.005-9.432-16.655 9.612c-.2361735.1361818-.537908.0580681-.6783318-.1756081-.1404239-.2336761-.0677709-.5367718.1633318-.6813919l14.281-8.891-15.582 9c-.2353357.1240261-.5265799.04207-.6626998-.1864836-.1361199-.2285535-.0694507-.5236725.1516998-.6715164l11.241-6.921-12.272 7.081c-.2377586.1405564-.5444435.0617586-.685-.176-.1405564-.2377586-.0617586-.5444435.176-.685l4.669-2.836-5.313 3.067c-.1529097.0923532-.3434739.0961147-.4999089.0098676s-.2549746-.2493998-.2585-.428c-.0035253-.1786003.0884992-.3455144.2414089-.4378676l21.39-13.461-22.786 13.157c-.2374824.1411087-.5443912.0629824-.6855-.1745-.1411087-.2374824-.0629824-.5443912.1745-.6855l10.651-6.504-11.309 6.526c-.1530883.0921745-.3437223.0956757-.5000919.0091846s-.2547187-.2498344-.258-.4285c-.0032813-.1786657.0890036-.3455101.2420919-.4376846l22.151-13.869-23.275 13.433c-.23638246.1285498-.53210687.0469768-.6691568-.184581-.13704993-.2315579-.06627089-.5300498.1601568-.675419l10.077-6.134-10.541 6.085c-.2372063.1413849-.5441151.0637063-.6855-.1735s-.0637063-.5441151.1735-.6855l15.494-9.511-16.043 9.262c-.23628449.1306359-.5336041.0500916-.67163931-.181948s-.06692381-.5317553.16063931-.677052l14.254-8.725-14.759 8.522c-.23748244.1411087-.54439124.0629824-.68549999-.1745-.14110876-.2374824-.06298245-.5443912.17449999-.6855l13.919-8.511-14.268 8.237c-.2353357.1240261-.52657993.04207-.66269982-.1864836-.13611989-.2285535-.06945065-.5236725.15169982-.6715164l16.719-10.277-17.089 9.865c-.2353357.1240261-.52657993.04207-.66269982-.1864836-.13611989-.2285535-.06945065-.5236725.15169982-.6715164l16.23-9.969-16.584 9.577c-.23473446.1238045-.5252986.0426548-.6619149-.1848618-.13661629-.2275167-.07168534-.5221296.1479149-.6711382l22.046-13.744-22.341 12.9c-.23617349.1361818-.537908.0580681-.67833183-.1756081-.14042384-.2336761-.06777083-.5367718.16333183-.6813919l21.414-13.351-21.692 12.524c-.2372063.141661-.54433895.0642063-.68599998-.173s-.06420631-.544339.17299998-.686l17.544-10.842-17.537 10.125c-.23508655.127347-.52875831.0472199-.66659082-.1818764-.13783251-.2290964-.071048-.5260868.15159082-.6741236l20-12.474-19.979 11.533c-.23748244.1411088-.54439125.0629824-.6855-.1745s-.06298244-.5443912.1745-.6855l10.628-6.5-10.422 6.017c-.23637787.1427656-.54373437.0668778-.68649997-.1695-.1427656-.2363779-.06687788-.5437344.16949997-.6865l20.325-12.8-20 11.545c-.23583577.1260453-.52910097.0442222-.66561588-.1857118-.13651491-.2299339-.06795176-.5265795.15561588-.6732882l7.974-4.881-7.585 4.378c-.23583577.1260453-.52910097.0442222-.66561588-.1857118-.13651491-.2299339-.06795176-.5265795.15561588-.6732882l6.454-3.949-5.9 3.408c-.15308831.0927104-.34400815.0967067-.50084189.0104836-.15683373-.0862232-.25575457-.2495664-.2595-.4285-.00374542-.1789336.08825359-.3462732.24134189-.4389836l14.46-9.063-13.8 7.965c-.15326694.0918173-.34387535.094893-.5000249.0080685-.15614954-.0868244-.25411739-.2503583-.257-.429s.08975796-.3452512.2430249-.4370685l8.329-5.158-7.515 4.344c-.23637787.1430418-.54395825.0673779-.687-.169s-.06737787-.5439582.169-.687l12.418-7.868-11.418 6.594c-.2341443.133112-.53165209.0568382-.67287099-.1725078-.1412189-.2293459-.07539606-.5293391.14887099-.6784922l14.415-9.449-12.781 7.38c-.23543794.13455-.53521485.0569022-.67572813-.1750261s-.0705395-.5335888.15772813-.6799739l4.876-3.087-3.288 1.9c-.23252618.1307666-.52675914.0559509-.6685809-.1700024-.14182177-.2259533-.08127436-.5234503.1375809-.6759976l8.926-6.073-6.1 3.525c-.22920156.1303039-.52019781.0602449-.66497921-.1600976-.14478139-.2203425-.09359105-.5152436.11697921-.6739024l5.1-3.786c-.2071691-.0358285-.3697941-.1974289-.4069311-.4043675-.0371371-.2069386.059148-.4150028.2409311-.5206325l6.348-3.669c.2292016-.13030393.5201978-.0602449.6649792.1600976.1447814.22034249.0935911.51524355-.1169792.6739024l-4.288 3.186 10.335-5.97c.234721-.1466316.5438684-.07522102.6905.1595s.075221.5438684-.1595.6905l-8.926 6.072 12.783-7.383c.2363779-.1427656.5437344-.06687786.6865.16950001s.0668779.54373438-.1695.68649999l-4.859 3.076 6.842-3.95c.2333291-.12696636.5252099-.04931787.6646076.17680427.1393976.22612213.0776459.5217747-.1406076.67319573l-14.419 9.452 17.329-10c.2354379-.13454995.5352149-.05690217.6757281.17502611.1405133.23192829.0705395.53358878-.1577281.67997389l-12.421 7.86 14.333-8.276c.1532669-.09181726.3438754-.09489296.5000249-.00806853s.2541174.25035831.257.429-.089758.34525127-.2430249.43706853l-8.337 5.163 9.6-5.544c.2355125-.13195996.5332497-.0531389.6726204.17806525.1393708.23120415.0700423.53129378-.1566204.67793475l-14.46 9.067 16.053-9.268c.2358358-.12604535.529101-.04422219.6656159.18571176.1365149.22993394.0679517.52657952-.1556159.67328824l-6.434 3.936 7.3-4.216c.2362845-.13063592.5336041-.05009165.6716393.18194798.1380352.23203962.0669238.53175531-.1606393.67705202l-7.979 4.885 8.868-5.117c.2349709-.12921461.5300387-.05006202.6687925.17940502.1387537.22946708.0717837.52753608-.1517925.67559498l-20.317 12.795 21.788-12.581c.2374824-.1411088.5443912-.0629824.6855.1745s.0629824.5443912-.1745.6855l-10.658 6.521 11.435-6.6c.2350866-.127347.5287583-.0472199.6665908.1818764.1378325.2290964.071048.5260868-.1515908.6741236l-19.991 12.467 21.091-12.174c.2357179-.1278172.530297-.0469384.667702.1833224.137405.2302607.0687118.5279174-.155702.6746776l-17.548 10.844 18.4-10.624c.1532669-.0918173.3438754-.094893.5000249-.0080685.1561495.0868244.2541174.2503583.257.429s-.089758.3452512-.2430249.4370685l-21.412 13.347 22.294-12.871c.2361735-.1361818.537908-.0580681.6783318.1756081.1404239.2336761.0677709.5367718-.1633318.6813919l-22.044 13.743 22.866-13.2c.2357179-.1278172.530297-.0469384.667702.1833224.137405.2302607.0687118.5279174-.155702.6746776l-16.231 9.967 16.712-9.649c.2372063-.1413849.5441151-.0637063.6855.1735s.0637063.5441151-.1735.6855l-16.72 10.276 17.088-9.865c.2362845-.1306359.5336041-.0500916.6716393.181948s.0669238.5317553-.1606393.677052l-13.935 8.522 14.231-8.216c.2362845-.1306359.5336041-.0500916.6716393.181948s.0669238.5317553-.1606393.677052l-14.24 8.715 14.419-8.324c.2357179-.1278172.530297-.0469384.667702.1833224.137405.2302607.0687118.5279174-.155702.6746776l-15.494 9.512 15.624-9.019c.2369888-.1350471.5384839-.055235.6776156.1793791.1391316.2346142.0645535.5374465-.1676156.6806209l-10.09 6.142 10.125-5.844c.2355125-.13196.5332497-.0531389.6726204.1780652.1393708.2312042.0700423.5312938-.1566204.6779348l-22.149 13.87 22.233-12.836c.2369888-.1350471.5384839-.055235.6776156.1793791.1391316.2346142.0645535.5374465-.1676156.6806209l-10.665 6.519 10.51-6.074c.2349709-.1292146.5300387-.050062.6687925.179405.1387537.2294671.0717837.5275361-.1517925.675595l-21.384 13.46 21.28-12.286c.2377586-.1408326.5446674-.0622586.6855.1755s.0622586.5446674-.1755.6855l-4.652 2.826 4.252-2.455c.2357179-.1278172.530297-.0469384.667702.1833224.137405.2302607.0687118.5279174-.155702.6746776l-11.253 6.928 10.877-6.279c.2361735-.1361818.537908-.0580681.6783318.1756081.1404239.2336761.0677709.5367718-.1633318.6813919l-14.285 8.9 13.746-7.941c.234285-.1222281.52323-.0410463.6595757.1853141.1363457.2263603.0730104.5197344-.1445757.6696859l-15 9.43 14.333-8.275c.2362075-.133071.5354329-.0536509.6745599.1790411.1391271.2326919.0674613.5338687-.1615599.6789589l-6.596 4.072 5.782-3.337c.2346058-.1253855.5263122-.0451285.6637604.18262.1374483.2277485.0725112.523243-.1477604.67238l-11.463 7.232 10.479-6.049c.2346058-.1253855.5263122-.0451285.6637604.18262.1374483.2277485.0725112.523243-.1477604.67238l-8.86 5.6 7.553-4.36c.2337734-.1287456.5274505-.051198.667188.1761759.1397374.2273739.07627.5244122-.144188.6748241l-10.964 7.17 9.108-5.267c.2336556-.130691.5287926-.0541466.6694787.1736308.140686.2277774.0769932.5259521-.1444787.6763692l-7.4 4.891 5.013-2.894c.2305507-.1302945.5227069-.0582293.6662193.1643342.1435123.2225634.0886.5184238-.1252193.6746658l-5.189 3.714 1.12-.64c.1549945-.0985297.351531-.1041539.5119064-.0146489.1603754.0895049.2587712.2597296.2562855.4433739s-.1054527.3511436-.2681919.436275l-9.96 5.748c-.2305507.1302945-.5227069.0582293-.6662193-.1643342-.1435123-.2225634-.0886-.5184238.1252193-.6746658l5.187-3.714-10.472 6.045c-.2329061.1254293-.5232086.0477402-.6623373-.1772508s-.0789338-.5194187.1373373-.6717492l7.4-4.891-10.389 5.994c-.0750306.0437329-.1601583.0671689-.247.068z" fill="#fccb55"/><path id="Path" d="m29.994 54.469c-.2142984-.002129-.4034091-.1405908-.4701605-.3442391-.0667513-.2036482.0037027-.4271896.1751605-.5557609l2.947-2.154-4.741 2.737c-.2322377.1273115-.5234633.0514462-.664069-.1729923-.1406056-.2244384-.0818101-.5195841.134069-.6730077l1.668-1.132-2.593 1.5c-.233204.1287421-.5263939.0520483-.6666872-.1743946-.1402933-.226443-.0784231-.5231151.1406872-.6746054l1.162-.772-1.879 1.077c-.2325262.1307666-.5267591.0559509-.6685809-.1700024s-.0812744-.5234503.1375809-.6759976l3.136-2.138-3.87 2.234c-.2335451.1328438-.5303244.0573638-.6720248-.1709163s-.0776546-.5277351.1450248-.6780837l.483-.322-.807.466c-.2280542.1290416-.517047.0601323-.6623353-.1579314-.1452882-.2180638-.0975826-.5113034.1093353-.6720686l4.562-3.473-5.268 3.041c-.2287194.1310429-.5198877.0620127-.6654353-.1577616-.1455476-.2197742-.0954752-.5147944.1144353-.6742384l2.665-2-2.937 1.689c-.2229237.1277986-.5064223.0658196-.6556784-.1433455-.1492561-.2091652-.11567-.4974096.0776784-.6666545l2.778-2.423-2.977 1.719c-.2139383.1227586-.4854345.0711644-.6394281-.1215147-.1539936-.1926792-.1444708-.4688702.0224281-.6504853l1.737-1.884-1.7.978c-.1861158.1071414-.4198611.0834701-.5807182-.0588091-.160857-.1422791-.2128944-.3713847-.1292818-.5691909l.546-1.289c-.2062839.0337688-.4120999-.062782-.518-.243-.1382327-.2388784-.0567713-.5445824.182-.683l1.109-.639c.1861158-.1071414.4198611-.0834701.5807182.0588091.160857.1422791.2128944.3713847.1292818.5691909l-.527 1.243 3.247-1.867c.2137214-.1227494.4850125-.071451.6391595.1208586.1541469.1923095.1451658.4682619-.0211595.6501414l-1.735 1.882 4.6-2.655c.2225362-.1254221.5038286-.0629326.6523283.1449156.1484997.2078483.1164484.49421-.0743283.6640844l-2.781 2.425 5.605-3.235c.2287194-.1310429.5198877-.0620127.6654353.1577616.1455476.2197742.0954752.5147944-.1144353.6742384l-2.659 2 4.908-2.834c.2280542-.1290416.517047-.0601323.6623353.1579314.1452882.2180638.0975826.5113034-.1093353.6720686l-4.559 3.475 7.458-4.306c.2327769-.1270897.524286-.0503218.6642741.174934.139988.2252559.0797468.5206233-.1372741.673066l-.493.329 2.038-1.182c.2328603-.1351428.5309189-.0616362.6742423.1662803.1433233.2279164.080443.5283964-.1422423.6797197l-3.129 2.132 4.045-2.335c.233204-.1287421.5263939-.0520483.6666872.1743946.1402933.226443.0784231.5231151-.1406872.6746054l-1.163.773.789-.454c.2329673-.1327691.5291919-.0581284.6714287.1691822.1422368.2273105.0798406.5263539-.1414287.6778178l-1.666 1.13.833-.48c.2291341-.1258812.5165618-.0539928.6594556.1649362.1428938.2189289.0930076.5109803-.1144556.6700638l-2.942 2.155 1.445-.834c.2263606-.1309251.5153721-.0653166.6630162.1505114.1476442.2158279.1040467.5089685-.1000162.6724886l-2.259 1.808c.0763491.0429843.139598.1058876.183.182.1380647.2391402.0561341.5449248-.183.683l-3.911 2.258c-.2268311.1346393-.5192384.0699075-.6680488-.1478896s-.1028302-.513733.1050488-.6761104l.962-.769-3.793 2.186c-.0756818.0448998-.162002.0687242-.25.069z" fill="#ce9549"/><path id="Path" d="m19.525 44.5c-.2059464-.000202-.3907013-.1266595-.4654312-.3185694s-.0241455-.4100087.1274312-.5494306l2.068-1.9-1.975 1.136c-.2208144.1342809-.5075757.0781561-.6614736-.1294633s-.1242133-.4983097.0684736-.6705367l.515-.485c-.1973118.0698119-.4172258.0093428-.5511054-.1515358-.1338795-.1608785-.1533905-.3881185-.0488946-.5694642l.405-.7c-.135246-.0304909-.2514027-.1165194-.32-.237-.1382327-.2388784-.0567713-.5445824.182-.683l1.129-.651c.1961463-.1128455.4436308-.0798866.6034081.0803592.1597772.1602458.1920112.4078258.0785919.6036408l-.269.463 1.989-1.138c.2207276-.1320893.5056598-.0751513.6586724.1316224.1530126.2067738.124171.4959044-.0666724.6683776l-.489.46 2.18-1.258c.220439-.1262233.5004889-.0670999.6510942.1374575.1506054.2045574.1238973.4895314-.0620942.6625425l-2.072 1.898 4.685-2.7c.2218647-.1262356.5031961-.0650788.6526317.1418714.1494355.2069502.1189881.4932377-.0706317.6641286l-1.9 1.689 4.314-2.495c.2208953-.136633.509623-.0813788.6644625.1271591.1548394.208538.1242214.5009064-.0704625.6728409l-2.15 2.03 4.9-2.826c.2218647-.1262356.5031961-.0650788.6526317.1418714.1494355.2069502.1189881.4932377-.0706317.6641286l-1.9 1.691 4.328-2.5c.2189627-.1248229.4965995-.0671571.6477436.1345378.1511442.2016949.1285371.4843546-.0527436.6594622l-2.181 2.09 4.66-2.689c.2250277-.1259685.5089467-.060127.6555632.1520265.1466165.2121536.1078274.5010142-.0895632.6669735l-1.048.859.9-.521c.2022733-.1165648.4582887-.0776396.6167766.0937764.1584879.1714159.1772595.4296923.0452234.6222236l-1.216 1.773.554-.32c.2374252-.1242009.5305531-.0391619.6646466.1928199.1340935.2319817.0614797.5284321-.1646466.6721801l-2.464 1.423c-.2022733.1165648-.4582887.0776396-.6167766-.0937764-.1584879-.1714159-.1772595-.4296923-.0452234-.6222236l1.216-1.773-4.32 2.494c-.2250277.1259685-.5089467.060127-.6555632-.1520265-.1466165-.2121536-.1078274-.5010142.0895632-.6669735l1.049-.859-2.912 1.681c-.219385.1342545-.5048344.0801688-.6599003-.1250351-.1550659-.2052038-.1291551-.4945743.0599003-.6689649l2.181-2.092-5.005 2.89c-.2222396.1285782-.5057439.0679309-.6559297-.1403165-.1501859-.2082474-.1182322-.4963997.0739297-.6666835l1.9-1.69-4.332 2.5c-.2208953.136633-.509623.0813788-.6644625-.1271591-.1548394-.208538-.1242214-.5009064.0704625-.6728409l2.15-2.03-4.9 2.831c-.2222396.1285782-.5057439.0679309-.6559297-.1403165-.1501859-.2082474-.1182322-.4963997.0739297-.6666835l1.9-1.688-4.329 2.5c-.0756041.045082-.1619752.0689204-.25.069z" fill="#fff"/><path id="Path" d="m29.88 54.456c-.2028469-.0000364-.3855705-.1226235-.4625286-.3103048-.0769582-.1876814-.0328984-.4032603.1115286-.5456952l1.194-1.174-2.941 1.7c-.2230421.1299097-.508313.0686909-.6584139-.1412949-.150101-.2099857-.1156933-.4997155.0794139-.6687051l.318-.276-1.074.619c-.1901693.109811-.4297302.0826879-.5905348-.0668604s-.2052111-.3865148-.1094652-.5841396l.84-1.724-2.267 1.306c-.1567206.0924286-.3512794.0924286-.508 0-.1557153-.0936492-.2483673-.2644046-.242-.446l.043-1.226-.827.477c-.120499.0721872-.2662603.0889497-.4.046-.131595-.0415532-.2401648-.135647-.3-.26l-.232-.474c-.2072292.0388306-.4161152-.0589715-.519-.243-.0661356-.115082-.0837986-.251738-.0490968-.3798534s.1189205-.2371754.2340968-.3031466l.314-.18c.1194595-.0700478.2630544-.0860432.395-.044.1317671.0406758.240534.1345778.3.259l.218.445 1.143-.659c.1564695-.092036.3505305-.092036.507 0 .1560993.0933951.2491605.2641988.243.446l-.04 1.225 2.9-1.673c.1901693-.109811.4297302-.0826879.5905348.0668604s.2052111.3865148.1094652.5841396l-.84 1.725 4.119-2.376c.2227723-.1294397.5074311-.0684047.6575526.1409889s.1165485.4985799-.0775526.6680111l-.317.276 1.88-1.085c.217772-.1239843.4936884-.0676117.6453756.131857.1516872.1994686.1322878.4804159-.0453756.657143l-1.2 1.175 3.4-1.964c.2157055-.1230645.4890446-.0691582.6418764.1265869.1528317.1957451.1388315.4739971-.0328764.6534131l-.717.741.694-.4c.2374252-.1242009.5305531-.0391619.6646466.1928199.1340935.2319817.0614797.5284321-.1646466.6721801l-3.779 2.184c-.2160105.1246636-.4908577.0710795-.6442199-.1255968s-.1383361-.4762947.0352199-.6554032l.716-.739-3.706 2.139c-.0758031.044382-.1621615.067526-.25.067z" fill="#fff"/><path id="Path" d="m53.3 21.243c-.1929445.0002712-.3688275-.1104975-.4519385-.2846245-.0831109-.174127-.0586168-.3805358.0629385-.5303755l.67-.824-2.13 1.229c-.2187434.1297091-.5000021.0745628-.6535686-.128145s-.1305136-.4883932.0535686-.663855l2.031-1.969-3.582 2.07c-.2240205.1297641-.5100442.0670649-.6592395-.1445117s-.1122125-.502047.0852395-.6694883l3.42-2.916-4.733 2.733c-.2293391.1285228-.5190351.0574922-.6629121-.1625395s-.0927858-.5139004.1169121-.6724605l2.569-1.89-3.243 1.871c-.2308022.1338179-.5260112.0628564-.670779-.1612399s-.0880924-.5223777.128779-.6777601l3.385-2.436-4.045 2.335c-.2329673.1327691-.5291919.0581284-.6714287-.1691822-.1422368-.2273105-.0798406-.5263539.1414287-.6778178l1.419-.961-1.658.957c-.2327682.1379387-.5330334.0656905-.677577-.1630348s-.0809181-.5309351.143577-.6819652l3.537-2.426-3.917 2.26c-.2335451.1328438-.5303244.0573638-.6720248-.1709163s-.0776546-.5277351.1450248-.6780837l1.973-1.309-2.054 1.189c-.2325262.1307666-.5267591.0559509-.6685809-.1700024s-.0812744-.5234503.1375809-.6759976l5.131-3.492-5.377 3.1c-.2328603.1351428-.5309189.0616362-.6742423-.1662803-.1433233-.2279164-.080443-.5283964.1422423-.6797197l6.015-4.107-6.069 3.5c-.2123689.1214471-.4814292.0713915-.6359136-.1183044-.1544843-.1896959-.1490205-.4633181.0129136-.6466956l1.405-1.574-1.156.667c-.1549945.0985297-.351531.1041539-.5119064.0146489-.1603754-.0895049-.2587712-.25972964-.2562855-.44337394.0024857-.18364429.1054527-.35114353.2681919-.43627496l3.837-2.217c.2123689-.12144707.4814292-.07139151.6359136.11830438.1544843.18969589.1490205.46331814-.0129136.64669562l-1.403 1.581 14.85-8.573c.2321092-.12908381.5246372-.05417632.6661393.17057796s.0825963.52091953-.1341393.67442204l-6.013 4.107 5.659-3.267c.2325262-.13076655.5267591-.05595091.6685809.17000241s.0812744.52345026-.1375809.67599759l-5.131 3.49 4.2-2.424c.234721-.14552701.5429729-.07322099.6885.16150002.145527.234721.073221.54297294-.1615.68849998l-1.975 1.305 1.129-.652c.2324067-.13284986.5282158-.05908515.6710333.16733285s.0819688.52515148-.1380333.67766715l-3.534 2.429 2.637-1.522c.2329673-.1327691.5291919-.0581284.6714287.16918215.1422368.22731056.0798406.52635392-.1414287.67781785l-1.425.965.586-.338c.2308022-.1338179.5260112-.06285643.670779.16123991.1447678.22409633.0880924.52237765-.128779.67776009l-3.383 2.434 2.441-1.408c.2293391-.1285228.5190351-.0574922.6629121.1625395s.0927858.5139004-.1169121.6724605l-2.571 1.892 1.654-.954c.2236156-.1271011.5071788-.0638125.6555296.1463081s.1130835.4985123-.0815296.6666919l-3.421 2.916 2.35-1.356c.2183996-.1263353.4967049-.0701596.649.131.1522547.2017981.1299368.4854923-.052.661l-2.031 1.968.971-.56c.2087634-.1201586.4735249-.0743925.6298391.1088725.1563143.183265.1597449.451931.0081609.6391275l-.776.955c.1810078.0068295.3478584.0997308.449.25.1380647.2391402.0561341.5449248-.183.683l-2 1.156c-.0769864.0440513-.1643054.0668302-.253.066z" fill="#cc4a4a"/><path id="Path" d="m35.449 10.375c-.1831812.0002972-.3518603-.0995996-.4396502-.2603739-.0877898-.16077435-.0806344-.35668448.0186502-.5106261l.6-.936-2.767 1.6c-.220764.1274774-.5020857.0684559-.653-.137-.1513646-.20573178-.1233373-.49247216.065-.665l.923-.844-2.22 1.278c-.2153349.1244465-.4894005.07170517-.6431691-.1237719-.1537685-.19547707-.1404869-.47425507.0311691-.6542281l1.227-1.282-2.463 1.424c-.2137214.12274939-.4850125.07145101-.6391595-.12085857-.1541469-.19230957-.1451658-.46826192.0211595-.65014143l1.012-1.105-1.891 1.091c-.2092938.12055121-.4748427.07425902-.631-.11-.1555302-.18574106-.1555302-.45625894 0-.642l.969-1.164-.527.3c-.1991468.11425706-.450514.07820281-.6095162-.08742449s-.1847708-.41825619-.0624838-.61257551l.59-.941c-.1735447-.07490329-.2900154-.24126885-.3010158-.42996769-.0110004-.18869883.0853502-.36747102.2490158-.46203231l1.071-.619c.1991965-.11524767.4513319-.07964517.6108298.08625154.1594978.16589671.1851601.41923688.0621702.61374846l-.362.577 1.207-.7c.2098266-.12089751.4761297-.07405089.632101.1111958.1559714.1852467.1567714.45563779.001899.6418042l-.968 1.163 2.273-1.304c.2137214-.12274939.4850125-.07145101.6391595.12085857.1541469.19230957.1451658.46826192-.0211595.65014143l-1.013 1.1 2.678-1.545c.215258-.12294721.4881008-.06960939.6412115.12534993.1531108.19495932.1402554.47266935-.0302115.65265007l-1.23 1.285 3.165-1.826c.2203354-.12444915.4989119-.06466237.6487785.13923777s.1237692.48762234-.0607785.66076223l-.924.844.586-.338c.1990945-.11327851.4497027-.07677847.6082143.08858387s.1843818.41728981.0627857.61141613l-.735 1.139c.1490985.02357586.2795655.11324894.355.244.1380647.23914015.0561341.54492481-.183.683l-1.327.767c-.0743305.0459686-.1596225.0711764-.247.073z" fill="#8faa39"/><path id="Path" d="m5.224 56.231c-.18427586-.0000952-.35356232-.1015422-.44054072-.2639994-.0869784-.1624573-.07754814-.3595879.02454072-.5130006l1.048-1.571-2.4 1.384c-.22223957.1285782-.50574389.0679309-.65592975-.1403165s-.11823213-.4963997.07392975-.6666835l.9-.8-.447.258c-.22265563.1273746-.50558289.0655928-.65487411-.1430023-.14929122-.2085952-.11651109-.4963282.07587411-.6659977l1.678-1.468-1.018.587c-.22710024.1265913-.51332263.0580067-.65838639-.1577626s-.100553-.506709.10238639-.6692374l.565-.44c-.17180507.0131032-.33843415-.0622946-.442-.2-.15269528-.200635-.13211822-.4835696.048-.66l1.611-1.582-.344.2c-.20982655.1208975-.47612972.0740509-.63210104-.1111958s-.15677135-.4556378-.00189896-.6418042l.987-1.181c-.03652917-.0336316-.06757124-.0727716-.092-.116-.12924526-.2351714-.04980258-.5304334.18-.669l1.192-.687c.20982655-.1208975.47612972-.0740509.63210104.1111958s.15677135.4556378.00189896.6418042l-.328.391 1.314-.758c.21777199-.1239843.49368841-.0676117.64537559.131857.15168719.1994686.13228783.4804159-.04537559.657143l-1.611 1.577 2.4-1.386c.22710024-.1265913.51332263-.0580067.65838639.1577626s.100553.506709-.10238639.6692374l-.842.655c.19776574.0202881.36472388.1558118.42524357.3451799.06051969.189368.00310188.3965996-.14624357.5278201l-1.674 1.466.3-.171c.22223957-.1285782.50574389-.0679309.65592975.1403165s.11823213.4963997-.07392975.6666835l-.9.8c.20249112-.1055855.45078943-.0605576.60331049.1094079.15252105.1699655.1705019.4216722.04368951.6115921l-1.052 1.571.224-.129c.23742522-.1242009.53055313-.0391619.66464661.1928199.13409349.2319817.06147969.5284321-.16464661.6721801l-2.078 1.2c-.07580312.044382-.16216154.067526-.25.067z" fill="#cc4a4a"/><path id="Path" d="m3.326 7.4c-.20500305.00008671-.38928881-.12497317-.46493049-.31551081-.07564168-.19053765-.02731176-.4079438.12193049-.54848919l2.992-2.82-4.285 2.473c-.21194866.12152279-.48068088.07208076-.63549852-.11692061-.15481764-.18900138-.15037815-.46220791.01049852-.64607939l.771-.872-.419.246c-.1972945.11399846-.44670904.08018614-.60653152-.08222551-.15982247-.16241165-.18962256-.41233732-.07246848-.60777449l.23-.382c-.19565451-.05332312-.33972415-.21954215-.36471534-.42078698-.02499119-.20124484.07404624-.39765363.25071534-.49721302l1.125-.65c.19724526-.1130462.44592509-.0787945.60526506.08336564.15933996.16216014.18922392.41140256.07273494.60663436l-.068.113 1.4-.807c.21222554-.12284529.48221936-.073656.63748556.1161414.15526619.1897974.1499782.4641845-.01248556.6478586l-.771.874 5.345-3.088c.22081444-.13428088.50757574-.07815609.66147362.1294633.15389788.2076194.12421327.49830972-.06847362.6705367l-2.992 2.816 3.9-2.249c.2187434-.12970911.5000021-.0745628.6535686.128145s.1305136.48839317-.0535686.663855l-1.463 1.41 1.16-.669c.23893-.13584515.5427102-.05337078.6801373.18465285.137427.23802363.0569695.54234426-.1801373.68134715l-4.667 2.694c-.2187434.12970911-.50000209.0745628-.6535686-.128145s-.13051364-.48839317.0535686-.663855l1.456-1.41-4.1 2.368c-.07541173.04455867-.16140775.06804353-.249.068z" fill="#a04ccc"/><path id="Path" d="m50.993 49.468c-.2065219-.0001253-.3917162-.1272105-.4661203-.3198639s-.0227059-.4112281.1301203-.5501361l2.787-2.535-4.828 2.789c-.2205392.1280792-.5021318.0696485-.6535046-.1356028-.1513729-.2052513-.124009-.4915375.0635046-.6643972l1.154-1.068-.921.532c-.1825532.1055747-.4117198.0852629-.5728579-.0507745-.1611382-.1360374-.219601-.3585503-.1461421-.5562255l.443-1.2c-.2433478.0919438-.5165422-.0180689-.6282626-.2529951-.1117205-.2349262-.0246381-.5162705.2002626-.6470049l1.125-.65c.1825047-.104833.4111184-.0841528.5718483.0517289s.2191584.3578681.1461517.5552711l-.44 1.189 3.582-2.065c.2205392-.1280792.5021318-.0696485.6535046.1356028.1513729.2052513.124009.4915375-.0635046.6643972l-1.152 1.068 5-2.886c.2201191-.1211079.4959248-.0600693.6443868.1426092s.1234717.48405-.0583868.6573908l-2.788 2.534 2.724-1.57c.2157055-.1230645.4890446-.0691582.6418764.1265869.1528317.1957451.1388315.4739971-.0328764.6534131l-.74.766.3-.174c.1549945-.0985297.351531-.1041539.5119064-.0146489.1603754.0895049.2587712.2597296.2562855.4433739s-.1054527.3511436-.2681919.436275l-3.386 1.955c-.2157055.1230645-.4890446.0691582-.6418764-.1265869-.1528317-.1957451-.1388315-.4739971.0328764-.6534131l.74-.767-3.671 2.119c-.0757231.044686-.162075.0681737-.25.068z" fill="#5888e8"/><g fill="#262626"><path id="Shape" d="m41.736 39.953c-.588-1.561-1.317-1.4-2.788-1.515-3.068-.233-6.243 0-9.32 0-2.711 0-10.354-1.629-11.364 1.831-.9181841 3.5021746.036514 7.2302232 2.525 9.86-.212.135-.259.244.089.244h.145c2.2762683 2.5567664 5.4998312 4.0704426 8.921 4.189 3.950105-.0650328 7.6237056-2.0404877 9.856-5.3 1.0220142-1.6605197 1.7225292-3.4984812 2.065-5.418.0418242-.0465991.0534642-.1129468.03-.171.2614046-1.2335798.2067101-2.5132243-.159-3.72zm-21.744-.391c.4-.352 2.732 0 3.239 0h12.748c.75 0 3.132-.424 3.777 0 .8.525.667 2.636.523 3.977h-20.561c-.235-1.628-.318-3.451.274-3.977zm10.064 13.876c-2.7164465-.0279216-5.3114308-1.1298372-7.218-3.065h14.4c-1.9379284 1.8666308-4.4934571 2.9572316-7.182 3.065zm7.869-3.811h-15.762c-.8269382-.9892634-1.4636595-2.1230206-1.878-3.344-.171439-.5993153-.3099792-1.2075565-.415-1.822h20.294c-.2485453 1.8974986-1.0242494 3.6872652-2.239 5.166z"/><path id="Shape" d="m37.985 6.122c-.1303865-.35858805-.4183612-.63734457-.781-.756-.222578-.06476814-.4545631-.09114545-.686-.078-1.187-.093-2.263.022-3.469-.18-1.853-.417-5.275-2.764-6.335.061-.1841361.50662086-.3210518 1.02917683-.409 1.561-18.96 2.642-33.068 21.634-22 39.7-.74873426 1.0401397-1.27222097 2.225052-1.537 3.479-.342 1.229-1.05 4.091-.268 5.3.454.7 1.8.827 2.537.974.78021013.2720616 1.64089356.184162 2.35-.24.29211621-.2095227.50382303-.5126163.6-.859.365-1.129.171-2.645.406-3.866 13.0528465 11.4436517 32.7973887 10.59881 44.825-1.918 1.5790364-.3015332 3.1009144-.8492068 4.51-1.623.1006492-.0302653.1934773-.0821398.272-.152.018-.016.028-.041.045-.058.0396426-.0377159.0733567-.0812072.1-.129.8054473-1.3790308.7049339-3.1066779-.255-4.383-.0995394-.1059929-.2136891-.1972453-.339-.271 3.226617-7.3866035 2.6172441-15.8871689-1.63-22.738-.0276376-.0413835-.0697105-.0709771-.118-.083.1820684-.3381102.322428-.697068.418-1.069 1.441-5.443 2.331-11.09 3.49-16.6.0222612-.09322887.0064249-.19148611-.044-.273-.88-3.776-10.119 2.492-11.68 3.258-2.063 1.011-4.987 1.873-6.86 3.312-1.048-.363-2.109-.682-3.189-.941.1213982-.46662069.1374528-.95440663.047-1.428zm-10.026-.24c.124-.631.009-1.016.586-1.137.828-.175 2.52.766 3.319.946 1.024.172 2.13.071 3.124.264 1.192.232 1.611.45 1.459 1.546-.014.1-.027.226-.041.353-.051.064-.071.129-.021.176-.0216833.37185822-.1072683.73720128-.253 1.08-.621 1.132-3.3.487-4.295.267-1.124-.249-3.277-.692-3.883-1.721-.342-.58-.122-1.127.005-1.774zm-21.377 48.518c-.1 1.381-.233 1.174-1.366.9-2.37-.59-1.516-3.744-1.016-5.6.2493251-1.0325724.60141466-2.0375854 1.051-3 .294-.111.528-.326.5-.578.01032437-.0065892.02100757-.0125985.032-.018.31-.1.959.2 1.275.279 1.128.277 1.362.845 1 2-.165.531-.387 1.042-.6 1.557-.1.088-.146.18-.107.267-.15122572.3624289-.28111438.7333962-.389 1.111-.20097587 1.016801-.32797538 2.0468338-.38 3.082zm50.412-9.428c.093.471.464 1.427.063 1.85-1.3403237.7547217-2.8034977 1.2665956-4.322 1.512-1.011.147-3.215.5-3.855-.54-.1870002-.4584176-.2827887-.948909-.282-1.444 0-.182-.207-.532-.137-.7.2-.483 1.008-.442 1.4-.5.93-.134 1.879-.089 2.814-.281 1.018-.208 2.057-.839 3.057-.984 1.109-.163 1.101.258 1.262 1.082zm1.235-42.62c-.5186667 2.46666667-1.0373333 4.93333333-1.556 7.4-2.3128368-1.06346003-4.3142678-2.70234042-5.813-4.76l3.465-1.7c.895-.437 3.534-2.441 3.904-.94zm-8.664 3.277c1.7479864 2.35925709 4.1356126 4.16802281 6.88 5.212-.1573333.7453333-.314 1.4906667-.47 2.236-.147.7-.25 1.506-.366 2.33-4.310266-1.0782565-7.9100626-4.0321522-9.809-8.049.658-.264 1.294-.516 1.817-.773zm-5.121 2.3c2.1394914 4.3780002 6.2399586 7.4720195 11.037 8.328-.1240481.9778416-.3835354 1.9336704-.771 2.84-.478.992.086.924-1.4 1.159-2.167.342-5.422-1.639-7.029-2.9-1.85-1.449-6.279-6.111-4.006-8.15.6553126-.53243115 1.3863498-.96417788 2.169-1.281zm-4.053 1.315c-1.306 2 1.041 5.037 2.4 6.664 2.061 2.476 8.871 7.209 12.042 5.053 3.858361 6.5549289 4.401968 14.5448777 1.467 21.562-.8311578.2664684-1.645044.5840744-2.437.951-1.3466696.4170364-2.7527912.6096095-4.162.57-.6014005-.0816237-1.2136558-.0129082-1.782.2-1.408.734-1.048 3.648-.11 4.67.823.9 2.705.707 3.873.6-11.544 11.969-31 11.846-42.844.309.2-.549.427-1.091.671-1.642s.612-1 .312-1.611c-.384-.783-1.837-.926-2.577-1.076-.57860114-.1359502-1.18367704-.1075494-1.747.082-10.21-17.036 2.593-35.357 20.803-37.84v.014c.409 1.42 3.5 2.048 4.714 2.291 1.738.348 5.715 1.018 6.553-1.174.047-.123.1-.284.154-.459.898.244 1.791.518 2.67.836z"/><path id="Shape" d="m10.845.682c-1.211-.717-2.988.618-4.045.918-1.46572592.31636777-2.96268099.46498971-4.462.443-.41569822-.01281705-.82806283.07790317-1.2.264-1.312.776-.96 3.6-.036 4.6.867.939 2.929.667 4.069.573 2.10009671-.19406474 4.13483982-.8328834 5.969-1.874.0932957-.04902731.1777829-.11323758.25-.19.0121587-.00651982.0238531-.0138706.035-.022 1.003-.936.624-3.994-.58-4.712zm-8.666 5.107c-.18540965-.45879026-.28015613-.94916275-.279-1.444 0-.184-.206-.53-.136-.7.2-.492 1-.455 1.4-.515.929-.138 1.88-.09 2.815-.281 1.005-.207 2.054-.849 3.049-.983 1.108-.153 1.1.28 1.265 1.1.114.58.431 1.361.013 1.894-1.32499529.74051986-2.7695085 1.24312111-4.268 1.485-1.02.148-3.218.497-3.859-.556z"/><path id="Path" d="m35.432 29.381 9 6c.454.3 1.767-.342 1.136-.762l-8.568-5.711 8.461-5.64c.816-.544-.406-.883-.928-.536l-9 6c-.233.156-.39.457-.101.649z"/><path id="Path" d="m24.562 28.6-9-6c-.5-.335-1.789.365-1.124.808l8.51 5.674-8.422 5.615c-.816.544.384.99.948.614l9-6c.245-.168.379-.521.088-.711z"/></g></g></svg>