<svg height="512" viewBox="0 0 60 60" width="512" xmlns="http://www.w3.org/2000/svg"><g id="018---Sloth" fill="none"><path id="Path" d="m28.482 59.375c-.2235188.0002724-.4200664-.14784-.4814104-.3627764-.0613441-.2149364.0274191-.4444779.2174104-.5622236l4.235-2.638-5.826 3.363c-.2354116.1379583-.5379577.061708-.6798637-.1713453-.1419059-.2330532-.070765-.5368414.1598637-.6826547l13.664-8.747-15.934 9.2c-.2357179.1278172-.530297.0469384-.667702-.1833224-.137405-.2302607-.0687118-.5279174.155702-.6746776l4-2.457-5.175 2.985c-.2352087.125628-.5276152.0445694-.664573-.1842276-.1369579-.228797-.070267-.5248112.151573-.6727724l10.068-6.246-11.451 6.611c-.2349709.1292146-.5300387.050062-.6687925-.179405-.1387537-.2294671-.0717837-.5275361.1517925-.675595l17.633-11.135-19.41 11.206c-.2356087.1297647-.5316571.04988-.6700067-.1807924-.1383496-.2306723-.0694166-.5294607.1560067-.6762076l14.938-9.284-16.248 9.381c-.2355125.13196-.5332497.0531389-.6726204-.1780652-.1393708-.2312042-.0700423-.5312938.1566204-.6779348l18.817-11.769-20.19 11.655c-.2369888.1350471-.5384839.055235-.6776156-.1793791-.1391316-.2346142-.0645535-.5374465.1676156-.6806209l5.543-3.364-6.226 3.595c-.2362075.133071-.5354329.0536509-.6745599-.1790411-.1391271-.2326919-.0674613-.5338687.1615599-.6789589l17.359-10.739-18.282 10.554c-.2372063.1413849-.5441151.0637063-.6855-.1735s-.0637063-.5441151.1735-.6855l15.763-9.695-16.593 9.579c-.2352087.125628-.52761522.0445694-.66457305-.1842276-.13695782-.228797-.07026696-.5248112.15157305-.6727724l21.137-13.148-22.051 12.733c-.23701856.1320316-.53608427.0509486-.6739531-.1827228-.13786884-.2336714-.06422739-.5346559.1659531-.6782772l2.6-1.566-2.874 1.657c-.23638246.1285498-.53210687.0469768-.6691568-.184581-.13704993-.2315579-.06627089-.5300498.1601568-.675419l9.779-5.939-10.166 5.869c-.23628449.1306359-.5336041.0500916-.67163931-.181948s-.06692381-.5317553.16063931-.677052l14.85-9.082-15.22 8.786c-.23571786.1278172-.53029699.0469384-.66770199-.1833224-.13740501-.2302607-.06871185-.5279174.15570199-.6746776l17.413-10.7-17.853 10.308c-.23571786.1278172-.53029699.0469384-.66770199-.1833224-.13740501-.2302607-.06871185-.5279174.15570199-.6746776l18.1-11.135-18.38 10.611c-.23698876.1350471-.53848394.055235-.67761558-.1793791-.13913163-.2346142-.06455352-.5374465.16761558-.6806209l9.045-5.485-9.13 5.27c-.23583577.1260453-.52910097.0442222-.66561588-.1857118-.13651492-.2299339-.06795177-.5265795.15561588-.6732882l12.169-7.415-12.238 7.065c-.23617349.1361818-.537908.0580681-.67833183-.1756081-.14042384-.2336761-.06777083-.5367718.16333183-.6813919l21.984-13.685-22.128 12.774c-.23620749.133071-.53543293.0536509-.67455995-.1790411-.13912701-.2326919-.06746125-.5338687.16155995-.6789589l17.037-10.494-17.02 9.826c-.23638246.1285498-.53210687.0469768-.6691568-.184581-.13704993-.2315579-.06627089-.5300498.1601568-.675419l5.679-3.44-5.42 3.129c-.23508655.127347-.52875831.0472199-.66659082-.1818764-.13783251-.2290964-.071048-.5260868.15159082-.6741236l20.017-12.481-19.898 11.488c-.23620749.133071-.53543293.0536509-.67455994-.1790411-.13912702-.2326919-.06746126-.5338687.16155994-.6789589l16.933-10.5-16.56 9.559c-.23665401.1424894-.54401051.066154-.68649997-.1705-.14248945-.236654-.06615402-.5440105.17049997-.6865l19.03-11.943-18.654 10.765c-.23508655.127347-.52875831.0472199-.66659082-.1818764-.13783251-.2290964-.071048-.5260868.15159082-.6741236l15.3-9.538-14.656 8.464c-.23620749.133071-.53543293.0536509-.67455994-.1790411-.13912702-.2326919-.06746126-.5338687.16155994-.6789589l9.672-5.968-9.031 5.214c-.2372063.1413849-.5441151.0637063-.6855-.1735s-.0637063-.5441151.1735-.6855l7.1-4.37-6.407 3.7c-.23520184.1357534-.53576051.0589489-.677-.173-.14144229-.2329481-.07028397-.5362604.16-.682l15.94-10.094-14.827 8.56c-.15290967.0923532-.34347386.0961147-.49990887.0098676-.15643502-.0862471-.25497466-.2493998-.2585-.428-.00352534-.1786003.0884992-.3455144.24140887-.4378676l14.344-9.084-13.052 7.537c-.23543794.13455-.53521485.0569022-.67572813-.1750261s-.0705395-.5335888.15772813-.6799739l9.418-5.959-7.934 4.582c-.23637787.1427656-.54373437.0668778-.68649997-.1695-.14276561-.2363779-.06687788-.5437344.16949997-.6865l7.675-4.861-5.75 3.319c-.23477127.1336383-.53323995.0566316-.67405087-.1739091-.14081092-.2305408-.07304023-.5312411.15305087-.6790909l9.07-5.835-6.167 3.56c-.2310609.1298083-.52326795.0567757-.66608655-.1664779s-.08662801-.5191613.12808655-.6745221l3.546-2.493c-.0581042-.0418874-.1065304-.0957701-.142-.158-.1375532-.2386555-.0561721-.5436114.182-.682l6.467-3.734c.2317427-.13536544.5290201-.06362981.6735243.16252724.1445041.22615705.084687.52606004-.1355243.67947276l-.861.606 14.5-8.371c.2354116-.13795832.5379577-.06170795.6798637.17134529.1419059.23305325.070765.53684142-.1598637.68265471l-9.085 5.843 8.817-5.092c.2349709-.12921461.5300387-.05006202.6687925.17940502.1387537.22946704.0717837.52753611-.1517925.67559498l-7.672 4.86 8.333-4.811c.2363779-.14304174.5439582-.06737786.687.16900001.1430417.23637787.0673779.54395823-.169.68699999l-9.427 5.961 12.74-7.353c.2363779-.14276561.5437344-.06687787.6865.1695s.0668779.54373439-.1695.6865l-14.344 9.083 14.818-8.56c.2349709-.12921461.5300387-.05006202.6687925.17940502.1387537.22946704.0717837.52753611-.1517925.67559498l-15.924 10.09 16.282-9.4c.2357179-.12781718.530297-.04693838.667702.18332235.137405.23026074.0687118.52791741-.155702.67467765l-7.125 4.383 7.608-4.386c.2362075-.13307102.5354329-.05365088.6745599.17904108.1391271.23269196.0674613.53386873-.1615599.67895892l-9.673 5.963 10.598-6.121c.2350866-.12734701.5287583-.04721993.6665908.18187644.1378325.22909636.071048.52608673-.1515908.67412356l-15.291 9.537 16.592-9.579c.2361735-.13618181.537908-.05806811.6783318.17560806.1404239.23367616.0677709.53677186-.1633318.68139194l-19.029 11.943 20.534-11.856c.2369302-.14193718.5440628-.06493016.686.172s.0649302.5440628-.172.686l-16.922 10.5 17.964-10.377c.2350866-.127347.5287583-.0472199.6665908.1818764.1378325.2290964.071048.5260868-.1515908.6741236l-20.015 12.481 21.21-12.245c.2363825-.1285498.5321069-.0469768.6691568.184581.1370499.2315579.0662709.5300498-.1601568.675419l-5.69 3.445 6.1-3.519c.2362075-.133071.5354329-.0536509.6745599.1790411.1391271.2326919.0674613.5338687-.1615599.6789589l-17.05 10.5 17.798-10.275c.2356087-.1297647.5316571-.04988.6700067.1807924.1383496.2306723.0694166.5294607-.1560067.6762076l-21.974 13.681 22.83-13.181c.2369888-.1350471.5384839-.055235.6776156.1793791.1391316.2346142.0645535.5374465-.1676156.6806209l-12.2 7.435 12.58-7.263c.1538028-.0911027.3445252-.0932323.5003239-.0055865s.2530042.2517515.255.4305c.0019959.1787485-.0915211.3449838-.2453239.4360865l-9.015 5.468 9.32-5.381c.2357179-.1278172.530297-.0469384.667702.1833224.137405.2302607.0687118.5279174-.155702.6746776l-18.103 11.135 18.486-10.673c.2357179-.1278172.530297-.0469384.667702.1833224.137405.2302607.0687118.5279174-.155702.6746776l-17.414 10.7 17.723-10.232c.2369888-.1350471.5384839-.055235.6776156.1793791.1391316.2346142.0645535.5374465-.1676156.6806209l-14.837 9.075 15.061-8.7c.2377586-.1408326.5446674-.0622586.6855.1755s.0622586.5446674-.1755.6855l-9.792 5.946 9.768-5.64c.2380347-.1402803.5447197-.0610347.685.177s.0610347.5447197-.177.685l-2.561 1.553 2.463-1.422c.2352087-.125628.5276152-.0445694.664573.1842276.1369579.228797.070267.5248112-.151573.6727724l-21.159 13.155 21.312-12.3c.2353357-.1240261.5265799-.04207.6626998.1864836.1361199.2285535.0694507.5236725-.1516998.6715164l-15.75 9.688 15.605-9.009c.2348663-.1223119.5243654-.0402957.6601778.1870309.1358123.2273266.0708339.5211193-.1481778.6699691l-17.347 10.731 17.227-9.947c.2377586-.1408326.5446674-.0622586.6855.1755s.0622586.5446674-.1755.6855l-5.582 3.387 5.267-3.04c.2361735-.1361818.537908-.0580681.6783318.1756081.1404239.2336761.0677709.5367718-.1633318.6813919l-18.8 11.761 18.436-10.646c.2356087-.1297647.5316571-.04988.6700067.1807924.1383496.2306723.0694166.5294607-.1560067.6762076l-14.938 9.284 14.557-8.405c.2355125-.13196.5332497-.0531389.6726204.1780652.1393708.2312042.0700423.5312938-.1566204.6779348l-17.63 11.131 16.972-9.8c.2356087-.1297647.5316571-.04988.6700067.1807924.1383496.2306723.0694166.5294607-.1560067.6762076l-10.086 6.261 9.465-5.464c.2372063-.1413849.5441151-.0637063.6855.1735s.0637063.5441151-.1735.6855l-3.983 2.446 3.171-1.83c.2343611-.1288923.5286543-.0505227.6678755.1778537.1392213.2283764.0740613.5258734-.1478755.6751463l-13.671 8.752 12.651-7.3c.2361735-.1361818.537908-.0580681.6783318.1756081.1404239.2336761.0677709.5367718-.1633318.6813919l-4.218 2.628 3.063-1.769c.2347034-.1364868.5354374-.0607325.6774741.1706544.1420368.2313868.073465.5338394-.1544741.6813456l-9.563 6.21 7.954-4.592c.1523738-.0932463.3429193-.098119.4998598-.0127826.1569406.0853364.2564332.2479173.261.4265s-.086486.3460363-.2388598.4392826l-4.619 2.976 2.9-1.671c.2347029-.1405531.538787-.0663884.6824238.1664401.1436368.2328284.0734897.5378644-.1574238.6845599l-2.537 1.668.168-.1c.2309306-.1317312.5245674-.0597083.6683337.1639283.1437664.2236366.0873821.520673-.1283337.6760717l-4.086 2.915c.1360899.0999573.2125358.2618499.2032588.4304496-.009277.1685998-.1030236.3211277-.2492588.4055504l-5.925 3.42c-.2309306.1317312-.5245674.0597083-.6683337-.1639283-.1437664-.2236366-.0873821-.520673.1283337-.6760717l1.548-1.1-6.095 3.518c-.2341443.133112-.5316521.0568382-.672871-.1725078-.1412189-.2293459-.075396-.5293391.148871-.6784922l2.53-1.664-5.5 3.176c-.2342478.1308833-.5300435.0535271-.6702262-.1752769s-.074765-.527467.1482262-.6767231l4.621-2.981-6.955 4.015c-.2342478.1308833-.5300435.0535271-.6702262-.1752769s-.074765-.527467.1482262-.6767231l9.562-6.21-12.252 7.07c-.0758978.0441549-.1621931.067282-.25.067z" fill="#856d58"/><path id="Path" d="m23.163 5.541c-.1630815.00025686-.3160407-.07903492-.409829-.21244931-.0937883-.13341438-.116619-.30418456-.061171-.45755069l.818-2.271c-.100896-.2334171-.0105269-.50538481.21-.632l.181-.1c.1821493-.1046341.4102772-.08425841.571.051.1607759.13481201.2202817.35566254.149.553l-.521 1.453 1.248-.725c.2374252-.12420086.5305531-.03916186.6646466.19281988.1340935.23198173.0614797.52843213-.1646466.67218012l-2.435 1.409c-.0760084.0438886-.1622305.06699614-.25.067z" fill="#856d58"/><path id="Path" d="m30.468 55.44c-.2215495.0005171-.4170218-.1448238-.4803234-.3571381-.0633015-.2123142.0206638-.4409696.2063234-.5618619l8.432-5.507-10.8 6.234c-.234023.1252853-.5251579.0458598-.6631351-.1809119-.1379772-.2267718-.0746978-.5218373.1441351-.6720881l8.612-5.515-10.614 6.128c-.1521951.0936036-.3427662.0989017-.4999268.0138987-.1571607-.0850031-.2570345-.2473934-.262-.426-.0049655-.1786067.0857317-.3462951.2379268-.4398987l14.5-9.466-16.866 9.739c-.1529097.0925318-.3435692.0964583-.5001589.0103006-.1565897-.0861578-.2553199-.2493105-.259-.428-.00368-.1786896.0882492-.3457688.2411589-.4383006l12.115-7.673-13.656 7.887c-.234481.1270728-.5274228.0477401-.6657366-.1802909-.1383139-.2280309-.0733058-.5244809.1477366-.6737091l15.155-9.646-16.836 9.72c-.2369888.1350471-.5384839.055235-.6776156-.1793791-.1391316-.2346142-.0645535-.5374465.1676156-.6806209l.149-.09-.681.392c-.2346058.1253855-.5263122.0451285-.6637604-.18262-.1374483-.2277485-.0725112-.523243.1477604-.67238l15.611-9.839-16.87 9.739c-.234481.1270728-.5274228.0477401-.6657366-.1802909-.1383139-.2280309-.0733058-.5244809.1477366-.6737091l18.583-11.8-19.805 11.437c-.2350866.127347-.5287583.0472199-.6665908-.1818764-.1378325-.2290964-.071048-.5260868.1515908-.6741236l15.529-9.7-16.414 9.479c-.2346058.1253855-.5263122.0451285-.6637604-.18262-.1374483-.2277485-.0725112-.523243.1477604-.67238l19.24-12.157-20.1 11.606c-.2350866.127347-.5287583.0472199-.6665908-.1818764-.1378325-.2290964-.071048-.5260868.1515908-.6741236l17.864-11.207-18.586 10.731c-.23620749.133071-.53543293.0536509-.67455995-.1790411-.13912701-.2326919-.06746125-.5338687.16155995-.6789589l12.939-7.994-13.231 7.638c-.23473446.1238045-.5252986.0426548-.6619149-.1848618-.13661629-.2275167-.07168534-.5221296.1479149-.6711382l16.484-10.292-16.876 9.745c-.23775858.1408326-.54466738.0622586-.68549998-.1755-.14083261-.2377586-.06225859-.5446674.17549998-.6855l2.471-1.5-2.456 1.416c-.23448097.1270728-.52742279.0477401-.66573664-.1802909-.13831386-.2280309-.07330581-.5244809.14773664-.6737091l19.715-12.511-19.969 11.529c-.23571786.1278172-.53029699.0469384-.66770199-.1833224-.13740501-.2302607-.06871185-.5279174.15570199-.6746776l10.703-6.617-10.678 6.166c-.23637787.1427656-.54373437.0668778-.68649998-.1695-.1427656-.2363779-.06687788-.5437344.16949998-.6865l14.782-9.3-14.653 8.455c-.23698876.1350471-.53848394.055235-.67761558-.1793791-.13913163-.2346142-.06455352-.5374465.16761558-.6806209l1.169-.715-.9.519c-.23402298.1252853-.52515789.0458598-.66313509-.1809119-.13797721-.2267718-.07469786-.5218373.14413509-.6720881l8.632-5.523-8.223 4.748c-.23486417.1312813-.53150396.0531604-.67124116-.1767732-.1397372-.2299337-.07245767-.5292187.15224116-.6772268l3.846-2.443-3.41 1.966c-.23497088.1292146-.53003872.050062-.66879247-.179405-.13875376-.2294671-.07178369-.5275361.15179247-.675595l.917-.574-.332.192c-.23252618.1307666-.52675914.0559509-.6685809-.1700024-.14182177-.2259533-.08127436-.5234503.1375809-.6759976l9.583-6.524-8.849 5.106c-.23405687.1357068-.53360081.0606207-.67597038-.1694442-.14236958-.2300649-.07591293-.5316408.14997038-.6805558l5.412-3.588-4.457 2.578c-.23240668.1328499-.52821577.0590851-.67103328-.1673329s-.08196881-.5251514.13803328-.6776671l6.062-4.162-4.938 2.849c-.23210925.1290838-.52463723.0541763-.66613933-.170578-.1415021-.2247542-.08259625-.5209195.13413933-.674422l3.51-2.406-2.215 1.278c-.22695866.1282325-.51435386.0605795-.66027781-.1554298s-.1014061-.5078844.10227781-.6705702l4.704-3.693-2.446 1.413c-.22712724.1307942-.51670669.0640046-.66360351-.1530559-.14689683-.2170604-.10125056-.5107158.10460351-.6729441l2.072-1.626c-.0399685-.0347424-.073778-.07599-.1-.122-.1375532-.2386555-.0561721-.5436114.182-.682l3.593-2.075c.2276227-.1347294.5207984-.0688675.6689241.1502738.1481257.2191412.0999482.5157364-.1099241.6767262l-.154.12 2.453-1.417c.2271272-.1307942.5167067-.0640046.6636035.1530559.1468968.2170604.1012506.5107158-.1046035.6729441l-4.706 3.692 7.333-4.233c.2321092-.1290838.5246372-.0541763.6661393.170578.1415021.2247542.0825963.5209195-.1341393.674422l-3.51 2.405 4.811-2.775c.2324067-.1328499.5282158-.0590851.6710333.1673329s.0819688.5251514-.1380333.6776671l-6.065 4.164 7.425-4.286c.2340569-.1357068.5336008-.0606207.6759704.1694442s.0759129.5316408-.1499704.6805558l-5.4 3.579 6.462-3.731c.2325262-.1307666.5267591-.0559509.6685809.1700024s.0812744.5234503-.1375809.6759976l-9.592 6.533 10.983-6.341c.1529097-.0923532.3434739-.0961147.4999089-.0098676s.2549746.2493998.2585.428c.0035253.1786003-.0884992.3455144-.2414089.4378676l-.9.57 1.536-.886c.234481-.1270728.5274228-.0477401.6657366.1802909.1383139.2280309.0733058.5244809-.1477366.6737091l-3.846 2.443 6.8-3.924c.234023-.1252853.5251579-.0458598.6631351.1809119.1379772.2267718.0746978.5218373-.1441351.6720881l-8.625 5.518 16.25-9.382c.2362845-.1306359.5336041-.0500916.6716393.181948s.0669238.5317553-.1606393.677052l-1.156.707 2.9-1.674c.2363779-.1427656.5437344-.0668779.6865.1695s.0668779.5437344-.1695.6865l-14.789 9.302 16.858-9.733c.2372063-.141661.5443389-.0642063.686.173.141661.2372063.0642063.544339-.173.686l-10.716 6.623 11.821-6.825c.2354379-.13455.5352149-.0569022.6757281.1750261.1405133.2319283.0705395.5335888-.1577281.6799739l-19.717 12.51 21.014-12.129c.2369888-.1350471.5384839-.055235.6776156.1793791.1391316.2346142.0645535.5374465-.1676156.6806209l-2.444 1.483 2.778-1.6c.2350866-.127347.5287583-.0472199.6665908.1818764.1378325.2290964.071048.5260868-.1515908.6741236l-16.49 10.291 17.1-9.87c.2372063-.141661.544339-.0642063.686.173s.0642063.544339-.173.686l-12.95 8 13.24-7.65c.236654-.1424895.5440105-.066154.6865.1705s.066154.5440105-.1705.6865l-17.867 11.2 18.226-10.513c.2363779-.1427656.5437344-.0668778.6865.1695.1427656.2363779.0668779.5437344-.1695.6865l-19.241 12.152 19.512-11.265c.2361735-.1361818.537908-.0580681.6783318.1756081.1404239.2336761.0677709.5367718-.1633318.6813919l-15.533 9.7 15.569-8.984c.2341527-.123715.5241564-.0433988.6613045.1831476.1371481.2265465.0738659.5207372-.1443045.6708524l-18.579 11.793 18.557-10.714c.2355125-.13196.5332497-.0531389.6726204.1780652.1393708.2312042.0700423.5312938-.1566204.6779348l-15.608 9.837 15.482-8.938c.2354667-.1225198.5256326-.0396943.6609447.1886614.135312.2283558.0686058.5226457-.1519447.6703386l-.341.208c.2402886-.095992.5141183.0072032.6312888.2379068.1171704.2307037.0389678.51269-.1802888.6500932l-15.155 9.645 14.814-8.548c.2349709-.1292146.5300387-.050062.6687925.179405.1387537.2294671.0717837.5275361-.1517925.675595l-12.123 7.672 11.5-6.638c.2352733-.1446986.5433014-.0712733.688.164.1446985.2352733.0712733.5433014-.164.688l-14.5 9.467 13.648-7.883c.2354116-.1379583.5379577-.061708.6798637.1713453.1419059.2330532.070765.5368414-.1598637.6826547l-8.613 5.514 7.648-4.415c.2347034-.1364868.5354374-.0607325.6774741.1706544.1420368.2313868.073465.5338394-.1544741.6813456l-8.43 5.508 6.947-4.011c.2348642-.1312813.531504-.0531604.6712412.1767732.1397372.2299337.0724576.5292187-.1522412.6772268l-1.329.848c.2357995-.0993618.5085632-.0046649.6320638.2194373.1235006.2241021.0578783.5052805-.1520638.6515627l-5.464 3.8 2.767-1.6c.2309306-.1317312.5245674-.0597083.6683337.1639283.1437664.2236366.0873821.520673-.1283337.6760717l-3.11 2.209c.1164701.1080939.174626.2651135.1566668.4229965s-.109895.2978296-.2476668.3770035l-5.538 3.2c-.2309306.1317312-.5245674.0597083-.6683337-.1639283-.1437664-.2236366-.0873821-.520673.1283337-.6760717l.045-.032-3.8 2.2c-.232192.1378754-.5319082.0664712-.6769921-.1612862-.1450839-.2277573-.0831069-.529564.1399921-.6817138l5.46-3.8-9.16 5.288c-.2354379.13455-.5352149.0569022-.6757281-.1750261-.1405133-.2319283-.0705395-.5335888.1577281-.6799739l1.259-.8-3.136 1.81c-.0774636.043452-.1652093.0652157-.254.063z" fill="#c9b198"/><path id="Path" d="m9.068 46.1c-.21789714.0004251-.41097891-.1403097-.47727266-.3478777s.00946784-.4341668.18727266-.5601223l6.009-4.279-6.407 3.7c-.23055066.1302945-.52270695.0582293-.66621925-.1643342-.14351231-.2225634-.08860007-.5184238.12521925-.6746658l7.446-5.325-7.856 4.535c-.23068362.128482-.52150784.0554404-.66410781-.1667933-.14259996-.2222337-.0878131-.5170425.12510781-.6732067l7.725-5.478-7.926 4.575c-.23332909.1269664-.52520994.0493179-.66460758-.1768043-.13939765-.2261221-.07764593-.5217747.14060758-.6731957l1.929-1.264-1.849 1.067c-.23081697.1267753-.52040052.0527915-.66212318-.1691615-.14172267-.221953-.08699929-.5157856.12512318-.6718385l7.124-5-7.032 4.056c-.23093065.1317312-.52456739.0597083-.66833375-.1639283s-.0873821-.520673.12833375-.6760717l6.961-4.956-6.752 3.9c-.2310609.1298083-.52326795.0567757-.66608655-.1664779s-.08662801-.5191613.12808655-.6745221l5.35-3.773-4.975 2.87c-.23068362.128482-.52150784.0554404-.66410781-.1667933-.14259996-.2222337-.0878131-.5170425.12510781-.6732067l4.084-2.9-3.5 2.021c-.23174266.1353654-.52902013.0636298-.67352428-.1625272-.14450415-.2261571-.08468698-.5260601.13552428-.6794728l1.437-1.008-.834.482c-.1992437.1162507-.45215683.0811062-.61215551-.0850646-.15999867-.1661707-.18554983-.4202324-.06184449-.6149354l1.017-1.628c-.24283736.1088852-.52841045.0084723-.64966128-.2284332s-.03568313-.5272723.19466128-.6605668l1.686-.973c.1992437-.1162507.45215683-.0811062.61215551.0850646.15999867.1661707.18554983.4202324.06184449.6149354l-1.013 1.621 9.027-5.213c.230817-.1267753.5204005-.0527915.6621232.1691615.1417226.221953.0869993.5157856-.1251232.6718385l-1.438 1.006 2.791-1.61c.2306836-.128482.5215078-.0554404.6641078.1667933s.0878131.5170425-.1251078.6732067l-4.085 2.9 5.325-3.073c.2310609-.1298083.523268-.0567757.6660866.1664779.1428185.2232536.086628.5191613-.1280866.6745221l-5.351 3.771 6.279-3.616c.2312043-.1356861.5282776-.0648879.6734329.160492.1451554.2253799.0867349.525133-.1324329.679508l-6.954 4.951 7.689-4.438c.230817-.1267753.5204005-.0527915.6621232.1691615.1417226.221953.0869993.5157856-.1251232.6718385l-7.121 5 7.49-4.324c.2347029-.1405531.538787-.0663884.6824238.1664401.1436368.2328284.0734897.5378644-.1574238.6845599l-1.938 1.269 1.818-1.051c.2313261-.1333882.5266402-.061466.670727.1633522.1440867.2248181.0860887.5231794-.131727.6776478l-7.724 5.477 7.479-4.318c.2305507-.1302945.5227069-.0582293.6662193.1643342.1435123.2225634.0886.5184238-.1252193.6746658l-7.449 5.322 6.592-3.8c.2309306-.1317312.5245674-.0597083.6683337.1639283.1437664.2236366.0873821.520673-.1283337.6760717l-6.011 4.28 3.893-2.248c.2374252-.1242009.5305531-.0391619.6646466.1928199.1340935.2319817.0614797.5284321-.1646466.6721801l-12.982 7.495c-.07578057.0445497-.16209454.0680271-.25.068z" fill="#735a49"/><path id="Path" d="m49.649 46.079c-.2000746.0000381-.380909-.1191971-.459696-.303106s-.0403555-.3970781.097696-.541894l1.022-1.074-1.791 1.034c-.2201191.1211079-.4959248.0600693-.6443868-.1426092s-.1234717-.48405.0583868-.6573908l2.368-2.148-3.423 1.976c-.2240205.1297641-.5100442.0670649-.6592395-.1445117s-.1122125-.502047.0852395-.6694883l3.821-3.254-5.124 2.958c-.2280542.1290416-.517047.0601323-.6623353-.1579314-.1452882-.2180638-.0975826-.5113034.1093353-.6720686l3.86-2.938-4.9 2.827c-.2310609.1298083-.523268.0567757-.6660866-.1664779-.1428185-.2232536-.086628-.5191613.1280866-.6745221l2.706-1.908-3.449 1.991c-.2288588.1292299-.518701.0592157-.6633326-.1602346-.1446317-.2194502-.0946742-.513414.1143326-.6727654l6.123-4.58-7.452 4.3c-.2329673.1327691-.5291919.0581284-.6714287-.1691822-.1422368-.2273105-.0798406-.5263539.1414287-.6778178l3.117-2.112-3.674 2.12c-.2341443.133112-.5316521.0568382-.672871-.1725078-.1412189-.2293459-.075396-.5293391.148871-.6784922l1.172-.771-1.489.859c-.2310609.1298083-.523268.0567757-.6660866-.1664779-.1428185-.2232536-.086628-.5191613.1280866-.6745221l5.678-4.005-6.115 3.531c-.2333681.1382671-.5344194.0652417-.6785003-.1645824-.144081-.2298241-.078635-.5326135.1475003-.6824176l2.709-1.836-2.668 1.54c-.2305507.1302945-.5227069.0582293-.6662193-.1643342-.1435123-.2225634-.0886-.5184238.1252193-.6746658l4.586-3.282-4.46 2.581c-.2309306.1317312-.5245674.0597083-.6683337-.1639283-.1437664-.2236366-.0873821-.520673.1283337-.6760717l3.208-2.29-2.787 1.609c-.2262036.1284409-.5131028.0619842-.6597948-.1528333-.1466919-.2148176-.1041677-.5062269.0977948-.6701667l4.315-3.456-3.274 1.885c-.2209688.1391878-.5118365.0848763-.6676883-.1246724-.1558519-.2095487-.1241864-.5037444.0726883-.6753276l2.383-2.267c-.2303951.0111957-.4385485-.1366726-.5038277-.3579097s.0292596-.4584192.2288277-.5740903l3.245-1.873c.2208953-.136633.509623-.0813788.6644625.1271591.1548394.208538.1242214.5009064-.0704625.6728409l-2.214 2.105 5.329-3.075c.2262036-.1284409.5131028-.0619842.6597948.1528333.1466919.2148176.1041677.5062269-.0977948.6701667l-4.315 3.457 6.07-3.5c.2303174-.1272935.5198822-.0542782.6623044.1670037s.0889497.5150841-.1223044.6719963l-3.21 2.288 4.3-2.481c.2305507-.1302945.5227069-.0582293.6662193.1643342.1435123.2225634.0886.5184238-.1252193.6746658l-4.582 3.283 5.875-3.391c.2329673-.1327691.5291919-.0581284.6714287.1691822.1422368.2273105.0798406.5263539-.1414287.6778178l-2.712 1.838 3.643-2.1c.2310609-.1298083.523268-.0567757.6660866.1664779.1428185.2232536.086628.5191613-.1280866.6745221l-5.68 4.007 6.812-3.933c.2341443-.133112.5316521-.0568382.672871.1725078.1412189.2293459.075396.5293391-.148871.6784922l-1.162.765.8-.464c.2329673-.1327691.5291919-.0581284.6714287.1691822.1422368.2273105.0798406.5263539-.1414287.6778178l-3.12 2.115 2.79-1.614c.2288588-.1292299.518701-.0592157.6633326.1602346.1446317.2194502.0946742.513414-.1143326.6727654l-6.129 4.579 5.685-3.283c.2313261-.1333882.5266402-.061466.670727.1633522.1440867.2248181.0860887.5231794-.131727.6776478l-2.705 1.907 2.129-1.228c.2280542-.1290416.517047-.0601323.6623353.1579314.1452882.2180638.0975826.5113034-.1093353.6720686l-3.862 2.937 3.069-1.771c.2236156-.1271011.5071788-.0638125.6555296.1463081s.1130835.4985123-.0815296.6666919l-3.821 3.254 2.713-1.566c.2201191-.1211079.4959248-.0600693.6443868.1426092s.1234717.48405-.0583868.6573908l-2.362 2.143.745-.429c.2150358-.1228992.4876397-.0698481.6408929.1247234.1532532.1945714.1409636.4720174-.0288929.6522766l-1.473 1.549c.1073132.0400946.1971862.116522.254.216.1382327.2388784.0567713.5445824-.182.683l-2.115 1.227c-.0760953.0445559-.1628227.0677063-.251.067z" fill="#735a49"/><path id="Path" d="m30.236 44.435c-.1428136-.0005968-.2786971-.0616353-.374-.168-.1574472-.1779639-.1678978-.4421554-.025-.632l1.52-2.026-3.5 2.018c-.210704.121866-.4785513.0742927-.6344017-.1126784-.1558503-.186971-.1544141-.4590066.0034017-.6443216l1.575-1.85-2.256 1.3c-.2081694.1205179-.4726501.07573-.6295333-.1066069-.1568831-.1823369-.1617005-.4505398-.0114667-.6383931l.519-.647c-.2433698.0797986-.5076882-.037207-.6122332-.2710169-.1045449-.2338098-.0155082-.5088135.2062332-.6369831l2.184-1.261c.2081694-.1205179.4726501-.07573.6295333.1066069.1568831.1823369.1617005.4505398.0114667.6383931l-.5.625 2.463-1.422c.2106402-.1205642.4774423-.072448.6326961.114103.1552538.1865509.1541169.4576547-.0026961.642897l-1.574 1.85 3.111-1.794c.2053786-.1166531.4643743-.0736762.6210692.1030582s.1683425.4390131.0279308.6289418l-1.521 2.026 1.312-.757c.23893-.1358451.5427102-.0533708.6801373.1846528.137427.2380237.0569695.5423443-.1801373.6813472l-3.431 1.98c-.0742607.0438294-.1587726.0672858-.245.068z" fill="#4f442b"/><path id="Path" d="m15.652 37.461c-.2052759.0025014-.3912215-.120727-.4689085-.3107511s-.0313269-.4082253.1169085-.5502489l1.493-1.471-3.093 1.789c-.2226556.1273746-.5055829.0655928-.6548741-.1430023-.1492912-.2085952-.1165111-.4963282.0758741-.6659977l2.141-1.871-2.948 1.7c-.2229237.1277986-.5064223.0658196-.6556784-.1433455-.1492561-.2091652-.11567-.4974096.0776784-.6666545l2.388-2.072-2.638 1.522c-.2257509.1255439-.5099711.0584606-.655761-.1547765-.1457898-.2132372-.1051519-.5024254.093761-.6672235l.843-.676-.472.272c-.2130757.122757-.4837819.0723545-.6383991-.1188629-.1546171-.1912173-.1472392-.4664769.0173991-.6491371l1.326-1.467c-.2368665.0319413-.4632158-.1082215-.5401845-.3344997-.0769686-.2262781.0169697-.475387.2241845-.5945003l2.488-1.436c.2130757-.122757.4837819-.0723545.6383991.1188629.1546171.1912173.1472392.4664769-.0173991.6491371l-1.242 1.38 3.4-1.962c.2259042-.1277621.5120042-.0614438.6586593.152678.1466552.2141217.1051039.5048532-.0956593.669322l-.844.678 1.468-.848c.2229237-.1277986.5064223-.0658196.6556784.1433455.1492561.2091652.11567.4974096-.0776784.6666545l-2.387 2.072 2.871-1.66c.222272-.1250569.5030453-.0627806.6515981.1445262.1485528.2073069.1172703.4931974-.0725981.6634738l-2.14 1.872 2.038-1.177c.217772-.1239843.4936884-.0676117.6453756.131857.1516872.1994686.1322878.4804159-.0453756.657143l-1.494 1.473.415-.239c.1549945-.0985297.351531-.1041539.5119064-.0146489.1603754.0895049.2587712.2597296.2562855.4433739s-.1054527.3511436-.2681919.436275l-3.798 2.191c-.0754207.0435509-.160909.0666466-.248.067z" fill="#fff"/><path id="Path" d="m43.886 37.394c-.2072888.0003777-.3933148-.127188-.4676529-.320689-.0743381-.1935009-.0215705-.412805.1326529-.551311l1.449-1.304-2.657 1.534c-.2275891.1298897-.5168511.062032-.6629348-.1555172-.1460838-.2175492-.0994243-.5109773.1069348-.6724828l.545-.421-.913.526c-.2253165.1265297-.5099298.0605202-.6565485-.1522715-.1466186-.2127916-.1069324-.5022515.0915485-.6677285l1.657-1.348-1.862 1.075c-.226507.1291681-.5142486.0625855-.6609917-.1529516-.1467432-.2155372-.103215-.5076567.0999917-.6710484l1.007-.8-.758.437c-.2089623.1200463-.4738237.0739562-.6299505-.1096215s-.1590908-.4524031-.0070495-.6393785l1.646-2.033-.155.089c-.1547852.0907422-.3463247.0915917-.5019087.0022259-.155584-.0893657-.2513568-.2552442-.2509624-.4346667.0003945-.1794226.0968957-.3448784.2528711-.4335592l2.488-1.436c.2085042-.1190529.4721949-.0730928.628127.1094799.1559322.1825726.1600769.4502065.009873.6375201l-1.644 2.032 4.182-2.414c.226047-.126152.5110038-.0589101.6568083.1549885.1458046.2138986.1042381.5037159-.0958083.6680115l-1.01.807 1.54-.889c.2259084-.1319558.5153456-.0674504.6638412.1479469s.1058364.5088509-.0978412.6730531l-1.657 1.347 1.912-1.1c.2274132-.1273482.5145055-.05864.6596263.1578646.1451209.2165046.0995839.5081708-.1046263.6701354l-.547.423.341-.2c.220007-.1195261.4945025-.0578939.6422936.1442135.147791.2021073.1233056.4823693-.0572936.6557865l-1.448 1.3.779-.449c.1549945-.0985297.351531-.1041539.5119064-.0146489.1603754.0895049.2587712.2597296.2562855.4433739s-.1054527.3511436-.2681919.436275l-4.892 2.824c-.0761774.0478407-.1640541.0737885-.254.075z" fill="#fff"/><g fill="#262626"><path id="Shape" d="m47.877 10.635c-2.571-1.709-10.1-3.446-9.149-7.713.13-.586-.971-.313-1.189-.178-.461.286-4.951-.934-4.821-1.762.0208791-.06187165.0243386-.12829409.01-.192-.0034561-.02650736-.013043-.05184431-.028-.074-.22-.34-1.16-.258-1.388.2l-.01.02c-.006.01 0 .017-.007.027-1.445 1.258-5.4 2.85-6.621.743-.237-.412-1.352-.061-1.4.374-.5 4.873-11.4 8.37-14.989 11.839-3.80755101 3.6810743-6.41143387 8.4286545-7.469 13.618-2.3803043 10.8797282 2.51550242 22.0548602 12.127 27.681 18.542 10.7 46.23.89 46.785-22.3.0059309-6.1222442-2.0522276-12.0677222-5.842-16.876-1.7220187-2.0920371-3.7474548-3.9145588-6.009-5.407zm-8.566 46.72c-10.866 3-24.129.563-31.733-8.209-7.115-8.208-7.699-20.968-2.013-30.109 3.18247453-4.9092872 7.871945-8.6534245 13.364-10.67 2.731-1.092 4.657-2.267 5.449-4.788 1.936 1.63 4.556.471 6.633-1.083.04 2.581 3.774 2.235 6.167 1.355-.147 4.531 7.793 6.183 10.659 8.3 6.738 4.985 10.224 12.633 10.435 20.924-.0263805 11.4763378-7.8331765 21.473121-18.961 24.28z"/><path id="Shape" d="m38.7 15.975c-1.2385005.3166894-2.4481131.737177-3.616 1.257-2.8959536 1.3344464-6.2071849 1.4468992-9.187.312-2.321-.784-4.408-1.813-6.895-2.007-3.2468149-.3053148-6.4721811.7701703-8.886 2.963-7.211 6.618-7.5 19.384-2.087 27.043 6.438 9.107 19.149 11.539 29.489 9.1 5.2098194-1.1464028 9.8869595-4.0013307 13.288-8.111.355-.14.63-.4.486-.624 3.6880364-4.9806385 5.0765523-11.2978948 3.817-17.366.0519072-.104428.0273102-.2306923-.06-.308-.106-.524-.224-1.05-.367-1.579-2.382-7.424-7.763-12.667-15.982-10.68zm-32.669 13.99c.076-.48.17-.971.279-1.467 2.04424286-.9720524 4.1485336-1.8124326 6.3-2.516 3.688-.983 7.788-.112 9.7 3.412 1.3156186 2.444498 1.2564423 5.3991403-.156 7.789-2.235 3.752-8.092 6.152-12.147 8.338-3.52473625-4.3602663-4.97622672-10.0391862-3.976-15.556zm24.133 24.5c-7.736 0-15.209-3.121-19.806-8.517 5.4-3.078 15.363-6.747 14.267-14.285-1.5-10.287-11.854-6.253-18.193-3.683.895-3.713 2.714-7.64 5.8-9.8 2.974-2.082 6.531-1.919 9.837-.88 2.335.733 5.1 3.214 7.673 3.26 1.861.033 3.658-1.468 5.24-2.2 3.332-1.543 7.316-2.6 10.862-1.124 4.039 1.681 6.13 5.889 7.388 9.814.038.141.065.279.1.419-2.4026115-1.2144103-4.9346458-2.1536918-7.548-2.8-2.3450566-.4284153-4.7640984.0973879-6.7197266 1.4606006-1.9556281 1.3632127-3.2858937 3.4509449-3.6952734 5.7993994-1.095 7.547 8.501 11.171 14.031 14.271-4.359 5.148-11.341 8.259-19.236 8.26zm20.016-9.248c-3.563-2.019-7.519-3.872-10.61-6.481-2.2270513-1.7978359-3.2551911-4.6944074-2.66-7.494 1.05-4.783 5.983-6.307 10.463-4.88 2.129.678 4.2 1.66 6.275 2.508 1.2473198 5.6941794-.0161477 11.6497453-3.468 16.347z"/><path id="Shape" d="m34.718 40.969c0-.01-.008-.016-.009-.025s.018-.036.015-.055c-.469-3.637-10.242-2.689-9.382.778.988 3.983 8.958 3.276 9.376-.698zm-1.449.288c-.39 3.071-5.307 2.911-6.375.3-1.144-2.808 5.98-3.065 6.375-.3z"/><path id="Shape" d="m14.862 37.259c.0523195.0180755.1081644.0235572.163.016 2.248-.116 4.926-1.06 5.569-3.493.764-2.9-1.953-5.048-4.619-5.057-2.175-.007-4.756 1.075-5.497 3.275-1.006 2.993 1.722 5.048 4.384 5.259zm.163-7.984c4.526-.2 6.109 7.186.95 7.45-1.8001572.0032158-3.4154294-1.1051951-4.06-2.786-.3434237-1.0394982-.1891906-2.1792202.4181623-3.0900543s1.6001985-1.4913613 2.6918377-1.5739457z"/><path id="Shape" d="m44.882 28.669c-2.228-.018-4.882 1.206-5.482 3.531-.763 2.941 1.9 4.936 4.529 5.121.036 0 .072.009.108.011h.028c.0431271.005248.0865587.0075866.13.007 2.37-.122 5.124-1.342 5.491-3.981.39-2.805-2.271-4.668-4.804-4.689zm-.026 7.99c-1.6632267-.0196081-3.1676877-.9917333-3.869-2.5-.2822007-.6942912-.3347652-1.460681-.15-2.187.307383-1.2232171 1.3220466-2.1403624 2.57-2.323 5.086-1.272 6.861 6.676 1.449 7.01z"/><path id="Path" d="m14.529 33.293h1c.3608939.0090282.7167489-.0860979 1.025-.274.207-.144.219-.312-.083-.312h-1c-.3608939-.0090282-.7167489.0860979-1.025.274-.207.144-.219.312.083.312z"/><path id="Path" d="m45.067 32.479h-1c-.31 0-.764.239-.8.579-.041.377.387.463.666.463h1c.31 0 .764-.239.8-.579.041-.377-.387-.463-.666-.463z"/><path id="Path" d="m34.307 46.917c-1.316 2.434-7.341 2.173-8.644-.236-.306-.567-1.688-.031-1.326.638 1.809 3.345 9.589 3.03 11.356-.236.386-.715-1.081-.728-1.386-.166z"/></g></g></svg>