<svg height="508pt" viewBox="0 -1 508.21659 508" width="508pt" xmlns="http://www.w3.org/2000/svg"><path d="m359.230469 460.464844c-1.710938 0-3.253907-1.019532-3.925781-2.589844-.671876-1.574219-.339844-3.394531.84375-4.628906l.699218-.726563-9.386718 5.429688c-1.835938 1.058593-4.171876.613281-5.484376-1.050781-1.3125-1.667969-1.207031-4.042969.253907-5.582032l12.800781-13.414062-22.785156 13.132812c-1.867188 1.109375-4.265625.636719-5.578125-1.09375-1.308594-1.730468-1.113281-4.167968.457031-5.664062l14.011719-13.550782-23.601563 13.652344c-1.925781 1.144532-4.410156.601563-5.683594-1.238281-1.277343-1.84375-.910156-4.355469.835938-5.757813l3.414062-2.78125-8.832031 5.121094c-1.84375 1.0625-4.1875.605469-5.496093-1.074218-1.308594-1.675782-1.183594-4.0625.300781-5.59375l16.125-16.613282-27.375 15.804688c-1.921875 1.113281-4.378907.566406-5.644531-1.261719-1.265626-1.824219-.917969-4.316406.796874-5.726563l3.816407-3.140624-9.386719 5.402343c-1.882812 1.085938-4.285156.582031-5.574219-1.171875-1.289062-1.753906-1.050781-4.199218.554688-5.671875l11.8125-10.796875-20.097657 11.597656c-1.808593 1.035157-4.101562.613282-5.421874-.996093-1.320313-1.613281-1.28125-3.945313.089843-5.515625l17.835938-20.28125-30.464844 17.585937c-2.027344 1.058594-4.527344.332031-5.671875-1.644531-1.144531-1.980469-.523438-4.511719 1.40625-5.738281l52.90625-30.566407c1.804688-1.023437 4.085938-.601562 5.40625 1.003907 1.316406 1.605469 1.285156 3.929687-.074219 5.5l-17.835937 20.292969 31.472656-18.167969c1.878906-1.0625 4.257812-.550781 5.535156 1.1875 1.28125 1.738281 1.058594 4.160156-.519531 5.636719l-11.808594 10.804687 20.085938-11.597656c1.925781-1.113281 4.378906-.5625 5.644531 1.261719 1.269531 1.824218.921875 4.316406-.796875 5.726562l-3.796875 3.125 9.328125-5.382812c1.84375-1.066407 4.1875-.609376 5.496094 1.070312 1.308593 1.679688 1.179687 4.0625-.300781 5.59375l-16.128907 16.613281 27.375-15.804687c1.925781-1.113282 4.378907-.5625 5.644531 1.261718 1.265626 1.824219.921876 4.316407-.796874 5.726563l-3.414063 2.808594 8.535156-4.949219c1.867188-1.105469 4.265625-.636719 5.578125 1.09375 1.308594 1.730469 1.113282 4.167969-.457031 5.664062l-13.996094 13.5 18.441407-10.640624c1.835937-1.074219 4.1875-.628907 5.503906 1.042968 1.320312 1.671875 1.203125 4.058594-.273438 5.597656l-12.800781 13.414063 9.949219-5.746094c1.839844-1.046875 4.171875-.589843 5.476562 1.078125 1.304688 1.664063 1.191406 4.039063-.269531 5.570313l-5.90625 6.117187c1.339844.75 2.171875 2.160156 2.1875 3.691406.011719 1.535157-.800781 2.957032-2.128906 3.726563l-16.765625 9.753906c-.648438.378907-1.390625.578125-2.140625.570313zm0 0" fill="#eb86be"/><path d="m110.082031 503.695312c-1.890625 0-3.554687-1.242187-4.09375-3.050781-.535156-1.8125.179688-3.761719 1.761719-4.792969l3.808594-2.480468-13.917969 8.027344c-1.988281 1.132812-4.515625.496093-5.730469-1.441407-1.214844-1.941406-.683594-4.492187 1.207032-5.785156l89.839843-60.664063-88.851562 51.292969c-2.003907 1.140625-4.550781.484375-5.75-1.480469-1.203125-1.96875-.625-4.535156 1.304687-5.796874l46.992188-30.300782-42.546875 24.550782c-1.988281 1.113281-4.503907.46875-5.707031-1.46875-1.207032-1.933594-.675782-4.476563 1.203124-5.769532l83.496094-55.851562-78.992187 45.605468c-2.039063 1.15625-4.628907.453126-5.804688-1.578124-1.171875-2.03125-.484375-4.628907 1.539063-5.8125l190.949218-110.210938c2-1.246094 4.632813-.632812 5.878907 1.367188 1.25 2 .636719 4.632812-1.363281 5.878906l-83.507813 55.800781 80.640625-46.550781c2.003906-1.140625 4.550781-.484375 5.75 1.484375 1.203125 1.96875.625 4.535156-1.304688 5.796875l-47 30.300781 43.835938-25.277344c1.988281-1.132812 4.515625-.496093 5.726562 1.445313 1.214844 1.9375.683594 4.492187-1.207031 5.785156l-89.8125 60.644531 44.503907-25.695312c1.992187-1.097657 4.5-.433594 5.691406 1.503906 1.191406 1.941406.652344 4.476563-1.230469 5.757813l-4.15625 2.714843c1.996094-.949219 4.386719-.21875 5.511719 1.683594 1.121094 1.90625.605468 4.351563-1.191406 5.636719l-39.253907 28.265625 34.644531-20.003907c1.957032-1.121093 4.453126-.523437 5.6875 1.363282 1.238282 1.890625.789063 4.414062-1.019531 5.761718l-23.570312 17.390626 18.902343-10.90625c1.933594-1.101563 4.386719-.53125 5.640626 1.308593 1.25 1.835938.878906 4.332031-.855469 5.722657l-16.519531 13.132812 11.734374-6.765625c1.855469-1.042969 4.195313-.558594 5.484376 1.136719 1.289062 1.691406 1.132812 4.078125-.363282 5.589844l-12.339844 12.234374 7.210938-4.164062c1.726562-.992188 3.914062-.652344 5.261719.816406 1.347656 1.464844 1.5 3.671875.367187 5.3125l-3.976562 5.722656c2-.195312 3.863281 1.027344 4.480468 2.9375.617188 1.910157-.183593 3.992188-1.917968 5l-14.40625 8.3125c-1.726563.984376-3.902344.644532-5.25-.820312-1.347656-1.460938-1.503906-3.660156-.378906-5.300781l3.496093-5.042969-19.292969 11.121094c-1.855468 1.042968-4.195312.558594-5.484374-1.132813-1.292969-1.695312-1.136719-4.082031.363281-5.59375l12.339843-12.199219-32.820312 18.925782c-1.933594 1.125-4.40625.5625-5.667969-1.285156-1.261719-1.847657-.878906-4.355469.875-5.746094l16.535157-13.152344-34.917969 20.183594c-1.957031 1.121094-4.453125.523437-5.6875-1.363282-1.238281-1.890624-.789063-4.414062 1.019531-5.761718l23.5625-17.382813-42.503906 24.507813c-1.972656 1.140625-4.488282.535156-5.726563-1.375-1.234375-1.914063-.75-4.460938 1.101563-5.785156l39.25-28.261719-61.363282 35.421875c-.636718.382812-1.367187.59375-2.113281.605468zm0 0" fill="#eb86be"/><path d="m67.414062 477.839844c-1.710937-.003906-3.253906-1.027344-3.917968-2.601563-.667969-1.574219-.332032-3.394531.855468-4.625l2.765626-2.859375-10.898438 6.320313c-2.003906 1.140625-4.550781.484375-5.753906-1.480469-1.199219-1.96875-.621094-4.535156 1.308594-5.796875l75.5625-48.527344-80.597657 46.488281c-2.007812 1.070313-4.503906.378907-5.671875-1.574218-1.167968-1.949219-.597656-4.476563 1.292969-5.738282l13.277344-8.261718-11.945313 6.894531c-2.015625 1.136719-4.570312.457031-5.757812-1.527344s-.574219-4.554687 1.378906-5.792969l2.851562-1.765624c-2.078124.785156-4.40625-.15625-5.359374-2.160157-.957032-2.003906-.210938-4.40625 1.707031-5.519531l19.34375-12.042969-14.949219 8.652344c-2.007812 1.074219-4.503906.382813-5.671875-1.570313-1.167969-1.953124-.597656-4.480468 1.292969-5.742187l4.21875-2.609375c-2.019532 1.082031-4.53125.375-5.691406-1.597656-1.164063-1.972656-.5625-4.511719 1.363281-5.75l114.003906-75.539063-109.515625 63.234375c-2.007812 1.175782-4.589844.527344-5.800781-1.460937-1.210938-1.992188-.605469-4.582031 1.363281-5.828125l73.695312-47.445313-69.257812 39.988281c-1.992188 1.113282-4.511719.460938-5.710938-1.480468-1.203124-1.945313-.660156-4.488282 1.230469-5.773438l91.691407-60.535156-87.210938 50.339844c-1.996094 1.066406-4.480469.390625-5.660156-1.546875-1.175782-1.933594-.636719-4.453125 1.230468-5.734375l44.375-28.457032-39.972656 23.039063c-2.007812 1.148437-4.566406.484375-5.765625-1.492187-1.199219-1.980469-.601562-4.554688 1.347657-5.804688l21.632812-13.710938-17.1875 9.898438c-2.003906 1.140625-4.550781.480469-5.75-1.484375-1.203125-1.96875-.625-4.535156 1.304688-5.796875l31.265624-20.238281-26.820312 15.496093c-2 1.097657-4.511719.429688-5.699219-1.519531s-.632812-4.488281 1.261719-5.761719l7.816406-5.050781-3.414062 1.953125c-1.988282 1.152344-4.53125.523438-5.75-1.421875-1.222656-1.949219-.679688-4.519531 1.230468-5.804687l33.082032-22.425782-28.527344 16.496094c-1.957031 1.109375-4.4375.511719-5.675781-1.367187-1.234375-1.878907-.796875-4.398438 1-5.75l42.09375-31.179688-36.335938 20.949219c-1.957031 1.105469-4.441406.5-5.667969-1.386719-1.230468-1.886719-.785156-4.402343 1.019532-5.75l16.214844-11.851562-7.808594 4.496093c-1.882813 1.078126-4.273438.574219-5.558594-1.171874-1.285156-1.746094-1.054688-4.175782.53125-5.652344l19.8125-18.269532c-1.761719-.316406-3.136719-1.703124-3.449219-3.464843-.308593-1.765625.519531-3.535157 2.070313-4.429688l27.03125-15.609375c1.882812-1.074218 4.273437-.570312 5.558594 1.175782 1.285156 1.746093 1.054687 4.175781-.53125 5.652343l-16.460938 15.1875 42.71875-24.632812c1.957031-1.105469 4.441406-.5 5.671875 1.382812 1.226563 1.886719.78125 4.402344-1.023437 5.75l-16.210938 11.878907 32.9375-19.011719c1.957031-1.113281 4.4375-.515625 5.675781 1.363281 1.234375 1.882812.796875 4.398438-1 5.753906l-42.0625 31.152344 66.289063-38.269531c1.980468-1.085938 4.464844-.441407 5.667968 1.476562 1.199219 1.914063.695313 4.433594-1.144531 5.742188l-33.058593 22.363281 51.300781-29.609375c1.996093-1.082031 4.492187-.414063 5.675781 1.523437s.644531 4.464844-1.230469 5.746094l-7.773437 5.019532 21.011718-12.125c2.003907-1.140626 4.550782-.484376 5.75 1.484374 1.203126 1.964844.625 4.53125-1.304687 5.792969l-31.351563 20.300781 43.742188-25.25c2.003906-1.121093 4.535156-.453124 5.726562 1.507813 1.191407 1.964844.617188 4.515625-1.300781 5.78125l-21.542969 13.71875 28.269532-16.324219c2-1.097656 4.511718-.429687 5.699218 1.519532 1.1875 1.949218.632813 4.488281-1.261718 5.761718l-44.425782 28.464844 50.773438-29.3125c1.996094-1.113281 4.511719-.460938 5.714844 1.484375 1.199218 1.941406.65625 4.488281-1.234375 5.769531l-91.707031 60.589844 98.933593-57.105469c2.011719-1.179687 4.59375-.527343 5.804688 1.460938 1.210937 1.988281.601562 4.582031-1.367188 5.824219l-73.648437 47.402343 76.753906-44.304687c2-1.15625 4.554688-.515625 5.769531 1.445312 1.214844 1.964844.648438 4.539063-1.277343 5.808594l-114.058594 75.539062 116.054687-67.003906c2.007813-1.109375 4.535157-.425781 5.714844 1.542969 1.183594 1.964844.59375 4.515625-1.328125 5.769531l-4.105469 2.558594 1.023438-.589844c2.011719-1.105468 4.535156-.425781 5.71875 1.542969 1.179687 1.96875.589843 4.519531-1.332031 5.773437l-19.328126 12.03125 16.160157-9.335937c2.015625-1.136719 4.570312-.457031 5.757812 1.527344s.574219 4.554687-1.378906 5.792969l-2.730469 1.707031c2.046875-.710938 4.300782.226562 5.242188 2.179687.9375 1.953125.265625 4.300782-1.566406 5.457032l-13.207032 8.210937 9.828125-5.667969c2.011719-1.175781 4.59375-.527344 5.804688 1.464844 1.210937 1.988281.601562 4.578125-1.367188 5.824219l-187.953125 120.703125c.023438 1.140625-.410156 2.246094-1.203125 3.0625l-6.375 6.582031c1.59375.527344 2.726563 1.941406 2.898438 3.613281.171875 1.667969-.652344 3.28125-2.105469 4.125l-19.34375 11.167969c-.644531.378906-1.375.574219-2.117188.574219zm0 0" fill="#eb86be"/><path d="m60.699219 477.105469c-1.707031.003906-3.25-1.007813-3.925781-2.570313-.679688-1.566406-.359376-3.382812.808593-4.625l15.121094-15.988281c-.5-.246094-.949219-.585937-1.320313-1-1.34375-1.488281-1.46875-3.710937-.300781-5.34375l5.367188-7.457031c-1.78125.699218-3.8125.125-4.964844-1.40625s-1.140625-3.644532.027344-5.164063l3.957031-5.121093c-1.675781.230468-3.332031-.554688-4.214844-2-.882812-1.441407-.832031-3.273438.136719-4.664063l5.5625-7.953125c-1.78125.988281-4.011719.574219-5.324219-.980469-1.3125-1.582031-1.3125-3.871093 0-5.453125l3.023438-3.738281c-1.03125-.070313-1.996094-.507813-2.734375-1.226563-1.359375-1.363281-1.636719-3.46875-.679688-5.136718l8.789063-15.582032-2.996094 1.707032c-1.671875.957031-3.777344.679687-5.140625-.683594-1.363281-1.359375-1.644531-3.464844-.6875-5.136719l8.667969-15.121093-2.839844 1.636718c-1.699219.992188-3.859375.691406-5.222656-.726562-1.367188-1.417969-1.585938-3.585938-.527344-5.246094l7.472656-11.945312-1.707031.988281c-1.785156 1.023437-4.050781.621093-5.378906-.953125-1.324219-1.574219-1.339844-3.875-.03125-5.464844l2.859375-3.453125c-.921875-.097656-1.789063-.488281-2.472656-1.109375-1.375-1.265625-1.765626-3.28125-.964844-4.96875l4.375-9.230469c-1.886719-.097656-3.484375-1.425781-3.925782-3.261719-.445312-1.835937.371094-3.746093 2.007813-4.691406l8.96875-5.171875c1.613281-.917969 3.636719-.683593 5 .574219s1.757813 3.253906.972656 4.9375l-3.847656 8.132812 4.71875-2.722656c1.789063-1.023437 4.050781-.621094 5.378906.953125s1.339844 3.875.03125 5.464844l-2.867187 3.464844c1.007812.101562 1.945312.554687 2.652344 1.277343 1.367187 1.410157 1.59375 3.566407.554687 5.230469l-7.464844 11.949219 1.707031-.992188c1.660157-.953124 3.753907-.679687 5.117188.667969 1.355469 1.355469 1.640625 3.449219.691406 5.117188l-8.675781 15.132812 2.859375-1.640625c1.65625-.972656 3.765625-.699218 5.117188.667969 1.359374 1.355469 1.644531 3.449219.699218 5.117187l-8.777344 15.695313 2.984376-1.707031c1.78125-1.015625 4.035156-.617188 5.363281.945312s1.355469 3.851563.0625 5.445313l-3.042969 3.644531c1.535156.097656 2.898438 1.019531 3.570312 2.40625.667969 1.386719.535157 3.027344-.347656 4.292969l-5.5625 7.960937c1.769532-.972656 3.976563-.574218 5.292969.957032 1.3125 1.527343 1.378906 3.773437.152344 5.375l-3.96875 5.117187c1.402343-.183594 2.804687.332031 3.753906 1.375 1.347656 1.492187 1.472656 3.71875.300781 5.351563l-5.316406 7.378906c1.851562-.886719 4.078125-.328125 5.292969 1.332031 1.210937 1.660156 1.066406 3.949219-.34375 5.445313l-10.667969 11.273437 3.847656-2.21875c1.324219-.839844 3-.890625 4.367188-.125 1.371094.761719 2.210937 2.214844 2.1875 3.78125-.019532 1.570313-.898438 2.996094-2.289063 3.722656l-29.183593 16.855469c-.632813.386719-1.363282.59375-2.105469.605469zm0 0" fill="#d56fac"/><path d="m271.285156 274.882812c-1.730468 0-3.289062-1.042968-3.945312-2.644531-.660156-1.597656-.285156-3.433593.941406-4.652343l16.441406-16.210938-19.710937 11.371094c-1.867188 1.128906-4.285157.660156-5.601563-1.078125-1.316406-1.742188-1.109375-4.195313.480469-5.6875l11.683594-11.238281-15.957031 9.175781c-1.769532 1.019531-4.019532.640625-5.355469-.902344-1.339844-1.546875-1.394531-3.824219-.132813-5.429687l14.183594-17.980469-25.25 14.574219c-1.8125 1.035156-4.105469.613281-5.425781-1.003907-1.320313-1.617187-1.277344-3.949219.101562-5.515625l15.101563-16.980468-31.835938 18.371093c-1.882812 1.109375-4.300781.617188-5.597656-1.140625-1.300781-1.757812-1.058594-4.210937.554688-5.6875l18.976562-17.558594-41.515625 23.890626c-1.910156 1.089843-4.332031.546874-5.597656-1.25-1.269531-1.796876-.960938-4.261719.710937-5.695313l32.03125-27.117187-59.023437 34.0625c-1.949219 1.125-4.433594.546874-5.683594-1.324219-1.246094-1.871094-.828125-4.390625.957031-5.757813l45.992188-35.199218-73.25 42.28125c-1.96875 1.109374-4.464844.484374-5.683594-1.417969-1.21875-1.90625-.738281-4.429688 1.09375-5.757813l52.753906-37.160156-81.476562 47.066406c-2.039063 1.160156-4.632813.457032-5.804688-1.574218s-.484375-4.628907 1.539063-5.8125l163.480469-94.378907c1.976562-1.15625 4.515624-.542969 5.746093 1.386719 1.234375 1.929688.722657 4.488281-1.15625 5.796875l-52.734375 37.136719 48.152344-27.800782c1.953125-1.136718 4.449219-.554687 5.699219 1.324219 1.25 1.878907.820312 4.40625-.980469 5.765625l-46.011719 35.21875 43.28125-24.984375c1.910157-1.089843 4.335938-.550781 5.601563 1.25 1.265625 1.796875.957031 4.261719-.710938 5.695313l-32.035156 27.125 32.964844-19.027344c1.882812-1.109375 4.300781-.617188 5.597656 1.140625 1.300781 1.757813 1.058594 4.210937-.554688 5.683594l-19.003906 17.648437 22.136719-12.722656c1.808594-1.035156 4.105469-.613281 5.425781 1.003906 1.316406 1.617188 1.277344 3.949219-.101562 5.515625l-15.113282 16.980469 21.617188-12.476562c1.773438-1.027344 4.027344-.652344 5.367188.898437 1.34375 1.550781 1.394531 3.835937.117187 5.441406l-14.171875 17.972657 27.058594-15.617188c1.867187-1.125 4.285156-.65625 5.601562 1.082031 1.316406 1.742188 1.109375 4.195313-.480468 5.6875l-11.71875 11.203125 18.195312-10.496094c1.855469-1.042968 4.195312-.558593 5.484375 1.132813 1.289063 1.695313 1.132813 4.082031-.367187 5.589844l-20.144532 19.882812c1.058594.300781 1.953125 1.003907 2.492188 1.964844 1.171875 2.035156.476562 4.636719-1.554688 5.820313l-21.761718 12.570312c-.640626.375-1.371094.570312-2.113282.570312zm0 0" fill="#fab153"/><path d="m45.441406 276.519531c-1.882812-.003906-3.539062-1.238281-4.078125-3.039062-.542969-1.804688.160157-3.746094 1.730469-4.785157l89.78125-59.316406-98.484375 56.867188c-2.003906 1.164062-4.570313.519531-5.78125-1.457032-1.210937-1.972656-.628906-4.554687 1.316406-5.8125l88.9375-57.96875-94.996093 54.855469c-1.996094 1.132813-4.535157.484375-5.742188-1.472656-1.203125-1.957031-.640625-4.519531 1.273438-5.789063l103.0625-67.414062-107.542969 62.078125c-1.277344.738281-2.84375.765625-4.144531.070313-1.300782-.695313-2.152344-2.011719-2.246094-3.484376l-.4375-7.34375c-2.046875.402344-4.085938-.730468-4.820313-2.683593-.738281-1.949219.046875-4.148438 1.851563-5.195313l4.71875-2.730468c1.285156-.738282 2.859375-.761719 4.164062-.054688 1.304688.707031 2.148438 2.039062 2.226563 3.519531l.402343 7.058594 234.035157-135.125c1.988281-1.058594 4.457031-.386719 5.636719 1.53125 1.179687 1.917969.664062 4.421875-1.175782 5.71875l-103.0625 67.449219 99.394532-57.386719c2.003906-1.164063 4.570312-.519531 5.78125 1.457031 1.210937 1.972656.625 4.554688-1.316407 5.8125l-88.925781 57.949219 84.476562-48.757813c1.988282-1.070312 4.464844-.40625 5.652344 1.511719 1.1875 1.921875.675782 4.433594-1.171875 5.734375l-202.484375 133.742188c-.363281.535156-.84375.980468-1.402344 1.304687l-4.496093 2.558594c-.644531.386719-1.382813.589844-2.132813.597656zm0 0" fill="#fab153"/><path d="m56.679688 199.054688c-1.878907.007812-3.539063-1.214844-4.089844-3.007813-.554688-1.792969.128906-3.738281 1.683594-4.792969l92.21875-62.617187-79.144532 45.6875c-2 1.117187-4.523437.457031-5.722656-1.496094-1.195312-1.949219-.636719-4.5 1.265625-5.773437l33.886719-21.921876-28.269532 16.316407c-1.976562 1.105469-4.472656.472656-5.683593-1.4375-1.214844-1.914063-.722657-4.4375 1.117187-5.757813l82.109375-57.0625-77.542969 44.757813c-1.984374 1.117187-4.496093.476562-5.707031-1.449219-1.210937-1.929688-.691406-4.46875 1.175781-5.769531l61.300782-41.71875-56.769532 32.777343c-1.980468 1.132813-4.5.511719-5.726562-1.414062-1.222656-1.921875-.714844-4.46875 1.152344-5.78125l63.742187-44.585938-58.65625 33.859376c-1.992187 1.15625-4.542969.519531-5.761719-1.433594s-.667968-4.519532 1.246094-5.800782l29.320313-19.714843-23.441407 13.550781c-1.972656 1.121094-4.480468.5-5.703124-1.414062-1.21875-1.914063-.726563-4.449219 1.121093-5.769532l37.546875-26.375-28.886718 16.671875c-1.941407 1.117188-4.421876.539063-5.667969-1.324219-1.246094-1.863281-.839844-4.375.933593-5.75l38.085938-29.257812-23.09375 13.328125c-1.921875 1.128906-4.386719.589844-5.660156-1.238281-1.273438-1.832032-.925782-4.332032.796875-5.742188l18.6875-15.488281c-1.421875-.6875-2.34375-2.105469-2.402344-3.6875-.058594-1.578125.761719-3.058594 2.128906-3.847656l31.140625-17.980469c1.914063-1.082031 4.339844-.53125 5.601563 1.277344 1.257812 1.804687.933593 4.273437-.746094 5.695312l-10.121094 8.421875 35.515625-20.480469c1.945313-1.117187 4.421875-.535156 5.667969 1.328126 1.25 1.863281.839844 4.375-.933594 5.746093l-38.101562 29.226563 56.363281-32.535156c1.96875-1.082032 4.441406-.453126 5.652344 1.441406 1.207031 1.894531.742187 4.402344-1.070313 5.734375l-37.546875 26.359375 47.839844-27.640625c1.996094-1.25 4.628906-.640625 5.878906 1.355469 1.25 2 .640625 4.632812-1.355468 5.882812l-29.375 19.761719 35.839843-20.660157c1.980469-1.132812 4.503907-.511718 5.726563 1.410157 1.222656 1.925781.714844 4.472656-1.152344 5.785156l-63.757812 44.570313 71.558593-41.3125c1.980469-1.074219 4.453125-.425782 5.648438 1.480468 1.199219 1.90625.710937 4.414063-1.117188 5.730469l-61.320312 41.738281 65.851562-37.992187c1.976563-1.105469 4.472657-.472657 5.683594 1.4375 1.214844 1.914062.722656 4.4375-1.117187 5.757812l-82.101563 57.0625 86.257813-49.792969c2-1.140624 4.546874-.484374 5.75 1.484376 1.203124 1.96875.625 4.53125-1.304688 5.792968l-33.886719 21.914063 34.132813-19.703125c1.988281-1.152344 4.53125-.523438 5.753906 1.417968 1.222656 1.945313.6875 4.511719-1.214844 5.800782l-92.191406 62.601562 92.542969-53.4375c2.039062-1.15625 4.628906-.453125 5.804687 1.578125 1.171875 2.03125.484375 4.628907-1.539062 5.8125l-193.714844 111.804688c-.644531.386719-1.382812.59375-2.132812.605469zm0 0" fill="#fab153"/><path d="m288.300781 307.632812c-1.886719 0-3.546875-1.238281-4.085937-3.046874-.539063-1.804688.171875-3.75 1.746094-4.785157l87.039062-57.054687-92.542969 53.410156c-1.976562.957031-4.359375.257812-5.503906-1.621094-1.144531-1.875-.675781-4.3125 1.082031-5.632812l87.894532-57.171875-87.464844 50.492187c-1.996094 1.113282-4.511719.460938-5.714844-1.484375-1.199219-1.941406-.65625-4.488281 1.234375-5.769531l106.894531-70.546875-69.878906 40.363281c-2 1.199219-4.597656.566406-5.820312-1.421875-1.226563-1.984375-.628907-4.589843 1.339843-5.839843l70.828125-46.566407-65.433594 37.777344c-1.996093 1.15625-4.554687.515625-5.769531-1.445313-1.214843-1.964843-.644531-4.539062 1.28125-5.808593l76.433594-50.558594-89.710937 51.804687c-2.003907 1.140626-4.550782.484376-5.753907-1.484374-1.199219-1.96875-.621093-4.53125 1.308594-5.792969l71.210937-46.125-78.765624 45.464843c-2.007813 1.109376-4.535157.425782-5.714844-1.542968-1.179688-1.964844-.59375-4.515625 1.332031-5.769532l1.03125-.640624-3.335937 1.921874c-2 1.101563-4.511719.429688-5.699219-1.519531-1.1875-1.945312-.632813-4.484375 1.261719-5.757812l70.679687-45.1875-73.503906 42.429687c-1.996094 1.082032-4.492188.414063-5.675781-1.523437-1.183594-1.9375-.644532-4.464844 1.230468-5.746094l93.257813-60.296875-94.839844 54.75c-1.996094 1.082031-4.488281.414062-5.671875-1.523438-1.1875-1.9375-.644531-4.464843 1.226562-5.746093l91.675782-59.367188-90.367188 52.164063c-1.996094 1.082031-4.492187.414062-5.675781-1.523438-1.1875-1.9375-.644531-4.464844 1.226563-5.746094l69.316406-44.800781-65.664063 37.902344c-1.988281 1.136719-4.515625.496094-5.726562-1.441406-1.214844-1.941407-.683594-4.492188 1.207031-5.785157l81.585938-55.082031-77.066407 44.484375c-1.988281 1.113282-4.5.46875-5.707031-1.464844-1.203125-1.9375-.675781-4.480468 1.203125-5.769531l49.867187-33.367187-45.363281 26.222656c-1.972656 1.15625-4.507812.554688-5.746093-1.371094-1.238282-1.921875-.738282-4.480468 1.132812-5.796875l55.328125-39.535156-51.199219 29.558594c-1.96875 1.113281-4.460937.5-5.6875-1.402344-1.222656-1.898437-.753906-4.421875 1.070313-5.757813l32.367187-23.21875-29.011718 16.769532c-1.96875 1.128906-4.472657.523437-5.707032-1.378906-1.230468-1.902344-.761718-4.4375 1.070313-5.773438l15.148437-10.988281-12.851562 7.414062c-1.933594 1.125-4.410156.5625-5.667969-1.285156-1.261719-1.847656-.878906-4.355469.871094-5.746094l17.066406-13.601562-15.691406 9.085937c-1.8125 1.050782-4.117188.628906-5.441407-.996094-1.324218-1.621093-1.273437-3.964843.117188-5.53125l16.023438-18.03125-17.527344 10.171876c-1.800782 1.027343-4.082032.609374-5.402344-.992188-1.320312-1.597656-1.296875-3.917969.054688-5.492188l3.546874-4.097656-3.128906 1.8125c-1.003906.578125-2.203125.722656-3.316406.402344-1.113281-.324219-2.050781-1.085938-2.589844-2.109375l-5.707031-10.761719c-2.078125.578125-4.257813-.480468-5.085937-2.46875-.832032-1.988281-.046876-4.28125 1.824218-5.347656l2.894532-1.664062c.988281-.5625 2.15625-.714844 3.257812-.425782 1.101562.324219 2.023438 1.082032 2.558594 2.097656l5.640625 10.632813 21.410156-12.304687c1.804687-1.027344 4.085937-.609376 5.40625.992187s1.296875 3.917969-.054687 5.492187l-3.53125 4.070313 18.304687-10.554687c1.808594-1.035157 4.101563-.613282 5.421875 1.003906 1.320312 1.613281 1.277344 3.949218-.097656 5.515625l-16.027344 18.011719 42.546875-24.53125c1.933594-1.101563 4.390625-.535157 5.640625 1.304687 1.253906 1.839844.882812 4.332031-.851562 5.726563l-17.109376 13.652343 35.769532-20.683593c1.96875-1.128907 4.472656-.523438 5.707031 1.378906 1.230469 1.902344.761719 4.4375-1.070313 5.773437l-15.183593 10.929688 31.371093-18.082031c1.964844-1.113282 4.457032-.496094 5.683594 1.402343 1.222656 1.898438.757813 4.421875-1.070312 5.757813l-32.332032 23.167968 52.574219-30.328124c1.972657-1.15625 4.507813-.554688 5.746094 1.371093 1.238281 1.921875.742187 4.480469-1.128906 5.796875l-55.355469 39.515625 80.9375-46.683593c1.992188-1.15625 4.542969-.519532 5.761719 1.433593s.667969 4.519531-1.246094 5.800781l-49.902344 33.351563 70.347657-40.585937c1.980468-1.085938 4.46875-.4375 5.667968 1.476562 1.199219 1.914062.695313 4.433594-1.144531 5.742188l-81.535156 55.074218 107.886719-62.292968c1.996093-1.117188 4.523437-.457032 5.71875 1.496093 1.195312 1.953125.636718 4.5-1.265626 5.773438l-69.359374 44.785156 87.628906-50.578125c2.011718-1.230469 4.636718-.597656 5.867187 1.410156 1.230469 2.011719.597657 4.636719-1.414062 5.867188l-91.664063 59.367187 97.136719-56.082031c1.996094-1.117188 4.523437-.457031 5.71875 1.496094s.636719 4.5-1.265625 5.777344l-93.160156 60.226562 89.996094-51.960938c2.003906-1.117187 4.535156-.453124 5.726562 1.507813 1.191406 1.964844.617188 4.519531-1.300781 5.78125l-70.679688 45.226563 66.253907-38.28125c2.003906-1.070313 4.5-.378907 5.667968 1.574218 1.167969 1.949219.601563 4.476563-1.292968 5.738282l-3.558594 2.21875c2.070312-.738282 4.359375.210937 5.296875 2.195312.941406 1.984375.214843 4.359375-1.667969 5.484375l-71.296875 46.191406 66.859375-38.65625c1.996094-1.15625 4.550781-.515625 5.765625 1.445313 1.214844 1.964844.648437 4.539062-1.277344 5.808594l-76.425781 50.558593 71.9375-41.519531c1.988281-1.085938 4.480469-.421875 5.671875 1.507812 1.1875 1.929688.660156 4.453126-1.203125 5.742188l-70.78125 46.523438 66.3125-38.277344c1.992188-1.117188 4.511719-.464844 5.710938 1.480468 1.203124 1.945313.65625 4.488282-1.230469 5.773438l-107.019531 70.578125 102.539062-59.1875c1.992188-1.070313 4.472656-.398437 5.652344 1.527344 1.183594 1.929687.65625 4.441406-1.199219 5.734375l-87.84375 57.171875 83.390625-48.136719c1.988281-1.082031 4.480469-.417969 5.671875 1.511719 1.1875 1.929687.660156 4.449219-1.203125 5.742187l-87.039062 57.054688 82.542968-47.648438c2.003906-1.070312 4.492188-.386718 5.664063 1.554688 1.171875 1.945312.621093 4.46875-1.261719 5.738281l-13.046875 8.246094 8.644531-4.984375c1.980469-1.117188 4.488282-.488282 5.703125 1.433594 1.214844 1.921874.710938 4.457031-1.144531 5.769531l-76.367188 52.84375 71.808594-41.453125c1.96875-1.140625 4.488282-.535156 5.722656 1.375 1.238282 1.914062.753907 4.457031-1.097656 5.785156l-61.019531 43.902344 56.394531-32.546875c1.960938-1.132813 4.46875-.535157 5.707032 1.363281 1.238281 1.894531.777343 4.429688-1.046876 5.773438l-39.382812 28.875 34.722656-20.042969c1.941406-1.089844 4.390625-.503907 5.628906 1.34375 1.238282 1.847656.851563 4.339843-.890624 5.71875l-26.226563 20.269531 21.53125-12.425781c1.898437-1.097657 4.316406-.578125 5.597656 1.199219 1.28125 1.773437 1.007813 4.234374-.632812 5.6875l-18.234375 16.214843 13.269531-7.683593c1.847656-1.050782 4.1875-.582032 5.488281 1.097656 1.300782 1.679687 1.164063 4.0625-.316406 5.585937l-6.128906 6.21875.769531-.433593c1.324219-.839844 3-.886719 4.367187-.125 1.371094.765624 2.210938 2.214843 2.1875 3.785156-.019531 1.566406-.898437 2.996094-2.289062 3.722656l-28.023438 16.210938c-1.84375 1.054687-4.183593.585937-5.484374-1.09375-1.300782-1.679688-1.167969-4.0625.3125-5.585938l6.128906-6.230469-22.433594 12.894531c-1.894531 1.078126-4.292969.554688-5.570312-1.210937-1.273438-1.765625-1.015626-4.210937.601562-5.667969l18.230469-16.210937-39.980469 23.039062c-1.941406 1.109375-4.410156.527344-5.65625-1.328125-1.246094-1.855468-.847656-4.359375.910156-5.738281l26.265625-20.308594-47.46875 27.410157c-1.960937 1.132812-4.46875.535156-5.707031-1.363282-1.238281-1.898437-.777344-4.429687 1.046875-5.773437l39.40625-28.800781-62.429687 36.039062c-1.96875 1.140625-4.488282.535156-5.722657-1.375-1.234375-1.914062-.753906-4.460938 1.097657-5.785156l61.046874-43.929688-88.582031 51.121094c-1.980469 1.121094-4.488281.488281-5.703125-1.433594-1.21875-1.917968-.710937-4.457031 1.144532-5.765625l76.347656-52.832031-104.054688 60.074219c-2.015625 1.21875-4.640625.574219-5.859375-1.445313-1.21875-2.015625-.570312-4.640625 1.449219-5.859375l13.054688-8.242187-26.964844 15.566406c-.648438.375-1.386719.574219-2.132813.570312zm0 0" fill="#457393"/><path d="m169.191406 195.292969c-1.765625 0-3.351562-1.089844-3.984375-2.742188-.632812-1.648437-.179687-3.519531 1.132813-4.699219l12.578125-11.308593-29.582031 17.066406c-1.960938 1.195313-4.511719.628906-5.78125-1.285156-1.265626-1.910157-.792969-4.484375 1.070312-5.820313l11.09375-8.304687-17.066406 9.863281c-1.925782 1.085938-4.363282.523438-5.613282-1.300781-1.25-1.820313-.90625-4.296875.796876-5.703125l40.414062-32.777344-47.546875 27.445312c-1.984375 1.175782-4.546875.558594-5.78125-1.394531-1.234375-1.949219-.691406-4.527343 1.226563-5.816406l4.898437-3.355469-4.53125 2.5625c-1.957031 1.074219-4.410156.457032-5.628906-1.410156s-.792969-4.359375.976562-5.71875l33.167969-24.25-33.277344 19.21875c-1.96875 1.125-4.472656.519531-5.707031-1.382812-1.230469-1.902344-.761719-4.4375 1.070313-5.769532l28.886718-20.789062-27.304687 15.78125c-1.976563 1.136718-4.496094.523437-5.726563-1.394532-1.226562-1.917968-.734375-4.464843 1.125-5.785156l17.542969-12.429687-14.554687 8.402343c-1.964844 1.148438-4.484376.550782-5.726563-1.355468s-.769531-4.453125 1.074219-5.785156l17.980468-13.117188-14.625 8.441406c-1.484374.859375-3.339843.75-4.710937-.28125-1.367187-1.03125-1.988281-2.785156-1.570313-4.445312l2.421876-9.710938c-1.691407-.417968-2.957032-1.816406-3.207032-3.539062-.246094-1.722656.578125-3.421875 2.082032-4.296875l5.171874-2.996094c1.480469-.855469 3.332032-.742187 4.699219.289063 1.367188 1.03125 1.984375 2.777343 1.570313 4.441406l-2.019532 8.121094 74.996094-43.296876c1.960938-1.105468 4.445313-.5 5.671875 1.386719 1.230469 1.882813.785157 4.398438-1.019531 5.746094l-17.972656 13.109375 24.75-14.304688c1.972656-1.136718 4.492187-.523437 5.722656 1.394532 1.226562 1.917968.734375 4.464844-1.125 5.785156l-17.554688 12.441406 20.480469-11.835937c1.96875-1.128907 4.472657-.523438 5.707031 1.378906 1.230469 1.902344.761719 4.4375-1.074218 5.769531l-28.917969 20.882813 29.457031-17c1.960938-1.105469 4.441406-.5 5.671875 1.386719 1.230469 1.886718.78125 4.402343-1.019531 5.75l-33.109375 24.242187 30.335937-17.511719c1.980469-1.132812 4.507813-.503906 5.726563 1.429688 1.21875 1.929687.699219 4.480468-1.179687 5.78125l-4.949219 3.414062c1.9375-1.050781 4.355469-.449218 5.578125 1.382813s.851562 4.292969-.859375 5.683593l-40.40625 32.765626 32.835937-18.960938c1.953125-1.101562 4.429688-.503906 5.660156 1.367188 1.234376 1.875.808594 4.382812-.972656 5.742187l-11.09375 8.320313 2.355469-1.355469c1.875-1.007813 4.207031-.476563 5.460937 1.242187 1.257813 1.71875 1.050782 4.101563-.476562 5.582032l-13.773438 12.382812c1.699219-.238281 3.375.59375 4.207032 2.097656 1.171875 2.039063.476562 4.640625-1.554688 5.820313l-32.425781 18.773437c-.660156.375-1.410156.558594-2.167969.539063zm0 0" fill="#f4d0b5"/><path d="m159.726562 72.710938c-1.929687 0-3.621093-1.296876-4.121093-3.164063-.5-1.863281.316406-3.832031 1.988281-4.796875l6.078125-3.507812c2.023437-1.058594 4.527344-.335938 5.671875 1.644531 1.140625 1.980469.523438 4.511719-1.40625 5.738281l-6.078125 3.53125c-.648437.367188-1.382813.558594-2.132813.554688zm0 0" fill="#f4d0b5"/><path d="m241.050781 432.03125c-1.273437 0-2.476562-.566406-3.289062-1.546875-.808594-.980469-1.140625-2.273437-.902344-3.519531l2.132813-10.984375-6.046876 3.492187c-1.628906.945313-3.679687.714844-5.058593-.570312-1.375-1.28125-1.746094-3.316406-.917969-5.003906l5.027344-10.238282-3.480469 2.011719c-1.644531.949219-3.71875.699219-5.089844-.613281-1.371093-1.316406-1.707031-3.378906-.824219-5.058594l6.894532-13.230469-2.902344 1.707031c-1.675781.976563-3.800781.695313-5.167969-.679687-1.367187-1.375-1.632812-3.5-.652343-5.171875l5.789062-9.867188-1.621094.941407c-1.683594.96875-3.804687.683593-5.167968-.695313-1.363282-1.382812-1.625-3.507812-.636719-5.175781l5.675781-9.574219-1.496094.851563c-1.65625.957031-3.75.691406-5.117187-.648438-1.367188-1.339843-1.675781-3.425781-.753907-5.101562l6.28125-11.382813-2.183593 1.253906c-1.667969.964844-3.773438.695313-5.144531-.65625-1.367188-1.355468-1.660157-3.460937-.710938-5.136718l2.289062-4.039063c-1.632812-.484375-2.824218-1.890625-3.027343-3.585937-.203125-1.691406.621093-3.339844 2.097656-4.195313l8.917969-5.121093c1.660156-.953126 3.753906-.6875 5.117187.65625 1.363281 1.351562 1.660157 3.449218.71875 5.121093l-1 1.765625 1.902344-1.097656c1.660156-.957031 3.753906-.695312 5.121094.644531 1.367187 1.339844 1.675781 3.425781.75 5.105469l-6.269531 11.375 2.320312-1.332031c1.671875-.992188 3.808594-.703125 5.164062.691406 1.363282 1.375 1.632813 3.5.648438 5.171875l-5.675781 9.582031 1.484375-.851562c1.675781-.96875 3.792968-.6875 5.160156.683593 1.363281 1.371094 1.636719 3.488282.660156 5.160157l-5.785156 9.863281 1.621094-.929688c1.640625-.945312 3.710937-.691406 5.078125.617188 1.371093 1.3125 1.707031 3.367188.835937 5.050781l-6.894531 13.234375 2.898437-1.707031c1.625-.941406 3.675782-.710937 5.046876.570313 1.375 1.277343 1.75 3.308593.929687 4.992187l-5.035156 10.242187 2.039062-1.179687c1.445313-.835937 3.25-.75 4.609375.222656 1.359375.96875 2.03125 2.644531 1.710938 4.285157l-2.558594 13.074218c.894531.351563 1.640625.996094 2.117188 1.832032 1.171874 2.039062.480468 4.640624-1.554688 5.820312l-3.992188 2.3125c-.632812.363281-1.351562.558594-2.082031.5625zm0 0" fill="#d56fac"/><g fill="#262626"><path d="m146.382812 193.789062c24.207032 4.511719 48.871094-5.175781 63.539063-24.957031 16.210937-23.042969 26.820313-73.386719 3.464844-94.722656-12.757813-11.679687-33.605469-13.585937-50.082031-11.160156-1.546876.222656-8.269532 1.167969-8.824219 3.414062-5.539063 18.308594-22.527344 30.738281-41.652344 30.480469-.144531 0-.417969.085938-.632813.128906-3.640624.152344-9.632812 1.621094-9.605468 3.855469.410156 32.605469 3.839844 84.746094 43.792968 92.960937zm19.378907-127c10.21875-.582031 20.394531 1.710938 29.378906 6.613282 23.671875 14.207031 20.386719 46.882812 14.59375 69.972656-8.535156 34.082031-48.359375 67.132812-76.902344 30.789062-15.675781-19.941406-17.425781-49.136718-17.820312-73.6875 21.257812-2.832031 43.820312-12.105468 50.75-33.6875zm0 0"/><path d="m250.042969 240.679688c.4375.25.855469.453124 1.289062.71875-.402343-.285157-.832031-.523438-1.289062-.71875zm0 0"/><path d="m507.496094 177.96875v-132.214844c-9.480469-35.039062-96.632813-18.558594-122.683594-18.558594h-158.113281c-17.605469-17.445312-41.414063-27.1874995-66.195313-27.085937-44.160156 1.285156-82.492187 30.800781-95.027344 73.164063-14.71875 46.71875 17.460938 141.578124-58.570312 148.214843-2.5625.222657-8.03125 2.644531-6.699219 6.289063 8.046875 20.3125 22.5 37.445312 41.164063 48.804687-16.214844 38.089844-7.03125 92.933594-7.03125 129.558594 0 20.796875-7.40625 57.59375 16.453125 68.53125 11.039062 5.332031 24.183593 3.660156 33.535156-4.265625-.914063 14.867188.085937 28.160156 16.152344 32.613281 31.265625 8.621094 76.671875 0 109.148437 0 16.15625 0 34.058594 4.082031 41.816406-12.6875 7.679688-16.460937 2.386719-49.613281.578126-72.710937 22.1875 12.347656 47.789062 21.382812 70.253906 31.621094 23.757812 10.804687 45.015625 17.289062 62.5-6.628907.050781-.050781.097656-.109375.136718-.171875.101563-.144531.214844-.253906.316407-.40625.101562-.15625 0-.191406.109375-.300781.113281-.109375.28125-.347656.332031-.554687 4.3125-14.003907-1.699219-29.125-14.453125-36.34375l49.730469-48.996094c5.214843-5.121094-6.824219-5.515625-10.015625-2.40625l-47.574219 46.878906c-25.601563-12.796875-64.050781-17.347656-71.9375-39.722656-5.972656-16.851563-4.574219-35.675782-5.496094-54.007813h126.996094c19.964844 0 78.0625 11.09375 91.988281-12.082031 5.402344-8.96875 2.558594-25.804688 2.558594-35.242188zm-480.632813 71.773438c-4.136719-4.085938-15.230469-20.1875-15.417969-19.625 14.964844-6.796876 29.414063-14.679688 43.230469-23.585938 22.183594-25.53125 17.269531-58.078125 17.6875-89.3125-.902343-21.886719 3.863281-43.640625 13.839844-63.144531 12.921875-23.597657 36.441406-39.507813 63.152344-42.726563 26.710937-3.214844 53.332031 6.65625 71.488281 26.511719 5.421875 6.628906 10.035156 13.882813 13.738281 21.609375 9.285157 23.183594 9.746094 53.390625 12.109375 82.019531.171875 6.828125.425782 13.824219.980469 21.019531.765625 15.15625 6.015625 29.746094 15.085937 41.914063 9.761719 14.675781 25.679688 24.101563 43.238282 25.601563-2.847656 7.582031-7.082032 14.570312-12.484375 20.605468-1.304688 2.160156-2.558594 4.03125-3.746094 5.769532-4.328125 3.960937-9.113281 7.398437-14.25 10.242187-1.457031-2.453125-3.070313-4.8125-4.828125-7.058594-.164062-.503906-.359375-.851562-.503906-1.417969 9.789062 3.78125-21.332032-17.695312-20.140625-17.40625-12.058594-6.535156-25.535157-10.027343-39.25-10.171874-13.578125-.851563-27.410157-1.058594-41.269531-1.007813-19.394532-1.363281-38.875-.96875-58.195313 1.1875-9.039063-.007813-18.027344 1.363281-26.652344 4.070313-5.121093 1.910156-9.828125 4.78125-13.875 8.457031-4.351562 2.382812-8.433593 5.226562-12.175781 8.480469-3.082031 2.800781-5.878906 5.90625-8.335938 9.269531-.894531.578125-1.820312 1.109375-2.773437 1.585937-1.359375.621094-1.296875 2.125-.90625 3.582032-.375.617187-.671875 1.273437-1.03125 1.894531-2.5625-2.414063-7.929687-7.753907-18.714844-18.363281zm330.359375 158.3125c.429688.691406 1.140625 1.15625 1.945313 1.269531 11.6875 6.480469 17.558593 20.011719 14.304687 32.972656-18.355468 24.023437-101.097656-22.679687-122.394531-36.972656-10.777344-11.480469-9.667969-31.027344-11.324219-45.859375l-4.558594-40.695313c-.417968-3.773437-12.851562-1.109375-12.355468 3.3125l4.914062 44.117188c1.707032 14.933593.855469 31.632812 11.386719 43.339843 0 23.652344 1.910156 48.09375 0 71.679688-.941406 11.453125 1.390625 10.710938-5.769531 15.214844-6.902344 4.351562-29.015625 0-37.335938 0-25.710937 0-58.023437 5.171875-83.214844 0-22.527343-4.617188-15.128906-27.664063-14.941406-48.707032 0-.273437 0-.546874 0-.855468v-128c0-1.535156-12.355468.070312-12.355468 3.3125v127.144531c-19.59375 22.070313-31.359376 24.128906-35.296876 6.1875-2.320312-2.546875-3.589843-5.878906-3.546874-9.328125-.402344-2.140625.246093-4.496094 0-6.664062-.585938-10.929688-.585938-21.886719 0-32.816407v-79.070312c0-35.679688 5.683593-64.5625 36.179687-80.214844 22.664063-10.113281 50.441406-7.679687 76.585937-7.679687 19.175782-1.046876 38.40625-.421876 57.472657 1.867187 30.132812 6.828125 51.773437 25.601563 56.320312 63.421875 2.109375 17.550781-1.425781 45.558594 6.066407 61.242188 10 20.917968 53.359374 26.164062 77.917968 41.78125zm120.636719-107.792969c-20.855469 5.621093-50.75 0-72.328125 0h-91.582031c-6.253907 0-20.792969 2.976562-26.453125 0-.851563-.445313-1.476563-.753907-1.96875-.992188.527344 0 .75-.367187-.265625-1.859375-.707031-7.945312-2.609375-15.738281-5.640625-23.117187-.152344-.367188-.375-.65625-.539063-1.015625 19.628907-7.074219 33.554688-27.535156 40.441407-46.421875.167968-.507813.234374-1.042969.203124-1.578125v-.066406c0-.050782 0-.09375 0-.144532 0-.179687 0-.378906 0-.539062-.027343-.167969-.082031-.332032-.167968-.476563-.1875-1.296875-1.238282-2.355469-3.839844-2.5625-9.675781-.550781-19.105469-3.242187-27.617188-7.875-.433593-.289062-.894531-.554687-1.3125-.855469-.582031-.363281-1.152343-.730468-1.707031-1.105468-17.007812-12.988282-22.449219-35.152344-24.199219-58.027344-1.289062-22.570312.570313-46.730469-2.621093-65.707031-3.375-20.160157-12.230469-39-25.597657-54.460938h206.574219c16.910157 0 49.671875-7.433593 55.902344 15.574219v136.515625c0 27.410156 14.496094 106.15625-17.28125 114.714844zm0 0"/><path d="m292.472656 83.914062h110.933594c2.464844 0 13.910156-4.742187 8.089844-4.742187h-110.933594c-2.464844 0-13.910156 4.742187-8.089844 4.742187zm0 0"/><path d="m452.523438 78.042969h-8.535157c-3.097656-.21875-6.117187 1.027343-8.15625 3.371093-1.425781 2.449219 1.203125 3.628907 3.34375 3.628907h8.535157c3.097656.21875 6.117187-1.027344 8.15625-3.371094 1.425781-2.449219-1.203126-3.628906-3.34375-3.628906zm0 0"/><path d="m341.742188 121.128906c-4.09375 0-13.300782 6.160156-5.03125 6.160156h110.929687c4.097656 0 13.304687-6.160156 5.035156-6.160156zm0 0"/><path d="m292.472656 126.617188h8.53125c3.078125.039062 6.105469-.773438 8.75-2.347657 1.800782-1.195312 1.867188-2.464843-.660156-2.464843h-8.53125c-3.078125-.042969-6.105469.769531-8.746094 2.34375-1.800781 1.195312-1.871094 2.46875.65625 2.46875zm0 0"/><path d="m390.914062 162.277344h-93.867187c-7.109375 0-9.445313 9.199218-1.058594 9.199218h93.867188c7.109375 0 9.445312-9.199218 1.058593-9.199218zm0 0"/><path d="m132.027344 378.554688v-8.535157c0-3.796875-12.355469-1.484375-12.355469 3.3125v8.53125c0 3.800781 12.355469 1.488281 12.355469-3.308593zm0 0"/><path d="m145.195312 461.558594c-5.648437 0-11.238281 1.132812-13.125-5.660156-.519531-4.324219-.519531-8.695313 0-13.019532v-29.167968c0-5.800782-12.441406-3.515626-12.441406 1.261718v36.695313c-.882812 4.851562.230469 9.855469 3.089844 13.875 4.691406 4.914062 11.734375 3.984375 17.921875 3.984375 5.273437 0 12.882813-7.96875 4.554687-7.96875zm0 0"/><path d="m187.964844 461.957031h-8.535156c-3.105469-.230469-6.132813 1.039063-8.148438 3.414063-1.390625 2.46875 1.1875 3.765625 3.414062 3.765625h8.535157c3.105469.234375 6.136719-1.035157 8.148437-3.414063 1.363282-2.46875-1.210937-3.765625-3.414062-3.765625zm0 0"/></g></svg>