<svg height="512" viewBox="0 0 60 60" width="512" xmlns="http://www.w3.org/2000/svg"><g id="030---Wolf" fill="none"><path id="Path" d="m57.725 46.275c-.2556737.0016081-.471369-.1899294-.5-.444l-.125-1.189-.85.49c-.1771784.1020207-.3986193.0858932-.5591461-.0407226s-.2277947-.3382078-.1698539-.5342774l.43-1.448-2.33 1.346c-.2374252.1242009-.5305531.0391619-.6646466-.1928199-.1340935-.2319817-.0614797-.5284321.1646466-.6721801l3.418-1.974c.177228-.1027079.399176-.0869287.5600909.0398194s.228245.3388248.1699091.5351806l-.431 1.447.424-.244c.1454339-.0858908.32476-.0911762.475-.014.1509085.0760022.2532234.22308.272.391l.162 1.453c.0798367.043785.1459567.1088664.191.188.0662182.1149607.0840333.2515253.049523.3796262-.0345104.1281009-.1185167.237235-.233523.3033738l-.2.114c-.0769864.0440513-.1643054.0668302-.253.066z" fill="#a2a4b0"/><path id="Path" d="m57.838 40.046c-.1658651.0001606-.321014-.0819425-.414172-.2191752-.093158-.1372328-.1121982-.3117308-.050828-.4658248l.476-1.194-2.248 1.3c-.1549945.0985297-.351531.1041539-.5119064.0146489-.1603754-.0895049-.2587712-.2597296-.2562855-.4433739s.1054527-.3511436.2681919-.436275l3.5-2.019c.1842471-.1064355.4156719-.0846041.5767647.0544088.1610928.139013.2165592.3647507.1382353.5625912l-.486 1.218c.2425593-.0669335.4970703.0568155.5942273.2889267.0971569.2321112.006687.5002622-.2112273.6260733l-1.121.648c-.0775381.0434749-.16511.065885-.254.065z" fill="#a2a4b0"/><path id="Path" d="m41.455 10.405c-.2152152 0-.4062846-.137715-.4743416-.3418861-.0680571-.20417109.0021694-.42898478.1743416-.5581139l3.724-2.746-.225.129c-.2241703.12809525-.5090066.06444562-.6573283-.14688679-.1483216-.21133241-.1113468-.50084215.0853283-.66811321l4.076-3.443c-.0077171-.01087444-.0147314-.02223092-.021-.034-.1382327-.23887839-.0567713-.54458242.182-.683l2.214-1.278c.2237606-.12553595.506225-.06133429.6537387.14858902.1475137.2099233.1121964.49743105-.0817387.66541098l-2.09 1.767 3.094-1.786c.2295527-.13149209.521805-.0614183.6667704.15987256.1449654.22129087.0924688.51720615-.1197704.67512744l-3.722 2.746 3.728-2.153c.23893-.13584515.5427102-.05337078.6801373.18465285.137427.23802363.0569695.54234426-.1801373.68134715l-11.457 6.614c-.0758413.0442906-.1621742.0674278-.25.067z" fill="#a2a4b0"/><path id="Path" d="m26.736 57.45c-.2230555.0000008-.4191337-.1477468-.4806262-.3621586-.0614926-.2144118.0264751-.4436228.2156262-.5618414l5.411-3.4-7.273 4.2c-.2347345.1238045-.5252986.0426548-.6619149-.1848618-.1366163-.2275167-.0716853-.5221296.1479149-.6711382l9.7-6.056-11.357 6.558c-.2361735.1361818-.537908.0580681-.6783318-.1756081-.1404239-.2336761-.0677709-.5367718.1633318-.6813919l13.219-8.3-14.816 8.555c-.2362075.133071-.5354329.0536509-.6745599-.1790411-.1391271-.2326919-.0674613-.5338687.1615599-.6789589l8.928-5.512-10.059 5.809c-.2363779.1427656-.5437344.0668778-.6865-.1695-.1427656-.2363779-.0668779-.5437344.1695-.6865l16.655-10.481-18.056 10.428c-.2355125.13196-.5332497.0531389-.6726204-.1780652-.1393708-.2312042-.0700423-.5312938.1566204-.6779348l16.123-10.088-17.371 10.026c-.2355125.13196-.5332497.0531389-.6726204-.1780652-.1393708-.2312042-.0700423-.5312938.1566204-.6779348l17.825-11.177-19.075 11.013c-.2361735.1361818-.537908.0580681-.6783318-.1756081-.1404239-.2336761-.0677709-.5367718.1633318-.6813919l18.948-11.905-20.183 11.656c-.2338514.1157814-.5174178.0322586-.6511717-.1917988s-.0727132-.5132978.1401717-.6642012l12.247-7.539-16.256 9.385c-.23698876.1350471-.53848394.055235-.67761558-.1793791-.13913163-.2346142-.06455352-.5374465.16761558-.6806209l8.96-5.451-9.03 5.213c-.23560872.1297647-.5316571.04988-.67000668-.1807924-.13834959-.2306723-.06941665-.5294607.15600668-.6762076l19.359-12.032-19.216 11.095c-.23701856.1320316-.53608427.0509486-.6739531-.1827228-.13786884-.2336714-.06422739-.5346559.1659531-.6782772l.425-.256c-.24615472.1066259-.53259064.0000018-.64910952-.2416272s-.02159639-.5321526.21510952-.6583728l8.037-4.879-7.3 4.214c-.23583577.1260453-.52910097.0442222-.66561588-.1857118-.13651492-.2299339-.06795177-.5265795.15561588-.6732882l11.988-7.313-10.845 6.259c-.23571786.1278172-.53029699.0469384-.66770199-.1833224-.13740501-.2302607-.06871185-.5279174.15570199-.6746776l18.426-11.385-22.42 12.944c-.23698876.1350471-.53848394.055235-.67761558-.1793791-.13913163-.2346142-.06455352-.5374465.16761558-.6806209l17.529-10.713-16.565 9.563c-.23701856.1320316-.53608427.0509486-.6739531-.1827228-.13786884-.2336714-.06422739-.5346559.1659531-.6782772l7.185-4.336-5.9 3.4c-.23693016.1419372-.54406281.0649301-.68599999-.172-.14193717-.2369302-.06493016-.5440628.17199999-.686l23.446-14.528-21.856 12.618c-.23638246.1285498-.53210687.0469768-.6691568-.184581-.13704993-.2315579-.06627089-.5300498.1601568-.675419l6.89-4.165-9.755 5.632c-.2372063.1413849-.54411508.0637063-.68549997-.1735s-.06370631-.5441151.17349997-.6855l22.483-13.841-21.915 12.652c-.23628449.1306359-.5336041.0500916-.67163931-.181948s-.06692381-.5317553.16063931-.677052l18.327-11.205-17.574 10.147c-.23638246.1285498-.53210687.0469768-.6691568-.184581-.13704993-.2315579-.06627089-.5300498.1601568-.675419l9.809-5.933-8.991 5.188c-.23415271.123715-.52415635.0433988-.66130449-.1831476-.13714814-.2265465-.07386591-.5207372.14430449-.6708524l16.908-10.714-15.588 9c-.23508655.127347-.52875831.0472199-.66659082-.1818764-.13783251-.2290964-.071048-.5260868.15159082-.6741236l10.155-6.348-8.67 5.005c-.2352733.1446986-.5433014.0712733-.688-.164s-.0712733-.5433014.164-.688l11.087-7.249-8.508 4.911c-.23252618.1307666-.52675914.0559509-.6685809-.1700024-.14182177-.2259533-.08127436-.5234503.1375809-.6759976l10.694-7.254-7.191 4.152c-.23436107.1288923-.5286543.0505227-.66787555-.1778537-.13922124-.2283764-.07406124-.5258734.14787555-.6751463l.228-.147-.054.031c-.23240668.1328499-.52821577.0590851-.67103328-.1673329s-.08196881-.5251514.13803328-.6776671l5.343-3.655-5.369 3.1c-.2296891.1296297-.52056951.0585592-.66460409-.1623819-.14403457-.2209411-.09168688-.5157667.11960409-.6736181l5-3.653-5 2.883c-.23186034.1330617-.52737097.0602043-.67080661-.1653857-.14343565-.22559-.08404925-.5240996.13480661-.6776143l2.186-1.531-1.941 1.123c-.2313261.1333882-.5266402.061466-.67072696-.1633522-.14408676-.2248181-.08608875-.5231794.13172696-.6776478l2.252-1.592-2.01 1.16c-.22838347.1299972-.51842376.0610156-.66382816-.1578813-.14540441-.2188968-.09654436-.5129964.11182816-.6731187l3.942-2.978-3.576 2.064c-.23055066.1302945-.52270695.0582293-.66621925-.1643342-.14351231-.2225634-.08860007-.5184238.12521925-.6746658l1.452-1.034-1.038.6c-.23004825.1308569-.52222067.059778-.6664488-.1621318-.14422813-.2219099-.09054634-.5177734.1224488-.6748682l1.416-1.03-.881.508c-.23163361.1380114-.53097857.0675015-.67666125-.1593858-.14568268-.2268872-.08522576-.5284233.13666125-.6816142l.721-.524-.164.094c-.22011911.1211079-.49592482.0600693-.64438682-.1426092s-.1234717-.48405005.05838682-.6573908l3.425-3.1-2.651 1.523c-.22292368.12779857-.50642231.06581962-.65567843-.14334552-.14925611-.20916514-.11566994-.49740953.07767843-.66665448l1.712-1.491-.879.508c-.21601049.1246636-.49085765.07107952-.64421986-.12559681-.15336221-.19667632-.13833616-.47629469.03521986-.65540319l1.554-1.6-.531.306c-.20836827.12068834-.47316221.0757154-.63-.107-.15678503-.18279703-.16098831-.45138649-.01-.639l.826-1.019c-.11097422-.03939426-.2040053-.11751196-.262-.22-.13755324-.23865551-.05617205-.54361136.182-.682l1.58-.918c.20836693-.12039438.47293815-.07527945.62963059.10736518.15669245.18264463.16104968.45099943.01036941.63863482l-.516.641 1.345-.776c.2159307-.12313412.4895276-.06894621.642223.12719707s.1381159.47467342-.034223.65380293l-1.553 1.6 2.229-1.287c.2225362-.12542207.5038286-.06293257.6523283.14491565s.1164484.49420996-.0743283.66408435l-1.709 1.489 2.242-1.294c.2201191-.12110787.4959248-.06006935.6443868.14260915s.1234717.4840501-.0583868.65739085l-3.426 3.1 4.264-2.459c.2300482-.13085689.5222207-.05977797.6664488.16213184.1442281.22190982.0905463.51777331-.1224488.67486816l-.715.521.944-.544c.2294759-.12683578.5179525-.05486515.6609568.16489889.1430044.21976405.0919582.51266818-.1169568.67110111l-1.423 1.036 1.68-.97c.2305507-.13029452.5227069-.05822926.6662193.16433419.1435123.22256344.0886.51842379-.1252193.67466581l-1.448 1.036 1.7-.982c.2281943-.12734837.5159664-.05749287.6603781.16030407s.0967481.51006523-.1093781.67069593l-3.939 2.977 4.439-2.562c.2306836-.12848205.5215078-.05544038.6641078.16679332.1426.22223371.0878131.51704248-.1251078.67320668l-2.252 1.592 2.523-1.456c.2318603-.13306172.527371-.0602043.6708066.16538571.1434357.22558999.0840493.52409959-.1348066.67761429l-2.192 1.536 3.026-1.747c.2296891-.1296297.5205695-.0585592.6646041.1623819s.0916869.5157667-.1196041.6736181l-5 3.653 8.669-5.008c.2328603-.1351428.5309189-.06163618.6742423.16628028.1433233.22791642.080443.52839642-.1422423.67971972l-5.343 3.654 6.961-4.018c.2347713-.1336383.5332399-.0566316.6740509.1739091.1408109.2305408.0730402.5312411-.1530509.6790909l-.235.151.887-.512c.2329673-.1327691.5291919-.0581284.6714287.1691822.1422368.2273105.0798406.5263539-.1414287.6778178l-10.684 7.251 12.17-7.027c.2347034-.1364868.5354374-.0607325.6774741.1706544.1420368.2313868.073465.5338394-.1544741.6813456l-11.083 7.246 17.749-10.247c.2350866-.12734701.5287583-.04721993.6665908.18187644.1378325.22909636.071048.52608676-.1515908.67412356l-10.172 6.36 11.9-6.872c.234481-.12707284.5274228-.04774006.6657366.1802909.1383139.2280309.0733058.5244809-.1477366.6737091l-16.9 10.713 30.533-17.628c.2363825-.12854979.5321069-.0469768.6691568.18458103.1370499.23155784.0662709.53004973-.1601568.67541897l-9.823 5.941 9.55-5.514c.2374824-.14110875.5443912-.06298244.6855.1745s.0629824.54439125-.1745.6855l-18.316 11.2 18.061-10.43c.2357179-.12781718.530297-.04693838.667702.18332235.137405.23026074.0687118.52791741-.155702.67467765l-22.489 13.846 22.172-12.8c.2377586-.14055647.5444435-.06175858.685.176s.0617586.54444353-.176.685l-6.911 4.177 6.445-3.72c.2356087-.12976469.5316571-.04988.6700067.1807924.1383496.2306723.0694166.5294607-.1560067.6762076l-23.431 14.524 22.919-13.233c.2377586-.1405565.5444435-.0617586.685.176s.0617586.5444435-.176.685l-7.172 4.329 6.522-3.765c.2358358-.1260453.529101-.0442222.6656159.1857118.1365149.2299339.0679517.5265795-.1556159.6732882l-17.546 10.724 16.8-9.7c.2362075-.133071.5354329-.0536509.6745599.1790411.1391271.2326919.0674613.5338687-.1615599.6789589l-18.42 11.382 17.397-10.048c.2358358-.1260453.529101-.0442222.6656159.1857118.1365149.2299339.0679517.5265795-.1556159.6732882l-11.984 7.319 10.816-6.244c.2369888-.1350471.5384839-.055235.6776156.1793791.1391316.2346142.0645535.5374465-.1676156.6806209l-8.04 4.883 6.808-3.931c.2380347-.1402803.5447197-.0610347.685.177s.0610347.5447197-.177.685l-.4.241c.2403781-.0883839.5086765.019159.6214589.2491013.1127825.2299423.033579.5079284-.1834589.6438987l-19.375 12.04 20.079-11.591c.2354667-.1225198.5256326-.0396943.6609447.1886614.135312.2283558.0686058.5226457-.1519447.6703386l-8.937 5.438 9.35-5.4c.2353357-.1240261.5265799-.04207.6626998.1864836.1361199.2285535.0694507.5236725-.1516998.6715164l-12.246 7.54 12.607-7.279c.2361735-.1361818.537908-.0580681.6783318.1756081.1404239.2336761.0677709.5367718-.1633318.6813919l-18.946 11.902 19.5-11.257c.236654-.1424894.5440105-.066154.6865.1705.1424894.236654.066154.5440105-.1705.6865l-17.83 11.178 18.192-10.5c.236654-.1424895.5440105-.066154.6865.1705s.066154.5440105-.1705.6865l-16.128 10.085 16.292-9.407c.2355125-.13196.5332497-.0531389.6726204.1780652.1393708.2312042.0700423.5312938-.1566204.6779348l-16.649 10.478 16.737-9.664c.1534456-.0916386.3441237-.094454.5002079-.0073855.1560842.0870684.2538614.2507929.2565.4295s-.0902623.3452469-.2437079.4368855l-8.935 5.514 8.8-5.081c.236654-.1424895.5440105-.066154.6865.1705s.066154.5440105-.1705.6865l-13.211 8.294 13.048-7.532c.2347345-.1238045.5252986-.0426548.6619149.1848618.1366163.2275167.0716853.5221296-.1479149.6711382l-9.693 6.052 5.586-3.226c.2361735-.1361818.537908-.0580681.6783318.1756081.1404239.2336761.0677709.5367718-.1633318.6813919l-5.415 3.401 5.59-3.228c.236654-.1424895.5440105-.066154.6865.1705s.066154.5440105-.1705.6865l-3.169 1.984 3.233-1.866c.2352733-.1446986.5433014-.0712733.688.164s.0712733.5433014-.164.688l-8.894 5.801 5.347-3.087c.2335451-.1328438.5303244-.0573638.6720248.1709163s.0776546.5277351-.1450248.6780837l-5.484 3.666 5.463-3.153c.2304184-.1322364.5240189-.0611893.6684864.1617642.1444674.2229535.0893536.5199576-.1254864.6762358l-5.535 4 5.377-3.105c.2206356-.1300292.503851-.072325.6560244.1336626s.1241014.4936554-.0650244.6663374l-.564.528.025-.014c.2032327-.116567.4601535-.0763831.6180877.0966724s.1745245.43257.0399123.6243276l-.818 1.153c.2079806-.0360305.4165725.0603039.524.242.1382327.2388784.0567713.5445824-.182.683l-1.783 1.029c-.2035198.1185418-.4621722.0789787-.6209515-.0949799-.1587793-.1739585-.1746281-.4351387-.0380485-.6270201l.779-1.1-1.831 1.056c-.2206356.1300292-.503851.072325-.6560244-.1336626s-.1241014-.4936554.0650244-.6663374l.565-.528-10.078 5.819c-.2298251.1278768-.5194281.0558458-.6625685-.1647961s-.0908781-.5144564.1195685-.6722039l5.531-4-10.289 5.945c-.2335451.1328438-.5303244.0573638-.6720248-.1709163s-.0776546-.5277351.1450248-.6780837l5.488-3.664-7.816 4.513c-.2347034.1364868-.5354374.0607325-.6774741-.1706544-.1420368-.2313868-.073465-.5338394.1544741-.6813456l8.9-5.809-11.541 6.661c-.236654.1424894-.5440105.066154-.6865-.1705-.1424894-.236654-.066154-.5440105.1705-.6865l3.163-1.98-4.915 2.837c-.0758978.0441549-.1621931.067282-.25.067z" fill="#a2a4b0"/><path id="Path" d="m25.737 57.45c-.176897-.0001889-.3405277-.0938352-.4302989-.2462613-.0897711-.1524261-.0923194-.3409418-.0067011-.4957387l.387-.7-2.017 1.166c-.2205392.1280792-.5021318.0696485-.6535046-.1356028-.1513729-.2052513-.124009-.4915375.0635046-.6643972l.308-.285-1.4.808c-.2250277.1259685-.5089467.060127-.6555632-.1520265-.1466165-.2121536-.1078274-.5010142.0895632-.6669735l.479-.392-1.33.767c-.2248726.1315945-.5131068.0684479-.6623629-.1451111-.149256-.213559-.1094985-.5059386.0913629-.6718889l2.162-1.8-3.439 1.985c-.2251563.1210314-.5053447.0527425-.6495628-.1583146-.144218-.2110571-.1060165-.4969059.0885628-.6626854l3.266-2.6-4.479 2.585c-.2303174.1272935-.5198822.0542782-.6623044-.1670037s-.0889497-.5150841.1223044-.6719963l1.721-1.225-2.483 1.433c-.2283835.1299972-.5184238.0610156-.6638282-.1578813-.1454044-.2188968-.0965443-.5129964.1118282-.6731187l5.341-4.066-6.636 3.831c-.2292016.1303039-.5201978.0602449-.6649792-.1600976s-.0935911-.5152436.1169792-.6739024l6.505-4.836-7.828 4.52c-.2310609.1298083-.523268.0567757-.6660866-.1664779-.1428185-.2232536-.086628-.5191613.1280866-.6745221l6.347-4.482-10.695 6.174c-.23132458.1263251-.52098691.0513891-.66202939-.1712679-.14104247-.2226569-.08502488-.5165645.12802939-.6717321l9.991-6.9-10.254 5.921c-.23436107.1288923-.5286543.0505227-.66787555-.1778537-.13922124-.2283764-.07406124-.5258734.14787555-.6751463l3.865-2.493-3.579 2.067c-.23541159.1379583-.53795774.061708-.67986369-.1713453-.14190596-.2330532-.07076502-.5368414.15986369-.6826547l3.261-2.093-2.733 1.579c-.23637787.1430418-.54395825.0673779-.687-.169s-.06737787-.5439582.169-.687l.588-.371c-.23561493.0490659-.47275464-.0766845-.56432797-.2992517-.09157333-.2225673-.01159445-.4787934.19032797-.6097483l4.41-2.853-3.288 1.9c-.23477127.1336383-.53323995.0566316-.67405087-.1739091-.14081092-.2305408-.07304023-.5312411.15305087-.6790909l3.02-1.944-3.347 1.929c-.23184122.125947-.52164614.0500755-.66202867-.1733204-.14038253-.223396-.08302436-.5174256.13102867-.6716796l10.129-6.9-12.828 7.406c-.23470337.1364868-.53543738.0607325-.67747413-.1706544-.14203676-.2313868-.07346495-.5338394.15447413-.6813456l8.785-5.719-7.179 4.147c-.2352733.1446986-.5433014.0712733-.688-.164s-.0712733-.5433014.164-.688l7.967-5.2-6.444 3.723c-.23252618.1307666-.52675914.0559509-.6685809-.1700024-.14182177-.2259533-.08127436-.5234503.1375809-.6759976l11.037-7.525-14.06 8.116c-.22727134.1290292-.5155715.0612656-.66156584-.155498s-.10042617-.5093938.10456584-.671502l3.19-2.48-2.5 1.444c-.21601049.1246636-.49085765.0710795-.64421986-.1255968s-.13833616-.4762947.03521986-.6554032l1.988-2.062-.125.072c-.15499454.0985297-.35153099.1041539-.51190641.0146489-.16037542-.0895049-.25877124-.2597296-.25628554-.4433739s.10545276-.3511436.26819195-.436275l3.208-1.852c.21647193-.1392943.50332772-.0914699.66290116.1105185.15957345.2019885.13971073.4921245-.04590116.6704815l-2 2.06 5.722-3.3c.22710024-.1265913.5133226-.0580067.6583864.1577626.1450637.2157693.100553.506709-.1023864.6692374l-3.19 2.481 19.32-11.154c.2318412-.125947.5216461-.0500755.6620287.1733204.1403825.223396.0830243.5174256-.1310287.6716796l-11.03 7.522 10.812-6.242c.2337734-.1287456.5274505-.051198.667188.1761759.1397374.2273739.07627.5244122-.144188.6748241l-7.969 5.2 7.447-4.3c.2334572-.1253051.5241289-.0467367.6626677.1791186.1385388.2258554.0768365.5205686-.1406677.6718814l-8.789 5.722 8.269-4.774c.2325262-.1307666.5267591-.0559509.6685809.1700024s.0812744.5234503-.1375809.6759976l-10.125 6.9 9.6-5.54c.2335877-.1237383.5231326-.0442789.6608429.1813541s.0760007.5194731-.1408429.6706459l-3.032 1.952 2.514-1.45c.2347713-.1336383.5332399-.0566316.6740509.1739091.1408109.2305408.0730402.5312411-.1530509.6790909l-4.406 2.85 3.886-2.243c.2349709-.1292146.5300387-.050062.6687925.179405.1387537.2294671.0717837.5275361-.1517925.675595l-.4.253c.2355336-.0586739.4791847.0602923.5777674.2821034s.0236161.4823851-.1777674.6178966l-3.258 2.091 2.74-1.583c.2347713-.1336383.5332399-.0566316.6740509.1739091.1408109.2305408.0730402.5312411-.1530509.6790909l-3.853 2.485 3.334-1.924c.23158-.1294027.5239091-.0554223.6660571.1685604.142148.2239828.0846277.5199909-.1310571.6744396l-9.993 6.9 9.46-5.461c.2310609-.1298083.523268-.0567757.6660866.1664779.1428185.2232536.086628.5191613-.1280866.6745221l-6.347 4.482 5.811-3.355c.2292016-.1303039.5201978-.0602449.6649792.1600976s.0935911.5152436-.1169792.6739024l-6.506 4.831 5.958-3.44c.2280542-.1290416.517047-.0601323.6623353.1579314.1452882.2180638.0975826.5113034-.1093353.6720686l-5.341 4.071 4.79-2.761c.2309306-.1317312.5245674-.0597083.6683337.1639283.1437664.2236366.0873821.520673-.1283337.6760717l-1.724 1.227 1.186-.684c.2230084-.1086285.491943-.0373306.6318467.1675105.1399036.204841.1084721.481285-.0738467.6494895l-3.267 2.6 2.707-1.563c.2245986-.1270093.5089574-.0622563.656419.1494768.1474617.2117332.109592.5009023-.087419.6675232l-2.162 1.8 1.594-.92c.2256098-.1311968.5141774-.0668035.6626093.1478598.1484318.2146634.1067938.5073817-.0956093.6721402l-.5.412c.2238953-.0919532.4815053-.0103315.6115951.1937791.1300898.2041107.0952999.4720933-.0825951.6362209l-.417.386c.1565228-.0235187.315079.0271158.429.137.1607764.1576033.1963912.4032224.087.6l-.446.8c.1825589-.0061532.3532104.0903691.442.25.1373847.2389169.0555349.543953-.183.682l-1.262.729c-.0755041.0454325-.1618817.0696182-.25.07z" fill="#c4c7d0"/><path id="Path" d="m11.763 31.063c-.2152152 0-.4062846-.137715-.4743416-.3418861-.0680571-.2041711.0021694-.4289848.1743416-.5581139l5.426-3.977-2.92 1.684c-.2280542.1290416-.517047.0601323-.6623353-.1579314-.1452882-.2180638-.0975826-.5113034.1093353-.6720686l3.031-2.307-.976.564c-.1429062.1071797-.3321367.1299782-.4964102.0598076-.1642734-.0701706-.2786328-.2226497-.3-.4-.0213672-.1773502.053504-.3526279.1964102-.4598076l2.187-2.077c-.1999561-.0464311-.3512175-.21036-.3814524-.4133973s.0667004-.4039259.2444524-.5066027l2.876-1.66c.2208953-.136633.509623-.0813788.6644625.1271591.1548394.208538.1242214.5009064-.0704625.6728409l-1.771 1.681 4.146-2.393c.2280542-.1290416.517047-.0601323.6623353.1579314.1452882.2180638.0975826.5113034-.1093353.6720686l-3.032 2.307 4.034-2.329c.2299138-.1328235.5235501-.0627731.6687427.1595365s.0912979.5193359-.1227427.6764635l-5.429 3.981 6.162-3.553c.2374252-.1242009.5305531-.0391619.6646466.1928199.1340935.2319817.0614797.5284321-.1646466.6721801l-14.087 8.135c-.0762338.0428941-.1625426.064644-.25.063z" fill="#c4c7d0"/><path id="Path" d="m57.05 45.783c-.1501613.0000306-.2923859-.0674279-.3873681-.1837327-.0949823-.1163048-.1326642-.2691398-.1026319-.4162673l.134-.672-.79.456c-.1882192.1085551-.4250019.0831269-.5858794-.062918-.1608775-.1460448-.20902-.3792721-.1191206-.577082l.486-1.067-2.069 1.193c-.2374252.1242009-.5305531.0391619-.6646466-.1928199-.1340935-.2319817-.0614797-.5284321.1646466-.6721801l3.418-1.974c.187959-.1045765.4217365-.0772265.5804811.0679113.1587445.1451379.2068784.3755355.1195189.5720887l-.485 1.068.4-.23c.170099-.0986194.3822068-.0883918.542028.026136.1598213.1145278.2376835.3120924.198972.504864l-.148.735c.192926-.0186.378573.0787371.473.248.1380647.2391402.0561341.5449248-.183.683l-.736.425c-.0746408.0439159-.1594082.0676921-.246.069z" fill="#c4c7d0"/><path id="Path" d="m58.705 40.374c-.103287.0003888-.2040663-.0318045-.288-.092-.1583913-.1134635-.2364465-.3086014-.2-.5l.049-.262-.58.333c-.1963224.1166568-.4467373.0854723-.6084524-.0757714s-.1936307-.4115664-.0775476-.6082286l.452-.771-1.844 1.064c-.2374252.1242009-.5305531.0391619-.6646466-.1928199-.1340935-.2319817-.0614797-.5284321.1646466-.6721801l3.48-2.009c.1963607-.1134973.4445199-.0806114.6045408.0801134s.1918173.409026.0774592.6048866l-.465.794c.1471768-.0452343.3070426-.01896.432.071.1583913.1134635.2364465.3086014.2.5l-.135.735c.0325389.0318576.0607777.0678285.084.107.066536.1150507.084529.2518576.0500041.3801999-.0345248.1283423-.1187262.2376584-.2340041.3038001l-.251.145c-.0751583.0421841-.1598137.0645524-.246.065z" fill="#c4c7d0"/><path id="Path" d="m34.972 57.454c-.2191374.0003093-.4129404-.1421113-.4780946-.351339s.013525-.4365002.1940946-.560661l7.7-5.288-9.1 5.256c-.2335451.1328438-.5303244.0573638-.6720248-.1709163s-.0776546-.5277351.1450248-.6780837l10.132-6.761-9.613 5.55c-.2329061.1254293-.5232086.0477402-.6623373-.1772508s-.0789338-.5194187.1373373-.6717492l8.28-5.469-7.755 4.474c-.2327769.1270897-.524286.0503218-.6642741-.174934-.139988-.2252559-.0797468-.5206233.1372741-.673066l12.356-8.224-11.829 6.829c-.2343611.1288923-.5286543.0505227-.6678755-.1778537-.1392213-.2283764-.0740613-.5258734.1478755-.6751463l7.163-4.61-6.643 3.833c-.2329061.1254293-.5232086.0477402-.6623373-.1772508s-.0789338-.5194187.1373373-.6717492l9.168-6.053-8.643 4.989c-.2349709.1292146-.5300387.050062-.6687925-.179405-.1387537-.2294671-.0717837-.5275361.1517925-.675595l1.359-.861-.842.486c-.2354379.13455-.5352149.0569022-.6757281-.1750261-.1405133-.2319283-.0705395-.5335888.1577281-.6799739l.656-.417-.138.079c-.2324996.1240701-.5213839.0463844-.6602955-.1775644-.1389116-.2239487-.0801563-.5172694.1342955-.6704356l4.733-3.149-4.207 2.432c-.2306836.128482-.5215078.0554404-.6641078-.1667933s-.0878131-.5170425.1251078-.6732067l7.118-5.056-6.579 3.8c-.2309506.1251572-.5193699.0502601-.6602447-.1714532-.1408749-.2217132-.0861633-.5146329.1252447-.6705468l5.033-3.5-4.5 2.6c-.2319831.1309881-.5259285.0570795-.6683699-.1680527-.1424414-.2251321-.0833463-.52241.1343699-.6759473l3.756-2.597-3.22 1.859c-.2334461.1352991-.5321345.0609722-.6749447-.1679561-.1428102-.2289282-.0782242-.5298733.1459447-.6800439l1.5-1.012-.975.562c-.2290632.1321979-.5214568.063148-.6671806-.1575572-.1457237-.2207053-.094369-.5167199.1171806-.6754428l5.854-4.381-5.3 3.06c-.2314518.1313128-.5252013.0583356-.6682918-.1660259-.1430904-.2243616-.0853808-.5214879.1312918-.6759741l2.642-1.853-2.1 1.214c-.2313246.1263251-.5209869.0513891-.6620294-.1712679-.1410425-.2226569-.0850249-.5165645.1280294-.6717321l1.322-.915-.788.454c-.2313261.1333882-.5266402.061466-.670727-.1633522-.1440867-.2248181-.0860887-.5231794.131727-.6776478l1.935-1.37-1.4.8c-.2310609.1298083-.523268.0567757-.6660866-.1664779-.1428185-.2232536-.086628-.5191613.1280866-.6745221l.982-.69-.444.255c-.2302873.1343427-.5254749.0643663-.6709518-.1590541-.1454768-.2234204-.0900639-.5216852.1259518-.6779459l1.659-1.21-1.114.643c-.2308022.1338179-.5260112.0628564-.670779-.1612399s-.0880924-.5223777.128779-.6777601l.405-.29c-.1898626.0237707-.3774036-.0588549-.488-.215-.1472541-.2176185-.1009432-.5120862.106-.674l1.17-.917-.3.174c-.2202286.1227467-.4973928.0623225-.6465459-.1409526s-.1236267-.4857984.0595459-.6590474l1.359-1.24c-.0900203-.0433412-.1646764-.1131133-.214-.2-.1382327-.2388784-.0567713-.5445824.182-.683l2.77-1.6c.2202286-.1227467.4973928-.0623225.6465459.1409526s.1236267.4857984-.0595459.6590474l-.606.553 2.415-1.393c.2271272-.1307942.5167067-.0640046.6636035.1530559.1468968.2170604.1012506.5107158-.1046035.6729441l-1.165.914 2.126-1.228c.2308022-.1338179.5260112-.0628564.670779.1612399s.0880924.5223777-.128779.6777601l-.122.087.515-.3c.2302873-.1343427.5254749-.0643663.6709518.1590541.1454768.2234204.0900639.5216852-.1259518.6779459l-1.669 1.225 2-1.156c.2317427-.1353654.5290201-.0636298.6735243.1625272.1445041.2261571.084687.5260601-.1355243.6794728l-.976.686 1.086-.627c.2316336-.1380114.5309786-.0675015.6766613.1593858.1456826.2268872.0852257.5284233-.1366613.6816142l-1.938 1.372 2.012-1.161c.2319831-.1309881.5259285-.0570795.6683699.1680527.1424414.2251321.0833463.52241-.1343699.6759473l-1.318.913 1.353-.782c.2314518-.1313128.5252013-.0583356.6682918.1660259.1430904.2243616.0853808.5214879-.1312918.6759741l-2.637 1.855 2.753-1.589c.2288588-.1292299.518701-.0592157.6633326.1602346.1446317.2194502.0946742.513414-.1143326.6727654l-5.848 4.378 6.238-3.6c.2334461-.1352991.5321345-.0609722.6749447.1679561.1428102.2289282.0782242.5298733-.1459447.6800439l-1.5 1.012 1.54-.889c.2333403-.1477362.5422638-.0783403.69.155.1477361.2333403.0783403.5422638-.155.69l-3.755 2.586 3.902-2.253c.2309506-.1251572.5193699-.0502601.6602447.1714532.1408749.2217132.0861633.5146329-.1252447.6705468l-5.033 3.5 5.519-3.186c.2309306-.1317312.5245674-.0597083.6683337.1639283.1437664.2236366.0873821.520673-.1283337.6760717l-7.121 5.057 8.789-5.073c.2335451-.1328438.5303244-.0573638.6720248.1709163s.0776546.5277351-.1450248.6780837l-4.732 3.144 6.69-3.862c.234481-.1270728.5274228-.0477401.6657366.1802909.1383139.2280309.0733058.5244809-.1477366.6737091l-.652.415 1.6-.92c.2349709-.1292146.5300387-.050062.6687925.179405.1387537.2294671.0717837.5275361-.1517925.675595l-1.364.864 2.006-1.158c.2336556-.130691.5287926-.0541466.6694787.1736308.140686.2277774.0769932.5259521-.1444787.6763692l-9.169 6.053 10.078-5.824c.2358256-.1438702.5436298-.0693256.6875.1665s.0693256.5436298-.1665.6875l-7.167 4.615 7.547-4.356c.2327769-.1270897.524286-.0503218.6642741.174934.139988.2252559.0797468.5206233-.1372741.673066l-12.354 8.223 8.553-4.939c.2340569-.1357068.5336008-.0606207.6759704.1694442s.0759129.5316408-.1499704.6805558l-8.277 5.467 8.61-4.971c.2335451-.1328438.5303244-.0573638.6720248.1709163s.0776546.5277351-.1450248.6780837l-10.14 6.76 6.729-3.884c.23171-.1276221.5227312-.0526794.6639792.1709853s.08384.5186462-.1309792.6730147l-7.7 5.29 7.793-4.5c.228242-.1318458.5196375-.063862.6659708.1553737.1463332.2192358.0973404.5144185-.1119708.6746263l-5.818 4.446 5.7-3.288c.217123-.1206668.4899085-.063641.6405105.1338986s.1333491.4756874-.0405105.6531014l-.672.668.079-.045c.1991468-.1142571.450514-.0782028.6095162.0874245s.1847708.4182562.0624838.6125755l-.844 1.331c.2111682.0299111.3801174.1904762.4207287.39985s-.0560565.4214595-.2407287.52815l-1.318.761c-.1991468.1142571-.450514.0782028-.6095162-.0874245s-.1847708-.4182562-.0624838-.6125755l.721-1.138-1.639.946c-.217123.1206668-.4899085.063641-.6405105-.1338986s-.1333491-.4756874.0405105-.6531014l.671-.667-9.081 5.242c-.228242.1318458-.5196375.063862-.6659708-.1553737-.1463332-.2192358-.0973404-.5144185.1119708-.6746263l5.818-4.446-12.117 7c-.076582.0441504-.1636079.0669429-.252.066z" fill="#c4c7d0"/><path id="Path" d="m28.536 59.273c-.2177125-.0000113-.4103931-.140897-.4764232-.3483549-.0660301-.2074578.0097698-.433796.1874232-.5596451l.523-.365-1.395.8c-.2288588.1292299-.518701.0592157-.6633326-.1602346-.1446317-.2194502-.0946742-.513414.1143326-.6727654l4.063-3.035-5.175 2.987c-.2308022.1338179-.5260112.0628564-.670779-.1612399s-.0880924-.5223777.128779-.6777601l4.321-3.1-5.026 2.9c-.2302873.1343427-.5254749.0643663-.6709518-.1590541-.1454768-.2234204-.0900639-.5216852.1259518-.6779459l6.193-4.52-6.76 3.9c-.2335451.1328438-.5303244.0573638-.6720248-.1709163s-.0776546-.5277351.1450248-.6780837l1.772-1.174-1.693.977c-.2275891.1298897-.5168511.062032-.6629348-.1555172-.1460838-.2175492-.0994243-.5109773.1069348-.6724828l5.669-4.378-5.612 3.24c-.2251719.1281476-.5109328.0630663-.6584056-.14995-.1474728-.2130162-.107801-.5033971.0914056-.66905l3.767-3.092-3.328 1.921c-.2274132.1273482-.5145055.05864-.6596263-.1578646-.1451209-.2165046-.0995839-.5081708.1046263-.6701354l.566-.439-.011.006c-.2050046.1170078-.4639131.074707-.6210179-.1014628s-.1696047-.4382131-.0299821-.6285372l1.309-1.763-.658.38c-.1784725.1023898-.4014472.0849928-.5618793-.043839-.160432-.1288318-.2255613-.3427911-.1641207-.539161l.225-.713c-.0752694-.0441594-.1376703-.1072499-.181-.183-.1375532-.2386555-.0561721-.5436114.182-.682l.5-.289c.1785224-.1030877.4020136-.0860425.5628376.0429264s.2260095.3434209.1641624.5400736l-.112.357 1.636-.945c.2050606-.1181262.4648513-.0763143.6224934.1001867.157642.1765011.1699563.4393467.0295066.6298133l-1.311 1.764 4.332-2.5c.2275891-.1298897.5168511-.062032.6629348.1555172.1460838.2175492.0994243.5109773-.1069348.6724828l-.568.44 2.2-1.272c.2251719-.1281476.5109328-.0630663.6584056.14995.1474728.2130162.107801.5033971-.0914056.66905l-3.759 3.089 6.782-3.916c.2275891-.1298897.5168511-.062032.6629348.1555172.1460838.2175492.0994243.5109773-.1069348.6724828l-5.667 4.376 8.852-5.11c.2335451-.1328438.5303244-.0573638.6720248.1709163s.0776546.5277351-.1450248.6780837l-1.773 1.183 1.243-.717c.2296891-.1296297.5205695-.0585592.6646041.1623819s.0916869.5157667-.1196041.6736181l-6.2 4.522 5.653-3.263c.2308022-.1338179.5260112-.0628564.670779.1612399s.0880924.5223777-.128779.6777601l-4.324 3.105 3.783-2.184c.2288588-.1292299.518701-.0592157.6633326.1602346.1446317.2194502.0946742.513414-.1143326.6727654l-4.06 3.029 3.352-1.934c.2306836-.128482.5215078-.0554404.6641078.1667933s.0878131.5170425-.1251078.6732067l-.729.517c.2193575-.048493.4441261.0552686.5495065.2536728.1053804.1984043.0654966.4427333-.0975065.5973272l-2.387 2.271c.2366396-.0312778.4623876.1090742.5390374.3351305.0766499.2260562-.0171766.4747677-.2240374.5938695l-3.337 1.926c-.2209688.1391878-.5118365.0848763-.6676883-.1246724-.1558519-.2095487-.1241864-.5037444.0726883-.6753276l2.272-2.161-5.3 3.061c-.0764036.0470903-.1642528.0723383-.254.073z" fill="#dee2ed"/><path id="Path" d="m29.713 55c-.1505093-.0004379-.2859243-.0915267-.3430657-.2307678-.0571415-.1392412-.0247485-.2991946.0820657-.4052322l1.911-1.885-3.2 1.85c-.1669724.095809-.379458.0484016-.4898712-.1092945-.1104132-.157696-.0822748-.3735798.0648712-.4977055l2.492-2.1-3.072 1.778c-.1674045.0947353-.3794236.0462259-.4889794-.1118771-.1095558-.1581031-.0805139-.3736532.0669794-.4971229l3.223-2.647-3.351 1.934c-.1674045.0947353-.3794236.0462259-.4889794-.1118771-.1095558-.1581031-.0805139-.3736532.0669794-.4971229l1.981-1.633-1.667.964c-.1570891.0896687-.3559097.0533464-.4711469-.0860733s-.1134872-.3415233.0041469-.4789267l1.315-1.521-.848.49c-.1283531.0750587-.2891208.0662352-.4084887-.0224194s-.1742749-.2400129-.1395113-.3845806l.222-.94c-.1317538-.0534344-.2215277-.1772937-.2313098-.3191338-.009782-.1418401.0621387-.2768508.1853098-.3478662l.374-.215c.1284773-.0746571.2891062-.0654541.4082159.0233883.1191097.0888423.1737199.2401832.1387841.3846117l-.176.747 2.014-1.162c.1570969-.091723.357525-.0560108.4732732.0843277.1157483.1403386.1126681.3439001-.0072732.4806723l-1.316 1.521 3.629-2.094c.1674045-.0947353.3794236-.0462259.4889794.1118771.1095558.1581031.0805139.3736532-.0669794.4971229l-1.981 1.631 3.393-1.963c.1674045-.0947353.3794236-.0462259.4889794.1118771.1095558.1581031.0805139.3736532-.0669794.4971229l-3.222 2.645 2.8-1.616c.1666915-.0952702.3785034-.0480325.4889188.1090373.1104154.1570697.0831574.3723665-.0629188.4969627l-2.493 2.1 2.067-1.195c.1617475-.0914539.3661725-.0495299.4788661.0982071s.0990901.3559728-.0318661.4877929l-1.911 1.886 1.079-.623c.1148609-.0664514.2564481-.0665775.3714272-.0003307.114979.0662467.1858818.1888018.186.3215.0001181.1326981-.0705663.2553793-.1854272.3218307l-3.587 2.072c-.0567166.0331467-.121309.0504174-.187.05z" fill="#8e234c"/><path id="Path" d="m36.33 51.3c-.1991178.000129-.3793327-.1179-.4587897-.3004774-.0794569-.1825773-.0430087-.3948974.0927897-.5405226l1.229-1.32-3.613 2.083c-.2223898.1269737-.5047663.065395-.6540994-.1426415-.1493332-.2080365-.1173442-.4952735.0740994-.6653585l2.718-2.4-3.989 2.3c-.2283835.1299972-.5184238.0610156-.6638282-.1578813-.1454044-.2188968-.0965443-.5129964.1118282-.6731187l1.283-.969-1.56.9c-.2219765.128183-.5049351.0677387-.6551637-.1399529-.1502285-.2076917-.1190618-.4953507.0721637-.6660471l2.991-2.671-3.008 1.736c-.1549945.0985297-.351531.1041539-.5119064.0146489-.1603754-.0895049-.2587712-.2597296-.2562855-.4433739s.1054527-.3511436.2681919-.436275l7.2-4.159c.2219765-.128183.5049351-.0677387.6551637.1399529.1502285.2076917.1190618.4953507-.0721637.6660471l-2.983 2.671 4.35-2.511c.2283835-.1299972.5184238-.0610156.6638282.1578813.1454044.2188968.0965443.5129964-.1118282.6731187l-1.28.968 1.315-.759c.2225048-.1289965.5065753-.0681522.6567253.1406622.15015.2088145.1173946.4974755-.0757253.6673378l-2.718 2.4 2.185-1.26c.214156-.122774.4858627-.0708854.6397046.1221662s.1437736.4694853-.0237046.6508338l-1.417 1.524c.2208089.0112125.4080386.166114.4604121.3809146s-.0425451.4384965-.2334121.5500854l-2.431 1.4c-.0756236.0450362-.161982.0688711-.25.069z" fill="#dee2ed"/><path id="Path" d="m24.025 51.344c-.2122369.0000468-.4013779-.1339006-.471791-.3341167-.0704131-.2002162-.0067538-.4230698.158791-.5558833l4.677-3.77-6.331 3.655c-.2296891.1296297-.5205695.0585592-.6646041-.1623819s-.0916869-.5157667.1196041-.6736181l1.9-1.392-2.211 1.277c-.2254634.1287726-.5119753.0635416-.6594703-.1501437-.1474949-.2136853-.1068861-.5047094.0934703-.6698563l2.483-2.034-2.574 1.487c-.2262112.1327757-.5165722.0681745-.6651499-.1479864-.1485778-.2161609-.1048589-.5103912.1001499-.6740136l.656-.529-.324.186c-.2064426.1180853-.4674942.0744119-.6242603-.1044374s-.1658572-.4433726-.0217397-.6325626l1.076-1.4c-.2361894.0299691-.4607507-.1107583-.5367674-.3363798-.0760167-.2256214.0175984-.4735492.2237674-.5926202l1.934-1.116c.2064997-.1192475.468472-.0760768.6257899.1031247.157318.1792015.1661971.4445584.0212101.6338753l-1.01 1.318 3.693-2.129c.2257586-.1294404.5130594-.0640705.6605892.1503047.1475298.2143751.1059565.5060712-.0955892.6706953l-.653.527 2.337-1.348c.2251719-.1281476.5109328-.0630663.6584056.14995.1474728.2130162.107801.5033971-.0914056.66905l-2.485 2.031 4.944-2.85c.2296891-.1296297.5205695-.0585592.6646041.1623819s.0916869.5157667-.1196041.6736181l-1.907 1.393 3.863-2.229c.2259042-.1277621.5120042-.0614438.6586593.152678.1466552.2141217.1051039.5048532-.0956593.669322l-4.677 3.77.31-.178c.2163843-.1232964.4905169-.0685506.6429461.1284.1524291.1969505.1366764.476052-.0369461.6546l-1.071 1.09c.1955437.0519651.340495.2166573.3672071.417217.026712.2005596-.070081.3974492-.2452071.498783l-2.432 1.4c-.216466.1248481-.4918692.0707117-.6449718-.1267831s-.1368886-.4776996.0379718-.6562169l.694-.7-2.7 1.556c-.0763652.0448953-.1634163.0683853-.252.068z" fill="#dee2ed"/><path id="Path" d="m47.708 20.512c-.1775038.0002053-.3418101-.0937134-.4317093-.2467682-.0898991-.1530549-.0919127-.3422987-.0052907-.4972318l.457-.817-.711.41c-.2087634.1201586-.4735249.0743925-.6298391-.1088725-.1563143-.183265-.1597449-.451931-.0081609-.6391275l1.048-1.287-1.235.713c-.2184203.1276802-.4977941.0720852-.6506935-.1294872s-.1311343-.4855915.0506935-.6615128l.971-.943-1 .58c-.2247172.1334451-.5142955.0713124-.6644881-.1425745s-.1103229-.50736.0914881-.6734255l.269-.225-.165.094c-.2216051.1258959-.5024401.0649572-.6519354-.1414642-.1494952-.2064214-.1197998-.4922535.0689354-.6635358l1.452-1.294-1.6.926c-.225024.1298327-.5119893.0657046-.6603401-.147566s-.108657-.5046224.0913401-.670434l1.239-1.028-.372.214c-.2180963.1257781-.4956948.0697764-.6479698-.1307191-.1522751-.2004955-.1317242-.4829397.0479698-.6592809l3.169-3.113-.03-.044c-.1380647-.23914015-.0561341-.54492481.183-.683l1.484-.857c.2184203-.12768021.4977941-.07208516.6506935.12948722s.1311343.48559145-.0506935.66151278l-1.894 1.856 2.053-1.185c.225024-.12983267.5119893-.06570465.6603401.14756599s.108657.50462239-.0913401.67043401l-1.24 1.03.732-.423c.2219765-.128183.5049351-.0677387.6551637.1399529.1502285.2076917.1190618.4953507-.0721637.6660471l-1.45 1.291.825-.476c.2247172-.1334451.5142955-.0713124.6644881.1425745s.1103229.50736-.0914881.6734255l-.464.389c.174104-.0149973.3436947.0605442.449.2.1519158.2013688.1300483.4843603-.051.66l-.97.941.1-.056c.2087634-.1201586.4735249-.0743925.6298391.1088725.1563143.183265.1597449.451931.0081609.6391275l-1.058 1.3c.1965903-.0784779.4212964-.0246593.5610034.1343642.1397071.1590235.1641388.3887894.0609966.5736358l-.878 1.573c.0116984.0147224.0220721.0304503.031.047.1373847.2389169.0555349.543953-.183.682l-.5.287c-.0750392.0422523-.1598886.063982-.246.063z" fill="#dee2ed"/><path id="Path" d="m11.875 20.425c-.1915959.0003493-.3665434-.1088182-.4504346-.281072s-.0619722-.3772995.0564346-.527928l1.385-1.768-1.417.818c-.2222396.1285782-.5057439.0679309-.6559297-.1403165-.1501859-.2082474-.1182322-.4963997.0739297-.6666835l1.388-1.23-1.239.715c-.2235892.1309392-.5101637.0693762-.6602503-.1418375-.1500866-.2112138-.1139527-.5020905.0832503-.6701625l.8-.685-.485.28c-.2219765.128183-.5049351.0677387-.6551637-.1399529-.15022854-.2076917-.11906177-.4953507.0721637-.6660471l.748-.668-.428.246c-.2159307.1231341-.4895276.0689462-.64222301-.1271971-.15269541-.1961432-.13811588-.4746734.03422301-.6538029l1.16-1.191-.667.385c-.2190652.1318893-.50233939.0772423-.65662421-.1266708s-.12985658-.4913741.05662421-.6663292l.294-.283c-.15675724.0129947-.30993448-.0516386-.41-.173-.15627482-.181968-.16131044-.4492753-.012-.637l.634-.795c-.1987635.0804756-.42671166.025248-.56660071-.1372768s-.16056741-.3961546-.05139929-.5807232l.432-.729c-.19260835-.05531452-.33358478-.220283-.35819927-.41915935-.02461449-.19887634.07188855-.39323713.24519927-.49384065l1.11-.641c.196643-.11200016.4439957-.07796001.6030753.08299394.1590797.16095396.1902204.40868832.0759247.60400606l-.273.462.568-.328c.2079146-.11942938.4713404-.07444985.6278456.10720358.1565052.18165344.1620244.44883481.0131544.63679642l-.628.787.9-.519c.2190652-.13188932.5023394-.07724227.6566242.12667084s.1298566.49137406-.0566242.66632916l-.132.127.222-.128c.2159307-.1231341.4895276-.0689462.642223.1271971.1526954.1961432.1381159.4746734-.034223.6538029l-1.161 1.193 1.5-.863c.2219765-.128183.5049351-.0677387.6551637.1399529.1502285.2076917.1190618.4953507-.0721637.6660471l-.747.668.936-.54c.2230711-.126215.5054574-.0633143.6538691.1456472.1484117.2089616.1147824.4963073-.0778691.6653528l-.8.685.866-.5c.2222396-.1285782.5057439-.0679309.6559297.1403165.1501859.2082474.1182322.4963997-.0739297.6666835l-1.717 1.523c.1300819.0099762.2509057.0711073.336.17.1574627.180998.1641773.448325.016.637l-2.018 2.578c.0267614.0280239.0499388.059263.069.093.1380647.2391402.0561341.5449248-.183.683l-.988.57c-.0765986.0452089-.164058.0687157-.253.068z" fill="#dee2ed"/><path id="Path" d="m29.152 47.142c-.2025859-.0000409-.3851259-.122321-.4622494-.3096523-.0771236-.1873313-.0335866-.4026863.1102494-.5453477l1.217-1.212-1.653.954c-.210704.121866-.4785513.0742927-.6344017-.1126784-.1558503-.186971-.1544141-.4590066.0034017-.6443216l1.078-1.263-1.9 1.1c-.1990398.1123116-.4488979.0753715-.6069237-.0897301-.1580259-.1651017-.1839931-.4163373-.0630763-.6102699l.452-.7-.239.138c-.2374252.1242009-.5305531.0391619-.6646466-.1928199-.1340935-.2319817-.0614797-.5284321.1646466-.6721801l2.026-1.182c.1990398-.1123116.4488979-.0753715.6069237.0897301.1580259.1651017.1839931.4163373.0630763.6102699l-.451.7 2.621-1.514c.210704-.121866.4785513-.0742927.6344017.1126784.1558503.186971.1544141.4590066-.0034017.6443216l-1.077 1.265 2.461-1.421c.217123-.1206668.4899085-.063641.6405105.1338986s.1333491.4756874-.0405105.6531014l-1.218 1.213 1.451-.837c.1549945-.0985297.351531-.1041539.5119064-.0146489.1603754.0895049.2587712.2597296.2562855.4433739s-.1054527.3511436-.2681919.436275l-4.768 2.759c-.0751386.0443412-.1607537.0678163-.248.068z" fill="#636c76"/><path id="Path" d="m19.075 40.456c-.2064157.0002477-.391767-.1263742-.4665923-.3187506s-.0237427-.41096.1285923-.5502494l.316-.288-1.253.722c-.2240372.1259992-.5071082.0616068-.6545964-.1489061s-.1113381-.4985559.0835964-.6660939l1.033-.867-1.532.884c-.2241703.1280952-.5090066.0644456-.6573283-.1468868-.1483216-.2113324-.1113468-.5008421.0853283-.6681132l2.009-1.7-2.267 1.31c-.228242.1318458-.5196375.063862-.6659708-.1553737-.1463332-.2192358-.0973404-.5144185.1119708-.6746263l.706-.542-.575.331c-.2187434.1297091-.5000021.0745628-.6535686-.128145s-.1305136-.4883932.0535686-.663855l2.965-2.862-2.481 1.432c-.2087634.1201586-.4735249.0743925-.6298391-.1088725-.1563143-.183265-.1597449-.451931-.0081609-.6391275l1.734-2.138c-.2414373.0602336-.490423-.0662405-.5841808-.2967389s-.0037497-.494862.2111808-.6202611l2.181-1.259c.2087634-.1201586.4735249-.0743925.6298391.1088725.1563143.183265.1597449.451931.0081609.6391275l-1.7 2.1 3.673-2.12c.2187434-.1297091.5000021-.0745628.6535686.128145s.1305136.4883932-.0535686.663855l-2.964 2.86 3.588-2.073c.227731-.1281621.5157443-.059345.6609391.1579231.1451949.217268.0985947.509699-.1069391.6710769l-.71.546.574-.331c.2238916-.1275836.5080784-.0641108.6564103.1466086.148332.2107193.1122202.4996603-.0834103.6673914l-2.008 1.7 1.627-.94c.2244518-.1286386.5099659-.0648202.6582866.1471407.1483207.211961.1104625.5020607-.0872866.6688593l-1.031.866.264-.152c.2203354-.1244491.4989119-.0646624.6487785.1392378.1498666.2039001.1237692.4876223-.0607785.6607622l-1.016.93c.0967606.0423419.1771331.1149931.229.207.1382327.2388784.0567713.5445824-.182.683l-2.808 1.621c-.0758031.044382-.1621615.067526-.25.067z" fill="#fff"/><path id="Path" d="m41.485 40.373c-.1949653.0000701-.37219-.1131926-.4540144-.2901566-.0818243-.1769639-.0533231-.38535.0730144-.5338434l1.49-1.749-3.294 1.9c-.2190652.1318893-.5023394.0772423-.6566242-.1266708s-.1298566-.4913741.0566242-.6663292l2.785-2.676-3.485 2.017c-.2225048.1289965-.5065753.0681522-.6567253-.1406622-.15015-.2088145-.1173946-.4974755.0757253-.6673378l2.745-2.427-2.734 1.577c-.2206356.1300292-.503851.072325-.6560244-.1336626s-.1241014-.4936554.0650244-.6663374l2.568-2.39-2.015 1.164c-.2102941.1220171-.4778777.0750757-.6340828-.1112352-.156205-.186311-.1557481-.4579804.0010828-.6437648l1.628-1.93c-.194242.0158347-.3805263-.0804122-.48-.248-.1380647-.2391402-.0561341-.5449248.183-.683l2.181-1.259c.2102322-.1207224.4767777-.0732389.6323878.1126561.1556102.1858951.1554467.4566369-.0003878.6423439l-1.54 1.827 3.376-1.949c.2206356-.1300292.503851-.072325.6560244.1336626s.1241014.4936554-.0650244.6663374l-2.57 2.388 3.205-1.85c.2225048-.1289965.5065753-.0681522.6567253.1406622.15015.2088145.1173946.4974755-.0757253.6673378l-2.746 2.432 2.754-1.589c.2190652-.1318893.5023394-.0772423.6566242.1266708s.1298566.4913741-.0566242.6663292l-2.786 2.676 2.235-1.29c.2106402-.1205642.4774423-.072448.6326961.114103.1552538.1865509.1541169.4576547-.0026961.642897l-1.6 1.876c.186436-.0081047.3618701.0882877.455.25.1380647.2391402.0561341.5449248-.183.683l-2.172 1.254c-.0756097.0426395-.1612069.0643839-.248.063z" fill="#fff"/><g fill="#262626"><path id="Shape" d="m23.725 34.913c0-.022-.012-.034-.015-.054s.015-.034.014-.053c-.128-2.781-1.991-5.612-5.095-5.186-2.6185663.5077299-4.4706417 2.856216-4.354 5.521-.006 2.62 1.776 5.374 4.629 5.273 2.963-.105 4.696-2.762 4.821-5.501zm-5.5 4.438c-1.729-.517-2.477-2.93-2.474-4.492 0-2.255 1.459-5.189 4.227-4.1 1.635.642 2.209 2.82 2.292 4.381-.114 2.151-1.27 5.041-4.044 4.211z"/><path id="Shape" d="m41.059 29.45c-2.919.041-4.773 2.908-4.794 5.6-.021 2.635 1.717 5.464 4.582 5.5 3.038.035 4.763-2.882 4.888-5.6-.122-2.65-1.665-5.541-4.676-5.5zm-.279 9.972c-2.033-.275-3.031-2.675-3.045-4.472-.014-1.889 1.146-4.69 3.485-4.372 2.085.283 2.962 2.672 3.045 4.472-.087 1.878-1.065 4.701-3.485 4.372z"/><path id="Shape" d="m47.314 20.677h.005c.4003169.2335465.9058522.180524 1.249-.131.0902626-.0633273.1497704-.1616602.164-.271 1.0513415-2.2052784 1.7005265-4.5805434 1.917-7.014.109-1.277.59-4.489-.573-5.418-.6656681-.44645031-1.5393954-.4292714-2.187.043-1.884 1.114-3.519 3.854-4.867 5.562-.118.149-.194.316-.068.489 1.616 2.231 2.373 4.763 4.36 6.74zm-2.239-7.941c.5826965-.8706667 1.2583335-1.6753957 2.015-2.4.3626667-.416.7293333-.82833333 1.1-1.237.85-.31733333 1.1896667-.082 1.019.706.1945266 1.1898221.1860737 2.4040017-.025 3.591-.1710457 1.9595165-.6352155 3.8822653-1.377 5.704-.88162-1.2412789-1.6589425-2.5534287-2.324-3.923-.615-1.129-1-1.3-.408-2.441z"/><path id="Shape" d="m1.294 40.261c3.367-1.532 2.748-1.663 2.061.3s-1.81 3.415-2.049 5.576c-.056.5 1.113.114 1.287-.039 5.141-4.546 2.7-.358 2.447 1.878-.20661145 1.8428523.23923322 3.6998307 1.26 5.248.218.372 1.2.083 1.39-.214 1.884-2.968 6.137.774 7.943 1.681 2.686207 1.3925817 5.603383 2.2847787 8.609 2.633.0371728.0009797.0743519-.0016999.111-.008 3.2415212 2.3787198 7.6528529 2.374669 10.89-.01 2.8717466-.3387209 5.6666282-1.1553171 8.269-2.416 2.381-1.13 6.48-5.237 8.747-1.666.267.421 1.248.031 1.444-.3 1.5273509-2.5136244 1.6727538-5.6311232.386-8.276 1.1901134.2776494 2.2931539.8451433 3.211 1.652.272.24 1.452-.009 1.4-.459-.3058-2.2273735-1.1403926-4.3491726-2.434-6.188.7311985.1547625 1.4431489.3895083 2.123.7.256.117 1.279-.04 1.3-.424.1613023-3.1266732-.376049-6.2500064-1.573-9.143-1.0037852-2.2503389-2.3352213-4.3396589-3.951-6.2-2.066-2.616-1.486-2.886-.558-5.868.5510586-1.8198693.8899732-3.6973216 1.01-5.595.2-2.756.689-11.077-2.609-12.323-2.858-1.079-6.1 3.3-7.619 4.927-.8577452 1.13650862-1.7986632 2.20778477-2.815 3.205-1.706 1.325-2.557.678-4.367.763-1.9.089-3.317.815-5.11 1.174-3.253.651-5.319-1.129-8.4-1.174-.6767177.02089497-1.351755.07931808-2.022.175-2.134.21-2.321-.141-3.67-1.731-1.892-2.239-5.905-8.539-9.574-7.31-3.007 1.008-2.926 6.3-3.077 8.8-.11082902 1.7875214-.05223443 3.5815202.175 5.358.283 2.169 1.592 4.393 1.785 6.452.246 2.633-3.029 4.972-4.363 7.392-1.08164015 1.9825605-1.85357184 4.1189464-2.289 6.335-.014.048-.021.1-.03.144-.32110347 1.6169632-.4326874 3.2685398-.332 4.914.024.318.889.085.994.037zm12.285 11.99c-.81-.489-1.629-1.375-2.579-1.492-1.33007169-.003217-2.62083817.4508108-3.656 1.286-1.2245589-2.6062957-1.07466673-5.6506056.4-8.124.148-.277-.537-.232-.6-.225-1.48610318.1125579-2.9319892.5360349-4.244 1.243.49003642-2.1549295 1.44194749-4.1778258 2.79-5.929.254-.351-.371-.333-.549-.314-1.037.111-2.122.5-3.132.6-.106.011-.2.024-.281.038.00350558-.0445979.00350558-.0894021 0-.134-.08604208-1.2019177-.00595463-2.4099595.238-3.59.05620198-.0600155.08948069-.1379019.094-.22.0014066-.1803159.02185334-.3599791.061-.536.01-.047.02-.095.031-.142.753-2.771 6.268-1.744 8.384-2.664 1.0824465-.5275395 1.9800647-1.3700805 2.575-2.417 1.014-1.5 1.847-3.165 2.758-4.727 2.161-3.7 8.422-6.558 10.2-.484.861 2.936.2 6.834.2 9.834v8.161c-.041.025-.083.051-.122.077-2.219-.038-4.955-.372-6.324 1.76-1.039 1.618-.477 3.947.653 5.375.2337776.2843805.5025762.5380592.8.755-.0694734 2.1666549.6557293 4.2839337 2.039 5.953-3.4570033-.7883297-6.7511312-2.1701311-9.736-4.084zm18.736-9.391c.0928068.1795906.2759213.294516.478.3.2405198.1940143.4048391.4666993.464.77-.181.714-1.239 1.034-1.748 1.421-.283.216-.623.764-.912.931-.876.505-1.088-.226-1.52-.665-.3788329-.3587678-.8067889-.6618051-1.271-.9-2.439-1.413.393-2.308 1.911-2.313.8879136-.0250796 1.7717004.1300423 2.598.456zm6.368 5.57c-1.654 3.232-7.594 2.523-7.922-1.239.6022596-.3418906 1.1460985-.7777044 1.611-1.291.8-.714 2.129-1.006 2.352-2.209 0-.021-.008-.034-.009-.053s.012-.032.009-.049c-.006-.044-.021-.085-.031-.127 1.526-.067 3.29-.087 4.127 1.17.6159996 1.2041075.564154 2.6414043-.137 3.798zm-17.283-.045c-.5473214-.9180094-.7626722-1.9961753-.61-3.054.5-2.03 2.817-1.954 4.558-1.867-.0715164.2137886-.0880243.4421483-.048.664.2 1.094 1.933 1.531 2.59 2.251.3480521.4354276.8170261.7582821 1.348.928-.308 3.829-6.116 4.208-7.838 1.078zm8.545.926c.7839727 1.090696 1.9665801 1.8280738 3.291 2.052-.0181148.8750832-.3913548 1.7051657-1.0339351 2.299463-.6425804.5942973-1.4992325.9016934-2.3730649.851537-1.6289332-.2570575-2.8831707-1.5744167-3.06-3.214 1.2589475-.2725921 2.383273-.976047 3.179-1.989zm-2.67 8.651c-.7039444-.3059055-1.3523803-.7262569-1.919-1.244-.012005-.0146688-.0270068-.026602-.044-.035-1.4922825-1.4641297-2.3926521-3.4268571-2.529-5.513.8168985.2682115 1.6763312.3831416 2.535.339.5 5.232 8.674 4.973 9.341 0 .8797106.0085716 1.7534149-.1456913 2.577-.455-.364 4.961-4.49 9.265-9.958 6.908zm22.225-7.194c-.6525009.1970936-1.2628118.5134381-1.8.933-3.833 2.106-7.145 4.158-11.554 4.83 1.6572609-1.6767304 2.5815511-3.9425003 2.57-6.3.2747486-.2091622.5250006-.4486796.746-.714 1.1774914-1.3813552 1.5458846-3.2783334.971-5-1.108-2.452-4.1-2.08-6.37-2.03-.1019714-.0839086-.2095551-.1607542-.322-.23v-8.124c0-2.6-.553-5.851 0-8.393 2.116-9.734 7.433-5.049 9.288-2.482.349.483.592 1.058.911 1.56.948 1.495 1.724 3.1 2.678 4.589.5929972 1.211464 1.5609093 2.1993656 2.76 2.817 2.08.886 7.73.205 8.475 2.708.013.06.021.121.033.18.0314418.1328375.049201.268545.053.405-.0015999.0901325.0223204.1788803.069.256.194545 1.1427406.2835866 2.300951.266 3.46-.9247189-.2750925-1.8743151-.4583126-2.835-.547-.224-.024-1.44.187-1.134.609 1.2082425 1.5929226 2.1058683 3.3990298 2.646 5.324-1.1038599-.5209524-2.2931607-.8370828-3.51-.933-.177-.018-1.375.176-1.181.538 1.3829256 2.3348474 1.6045568 5.179115.6 7.7-.92359-.8135912-2.1313409-1.229115-3.36-1.156zm-45.11-22.154c.794-1.429 3.917-4.091 4.415-5.356.795-2.021-.913-4.13-1.405-6.258-.9-3.815-1.285-8.956.1-12.7.14-.65.29966667-1.29533333.479-1.936 1.31433792-.58731389 2.8604612-.16944274 3.7 1 1.1482509.92342514 2.1846176 1.97791481 3.088 3.142 1.379 1.51 2.6 3.638 4.4 4.537.2666667-.012.5333333-.031.8-.057 1.8778305-.405758 3.8147162-.4589952 5.712-.157-.07-.022 3.007 1.734 3.8 1.727 1.429-.014 14.193-2.865 9.854-1.589.605-.178 1.1.231 1.7-.163 2.048-1.342 3.489-3.9 5.192-5.668s4.221-4.873 6.03-1.562c.58 1.061.6 2.864.748 4.05.527854 4.3592583.0478584 8.781513-1.403 12.926-1.148 3.438-.145 2.779 2.158 5.641 1.583208 1.9981535 2.787992 4.2687732 3.555 6.7-.9027138-.5382005-1.8756255-.9487685-2.891-1.22-3.079-.73-5.389-1.037-7.086-3.946-2.276-3.9-4.5-9.378-10.081-8.053-4.6 1.092-4.992 5.236-4.992 9.131v12.89c-1.5012747-.3080258-3.0532822-.2666252-4.536.121v-12.733c0-4.342-.584-9.511-6.271-9.5-4.757 0-6.556 4.567-8.6 8.063-1.742 2.985-3.795 3.392-6.983 4.129-1.17731874.3171379-2.30310048.8013958-3.343 1.438.017-.058.032-.118.049-.176.43228602-1.5381861 1.03994044-3.0215877 1.811-4.421z"/><path id="Shape" d="m11.3 20.564c.2.425 1.338.105 1.45-.255 1.9-1.987 2.708-4.469 4.306-6.674.0708365-.0810353.0708365-.2019647 0-.283-1.285-1.628-2.86-4.313-4.635-5.382-.7387933-.48186922-1.6999686-.45070893-2.406.078-1.119.889-.764 3.048-.72 4.333.09221877 2.8373879.7750857 5.6243704 2.005 8.183zm-.55-10.329c.0186667-.47466667.052-.94833333.1-1.421.6035851.10813175 1.1304785.47301642 1.444 1 .7525077.7644268 1.4511787 1.5800442 2.091 2.441.906 1.1 1.041 1.3.488 2.6-.6411445 1.5671859-1.4911724 3.0405228-2.527 4.38-.7325356-1.6992313-1.2220128-3.4931957-1.454-5.329-.1468185-1.2177886-.195642-2.445398-.146-3.671z"/><path id="Path" d="m18.266 34.054v2c0 .763 1.468.553 1.468-.108v-2c0-.763-1.468-.553-1.468.108z"/><path id="Path" d="m40.264 34.049v2c0 .782 1.472.586 1.472-.1v-2c0-.78-1.472-.584-1.472.1z"/></g></g></svg>