<svg height="512pt" viewBox="0 -31 512 512" width="512pt" xmlns="http://www.w3.org/2000/svg"><path d="m30 60h452v390h-452zm0 0" fill="#fbc56d"/><g fill="#ebae56"><path d="m256 60h226v390h-226zm0 0"/><path d="m91 300h120v30h-120zm0 0"/><path d="m91 360h120v30h-120zm0 0"/></g><path d="m361 150c0 16.5-13.5 30-30 30h-150c-16.5 0-30-13.5-30-30s13.5-30 30-30h150c16.5 0 30 13.5 30 30zm0 0" fill="#61729b"/><path d="m361 150c0 16.5-13.5 30-30 30h-75v-60h75c16.5 0 30 13.5 30 30zm0 0" fill="#47568c"/><path d="m0 0h512v90h-512zm0 0" fill="#ebae56"/><path d="m256 0h256v90h-256zm0 0" fill="#cc9249"/></svg>